<svg width="26" height="26" fill="none" xmlns="http://www.w3.org/2000/svg"><g opacity=".85"><path d="M12.957 25.586c6.904 0 12.5-5.596 12.5-12.5 0-6.903-5.596-12.5-12.5-12.5-6.903 0-12.5 5.597-12.5 12.5 0 6.904 5.597 12.5 12.5 12.5z" fill="#FF4C00"/><path d="M12.957 23.694c5.859 0 10.608-4.75 10.608-10.608 0-5.858-4.75-10.607-10.608-10.607C7.1 2.479 2.35 7.228 2.35 13.086c0 5.859 4.749 10.608 10.607 10.608z" fill="#DE3B00"/><path d="M18.506 4.033a10.559 10.559 0 0 1 1.668 5.713c0 5.859-4.748 10.608-10.607 10.608-2.035 0-3.936-.573-5.551-1.565a10.599 10.599 0 0 0 8.939 4.894c5.858 0 10.607-4.75 10.607-10.608 0-3.824-2.024-7.175-5.059-9.042h.003z" fill="#C52F05"/><path d="M4.206 14.056A9.364 9.364 0 0 1 20.994 8.35 9.364 9.364 0 1 0 5.453 18.725a9.332 9.332 0 0 1-1.244-4.669h-.003z" fill="#ED7447"/></g><path d="M5.8 15.22c-.188-.53-.318-1.076-.479-1.617-.247-.848-.486-1.697-.728-2.548-.008-.027-.022-.051.002-.092l1.26.66c.44.232.88.466 1.32.7.033.018.069.043.11.018a.219.219 0 0 0 .097.087c.71.37 1.42.743 2.126 1.118.093.049.134.027.18-.06.32-.617.647-1.232.97-1.846.025-.044.047-.09.039-.142.09-.016.095-.1.127-.16.56-1.068 1.118-2.137 1.675-3.205.016-.03.033-.057.063-.11.15.28.288.54.424.8l1.33 2.545c.026.052.032.122.11.133-.007.07.03.128.06.185.316.601.637 1.2.95 1.803.054.103.105.098.193.051.492-.26.99-.516 1.481-.777.248-.13.495-.27.742-.403l.664-.334c.054-.027.111-.049.166-.073 0 .799-.014 1.596.01 2.395a.873.873 0 0 1-.886.88c-4.002-.01-8.007-.005-12.009-.005l.003-.002zm7.566-1.8c0-.32-.062-.565-.212-.78-.263-.378-.688-.459-.99-.2-.45.39-.538 1.144-.19 1.63.31.436.743.468 1.107.082.21-.223.27-.5.283-.734l.002.003z" fill="#F8CD69" stroke="#000" stroke-width=".5" stroke-miterlimit="10"/><path d="M5.8 15.22c4.002 0 8.007-.005 12.01.006.53 0 .9-.438.886-.88-.025-.797-.008-1.597-.011-2.396l1.773-.94c.019-.012.04-.012.062-.017-.01.231-.103.446-.168.669-.452 1.593-.909 3.186-1.365 4.78-.011.038-.025.073-.036.11H6.178L5.8 15.224v-.002z" fill="#F6C144" stroke="#000" stroke-width=".5" stroke-miterlimit="10"/><path d="M18.157 16.55h.794c0 .492 0 .987.005 1.48 0 .097-.032.13-.125.116-.027-.003-.054 0-.084 0-4.124 0-8.246 0-12.37.003-.158 0-.229-.025-.213-.204.02-.199.009-.4.009-.598h11.454a.517.517 0 0 0 .5-.386c.044-.136.011-.275.022-.414l.008.003z" fill="#F2A23A" stroke="#000" stroke-width=".5" stroke-miterlimit="10"/><path d="M10.7 11.496c.008.051-.014.098-.038.141-.324.615-.65 1.229-.971 1.846-.046.087-.087.109-.18.06-.706-.375-1.416-.745-2.126-1.117a.302.302 0 0 1-.097-.087c.244-1.333.492-2.665.745-4.046.157.185.285.337.413.492.75.903 1.5 1.808 2.254 2.71zM17.855 12.358c-.248.133-.492.272-.742.402-.493.261-.99.517-1.482.778-.09.046-.139.051-.193-.052-.313-.604-.631-1.202-.95-1.803-.029-.057-.07-.114-.059-.184.636-.767 1.275-1.537 1.914-2.303l.748-.895c.26 1.379.514 2.719.764 4.06v-.003z" fill="#F6C144" stroke="#000" stroke-width=".5" stroke-miterlimit="10"/><path d="M18.157 16.55c-.01.136.022.275-.022.413a.52.52 0 0 1-.5.386H6.181v-.802H18.16l-.003.003z" fill="#F4B461" stroke="#000" stroke-width=".5" stroke-miterlimit="10"/><path d="m20.522 10.992.008-.013-.01.01v.003h.002z" fill="#F6C144" stroke="#000" stroke-width=".5" stroke-miterlimit="10"/><path d="M13.366 13.42c-.014.235-.074.512-.283.735-.364.386-.797.35-1.107-.082-.35-.49-.26-1.24.19-1.631.3-.258.724-.177.99.201.15.215.212.46.212.78l-.002-.002z" fill="#F2A23A" stroke="#000" stroke-width=".5" stroke-miterlimit="10"/><mask id="a" fill="#fff"><path d="M19.218 14.935c-.008-.036.015-.061.03-.09.013.04.01.07-.03.09z"/></mask><path d="M19.218 14.935c-.008-.036.015-.061.03-.09.013.04.01.07-.03.09z" fill="#772A0C"/><path d="m19.218 14.935-.49.105.136.63.577-.288-.223-.447zm.03-.09.475-.157-.363-1.09-.55 1.008.438.24zm.459-.015a.434.434 0 0 1-.03.27c-.008.018-.016.03-.014.026l.003-.004.005-.008a.838.838 0 0 0 .016-.029l-.878-.479c.004-.006.01-.015 0 .001-.006.01-.022.036-.038.07a.572.572 0 0 0-.042.363l.978-.21zm-.933.174c-.005-.015-.038-.112-.003-.24a.44.44 0 0 1 .223-.276l.447.894a.56.56 0 0 0 .282-.694l-.949.316z" fill="#000" mask="url(#a)"/><mask id="b" fill="#fff"><path d="M19.255 14.806c-.005-.028.013-.046.028-.064 0 .025.01.053-.028.064z"/></mask><path d="M19.255 14.806c-.005-.028.013-.046.028-.064 0 .025.01.053-.028.064z" fill="#772A0C"/><path d="m19.255 14.806-.492.09.097.532.524-.14-.129-.482zm.028-.064h.5V13.39l-.88 1.027.38.325zm.464-.026a.45.45 0 0 1-.087.354c-.002.003-.01.012.003-.003l-.76-.65c.013-.015-.04.043-.077.108-.05.09-.09.219-.063.37l.984-.179zm-.964.026c0 .024.003.07.002.047 0 0-.004-.046.008-.105a.472.472 0 0 1 .334-.361l.257.966a.529.529 0 0 0 .39-.414c.014-.07.01-.128.01-.142-.002-.035 0-.003 0 .009h-1z" fill="#000" mask="url(#b)"/><mask id="c" fill="#fff"><path d="M9.984 12.508s-.003.02-.008.023c-.096.036-.188.084-.29.107h-.02c.102-.051.206-.1.315-.127l.003-.003z"/></mask><path d="M9.984 12.508s-.003.02-.008.023c-.096.036-.188.084-.29.107h-.02c.102-.051.206-.1.315-.127l.003-.003z" fill="#FEF67F"/><path d="m9.984 12.508.496.062.18-1.445-1.03 1.03.354.353zm-.008.023.173.47.026-.01.025-.013-.224-.447zm-.29.107v.5h.056l.055-.012-.11-.488zm-.02 0-.223-.447.223.947v-.5zm.315-.127.124.484.133-.034.097-.097-.354-.353zm.003-.003-.496-.062a.028.028 0 0 0 0-.003v-.004a.461.461 0 0 1 .03-.107.482.482 0 0 1 .235-.248l.447.894a.504.504 0 0 0 .269-.345.644.644 0 0 0 .008-.04l.002-.014v-.008l-.495-.063zm-.18-.446c-.058.021-.133.054-.159.064a.466.466 0 0 1-.068.024l.22.976c.09-.02.169-.05.225-.074l.127-.052-.346-.938zm-.117.076H9.666v1H9.687v-1zm.203.947c.098-.049.161-.076.215-.09l-.248-.968a2.084 2.084 0 0 0-.414.164l.447.894zm.445-.22.002-.003-.707-.707-.002.002.707.707z" fill="#000" mask="url(#c)"/><mask id="d" fill="#fff"><path d="M8.366 12.701c-.073.013-.14-.028-.208-.035-.01 0-.015-.016-.015-.026.076.015.155.026.223.061z"/></mask><path d="M8.366 12.701c-.073.013-.14-.028-.208-.035-.01 0-.015-.016-.015-.026.076.015.155.026.223.061z" fill="#FEF67F"/><path d="m8.366 12.701.085.493 1.465-.253-1.32-.684-.23.444zm-.208-.035.056-.497-.028-.003h-.028v.5zm-.015-.026.098-.49-.598-.12v.61h.5zm.138-.431a.316.316 0 0 1 .092-.003l.021.003a.568.568 0 0 1-.052-.015.828.828 0 0 0-.128-.025l-.11.994-.028-.005a.688.688 0 0 1 .05.015.733.733 0 0 0 .325.021l-.17-.986zm-.123-.043c.282 0 .409.213.436.267a.461.461 0 0 1 .05.207h-1c0 .074.014.158.056.24a.513.513 0 0 0 .458.286v-1zm-.113.965.062.011a.865.865 0 0 1 .036.008c.017.004.01.004-.007-.005l.46-.888c-.15-.077-.33-.102-.355-.107l-.196.98z" fill="#000" mask="url(#d)"/><mask id="e" fill="#fff"><path d="M11.427 10.81c0 .028.013.061-.025.077-.013-.034.008-.054.025-.077z"/></mask><path d="M11.427 10.81c0 .028.013.061-.025.077-.013-.034.008-.054.025-.077z" fill="#FEA63B"/><path d="M11.427 10.81h.5V9.353l-.894 1.15.394.307zm-.025.077-.467.18.182.472.47-.188-.185-.464zm-.475-.077c0 .034.004.075.003.063v-.02a.442.442 0 0 1 .089-.277.456.456 0 0 1 .197-.154l.372.929a.544.544 0 0 0 .338-.44c.007-.06.002-.11.001-.12-.002-.027 0 0 0 .02h-1zm.942-.103a.445.445 0 0 1-.014.352c-.017.037-.036.061-.04.067l-.003.004.01-.013-.79-.614a.602.602 0 0 0-.081.127.55.55 0 0 0-.016.436l.934-.359z" fill="#000" mask="url(#e)"/><mask id="f" fill="#fff"><path d="M11.392 10.932c.005.025.015.053-.028.059-.002-.026-.005-.051.028-.059z"/></mask><path d="M11.392 10.932c.005.025.015.053-.028.059-.002-.026-.005-.051.028-.059z" fill="#FEA63B"/><path d="m11.392 10.932.49-.098-.1-.505-.502.116.112.487zm-.028.059-.497.05.05.506.506-.06-.059-.496zm-.462.04c.007.036 0 .003 0-.002-.002-.013-.012-.078.005-.16a.478.478 0 0 1 .399-.375l.117.993a.522.522 0 0 0 .467-.614l-.008-.039-.98.196zm.96-.09v.024a.47.47 0 0 1-.358.454l-.224-.974a.53.53 0 0 0-.417.533c0 .032.003.06.004.062l.995-.1z" fill="#000" mask="url(#f)"/><mask id="g" fill="#fff"><path d="M7.03 18.65c.024 0 .05-.002.062.026-.026.003-.049.003-.061-.025z"/></mask><path d="M7.03 18.65c.024 0 .05-.002.062.026-.026.003-.049.003-.061-.025z" fill="#FEA63B"/><path d="M7.03 18.65v-.5h-.776l.322.708.455-.207zm.062.026.05.498.694-.07-.289-.635-.455.207zm-.061.475c.024 0 .005 0 0 0a.46.46 0 0 1-.394-.267l.91-.415a.542.542 0 0 0-.482-.318h-.034v1zm.011-.972.01-.001a.386.386 0 0 1 .15.018.462.462 0 0 1 .284.248l-.91.414a.54.54 0 0 0 .336.295c.116.036.22.022.23.02l-.1-.994z" fill="#000" mask="url(#g)"/></svg>