<svg width="27" height="27" viewBox="0 0 27 27" fill="none" xmlns="http://www.w3.org/2000/svg">
<g opacity="0.85">
<path d="M13.6504 25.9648C20.5539 25.9648 26.1504 20.3684 26.1504 13.4648C26.1504 6.56129 20.5539 0.964844 13.6504 0.964844C6.74683 0.964844 1.15039 6.56129 1.15039 13.4648C1.15039 20.3684 6.74683 25.9648 13.6504 25.9648Z" fill="#FF4C00"/>
<path d="M13.6502 24.0725C19.5086 24.0725 24.2578 19.3233 24.2578 13.4648C24.2578 7.60639 19.5086 2.85718 13.6502 2.85718C7.7917 2.85718 3.04248 7.60639 3.04248 13.4648C3.04248 19.3233 7.7917 24.0725 13.6502 24.0725Z" fill="#DE3B00"/>
<path d="M19.1987 4.41132C20.2552 6.06047 20.8674 8.02268 20.8674 10.1246C20.8674 15.9833 16.1184 20.7323 10.2597 20.7323C8.22482 20.7323 6.3241 20.1593 4.7085 19.167C6.59244 22.1103 9.89354 24.0614 13.6474 24.0614C19.5061 24.0614 24.2551 19.3124 24.2551 13.4537C24.2551 9.6299 22.2314 6.27849 19.1959 4.41132H19.1987Z" fill="#C52F05"/>
<path d="M4.89863 14.4347C4.89863 9.26369 9.09139 5.07093 14.2625 5.07093C17.284 5.07093 19.973 6.50485 21.6864 8.72701C20.0708 5.92066 17.0381 4.03113 13.5665 4.03113C8.39539 4.03113 4.20264 8.22388 4.20264 13.3949C4.20264 15.5444 4.92659 17.5234 6.14528 19.1027C5.35425 17.7275 4.90143 16.1342 4.90143 14.4347H4.89863Z" fill="#ED7447"/>
</g>
<path d="M6.49277 15.599C6.30517 15.0689 6.17467 14.5224 6.01425 13.9813C5.76684 13.1331 5.52758 12.2848 5.28561 11.4338C5.27745 11.4066 5.26386 11.3821 5.28833 11.3413C5.70703 11.5616 6.12845 11.7818 6.54715 12.002C6.9876 12.2331 7.42805 12.4669 7.8685 12.7008C7.90113 12.7198 7.93647 12.7443 7.97725 12.7198C8.00172 12.7579 8.03163 12.7878 8.07513 12.8068C8.78475 13.1766 9.49436 13.549 10.2013 13.9242C10.2937 13.9732 10.3345 13.9514 10.3807 13.8644C10.7015 13.2472 11.0278 12.6328 11.3513 12.0183C11.3758 11.9748 11.3975 11.9286 11.3894 11.877C11.4791 11.8606 11.4845 11.7764 11.5172 11.7165C12.0773 10.648 12.6346 9.57954 13.192 8.51104C13.2083 8.48113 13.2246 8.45394 13.2545 8.40228C13.404 8.68232 13.5427 8.94061 13.6786 9.20162C14.1218 10.0499 14.565 10.8982 15.0082 11.7464C15.0353 11.7981 15.0408 11.8688 15.1196 11.8797C15.1115 11.9504 15.1495 12.0075 15.1794 12.0646C15.4948 12.6654 15.8156 13.2636 16.1283 13.8671C16.1827 13.9705 16.2343 13.965 16.3214 13.9188C16.8135 13.6578 17.311 13.4022 17.8031 13.1412C18.0505 13.0107 18.2979 12.872 18.5454 12.7388C18.7656 12.6273 18.9885 12.5159 19.2088 12.4044C19.2631 12.3772 19.3202 12.3555 19.3746 12.331C19.3746 13.1303 19.361 13.927 19.3855 14.7263C19.3991 15.1722 19.0293 15.6099 18.4991 15.6072C14.497 15.5963 10.4922 15.6018 6.49005 15.6018L6.49277 15.599ZM14.0593 13.7992C14.0593 13.4783 13.9967 13.2336 13.8472 13.0189C13.5835 12.6409 13.1593 12.5594 12.8576 12.8177C12.4062 13.2092 12.3192 13.9623 12.6672 14.449C12.9772 14.884 13.4095 14.9166 13.7738 14.5305C13.9832 14.3076 14.043 14.0303 14.0566 13.7964L14.0593 13.7992Z" fill="#F8CD69" stroke="black" stroke-width="0.5" stroke-miterlimit="10"/>
<path d="M6.49316 15.5991C10.4953 15.5991 14.5001 15.5936 18.5022 15.6045C19.0324 15.6045 19.4022 15.1668 19.3886 14.7236C19.3641 13.927 19.3804 13.1276 19.3777 12.3283C19.9677 12.0156 20.5604 11.7003 21.1504 11.3876C21.1694 11.3767 21.1912 11.3767 21.2129 11.3713C21.2021 11.6024 21.1096 11.8172 21.0444 12.0401C20.593 13.6333 20.1363 15.2266 19.6795 16.8198C19.6686 16.8579 19.655 16.8932 19.6442 16.9313C19.3804 16.9313 19.114 16.9313 18.8503 16.9313C14.8563 16.9313 10.865 16.9313 6.87108 16.9313C6.74602 16.4881 6.61823 16.045 6.49316 15.6018V15.5991Z" fill="#F6C144" stroke="black" stroke-width="0.5" stroke-miterlimit="10"/>
<path d="M18.8501 16.9286C19.1138 16.9286 19.3802 16.9286 19.6439 16.9286C19.6439 17.4207 19.644 17.9155 19.6494 18.4076C19.6494 18.5055 19.6168 18.5381 19.5243 18.5245C19.4971 18.5218 19.4699 18.5245 19.44 18.5245C15.3156 18.5245 11.1938 18.5245 7.06934 18.5272C6.91165 18.5272 6.84096 18.5028 6.85727 18.3233C6.87631 18.1248 6.86543 17.9237 6.86543 17.7252C10.6337 17.7252 14.402 17.7252 18.1703 17.7252C18.2193 17.7252 18.2709 17.7252 18.3199 17.7252C18.5646 17.7197 18.7467 17.5756 18.8201 17.3391C18.8636 17.2032 18.831 17.0645 18.8419 16.9258L18.8501 16.9286Z" fill="#F2A23A" stroke="black" stroke-width="0.5" stroke-miterlimit="10"/>
<path d="M11.3926 11.8742C11.4008 11.9258 11.379 11.9721 11.3545 12.0156C11.031 12.63 10.7047 13.2445 10.3839 13.8616C10.3377 13.9486 10.2969 13.9704 10.2045 13.9215C9.49758 13.5463 8.78796 13.1765 8.07835 12.804C8.03756 12.7823 8.00766 12.7524 7.98047 12.717C8.22516 11.3848 8.47258 10.0526 8.72543 8.67139C8.88312 8.85627 9.01091 9.00852 9.13869 9.1635C9.88909 10.0661 10.6395 10.9715 11.3926 11.8742Z" fill="#F6C144" stroke="black" stroke-width="0.5" stroke-miterlimit="10"/>
<path d="M18.5476 12.7361C18.3002 12.8693 18.0555 13.008 17.8054 13.1385C17.3133 13.3995 16.8157 13.6551 16.3236 13.9161C16.2339 13.9623 16.185 13.9678 16.1306 13.8644C15.8179 13.2609 15.4998 12.6627 15.1817 12.0619C15.1518 12.0048 15.111 11.9477 15.1219 11.877C15.7581 11.1103 16.397 10.3408 17.036 9.57412C17.2752 9.28593 17.5172 8.99773 17.7837 8.67963C18.0447 10.0581 18.2975 11.3985 18.5476 12.7388V12.7361Z" fill="#F6C144" stroke="black" stroke-width="0.5" stroke-miterlimit="10"/>
<path d="M18.85 16.9286C18.8391 17.0645 18.8717 17.2032 18.8282 17.3418C18.7548 17.5784 18.57 17.7225 18.328 17.7279C18.279 17.7279 18.2274 17.7279 18.1784 17.7279C14.4101 17.7279 10.6418 17.7279 6.87354 17.7279C6.87354 17.4615 6.87354 17.195 6.87354 16.9258C10.8675 16.9258 14.8587 16.9258 18.8527 16.9258L18.85 16.9286Z" fill="#F4B461" stroke="black" stroke-width="0.5" stroke-miterlimit="10"/>
<path d="M21.215 11.3708C21.215 11.3708 21.2202 11.3629 21.2228 11.3577C21.2202 11.3603 21.215 11.3655 21.2124 11.3682V11.3708H21.215Z" fill="#F6C144" stroke="black" stroke-width="0.5" stroke-miterlimit="10"/>
<path d="M14.0586 13.7991C14.045 14.0329 13.9852 14.3102 13.7759 14.5332C13.4116 14.9192 12.9793 14.8839 12.6693 14.4516C12.3186 13.9622 12.4083 13.2118 12.8596 12.8203C13.1587 12.562 13.5828 12.6436 13.8493 13.0215C13.9988 13.2363 14.0614 13.481 14.0614 13.8018L14.0586 13.7991Z" fill="#F2A23A" stroke="black" stroke-width="0.5" stroke-miterlimit="10"/>
<circle cx="13.272" cy="13.4648" r="12" stroke="#FFFEFE" stroke-width="1.75684"/>
<mask id="path-14-inside-1_1189_5547" fill="white">
<path d="M19.9107 15.3135C19.9031 15.2778 19.926 15.2524 19.9412 15.2244C19.954 15.2626 19.9514 15.2931 19.9107 15.3135Z"/>
</mask>
<path d="M19.9107 15.3135C19.9031 15.2778 19.926 15.2524 19.9412 15.2244C19.954 15.2626 19.9514 15.2931 19.9107 15.3135Z" fill="#772A0C"/>
<path d="M19.9107 15.3135L19.4218 15.4182L19.557 16.0493L20.1343 15.7607L19.9107 15.3135ZM19.9412 15.2244L20.4156 15.0663L20.0523 13.9765L19.5023 14.9849L19.9412 15.2244ZM20.3996 15.2087C20.4115 15.2645 20.4118 15.3199 20.4032 15.371C20.3951 15.4199 20.3802 15.4566 20.3705 15.4775C20.3615 15.4966 20.3535 15.5093 20.3564 15.5045C20.3569 15.5036 20.3574 15.5028 20.3588 15.5006C20.3599 15.4987 20.3617 15.4958 20.3637 15.4926C20.3675 15.4862 20.3735 15.476 20.3802 15.4638L19.5023 14.9849C19.5057 14.9786 19.5112 14.9698 19.5015 14.9857C19.4961 14.9946 19.4799 15.0212 19.4643 15.0546C19.4286 15.1311 19.3879 15.2603 19.4218 15.4182L20.3996 15.2087ZM19.4669 15.3825C19.462 15.3676 19.4288 15.27 19.4641 15.1423C19.5071 14.987 19.6159 14.9019 19.6871 14.8663L20.1343 15.7607C20.2463 15.7047 20.3767 15.5941 20.4279 15.4089C20.4715 15.2513 20.4333 15.1193 20.4156 15.0663L19.4669 15.3825Z" fill="black" mask="url(#path-14-inside-1_1189_5547)"/>
<mask id="path-16-inside-2_1189_5547" fill="white">
<path d="M19.9482 15.1841C19.9431 15.1561 19.9609 15.1382 19.9762 15.1204C19.9762 15.1459 19.9863 15.1739 19.9482 15.1841Z"/>
</mask>
<path d="M19.9482 15.1841C19.9431 15.1561 19.9609 15.1382 19.9762 15.1204C19.9762 15.1459 19.9863 15.1739 19.9482 15.1841Z" fill="#772A0C"/>
<path d="M19.9482 15.1841L19.4562 15.2735L19.5532 15.8069L20.077 15.6672L19.9482 15.1841ZM19.9762 15.1204H20.4762V13.7688L19.5965 14.795L19.9762 15.1204ZM20.4401 15.0946C20.4501 15.1496 20.4498 15.2073 20.4383 15.2641C20.4271 15.3195 20.4074 15.3631 20.3903 15.3935C20.374 15.4225 20.3584 15.4421 20.3531 15.4487C20.3512 15.4511 20.343 15.4608 20.3558 15.4458L19.5965 14.795C19.6093 14.7801 19.5553 14.8382 19.5187 14.9033C19.4681 14.9933 19.4288 15.1224 19.4562 15.2735L20.4401 15.0946ZM19.4762 15.1204C19.4762 15.145 19.4792 15.19 19.4779 15.1678C19.4779 15.1671 19.4743 15.1212 19.4857 15.0626C19.4991 14.9932 19.5341 14.9016 19.6135 14.8214C19.6886 14.7457 19.7701 14.7141 19.8193 14.7009L20.077 15.6672C20.1453 15.649 20.2398 15.6101 20.3238 15.5254C20.412 15.4363 20.4516 15.3342 20.4673 15.2534C20.4809 15.1833 20.4771 15.125 20.4764 15.1116C20.4744 15.0766 20.4762 15.1086 20.4762 15.1204H19.4762Z" fill="black" mask="url(#path-16-inside-2_1189_5547)"/>
<mask id="path-18-inside-3_1189_5547" fill="white">
<path d="M10.6766 12.8868C10.6766 12.8868 10.6741 12.9071 10.669 12.9096C10.5726 12.9452 10.4812 12.9934 10.3797 13.0162C10.3746 13.0162 10.367 13.0162 10.3594 13.0162C10.4609 12.9655 10.565 12.9172 10.6741 12.8893L10.6766 12.8868Z"/>
</mask>
<path d="M10.6766 12.8868C10.6766 12.8868 10.6741 12.9071 10.669 12.9096C10.5726 12.9452 10.4812 12.9934 10.3797 13.0162C10.3746 13.0162 10.367 13.0162 10.3594 13.0162C10.4609 12.9655 10.565 12.9172 10.6741 12.8893L10.6766 12.8868Z" fill="#FEF67F"/>
<path d="M10.6766 12.8868L11.1728 12.9488L11.3535 11.5032L10.3232 12.5332L10.6766 12.8868ZM10.669 12.9096L10.8419 13.3788L10.8679 13.3692L10.8926 13.3568L10.669 12.9096ZM10.3797 13.0162V13.5162H10.4352L10.4894 13.504L10.3797 13.0162ZM10.3594 13.0162L10.1358 12.569L10.3594 13.5162V13.0162ZM10.6741 12.8893L10.798 13.3737L10.9307 13.3398L11.0276 13.2429L10.6741 12.8893ZM10.6766 12.8868C10.1805 12.8247 10.1805 12.8247 10.1805 12.8246C10.1805 12.8246 10.1805 12.8246 10.1805 12.8245C10.1805 12.8244 10.1806 12.8244 10.1806 12.8243C10.1806 12.8242 10.1806 12.824 10.1806 12.8239C10.1807 12.8236 10.1807 12.8233 10.1807 12.823C10.1808 12.8224 10.1809 12.8218 10.181 12.8212C10.1811 12.82 10.1813 12.8188 10.1815 12.8175C10.1818 12.8151 10.1822 12.8124 10.1827 12.8094C10.1835 12.8043 10.1852 12.7948 10.188 12.7827C10.1901 12.7741 10.1968 12.746 10.2115 12.7109C10.2189 12.6935 10.234 12.6602 10.2604 12.6224C10.2831 12.5897 10.3405 12.5149 10.4454 12.4624L10.8926 13.3568C10.9989 13.3037 11.0574 13.2277 11.0813 13.1935C11.1087 13.154 11.1249 13.1188 11.1332 13.099C11.1499 13.0594 11.1582 13.0258 11.1614 13.0118C11.1656 12.9943 11.1682 12.9796 11.1696 12.9706C11.1704 12.9657 11.1711 12.9613 11.1716 12.9578C11.1718 12.956 11.1721 12.9543 11.1723 12.9528C11.1724 12.9521 11.1725 12.9514 11.1725 12.9507C11.1726 12.9504 11.1726 12.9501 11.1727 12.9497C11.1727 12.9496 11.1727 12.9494 11.1727 12.9493C11.1727 12.9492 11.1727 12.9491 11.1728 12.949C11.1728 12.949 11.1728 12.9489 11.1728 12.9489C11.1728 12.9489 11.1728 12.9488 10.6766 12.8868ZM10.4962 12.4405C10.4389 12.4616 10.3637 12.494 10.3379 12.5045C10.2985 12.5205 10.2803 12.5261 10.2699 12.5284L10.4894 13.504C10.5806 13.4835 10.6588 13.4535 10.7146 13.4309C10.784 13.4026 10.8028 13.3932 10.8419 13.3788L10.4962 12.4405ZM10.3797 12.5162C10.3797 12.5162 10.3797 12.5162 10.3797 12.5162C10.3796 12.5162 10.3796 12.5162 10.3796 12.5162C10.3796 12.5162 10.3796 12.5162 10.3796 12.5162C10.3796 12.5162 10.3796 12.5162 10.3796 12.5162C10.3796 12.5162 10.3795 12.5162 10.3795 12.5162C10.3795 12.5162 10.3795 12.5162 10.3795 12.5162C10.3795 12.5162 10.3795 12.5162 10.3795 12.5162C10.3795 12.5162 10.3795 12.5162 10.3794 12.5162C10.3794 12.5162 10.3794 12.5162 10.3794 12.5162C10.3794 12.5162 10.3794 12.5162 10.3794 12.5162C10.3794 12.5162 10.3794 12.5162 10.3793 12.5162C10.3793 12.5162 10.3793 12.5162 10.3793 12.5162C10.3793 12.5162 10.3793 12.5162 10.3793 12.5162C10.3793 12.5162 10.3793 12.5162 10.3793 12.5162C10.3792 12.5162 10.3792 12.5162 10.3792 12.5162C10.3792 12.5162 10.3792 12.5162 10.3792 12.5162C10.3792 12.5162 10.3792 12.5162 10.3792 12.5162C10.3792 12.5162 10.3791 12.5162 10.3791 12.5162C10.3791 12.5162 10.3791 12.5162 10.3791 12.5162C10.3791 12.5162 10.3791 12.5162 10.3791 12.5162C10.3791 12.5162 10.3791 12.5162 10.379 12.5162C10.379 12.5162 10.379 12.5162 10.379 12.5162C10.379 12.5162 10.379 12.5162 10.379 12.5162C10.379 12.5162 10.379 12.5162 10.3789 12.5162C10.3789 12.5162 10.3789 12.5162 10.3789 12.5162C10.3789 12.5162 10.3789 12.5162 10.3789 12.5162C10.3789 12.5162 10.3789 12.5162 10.3789 12.5162C10.3788 12.5162 10.3788 12.5162 10.3788 12.5162C10.3788 12.5162 10.3788 12.5162 10.3788 12.5162C10.3788 12.5162 10.3788 12.5162 10.3788 12.5162C10.3788 12.5162 10.3787 12.5162 10.3787 12.5162C10.3787 12.5162 10.3787 12.5162 10.3787 12.5162C10.3787 12.5162 10.3787 12.5162 10.3787 12.5162C10.3787 12.5162 10.3786 12.5162 10.3786 12.5162C10.3786 12.5162 10.3786 12.5162 10.3786 12.5162C10.3786 12.5162 10.3786 12.5162 10.3786 12.5162C10.3786 12.5162 10.3786 12.5162 10.3785 12.5162C10.3785 12.5162 10.3785 12.5162 10.3785 12.5162C10.3785 12.5162 10.3785 12.5162 10.3785 12.5162C10.3785 12.5162 10.3785 12.5162 10.3784 12.5162C10.3784 12.5162 10.3784 12.5162 10.3784 12.5162C10.3784 12.5162 10.3784 12.5162 10.3784 12.5162C10.3784 12.5162 10.3784 12.5162 10.3783 12.5162C10.3783 12.5162 10.3783 12.5162 10.3783 12.5162C10.3783 12.5162 10.3783 12.5162 10.3783 12.5162C10.3783 12.5162 10.3783 12.5162 10.3783 12.5162C10.3782 12.5162 10.3782 12.5162 10.3782 12.5162C10.3782 12.5162 10.3782 12.5162 10.3782 12.5162C10.3782 12.5162 10.3782 12.5162 10.3782 12.5162C10.3781 12.5162 10.3781 12.5162 10.3781 12.5162C10.3781 12.5162 10.3781 12.5162 10.3781 12.5162C10.3781 12.5162 10.3781 12.5162 10.3781 12.5162C10.378 12.5162 10.378 12.5162 10.378 12.5162C10.378 12.5162 10.378 12.5162 10.378 12.5162C10.378 12.5162 10.378 12.5162 10.378 12.5162C10.3779 12.5162 10.3779 12.5162 10.3779 12.5162C10.3779 12.5162 10.3779 12.5162 10.3779 12.5162C10.3779 12.5162 10.3779 12.5162 10.3779 12.5162C10.3778 12.5162 10.3778 12.5162 10.3778 12.5162C10.3778 12.5162 10.3778 12.5162 10.3778 12.5162C10.3778 12.5162 10.3778 12.5162 10.3778 12.5162C10.3778 12.5162 10.3777 12.5162 10.3777 12.5162C10.3777 12.5162 10.3777 12.5162 10.3777 12.5162C10.3777 12.5162 10.3777 12.5162 10.3777 12.5162C10.3777 12.5162 10.3776 12.5162 10.3776 12.5162C10.3776 12.5162 10.3776 12.5162 10.3776 12.5162C10.3776 12.5162 10.3776 12.5162 10.3776 12.5162C10.3776 12.5162 10.3775 12.5162 10.3775 12.5162C10.3775 12.5162 10.3775 12.5162 10.3775 12.5162C10.3775 12.5162 10.3775 12.5162 10.3775 12.5162C10.3775 12.5162 10.3774 12.5162 10.3774 12.5162C10.3774 12.5162 10.3774 12.5162 10.3774 12.5162C10.3774 12.5162 10.3774 12.5162 10.3774 12.5162C10.3773 12.5162 10.3773 12.5162 10.3773 12.5162C10.3773 12.5162 10.3773 12.5162 10.3773 12.5162C10.3773 12.5162 10.3773 12.5162 10.3773 12.5162C10.3772 12.5162 10.3772 12.5162 10.3772 12.5162C10.3772 12.5162 10.3772 12.5162 10.3772 12.5162C10.3772 12.5162 10.3772 12.5162 10.3772 12.5162C10.3771 12.5162 10.3771 12.5162 10.3771 12.5162C10.3771 12.5162 10.3771 12.5162 10.3771 12.5162C10.3771 12.5162 10.3771 12.5162 10.3771 12.5162C10.377 12.5162 10.377 12.5162 10.377 12.5162C10.377 12.5162 10.377 12.5162 10.377 12.5162C10.377 12.5162 10.377 12.5162 10.377 12.5162C10.3769 12.5162 10.3769 12.5162 10.3769 12.5162C10.3769 12.5162 10.3769 12.5162 10.3769 12.5162C10.3769 12.5162 10.3769 12.5162 10.3769 12.5162C10.3768 12.5162 10.3768 12.5162 10.3768 12.5162C10.3768 12.5162 10.3768 12.5162 10.3768 12.5162C10.3768 12.5162 10.3768 12.5162 10.3767 12.5162C10.3767 12.5162 10.3767 12.5162 10.3767 12.5162C10.3767 12.5162 10.3767 12.5162 10.3767 12.5162C10.3767 12.5162 10.3767 12.5162 10.3766 12.5162C10.3766 12.5162 10.3766 12.5162 10.3766 12.5162C10.3766 12.5162 10.3766 12.5162 10.3766 12.5162C10.3766 12.5162 10.3766 12.5162 10.3765 12.5162C10.3765 12.5162 10.3765 12.5162 10.3765 12.5162C10.3765 12.5162 10.3765 12.5162 10.3765 12.5162C10.3765 12.5162 10.3764 12.5162 10.3764 12.5162C10.3764 12.5162 10.3764 12.5162 10.3764 12.5162C10.3764 12.5162 10.3764 12.5162 10.3764 12.5162C10.3764 12.5162 10.3763 12.5162 10.3763 12.5162C10.3763 12.5162 10.3763 12.5162 10.3763 12.5162C10.3763 12.5162 10.3763 12.5162 10.3763 12.5162C10.3762 12.5162 10.3762 12.5162 10.3762 12.5162C10.3762 12.5162 10.3762 12.5162 10.3762 12.5162C10.3762 12.5162 10.3762 12.5162 10.3762 12.5162C10.3761 12.5162 10.3761 12.5162 10.3761 12.5162C10.3761 12.5162 10.3761 12.5162 10.3761 12.5162C10.3761 12.5162 10.3761 12.5162 10.376 12.5162C10.376 12.5162 10.376 12.5162 10.376 12.5162C10.376 12.5162 10.376 12.5162 10.376 12.5162C10.376 12.5162 10.376 12.5162 10.3759 12.5162C10.3759 12.5162 10.3759 12.5162 10.3759 12.5162C10.3759 12.5162 10.3759 12.5162 10.3759 12.5162C10.3759 12.5162 10.3758 12.5162 10.3758 12.5162C10.3758 12.5162 10.3758 12.5162 10.3758 12.5162C10.3758 12.5162 10.3758 12.5162 10.3758 12.5162C10.3757 12.5162 10.3757 12.5162 10.3757 12.5162C10.3757 12.5162 10.3757 12.5162 10.3757 12.5162C10.3757 12.5162 10.3757 12.5162 10.3757 12.5162C10.3756 12.5162 10.3756 12.5162 10.3756 12.5162C10.3756 12.5162 10.3756 12.5162 10.3756 12.5162C10.3756 12.5162 10.3756 12.5162 10.3755 12.5162C10.3755 12.5162 10.3755 12.5162 10.3755 12.5162C10.3755 12.5162 10.3755 12.5162 10.3755 12.5162C10.3755 12.5162 10.3754 12.5162 10.3754 12.5162C10.3754 12.5162 10.3754 12.5162 10.3754 12.5162C10.3754 12.5162 10.3754 12.5162 10.3754 12.5162C10.3754 12.5162 10.3753 12.5162 10.3753 12.5162C10.3753 12.5162 10.3753 12.5162 10.3753 12.5162C10.3753 12.5162 10.3753 12.5162 10.3753 12.5162C10.3752 12.5162 10.3752 12.5162 10.3752 12.5162C10.3752 12.5162 10.3752 12.5162 10.3752 12.5162C10.3752 12.5162 10.3752 12.5162 10.3751 12.5162C10.3751 12.5162 10.3751 12.5162 10.3751 12.5162C10.3751 12.5162 10.3751 12.5162 10.3751 12.5162C10.3751 12.5162 10.375 12.5162 10.375 12.5162C10.375 12.5162 10.375 12.5162 10.375 12.5162C10.375 12.5162 10.375 12.5162 10.375 12.5162C10.3749 12.5162 10.3749 12.5162 10.3749 12.5162C10.3749 12.5162 10.3749 12.5162 10.3749 12.5162C10.3749 12.5162 10.3749 12.5162 10.3749 12.5162C10.3748 12.5162 10.3748 12.5162 10.3748 12.5162C10.3748 12.5162 10.3748 12.5162 10.3748 12.5162C10.3748 12.5162 10.3748 12.5162 10.3747 12.5162C10.3747 12.5162 10.3747 12.5162 10.3747 12.5162C10.3747 12.5162 10.3747 12.5162 10.3747 12.5162C10.3747 12.5162 10.3746 12.5162 10.3746 12.5162C10.3746 12.5162 10.3746 12.5162 10.3746 12.5162C10.3746 12.5162 10.3746 12.5162 10.3746 12.5162C10.3745 12.5162 10.3745 12.5162 10.3745 12.5162C10.3745 12.5162 10.3745 12.5162 10.3745 12.5162C10.3745 12.5162 10.3745 12.5162 10.3744 12.5162C10.3744 12.5162 10.3744 12.5162 10.3744 12.5162C10.3744 12.5162 10.3744 12.5162 10.3744 12.5162C10.3744 12.5162 10.3743 12.5162 10.3743 12.5162C10.3743 12.5162 10.3743 12.5162 10.3743 12.5162C10.3743 12.5162 10.3743 12.5162 10.3743 12.5162C10.3742 12.5162 10.3742 12.5162 10.3742 12.5162C10.3742 12.5162 10.3742 12.5162 10.3742 12.5162C10.3742 12.5162 10.3742 12.5162 10.3741 12.5162C10.3741 12.5162 10.3741 12.5162 10.3741 12.5162C10.3741 12.5162 10.3741 12.5162 10.3741 12.5162C10.3741 12.5162 10.374 12.5162 10.374 12.5162C10.374 12.5162 10.374 12.5162 10.374 12.5162C10.374 12.5162 10.374 12.5162 10.374 12.5162C10.3739 12.5162 10.3739 12.5162 10.3739 12.5162C10.3739 12.5162 10.3739 12.5162 10.3739 12.5162C10.3739 12.5162 10.3739 12.5162 10.3738 12.5162C10.3738 12.5162 10.3738 12.5162 10.3738 12.5162C10.3738 12.5162 10.3738 12.5162 10.3738 12.5162C10.3738 12.5162 10.3737 12.5162 10.3737 12.5162C10.3737 12.5162 10.3737 12.5162 10.3737 12.5162C10.3737 12.5162 10.3737 12.5162 10.3736 12.5162C10.3736 12.5162 10.3736 12.5162 10.3736 12.5162C10.3736 12.5162 10.3736 12.5162 10.3736 12.5162C10.3736 12.5162 10.3735 12.5162 10.3735 12.5162C10.3735 12.5162 10.3735 12.5162 10.3735 12.5162C10.3735 12.5162 10.3735 12.5162 10.3735 12.5162C10.3734 12.5162 10.3734 12.5162 10.3734 12.5162C10.3734 12.5162 10.3734 12.5162 10.3734 12.5162C10.3734 12.5162 10.3734 12.5162 10.3733 12.5162C10.3733 12.5162 10.3733 12.5162 10.3733 12.5162C10.3733 12.5162 10.3733 12.5162 10.3733 12.5162C10.3733 12.5162 10.3732 12.5162 10.3732 12.5162C10.3732 12.5162 10.3732 12.5162 10.3732 12.5162C10.3732 12.5162 10.3732 12.5162 10.3731 12.5162C10.3731 12.5162 10.3731 12.5162 10.3731 12.5162C10.3731 12.5162 10.3731 12.5162 10.3731 12.5162C10.3731 12.5162 10.373 12.5162 10.373 12.5162C10.373 12.5162 10.373 12.5162 10.373 12.5162C10.373 12.5162 10.373 12.5162 10.373 12.5162C10.3729 12.5162 10.3729 12.5162 10.3729 12.5162C10.3729 12.5162 10.3729 12.5162 10.3729 12.5162C10.3729 12.5162 10.3729 12.5162 10.3728 12.5162C10.3728 12.5162 10.3728 12.5162 10.3728 12.5162C10.3728 12.5162 10.3728 12.5162 10.3728 12.5162C10.3727 12.5162 10.3727 12.5162 10.3727 12.5162C10.3727 12.5162 10.3727 12.5162 10.3727 12.5162C10.3727 12.5162 10.3727 12.5162 10.3726 12.5162C10.3726 12.5162 10.3726 12.5162 10.3726 12.5162C10.3726 12.5162 10.3726 12.5162 10.3726 12.5162C10.3726 12.5162 10.3725 12.5162 10.3725 12.5162C10.3725 12.5162 10.3725 12.5162 10.3725 12.5162C10.3725 12.5162 10.3725 12.5162 10.3724 12.5162C10.3724 12.5162 10.3724 12.5162 10.3724 12.5162C10.3724 12.5162 10.3724 12.5162 10.3724 12.5162C10.3724 12.5162 10.3723 12.5162 10.3723 12.5162C10.3723 12.5162 10.3723 12.5162 10.3723 12.5162C10.3723 12.5162 10.3723 12.5162 10.3722 12.5162C10.3722 12.5162 10.3722 12.5162 10.3722 12.5162C10.3722 12.5162 10.3722 12.5162 10.3722 12.5162C10.3722 12.5162 10.3721 12.5162 10.3721 12.5162C10.3721 12.5162 10.3721 12.5162 10.3721 12.5162C10.3721 12.5162 10.3721 12.5162 10.3721 12.5162C10.372 12.5162 10.372 12.5162 10.372 12.5162C10.372 12.5162 10.372 12.5162 10.372 12.5162C10.372 12.5162 10.3719 12.5162 10.3719 12.5162C10.3719 12.5162 10.3719 12.5162 10.3719 12.5162C10.3719 12.5162 10.3719 12.5162 10.3719 12.5162C10.3718 12.5162 10.3718 12.5162 10.3718 12.5162C10.3718 12.5162 10.3718 12.5162 10.3718 12.5162C10.3718 12.5162 10.3717 12.5162 10.3717 12.5162C10.3717 12.5162 10.3717 12.5162 10.3717 12.5162C10.3717 12.5162 10.3717 12.5162 10.3717 12.5162C10.3716 12.5162 10.3716 12.5162 10.3716 12.5162C10.3716 12.5162 10.3716 12.5162 10.3716 12.5162C10.3716 12.5162 10.3715 12.5162 10.3715 12.5162C10.3715 12.5162 10.3715 12.5162 10.3715 12.5162C10.3715 12.5162 10.3715 12.5162 10.3715 12.5162C10.3714 12.5162 10.3714 12.5162 10.3714 12.5162C10.3714 12.5162 10.3714 12.5162 10.3714 12.5162C10.3714 12.5162 10.3713 12.5162 10.3713 12.5162C10.3713 12.5162 10.3713 12.5162 10.3713 12.5162C10.3713 12.5162 10.3713 12.5162 10.3713 12.5162C10.3712 12.5162 10.3712 12.5162 10.3712 12.5162C10.3712 12.5162 10.3712 12.5162 10.3712 12.5162C10.3712 12.5162 10.3711 12.5162 10.3711 12.5162C10.3711 12.5162 10.3711 12.5162 10.3711 12.5162C10.3711 12.5162 10.3711 12.5162 10.371 12.5162C10.371 12.5162 10.371 12.5162 10.371 12.5162C10.371 12.5162 10.371 12.5162 10.371 12.5162C10.371 12.5162 10.3709 12.5162 10.3709 12.5162C10.3709 12.5162 10.3709 12.5162 10.3709 12.5162C10.3709 12.5162 10.3709 12.5162 10.3708 12.5162C10.3708 12.5162 10.3708 12.5162 10.3708 12.5162C10.3708 12.5162 10.3708 12.5162 10.3708 12.5162C10.3708 12.5162 10.3707 12.5162 10.3707 12.5162C10.3707 12.5162 10.3707 12.5162 10.3707 12.5162C10.3707 12.5162 10.3707 12.5162 10.3706 12.5162C10.3706 12.5162 10.3706 12.5162 10.3706 12.5162C10.3706 12.5162 10.3706 12.5162 10.3706 12.5162C10.3705 12.5162 10.3705 12.5162 10.3705 12.5162C10.3705 12.5162 10.3705 12.5162 10.3705 12.5162C10.3705 12.5162 10.3705 12.5162 10.3704 12.5162C10.3704 12.5162 10.3704 12.5162 10.3704 12.5162C10.3704 12.5162 10.3704 12.5162 10.3704 12.5162C10.3703 12.5162 10.3703 12.5162 10.3703 12.5162C10.3703 12.5162 10.3703 12.5162 10.3703 12.5162C10.3703 12.5162 10.3702 12.5162 10.3702 12.5162C10.3702 12.5162 10.3702 12.5162 10.3702 12.5162C10.3702 12.5162 10.3702 12.5162 10.3702 12.5162C10.3701 12.5162 10.3701 12.5162 10.3701 12.5162C10.3701 12.5162 10.3701 12.5162 10.3701 12.5162C10.3701 12.5162 10.37 12.5162 10.37 12.5162C10.37 12.5162 10.37 12.5162 10.37 12.5162C10.37 12.5162 10.37 12.5162 10.3699 12.5162C10.3699 12.5162 10.3699 12.5162 10.3699 12.5162C10.3699 12.5162 10.3699 12.5162 10.3699 12.5162C10.3698 12.5162 10.3698 12.5162 10.3698 12.5162C10.3698 12.5162 10.3698 12.5162 10.3698 12.5162C10.3698 12.5162 10.3698 12.5162 10.3697 12.5162C10.3697 12.5162 10.3697 12.5162 10.3697 12.5162C10.3697 12.5162 10.3697 12.5162 10.3697 12.5162C10.3696 12.5162 10.3696 12.5162 10.3696 12.5162C10.3696 12.5162 10.3696 12.5162 10.3696 12.5162C10.3696 12.5162 10.3695 12.5162 10.3695 12.5162C10.3695 12.5162 10.3695 12.5162 10.3695 12.5162C10.3695 12.5162 10.3695 12.5162 10.3694 12.5162C10.3694 12.5162 10.3694 12.5162 10.3694 12.5162C10.3694 12.5162 10.3694 12.5162 10.3694 12.5162C10.3694 12.5162 10.3693 12.5162 10.3693 12.5162C10.3693 12.5162 10.3693 12.5162 10.3693 12.5162C10.3693 12.5162 10.3693 12.5162 10.3692 12.5162C10.3692 12.5162 10.3692 12.5162 10.3692 12.5162C10.3692 12.5162 10.3692 12.5162 10.3692 12.5162C10.3691 12.5162 10.3691 12.5162 10.3691 12.5162C10.3691 12.5162 10.3691 12.5162 10.3691 12.5162C10.3691 12.5162 10.369 12.5162 10.369 12.5162C10.369 12.5162 10.369 12.5162 10.369 12.5162C10.369 12.5162 10.369 12.5162 10.3689 12.5162C10.3689 12.5162 10.3689 12.5162 10.3689 12.5162C10.3689 12.5162 10.3689 12.5162 10.3689 12.5162C10.3688 12.5162 10.3688 12.5162 10.3688 12.5162C10.3688 12.5162 10.3688 12.5162 10.3688 12.5162C10.3688 12.5162 10.3688 12.5162 10.3687 12.5162C10.3687 12.5162 10.3687 12.5162 10.3687 12.5162C10.3687 12.5162 10.3687 12.5162 10.3687 12.5162C10.3686 12.5162 10.3686 12.5162 10.3686 12.5162C10.3686 12.5162 10.3686 12.5162 10.3686 12.5162C10.3686 12.5162 10.3685 12.5162 10.3685 12.5162C10.3685 12.5162 10.3685 12.5162 10.3685 12.5162C10.3685 12.5162 10.3685 12.5162 10.3684 12.5162C10.3684 12.5162 10.3684 12.5162 10.3684 12.5162C10.3684 12.5162 10.3684 12.5162 10.3684 12.5162C10.3683 12.5162 10.3683 12.5162 10.3683 12.5162C10.3683 12.5162 10.3683 12.5162 10.3683 12.5162C10.3683 12.5162 10.3682 12.5162 10.3682 12.5162C10.3682 12.5162 10.3682 12.5162 10.3682 12.5162C10.3682 12.5162 10.3682 12.5162 10.3681 12.5162C10.3681 12.5162 10.3681 12.5162 10.3681 12.5162C10.3681 12.5162 10.3681 12.5162 10.3681 12.5162C10.368 12.5162 10.368 12.5162 10.368 12.5162C10.368 12.5162 10.368 12.5162 10.368 12.5162C10.368 12.5162 10.3679 12.5162 10.3679 12.5162C10.3679 12.5162 10.3679 12.5162 10.3679 12.5162C10.3679 12.5162 10.3679 12.5162 10.3678 12.5162C10.3678 12.5162 10.3678 12.5162 10.3678 12.5162C10.3678 12.5162 10.3678 12.5162 10.3678 12.5162C10.3678 12.5162 10.3677 12.5162 10.3677 12.5162C10.3677 12.5162 10.3677 12.5162 10.3677 12.5162C10.3677 12.5162 10.3677 12.5162 10.3676 12.5162C10.3676 12.5162 10.3676 12.5162 10.3676 12.5162C10.3676 12.5162 10.3676 12.5162 10.3676 12.5162C10.3675 12.5162 10.3675 12.5162 10.3675 12.5162C10.3675 12.5162 10.3675 12.5162 10.3675 12.5162C10.3675 12.5162 10.3674 12.5162 10.3674 12.5162C10.3674 12.5162 10.3674 12.5162 10.3674 12.5162C10.3674 12.5162 10.3674 12.5162 10.3673 12.5162C10.3673 12.5162 10.3673 12.5162 10.3673 12.5162C10.3673 12.5162 10.3673 12.5162 10.3673 12.5162C10.3672 12.5162 10.3672 12.5162 10.3672 12.5162C10.3672 12.5162 10.3672 12.5162 10.3672 12.5162C10.3672 12.5162 10.3671 12.5162 10.3671 12.5162C10.3671 12.5162 10.3671 12.5162 10.3671 12.5162C10.3671 12.5162 10.3671 12.5162 10.367 12.5162C10.367 12.5162 10.367 12.5162 10.367 12.5162C10.367 12.5162 10.367 12.5162 10.367 12.5162C10.3669 12.5162 10.3669 12.5162 10.3669 12.5162C10.3669 12.5162 10.3669 12.5162 10.3669 12.5162C10.3669 12.5162 10.3668 12.5162 10.3668 12.5162C10.3668 12.5162 10.3668 12.5162 10.3668 12.5162C10.3668 12.5162 10.3668 12.5162 10.3667 12.5162C10.3667 12.5162 10.3667 12.5162 10.3667 12.5162C10.3667 12.5162 10.3667 12.5162 10.3667 12.5162C10.3666 12.5162 10.3666 12.5162 10.3666 12.5162C10.3666 12.5162 10.3666 12.5162 10.3666 12.5162C10.3666 12.5162 10.3665 12.5162 10.3665 12.5162C10.3665 12.5162 10.3665 12.5162 10.3665 12.5162C10.3665 12.5162 10.3665 12.5162 10.3664 12.5162C10.3664 12.5162 10.3664 12.5162 10.3664 12.5162C10.3664 12.5162 10.3664 12.5162 10.3663 12.5162C10.3663 12.5162 10.3663 12.5162 10.3663 12.5162C10.3663 12.5162 10.3663 12.5162 10.3663 12.5162C10.3662 12.5162 10.3662 12.5162 10.3662 12.5162C10.3662 12.5162 10.3662 12.5162 10.3662 12.5162C10.3662 12.5162 10.3661 12.5162 10.3661 12.5162C10.3661 12.5162 10.3661 12.5162 10.3661 12.5162C10.3661 12.5162 10.3661 12.5162 10.366 12.5162C10.366 12.5162 10.366 12.5162 10.366 12.5162C10.366 12.5162 10.366 12.5162 10.366 12.5162C10.3659 12.5162 10.3659 12.5162 10.3659 12.5162C10.3659 12.5162 10.3659 12.5162 10.3659 12.5162C10.3659 12.5162 10.3658 12.5162 10.3658 12.5162C10.3658 12.5162 10.3658 12.5162 10.3658 12.5162C10.3658 12.5162 10.3658 12.5162 10.3657 12.5162C10.3657 12.5162 10.3657 12.5162 10.3657 12.5162C10.3657 12.5162 10.3657 12.5162 10.3657 12.5162C10.3656 12.5162 10.3656 12.5162 10.3656 12.5162C10.3656 12.5162 10.3656 12.5162 10.3656 12.5162C10.3656 12.5162 10.3655 12.5162 10.3655 12.5162C10.3655 12.5162 10.3655 12.5162 10.3655 12.5162C10.3655 12.5162 10.3655 12.5162 10.3654 12.5162C10.3654 12.5162 10.3654 12.5162 10.3654 12.5162C10.3654 12.5162 10.3654 12.5162 10.3654 12.5162C10.3653 12.5162 10.3653 12.5162 10.3653 12.5162C10.3653 12.5162 10.3653 12.5162 10.3653 12.5162C10.3652 12.5162 10.3652 12.5162 10.3652 12.5162C10.3652 12.5162 10.3652 12.5162 10.3652 12.5162C10.3652 12.5162 10.3651 12.5162 10.3651 12.5162C10.3651 12.5162 10.3651 12.5162 10.3651 12.5162C10.3651 12.5162 10.3651 12.5162 10.365 12.5162C10.365 12.5162 10.365 12.5162 10.365 12.5162C10.365 12.5162 10.365 12.5162 10.365 12.5162C10.3649 12.5162 10.3649 12.5162 10.3649 12.5162C10.3649 12.5162 10.3649 12.5162 10.3649 12.5162C10.3649 12.5162 10.3648 12.5162 10.3648 12.5162C10.3648 12.5162 10.3648 12.5162 10.3648 12.5162C10.3648 12.5162 10.3648 12.5162 10.3647 12.5162C10.3647 12.5162 10.3647 12.5162 10.3647 12.5162C10.3647 12.5162 10.3647 12.5162 10.3647 12.5162C10.3646 12.5162 10.3646 12.5162 10.3646 12.5162C10.3646 12.5162 10.3646 12.5162 10.3646 12.5162C10.3646 12.5162 10.3645 12.5162 10.3645 12.5162C10.3645 12.5162 10.3645 12.5162 10.3645 12.5162C10.3645 12.5162 10.3644 12.5162 10.3644 12.5162C10.3644 12.5162 10.3644 12.5162 10.3644 12.5162C10.3644 12.5162 10.3644 12.5162 10.3643 12.5162C10.3643 12.5162 10.3643 12.5162 10.3643 12.5162C10.3643 12.5162 10.3643 12.5162 10.3643 12.5162C10.3642 12.5162 10.3642 12.5162 10.3642 12.5162C10.3642 12.5162 10.3642 12.5162 10.3642 12.5162C10.3642 12.5162 10.3641 12.5162 10.3641 12.5162C10.3641 12.5162 10.3641 12.5162 10.3641 12.5162C10.3641 12.5162 10.3641 12.5162 10.364 12.5162C10.364 12.5162 10.364 12.5162 10.364 12.5162C10.364 12.5162 10.364 12.5162 10.3639 12.5162C10.3639 12.5162 10.3639 12.5162 10.3639 12.5162C10.3639 12.5162 10.3639 12.5162 10.3639 12.5162C10.3638 12.5162 10.3638 12.5162 10.3638 12.5162C10.3638 12.5162 10.3638 12.5162 10.3638 12.5162C10.3638 12.5162 10.3637 12.5162 10.3637 12.5162C10.3637 12.5162 10.3637 12.5162 10.3637 12.5162C10.3637 12.5162 10.3637 12.5162 10.3636 12.5162C10.3636 12.5162 10.3636 12.5162 10.3636 12.5162C10.3636 12.5162 10.3636 12.5162 10.3636 12.5162C10.3635 12.5162 10.3635 12.5162 10.3635 12.5162C10.3635 12.5162 10.3635 12.5162 10.3635 12.5162C10.3635 12.5162 10.3634 12.5162 10.3634 12.5162C10.3634 12.5162 10.3634 12.5162 10.3634 12.5162C10.3634 12.5162 10.3633 12.5162 10.3633 12.5162C10.3633 12.5162 10.3633 12.5162 10.3633 12.5162C10.3633 12.5162 10.3633 12.5162 10.3632 12.5162C10.3632 12.5162 10.3632 12.5162 10.3632 12.5162C10.3632 12.5162 10.3632 12.5162 10.3632 12.5162C10.3631 12.5162 10.3631 12.5162 10.3631 12.5162C10.3631 12.5162 10.3631 12.5162 10.3631 12.5162C10.3631 12.5162 10.363 12.5162 10.363 12.5162C10.363 12.5162 10.363 12.5162 10.363 12.5162C10.363 12.5162 10.3629 12.5162 10.3629 12.5162C10.3629 12.5162 10.3629 12.5162 10.3629 12.5162C10.3629 12.5162 10.3629 12.5162 10.3628 12.5162C10.3628 12.5162 10.3628 12.5162 10.3628 12.5162C10.3628 12.5162 10.3628 12.5162 10.3628 12.5162C10.3627 12.5162 10.3627 12.5162 10.3627 12.5162C10.3627 12.5162 10.3627 12.5162 10.3627 12.5162C10.3627 12.5162 10.3626 12.5162 10.3626 12.5162C10.3626 12.5162 10.3626 12.5162 10.3626 12.5162C10.3626 12.5162 10.3626 12.5162 10.3625 12.5162C10.3625 12.5162 10.3625 12.5162 10.3625 12.5162C10.3625 12.5162 10.3625 12.5162 10.3624 12.5162C10.3624 12.5162 10.3624 12.5162 10.3624 12.5162C10.3624 12.5162 10.3624 12.5162 10.3624 12.5162C10.3623 12.5162 10.3623 12.5162 10.3623 12.5162C10.3623 12.5162 10.3623 12.5162 10.3623 12.5162C10.3623 12.5162 10.3622 12.5162 10.3622 12.5162C10.3622 12.5162 10.3622 12.5162 10.3622 12.5162C10.3622 12.5162 10.3622 12.5162 10.3621 12.5162C10.3621 12.5162 10.3621 12.5162 10.3621 12.5162C10.3621 12.5162 10.3621 12.5162 10.362 12.5162C10.362 12.5162 10.362 12.5162 10.362 12.5162C10.362 12.5162 10.362 12.5162 10.362 12.5162C10.3619 12.5162 10.3619 12.5162 10.3619 12.5162C10.3619 12.5162 10.3619 12.5162 10.3619 12.5162C10.3619 12.5162 10.3618 12.5162 10.3618 12.5162C10.3618 12.5162 10.3618 12.5162 10.3618 12.5162C10.3618 12.5162 10.3618 12.5162 10.3617 12.5162C10.3617 12.5162 10.3617 12.5162 10.3617 12.5162C10.3617 12.5162 10.3617 12.5162 10.3616 12.5162C10.3616 12.5162 10.3616 12.5162 10.3616 12.5162C10.3616 12.5162 10.3616 12.5162 10.3616 12.5162C10.3615 12.5162 10.3615 12.5162 10.3615 12.5162C10.3615 12.5162 10.3615 12.5162 10.3615 12.5162C10.3615 12.5162 10.3614 12.5162 10.3614 12.5162C10.3614 12.5162 10.3614 12.5162 10.3614 12.5162C10.3614 12.5162 10.3614 12.5162 10.3613 12.5162C10.3613 12.5162 10.3613 12.5162 10.3613 12.5162C10.3613 12.5162 10.3613 12.5162 10.3612 12.5162C10.3612 12.5162 10.3612 12.5162 10.3612 12.5162C10.3612 12.5162 10.3612 12.5162 10.3612 12.5162C10.3611 12.5162 10.3611 12.5162 10.3611 12.5162C10.3611 12.5162 10.3611 12.5162 10.3611 12.5162C10.3611 12.5162 10.361 12.5162 10.361 12.5162C10.361 12.5162 10.361 12.5162 10.361 12.5162C10.361 12.5162 10.361 12.5162 10.3609 12.5162C10.3609 12.5162 10.3609 12.5162 10.3609 12.5162C10.3609 12.5162 10.3609 12.5162 10.3608 12.5162C10.3608 12.5162 10.3608 12.5162 10.3608 12.5162C10.3608 12.5162 10.3608 12.5162 10.3608 12.5162C10.3607 12.5162 10.3607 12.5162 10.3607 12.5162C10.3607 12.5162 10.3607 12.5162 10.3607 12.5162C10.3607 12.5162 10.3606 12.5162 10.3606 12.5162C10.3606 12.5162 10.3606 12.5162 10.3606 12.5162C10.3606 12.5162 10.3605 12.5162 10.3605 12.5162C10.3605 12.5162 10.3605 12.5162 10.3605 12.5162C10.3605 12.5162 10.3605 12.5162 10.3604 12.5162C10.3604 12.5162 10.3604 12.5162 10.3604 12.5162C10.3604 12.5162 10.3604 12.5162 10.3604 12.5162C10.3603 12.5162 10.3603 12.5162 10.3603 12.5162C10.3603 12.5162 10.3603 12.5162 10.3603 12.5162C10.3603 12.5162 10.3602 12.5162 10.3602 12.5162C10.3602 12.5162 10.3602 12.5162 10.3602 12.5162C10.3602 12.5162 10.3601 12.5162 10.3601 12.5162C10.3601 12.5162 10.3601 12.5162 10.3601 12.5162C10.3601 12.5162 10.3601 12.5162 10.36 12.5162C10.36 12.5162 10.36 12.5162 10.36 12.5162C10.36 12.5162 10.36 12.5162 10.36 12.5162C10.3599 12.5162 10.3599 12.5162 10.3599 12.5162C10.3599 12.5162 10.3599 12.5162 10.3599 12.5162C10.3599 12.5162 10.3598 12.5162 10.3598 12.5162C10.3598 12.5162 10.3598 12.5162 10.3598 12.5162C10.3598 12.5162 10.3597 12.5162 10.3597 12.5162C10.3597 12.5162 10.3597 12.5162 10.3597 12.5162C10.3597 12.5162 10.3597 12.5162 10.3596 12.5162C10.3596 12.5162 10.3596 12.5162 10.3596 12.5162C10.3596 12.5162 10.3596 12.5162 10.3596 12.5162C10.3595 12.5162 10.3595 12.5162 10.3595 12.5162C10.3595 12.5162 10.3595 12.5162 10.3595 12.5162C10.3594 12.5162 10.3594 12.5162 10.3594 12.5162C10.3594 12.5162 10.3594 12.5162 10.3594 12.5162V13.5162C10.3594 13.5162 10.3594 13.5162 10.3594 13.5162C10.3594 13.5162 10.3594 13.5162 10.3595 13.5162C10.3595 13.5162 10.3595 13.5162 10.3595 13.5162C10.3595 13.5162 10.3595 13.5162 10.3596 13.5162C10.3596 13.5162 10.3596 13.5162 10.3596 13.5162C10.3596 13.5162 10.3596 13.5162 10.3596 13.5162C10.3597 13.5162 10.3597 13.5162 10.3597 13.5162C10.3597 13.5162 10.3597 13.5162 10.3597 13.5162C10.3597 13.5162 10.3598 13.5162 10.3598 13.5162C10.3598 13.5162 10.3598 13.5162 10.3598 13.5162C10.3598 13.5162 10.3599 13.5162 10.3599 13.5162C10.3599 13.5162 10.3599 13.5162 10.3599 13.5162C10.3599 13.5162 10.3599 13.5162 10.36 13.5162C10.36 13.5162 10.36 13.5162 10.36 13.5162C10.36 13.5162 10.36 13.5162 10.36 13.5162C10.3601 13.5162 10.3601 13.5162 10.3601 13.5162C10.3601 13.5162 10.3601 13.5162 10.3601 13.5162C10.3601 13.5162 10.3602 13.5162 10.3602 13.5162C10.3602 13.5162 10.3602 13.5162 10.3602 13.5162C10.3602 13.5162 10.3603 13.5162 10.3603 13.5162C10.3603 13.5162 10.3603 13.5162 10.3603 13.5162C10.3603 13.5162 10.3603 13.5162 10.3604 13.5162C10.3604 13.5162 10.3604 13.5162 10.3604 13.5162C10.3604 13.5162 10.3604 13.5162 10.3604 13.5162C10.3605 13.5162 10.3605 13.5162 10.3605 13.5162C10.3605 13.5162 10.3605 13.5162 10.3605 13.5162C10.3605 13.5162 10.3606 13.5162 10.3606 13.5162C10.3606 13.5162 10.3606 13.5162 10.3606 13.5162C10.3606 13.5162 10.3607 13.5162 10.3607 13.5162C10.3607 13.5162 10.3607 13.5162 10.3607 13.5162C10.3607 13.5162 10.3607 13.5162 10.3608 13.5162C10.3608 13.5162 10.3608 13.5162 10.3608 13.5162C10.3608 13.5162 10.3608 13.5162 10.3608 13.5162C10.3609 13.5162 10.3609 13.5162 10.3609 13.5162C10.3609 13.5162 10.3609 13.5162 10.3609 13.5162C10.361 13.5162 10.361 13.5162 10.361 13.5162C10.361 13.5162 10.361 13.5162 10.361 13.5162C10.361 13.5162 10.3611 13.5162 10.3611 13.5162C10.3611 13.5162 10.3611 13.5162 10.3611 13.5162C10.3611 13.5162 10.3611 13.5162 10.3612 13.5162C10.3612 13.5162 10.3612 13.5162 10.3612 13.5162C10.3612 13.5162 10.3612 13.5162 10.3612 13.5162C10.3613 13.5162 10.3613 13.5162 10.3613 13.5162C10.3613 13.5162 10.3613 13.5162 10.3613 13.5162C10.3614 13.5162 10.3614 13.5162 10.3614 13.5162C10.3614 13.5162 10.3614 13.5162 10.3614 13.5162C10.3614 13.5162 10.3615 13.5162 10.3615 13.5162C10.3615 13.5162 10.3615 13.5162 10.3615 13.5162C10.3615 13.5162 10.3615 13.5162 10.3616 13.5162C10.3616 13.5162 10.3616 13.5162 10.3616 13.5162C10.3616 13.5162 10.3616 13.5162 10.3616 13.5162C10.3617 13.5162 10.3617 13.5162 10.3617 13.5162C10.3617 13.5162 10.3617 13.5162 10.3617 13.5162C10.3618 13.5162 10.3618 13.5162 10.3618 13.5162C10.3618 13.5162 10.3618 13.5162 10.3618 13.5162C10.3618 13.5162 10.3619 13.5162 10.3619 13.5162C10.3619 13.5162 10.3619 13.5162 10.3619 13.5162C10.3619 13.5162 10.3619 13.5162 10.362 13.5162C10.362 13.5162 10.362 13.5162 10.362 13.5162C10.362 13.5162 10.362 13.5162 10.362 13.5162C10.3621 13.5162 10.3621 13.5162 10.3621 13.5162C10.3621 13.5162 10.3621 13.5162 10.3621 13.5162C10.3622 13.5162 10.3622 13.5162 10.3622 13.5162C10.3622 13.5162 10.3622 13.5162 10.3622 13.5162C10.3622 13.5162 10.3623 13.5162 10.3623 13.5162C10.3623 13.5162 10.3623 13.5162 10.3623 13.5162C10.3623 13.5162 10.3623 13.5162 10.3624 13.5162C10.3624 13.5162 10.3624 13.5162 10.3624 13.5162C10.3624 13.5162 10.3624 13.5162 10.3624 13.5162C10.3625 13.5162 10.3625 13.5162 10.3625 13.5162C10.3625 13.5162 10.3625 13.5162 10.3625 13.5162C10.3626 13.5162 10.3626 13.5162 10.3626 13.5162C10.3626 13.5162 10.3626 13.5162 10.3626 13.5162C10.3626 13.5162 10.3627 13.5162 10.3627 13.5162C10.3627 13.5162 10.3627 13.5162 10.3627 13.5162C10.3627 13.5162 10.3627 13.5162 10.3628 13.5162C10.3628 13.5162 10.3628 13.5162 10.3628 13.5162C10.3628 13.5162 10.3628 13.5162 10.3628 13.5162C10.3629 13.5162 10.3629 13.5162 10.3629 13.5162C10.3629 13.5162 10.3629 13.5162 10.3629 13.5162C10.3629 13.5162 10.363 13.5162 10.363 13.5162C10.363 13.5162 10.363 13.5162 10.363 13.5162C10.363 13.5162 10.3631 13.5162 10.3631 13.5162C10.3631 13.5162 10.3631 13.5162 10.3631 13.5162C10.3631 13.5162 10.3631 13.5162 10.3632 13.5162C10.3632 13.5162 10.3632 13.5162 10.3632 13.5162C10.3632 13.5162 10.3632 13.5162 10.3632 13.5162C10.3633 13.5162 10.3633 13.5162 10.3633 13.5162C10.3633 13.5162 10.3633 13.5162 10.3633 13.5162C10.3633 13.5162 10.3634 13.5162 10.3634 13.5162C10.3634 13.5162 10.3634 13.5162 10.3634 13.5162C10.3634 13.5162 10.3635 13.5162 10.3635 13.5162C10.3635 13.5162 10.3635 13.5162 10.3635 13.5162C10.3635 13.5162 10.3635 13.5162 10.3636 13.5162C10.3636 13.5162 10.3636 13.5162 10.3636 13.5162C10.3636 13.5162 10.3636 13.5162 10.3636 13.5162C10.3637 13.5162 10.3637 13.5162 10.3637 13.5162C10.3637 13.5162 10.3637 13.5162 10.3637 13.5162C10.3637 13.5162 10.3638 13.5162 10.3638 13.5162C10.3638 13.5162 10.3638 13.5162 10.3638 13.5162C10.3638 13.5162 10.3638 13.5162 10.3639 13.5162C10.3639 13.5162 10.3639 13.5162 10.3639 13.5162C10.3639 13.5162 10.3639 13.5162 10.3639 13.5162C10.364 13.5162 10.364 13.5162 10.364 13.5162C10.364 13.5162 10.364 13.5162 10.364 13.5162C10.3641 13.5162 10.3641 13.5162 10.3641 13.5162C10.3641 13.5162 10.3641 13.5162 10.3641 13.5162C10.3641 13.5162 10.3642 13.5162 10.3642 13.5162C10.3642 13.5162 10.3642 13.5162 10.3642 13.5162C10.3642 13.5162 10.3642 13.5162 10.3643 13.5162C10.3643 13.5162 10.3643 13.5162 10.3643 13.5162C10.3643 13.5162 10.3643 13.5162 10.3643 13.5162C10.3644 13.5162 10.3644 13.5162 10.3644 13.5162C10.3644 13.5162 10.3644 13.5162 10.3644 13.5162C10.3644 13.5162 10.3645 13.5162 10.3645 13.5162C10.3645 13.5162 10.3645 13.5162 10.3645 13.5162C10.3645 13.5162 10.3646 13.5162 10.3646 13.5162C10.3646 13.5162 10.3646 13.5162 10.3646 13.5162C10.3646 13.5162 10.3646 13.5162 10.3647 13.5162C10.3647 13.5162 10.3647 13.5162 10.3647 13.5162C10.3647 13.5162 10.3647 13.5162 10.3647 13.5162C10.3648 13.5162 10.3648 13.5162 10.3648 13.5162C10.3648 13.5162 10.3648 13.5162 10.3648 13.5162C10.3648 13.5162 10.3649 13.5162 10.3649 13.5162C10.3649 13.5162 10.3649 13.5162 10.3649 13.5162C10.3649 13.5162 10.3649 13.5162 10.365 13.5162C10.365 13.5162 10.365 13.5162 10.365 13.5162C10.365 13.5162 10.365 13.5162 10.365 13.5162C10.3651 13.5162 10.3651 13.5162 10.3651 13.5162C10.3651 13.5162 10.3651 13.5162 10.3651 13.5162C10.3651 13.5162 10.3652 13.5162 10.3652 13.5162C10.3652 13.5162 10.3652 13.5162 10.3652 13.5162C10.3652 13.5162 10.3652 13.5162 10.3653 13.5162C10.3653 13.5162 10.3653 13.5162 10.3653 13.5162C10.3653 13.5162 10.3653 13.5162 10.3654 13.5162C10.3654 13.5162 10.3654 13.5162 10.3654 13.5162C10.3654 13.5162 10.3654 13.5162 10.3654 13.5162C10.3655 13.5162 10.3655 13.5162 10.3655 13.5162C10.3655 13.5162 10.3655 13.5162 10.3655 13.5162C10.3655 13.5162 10.3656 13.5162 10.3656 13.5162C10.3656 13.5162 10.3656 13.5162 10.3656 13.5162C10.3656 13.5162 10.3656 13.5162 10.3657 13.5162C10.3657 13.5162 10.3657 13.5162 10.3657 13.5162C10.3657 13.5162 10.3657 13.5162 10.3657 13.5162C10.3658 13.5162 10.3658 13.5162 10.3658 13.5162C10.3658 13.5162 10.3658 13.5162 10.3658 13.5162C10.3658 13.5162 10.3659 13.5162 10.3659 13.5162C10.3659 13.5162 10.3659 13.5162 10.3659 13.5162C10.3659 13.5162 10.3659 13.5162 10.366 13.5162C10.366 13.5162 10.366 13.5162 10.366 13.5162C10.366 13.5162 10.366 13.5162 10.366 13.5162C10.3661 13.5162 10.3661 13.5162 10.3661 13.5162C10.3661 13.5162 10.3661 13.5162 10.3661 13.5162C10.3661 13.5162 10.3662 13.5162 10.3662 13.5162C10.3662 13.5162 10.3662 13.5162 10.3662 13.5162C10.3662 13.5162 10.3662 13.5162 10.3663 13.5162C10.3663 13.5162 10.3663 13.5162 10.3663 13.5162C10.3663 13.5162 10.3663 13.5162 10.3663 13.5162C10.3664 13.5162 10.3664 13.5162 10.3664 13.5162C10.3664 13.5162 10.3664 13.5162 10.3664 13.5162C10.3665 13.5162 10.3665 13.5162 10.3665 13.5162C10.3665 13.5162 10.3665 13.5162 10.3665 13.5162C10.3665 13.5162 10.3666 13.5162 10.3666 13.5162C10.3666 13.5162 10.3666 13.5162 10.3666 13.5162C10.3666 13.5162 10.3666 13.5162 10.3667 13.5162C10.3667 13.5162 10.3667 13.5162 10.3667 13.5162C10.3667 13.5162 10.3667 13.5162 10.3667 13.5162C10.3668 13.5162 10.3668 13.5162 10.3668 13.5162C10.3668 13.5162 10.3668 13.5162 10.3668 13.5162C10.3668 13.5162 10.3669 13.5162 10.3669 13.5162C10.3669 13.5162 10.3669 13.5162 10.3669 13.5162C10.3669 13.5162 10.3669 13.5162 10.367 13.5162C10.367 13.5162 10.367 13.5162 10.367 13.5162C10.367 13.5162 10.367 13.5162 10.367 13.5162C10.3671 13.5162 10.3671 13.5162 10.3671 13.5162C10.3671 13.5162 10.3671 13.5162 10.3671 13.5162C10.3671 13.5162 10.3672 13.5162 10.3672 13.5162C10.3672 13.5162 10.3672 13.5162 10.3672 13.5162C10.3672 13.5162 10.3672 13.5162 10.3673 13.5162C10.3673 13.5162 10.3673 13.5162 10.3673 13.5162C10.3673 13.5162 10.3673 13.5162 10.3673 13.5162C10.3674 13.5162 10.3674 13.5162 10.3674 13.5162C10.3674 13.5162 10.3674 13.5162 10.3674 13.5162C10.3674 13.5162 10.3675 13.5162 10.3675 13.5162C10.3675 13.5162 10.3675 13.5162 10.3675 13.5162C10.3675 13.5162 10.3675 13.5162 10.3676 13.5162C10.3676 13.5162 10.3676 13.5162 10.3676 13.5162C10.3676 13.5162 10.3676 13.5162 10.3676 13.5162C10.3677 13.5162 10.3677 13.5162 10.3677 13.5162C10.3677 13.5162 10.3677 13.5162 10.3677 13.5162C10.3677 13.5162 10.3678 13.5162 10.3678 13.5162C10.3678 13.5162 10.3678 13.5162 10.3678 13.5162C10.3678 13.5162 10.3678 13.5162 10.3678 13.5162C10.3679 13.5162 10.3679 13.5162 10.3679 13.5162C10.3679 13.5162 10.3679 13.5162 10.3679 13.5162C10.3679 13.5162 10.368 13.5162 10.368 13.5162C10.368 13.5162 10.368 13.5162 10.368 13.5162C10.368 13.5162 10.368 13.5162 10.3681 13.5162C10.3681 13.5162 10.3681 13.5162 10.3681 13.5162C10.3681 13.5162 10.3681 13.5162 10.3681 13.5162C10.3682 13.5162 10.3682 13.5162 10.3682 13.5162C10.3682 13.5162 10.3682 13.5162 10.3682 13.5162C10.3682 13.5162 10.3683 13.5162 10.3683 13.5162C10.3683 13.5162 10.3683 13.5162 10.3683 13.5162C10.3683 13.5162 10.3683 13.5162 10.3684 13.5162C10.3684 13.5162 10.3684 13.5162 10.3684 13.5162C10.3684 13.5162 10.3684 13.5162 10.3684 13.5162C10.3685 13.5162 10.3685 13.5162 10.3685 13.5162C10.3685 13.5162 10.3685 13.5162 10.3685 13.5162C10.3685 13.5162 10.3686 13.5162 10.3686 13.5162C10.3686 13.5162 10.3686 13.5162 10.3686 13.5162C10.3686 13.5162 10.3686 13.5162 10.3687 13.5162C10.3687 13.5162 10.3687 13.5162 10.3687 13.5162C10.3687 13.5162 10.3687 13.5162 10.3687 13.5162C10.3688 13.5162 10.3688 13.5162 10.3688 13.5162C10.3688 13.5162 10.3688 13.5162 10.3688 13.5162C10.3688 13.5162 10.3688 13.5162 10.3689 13.5162C10.3689 13.5162 10.3689 13.5162 10.3689 13.5162C10.3689 13.5162 10.3689 13.5162 10.3689 13.5162C10.369 13.5162 10.369 13.5162 10.369 13.5162C10.369 13.5162 10.369 13.5162 10.369 13.5162C10.369 13.5162 10.3691 13.5162 10.3691 13.5162C10.3691 13.5162 10.3691 13.5162 10.3691 13.5162C10.3691 13.5162 10.3691 13.5162 10.3692 13.5162C10.3692 13.5162 10.3692 13.5162 10.3692 13.5162C10.3692 13.5162 10.3692 13.5162 10.3692 13.5162C10.3693 13.5162 10.3693 13.5162 10.3693 13.5162C10.3693 13.5162 10.3693 13.5162 10.3693 13.5162C10.3693 13.5162 10.3694 13.5162 10.3694 13.5162C10.3694 13.5162 10.3694 13.5162 10.3694 13.5162C10.3694 13.5162 10.3694 13.5162 10.3694 13.5162C10.3695 13.5162 10.3695 13.5162 10.3695 13.5162C10.3695 13.5162 10.3695 13.5162 10.3695 13.5162C10.3695 13.5162 10.3696 13.5162 10.3696 13.5162C10.3696 13.5162 10.3696 13.5162 10.3696 13.5162C10.3696 13.5162 10.3696 13.5162 10.3697 13.5162C10.3697 13.5162 10.3697 13.5162 10.3697 13.5162C10.3697 13.5162 10.3697 13.5162 10.3697 13.5162C10.3698 13.5162 10.3698 13.5162 10.3698 13.5162C10.3698 13.5162 10.3698 13.5162 10.3698 13.5162C10.3698 13.5162 10.3698 13.5162 10.3699 13.5162C10.3699 13.5162 10.3699 13.5162 10.3699 13.5162C10.3699 13.5162 10.3699 13.5162 10.3699 13.5162C10.37 13.5162 10.37 13.5162 10.37 13.5162C10.37 13.5162 10.37 13.5162 10.37 13.5162C10.37 13.5162 10.3701 13.5162 10.3701 13.5162C10.3701 13.5162 10.3701 13.5162 10.3701 13.5162C10.3701 13.5162 10.3701 13.5162 10.3702 13.5162C10.3702 13.5162 10.3702 13.5162 10.3702 13.5162C10.3702 13.5162 10.3702 13.5162 10.3702 13.5162C10.3702 13.5162 10.3703 13.5162 10.3703 13.5162C10.3703 13.5162 10.3703 13.5162 10.3703 13.5162C10.3703 13.5162 10.3703 13.5162 10.3704 13.5162C10.3704 13.5162 10.3704 13.5162 10.3704 13.5162C10.3704 13.5162 10.3704 13.5162 10.3704 13.5162C10.3705 13.5162 10.3705 13.5162 10.3705 13.5162C10.3705 13.5162 10.3705 13.5162 10.3705 13.5162C10.3705 13.5162 10.3705 13.5162 10.3706 13.5162C10.3706 13.5162 10.3706 13.5162 10.3706 13.5162C10.3706 13.5162 10.3706 13.5162 10.3706 13.5162C10.3707 13.5162 10.3707 13.5162 10.3707 13.5162C10.3707 13.5162 10.3707 13.5162 10.3707 13.5162C10.3707 13.5162 10.3708 13.5162 10.3708 13.5162C10.3708 13.5162 10.3708 13.5162 10.3708 13.5162C10.3708 13.5162 10.3708 13.5162 10.3708 13.5162C10.3709 13.5162 10.3709 13.5162 10.3709 13.5162C10.3709 13.5162 10.3709 13.5162 10.3709 13.5162C10.3709 13.5162 10.371 13.5162 10.371 13.5162C10.371 13.5162 10.371 13.5162 10.371 13.5162C10.371 13.5162 10.371 13.5162 10.371 13.5162C10.3711 13.5162 10.3711 13.5162 10.3711 13.5162C10.3711 13.5162 10.3711 13.5162 10.3711 13.5162C10.3711 13.5162 10.3712 13.5162 10.3712 13.5162C10.3712 13.5162 10.3712 13.5162 10.3712 13.5162C10.3712 13.5162 10.3712 13.5162 10.3713 13.5162C10.3713 13.5162 10.3713 13.5162 10.3713 13.5162C10.3713 13.5162 10.3713 13.5162 10.3713 13.5162C10.3713 13.5162 10.3714 13.5162 10.3714 13.5162C10.3714 13.5162 10.3714 13.5162 10.3714 13.5162C10.3714 13.5162 10.3714 13.5162 10.3715 13.5162C10.3715 13.5162 10.3715 13.5162 10.3715 13.5162C10.3715 13.5162 10.3715 13.5162 10.3715 13.5162C10.3715 13.5162 10.3716 13.5162 10.3716 13.5162C10.3716 13.5162 10.3716 13.5162 10.3716 13.5162C10.3716 13.5162 10.3716 13.5162 10.3717 13.5162C10.3717 13.5162 10.3717 13.5162 10.3717 13.5162C10.3717 13.5162 10.3717 13.5162 10.3717 13.5162C10.3717 13.5162 10.3718 13.5162 10.3718 13.5162C10.3718 13.5162 10.3718 13.5162 10.3718 13.5162C10.3718 13.5162 10.3718 13.5162 10.3719 13.5162C10.3719 13.5162 10.3719 13.5162 10.3719 13.5162C10.3719 13.5162 10.3719 13.5162 10.3719 13.5162C10.3719 13.5162 10.372 13.5162 10.372 13.5162C10.372 13.5162 10.372 13.5162 10.372 13.5162C10.372 13.5162 10.372 13.5162 10.3721 13.5162C10.3721 13.5162 10.3721 13.5162 10.3721 13.5162C10.3721 13.5162 10.3721 13.5162 10.3721 13.5162C10.3721 13.5162 10.3722 13.5162 10.3722 13.5162C10.3722 13.5162 10.3722 13.5162 10.3722 13.5162C10.3722 13.5162 10.3722 13.5162 10.3722 13.5162C10.3723 13.5162 10.3723 13.5162 10.3723 13.5162C10.3723 13.5162 10.3723 13.5162 10.3723 13.5162C10.3723 13.5162 10.3724 13.5162 10.3724 13.5162C10.3724 13.5162 10.3724 13.5162 10.3724 13.5162C10.3724 13.5162 10.3724 13.5162 10.3724 13.5162C10.3725 13.5162 10.3725 13.5162 10.3725 13.5162C10.3725 13.5162 10.3725 13.5162 10.3725 13.5162C10.3725 13.5162 10.3726 13.5162 10.3726 13.5162C10.3726 13.5162 10.3726 13.5162 10.3726 13.5162C10.3726 13.5162 10.3726 13.5162 10.3726 13.5162C10.3727 13.5162 10.3727 13.5162 10.3727 13.5162C10.3727 13.5162 10.3727 13.5162 10.3727 13.5162C10.3727 13.5162 10.3727 13.5162 10.3728 13.5162C10.3728 13.5162 10.3728 13.5162 10.3728 13.5162C10.3728 13.5162 10.3728 13.5162 10.3728 13.5162C10.3729 13.5162 10.3729 13.5162 10.3729 13.5162C10.3729 13.5162 10.3729 13.5162 10.3729 13.5162C10.3729 13.5162 10.3729 13.5162 10.373 13.5162C10.373 13.5162 10.373 13.5162 10.373 13.5162C10.373 13.5162 10.373 13.5162 10.373 13.5162C10.373 13.5162 10.3731 13.5162 10.3731 13.5162C10.3731 13.5162 10.3731 13.5162 10.3731 13.5162C10.3731 13.5162 10.3731 13.5162 10.3731 13.5162C10.3732 13.5162 10.3732 13.5162 10.3732 13.5162C10.3732 13.5162 10.3732 13.5162 10.3732 13.5162C10.3732 13.5162 10.3733 13.5162 10.3733 13.5162C10.3733 13.5162 10.3733 13.5162 10.3733 13.5162C10.3733 13.5162 10.3733 13.5162 10.3733 13.5162C10.3734 13.5162 10.3734 13.5162 10.3734 13.5162C10.3734 13.5162 10.3734 13.5162 10.3734 13.5162C10.3734 13.5162 10.3734 13.5162 10.3735 13.5162C10.3735 13.5162 10.3735 13.5162 10.3735 13.5162C10.3735 13.5162 10.3735 13.5162 10.3735 13.5162C10.3735 13.5162 10.3736 13.5162 10.3736 13.5162C10.3736 13.5162 10.3736 13.5162 10.3736 13.5162C10.3736 13.5162 10.3736 13.5162 10.3736 13.5162C10.3737 13.5162 10.3737 13.5162 10.3737 13.5162C10.3737 13.5162 10.3737 13.5162 10.3737 13.5162C10.3737 13.5162 10.3738 13.5162 10.3738 13.5162C10.3738 13.5162 10.3738 13.5162 10.3738 13.5162C10.3738 13.5162 10.3738 13.5162 10.3738 13.5162C10.3739 13.5162 10.3739 13.5162 10.3739 13.5162C10.3739 13.5162 10.3739 13.5162 10.3739 13.5162C10.3739 13.5162 10.3739 13.5162 10.374 13.5162C10.374 13.5162 10.374 13.5162 10.374 13.5162C10.374 13.5162 10.374 13.5162 10.374 13.5162C10.374 13.5162 10.3741 13.5162 10.3741 13.5162C10.3741 13.5162 10.3741 13.5162 10.3741 13.5162C10.3741 13.5162 10.3741 13.5162 10.3741 13.5162C10.3742 13.5162 10.3742 13.5162 10.3742 13.5162C10.3742 13.5162 10.3742 13.5162 10.3742 13.5162C10.3742 13.5162 10.3742 13.5162 10.3743 13.5162C10.3743 13.5162 10.3743 13.5162 10.3743 13.5162C10.3743 13.5162 10.3743 13.5162 10.3743 13.5162C10.3743 13.5162 10.3744 13.5162 10.3744 13.5162C10.3744 13.5162 10.3744 13.5162 10.3744 13.5162C10.3744 13.5162 10.3744 13.5162 10.3744 13.5162C10.3745 13.5162 10.3745 13.5162 10.3745 13.5162C10.3745 13.5162 10.3745 13.5162 10.3745 13.5162C10.3745 13.5162 10.3745 13.5162 10.3746 13.5162C10.3746 13.5162 10.3746 13.5162 10.3746 13.5162C10.3746 13.5162 10.3746 13.5162 10.3746 13.5162C10.3746 13.5162 10.3747 13.5162 10.3747 13.5162C10.3747 13.5162 10.3747 13.5162 10.3747 13.5162C10.3747 13.5162 10.3747 13.5162 10.3747 13.5162C10.3748 13.5162 10.3748 13.5162 10.3748 13.5162C10.3748 13.5162 10.3748 13.5162 10.3748 13.5162C10.3748 13.5162 10.3748 13.5162 10.3749 13.5162C10.3749 13.5162 10.3749 13.5162 10.3749 13.5162C10.3749 13.5162 10.3749 13.5162 10.3749 13.5162C10.3749 13.5162 10.3749 13.5162 10.375 13.5162C10.375 13.5162 10.375 13.5162 10.375 13.5162C10.375 13.5162 10.375 13.5162 10.375 13.5162C10.375 13.5162 10.3751 13.5162 10.3751 13.5162C10.3751 13.5162 10.3751 13.5162 10.3751 13.5162C10.3751 13.5162 10.3751 13.5162 10.3751 13.5162C10.3752 13.5162 10.3752 13.5162 10.3752 13.5162C10.3752 13.5162 10.3752 13.5162 10.3752 13.5162C10.3752 13.5162 10.3752 13.5162 10.3753 13.5162C10.3753 13.5162 10.3753 13.5162 10.3753 13.5162C10.3753 13.5162 10.3753 13.5162 10.3753 13.5162C10.3753 13.5162 10.3754 13.5162 10.3754 13.5162C10.3754 13.5162 10.3754 13.5162 10.3754 13.5162C10.3754 13.5162 10.3754 13.5162 10.3754 13.5162C10.3754 13.5162 10.3755 13.5162 10.3755 13.5162C10.3755 13.5162 10.3755 13.5162 10.3755 13.5162C10.3755 13.5162 10.3755 13.5162 10.3755 13.5162C10.3756 13.5162 10.3756 13.5162 10.3756 13.5162C10.3756 13.5162 10.3756 13.5162 10.3756 13.5162C10.3756 13.5162 10.3756 13.5162 10.3757 13.5162C10.3757 13.5162 10.3757 13.5162 10.3757 13.5162C10.3757 13.5162 10.3757 13.5162 10.3757 13.5162C10.3757 13.5162 10.3757 13.5162 10.3758 13.5162C10.3758 13.5162 10.3758 13.5162 10.3758 13.5162C10.3758 13.5162 10.3758 13.5162 10.3758 13.5162C10.3758 13.5162 10.3759 13.5162 10.3759 13.5162C10.3759 13.5162 10.3759 13.5162 10.3759 13.5162C10.3759 13.5162 10.3759 13.5162 10.3759 13.5162C10.376 13.5162 10.376 13.5162 10.376 13.5162C10.376 13.5162 10.376 13.5162 10.376 13.5162C10.376 13.5162 10.376 13.5162 10.376 13.5162C10.3761 13.5162 10.3761 13.5162 10.3761 13.5162C10.3761 13.5162 10.3761 13.5162 10.3761 13.5162C10.3761 13.5162 10.3761 13.5162 10.3762 13.5162C10.3762 13.5162 10.3762 13.5162 10.3762 13.5162C10.3762 13.5162 10.3762 13.5162 10.3762 13.5162C10.3762 13.5162 10.3762 13.5162 10.3763 13.5162C10.3763 13.5162 10.3763 13.5162 10.3763 13.5162C10.3763 13.5162 10.3763 13.5162 10.3763 13.5162C10.3763 13.5162 10.3764 13.5162 10.3764 13.5162C10.3764 13.5162 10.3764 13.5162 10.3764 13.5162C10.3764 13.5162 10.3764 13.5162 10.3764 13.5162C10.3764 13.5162 10.3765 13.5162 10.3765 13.5162C10.3765 13.5162 10.3765 13.5162 10.3765 13.5162C10.3765 13.5162 10.3765 13.5162 10.3765 13.5162C10.3766 13.5162 10.3766 13.5162 10.3766 13.5162C10.3766 13.5162 10.3766 13.5162 10.3766 13.5162C10.3766 13.5162 10.3766 13.5162 10.3766 13.5162C10.3767 13.5162 10.3767 13.5162 10.3767 13.5162C10.3767 13.5162 10.3767 13.5162 10.3767 13.5162C10.3767 13.5162 10.3767 13.5162 10.3767 13.5162C10.3768 13.5162 10.3768 13.5162 10.3768 13.5162C10.3768 13.5162 10.3768 13.5162 10.3768 13.5162C10.3768 13.5162 10.3768 13.5162 10.3769 13.5162C10.3769 13.5162 10.3769 13.5162 10.3769 13.5162C10.3769 13.5162 10.3769 13.5162 10.3769 13.5162C10.3769 13.5162 10.3769 13.5162 10.377 13.5162C10.377 13.5162 10.377 13.5162 10.377 13.5162C10.377 13.5162 10.377 13.5162 10.377 13.5162C10.377 13.5162 10.377 13.5162 10.3771 13.5162C10.3771 13.5162 10.3771 13.5162 10.3771 13.5162C10.3771 13.5162 10.3771 13.5162 10.3771 13.5162C10.3771 13.5162 10.3771 13.5162 10.3772 13.5162C10.3772 13.5162 10.3772 13.5162 10.3772 13.5162C10.3772 13.5162 10.3772 13.5162 10.3772 13.5162C10.3772 13.5162 10.3772 13.5162 10.3773 13.5162C10.3773 13.5162 10.3773 13.5162 10.3773 13.5162C10.3773 13.5162 10.3773 13.5162 10.3773 13.5162C10.3773 13.5162 10.3773 13.5162 10.3774 13.5162C10.3774 13.5162 10.3774 13.5162 10.3774 13.5162C10.3774 13.5162 10.3774 13.5162 10.3774 13.5162C10.3774 13.5162 10.3775 13.5162 10.3775 13.5162C10.3775 13.5162 10.3775 13.5162 10.3775 13.5162C10.3775 13.5162 10.3775 13.5162 10.3775 13.5162C10.3775 13.5162 10.3776 13.5162 10.3776 13.5162C10.3776 13.5162 10.3776 13.5162 10.3776 13.5162C10.3776 13.5162 10.3776 13.5162 10.3776 13.5162C10.3776 13.5162 10.3777 13.5162 10.3777 13.5162C10.3777 13.5162 10.3777 13.5162 10.3777 13.5162C10.3777 13.5162 10.3777 13.5162 10.3777 13.5162C10.3777 13.5162 10.3778 13.5162 10.3778 13.5162C10.3778 13.5162 10.3778 13.5162 10.3778 13.5162C10.3778 13.5162 10.3778 13.5162 10.3778 13.5162C10.3778 13.5162 10.3778 13.5162 10.3779 13.5162C10.3779 13.5162 10.3779 13.5162 10.3779 13.5162C10.3779 13.5162 10.3779 13.5162 10.3779 13.5162C10.3779 13.5162 10.3779 13.5162 10.378 13.5162C10.378 13.5162 10.378 13.5162 10.378 13.5162C10.378 13.5162 10.378 13.5162 10.378 13.5162C10.378 13.5162 10.378 13.5162 10.3781 13.5162C10.3781 13.5162 10.3781 13.5162 10.3781 13.5162C10.3781 13.5162 10.3781 13.5162 10.3781 13.5162C10.3781 13.5162 10.3781 13.5162 10.3782 13.5162C10.3782 13.5162 10.3782 13.5162 10.3782 13.5162C10.3782 13.5162 10.3782 13.5162 10.3782 13.5162C10.3782 13.5162 10.3782 13.5162 10.3783 13.5162C10.3783 13.5162 10.3783 13.5162 10.3783 13.5162C10.3783 13.5162 10.3783 13.5162 10.3783 13.5162C10.3783 13.5162 10.3783 13.5162 10.3783 13.5162C10.3784 13.5162 10.3784 13.5162 10.3784 13.5162C10.3784 13.5162 10.3784 13.5162 10.3784 13.5162C10.3784 13.5162 10.3784 13.5162 10.3784 13.5162C10.3785 13.5162 10.3785 13.5162 10.3785 13.5162C10.3785 13.5162 10.3785 13.5162 10.3785 13.5162C10.3785 13.5162 10.3785 13.5162 10.3785 13.5162C10.3786 13.5162 10.3786 13.5162 10.3786 13.5162C10.3786 13.5162 10.3786 13.5162 10.3786 13.5162C10.3786 13.5162 10.3786 13.5162 10.3786 13.5162C10.3786 13.5162 10.3787 13.5162 10.3787 13.5162C10.3787 13.5162 10.3787 13.5162 10.3787 13.5162C10.3787 13.5162 10.3787 13.5162 10.3787 13.5162C10.3787 13.5162 10.3788 13.5162 10.3788 13.5162C10.3788 13.5162 10.3788 13.5162 10.3788 13.5162C10.3788 13.5162 10.3788 13.5162 10.3788 13.5162C10.3788 13.5162 10.3788 13.5162 10.3789 13.5162C10.3789 13.5162 10.3789 13.5162 10.3789 13.5162C10.3789 13.5162 10.3789 13.5162 10.3789 13.5162C10.3789 13.5162 10.3789 13.5162 10.3789 13.5162C10.379 13.5162 10.379 13.5162 10.379 13.5162C10.379 13.5162 10.379 13.5162 10.379 13.5162C10.379 13.5162 10.379 13.5162 10.379 13.5162C10.3791 13.5162 10.3791 13.5162 10.3791 13.5162C10.3791 13.5162 10.3791 13.5162 10.3791 13.5162C10.3791 13.5162 10.3791 13.5162 10.3791 13.5162C10.3791 13.5162 10.3792 13.5162 10.3792 13.5162C10.3792 13.5162 10.3792 13.5162 10.3792 13.5162C10.3792 13.5162 10.3792 13.5162 10.3792 13.5162C10.3792 13.5162 10.3792 13.5162 10.3793 13.5162C10.3793 13.5162 10.3793 13.5162 10.3793 13.5162C10.3793 13.5162 10.3793 13.5162 10.3793 13.5162C10.3793 13.5162 10.3793 13.5162 10.3793 13.5162C10.3794 13.5162 10.3794 13.5162 10.3794 13.5162C10.3794 13.5162 10.3794 13.5162 10.3794 13.5162C10.3794 13.5162 10.3794 13.5162 10.3794 13.5162C10.3795 13.5162 10.3795 13.5162 10.3795 13.5162C10.3795 13.5162 10.3795 13.5162 10.3795 13.5162C10.3795 13.5162 10.3795 13.5162 10.3795 13.5162C10.3795 13.5162 10.3796 13.5162 10.3796 13.5162C10.3796 13.5162 10.3796 13.5162 10.3796 13.5162C10.3796 13.5162 10.3796 13.5162 10.3796 13.5162C10.3796 13.5162 10.3796 13.5162 10.3797 13.5162C10.3797 13.5162 10.3797 13.5162 10.3797 13.5162V12.5162ZM10.583 13.4634C10.6804 13.4147 10.7441 13.3875 10.798 13.3737L10.5502 12.4049C10.3859 12.447 10.2414 12.5162 10.1358 12.569L10.583 13.4634ZM11.0276 13.2429L11.0301 13.2404L10.3232 12.5332L10.3206 12.5357L11.0276 13.2429Z" fill="black" mask="url(#path-18-inside-3_1189_5547)"/>
<mask id="path-20-inside-4_1189_5547" fill="white">
<path d="M9.0593 13.0797C8.98569 13.0923 8.9197 13.0517 8.85117 13.0441C8.84101 13.0441 8.83594 13.0289 8.83594 13.0187C8.91208 13.034 8.99077 13.0441 9.0593 13.0797Z"/>
</mask>
<path d="M9.0593 13.0797C8.98569 13.0923 8.9197 13.0517 8.85117 13.0441C8.84101 13.0441 8.83594 13.0289 8.83594 13.0187C8.91208 13.034 8.99077 13.0441 9.0593 13.0797Z" fill="#FEF67F"/>
<path d="M9.0593 13.0797L9.14425 13.5724L10.6088 13.3199L9.28945 12.6358L9.0593 13.0797ZM8.85117 13.0441L8.90638 12.5472L8.87886 12.5441H8.85117V13.0441ZM8.83594 13.0187L8.934 12.5284L8.33594 12.4088V13.0187H8.83594ZM8.97434 12.5869C9.01335 12.5802 9.04546 12.5817 9.06573 12.5842C9.08403 12.5864 9.09412 12.5897 9.08715 12.5877C9.08369 12.5868 9.0796 12.5856 9.07017 12.5828C9.06227 12.5804 9.04915 12.5765 9.03514 12.5727C9.00747 12.565 8.96153 12.5533 8.90638 12.5472L8.79595 13.5411C8.77507 13.5387 8.76308 13.535 8.76935 13.5367C8.77232 13.5375 8.77617 13.5386 8.78528 13.5413C8.79287 13.5436 8.80583 13.5475 8.81951 13.5513C8.87097 13.5656 8.99443 13.5982 9.14425 13.5724L8.97434 12.5869ZM8.85117 12.5441C9.13313 12.5441 9.25975 12.7572 9.28696 12.8116C9.32305 12.8838 9.33594 12.9555 9.33594 13.0187H8.33594C8.33594 13.0922 8.35136 13.1765 8.39253 13.2588C8.42481 13.3234 8.55905 13.5441 8.85117 13.5441V12.5441ZM8.73788 13.509C8.75966 13.5134 8.78637 13.5183 8.79977 13.5209C8.81687 13.5241 8.82764 13.5263 8.83595 13.5283C8.85319 13.5323 8.8459 13.5322 8.82914 13.5235L9.28945 12.6358C9.13965 12.5581 8.95917 12.5335 8.934 12.5284L8.73788 13.509Z" fill="black" mask="url(#path-20-inside-4_1189_5547)"/>
<mask id="path-22-inside-5_1189_5547" fill="white">
<path d="M12.1203 11.1887C12.1203 11.2167 12.133 11.2498 12.0948 11.265C12.0821 11.2319 12.1024 11.2116 12.1203 11.1887Z"/>
</mask>
<path d="M12.1203 11.1887C12.1203 11.2167 12.133 11.2498 12.0948 11.265C12.0821 11.2319 12.1024 11.2116 12.1203 11.1887Z" fill="#FEA63B"/>
<path d="M12.1203 11.1887H12.6203V9.73139L11.7256 10.8817L12.1203 11.1887ZM12.0948 11.265L11.6281 11.4445L11.81 11.9175L12.2805 11.7293L12.0948 11.265ZM11.6203 11.1887C11.6203 11.2226 11.6243 11.263 11.6233 11.2511C11.6233 11.2509 11.6231 11.2488 11.6229 11.2457C11.6228 11.2426 11.6225 11.2377 11.6224 11.2315C11.6221 11.2197 11.6222 11.1994 11.6252 11.1739C11.6314 11.1209 11.651 11.0376 11.7119 10.9547C11.7735 10.8707 11.85 10.8244 11.9091 10.8008L12.2805 11.7293C12.3587 11.698 12.4479 11.6418 12.5179 11.5465C12.5871 11.4523 12.6107 11.356 12.6185 11.2894C12.6255 11.2294 12.6208 11.1794 12.62 11.1694C12.6178 11.143 12.6203 11.1687 12.6203 11.1887H11.6203ZM12.5615 11.0855C12.5813 11.1372 12.5941 11.2005 12.5901 11.271C12.5861 11.3406 12.5668 11.3972 12.5479 11.4371C12.5304 11.474 12.5123 11.4985 12.5076 11.5047C12.505 11.5083 12.5032 11.5104 12.5049 11.5083C12.5052 11.508 12.5105 11.5013 12.5149 11.4956L11.7256 10.8817C11.7363 10.8679 11.7122 10.8986 11.7063 10.9065C11.6932 10.924 11.6674 10.96 11.6442 11.009C11.6196 11.061 11.5965 11.1303 11.5917 11.2137C11.5869 11.2981 11.6019 11.3764 11.6281 11.4445L12.5615 11.0855Z" fill="black" mask="url(#path-22-inside-5_1189_5547)"/>
<mask id="path-24-inside-6_1189_5547" fill="white">
<path d="M12.085 11.3105C12.0901 11.3359 12.1003 11.3639 12.057 11.369C12.0545 11.3436 12.0519 11.3181 12.085 11.3105Z"/>
</mask>
<path d="M12.085 11.3105C12.0901 11.3359 12.1003 11.3639 12.057 11.369C12.0545 11.3436 12.0519 11.3181 12.085 11.3105Z" fill="#FEA63B"/>
<path d="M12.085 11.3105L12.5753 11.2124L12.4743 10.7075L11.9726 10.8233L12.085 11.3105ZM12.057 11.369L11.5595 11.4188L11.6101 11.9251L12.1154 11.8656L12.057 11.369ZM11.5947 11.4085C11.6021 11.4454 11.5958 11.4127 11.595 11.4078C11.5928 11.394 11.5824 11.3294 11.5994 11.2466C11.6202 11.1458 11.6777 11.0373 11.7829 10.9594C11.8735 10.8924 11.9612 10.8769 11.9986 10.8725L12.1154 11.8656C12.1745 11.8587 12.2771 11.8378 12.3778 11.7632C12.4931 11.6779 12.5559 11.5598 12.5789 11.4482C12.5982 11.3546 12.5869 11.2779 12.5827 11.2515C12.58 11.2341 12.5705 11.1883 12.5753 11.2124L11.5947 11.4085ZM12.5545 11.3193C12.5535 11.3085 12.5554 11.3242 12.5556 11.3437C12.5559 11.3638 12.5553 11.4149 12.5362 11.4781C12.5149 11.5482 12.4723 11.628 12.397 11.6943C12.3249 11.7579 12.2494 11.7857 12.1975 11.7977L11.9726 10.8233C11.9041 10.8391 11.8165 10.8729 11.7356 10.9443C11.6517 11.0183 11.6036 11.1075 11.5791 11.1881C11.5568 11.2617 11.5553 11.3244 11.5557 11.3568C11.5561 11.3884 11.5593 11.4168 11.5595 11.4188L12.5545 11.3193Z" fill="black" mask="url(#path-24-inside-6_1189_5547)"/>
<mask id="path-26-inside-7_1189_5547" fill="white">
<path d="M7.72363 19.0291C7.74654 19.0291 7.772 19.0266 7.78473 19.0546C7.75927 19.0571 7.73636 19.0571 7.72363 19.0291Z"/>
</mask>
<path d="M7.72363 19.0291C7.74654 19.0291 7.772 19.0266 7.78473 19.0546C7.75927 19.0571 7.73636 19.0571 7.72363 19.0291Z" fill="#FEA63B"/>
<path d="M7.72363 19.0291V18.5291H6.94713L7.26845 19.236L7.72363 19.0291ZM7.78473 19.0546L7.83448 19.5521L8.52856 19.4827L8.23991 18.8477L7.78473 19.0546ZM7.72363 19.5291C7.74811 19.5291 7.72903 19.529 7.72395 19.5289C7.71178 19.5284 7.6758 19.5268 7.63006 19.5147C7.58089 19.5017 7.51798 19.476 7.45697 19.4262C7.39527 19.3759 7.35451 19.3164 7.32955 19.2615L8.23991 18.8477C8.20859 18.7788 8.15987 18.7091 8.0891 18.6513C8.01903 18.5942 7.94593 18.5639 7.88594 18.548C7.82938 18.533 7.78194 18.5303 7.75817 18.5294C7.74147 18.5289 7.71061 18.5291 7.72363 18.5291V19.5291ZM7.73498 18.5571C7.73513 18.557 7.73898 18.5566 7.74478 18.5563C7.75064 18.5559 7.76045 18.5555 7.77294 18.5556C7.79668 18.556 7.84086 18.5586 7.89441 18.5748C7.95152 18.5921 8.01334 18.6232 8.06926 18.6734C8.12412 18.7228 8.15828 18.777 8.17882 18.8222L7.26845 19.236C7.3303 19.3721 7.44721 19.4842 7.60441 19.5318C7.72098 19.5671 7.82479 19.5531 7.83448 19.5521L7.73498 18.5571Z" fill="black" mask="url(#path-26-inside-7_1189_5547)"/>
</svg>
