<svg width="26" height="26" viewBox="0 0 26 26" fill="none" xmlns="http://www.w3.org/2000/svg">
<g opacity="0.85">
<path d="M12.7144 25.2811C19.6179 25.2811 25.2144 19.6847 25.2144 12.7811C25.2144 5.87754 19.6179 0.281097 12.7144 0.281097C5.8108 0.281097 0.214355 5.87754 0.214355 12.7811C0.214355 19.6847 5.8108 25.2811 12.7144 25.2811Z" fill="#FF4C00"/>
<path d="M12.7141 23.3888C18.5726 23.3888 23.3218 18.6396 23.3218 12.7811C23.3218 6.92265 18.5726 2.17343 12.7141 2.17343C6.85566 2.17343 2.10645 6.92265 2.10645 12.7811C2.10645 18.6396 6.85566 23.3888 12.7141 23.3888Z" fill="#DE3B00"/>
<path d="M18.2626 3.72754C19.3192 5.37669 19.9313 7.3389 19.9313 9.44087C19.9313 15.2995 15.1823 20.0485 9.32367 20.0485C7.28878 20.0485 5.38807 19.4755 3.77246 18.4832C5.65641 21.4266 8.9575 23.3776 12.7114 23.3776C18.5701 23.3776 23.3191 18.6286 23.3191 12.7699C23.3191 8.94612 21.2954 5.59471 18.2598 3.72754H18.2626Z" fill="#C52F05"/>
<path d="M3.9626 13.751C3.9626 8.57997 8.15535 4.38722 13.3264 4.38722C16.348 4.38722 19.0369 5.82114 20.7504 8.0433C19.1348 5.23695 16.102 3.34741 12.6304 3.34741C7.45936 3.34741 3.2666 7.54017 3.2666 12.7112C3.2666 14.8607 3.99055 16.8397 5.20924 18.419C4.41821 17.0437 3.96539 15.4505 3.96539 13.751H3.9626Z" fill="#ED7447"/>
</g>
<mask id="path-5-inside-1_1189_5550" fill="white">
<path d="M18.9747 14.6297C18.967 14.5941 18.9899 14.5686 19.0052 14.5406C19.0179 14.5788 19.0154 14.6094 18.9747 14.6297Z"/>
</mask>
<path d="M18.9747 14.6297C18.967 14.5941 18.9899 14.5686 19.0052 14.5406C19.0179 14.5788 19.0154 14.6094 18.9747 14.6297Z" fill="#772A0C"/>
<path d="M18.9747 14.6297L18.4858 14.7345L18.621 15.3656L19.1983 15.0769L18.9747 14.6297ZM19.0052 14.5406L19.4796 14.3825L19.1163 13.2928L18.5663 14.3012L19.0052 14.5406ZM19.4636 14.525C19.4755 14.5807 19.4758 14.6361 19.4672 14.6873C19.459 14.7361 19.4442 14.7728 19.4344 14.7937C19.4255 14.8129 19.4174 14.8256 19.4204 14.8208C19.4209 14.8198 19.4214 14.8191 19.4228 14.8168C19.4239 14.815 19.4257 14.8121 19.4276 14.8088C19.4315 14.8024 19.4375 14.7923 19.4442 14.78L18.5663 14.3012C18.5697 14.2949 18.5751 14.2861 18.5655 14.3019C18.56 14.3109 18.5439 14.3374 18.5282 14.3709C18.4926 14.4473 18.4519 14.5765 18.4858 14.7345L19.4636 14.525ZM18.5309 14.6987C18.5259 14.6839 18.4928 14.5863 18.5281 14.4586C18.571 14.3033 18.6798 14.2181 18.7511 14.1825L19.1983 15.0769C19.3102 15.021 19.4407 14.9103 19.4919 14.7251C19.5355 14.5675 19.4972 14.4355 19.4796 14.3825L18.5309 14.6987Z" fill="black" mask="url(#path-5-inside-1_1189_5550)"/>
<mask id="path-7-inside-2_1189_5550" fill="white">
<path d="M19.0121 14.5003C19.007 14.4723 19.0248 14.4545 19.0401 14.4367C19.0401 14.4621 19.0503 14.4901 19.0121 14.5003Z"/>
</mask>
<path d="M19.0121 14.5003C19.007 14.4723 19.0248 14.4545 19.0401 14.4367C19.0401 14.4621 19.0503 14.4901 19.0121 14.5003Z" fill="#772A0C"/>
<path d="M19.0121 14.5003L18.5202 14.5898L18.6172 15.1231L19.1409 14.9834L19.0121 14.5003ZM19.0401 14.4367H19.5401V13.085L18.6605 14.1113L19.0401 14.4367ZM19.5041 14.4109C19.514 14.4658 19.5138 14.5235 19.5022 14.5804C19.491 14.6357 19.4714 14.6794 19.4543 14.7098C19.438 14.7388 19.4224 14.7584 19.4171 14.765C19.4152 14.7673 19.4069 14.777 19.4197 14.7621L18.6605 14.1113C18.6733 14.0964 18.6193 14.1544 18.5827 14.2196C18.5321 14.3095 18.4927 14.4387 18.5202 14.5898L19.5041 14.4109ZM18.5401 14.4367C18.5401 14.4612 18.5432 14.5062 18.5419 14.484C18.5419 14.4834 18.5382 14.4375 18.5496 14.3788C18.5631 14.3094 18.5981 14.2178 18.6775 14.1377C18.7526 14.0619 18.834 14.0303 18.8833 14.0172L19.1409 14.9834C19.2093 14.9652 19.3038 14.9263 19.3877 14.8416C19.476 14.7526 19.5155 14.6505 19.5312 14.5696C19.5449 14.4995 19.5411 14.4412 19.5403 14.4278C19.5384 14.3929 19.5401 14.4249 19.5401 14.4367H18.5401Z" fill="black" mask="url(#path-7-inside-2_1189_5550)"/>
<mask id="path-9-inside-3_1189_5550" fill="white">
<path d="M9.74061 12.203C9.74061 12.203 9.73807 12.2233 9.733 12.2259C9.63655 12.2614 9.54517 12.3096 9.44364 12.3325C9.43857 12.3325 9.43095 12.3325 9.42334 12.3325C9.52487 12.2817 9.62893 12.2335 9.73807 12.2056L9.74061 12.203Z"/>
</mask>
<path d="M9.74061 12.203C9.74061 12.203 9.73807 12.2233 9.733 12.2259C9.63655 12.2614 9.54517 12.3096 9.44364 12.3325C9.43857 12.3325 9.43095 12.3325 9.42334 12.3325C9.52487 12.2817 9.62893 12.2335 9.73807 12.2056L9.74061 12.203Z" fill="#FEF67F"/>
<path d="M9.74061 12.203L10.2367 12.2651L10.4175 10.8194L9.38712 11.8494L9.74061 12.203ZM9.733 12.2259L9.90585 12.695L9.93183 12.6855L9.9566 12.6731L9.733 12.2259ZM9.44364 12.3325V12.8325H9.4992L9.5534 12.8203L9.44364 12.3325ZM9.42334 12.3325L9.19973 11.8853L9.42334 12.8325V12.3325ZM9.73807 12.2056L9.86199 12.69L9.99469 12.656L10.0916 12.5592L9.73807 12.2056ZM9.74061 12.203C9.24447 12.141 9.24448 12.1409 9.24449 12.1409C9.24449 12.1409 9.2445 12.1408 9.2445 12.1408C9.24451 12.1407 9.24452 12.1406 9.24453 12.1406C9.24455 12.1404 9.24457 12.1403 9.24459 12.1401C9.24462 12.1398 9.24466 12.1395 9.2447 12.1392C9.24478 12.1386 9.24485 12.138 9.24493 12.1374C9.24509 12.1362 9.24526 12.135 9.24543 12.1338C9.24578 12.1314 9.24618 12.1286 9.24667 12.1257C9.24751 12.1205 9.24915 12.1111 9.252 12.099C9.25402 12.0904 9.26074 12.0623 9.27551 12.0272C9.28288 12.0097 9.29801 11.9765 9.32433 11.9386C9.34705 11.906 9.40444 11.8311 9.50939 11.7787L9.9566 12.6731C10.0628 12.62 10.1214 12.544 10.1452 12.5097C10.1727 12.4703 10.1888 12.435 10.1971 12.4153C10.2138 12.3757 10.2221 12.342 10.2254 12.328C10.2295 12.3105 10.2321 12.2958 10.2336 12.2868C10.2344 12.2819 10.235 12.2776 10.2356 12.274C10.2358 12.2722 10.236 12.2706 10.2362 12.2691C10.2363 12.2683 10.2364 12.2676 10.2365 12.267C10.2365 12.2666 10.2366 12.2663 10.2366 12.266C10.2367 12.2658 10.2367 12.2657 10.2367 12.2655C10.2367 12.2654 10.2367 12.2654 10.2367 12.2653C10.2367 12.2653 10.2367 12.2652 10.2367 12.2652C10.2367 12.2651 10.2367 12.2651 9.74061 12.203ZM9.56014 11.7567C9.50282 11.7778 9.42764 11.8103 9.40187 11.8208C9.36248 11.8368 9.34429 11.8423 9.33389 11.8447L9.5534 12.8203C9.64453 12.7998 9.72279 12.7698 9.77858 12.7471C9.84799 12.7189 9.86672 12.7095 9.90585 12.695L9.56014 11.7567ZM9.44364 11.8325C9.44363 11.8325 9.44362 11.8325 9.44361 11.8325C9.4436 11.8325 9.4436 11.8325 9.44359 11.8325C9.44358 11.8325 9.44357 11.8325 9.44356 11.8325C9.44355 11.8325 9.44354 11.8325 9.44353 11.8325C9.44352 11.8325 9.44351 11.8325 9.4435 11.8325C9.44349 11.8325 9.44348 11.8325 9.44347 11.8325C9.44346 11.8325 9.44345 11.8325 9.44344 11.8325C9.44343 11.8325 9.44341 11.8325 9.4434 11.8325C9.44339 11.8325 9.44338 11.8325 9.44337 11.8325C9.44336 11.8325 9.44335 11.8325 9.44334 11.8325C9.44333 11.8325 9.44332 11.8325 9.44331 11.8325C9.4433 11.8325 9.44329 11.8325 9.44328 11.8325C9.44327 11.8325 9.44326 11.8325 9.44325 11.8325C9.44324 11.8325 9.44323 11.8325 9.44322 11.8325C9.44321 11.8325 9.4432 11.8325 9.44319 11.8325C9.44318 11.8325 9.44317 11.8325 9.44316 11.8325C9.44315 11.8325 9.44314 11.8325 9.44313 11.8325C9.44312 11.8325 9.44311 11.8325 9.4431 11.8325C9.44309 11.8325 9.44308 11.8325 9.44307 11.8325C9.44306 11.8325 9.44305 11.8325 9.44304 11.8325C9.44303 11.8325 9.44302 11.8325 9.44301 11.8325C9.443 11.8325 9.44299 11.8325 9.44298 11.8325C9.44297 11.8325 9.44296 11.8325 9.44295 11.8325C9.44294 11.8325 9.44292 11.8325 9.44291 11.8325C9.4429 11.8325 9.44289 11.8325 9.44288 11.8325C9.44287 11.8325 9.44286 11.8325 9.44285 11.8325C9.44284 11.8325 9.44283 11.8325 9.44282 11.8325C9.44281 11.8325 9.4428 11.8325 9.44279 11.8325C9.44278 11.8325 9.44277 11.8325 9.44276 11.8325C9.44275 11.8325 9.44274 11.8325 9.44273 11.8325C9.44272 11.8325 9.44271 11.8325 9.4427 11.8325C9.44268 11.8325 9.44267 11.8325 9.44266 11.8325C9.44265 11.8325 9.44264 11.8325 9.44263 11.8325C9.44262 11.8325 9.44261 11.8325 9.4426 11.8325C9.44259 11.8325 9.44258 11.8325 9.44257 11.8325C9.44256 11.8325 9.44255 11.8325 9.44254 11.8325C9.44253 11.8325 9.44252 11.8325 9.44251 11.8325C9.44249 11.8325 9.44248 11.8325 9.44247 11.8325C9.44246 11.8325 9.44245 11.8325 9.44244 11.8325C9.44243 11.8325 9.44242 11.8325 9.44241 11.8325C9.4424 11.8325 9.44239 11.8325 9.44238 11.8325C9.44237 11.8325 9.44236 11.8325 9.44235 11.8325C9.44233 11.8325 9.44232 11.8325 9.44231 11.8325C9.4423 11.8325 9.44229 11.8325 9.44228 11.8325C9.44227 11.8325 9.44226 11.8325 9.44225 11.8325C9.44224 11.8325 9.44223 11.8325 9.44222 11.8325C9.44221 11.8325 9.4422 11.8325 9.44218 11.8325C9.44217 11.8325 9.44216 11.8325 9.44215 11.8325C9.44214 11.8325 9.44213 11.8325 9.44212 11.8325C9.44211 11.8325 9.4421 11.8325 9.44209 11.8325C9.44208 11.8325 9.44207 11.8325 9.44205 11.8325C9.44204 11.8325 9.44203 11.8325 9.44202 11.8325C9.44201 11.8325 9.442 11.8325 9.44199 11.8325C9.44198 11.8325 9.44197 11.8325 9.44196 11.8325C9.44195 11.8325 9.44193 11.8325 9.44192 11.8325C9.44191 11.8325 9.4419 11.8325 9.44189 11.8325C9.44188 11.8325 9.44187 11.8325 9.44186 11.8325C9.44185 11.8325 9.44184 11.8325 9.44183 11.8325C9.44181 11.8325 9.4418 11.8325 9.44179 11.8325C9.44178 11.8325 9.44177 11.8325 9.44176 11.8325C9.44175 11.8325 9.44174 11.8325 9.44173 11.8325C9.44172 11.8325 9.4417 11.8325 9.44169 11.8325C9.44168 11.8325 9.44167 11.8325 9.44166 11.8325C9.44165 11.8325 9.44164 11.8325 9.44163 11.8325C9.44162 11.8325 9.4416 11.8325 9.44159 11.8325C9.44158 11.8325 9.44157 11.8325 9.44156 11.8325C9.44155 11.8325 9.44154 11.8325 9.44153 11.8325C9.44152 11.8325 9.4415 11.8325 9.44149 11.8325C9.44148 11.8325 9.44147 11.8325 9.44146 11.8325C9.44145 11.8325 9.44144 11.8325 9.44143 11.8325C9.44142 11.8325 9.4414 11.8325 9.44139 11.8325C9.44138 11.8325 9.44137 11.8325 9.44136 11.8325C9.44135 11.8325 9.44134 11.8325 9.44133 11.8325C9.44131 11.8325 9.4413 11.8325 9.44129 11.8325C9.44128 11.8325 9.44127 11.8325 9.44126 11.8325C9.44125 11.8325 9.44124 11.8325 9.44122 11.8325C9.44121 11.8325 9.4412 11.8325 9.44119 11.8325C9.44118 11.8325 9.44117 11.8325 9.44116 11.8325C9.44115 11.8325 9.44113 11.8325 9.44112 11.8325C9.44111 11.8325 9.4411 11.8325 9.44109 11.8325C9.44108 11.8325 9.44107 11.8325 9.44105 11.8325C9.44104 11.8325 9.44103 11.8325 9.44102 11.8325C9.44101 11.8325 9.441 11.8325 9.44099 11.8325C9.44098 11.8325 9.44096 11.8325 9.44095 11.8325C9.44094 11.8325 9.44093 11.8325 9.44092 11.8325C9.44091 11.8325 9.4409 11.8325 9.44088 11.8325C9.44087 11.8325 9.44086 11.8325 9.44085 11.8325C9.44084 11.8325 9.44083 11.8325 9.44082 11.8325C9.4408 11.8325 9.44079 11.8325 9.44078 11.8325C9.44077 11.8325 9.44076 11.8325 9.44075 11.8325C9.44073 11.8325 9.44072 11.8325 9.44071 11.8325C9.4407 11.8325 9.44069 11.8325 9.44068 11.8325C9.44067 11.8325 9.44065 11.8325 9.44064 11.8325C9.44063 11.8325 9.44062 11.8325 9.44061 11.8325C9.4406 11.8325 9.44058 11.8325 9.44057 11.8325C9.44056 11.8325 9.44055 11.8325 9.44054 11.8325C9.44053 11.8325 9.44052 11.8325 9.4405 11.8325C9.44049 11.8325 9.44048 11.8325 9.44047 11.8325C9.44046 11.8325 9.44045 11.8325 9.44043 11.8325C9.44042 11.8325 9.44041 11.8325 9.4404 11.8325C9.44039 11.8325 9.44038 11.8325 9.44036 11.8325C9.44035 11.8325 9.44034 11.8325 9.44033 11.8325C9.44032 11.8325 9.44031 11.8325 9.44029 11.8325C9.44028 11.8325 9.44027 11.8325 9.44026 11.8325C9.44025 11.8325 9.44023 11.8325 9.44022 11.8325C9.44021 11.8325 9.4402 11.8325 9.44019 11.8325C9.44018 11.8325 9.44016 11.8325 9.44015 11.8325C9.44014 11.8325 9.44013 11.8325 9.44012 11.8325C9.44011 11.8325 9.44009 11.8325 9.44008 11.8325C9.44007 11.8325 9.44006 11.8325 9.44005 11.8325C9.44003 11.8325 9.44002 11.8325 9.44001 11.8325C9.44 11.8325 9.43999 11.8325 9.43998 11.8325C9.43996 11.8325 9.43995 11.8325 9.43994 11.8325C9.43993 11.8325 9.43992 11.8325 9.4399 11.8325C9.43989 11.8325 9.43988 11.8325 9.43987 11.8325C9.43986 11.8325 9.43984 11.8325 9.43983 11.8325C9.43982 11.8325 9.43981 11.8325 9.4398 11.8325C9.43979 11.8325 9.43977 11.8325 9.43976 11.8325C9.43975 11.8325 9.43974 11.8325 9.43973 11.8325C9.43971 11.8325 9.4397 11.8325 9.43969 11.8325C9.43968 11.8325 9.43967 11.8325 9.43965 11.8325C9.43964 11.8325 9.43963 11.8325 9.43962 11.8325C9.43961 11.8325 9.43959 11.8325 9.43958 11.8325C9.43957 11.8325 9.43956 11.8325 9.43955 11.8325C9.43953 11.8325 9.43952 11.8325 9.43951 11.8325C9.4395 11.8325 9.43949 11.8325 9.43947 11.8325C9.43946 11.8325 9.43945 11.8325 9.43944 11.8325C9.43943 11.8325 9.43941 11.8325 9.4394 11.8325C9.43939 11.8325 9.43938 11.8325 9.43936 11.8325C9.43935 11.8325 9.43934 11.8325 9.43933 11.8325C9.43932 11.8325 9.4393 11.8325 9.43929 11.8325C9.43928 11.8325 9.43927 11.8325 9.43926 11.8325C9.43924 11.8325 9.43923 11.8325 9.43922 11.8325C9.43921 11.8325 9.4392 11.8325 9.43918 11.8325C9.43917 11.8325 9.43916 11.8325 9.43915 11.8325C9.43913 11.8325 9.43912 11.8325 9.43911 11.8325C9.4391 11.8325 9.43909 11.8325 9.43907 11.8325C9.43906 11.8325 9.43905 11.8325 9.43904 11.8325C9.43902 11.8325 9.43901 11.8325 9.439 11.8325C9.43899 11.8325 9.43898 11.8325 9.43896 11.8325C9.43895 11.8325 9.43894 11.8325 9.43893 11.8325C9.43891 11.8325 9.4389 11.8325 9.43889 11.8325C9.43888 11.8325 9.43886 11.8325 9.43885 11.8325C9.43884 11.8325 9.43883 11.8325 9.43882 11.8325C9.4388 11.8325 9.43879 11.8325 9.43878 11.8325C9.43877 11.8325 9.43875 11.8325 9.43874 11.8325C9.43873 11.8325 9.43872 11.8325 9.4387 11.8325C9.43869 11.8325 9.43868 11.8325 9.43867 11.8325C9.43866 11.8325 9.43864 11.8325 9.43863 11.8325C9.43862 11.8325 9.43861 11.8325 9.43859 11.8325C9.43858 11.8325 9.43857 11.8325 9.43856 11.8325C9.43854 11.8325 9.43853 11.8325 9.43852 11.8325C9.43851 11.8325 9.43849 11.8325 9.43848 11.8325C9.43847 11.8325 9.43846 11.8325 9.43844 11.8325C9.43843 11.8325 9.43842 11.8325 9.43841 11.8325C9.43839 11.8325 9.43838 11.8325 9.43837 11.8325C9.43836 11.8325 9.43834 11.8325 9.43833 11.8325C9.43832 11.8325 9.43831 11.8325 9.43829 11.8325C9.43828 11.8325 9.43827 11.8325 9.43826 11.8325C9.43824 11.8325 9.43823 11.8325 9.43822 11.8325C9.43821 11.8325 9.43819 11.8325 9.43818 11.8325C9.43817 11.8325 9.43816 11.8325 9.43814 11.8325C9.43813 11.8325 9.43812 11.8325 9.43811 11.8325C9.43809 11.8325 9.43808 11.8325 9.43807 11.8325C9.43806 11.8325 9.43804 11.8325 9.43803 11.8325C9.43802 11.8325 9.43801 11.8325 9.43799 11.8325C9.43798 11.8325 9.43797 11.8325 9.43796 11.8325C9.43794 11.8325 9.43793 11.8325 9.43792 11.8325C9.43791 11.8325 9.43789 11.8325 9.43788 11.8325C9.43787 11.8325 9.43785 11.8325 9.43784 11.8325C9.43783 11.8325 9.43782 11.8325 9.4378 11.8325C9.43779 11.8325 9.43778 11.8325 9.43777 11.8325C9.43775 11.8325 9.43774 11.8325 9.43773 11.8325C9.43771 11.8325 9.4377 11.8325 9.43769 11.8325C9.43768 11.8325 9.43766 11.8325 9.43765 11.8325C9.43764 11.8325 9.43763 11.8325 9.43761 11.8325C9.4376 11.8325 9.43759 11.8325 9.43757 11.8325C9.43756 11.8325 9.43755 11.8325 9.43754 11.8325C9.43752 11.8325 9.43751 11.8325 9.4375 11.8325C9.43749 11.8325 9.43747 11.8325 9.43746 11.8325C9.43745 11.8325 9.43743 11.8325 9.43742 11.8325C9.43741 11.8325 9.4374 11.8325 9.43738 11.8325C9.43737 11.8325 9.43736 11.8325 9.43734 11.8325C9.43733 11.8325 9.43732 11.8325 9.43731 11.8325C9.43729 11.8325 9.43728 11.8325 9.43727 11.8325C9.43725 11.8325 9.43724 11.8325 9.43723 11.8325C9.43722 11.8325 9.4372 11.8325 9.43719 11.8325C9.43718 11.8325 9.43716 11.8325 9.43715 11.8325C9.43714 11.8325 9.43713 11.8325 9.43711 11.8325C9.4371 11.8325 9.43709 11.8325 9.43707 11.8325C9.43706 11.8325 9.43705 11.8325 9.43704 11.8325C9.43702 11.8325 9.43701 11.8325 9.437 11.8325C9.43698 11.8325 9.43697 11.8325 9.43696 11.8325C9.43695 11.8325 9.43693 11.8325 9.43692 11.8325C9.43691 11.8325 9.43689 11.8325 9.43688 11.8325C9.43687 11.8325 9.43685 11.8325 9.43684 11.8325C9.43683 11.8325 9.43682 11.8325 9.4368 11.8325C9.43679 11.8325 9.43678 11.8325 9.43676 11.8325C9.43675 11.8325 9.43674 11.8325 9.43672 11.8325C9.43671 11.8325 9.4367 11.8325 9.43669 11.8325C9.43667 11.8325 9.43666 11.8325 9.43665 11.8325C9.43663 11.8325 9.43662 11.8325 9.43661 11.8325C9.43659 11.8325 9.43658 11.8325 9.43657 11.8325C9.43655 11.8325 9.43654 11.8325 9.43653 11.8325C9.43652 11.8325 9.4365 11.8325 9.43649 11.8325C9.43648 11.8325 9.43646 11.8325 9.43645 11.8325C9.43644 11.8325 9.43642 11.8325 9.43641 11.8325C9.4364 11.8325 9.43638 11.8325 9.43637 11.8325C9.43636 11.8325 9.43635 11.8325 9.43633 11.8325C9.43632 11.8325 9.43631 11.8325 9.43629 11.8325C9.43628 11.8325 9.43627 11.8325 9.43625 11.8325C9.43624 11.8325 9.43623 11.8325 9.43621 11.8325C9.4362 11.8325 9.43619 11.8325 9.43617 11.8325C9.43616 11.8325 9.43615 11.8325 9.43613 11.8325C9.43612 11.8325 9.43611 11.8325 9.4361 11.8325C9.43608 11.8325 9.43607 11.8325 9.43606 11.8325C9.43604 11.8325 9.43603 11.8325 9.43602 11.8325C9.436 11.8325 9.43599 11.8325 9.43598 11.8325C9.43596 11.8325 9.43595 11.8325 9.43594 11.8325C9.43592 11.8325 9.43591 11.8325 9.4359 11.8325C9.43588 11.8325 9.43587 11.8325 9.43586 11.8325C9.43584 11.8325 9.43583 11.8325 9.43582 11.8325C9.4358 11.8325 9.43579 11.8325 9.43578 11.8325C9.43576 11.8325 9.43575 11.8325 9.43574 11.8325C9.43572 11.8325 9.43571 11.8325 9.4357 11.8325C9.43568 11.8325 9.43567 11.8325 9.43566 11.8325C9.43564 11.8325 9.43563 11.8325 9.43562 11.8325C9.4356 11.8325 9.43559 11.8325 9.43558 11.8325C9.43556 11.8325 9.43555 11.8325 9.43554 11.8325C9.43552 11.8325 9.43551 11.8325 9.4355 11.8325C9.43548 11.8325 9.43547 11.8325 9.43546 11.8325C9.43544 11.8325 9.43543 11.8325 9.43542 11.8325C9.4354 11.8325 9.43539 11.8325 9.43538 11.8325C9.43536 11.8325 9.43535 11.8325 9.43534 11.8325C9.43532 11.8325 9.43531 11.8325 9.4353 11.8325C9.43528 11.8325 9.43527 11.8325 9.43526 11.8325C9.43524 11.8325 9.43523 11.8325 9.43522 11.8325C9.4352 11.8325 9.43519 11.8325 9.43518 11.8325C9.43516 11.8325 9.43515 11.8325 9.43514 11.8325C9.43512 11.8325 9.43511 11.8325 9.43509 11.8325C9.43508 11.8325 9.43507 11.8325 9.43505 11.8325C9.43504 11.8325 9.43503 11.8325 9.43501 11.8325C9.435 11.8325 9.43499 11.8325 9.43497 11.8325C9.43496 11.8325 9.43495 11.8325 9.43493 11.8325C9.43492 11.8325 9.43491 11.8325 9.43489 11.8325C9.43488 11.8325 9.43487 11.8325 9.43485 11.8325C9.43484 11.8325 9.43482 11.8325 9.43481 11.8325C9.4348 11.8325 9.43478 11.8325 9.43477 11.8325C9.43476 11.8325 9.43474 11.8325 9.43473 11.8325C9.43472 11.8325 9.4347 11.8325 9.43469 11.8325C9.43468 11.8325 9.43466 11.8325 9.43465 11.8325C9.43463 11.8325 9.43462 11.8325 9.43461 11.8325C9.43459 11.8325 9.43458 11.8325 9.43457 11.8325C9.43455 11.8325 9.43454 11.8325 9.43453 11.8325C9.43451 11.8325 9.4345 11.8325 9.43448 11.8325C9.43447 11.8325 9.43446 11.8325 9.43444 11.8325C9.43443 11.8325 9.43442 11.8325 9.4344 11.8325C9.43439 11.8325 9.43438 11.8325 9.43436 11.8325C9.43435 11.8325 9.43433 11.8325 9.43432 11.8325C9.43431 11.8325 9.43429 11.8325 9.43428 11.8325C9.43427 11.8325 9.43425 11.8325 9.43424 11.8325C9.43423 11.8325 9.43421 11.8325 9.4342 11.8325C9.43418 11.8325 9.43417 11.8325 9.43416 11.8325C9.43414 11.8325 9.43413 11.8325 9.43412 11.8325C9.4341 11.8325 9.43409 11.8325 9.43407 11.8325C9.43406 11.8325 9.43405 11.8325 9.43403 11.8325C9.43402 11.8325 9.43401 11.8325 9.43399 11.8325C9.43398 11.8325 9.43397 11.8325 9.43395 11.8325C9.43394 11.8325 9.43392 11.8325 9.43391 11.8325C9.4339 11.8325 9.43388 11.8325 9.43387 11.8325C9.43385 11.8325 9.43384 11.8325 9.43383 11.8325C9.43381 11.8325 9.4338 11.8325 9.43379 11.8325C9.43377 11.8325 9.43376 11.8325 9.43374 11.8325C9.43373 11.8325 9.43372 11.8325 9.4337 11.8325C9.43369 11.8325 9.43368 11.8325 9.43366 11.8325C9.43365 11.8325 9.43363 11.8325 9.43362 11.8325C9.43361 11.8325 9.43359 11.8325 9.43358 11.8325C9.43357 11.8325 9.43355 11.8325 9.43354 11.8325C9.43352 11.8325 9.43351 11.8325 9.4335 11.8325C9.43348 11.8325 9.43347 11.8325 9.43345 11.8325C9.43344 11.8325 9.43343 11.8325 9.43341 11.8325C9.4334 11.8325 9.43339 11.8325 9.43337 11.8325C9.43336 11.8325 9.43334 11.8325 9.43333 11.8325C9.43332 11.8325 9.4333 11.8325 9.43329 11.8325C9.43327 11.8325 9.43326 11.8325 9.43325 11.8325C9.43323 11.8325 9.43322 11.8325 9.4332 11.8325C9.43319 11.8325 9.43318 11.8325 9.43316 11.8325C9.43315 11.8325 9.43314 11.8325 9.43312 11.8325C9.43311 11.8325 9.43309 11.8325 9.43308 11.8325C9.43307 11.8325 9.43305 11.8325 9.43304 11.8325C9.43302 11.8325 9.43301 11.8325 9.433 11.8325C9.43298 11.8325 9.43297 11.8325 9.43295 11.8325C9.43294 11.8325 9.43293 11.8325 9.43291 11.8325C9.4329 11.8325 9.43288 11.8325 9.43287 11.8325C9.43286 11.8325 9.43284 11.8325 9.43283 11.8325C9.43281 11.8325 9.4328 11.8325 9.43279 11.8325C9.43277 11.8325 9.43276 11.8325 9.43274 11.8325C9.43273 11.8325 9.43272 11.8325 9.4327 11.8325C9.43269 11.8325 9.43267 11.8325 9.43266 11.8325C9.43265 11.8325 9.43263 11.8325 9.43262 11.8325C9.4326 11.8325 9.43259 11.8325 9.43258 11.8325C9.43256 11.8325 9.43255 11.8325 9.43253 11.8325C9.43252 11.8325 9.43251 11.8325 9.43249 11.8325C9.43248 11.8325 9.43246 11.8325 9.43245 11.8325C9.43244 11.8325 9.43242 11.8325 9.43241 11.8325C9.43239 11.8325 9.43238 11.8325 9.43237 11.8325C9.43235 11.8325 9.43234 11.8325 9.43232 11.8325C9.43231 11.8325 9.43229 11.8325 9.43228 11.8325C9.43227 11.8325 9.43225 11.8325 9.43224 11.8325C9.43222 11.8325 9.43221 11.8325 9.4322 11.8325C9.43218 11.8325 9.43217 11.8325 9.43215 11.8325C9.43214 11.8325 9.43213 11.8325 9.43211 11.8325C9.4321 11.8325 9.43208 11.8325 9.43207 11.8325C9.43206 11.8325 9.43204 11.8325 9.43203 11.8325C9.43201 11.8325 9.432 11.8325 9.43198 11.8325C9.43197 11.8325 9.43196 11.8325 9.43194 11.8325C9.43193 11.8325 9.43191 11.8325 9.4319 11.8325C9.43189 11.8325 9.43187 11.8325 9.43186 11.8325C9.43184 11.8325 9.43183 11.8325 9.43181 11.8325C9.4318 11.8325 9.43179 11.8325 9.43177 11.8325C9.43176 11.8325 9.43174 11.8325 9.43173 11.8325C9.43172 11.8325 9.4317 11.8325 9.43169 11.8325C9.43167 11.8325 9.43166 11.8325 9.43164 11.8325C9.43163 11.8325 9.43162 11.8325 9.4316 11.8325C9.43159 11.8325 9.43157 11.8325 9.43156 11.8325C9.43155 11.8325 9.43153 11.8325 9.43152 11.8325C9.4315 11.8325 9.43149 11.8325 9.43147 11.8325C9.43146 11.8325 9.43145 11.8325 9.43143 11.8325C9.43142 11.8325 9.4314 11.8325 9.43139 11.8325C9.43137 11.8325 9.43136 11.8325 9.43135 11.8325C9.43133 11.8325 9.43132 11.8325 9.4313 11.8325C9.43129 11.8325 9.43127 11.8325 9.43126 11.8325C9.43125 11.8325 9.43123 11.8325 9.43122 11.8325C9.4312 11.8325 9.43119 11.8325 9.43117 11.8325C9.43116 11.8325 9.43115 11.8325 9.43113 11.8325C9.43112 11.8325 9.4311 11.8325 9.43109 11.8325C9.43107 11.8325 9.43106 11.8325 9.43105 11.8325C9.43103 11.8325 9.43102 11.8325 9.431 11.8325C9.43099 11.8325 9.43097 11.8325 9.43096 11.8325C9.43095 11.8325 9.43093 11.8325 9.43092 11.8325C9.4309 11.8325 9.43089 11.8325 9.43087 11.8325C9.43086 11.8325 9.43085 11.8325 9.43083 11.8325C9.43082 11.8325 9.4308 11.8325 9.43079 11.8325C9.43077 11.8325 9.43076 11.8325 9.43075 11.8325C9.43073 11.8325 9.43072 11.8325 9.4307 11.8325C9.43069 11.8325 9.43067 11.8325 9.43066 11.8325C9.43065 11.8325 9.43063 11.8325 9.43062 11.8325C9.4306 11.8325 9.43059 11.8325 9.43057 11.8325C9.43056 11.8325 9.43054 11.8325 9.43053 11.8325C9.43052 11.8325 9.4305 11.8325 9.43049 11.8325C9.43047 11.8325 9.43046 11.8325 9.43044 11.8325C9.43043 11.8325 9.43042 11.8325 9.4304 11.8325C9.43039 11.8325 9.43037 11.8325 9.43036 11.8325C9.43034 11.8325 9.43033 11.8325 9.43031 11.8325C9.4303 11.8325 9.43029 11.8325 9.43027 11.8325C9.43026 11.8325 9.43024 11.8325 9.43023 11.8325C9.43021 11.8325 9.4302 11.8325 9.43018 11.8325C9.43017 11.8325 9.43016 11.8325 9.43014 11.8325C9.43013 11.8325 9.43011 11.8325 9.4301 11.8325C9.43008 11.8325 9.43007 11.8325 9.43005 11.8325C9.43004 11.8325 9.43003 11.8325 9.43001 11.8325C9.43 11.8325 9.42998 11.8325 9.42997 11.8325C9.42995 11.8325 9.42994 11.8325 9.42993 11.8325C9.42991 11.8325 9.4299 11.8325 9.42988 11.8325C9.42987 11.8325 9.42985 11.8325 9.42984 11.8325C9.42982 11.8325 9.42981 11.8325 9.42979 11.8325C9.42978 11.8325 9.42977 11.8325 9.42975 11.8325C9.42974 11.8325 9.42972 11.8325 9.42971 11.8325C9.42969 11.8325 9.42968 11.8325 9.42966 11.8325C9.42965 11.8325 9.42964 11.8325 9.42962 11.8325C9.42961 11.8325 9.42959 11.8325 9.42958 11.8325C9.42956 11.8325 9.42955 11.8325 9.42953 11.8325C9.42952 11.8325 9.42951 11.8325 9.42949 11.8325C9.42948 11.8325 9.42946 11.8325 9.42945 11.8325C9.42943 11.8325 9.42942 11.8325 9.4294 11.8325C9.42939 11.8325 9.42937 11.8325 9.42936 11.8325C9.42935 11.8325 9.42933 11.8325 9.42932 11.8325C9.4293 11.8325 9.42929 11.8325 9.42927 11.8325C9.42926 11.8325 9.42924 11.8325 9.42923 11.8325C9.42921 11.8325 9.4292 11.8325 9.42919 11.8325C9.42917 11.8325 9.42916 11.8325 9.42914 11.8325C9.42913 11.8325 9.42911 11.8325 9.4291 11.8325C9.42908 11.8325 9.42907 11.8325 9.42905 11.8325C9.42904 11.8325 9.42903 11.8325 9.42901 11.8325C9.429 11.8325 9.42898 11.8325 9.42897 11.8325C9.42895 11.8325 9.42894 11.8325 9.42892 11.8325C9.42891 11.8325 9.42889 11.8325 9.42888 11.8325C9.42887 11.8325 9.42885 11.8325 9.42884 11.8325C9.42882 11.8325 9.42881 11.8325 9.42879 11.8325C9.42878 11.8325 9.42876 11.8325 9.42875 11.8325C9.42873 11.8325 9.42872 11.8325 9.4287 11.8325C9.42869 11.8325 9.42868 11.8325 9.42866 11.8325C9.42865 11.8325 9.42863 11.8325 9.42862 11.8325C9.4286 11.8325 9.42859 11.8325 9.42857 11.8325C9.42856 11.8325 9.42854 11.8325 9.42853 11.8325C9.42851 11.8325 9.4285 11.8325 9.42849 11.8325C9.42847 11.8325 9.42846 11.8325 9.42844 11.8325C9.42843 11.8325 9.42841 11.8325 9.4284 11.8325C9.42838 11.8325 9.42837 11.8325 9.42835 11.8325C9.42834 11.8325 9.42832 11.8325 9.42831 11.8325C9.4283 11.8325 9.42828 11.8325 9.42827 11.8325C9.42825 11.8325 9.42824 11.8325 9.42822 11.8325C9.42821 11.8325 9.42819 11.8325 9.42818 11.8325C9.42816 11.8325 9.42815 11.8325 9.42813 11.8325C9.42812 11.8325 9.42811 11.8325 9.42809 11.8325C9.42808 11.8325 9.42806 11.8325 9.42805 11.8325C9.42803 11.8325 9.42802 11.8325 9.428 11.8325C9.42799 11.8325 9.42797 11.8325 9.42796 11.8325C9.42794 11.8325 9.42793 11.8325 9.42791 11.8325C9.4279 11.8325 9.42789 11.8325 9.42787 11.8325C9.42786 11.8325 9.42784 11.8325 9.42783 11.8325C9.42781 11.8325 9.4278 11.8325 9.42778 11.8325C9.42777 11.8325 9.42775 11.8325 9.42774 11.8325C9.42772 11.8325 9.42771 11.8325 9.42769 11.8325C9.42768 11.8325 9.42767 11.8325 9.42765 11.8325C9.42764 11.8325 9.42762 11.8325 9.42761 11.8325C9.42759 11.8325 9.42758 11.8325 9.42756 11.8325C9.42755 11.8325 9.42753 11.8325 9.42752 11.8325C9.4275 11.8325 9.42749 11.8325 9.42747 11.8325C9.42746 11.8325 9.42744 11.8325 9.42743 11.8325C9.42742 11.8325 9.4274 11.8325 9.42739 11.8325C9.42737 11.8325 9.42736 11.8325 9.42734 11.8325C9.42733 11.8325 9.42731 11.8325 9.4273 11.8325C9.42728 11.8325 9.42727 11.8325 9.42725 11.8325C9.42724 11.8325 9.42722 11.8325 9.42721 11.8325C9.42719 11.8325 9.42718 11.8325 9.42716 11.8325C9.42715 11.8325 9.42714 11.8325 9.42712 11.8325C9.42711 11.8325 9.42709 11.8325 9.42708 11.8325C9.42706 11.8325 9.42705 11.8325 9.42703 11.8325C9.42702 11.8325 9.427 11.8325 9.42699 11.8325C9.42697 11.8325 9.42696 11.8325 9.42694 11.8325C9.42693 11.8325 9.42691 11.8325 9.4269 11.8325C9.42688 11.8325 9.42687 11.8325 9.42686 11.8325C9.42684 11.8325 9.42683 11.8325 9.42681 11.8325C9.4268 11.8325 9.42678 11.8325 9.42677 11.8325C9.42675 11.8325 9.42674 11.8325 9.42672 11.8325C9.42671 11.8325 9.42669 11.8325 9.42668 11.8325C9.42666 11.8325 9.42665 11.8325 9.42663 11.8325C9.42662 11.8325 9.4266 11.8325 9.42659 11.8325C9.42657 11.8325 9.42656 11.8325 9.42655 11.8325C9.42653 11.8325 9.42652 11.8325 9.4265 11.8325C9.42649 11.8325 9.42647 11.8325 9.42646 11.8325C9.42644 11.8325 9.42643 11.8325 9.42641 11.8325C9.4264 11.8325 9.42638 11.8325 9.42637 11.8325C9.42635 11.8325 9.42634 11.8325 9.42632 11.8325C9.42631 11.8325 9.42629 11.8325 9.42628 11.8325C9.42626 11.8325 9.42625 11.8325 9.42623 11.8325C9.42622 11.8325 9.42621 11.8325 9.42619 11.8325C9.42618 11.8325 9.42616 11.8325 9.42615 11.8325C9.42613 11.8325 9.42612 11.8325 9.4261 11.8325C9.42609 11.8325 9.42607 11.8325 9.42606 11.8325C9.42604 11.8325 9.42603 11.8325 9.42601 11.8325C9.426 11.8325 9.42598 11.8325 9.42597 11.8325C9.42595 11.8325 9.42594 11.8325 9.42592 11.8325C9.42591 11.8325 9.42589 11.8325 9.42588 11.8325C9.42586 11.8325 9.42585 11.8325 9.42584 11.8325C9.42582 11.8325 9.42581 11.8325 9.42579 11.8325C9.42578 11.8325 9.42576 11.8325 9.42575 11.8325C9.42573 11.8325 9.42572 11.8325 9.4257 11.8325C9.42569 11.8325 9.42567 11.8325 9.42566 11.8325C9.42564 11.8325 9.42563 11.8325 9.42561 11.8325C9.4256 11.8325 9.42558 11.8325 9.42557 11.8325C9.42555 11.8325 9.42554 11.8325 9.42552 11.8325C9.42551 11.8325 9.42549 11.8325 9.42548 11.8325C9.42546 11.8325 9.42545 11.8325 9.42543 11.8325C9.42542 11.8325 9.42541 11.8325 9.42539 11.8325C9.42538 11.8325 9.42536 11.8325 9.42535 11.8325C9.42533 11.8325 9.42532 11.8325 9.4253 11.8325C9.42529 11.8325 9.42527 11.8325 9.42526 11.8325C9.42524 11.8325 9.42523 11.8325 9.42521 11.8325C9.4252 11.8325 9.42518 11.8325 9.42517 11.8325C9.42515 11.8325 9.42514 11.8325 9.42512 11.8325C9.42511 11.8325 9.42509 11.8325 9.42508 11.8325C9.42506 11.8325 9.42505 11.8325 9.42503 11.8325C9.42502 11.8325 9.425 11.8325 9.42499 11.8325C9.42497 11.8325 9.42496 11.8325 9.42495 11.8325C9.42493 11.8325 9.42492 11.8325 9.4249 11.8325C9.42489 11.8325 9.42487 11.8325 9.42486 11.8325C9.42484 11.8325 9.42483 11.8325 9.42481 11.8325C9.4248 11.8325 9.42478 11.8325 9.42477 11.8325C9.42475 11.8325 9.42474 11.8325 9.42472 11.8325C9.42471 11.8325 9.42469 11.8325 9.42468 11.8325C9.42466 11.8325 9.42465 11.8325 9.42463 11.8325C9.42462 11.8325 9.4246 11.8325 9.42459 11.8325C9.42457 11.8325 9.42456 11.8325 9.42454 11.8325C9.42453 11.8325 9.42451 11.8325 9.4245 11.8325C9.42448 11.8325 9.42447 11.8325 9.42445 11.8325C9.42444 11.8325 9.42443 11.8325 9.42441 11.8325C9.4244 11.8325 9.42438 11.8325 9.42437 11.8325C9.42435 11.8325 9.42434 11.8325 9.42432 11.8325C9.42431 11.8325 9.42429 11.8325 9.42428 11.8325C9.42426 11.8325 9.42425 11.8325 9.42423 11.8325C9.42422 11.8325 9.4242 11.8325 9.42419 11.8325C9.42417 11.8325 9.42416 11.8325 9.42414 11.8325C9.42413 11.8325 9.42411 11.8325 9.4241 11.8325C9.42408 11.8325 9.42407 11.8325 9.42405 11.8325C9.42404 11.8325 9.42402 11.8325 9.42401 11.8325C9.42399 11.8325 9.42398 11.8325 9.42396 11.8325C9.42395 11.8325 9.42393 11.8325 9.42392 11.8325C9.4239 11.8325 9.42389 11.8325 9.42388 11.8325C9.42386 11.8325 9.42385 11.8325 9.42383 11.8325C9.42382 11.8325 9.4238 11.8325 9.42379 11.8325C9.42377 11.8325 9.42376 11.8325 9.42374 11.8325C9.42373 11.8325 9.42371 11.8325 9.4237 11.8325C9.42368 11.8325 9.42367 11.8325 9.42365 11.8325C9.42364 11.8325 9.42362 11.8325 9.42361 11.8325C9.42359 11.8325 9.42358 11.8325 9.42356 11.8325C9.42355 11.8325 9.42353 11.8325 9.42352 11.8325C9.4235 11.8325 9.42349 11.8325 9.42347 11.8325C9.42346 11.8325 9.42344 11.8325 9.42343 11.8325C9.42341 11.8325 9.4234 11.8325 9.42338 11.8325C9.42337 11.8325 9.42335 11.8325 9.42334 11.8325V12.8325C9.42335 12.8325 9.42337 12.8325 9.42338 12.8325C9.4234 12.8325 9.42341 12.8325 9.42343 12.8325C9.42344 12.8325 9.42346 12.8325 9.42347 12.8325C9.42349 12.8325 9.4235 12.8325 9.42352 12.8325C9.42353 12.8325 9.42355 12.8325 9.42356 12.8325C9.42358 12.8325 9.42359 12.8325 9.42361 12.8325C9.42362 12.8325 9.42364 12.8325 9.42365 12.8325C9.42367 12.8325 9.42368 12.8325 9.4237 12.8325C9.42371 12.8325 9.42373 12.8325 9.42374 12.8325C9.42376 12.8325 9.42377 12.8325 9.42379 12.8325C9.4238 12.8325 9.42382 12.8325 9.42383 12.8325C9.42385 12.8325 9.42386 12.8325 9.42388 12.8325C9.42389 12.8325 9.4239 12.8325 9.42392 12.8325C9.42393 12.8325 9.42395 12.8325 9.42396 12.8325C9.42398 12.8325 9.42399 12.8325 9.42401 12.8325C9.42402 12.8325 9.42404 12.8325 9.42405 12.8325C9.42407 12.8325 9.42408 12.8325 9.4241 12.8325C9.42411 12.8325 9.42413 12.8325 9.42414 12.8325C9.42416 12.8325 9.42417 12.8325 9.42419 12.8325C9.4242 12.8325 9.42422 12.8325 9.42423 12.8325C9.42425 12.8325 9.42426 12.8325 9.42428 12.8325C9.42429 12.8325 9.42431 12.8325 9.42432 12.8325C9.42434 12.8325 9.42435 12.8325 9.42437 12.8325C9.42438 12.8325 9.4244 12.8325 9.42441 12.8325C9.42443 12.8325 9.42444 12.8325 9.42445 12.8325C9.42447 12.8325 9.42448 12.8325 9.4245 12.8325C9.42451 12.8325 9.42453 12.8325 9.42454 12.8325C9.42456 12.8325 9.42457 12.8325 9.42459 12.8325C9.4246 12.8325 9.42462 12.8325 9.42463 12.8325C9.42465 12.8325 9.42466 12.8325 9.42468 12.8325C9.42469 12.8325 9.42471 12.8325 9.42472 12.8325C9.42474 12.8325 9.42475 12.8325 9.42477 12.8325C9.42478 12.8325 9.4248 12.8325 9.42481 12.8325C9.42483 12.8325 9.42484 12.8325 9.42486 12.8325C9.42487 12.8325 9.42489 12.8325 9.4249 12.8325C9.42492 12.8325 9.42493 12.8325 9.42495 12.8325C9.42496 12.8325 9.42497 12.8325 9.42499 12.8325C9.425 12.8325 9.42502 12.8325 9.42503 12.8325C9.42505 12.8325 9.42506 12.8325 9.42508 12.8325C9.42509 12.8325 9.42511 12.8325 9.42512 12.8325C9.42514 12.8325 9.42515 12.8325 9.42517 12.8325C9.42518 12.8325 9.4252 12.8325 9.42521 12.8325C9.42523 12.8325 9.42524 12.8325 9.42526 12.8325C9.42527 12.8325 9.42529 12.8325 9.4253 12.8325C9.42532 12.8325 9.42533 12.8325 9.42535 12.8325C9.42536 12.8325 9.42538 12.8325 9.42539 12.8325C9.42541 12.8325 9.42542 12.8325 9.42543 12.8325C9.42545 12.8325 9.42546 12.8325 9.42548 12.8325C9.42549 12.8325 9.42551 12.8325 9.42552 12.8325C9.42554 12.8325 9.42555 12.8325 9.42557 12.8325C9.42558 12.8325 9.4256 12.8325 9.42561 12.8325C9.42563 12.8325 9.42564 12.8325 9.42566 12.8325C9.42567 12.8325 9.42569 12.8325 9.4257 12.8325C9.42572 12.8325 9.42573 12.8325 9.42575 12.8325C9.42576 12.8325 9.42578 12.8325 9.42579 12.8325C9.42581 12.8325 9.42582 12.8325 9.42584 12.8325C9.42585 12.8325 9.42586 12.8325 9.42588 12.8325C9.42589 12.8325 9.42591 12.8325 9.42592 12.8325C9.42594 12.8325 9.42595 12.8325 9.42597 12.8325C9.42598 12.8325 9.426 12.8325 9.42601 12.8325C9.42603 12.8325 9.42604 12.8325 9.42606 12.8325C9.42607 12.8325 9.42609 12.8325 9.4261 12.8325C9.42612 12.8325 9.42613 12.8325 9.42615 12.8325C9.42616 12.8325 9.42618 12.8325 9.42619 12.8325C9.42621 12.8325 9.42622 12.8325 9.42623 12.8325C9.42625 12.8325 9.42626 12.8325 9.42628 12.8325C9.42629 12.8325 9.42631 12.8325 9.42632 12.8325C9.42634 12.8325 9.42635 12.8325 9.42637 12.8325C9.42638 12.8325 9.4264 12.8325 9.42641 12.8325C9.42643 12.8325 9.42644 12.8325 9.42646 12.8325C9.42647 12.8325 9.42649 12.8325 9.4265 12.8325C9.42652 12.8325 9.42653 12.8325 9.42655 12.8325C9.42656 12.8325 9.42657 12.8325 9.42659 12.8325C9.4266 12.8325 9.42662 12.8325 9.42663 12.8325C9.42665 12.8325 9.42666 12.8325 9.42668 12.8325C9.42669 12.8325 9.42671 12.8325 9.42672 12.8325C9.42674 12.8325 9.42675 12.8325 9.42677 12.8325C9.42678 12.8325 9.4268 12.8325 9.42681 12.8325C9.42683 12.8325 9.42684 12.8325 9.42686 12.8325C9.42687 12.8325 9.42688 12.8325 9.4269 12.8325C9.42691 12.8325 9.42693 12.8325 9.42694 12.8325C9.42696 12.8325 9.42697 12.8325 9.42699 12.8325C9.427 12.8325 9.42702 12.8325 9.42703 12.8325C9.42705 12.8325 9.42706 12.8325 9.42708 12.8325C9.42709 12.8325 9.42711 12.8325 9.42712 12.8325C9.42714 12.8325 9.42715 12.8325 9.42716 12.8325C9.42718 12.8325 9.42719 12.8325 9.42721 12.8325C9.42722 12.8325 9.42724 12.8325 9.42725 12.8325C9.42727 12.8325 9.42728 12.8325 9.4273 12.8325C9.42731 12.8325 9.42733 12.8325 9.42734 12.8325C9.42736 12.8325 9.42737 12.8325 9.42739 12.8325C9.4274 12.8325 9.42742 12.8325 9.42743 12.8325C9.42744 12.8325 9.42746 12.8325 9.42747 12.8325C9.42749 12.8325 9.4275 12.8325 9.42752 12.8325C9.42753 12.8325 9.42755 12.8325 9.42756 12.8325C9.42758 12.8325 9.42759 12.8325 9.42761 12.8325C9.42762 12.8325 9.42764 12.8325 9.42765 12.8325C9.42767 12.8325 9.42768 12.8325 9.42769 12.8325C9.42771 12.8325 9.42772 12.8325 9.42774 12.8325C9.42775 12.8325 9.42777 12.8325 9.42778 12.8325C9.4278 12.8325 9.42781 12.8325 9.42783 12.8325C9.42784 12.8325 9.42786 12.8325 9.42787 12.8325C9.42789 12.8325 9.4279 12.8325 9.42791 12.8325C9.42793 12.8325 9.42794 12.8325 9.42796 12.8325C9.42797 12.8325 9.42799 12.8325 9.428 12.8325C9.42802 12.8325 9.42803 12.8325 9.42805 12.8325C9.42806 12.8325 9.42808 12.8325 9.42809 12.8325C9.42811 12.8325 9.42812 12.8325 9.42813 12.8325C9.42815 12.8325 9.42816 12.8325 9.42818 12.8325C9.42819 12.8325 9.42821 12.8325 9.42822 12.8325C9.42824 12.8325 9.42825 12.8325 9.42827 12.8325C9.42828 12.8325 9.4283 12.8325 9.42831 12.8325C9.42832 12.8325 9.42834 12.8325 9.42835 12.8325C9.42837 12.8325 9.42838 12.8325 9.4284 12.8325C9.42841 12.8325 9.42843 12.8325 9.42844 12.8325C9.42846 12.8325 9.42847 12.8325 9.42849 12.8325C9.4285 12.8325 9.42851 12.8325 9.42853 12.8325C9.42854 12.8325 9.42856 12.8325 9.42857 12.8325C9.42859 12.8325 9.4286 12.8325 9.42862 12.8325C9.42863 12.8325 9.42865 12.8325 9.42866 12.8325C9.42868 12.8325 9.42869 12.8325 9.4287 12.8325C9.42872 12.8325 9.42873 12.8325 9.42875 12.8325C9.42876 12.8325 9.42878 12.8325 9.42879 12.8325C9.42881 12.8325 9.42882 12.8325 9.42884 12.8325C9.42885 12.8325 9.42887 12.8325 9.42888 12.8325C9.42889 12.8325 9.42891 12.8325 9.42892 12.8325C9.42894 12.8325 9.42895 12.8325 9.42897 12.8325C9.42898 12.8325 9.429 12.8325 9.42901 12.8325C9.42903 12.8325 9.42904 12.8325 9.42905 12.8325C9.42907 12.8325 9.42908 12.8325 9.4291 12.8325C9.42911 12.8325 9.42913 12.8325 9.42914 12.8325C9.42916 12.8325 9.42917 12.8325 9.42919 12.8325C9.4292 12.8325 9.42921 12.8325 9.42923 12.8325C9.42924 12.8325 9.42926 12.8325 9.42927 12.8325C9.42929 12.8325 9.4293 12.8325 9.42932 12.8325C9.42933 12.8325 9.42935 12.8325 9.42936 12.8325C9.42937 12.8325 9.42939 12.8325 9.4294 12.8325C9.42942 12.8325 9.42943 12.8325 9.42945 12.8325C9.42946 12.8325 9.42948 12.8325 9.42949 12.8325C9.42951 12.8325 9.42952 12.8325 9.42953 12.8325C9.42955 12.8325 9.42956 12.8325 9.42958 12.8325C9.42959 12.8325 9.42961 12.8325 9.42962 12.8325C9.42964 12.8325 9.42965 12.8325 9.42966 12.8325C9.42968 12.8325 9.42969 12.8325 9.42971 12.8325C9.42972 12.8325 9.42974 12.8325 9.42975 12.8325C9.42977 12.8325 9.42978 12.8325 9.42979 12.8325C9.42981 12.8325 9.42982 12.8325 9.42984 12.8325C9.42985 12.8325 9.42987 12.8325 9.42988 12.8325C9.4299 12.8325 9.42991 12.8325 9.42993 12.8325C9.42994 12.8325 9.42995 12.8325 9.42997 12.8325C9.42998 12.8325 9.43 12.8325 9.43001 12.8325C9.43003 12.8325 9.43004 12.8325 9.43005 12.8325C9.43007 12.8325 9.43008 12.8325 9.4301 12.8325C9.43011 12.8325 9.43013 12.8325 9.43014 12.8325C9.43016 12.8325 9.43017 12.8325 9.43018 12.8325C9.4302 12.8325 9.43021 12.8325 9.43023 12.8325C9.43024 12.8325 9.43026 12.8325 9.43027 12.8325C9.43029 12.8325 9.4303 12.8325 9.43031 12.8325C9.43033 12.8325 9.43034 12.8325 9.43036 12.8325C9.43037 12.8325 9.43039 12.8325 9.4304 12.8325C9.43042 12.8325 9.43043 12.8325 9.43044 12.8325C9.43046 12.8325 9.43047 12.8325 9.43049 12.8325C9.4305 12.8325 9.43052 12.8325 9.43053 12.8325C9.43054 12.8325 9.43056 12.8325 9.43057 12.8325C9.43059 12.8325 9.4306 12.8325 9.43062 12.8325C9.43063 12.8325 9.43065 12.8325 9.43066 12.8325C9.43067 12.8325 9.43069 12.8325 9.4307 12.8325C9.43072 12.8325 9.43073 12.8325 9.43075 12.8325C9.43076 12.8325 9.43077 12.8325 9.43079 12.8325C9.4308 12.8325 9.43082 12.8325 9.43083 12.8325C9.43085 12.8325 9.43086 12.8325 9.43087 12.8325C9.43089 12.8325 9.4309 12.8325 9.43092 12.8325C9.43093 12.8325 9.43095 12.8325 9.43096 12.8325C9.43097 12.8325 9.43099 12.8325 9.431 12.8325C9.43102 12.8325 9.43103 12.8325 9.43105 12.8325C9.43106 12.8325 9.43107 12.8325 9.43109 12.8325C9.4311 12.8325 9.43112 12.8325 9.43113 12.8325C9.43115 12.8325 9.43116 12.8325 9.43117 12.8325C9.43119 12.8325 9.4312 12.8325 9.43122 12.8325C9.43123 12.8325 9.43125 12.8325 9.43126 12.8325C9.43127 12.8325 9.43129 12.8325 9.4313 12.8325C9.43132 12.8325 9.43133 12.8325 9.43135 12.8325C9.43136 12.8325 9.43137 12.8325 9.43139 12.8325C9.4314 12.8325 9.43142 12.8325 9.43143 12.8325C9.43145 12.8325 9.43146 12.8325 9.43147 12.8325C9.43149 12.8325 9.4315 12.8325 9.43152 12.8325C9.43153 12.8325 9.43155 12.8325 9.43156 12.8325C9.43157 12.8325 9.43159 12.8325 9.4316 12.8325C9.43162 12.8325 9.43163 12.8325 9.43164 12.8325C9.43166 12.8325 9.43167 12.8325 9.43169 12.8325C9.4317 12.8325 9.43172 12.8325 9.43173 12.8325C9.43174 12.8325 9.43176 12.8325 9.43177 12.8325C9.43179 12.8325 9.4318 12.8325 9.43181 12.8325C9.43183 12.8325 9.43184 12.8325 9.43186 12.8325C9.43187 12.8325 9.43189 12.8325 9.4319 12.8325C9.43191 12.8325 9.43193 12.8325 9.43194 12.8325C9.43196 12.8325 9.43197 12.8325 9.43198 12.8325C9.432 12.8325 9.43201 12.8325 9.43203 12.8325C9.43204 12.8325 9.43206 12.8325 9.43207 12.8325C9.43208 12.8325 9.4321 12.8325 9.43211 12.8325C9.43213 12.8325 9.43214 12.8325 9.43215 12.8325C9.43217 12.8325 9.43218 12.8325 9.4322 12.8325C9.43221 12.8325 9.43222 12.8325 9.43224 12.8325C9.43225 12.8325 9.43227 12.8325 9.43228 12.8325C9.43229 12.8325 9.43231 12.8325 9.43232 12.8325C9.43234 12.8325 9.43235 12.8325 9.43237 12.8325C9.43238 12.8325 9.43239 12.8325 9.43241 12.8325C9.43242 12.8325 9.43244 12.8325 9.43245 12.8325C9.43246 12.8325 9.43248 12.8325 9.43249 12.8325C9.43251 12.8325 9.43252 12.8325 9.43253 12.8325C9.43255 12.8325 9.43256 12.8325 9.43258 12.8325C9.43259 12.8325 9.4326 12.8325 9.43262 12.8325C9.43263 12.8325 9.43265 12.8325 9.43266 12.8325C9.43267 12.8325 9.43269 12.8325 9.4327 12.8325C9.43272 12.8325 9.43273 12.8325 9.43274 12.8325C9.43276 12.8325 9.43277 12.8325 9.43279 12.8325C9.4328 12.8325 9.43281 12.8325 9.43283 12.8325C9.43284 12.8325 9.43286 12.8325 9.43287 12.8325C9.43288 12.8325 9.4329 12.8325 9.43291 12.8325C9.43293 12.8325 9.43294 12.8325 9.43295 12.8325C9.43297 12.8325 9.43298 12.8325 9.433 12.8325C9.43301 12.8325 9.43302 12.8325 9.43304 12.8325C9.43305 12.8325 9.43307 12.8325 9.43308 12.8325C9.43309 12.8325 9.43311 12.8325 9.43312 12.8325C9.43314 12.8325 9.43315 12.8325 9.43316 12.8325C9.43318 12.8325 9.43319 12.8325 9.4332 12.8325C9.43322 12.8325 9.43323 12.8325 9.43325 12.8325C9.43326 12.8325 9.43327 12.8325 9.43329 12.8325C9.4333 12.8325 9.43332 12.8325 9.43333 12.8325C9.43334 12.8325 9.43336 12.8325 9.43337 12.8325C9.43339 12.8325 9.4334 12.8325 9.43341 12.8325C9.43343 12.8325 9.43344 12.8325 9.43345 12.8325C9.43347 12.8325 9.43348 12.8325 9.4335 12.8325C9.43351 12.8325 9.43352 12.8325 9.43354 12.8325C9.43355 12.8325 9.43357 12.8325 9.43358 12.8325C9.43359 12.8325 9.43361 12.8325 9.43362 12.8325C9.43363 12.8325 9.43365 12.8325 9.43366 12.8325C9.43368 12.8325 9.43369 12.8325 9.4337 12.8325C9.43372 12.8325 9.43373 12.8325 9.43374 12.8325C9.43376 12.8325 9.43377 12.8325 9.43379 12.8325C9.4338 12.8325 9.43381 12.8325 9.43383 12.8325C9.43384 12.8325 9.43385 12.8325 9.43387 12.8325C9.43388 12.8325 9.4339 12.8325 9.43391 12.8325C9.43392 12.8325 9.43394 12.8325 9.43395 12.8325C9.43397 12.8325 9.43398 12.8325 9.43399 12.8325C9.43401 12.8325 9.43402 12.8325 9.43403 12.8325C9.43405 12.8325 9.43406 12.8325 9.43407 12.8325C9.43409 12.8325 9.4341 12.8325 9.43412 12.8325C9.43413 12.8325 9.43414 12.8325 9.43416 12.8325C9.43417 12.8325 9.43418 12.8325 9.4342 12.8325C9.43421 12.8325 9.43423 12.8325 9.43424 12.8325C9.43425 12.8325 9.43427 12.8325 9.43428 12.8325C9.43429 12.8325 9.43431 12.8325 9.43432 12.8325C9.43433 12.8325 9.43435 12.8325 9.43436 12.8325C9.43438 12.8325 9.43439 12.8325 9.4344 12.8325C9.43442 12.8325 9.43443 12.8325 9.43444 12.8325C9.43446 12.8325 9.43447 12.8325 9.43448 12.8325C9.4345 12.8325 9.43451 12.8325 9.43453 12.8325C9.43454 12.8325 9.43455 12.8325 9.43457 12.8325C9.43458 12.8325 9.43459 12.8325 9.43461 12.8325C9.43462 12.8325 9.43463 12.8325 9.43465 12.8325C9.43466 12.8325 9.43468 12.8325 9.43469 12.8325C9.4347 12.8325 9.43472 12.8325 9.43473 12.8325C9.43474 12.8325 9.43476 12.8325 9.43477 12.8325C9.43478 12.8325 9.4348 12.8325 9.43481 12.8325C9.43482 12.8325 9.43484 12.8325 9.43485 12.8325C9.43487 12.8325 9.43488 12.8325 9.43489 12.8325C9.43491 12.8325 9.43492 12.8325 9.43493 12.8325C9.43495 12.8325 9.43496 12.8325 9.43497 12.8325C9.43499 12.8325 9.435 12.8325 9.43501 12.8325C9.43503 12.8325 9.43504 12.8325 9.43505 12.8325C9.43507 12.8325 9.43508 12.8325 9.43509 12.8325C9.43511 12.8325 9.43512 12.8325 9.43514 12.8325C9.43515 12.8325 9.43516 12.8325 9.43518 12.8325C9.43519 12.8325 9.4352 12.8325 9.43522 12.8325C9.43523 12.8325 9.43524 12.8325 9.43526 12.8325C9.43527 12.8325 9.43528 12.8325 9.4353 12.8325C9.43531 12.8325 9.43532 12.8325 9.43534 12.8325C9.43535 12.8325 9.43536 12.8325 9.43538 12.8325C9.43539 12.8325 9.4354 12.8325 9.43542 12.8325C9.43543 12.8325 9.43544 12.8325 9.43546 12.8325C9.43547 12.8325 9.43548 12.8325 9.4355 12.8325C9.43551 12.8325 9.43552 12.8325 9.43554 12.8325C9.43555 12.8325 9.43556 12.8325 9.43558 12.8325C9.43559 12.8325 9.4356 12.8325 9.43562 12.8325C9.43563 12.8325 9.43564 12.8325 9.43566 12.8325C9.43567 12.8325 9.43568 12.8325 9.4357 12.8325C9.43571 12.8325 9.43572 12.8325 9.43574 12.8325C9.43575 12.8325 9.43576 12.8325 9.43578 12.8325C9.43579 12.8325 9.4358 12.8325 9.43582 12.8325C9.43583 12.8325 9.43584 12.8325 9.43586 12.8325C9.43587 12.8325 9.43588 12.8325 9.4359 12.8325C9.43591 12.8325 9.43592 12.8325 9.43594 12.8325C9.43595 12.8325 9.43596 12.8325 9.43598 12.8325C9.43599 12.8325 9.436 12.8325 9.43602 12.8325C9.43603 12.8325 9.43604 12.8325 9.43606 12.8325C9.43607 12.8325 9.43608 12.8325 9.4361 12.8325C9.43611 12.8325 9.43612 12.8325 9.43613 12.8325C9.43615 12.8325 9.43616 12.8325 9.43617 12.8325C9.43619 12.8325 9.4362 12.8325 9.43621 12.8325C9.43623 12.8325 9.43624 12.8325 9.43625 12.8325C9.43627 12.8325 9.43628 12.8325 9.43629 12.8325C9.43631 12.8325 9.43632 12.8325 9.43633 12.8325C9.43635 12.8325 9.43636 12.8325 9.43637 12.8325C9.43638 12.8325 9.4364 12.8325 9.43641 12.8325C9.43642 12.8325 9.43644 12.8325 9.43645 12.8325C9.43646 12.8325 9.43648 12.8325 9.43649 12.8325C9.4365 12.8325 9.43652 12.8325 9.43653 12.8325C9.43654 12.8325 9.43655 12.8325 9.43657 12.8325C9.43658 12.8325 9.43659 12.8325 9.43661 12.8325C9.43662 12.8325 9.43663 12.8325 9.43665 12.8325C9.43666 12.8325 9.43667 12.8325 9.43669 12.8325C9.4367 12.8325 9.43671 12.8325 9.43672 12.8325C9.43674 12.8325 9.43675 12.8325 9.43676 12.8325C9.43678 12.8325 9.43679 12.8325 9.4368 12.8325C9.43682 12.8325 9.43683 12.8325 9.43684 12.8325C9.43685 12.8325 9.43687 12.8325 9.43688 12.8325C9.43689 12.8325 9.43691 12.8325 9.43692 12.8325C9.43693 12.8325 9.43695 12.8325 9.43696 12.8325C9.43697 12.8325 9.43698 12.8325 9.437 12.8325C9.43701 12.8325 9.43702 12.8325 9.43704 12.8325C9.43705 12.8325 9.43706 12.8325 9.43707 12.8325C9.43709 12.8325 9.4371 12.8325 9.43711 12.8325C9.43713 12.8325 9.43714 12.8325 9.43715 12.8325C9.43716 12.8325 9.43718 12.8325 9.43719 12.8325C9.4372 12.8325 9.43722 12.8325 9.43723 12.8325C9.43724 12.8325 9.43725 12.8325 9.43727 12.8325C9.43728 12.8325 9.43729 12.8325 9.43731 12.8325C9.43732 12.8325 9.43733 12.8325 9.43734 12.8325C9.43736 12.8325 9.43737 12.8325 9.43738 12.8325C9.4374 12.8325 9.43741 12.8325 9.43742 12.8325C9.43743 12.8325 9.43745 12.8325 9.43746 12.8325C9.43747 12.8325 9.43749 12.8325 9.4375 12.8325C9.43751 12.8325 9.43752 12.8325 9.43754 12.8325C9.43755 12.8325 9.43756 12.8325 9.43757 12.8325C9.43759 12.8325 9.4376 12.8325 9.43761 12.8325C9.43763 12.8325 9.43764 12.8325 9.43765 12.8325C9.43766 12.8325 9.43768 12.8325 9.43769 12.8325C9.4377 12.8325 9.43771 12.8325 9.43773 12.8325C9.43774 12.8325 9.43775 12.8325 9.43777 12.8325C9.43778 12.8325 9.43779 12.8325 9.4378 12.8325C9.43782 12.8325 9.43783 12.8325 9.43784 12.8325C9.43785 12.8325 9.43787 12.8325 9.43788 12.8325C9.43789 12.8325 9.43791 12.8325 9.43792 12.8325C9.43793 12.8325 9.43794 12.8325 9.43796 12.8325C9.43797 12.8325 9.43798 12.8325 9.43799 12.8325C9.43801 12.8325 9.43802 12.8325 9.43803 12.8325C9.43804 12.8325 9.43806 12.8325 9.43807 12.8325C9.43808 12.8325 9.43809 12.8325 9.43811 12.8325C9.43812 12.8325 9.43813 12.8325 9.43814 12.8325C9.43816 12.8325 9.43817 12.8325 9.43818 12.8325C9.43819 12.8325 9.43821 12.8325 9.43822 12.8325C9.43823 12.8325 9.43824 12.8325 9.43826 12.8325C9.43827 12.8325 9.43828 12.8325 9.43829 12.8325C9.43831 12.8325 9.43832 12.8325 9.43833 12.8325C9.43834 12.8325 9.43836 12.8325 9.43837 12.8325C9.43838 12.8325 9.43839 12.8325 9.43841 12.8325C9.43842 12.8325 9.43843 12.8325 9.43844 12.8325C9.43846 12.8325 9.43847 12.8325 9.43848 12.8325C9.43849 12.8325 9.43851 12.8325 9.43852 12.8325C9.43853 12.8325 9.43854 12.8325 9.43856 12.8325C9.43857 12.8325 9.43858 12.8325 9.43859 12.8325C9.43861 12.8325 9.43862 12.8325 9.43863 12.8325C9.43864 12.8325 9.43866 12.8325 9.43867 12.8325C9.43868 12.8325 9.43869 12.8325 9.4387 12.8325C9.43872 12.8325 9.43873 12.8325 9.43874 12.8325C9.43875 12.8325 9.43877 12.8325 9.43878 12.8325C9.43879 12.8325 9.4388 12.8325 9.43882 12.8325C9.43883 12.8325 9.43884 12.8325 9.43885 12.8325C9.43886 12.8325 9.43888 12.8325 9.43889 12.8325C9.4389 12.8325 9.43891 12.8325 9.43893 12.8325C9.43894 12.8325 9.43895 12.8325 9.43896 12.8325C9.43898 12.8325 9.43899 12.8325 9.439 12.8325C9.43901 12.8325 9.43902 12.8325 9.43904 12.8325C9.43905 12.8325 9.43906 12.8325 9.43907 12.8325C9.43909 12.8325 9.4391 12.8325 9.43911 12.8325C9.43912 12.8325 9.43913 12.8325 9.43915 12.8325C9.43916 12.8325 9.43917 12.8325 9.43918 12.8325C9.4392 12.8325 9.43921 12.8325 9.43922 12.8325C9.43923 12.8325 9.43924 12.8325 9.43926 12.8325C9.43927 12.8325 9.43928 12.8325 9.43929 12.8325C9.4393 12.8325 9.43932 12.8325 9.43933 12.8325C9.43934 12.8325 9.43935 12.8325 9.43936 12.8325C9.43938 12.8325 9.43939 12.8325 9.4394 12.8325C9.43941 12.8325 9.43943 12.8325 9.43944 12.8325C9.43945 12.8325 9.43946 12.8325 9.43947 12.8325C9.43949 12.8325 9.4395 12.8325 9.43951 12.8325C9.43952 12.8325 9.43953 12.8325 9.43955 12.8325C9.43956 12.8325 9.43957 12.8325 9.43958 12.8325C9.43959 12.8325 9.43961 12.8325 9.43962 12.8325C9.43963 12.8325 9.43964 12.8325 9.43965 12.8325C9.43967 12.8325 9.43968 12.8325 9.43969 12.8325C9.4397 12.8325 9.43971 12.8325 9.43973 12.8325C9.43974 12.8325 9.43975 12.8325 9.43976 12.8325C9.43977 12.8325 9.43979 12.8325 9.4398 12.8325C9.43981 12.8325 9.43982 12.8325 9.43983 12.8325C9.43984 12.8325 9.43986 12.8325 9.43987 12.8325C9.43988 12.8325 9.43989 12.8325 9.4399 12.8325C9.43992 12.8325 9.43993 12.8325 9.43994 12.8325C9.43995 12.8325 9.43996 12.8325 9.43998 12.8325C9.43999 12.8325 9.44 12.8325 9.44001 12.8325C9.44002 12.8325 9.44003 12.8325 9.44005 12.8325C9.44006 12.8325 9.44007 12.8325 9.44008 12.8325C9.44009 12.8325 9.44011 12.8325 9.44012 12.8325C9.44013 12.8325 9.44014 12.8325 9.44015 12.8325C9.44016 12.8325 9.44018 12.8325 9.44019 12.8325C9.4402 12.8325 9.44021 12.8325 9.44022 12.8325C9.44023 12.8325 9.44025 12.8325 9.44026 12.8325C9.44027 12.8325 9.44028 12.8325 9.44029 12.8325C9.44031 12.8325 9.44032 12.8325 9.44033 12.8325C9.44034 12.8325 9.44035 12.8325 9.44036 12.8325C9.44038 12.8325 9.44039 12.8325 9.4404 12.8325C9.44041 12.8325 9.44042 12.8325 9.44043 12.8325C9.44045 12.8325 9.44046 12.8325 9.44047 12.8325C9.44048 12.8325 9.44049 12.8325 9.4405 12.8325C9.44052 12.8325 9.44053 12.8325 9.44054 12.8325C9.44055 12.8325 9.44056 12.8325 9.44057 12.8325C9.44058 12.8325 9.4406 12.8325 9.44061 12.8325C9.44062 12.8325 9.44063 12.8325 9.44064 12.8325C9.44065 12.8325 9.44067 12.8325 9.44068 12.8325C9.44069 12.8325 9.4407 12.8325 9.44071 12.8325C9.44072 12.8325 9.44073 12.8325 9.44075 12.8325C9.44076 12.8325 9.44077 12.8325 9.44078 12.8325C9.44079 12.8325 9.4408 12.8325 9.44082 12.8325C9.44083 12.8325 9.44084 12.8325 9.44085 12.8325C9.44086 12.8325 9.44087 12.8325 9.44088 12.8325C9.4409 12.8325 9.44091 12.8325 9.44092 12.8325C9.44093 12.8325 9.44094 12.8325 9.44095 12.8325C9.44096 12.8325 9.44098 12.8325 9.44099 12.8325C9.441 12.8325 9.44101 12.8325 9.44102 12.8325C9.44103 12.8325 9.44104 12.8325 9.44105 12.8325C9.44107 12.8325 9.44108 12.8325 9.44109 12.8325C9.4411 12.8325 9.44111 12.8325 9.44112 12.8325C9.44113 12.8325 9.44115 12.8325 9.44116 12.8325C9.44117 12.8325 9.44118 12.8325 9.44119 12.8325C9.4412 12.8325 9.44121 12.8325 9.44122 12.8325C9.44124 12.8325 9.44125 12.8325 9.44126 12.8325C9.44127 12.8325 9.44128 12.8325 9.44129 12.8325C9.4413 12.8325 9.44131 12.8325 9.44133 12.8325C9.44134 12.8325 9.44135 12.8325 9.44136 12.8325C9.44137 12.8325 9.44138 12.8325 9.44139 12.8325C9.4414 12.8325 9.44142 12.8325 9.44143 12.8325C9.44144 12.8325 9.44145 12.8325 9.44146 12.8325C9.44147 12.8325 9.44148 12.8325 9.44149 12.8325C9.4415 12.8325 9.44152 12.8325 9.44153 12.8325C9.44154 12.8325 9.44155 12.8325 9.44156 12.8325C9.44157 12.8325 9.44158 12.8325 9.44159 12.8325C9.4416 12.8325 9.44162 12.8325 9.44163 12.8325C9.44164 12.8325 9.44165 12.8325 9.44166 12.8325C9.44167 12.8325 9.44168 12.8325 9.44169 12.8325C9.4417 12.8325 9.44172 12.8325 9.44173 12.8325C9.44174 12.8325 9.44175 12.8325 9.44176 12.8325C9.44177 12.8325 9.44178 12.8325 9.44179 12.8325C9.4418 12.8325 9.44181 12.8325 9.44183 12.8325C9.44184 12.8325 9.44185 12.8325 9.44186 12.8325C9.44187 12.8325 9.44188 12.8325 9.44189 12.8325C9.4419 12.8325 9.44191 12.8325 9.44192 12.8325C9.44193 12.8325 9.44195 12.8325 9.44196 12.8325C9.44197 12.8325 9.44198 12.8325 9.44199 12.8325C9.442 12.8325 9.44201 12.8325 9.44202 12.8325C9.44203 12.8325 9.44204 12.8325 9.44205 12.8325C9.44207 12.8325 9.44208 12.8325 9.44209 12.8325C9.4421 12.8325 9.44211 12.8325 9.44212 12.8325C9.44213 12.8325 9.44214 12.8325 9.44215 12.8325C9.44216 12.8325 9.44217 12.8325 9.44218 12.8325C9.4422 12.8325 9.44221 12.8325 9.44222 12.8325C9.44223 12.8325 9.44224 12.8325 9.44225 12.8325C9.44226 12.8325 9.44227 12.8325 9.44228 12.8325C9.44229 12.8325 9.4423 12.8325 9.44231 12.8325C9.44232 12.8325 9.44233 12.8325 9.44235 12.8325C9.44236 12.8325 9.44237 12.8325 9.44238 12.8325C9.44239 12.8325 9.4424 12.8325 9.44241 12.8325C9.44242 12.8325 9.44243 12.8325 9.44244 12.8325C9.44245 12.8325 9.44246 12.8325 9.44247 12.8325C9.44248 12.8325 9.44249 12.8325 9.44251 12.8325C9.44252 12.8325 9.44253 12.8325 9.44254 12.8325C9.44255 12.8325 9.44256 12.8325 9.44257 12.8325C9.44258 12.8325 9.44259 12.8325 9.4426 12.8325C9.44261 12.8325 9.44262 12.8325 9.44263 12.8325C9.44264 12.8325 9.44265 12.8325 9.44266 12.8325C9.44267 12.8325 9.44268 12.8325 9.4427 12.8325C9.44271 12.8325 9.44272 12.8325 9.44273 12.8325C9.44274 12.8325 9.44275 12.8325 9.44276 12.8325C9.44277 12.8325 9.44278 12.8325 9.44279 12.8325C9.4428 12.8325 9.44281 12.8325 9.44282 12.8325C9.44283 12.8325 9.44284 12.8325 9.44285 12.8325C9.44286 12.8325 9.44287 12.8325 9.44288 12.8325C9.44289 12.8325 9.4429 12.8325 9.44291 12.8325C9.44292 12.8325 9.44294 12.8325 9.44295 12.8325C9.44296 12.8325 9.44297 12.8325 9.44298 12.8325C9.44299 12.8325 9.443 12.8325 9.44301 12.8325C9.44302 12.8325 9.44303 12.8325 9.44304 12.8325C9.44305 12.8325 9.44306 12.8325 9.44307 12.8325C9.44308 12.8325 9.44309 12.8325 9.4431 12.8325C9.44311 12.8325 9.44312 12.8325 9.44313 12.8325C9.44314 12.8325 9.44315 12.8325 9.44316 12.8325C9.44317 12.8325 9.44318 12.8325 9.44319 12.8325C9.4432 12.8325 9.44321 12.8325 9.44322 12.8325C9.44323 12.8325 9.44324 12.8325 9.44325 12.8325C9.44326 12.8325 9.44327 12.8325 9.44328 12.8325C9.44329 12.8325 9.4433 12.8325 9.44331 12.8325C9.44332 12.8325 9.44333 12.8325 9.44334 12.8325C9.44335 12.8325 9.44336 12.8325 9.44337 12.8325C9.44338 12.8325 9.44339 12.8325 9.4434 12.8325C9.44341 12.8325 9.44343 12.8325 9.44344 12.8325C9.44345 12.8325 9.44346 12.8325 9.44347 12.8325C9.44348 12.8325 9.44349 12.8325 9.4435 12.8325C9.44351 12.8325 9.44352 12.8325 9.44353 12.8325C9.44354 12.8325 9.44355 12.8325 9.44356 12.8325C9.44357 12.8325 9.44358 12.8325 9.44359 12.8325C9.4436 12.8325 9.4436 12.8325 9.44361 12.8325C9.44362 12.8325 9.44363 12.8325 9.44364 12.8325V11.8325ZM9.64695 12.7797C9.74433 12.731 9.80803 12.7038 9.86199 12.69L9.61416 11.7212C9.44983 11.7632 9.3054 11.8324 9.19973 11.8853L9.64695 12.7797ZM10.0916 12.5592L10.0941 12.5567L9.38712 11.8494L9.38459 11.852L10.0916 12.5592Z" fill="black" mask="url(#path-9-inside-3_1189_5550)"/>
<mask id="path-11-inside-4_1189_5550" fill="white">
<path d="M8.12326 12.3959C8.04965 12.4086 7.98366 12.368 7.91513 12.3604C7.90498 12.3604 7.8999 12.3451 7.8999 12.335C7.97605 12.3502 8.05473 12.3604 8.12326 12.3959Z"/>
</mask>
<path d="M8.12326 12.3959C8.04965 12.4086 7.98366 12.368 7.91513 12.3604C7.90498 12.3604 7.8999 12.3451 7.8999 12.335C7.97605 12.3502 8.05473 12.3604 8.12326 12.3959Z" fill="#FEF67F"/>
<path d="M8.12326 12.3959L8.20821 12.8886L9.67276 12.6361L8.35342 11.952L8.12326 12.3959ZM7.91513 12.3604L7.97035 11.8634L7.94282 11.8604H7.91513V12.3604ZM7.8999 12.335L7.99796 11.8447L7.3999 11.7251V12.335H7.8999ZM8.03831 11.9032C8.07731 11.8965 8.10943 11.898 8.12969 11.9004C8.14799 11.9027 8.15808 11.9059 8.15111 11.904C8.14766 11.903 8.14357 11.9018 8.13414 11.899C8.12624 11.8967 8.11311 11.8928 8.0991 11.8889C8.07143 11.8813 8.02549 11.8696 7.97035 11.8634L7.85991 12.8573C7.83904 12.855 7.82704 12.8512 7.83332 12.8529C7.83628 12.8538 7.84013 12.8549 7.84925 12.8576C7.85683 12.8598 7.86979 12.8637 7.88347 12.8675C7.93493 12.8818 8.0584 12.9145 8.20821 12.8886L8.03831 11.9032ZM7.91513 11.8604C8.19709 11.8604 8.32372 12.0735 8.35093 12.1279C8.38702 12.2001 8.3999 12.2717 8.3999 12.335H7.3999C7.3999 12.4084 7.41532 12.4927 7.45649 12.5751C7.48878 12.6397 7.62302 12.8604 7.91513 12.8604V11.8604ZM7.80184 12.8253C7.82362 12.8296 7.85034 12.8346 7.86373 12.8371C7.88083 12.8404 7.89161 12.8426 7.89992 12.8445C7.91716 12.8486 7.90987 12.8485 7.8931 12.8398L8.35342 11.952C8.20362 11.8744 8.02313 11.8497 7.99796 11.8447L7.80184 12.8253Z" fill="black" mask="url(#path-11-inside-4_1189_5550)"/>
<mask id="path-13-inside-5_1189_5550" fill="white">
<path d="M11.1842 10.5049C11.1842 10.5329 11.1969 10.566 11.1588 10.5813C11.146 10.5482 11.1664 10.5278 11.1842 10.5049Z"/>
</mask>
<path d="M11.1842 10.5049C11.1842 10.5329 11.1969 10.566 11.1588 10.5813C11.146 10.5482 11.1664 10.5278 11.1842 10.5049Z" fill="#FEA63B"/>
<path d="M11.1842 10.5049H11.6842V9.04765L10.7895 10.1979L11.1842 10.5049ZM11.1588 10.5813L10.6921 10.7608L10.874 11.2337L11.3445 11.0455L11.1588 10.5813ZM10.6842 10.5049C10.6842 10.5389 10.6883 10.5792 10.6873 10.5674C10.6873 10.5671 10.6871 10.565 10.6869 10.562C10.6867 10.5588 10.6865 10.5539 10.6863 10.5478C10.6861 10.536 10.6862 10.5156 10.6892 10.4901C10.6953 10.4371 10.715 10.3538 10.7758 10.2709C10.8375 10.187 10.914 10.1407 10.9731 10.117L11.3445 11.0455C11.4226 11.0143 11.5119 10.9581 11.5819 10.8628C11.6511 10.7685 11.6747 10.6723 11.6825 10.6056C11.6894 10.5457 11.6848 10.4957 11.6839 10.4857C11.6818 10.4592 11.6842 10.485 11.6842 10.5049H10.6842ZM11.6254 10.4018C11.6453 10.4534 11.6581 10.5168 11.654 10.5873C11.65 10.6569 11.6308 10.7134 11.6119 10.7533C11.5944 10.7903 11.5762 10.8148 11.5716 10.821C11.5689 10.8245 11.5672 10.8267 11.5689 10.8246C11.5691 10.8242 11.5745 10.8176 11.5789 10.8119L10.7895 10.1979C10.8002 10.1842 10.7761 10.2149 10.7703 10.2228C10.7572 10.2402 10.7314 10.2762 10.7082 10.3252C10.6835 10.3772 10.6605 10.4465 10.6557 10.5299C10.6508 10.6143 10.6659 10.6926 10.6921 10.7608L11.6254 10.4018Z" fill="black" mask="url(#path-13-inside-5_1189_5550)"/>
<mask id="path-15-inside-6_1189_5550" fill="white">
<path d="M11.149 10.6267C11.1541 10.6522 11.1643 10.6802 11.121 10.6853C11.1184 10.6598 11.1159 10.6344 11.149 10.6267Z"/>
</mask>
<path d="M11.149 10.6267C11.1541 10.6522 11.1643 10.6802 11.121 10.6853C11.1184 10.6598 11.1159 10.6344 11.149 10.6267Z" fill="#FEA63B"/>
<path d="M11.149 10.6267L11.6393 10.5287L11.5383 10.0238L11.0366 10.1395L11.149 10.6267ZM11.121 10.6853L10.6235 10.735L10.6741 11.2413L11.1794 11.1819L11.121 10.6853ZM10.6587 10.7248C10.6661 10.7617 10.6598 10.7289 10.659 10.7241C10.6568 10.7102 10.6463 10.6457 10.6634 10.5628C10.6841 10.4621 10.7417 10.3535 10.8469 10.2757C10.9375 10.2086 11.0252 10.1931 11.0626 10.1887L11.1794 11.1819C11.2384 11.1749 11.3411 11.154 11.4418 11.0795C11.5571 10.9941 11.6199 10.8761 11.6429 10.7645C11.6621 10.6708 11.6509 10.5942 11.6467 10.5678C11.644 10.5503 11.6344 10.5045 11.6393 10.5287L10.6587 10.7248ZM11.6185 10.6355C11.6174 10.6248 11.6193 10.6405 11.6196 10.6599C11.6199 10.6801 11.6193 10.7312 11.6001 10.7943C11.5789 10.8644 11.5362 10.9442 11.461 11.0105C11.3888 11.0742 11.3134 11.1019 11.2614 11.1139L11.0366 10.1395C10.9681 10.1553 10.8805 10.1892 10.7996 10.2605C10.7156 10.3346 10.6675 10.4237 10.6431 10.5043C10.6208 10.578 10.6193 10.6407 10.6197 10.673C10.6201 10.7046 10.6233 10.7331 10.6235 10.735L11.6185 10.6355Z" fill="black" mask="url(#path-15-inside-6_1189_5550)"/>
<mask id="path-17-inside-7_1189_5550" fill="white">
<path d="M6.7876 18.3454C6.81051 18.3454 6.83597 18.3428 6.8487 18.3708C6.82324 18.3734 6.80033 18.3734 6.7876 18.3454Z"/>
</mask>
<path d="M6.7876 18.3454C6.81051 18.3454 6.83597 18.3428 6.8487 18.3708C6.82324 18.3734 6.80033 18.3734 6.7876 18.3454Z" fill="#FEA63B"/>
<path d="M6.7876 18.3454V17.8454H6.0111L6.33241 18.5523L6.7876 18.3454ZM6.8487 18.3708L6.89845 18.8683L7.59252 18.7989L7.30388 18.1639L6.8487 18.3708ZM6.7876 18.8454C6.81208 18.8454 6.79299 18.8453 6.78791 18.8451C6.77575 18.8447 6.73976 18.8431 6.69402 18.8309C6.64485 18.8179 6.58194 18.7922 6.52094 18.7425C6.45924 18.6921 6.41847 18.6326 6.39351 18.5777L7.30388 18.1639C7.27255 18.095 7.22384 18.0253 7.15306 17.9676C7.08299 17.9104 7.0099 17.8801 6.94991 17.8642C6.89335 17.8493 6.84591 17.8465 6.82213 17.8457C6.80543 17.8451 6.77457 17.8454 6.7876 17.8454V18.8454ZM6.79894 17.8733C6.7991 17.8733 6.80295 17.8729 6.80874 17.8725C6.8146 17.8722 6.82441 17.8717 6.83691 17.8719C6.86064 17.8722 6.90483 17.8748 6.95837 17.891C7.01549 17.9083 7.0773 17.9394 7.13323 17.9897C7.18808 18.039 7.22225 18.0933 7.24278 18.1385L6.33241 18.5523C6.39427 18.6883 6.51118 18.8004 6.66837 18.8481C6.78494 18.8834 6.88876 18.8693 6.89845 18.8683L6.79894 17.8733Z" fill="black" mask="url(#path-17-inside-7_1189_5550)"/>
<path d="M20.3968 10.7336C19.9035 11.4038 19.8537 12.2409 19.5473 12.9833C19.4077 13.3196 19.7765 13.519 19.9085 13.7656C20.2822 14.4682 19.8711 15.096 19.4152 15.1981C18.6055 15.3775 18.5507 15.8459 18.613 16.4139C18.7127 17.3307 18.3115 17.6297 17.4595 17.5176C16.6349 17.4079 15.7729 17.7343 14.9707 17.3207C15.1301 16.952 15.4614 17.0243 15.7579 17.0193C16.3683 17.0118 16.9762 17.0193 17.5866 17.0043C17.7809 16.9994 18.0674 17.0816 18.0973 16.7751C18.1347 16.394 17.8208 16.4513 17.5866 16.4488C16.5203 16.4413 15.4515 16.4214 14.3877 16.4488C13.588 16.4687 12.8729 16.3043 12.3074 15.7138C12.0832 15.4796 11.8963 15.3775 11.6372 15.669C11.0119 16.3765 10.1848 16.4737 9.30035 16.4463C8.35613 16.4189 7.41191 16.4288 6.4652 16.4463C6.22603 16.4513 5.81994 16.2893 5.80499 16.6954C5.78755 17.1862 6.23848 17.0068 6.49509 17.0068C8.77966 17.0218 11.0667 17.0093 13.3513 17.0193C13.6976 17.0193 14.1012 16.8798 14.3403 17.2933C14.0962 17.6372 13.73 17.5051 13.4136 17.5076C11.0692 17.5176 8.72236 17.4827 6.38049 17.53C5.54589 17.5475 5.20707 17.2884 5.26188 16.4413C5.29426 15.9082 5.40388 15.3252 4.51447 15.1956C4.13579 15.1408 3.59766 14.5105 3.92402 14.0496C4.61911 13.0705 4.076 12.2334 3.87918 11.3241C3.78451 10.8831 3.14423 10.3076 3.83434 9.98125C4.42229 9.70471 4.53191 10.487 4.83087 10.8158C5.0526 11.0575 5.18215 11.4312 5.57329 11.4163C6.03419 11.4013 6.09897 10.9778 6.24845 10.6564C6.27336 10.6016 6.28084 10.5368 6.31322 10.487C6.55239 10.1332 6.46769 9.48049 7.07059 9.4755C7.58381 9.47301 7.63115 10.0435 7.87032 10.3724C7.96 10.4945 8.02727 10.6315 8.10699 10.761C8.60277 11.5408 9.10353 11.5508 9.62173 10.7934C9.78616 10.5518 9.87087 10.2105 10.2819 10.2927C10.2321 11.0201 9.89827 11.6206 9.20069 11.8024C7.85786 12.1487 7.71087 10.8009 7.09052 10.1058C6.69191 10.6091 6.69689 11.2568 6.25094 11.6629C5.71281 12.1562 5.13731 11.77 4.49952 11.6255C4.61911 12.0241 4.68139 12.3181 4.79599 12.5897C5.26686 13.6983 5.07503 15.37 6.13385 15.8509C7.19018 16.3317 8.64014 15.9555 9.92069 15.9405C10.5385 15.9331 10.997 15.6092 11.4329 15.1981C11.707 14.939 11.7344 14.7746 11.4952 14.4707C11.0617 13.9226 10.6706 13.3421 10.2944 12.7541C9.97799 12.2534 10.0776 11.7601 10.4763 11.339C10.845 10.9504 12.7409 10.8408 13.2342 11.1871C13.6627 11.4885 13.8944 11.9095 13.7474 12.4477C13.6926 12.647 13.568 12.8313 13.4509 13.0057C13.2143 13.357 12.9576 13.6983 12.7135 14.0471C12.1081 14.9091 12.1679 15.1931 13.1221 15.6989C13.3812 15.8359 13.6951 15.9356 13.9866 15.9405C14.8959 15.958 15.8077 15.9206 16.7171 15.9032C17.2079 15.9555 17.9079 16.2495 18.1147 15.7363C18.6404 14.4482 18.9742 13.083 19.4376 11.5807C18.8547 11.7675 18.4884 12.0241 18.0624 11.937C17.8482 11.8273 17.7311 11.6754 17.8531 11.4262C18.6479 11.623 18.9468 11.0376 19.2956 10.5244C19.5572 10.1407 19.7814 9.65737 20.3943 10.0037V10.7361L20.3968 10.7336ZM12.0084 14.0795C12.2127 13.8304 12.5291 13.636 12.5142 13.2748C12.4967 12.936 12.2601 12.5349 11.9611 12.5423C11.6148 12.5498 11.3532 12.9684 11.3682 13.3172C11.3806 13.6236 11.6372 13.9001 12.0084 14.0795ZM11.6148 11.8498C11.6322 11.5857 11.4877 11.486 11.281 11.5084C10.8973 11.5533 10.6731 11.77 10.6781 12.1711C10.6781 12.3854 10.7428 12.7093 10.9596 12.6495C11.3233 12.5523 11.4454 12.1437 11.6148 11.8498ZM13.2566 12.0715C13.2342 11.7526 13.0125 11.5059 12.5864 11.491C12.4046 11.4835 12.1878 11.5807 12.2675 11.8074C12.3971 12.1761 12.5939 12.5598 12.985 12.6669C13.1545 12.7143 13.2591 12.4028 13.2566 12.069V12.0715Z" fill="#16140F"/>
<path d="M17.8555 11.4289C17.7309 11.678 17.848 11.8275 18.0648 11.9396C17.9851 12.2784 17.9078 12.6172 17.8306 12.9586C17.2426 12.8091 16.9238 13.1354 16.707 13.6088C16.3682 14.3462 16.1788 15.0862 16.7817 15.7937C16.7444 15.8211 16.722 15.8585 16.722 15.9058C15.8126 15.9233 14.9008 15.9606 13.9914 15.9432C13.7 15.9382 13.386 15.8386 13.1269 15.7015C12.1728 15.1958 12.113 14.9093 12.7184 14.0498C12.9625 13.7035 13.2191 13.3622 13.4558 13.0084C13.5729 12.834 13.7 12.6471 13.7523 12.4503C13.8993 11.9122 13.6676 11.4912 13.2391 11.1897C12.7458 10.8434 10.8499 10.953 10.4811 11.3417C10.0825 11.7602 9.98286 12.256 10.2993 12.7568C10.673 13.3472 11.0666 13.9252 11.5001 14.4733C11.7418 14.7797 11.7143 14.9417 11.4378 15.2008C11.0043 15.6143 10.5434 15.9382 9.92556 15.9432C8.6475 15.9556 7.19754 16.3318 6.13872 15.8535C5.0799 15.3727 5.27173 13.6985 4.80086 12.5923C4.68626 12.3233 4.62398 12.0293 4.50439 11.6282C5.14218 11.7727 5.71519 12.1588 6.25581 11.6655C6.69927 11.2595 6.69927 10.6117 7.09539 10.1085C7.71574 10.8035 7.86273 12.1514 9.20556 11.8051C9.90314 11.6257 10.237 11.0253 10.2868 10.2953C10.3665 10.096 10.4487 9.89669 10.531 9.69988C11.4029 9.44825 11.3083 8.41185 12.0283 7.9086C12.6287 8.94998 13.2116 9.99635 13.827 11.0228C14.5196 12.1763 15.5161 12.1738 16.2187 11.0402C16.4155 10.7238 16.6148 10.4099 16.8166 10.091C17.0807 10.3576 17.0085 10.826 17.4718 10.8334C17.5292 11.0776 17.6587 11.2744 17.858 11.4289H17.8555ZM14.8036 15.1186C15.5909 15.2033 15.8948 14.6028 15.9048 14.0722C15.9148 13.5341 15.6133 12.9561 14.846 12.9735C14.263 12.986 13.5579 13.5689 13.685 14.0772C13.822 14.6128 14.0288 15.2182 14.8036 15.1186ZM9.10591 12.9785C8.29871 12.9586 7.98231 13.5216 8.00224 14.0747C8.02467 14.6676 8.37096 15.1933 9.17816 15.136C9.93553 15.0812 10.2021 14.548 10.1772 13.9925C10.1523 13.4219 9.80349 12.8938 9.10591 12.9785ZM7.47657 14.7797C7.4691 14.2516 7.352 13.7558 7.02813 13.3248C6.83629 13.0682 6.60958 12.8564 6.26328 12.9486C5.92197 13.0408 5.81983 13.3472 5.77249 13.6536C5.69277 14.1843 5.82232 14.6851 6.07394 15.1484C6.26079 15.4947 6.50993 15.9307 6.93844 15.8286C7.40432 15.719 7.48903 15.2307 7.47657 14.7772V14.7797Z" fill="#F3C65F"/>
<path d="M14.3405 17.2983C14.1014 16.8848 13.6978 17.0243 13.3515 17.0243C11.0669 17.0143 8.77984 17.0243 6.49528 17.0118C6.24116 17.0118 5.78774 17.1912 5.80518 16.7004C5.82012 16.2943 6.22621 16.4538 6.46538 16.4513C7.4096 16.4338 8.35382 16.4239 9.30053 16.4513C10.1825 16.4787 11.0121 16.3815 11.6374 15.674C11.8965 15.3825 12.0809 15.4846 12.3076 15.7188C12.8756 16.3093 13.5906 16.4737 14.3879 16.4538C15.4542 16.4264 16.5205 16.4488 17.5868 16.4538C17.8209 16.4538 18.1348 16.399 18.0975 16.7801C18.0676 17.0866 17.7811 17.0044 17.5868 17.0093C16.9764 17.0243 16.3685 17.0168 15.7581 17.0243C15.4616 17.0268 15.1303 16.9545 14.9708 17.3257C14.7591 17.3183 14.5498 17.3133 14.338 17.3033L14.3405 17.2983Z" fill="#EDCF73"/>
<path d="M17.4692 10.8335C17.0058 10.8261 17.0756 10.3577 16.814 10.0911C16.6097 10.4125 16.4104 10.7239 16.2161 11.0403C15.5135 12.1739 14.517 12.1739 13.8244 11.0229C13.209 9.99645 12.626 8.95258 12.0256 7.9087C11.3056 8.41195 11.4003 9.44835 10.5283 9.69998C10.5557 8.76572 11.1487 8.09057 11.6768 7.43036C12.0082 7.0168 12.3271 7.43036 12.5164 7.74926C13.0844 8.71839 13.63 9.69998 14.1956 10.6691C14.7437 11.6083 15.2843 11.6034 15.8498 10.6691C15.9445 10.5122 16.0317 10.3527 16.1363 10.2032C16.3606 9.87686 16.4702 9.23908 17.0108 9.53306C17.4293 9.75977 17.7109 10.263 17.4692 10.836V10.8335Z" fill="#16140F"/>
<path d="M17.8279 12.9561C17.9077 12.6173 17.9849 12.2785 18.0621 11.9372C18.4906 12.0269 18.8569 11.7678 19.4373 11.5809C18.974 13.0857 18.6401 14.4509 18.1144 15.7365C17.9052 16.2472 17.2051 15.9532 16.7168 15.9034C16.7168 15.8561 16.7367 15.8187 16.7766 15.7913C17.1752 15.9781 17.3969 15.6916 17.6112 15.4549C18.1742 14.8396 18.2515 13.8181 17.8254 12.9561H17.8279Z" fill="#CA9254"/>
<path d="M12.0086 14.0822C11.6374 13.9053 11.3807 13.6263 11.3683 13.3198C11.3533 12.971 11.6124 12.5525 11.9612 12.545C12.2602 12.54 12.4969 12.9387 12.5143 13.2775C12.5318 13.6337 12.2129 13.8331 12.0086 14.0822Z" fill="#CA646C"/>
<path d="M11.6121 11.8548C11.4402 12.1513 11.3206 12.5574 10.9569 12.6546C10.7377 12.7143 10.6779 12.3905 10.6754 12.1762C10.6704 11.7726 10.8946 11.5559 11.2783 11.5135C11.4876 11.4911 11.6296 11.5883 11.6121 11.8548Z" fill="#CA646C"/>
<path d="M13.2561 12.0741C13.261 12.4054 13.1564 12.7169 12.9845 12.672C12.5909 12.5649 12.3965 12.1812 12.267 11.8125C12.1873 11.5858 12.404 11.4886 12.5859 11.4961C13.0119 11.511 13.2361 11.7577 13.2561 12.0766V12.0741Z" fill="#CA646C"/>
<path d="M14.8036 15.1184C14.0288 15.2206 13.8195 14.6152 13.6849 14.077C13.5554 13.5688 14.2629 12.9858 14.8459 12.9734C15.6133 12.9559 15.9147 13.5314 15.9047 14.0721C15.8948 14.6052 15.5908 15.2031 14.8036 15.1184Z" fill="#16140F"/>
<path d="M9.10601 12.9761C9.80857 12.8938 10.1524 13.4195 10.1773 13.99C10.2022 14.5431 9.93812 15.0787 9.17826 15.1336C8.37107 15.1909 8.02477 14.6677 8.00235 14.0722C7.98242 13.5192 8.29882 12.9561 9.10601 12.9761Z" fill="#16140F"/>
<path d="M17.8279 12.956C18.2539 13.818 18.1742 14.8395 17.6136 15.4548C17.3994 15.6915 17.1776 15.978 16.779 15.7912C16.1761 15.0836 16.3655 14.3437 16.7043 13.6062C16.9235 13.1304 17.2424 12.8065 17.8279 12.956ZM17.5264 13.3945C16.8463 14.249 16.7989 14.5006 17.1278 15.2306C17.5563 14.7199 17.7432 14.1793 17.5264 13.3945Z" fill="#16140F"/>
<path d="M7.47632 14.7746C7.48878 15.228 7.40158 15.7138 6.93819 15.8259C6.50968 15.9256 6.26303 15.4946 6.07369 15.1458C5.82456 14.6824 5.69501 14.1791 5.77224 13.651C5.81708 13.3445 5.91923 13.0381 6.26303 12.9459C6.60933 12.8513 6.83604 13.0655 7.02788 13.3221C7.35175 13.7531 7.46635 14.2489 7.47632 14.7771V14.7746ZM6.34276 13.2972C6.23314 14.1692 6.26802 14.7521 6.83604 15.2953C7.15244 14.5528 6.90829 14.0222 6.34276 13.2972Z" fill="#16140F"/>
<path d="M17.5265 13.3971C17.7458 14.1818 17.5564 14.7225 17.1279 15.2332C16.7966 14.5032 16.8439 14.2516 17.5265 13.3971Z" fill="#CA646C"/>
<path d="M6.34303 13.2998C6.90856 14.0273 7.15521 14.5554 6.83632 15.2979C6.26829 14.7548 6.23341 14.1718 6.34303 13.2998Z" fill="#CA646C"/>
</svg>
