<svg width="26" height="26" viewBox="0 0 26 26" fill="none" xmlns="http://www.w3.org/2000/svg">
<g opacity="0.85">
<path d="M12.9575 25.8643C19.8611 25.8643 25.4575 20.2678 25.4575 13.3643C25.4575 6.4607 19.8611 0.864258 12.9575 0.864258C6.05396 0.864258 0.45752 6.4607 0.45752 13.3643C0.45752 20.2678 6.05396 25.8643 12.9575 25.8643Z" fill="#FF4C00"/>
<path d="M12.9573 23.9719C18.8157 23.9719 23.5649 19.2227 23.5649 13.3643C23.5649 7.50581 18.8157 2.75659 12.9573 2.75659C7.09883 2.75659 2.34961 7.50581 2.34961 13.3643C2.34961 19.2227 7.09883 23.9719 12.9573 23.9719Z" fill="#DE3B00"/>
<path d="M18.5058 4.31073C19.5624 5.95988 20.1745 7.92209 20.1745 10.0241C20.1745 15.8827 15.4255 20.6317 9.56683 20.6317C7.53195 20.6317 5.63123 20.0587 4.01562 19.0664C5.89957 22.0097 9.20066 23.9608 12.9546 23.9608C18.8133 23.9608 23.5623 19.2118 23.5623 13.3531C23.5623 9.52931 21.5385 6.1779 18.503 4.31073H18.5058Z" fill="#C52F05"/>
<path d="M4.20576 14.3342C4.20576 9.1631 8.39852 4.97035 13.5696 4.97035C16.5912 4.97035 19.2801 6.40427 20.9936 8.62643C19.3779 5.82008 16.3452 3.93054 12.8736 3.93054C7.70252 3.93054 3.50977 8.1233 3.50977 13.2944C3.50977 15.4438 4.23371 17.4228 5.45241 19.0021C4.66138 17.6269 4.20856 16.0336 4.20856 14.3342H4.20576Z" fill="#ED7447"/>
</g>
<path d="M20.9883 11.0764C20.382 11.4698 20.1234 12.0814 19.9159 12.7388C19.6707 13.5094 19.4283 14.2773 19.1373 15.0317C18.717 16.1148 18.4179 17.2114 18.5553 18.3888C18.6146 18.9195 18.4718 19.1728 17.8575 19.1674C14.1528 19.1432 10.4508 19.1486 6.74616 19.1647C6.22885 19.1647 5.99983 19.0138 6.04833 18.4723C6.26926 16.0717 4.95983 14.0536 4.36978 11.8578C4.29434 11.5749 4.01952 11.521 3.86864 11.3324C3.52646 10.9067 3.49682 10.4729 3.88211 10.0741C4.22159 9.72118 4.64729 9.64035 5.05952 9.94481C5.49061 10.2627 5.60916 10.6831 5.33973 11.1734C4.98408 11.8254 5.29931 12.6822 6.10222 13.2588C6.8216 13.7761 7.32004 13.3989 7.7673 12.8466C8.30077 12.1838 8.60792 11.4051 8.92585 10.6265C9.03632 10.357 8.99321 10.1846 8.83155 9.95828C8.49746 9.48678 8.52979 9.01258 9.00668 8.64885C9.40813 8.3417 9.83383 8.38481 10.1841 8.74315C10.6017 9.17154 10.5963 9.64035 10.1652 10.0526C9.96855 10.2412 9.83114 10.3786 9.96585 10.6723C10.3592 11.5183 10.7364 12.3751 11.4208 13.0352C12.0836 13.6737 12.5712 13.6656 13.1694 13.0002C13.7837 12.3158 14.0666 11.4536 14.4061 10.6211C14.5381 10.2951 14.2794 10.1927 14.1259 10.0122C13.7756 9.59724 13.7675 9.1473 14.142 8.75393C14.4815 8.39558 14.9072 8.33361 15.3194 8.63538C15.799 8.98833 15.9149 9.4787 15.5296 9.92326C15.2413 10.2573 15.3141 10.5214 15.4488 10.8312C15.7829 11.6018 16.1143 12.3778 16.7016 12.9975C17.3563 13.6872 17.9976 13.7411 18.62 13.0379C19.1076 12.4882 20.0237 12.0006 19.2073 10.9848C18.9352 10.6453 19.175 10.1981 19.5522 9.94481C20.1719 9.52719 20.5895 9.90709 20.9937 10.3301V11.0764H20.9883ZM14.883 11.1249C14.5435 11.7581 14.2579 12.4155 13.8645 13.0028C12.9404 14.3769 11.8249 14.4066 10.7526 13.1403C10.2272 12.5206 9.86886 11.785 9.47549 11.0064C7.6245 14.2773 7.53559 14.3392 5.59838 13.768C5.85165 14.4874 6.12646 15.196 6.35009 15.9208C6.47134 16.3142 6.67341 16.457 7.08294 16.4543C10.5694 16.4408 14.0504 16.4462 17.5369 16.4462C17.7847 16.4462 18.0676 16.4839 18.1619 16.1714C18.399 15.3631 18.8328 14.6087 18.8894 13.7007C17.0842 14.4874 16.6774 14.218 14.8884 11.1249H14.883ZM12.2857 18.5855C13.9642 18.5855 15.6455 18.5531 17.324 18.6016C17.976 18.6205 18.0191 18.3214 17.9976 17.823C17.9787 17.3757 18.0569 17.0012 17.3563 17.0093C13.9965 17.0443 10.6367 17.0443 7.27693 17.0093C6.62761 17.0012 6.60875 17.2922 6.59527 17.7879C6.5818 18.343 6.66533 18.6232 7.33621 18.6016C8.98243 18.5504 10.634 18.5855 12.283 18.5855H12.2857Z" fill="#16120B"/>
<path d="M14.8857 11.1195C16.672 14.2125 17.0815 14.482 18.8867 13.6952C18.8301 14.6032 18.3964 15.3603 18.1593 16.1659C18.0677 16.4784 17.7821 16.4407 17.5342 16.4407C14.0477 16.4407 10.5667 16.4353 7.08027 16.4488C6.67073 16.4488 6.46866 16.3087 6.34742 15.9153C6.12379 15.1906 5.84897 14.482 5.5957 13.7626C7.53291 14.3338 7.62182 14.2718 9.47281 11.0009C9.86618 11.7823 10.2245 12.5124 10.7499 13.1348C11.8222 14.4011 12.9377 14.3715 13.8618 12.9974C14.2579 12.41 14.5435 11.7499 14.8803 11.1195H14.8857Z" fill="#F5D336"/>
<path d="M12.2852 18.5801C10.6363 18.5801 8.98468 18.5451 7.33846 18.5963C6.67027 18.6178 6.58675 18.3403 6.59753 17.7826C6.60831 17.2841 6.62716 16.9958 7.27919 17.0039C10.639 17.0389 13.9988 17.0389 17.3586 17.0039C18.0591 16.9958 17.981 17.3676 17.9998 17.8176C18.0214 18.316 17.9783 18.6151 17.3263 18.5963C15.6477 18.5478 13.9665 18.5801 12.2879 18.5801H12.2852Z" fill="#FBAC3A"/>
<mask id="path-8-inside-1_1189_5551" fill="white">
<path d="M19.2178 15.2129C19.2102 15.1772 19.2331 15.1518 19.2484 15.1238C19.2611 15.162 19.2586 15.1925 19.2178 15.2129Z"/>
</mask>
<path d="M19.2178 15.2129C19.2102 15.1772 19.2331 15.1518 19.2484 15.1238C19.2611 15.162 19.2586 15.1925 19.2178 15.2129Z" fill="#772A0C"/>
<path d="M19.2178 15.2129L18.7289 15.3176L18.8642 15.9487L19.4414 15.6601L19.2178 15.2129ZM19.2484 15.1238L19.7227 14.9657L19.3595 13.8759L18.8094 14.8844L19.2484 15.1238ZM19.7067 15.1081C19.7187 15.1639 19.7189 15.2193 19.7104 15.2705C19.7022 15.3193 19.6874 15.356 19.6776 15.3769C19.6687 15.396 19.6606 15.4087 19.6635 15.4039C19.6641 15.403 19.6645 15.4023 19.6659 15.4C19.6671 15.3981 19.6688 15.3952 19.6708 15.392C19.6746 15.3856 19.6806 15.3754 19.6873 15.3632L18.8094 14.8844C18.8129 14.878 18.8183 14.8692 18.8086 14.8851C18.8032 14.8941 18.787 14.9206 18.7714 14.954C18.7357 15.0305 18.6951 15.1597 18.7289 15.3176L19.7067 15.1081ZM18.774 15.2819C18.7691 15.2671 18.7359 15.1694 18.7712 15.0417C18.8142 14.8865 18.923 14.8013 18.9942 14.7657L19.4414 15.6601C19.5534 15.6041 19.6838 15.4935 19.7351 15.3083C19.7787 15.1507 19.7404 15.0187 19.7227 14.9657L18.774 15.2819Z" fill="black" mask="url(#path-8-inside-1_1189_5551)"/>
<mask id="path-10-inside-2_1189_5551" fill="white">
<path d="M19.2553 15.0835C19.2502 15.0555 19.268 15.0377 19.2833 15.0198C19.2833 15.0453 19.2935 15.0733 19.2553 15.0835Z"/>
</mask>
<path d="M19.2553 15.0835C19.2502 15.0555 19.268 15.0377 19.2833 15.0198C19.2833 15.0453 19.2935 15.0733 19.2553 15.0835Z" fill="#772A0C"/>
<path d="M19.2553 15.0835L18.7633 15.1729L18.8603 15.7063L19.3841 15.5666L19.2553 15.0835ZM19.2833 15.0198H19.7833V13.6682L18.9037 14.6944L19.2833 15.0198ZM19.7472 14.994C19.7572 15.049 19.7569 15.1067 19.7454 15.1635C19.7342 15.2189 19.7146 15.2625 19.6974 15.293C19.6811 15.322 19.6656 15.3415 19.6602 15.3481C19.6583 15.3505 19.6501 15.3602 19.6629 15.3452L18.9037 14.6944C18.9164 14.6795 18.8625 14.7376 18.8258 14.8027C18.7753 14.8927 18.7359 15.0219 18.7633 15.1729L19.7472 14.994ZM18.7833 15.0198C18.7833 15.0444 18.7863 15.0894 18.7851 15.0672C18.785 15.0665 18.7814 15.0206 18.7928 14.962C18.8063 14.8926 18.8412 14.801 18.9206 14.7209C18.9957 14.6451 19.0772 14.6135 19.1265 14.6004L19.3841 15.5666C19.4525 15.5484 19.547 15.5095 19.6309 15.4248C19.7191 15.3357 19.7587 15.2336 19.7744 15.1528C19.788 15.0827 19.7842 15.0244 19.7835 15.011C19.7815 14.976 19.7833 15.008 19.7833 15.0198H18.7833Z" fill="black" mask="url(#path-10-inside-2_1189_5551)"/>
<mask id="path-12-inside-3_1189_5551" fill="white">
<path d="M9.98377 12.7862C9.98377 12.7862 9.98124 12.8065 9.97616 12.809C9.87971 12.8446 9.78834 12.8928 9.68681 12.9156C9.68173 12.9156 9.67412 12.9156 9.6665 12.9156C9.76803 12.8649 9.87209 12.8167 9.98124 12.7887L9.98377 12.7862Z"/>
</mask>
<path d="M9.98377 12.7862C9.98377 12.7862 9.98124 12.8065 9.97616 12.809C9.87971 12.8446 9.78834 12.8928 9.68681 12.9156C9.68173 12.9156 9.67412 12.9156 9.6665 12.9156C9.76803 12.8649 9.87209 12.8167 9.98124 12.7887L9.98377 12.7862Z" fill="#FEF67F"/>
<path d="M9.98377 12.7862L10.4799 12.8482L10.6607 11.4026L9.63029 12.4326L9.98377 12.7862ZM9.97616 12.809L10.149 13.2782L10.175 13.2686L10.1998 13.2563L9.97616 12.809ZM9.68681 12.9156V13.4156H9.74236L9.79656 13.4034L9.68681 12.9156ZM9.6665 12.9156L9.4429 12.4684L9.6665 13.4156V12.9156ZM9.98124 12.7887L10.1052 13.2731L10.2379 13.2392L10.3347 13.1424L9.98124 12.7887ZM9.98377 12.7862C9.48764 12.7242 9.48764 12.7241 9.48765 12.724C9.48765 12.724 9.48766 12.724 9.48767 12.7239C9.48768 12.7239 9.48768 12.7238 9.48769 12.7237C9.48771 12.7236 9.48773 12.7234 9.48775 12.7233C9.48779 12.723 9.48783 12.7227 9.48786 12.7224C9.48794 12.7218 9.48802 12.7212 9.4881 12.7206C9.48826 12.7194 9.48842 12.7182 9.4886 12.717C9.48894 12.7145 9.48935 12.7118 9.48983 12.7088C9.49067 12.7037 9.49232 12.6942 9.49517 12.6821C9.49719 12.6735 9.50391 12.6454 9.51868 12.6104C9.52604 12.5929 9.54118 12.5596 9.5675 12.5218C9.59021 12.4891 9.6476 12.4143 9.75255 12.3618L10.1998 13.2563C10.306 13.2031 10.3646 13.1271 10.3884 13.0929C10.4158 13.0534 10.432 13.0182 10.4403 12.9984C10.457 12.9588 10.4653 12.9252 10.4686 12.9112C10.4727 12.8937 10.4753 12.879 10.4768 12.87C10.4776 12.8651 10.4782 12.8607 10.4787 12.8572C10.479 12.8554 10.4792 12.8537 10.4794 12.8523C10.4795 12.8515 10.4796 12.8508 10.4797 12.8501C10.4797 12.8498 10.4798 12.8495 10.4798 12.8491C10.4798 12.849 10.4798 12.8488 10.4799 12.8487C10.4799 12.8486 10.4799 12.8485 10.4799 12.8485C10.4799 12.8484 10.4799 12.8484 10.4799 12.8483C10.4799 12.8483 10.4799 12.8482 9.98377 12.7862ZM9.80331 12.3399C9.74598 12.361 9.67081 12.3935 9.64503 12.4039C9.60564 12.42 9.58745 12.4255 9.57705 12.4278L9.79656 13.4034C9.88769 13.3829 9.96595 13.353 10.0217 13.3303C10.0912 13.302 10.1099 13.2926 10.149 13.2782L9.80331 12.3399ZM9.68681 12.4156C9.6868 12.4156 9.68679 12.4156 9.68678 12.4156C9.68677 12.4156 9.68676 12.4156 9.68675 12.4156C9.68674 12.4156 9.68673 12.4156 9.68672 12.4156C9.68671 12.4156 9.6867 12.4156 9.68669 12.4156C9.68668 12.4156 9.68667 12.4156 9.68666 12.4156C9.68665 12.4156 9.68664 12.4156 9.68663 12.4156C9.68662 12.4156 9.68661 12.4156 9.6866 12.4156C9.68659 12.4156 9.68658 12.4156 9.68657 12.4156C9.68656 12.4156 9.68655 12.4156 9.68654 12.4156C9.68653 12.4156 9.68652 12.4156 9.68651 12.4156C9.6865 12.4156 9.68649 12.4156 9.68648 12.4156C9.68647 12.4156 9.68646 12.4156 9.68645 12.4156C9.68644 12.4156 9.68643 12.4156 9.68642 12.4156C9.68641 12.4156 9.6864 12.4156 9.68639 12.4156C9.68638 12.4156 9.68637 12.4156 9.68636 12.4156C9.68635 12.4156 9.68634 12.4156 9.68633 12.4156C9.68632 12.4156 9.68631 12.4156 9.68629 12.4156C9.68628 12.4156 9.68627 12.4156 9.68626 12.4156C9.68625 12.4156 9.68624 12.4156 9.68623 12.4156C9.68622 12.4156 9.68621 12.4156 9.6862 12.4156C9.68619 12.4156 9.68618 12.4156 9.68617 12.4156C9.68616 12.4156 9.68615 12.4156 9.68614 12.4156C9.68613 12.4156 9.68612 12.4156 9.68611 12.4156C9.6861 12.4156 9.68609 12.4156 9.68608 12.4156C9.68607 12.4156 9.68606 12.4156 9.68605 12.4156C9.68604 12.4156 9.68603 12.4156 9.68602 12.4156C9.68601 12.4156 9.686 12.4156 9.68598 12.4156C9.68597 12.4156 9.68596 12.4156 9.68595 12.4156C9.68594 12.4156 9.68593 12.4156 9.68592 12.4156C9.68591 12.4156 9.6859 12.4156 9.68589 12.4156C9.68588 12.4156 9.68587 12.4156 9.68586 12.4156C9.68585 12.4156 9.68584 12.4156 9.68583 12.4156C9.68582 12.4156 9.68581 12.4156 9.6858 12.4156C9.68579 12.4156 9.68578 12.4156 9.68576 12.4156C9.68575 12.4156 9.68574 12.4156 9.68573 12.4156C9.68572 12.4156 9.68571 12.4156 9.6857 12.4156C9.68569 12.4156 9.68568 12.4156 9.68567 12.4156C9.68566 12.4156 9.68565 12.4156 9.68564 12.4156C9.68563 12.4156 9.68562 12.4156 9.68561 12.4156C9.6856 12.4156 9.68558 12.4156 9.68557 12.4156C9.68556 12.4156 9.68555 12.4156 9.68554 12.4156C9.68553 12.4156 9.68552 12.4156 9.68551 12.4156C9.6855 12.4156 9.68549 12.4156 9.68548 12.4156C9.68547 12.4156 9.68546 12.4156 9.68545 12.4156C9.68543 12.4156 9.68542 12.4156 9.68541 12.4156C9.6854 12.4156 9.68539 12.4156 9.68538 12.4156C9.68537 12.4156 9.68536 12.4156 9.68535 12.4156C9.68534 12.4156 9.68533 12.4156 9.68532 12.4156C9.68531 12.4156 9.68529 12.4156 9.68528 12.4156C9.68527 12.4156 9.68526 12.4156 9.68525 12.4156C9.68524 12.4156 9.68523 12.4156 9.68522 12.4156C9.68521 12.4156 9.6852 12.4156 9.68519 12.4156C9.68518 12.4156 9.68516 12.4156 9.68515 12.4156C9.68514 12.4156 9.68513 12.4156 9.68512 12.4156C9.68511 12.4156 9.6851 12.4156 9.68509 12.4156C9.68508 12.4156 9.68507 12.4156 9.68506 12.4156C9.68504 12.4156 9.68503 12.4156 9.68502 12.4156C9.68501 12.4156 9.685 12.4156 9.68499 12.4156C9.68498 12.4156 9.68497 12.4156 9.68496 12.4156C9.68495 12.4156 9.68493 12.4156 9.68492 12.4156C9.68491 12.4156 9.6849 12.4156 9.68489 12.4156C9.68488 12.4156 9.68487 12.4156 9.68486 12.4156C9.68485 12.4156 9.68484 12.4156 9.68482 12.4156C9.68481 12.4156 9.6848 12.4156 9.68479 12.4156C9.68478 12.4156 9.68477 12.4156 9.68476 12.4156C9.68475 12.4156 9.68474 12.4156 9.68472 12.4156C9.68471 12.4156 9.6847 12.4156 9.68469 12.4156C9.68468 12.4156 9.68467 12.4156 9.68466 12.4156C9.68465 12.4156 9.68464 12.4156 9.68462 12.4156C9.68461 12.4156 9.6846 12.4156 9.68459 12.4156C9.68458 12.4156 9.68457 12.4156 9.68456 12.4156C9.68455 12.4156 9.68453 12.4156 9.68452 12.4156C9.68451 12.4156 9.6845 12.4156 9.68449 12.4156C9.68448 12.4156 9.68447 12.4156 9.68446 12.4156C9.68445 12.4156 9.68443 12.4156 9.68442 12.4156C9.68441 12.4156 9.6844 12.4156 9.68439 12.4156C9.68438 12.4156 9.68437 12.4156 9.68435 12.4156C9.68434 12.4156 9.68433 12.4156 9.68432 12.4156C9.68431 12.4156 9.6843 12.4156 9.68429 12.4156C9.68428 12.4156 9.68426 12.4156 9.68425 12.4156C9.68424 12.4156 9.68423 12.4156 9.68422 12.4156C9.68421 12.4156 9.6842 12.4156 9.68418 12.4156C9.68417 12.4156 9.68416 12.4156 9.68415 12.4156C9.68414 12.4156 9.68413 12.4156 9.68412 12.4156C9.68411 12.4156 9.68409 12.4156 9.68408 12.4156C9.68407 12.4156 9.68406 12.4156 9.68405 12.4156C9.68404 12.4156 9.68403 12.4156 9.68401 12.4156C9.684 12.4156 9.68399 12.4156 9.68398 12.4156C9.68397 12.4156 9.68396 12.4156 9.68394 12.4156C9.68393 12.4156 9.68392 12.4156 9.68391 12.4156C9.6839 12.4156 9.68389 12.4156 9.68388 12.4156C9.68386 12.4156 9.68385 12.4156 9.68384 12.4156C9.68383 12.4156 9.68382 12.4156 9.68381 12.4156C9.6838 12.4156 9.68378 12.4156 9.68377 12.4156C9.68376 12.4156 9.68375 12.4156 9.68374 12.4156C9.68373 12.4156 9.68371 12.4156 9.6837 12.4156C9.68369 12.4156 9.68368 12.4156 9.68367 12.4156C9.68366 12.4156 9.68364 12.4156 9.68363 12.4156C9.68362 12.4156 9.68361 12.4156 9.6836 12.4156C9.68359 12.4156 9.68357 12.4156 9.68356 12.4156C9.68355 12.4156 9.68354 12.4156 9.68353 12.4156C9.68352 12.4156 9.6835 12.4156 9.68349 12.4156C9.68348 12.4156 9.68347 12.4156 9.68346 12.4156C9.68345 12.4156 9.68343 12.4156 9.68342 12.4156C9.68341 12.4156 9.6834 12.4156 9.68339 12.4156C9.68338 12.4156 9.68336 12.4156 9.68335 12.4156C9.68334 12.4156 9.68333 12.4156 9.68332 12.4156C9.68331 12.4156 9.68329 12.4156 9.68328 12.4156C9.68327 12.4156 9.68326 12.4156 9.68325 12.4156C9.68323 12.4156 9.68322 12.4156 9.68321 12.4156C9.6832 12.4156 9.68319 12.4156 9.68318 12.4156C9.68316 12.4156 9.68315 12.4156 9.68314 12.4156C9.68313 12.4156 9.68312 12.4156 9.6831 12.4156C9.68309 12.4156 9.68308 12.4156 9.68307 12.4156C9.68306 12.4156 9.68304 12.4156 9.68303 12.4156C9.68302 12.4156 9.68301 12.4156 9.683 12.4156C9.68299 12.4156 9.68297 12.4156 9.68296 12.4156C9.68295 12.4156 9.68294 12.4156 9.68293 12.4156C9.68291 12.4156 9.6829 12.4156 9.68289 12.4156C9.68288 12.4156 9.68287 12.4156 9.68285 12.4156C9.68284 12.4156 9.68283 12.4156 9.68282 12.4156C9.68281 12.4156 9.68279 12.4156 9.68278 12.4156C9.68277 12.4156 9.68276 12.4156 9.68275 12.4156C9.68273 12.4156 9.68272 12.4156 9.68271 12.4156C9.6827 12.4156 9.68269 12.4156 9.68267 12.4156C9.68266 12.4156 9.68265 12.4156 9.68264 12.4156C9.68263 12.4156 9.68261 12.4156 9.6826 12.4156C9.68259 12.4156 9.68258 12.4156 9.68257 12.4156C9.68255 12.4156 9.68254 12.4156 9.68253 12.4156C9.68252 12.4156 9.6825 12.4156 9.68249 12.4156C9.68248 12.4156 9.68247 12.4156 9.68246 12.4156C9.68244 12.4156 9.68243 12.4156 9.68242 12.4156C9.68241 12.4156 9.6824 12.4156 9.68238 12.4156C9.68237 12.4156 9.68236 12.4156 9.68235 12.4156C9.68233 12.4156 9.68232 12.4156 9.68231 12.4156C9.6823 12.4156 9.68229 12.4156 9.68227 12.4156C9.68226 12.4156 9.68225 12.4156 9.68224 12.4156C9.68223 12.4156 9.68221 12.4156 9.6822 12.4156C9.68219 12.4156 9.68218 12.4156 9.68216 12.4156C9.68215 12.4156 9.68214 12.4156 9.68213 12.4156C9.68211 12.4156 9.6821 12.4156 9.68209 12.4156C9.68208 12.4156 9.68207 12.4156 9.68205 12.4156C9.68204 12.4156 9.68203 12.4156 9.68202 12.4156C9.682 12.4156 9.68199 12.4156 9.68198 12.4156C9.68197 12.4156 9.68196 12.4156 9.68194 12.4156C9.68193 12.4156 9.68192 12.4156 9.68191 12.4156C9.68189 12.4156 9.68188 12.4156 9.68187 12.4156C9.68186 12.4156 9.68184 12.4156 9.68183 12.4156C9.68182 12.4156 9.68181 12.4156 9.68179 12.4156C9.68178 12.4156 9.68177 12.4156 9.68176 12.4156C9.68175 12.4156 9.68173 12.4156 9.68172 12.4156C9.68171 12.4156 9.6817 12.4156 9.68168 12.4156C9.68167 12.4156 9.68166 12.4156 9.68165 12.4156C9.68163 12.4156 9.68162 12.4156 9.68161 12.4156C9.6816 12.4156 9.68158 12.4156 9.68157 12.4156C9.68156 12.4156 9.68155 12.4156 9.68153 12.4156C9.68152 12.4156 9.68151 12.4156 9.6815 12.4156C9.68148 12.4156 9.68147 12.4156 9.68146 12.4156C9.68145 12.4156 9.68143 12.4156 9.68142 12.4156C9.68141 12.4156 9.6814 12.4156 9.68138 12.4156C9.68137 12.4156 9.68136 12.4156 9.68135 12.4156C9.68133 12.4156 9.68132 12.4156 9.68131 12.4156C9.6813 12.4156 9.68128 12.4156 9.68127 12.4156C9.68126 12.4156 9.68125 12.4156 9.68123 12.4156C9.68122 12.4156 9.68121 12.4156 9.6812 12.4156C9.68118 12.4156 9.68117 12.4156 9.68116 12.4156C9.68114 12.4156 9.68113 12.4156 9.68112 12.4156C9.68111 12.4156 9.68109 12.4156 9.68108 12.4156C9.68107 12.4156 9.68106 12.4156 9.68104 12.4156C9.68103 12.4156 9.68102 12.4156 9.68101 12.4156C9.68099 12.4156 9.68098 12.4156 9.68097 12.4156C9.68096 12.4156 9.68094 12.4156 9.68093 12.4156C9.68092 12.4156 9.6809 12.4156 9.68089 12.4156C9.68088 12.4156 9.68087 12.4156 9.68085 12.4156C9.68084 12.4156 9.68083 12.4156 9.68082 12.4156C9.6808 12.4156 9.68079 12.4156 9.68078 12.4156C9.68076 12.4156 9.68075 12.4156 9.68074 12.4156C9.68073 12.4156 9.68071 12.4156 9.6807 12.4156C9.68069 12.4156 9.68068 12.4156 9.68066 12.4156C9.68065 12.4156 9.68064 12.4156 9.68062 12.4156C9.68061 12.4156 9.6806 12.4156 9.68059 12.4156C9.68057 12.4156 9.68056 12.4156 9.68055 12.4156C9.68053 12.4156 9.68052 12.4156 9.68051 12.4156C9.6805 12.4156 9.68048 12.4156 9.68047 12.4156C9.68046 12.4156 9.68044 12.4156 9.68043 12.4156C9.68042 12.4156 9.68041 12.4156 9.68039 12.4156C9.68038 12.4156 9.68037 12.4156 9.68035 12.4156C9.68034 12.4156 9.68033 12.4156 9.68032 12.4156C9.6803 12.4156 9.68029 12.4156 9.68028 12.4156C9.68026 12.4156 9.68025 12.4156 9.68024 12.4156C9.68023 12.4156 9.68021 12.4156 9.6802 12.4156C9.68019 12.4156 9.68017 12.4156 9.68016 12.4156C9.68015 12.4156 9.68014 12.4156 9.68012 12.4156C9.68011 12.4156 9.6801 12.4156 9.68008 12.4156C9.68007 12.4156 9.68006 12.4156 9.68004 12.4156C9.68003 12.4156 9.68002 12.4156 9.68001 12.4156C9.67999 12.4156 9.67998 12.4156 9.67997 12.4156C9.67995 12.4156 9.67994 12.4156 9.67993 12.4156C9.67991 12.4156 9.6799 12.4156 9.67989 12.4156C9.67988 12.4156 9.67986 12.4156 9.67985 12.4156C9.67984 12.4156 9.67982 12.4156 9.67981 12.4156C9.6798 12.4156 9.67978 12.4156 9.67977 12.4156C9.67976 12.4156 9.67975 12.4156 9.67973 12.4156C9.67972 12.4156 9.67971 12.4156 9.67969 12.4156C9.67968 12.4156 9.67967 12.4156 9.67965 12.4156C9.67964 12.4156 9.67963 12.4156 9.67961 12.4156C9.6796 12.4156 9.67959 12.4156 9.67957 12.4156C9.67956 12.4156 9.67955 12.4156 9.67954 12.4156C9.67952 12.4156 9.67951 12.4156 9.6795 12.4156C9.67948 12.4156 9.67947 12.4156 9.67946 12.4156C9.67944 12.4156 9.67943 12.4156 9.67942 12.4156C9.6794 12.4156 9.67939 12.4156 9.67938 12.4156C9.67936 12.4156 9.67935 12.4156 9.67934 12.4156C9.67933 12.4156 9.67931 12.4156 9.6793 12.4156C9.67929 12.4156 9.67927 12.4156 9.67926 12.4156C9.67925 12.4156 9.67923 12.4156 9.67922 12.4156C9.67921 12.4156 9.67919 12.4156 9.67918 12.4156C9.67917 12.4156 9.67915 12.4156 9.67914 12.4156C9.67913 12.4156 9.67911 12.4156 9.6791 12.4156C9.67909 12.4156 9.67907 12.4156 9.67906 12.4156C9.67905 12.4156 9.67903 12.4156 9.67902 12.4156C9.67901 12.4156 9.67899 12.4156 9.67898 12.4156C9.67897 12.4156 9.67895 12.4156 9.67894 12.4156C9.67893 12.4156 9.67891 12.4156 9.6789 12.4156C9.67889 12.4156 9.67887 12.4156 9.67886 12.4156C9.67885 12.4156 9.67883 12.4156 9.67882 12.4156C9.67881 12.4156 9.67879 12.4156 9.67878 12.4156C9.67877 12.4156 9.67875 12.4156 9.67874 12.4156C9.67873 12.4156 9.67871 12.4156 9.6787 12.4156C9.67869 12.4156 9.67867 12.4156 9.67866 12.4156C9.67865 12.4156 9.67863 12.4156 9.67862 12.4156C9.67861 12.4156 9.67859 12.4156 9.67858 12.4156C9.67857 12.4156 9.67855 12.4156 9.67854 12.4156C9.67853 12.4156 9.67851 12.4156 9.6785 12.4156C9.67849 12.4156 9.67847 12.4156 9.67846 12.4156C9.67845 12.4156 9.67843 12.4156 9.67842 12.4156C9.67841 12.4156 9.67839 12.4156 9.67838 12.4156C9.67837 12.4156 9.67835 12.4156 9.67834 12.4156C9.67833 12.4156 9.67831 12.4156 9.6783 12.4156C9.67829 12.4156 9.67827 12.4156 9.67826 12.4156C9.67825 12.4156 9.67823 12.4156 9.67822 12.4156C9.6782 12.4156 9.67819 12.4156 9.67818 12.4156C9.67816 12.4156 9.67815 12.4156 9.67814 12.4156C9.67812 12.4156 9.67811 12.4156 9.6781 12.4156C9.67808 12.4156 9.67807 12.4156 9.67806 12.4156C9.67804 12.4156 9.67803 12.4156 9.67802 12.4156C9.678 12.4156 9.67799 12.4156 9.67798 12.4156C9.67796 12.4156 9.67795 12.4156 9.67793 12.4156C9.67792 12.4156 9.67791 12.4156 9.67789 12.4156C9.67788 12.4156 9.67787 12.4156 9.67785 12.4156C9.67784 12.4156 9.67783 12.4156 9.67781 12.4156C9.6778 12.4156 9.67779 12.4156 9.67777 12.4156C9.67776 12.4156 9.67774 12.4156 9.67773 12.4156C9.67772 12.4156 9.6777 12.4156 9.67769 12.4156C9.67768 12.4156 9.67766 12.4156 9.67765 12.4156C9.67764 12.4156 9.67762 12.4156 9.67761 12.4156C9.67759 12.4156 9.67758 12.4156 9.67757 12.4156C9.67755 12.4156 9.67754 12.4156 9.67753 12.4156C9.67751 12.4156 9.6775 12.4156 9.67749 12.4156C9.67747 12.4156 9.67746 12.4156 9.67744 12.4156C9.67743 12.4156 9.67742 12.4156 9.6774 12.4156C9.67739 12.4156 9.67738 12.4156 9.67736 12.4156C9.67735 12.4156 9.67733 12.4156 9.67732 12.4156C9.67731 12.4156 9.67729 12.4156 9.67728 12.4156C9.67727 12.4156 9.67725 12.4156 9.67724 12.4156C9.67723 12.4156 9.67721 12.4156 9.6772 12.4156C9.67718 12.4156 9.67717 12.4156 9.67716 12.4156C9.67714 12.4156 9.67713 12.4156 9.67712 12.4156C9.6771 12.4156 9.67709 12.4156 9.67707 12.4156C9.67706 12.4156 9.67705 12.4156 9.67703 12.4156C9.67702 12.4156 9.67701 12.4156 9.67699 12.4156C9.67698 12.4156 9.67696 12.4156 9.67695 12.4156C9.67694 12.4156 9.67692 12.4156 9.67691 12.4156C9.6769 12.4156 9.67688 12.4156 9.67687 12.4156C9.67685 12.4156 9.67684 12.4156 9.67683 12.4156C9.67681 12.4156 9.6768 12.4156 9.67678 12.4156C9.67677 12.4156 9.67676 12.4156 9.67674 12.4156C9.67673 12.4156 9.67672 12.4156 9.6767 12.4156C9.67669 12.4156 9.67667 12.4156 9.67666 12.4156C9.67665 12.4156 9.67663 12.4156 9.67662 12.4156C9.6766 12.4156 9.67659 12.4156 9.67658 12.4156C9.67656 12.4156 9.67655 12.4156 9.67654 12.4156C9.67652 12.4156 9.67651 12.4156 9.67649 12.4156C9.67648 12.4156 9.67647 12.4156 9.67645 12.4156C9.67644 12.4156 9.67642 12.4156 9.67641 12.4156C9.6764 12.4156 9.67638 12.4156 9.67637 12.4156C9.67635 12.4156 9.67634 12.4156 9.67633 12.4156C9.67631 12.4156 9.6763 12.4156 9.67629 12.4156C9.67627 12.4156 9.67626 12.4156 9.67624 12.4156C9.67623 12.4156 9.67622 12.4156 9.6762 12.4156C9.67619 12.4156 9.67617 12.4156 9.67616 12.4156C9.67615 12.4156 9.67613 12.4156 9.67612 12.4156C9.6761 12.4156 9.67609 12.4156 9.67608 12.4156C9.67606 12.4156 9.67605 12.4156 9.67603 12.4156C9.67602 12.4156 9.67601 12.4156 9.67599 12.4156C9.67598 12.4156 9.67596 12.4156 9.67595 12.4156C9.67594 12.4156 9.67592 12.4156 9.67591 12.4156C9.67589 12.4156 9.67588 12.4156 9.67587 12.4156C9.67585 12.4156 9.67584 12.4156 9.67582 12.4156C9.67581 12.4156 9.6758 12.4156 9.67578 12.4156C9.67577 12.4156 9.67575 12.4156 9.67574 12.4156C9.67573 12.4156 9.67571 12.4156 9.6757 12.4156C9.67568 12.4156 9.67567 12.4156 9.67566 12.4156C9.67564 12.4156 9.67563 12.4156 9.67561 12.4156C9.6756 12.4156 9.67559 12.4156 9.67557 12.4156C9.67556 12.4156 9.67554 12.4156 9.67553 12.4156C9.67552 12.4156 9.6755 12.4156 9.67549 12.4156C9.67547 12.4156 9.67546 12.4156 9.67544 12.4156C9.67543 12.4156 9.67542 12.4156 9.6754 12.4156C9.67539 12.4156 9.67537 12.4156 9.67536 12.4156C9.67535 12.4156 9.67533 12.4156 9.67532 12.4156C9.6753 12.4156 9.67529 12.4156 9.67528 12.4156C9.67526 12.4156 9.67525 12.4156 9.67523 12.4156C9.67522 12.4156 9.67521 12.4156 9.67519 12.4156C9.67518 12.4156 9.67516 12.4156 9.67515 12.4156C9.67513 12.4156 9.67512 12.4156 9.67511 12.4156C9.67509 12.4156 9.67508 12.4156 9.67506 12.4156C9.67505 12.4156 9.67504 12.4156 9.67502 12.4156C9.67501 12.4156 9.67499 12.4156 9.67498 12.4156C9.67496 12.4156 9.67495 12.4156 9.67494 12.4156C9.67492 12.4156 9.67491 12.4156 9.67489 12.4156C9.67488 12.4156 9.67487 12.4156 9.67485 12.4156C9.67484 12.4156 9.67482 12.4156 9.67481 12.4156C9.67479 12.4156 9.67478 12.4156 9.67477 12.4156C9.67475 12.4156 9.67474 12.4156 9.67472 12.4156C9.67471 12.4156 9.67469 12.4156 9.67468 12.4156C9.67467 12.4156 9.67465 12.4156 9.67464 12.4156C9.67462 12.4156 9.67461 12.4156 9.6746 12.4156C9.67458 12.4156 9.67457 12.4156 9.67455 12.4156C9.67454 12.4156 9.67452 12.4156 9.67451 12.4156C9.6745 12.4156 9.67448 12.4156 9.67447 12.4156C9.67445 12.4156 9.67444 12.4156 9.67442 12.4156C9.67441 12.4156 9.6744 12.4156 9.67438 12.4156C9.67437 12.4156 9.67435 12.4156 9.67434 12.4156C9.67432 12.4156 9.67431 12.4156 9.6743 12.4156C9.67428 12.4156 9.67427 12.4156 9.67425 12.4156C9.67424 12.4156 9.67422 12.4156 9.67421 12.4156C9.6742 12.4156 9.67418 12.4156 9.67417 12.4156C9.67415 12.4156 9.67414 12.4156 9.67412 12.4156C9.67411 12.4156 9.6741 12.4156 9.67408 12.4156C9.67407 12.4156 9.67405 12.4156 9.67404 12.4156C9.67402 12.4156 9.67401 12.4156 9.674 12.4156C9.67398 12.4156 9.67397 12.4156 9.67395 12.4156C9.67394 12.4156 9.67392 12.4156 9.67391 12.4156C9.6739 12.4156 9.67388 12.4156 9.67387 12.4156C9.67385 12.4156 9.67384 12.4156 9.67382 12.4156C9.67381 12.4156 9.67379 12.4156 9.67378 12.4156C9.67377 12.4156 9.67375 12.4156 9.67374 12.4156C9.67372 12.4156 9.67371 12.4156 9.67369 12.4156C9.67368 12.4156 9.67367 12.4156 9.67365 12.4156C9.67364 12.4156 9.67362 12.4156 9.67361 12.4156C9.67359 12.4156 9.67358 12.4156 9.67356 12.4156C9.67355 12.4156 9.67354 12.4156 9.67352 12.4156C9.67351 12.4156 9.67349 12.4156 9.67348 12.4156C9.67346 12.4156 9.67345 12.4156 9.67344 12.4156C9.67342 12.4156 9.67341 12.4156 9.67339 12.4156C9.67338 12.4156 9.67336 12.4156 9.67335 12.4156C9.67333 12.4156 9.67332 12.4156 9.67331 12.4156C9.67329 12.4156 9.67328 12.4156 9.67326 12.4156C9.67325 12.4156 9.67323 12.4156 9.67322 12.4156C9.6732 12.4156 9.67319 12.4156 9.67318 12.4156C9.67316 12.4156 9.67315 12.4156 9.67313 12.4156C9.67312 12.4156 9.6731 12.4156 9.67309 12.4156C9.67307 12.4156 9.67306 12.4156 9.67305 12.4156C9.67303 12.4156 9.67302 12.4156 9.673 12.4156C9.67299 12.4156 9.67297 12.4156 9.67296 12.4156C9.67294 12.4156 9.67293 12.4156 9.67292 12.4156C9.6729 12.4156 9.67289 12.4156 9.67287 12.4156C9.67286 12.4156 9.67284 12.4156 9.67283 12.4156C9.67281 12.4156 9.6728 12.4156 9.67279 12.4156C9.67277 12.4156 9.67276 12.4156 9.67274 12.4156C9.67273 12.4156 9.67271 12.4156 9.6727 12.4156C9.67268 12.4156 9.67267 12.4156 9.67265 12.4156C9.67264 12.4156 9.67263 12.4156 9.67261 12.4156C9.6726 12.4156 9.67258 12.4156 9.67257 12.4156C9.67255 12.4156 9.67254 12.4156 9.67252 12.4156C9.67251 12.4156 9.6725 12.4156 9.67248 12.4156C9.67247 12.4156 9.67245 12.4156 9.67244 12.4156C9.67242 12.4156 9.67241 12.4156 9.67239 12.4156C9.67238 12.4156 9.67236 12.4156 9.67235 12.4156C9.67234 12.4156 9.67232 12.4156 9.67231 12.4156C9.67229 12.4156 9.67228 12.4156 9.67226 12.4156C9.67225 12.4156 9.67223 12.4156 9.67222 12.4156C9.6722 12.4156 9.67219 12.4156 9.67218 12.4156C9.67216 12.4156 9.67215 12.4156 9.67213 12.4156C9.67212 12.4156 9.6721 12.4156 9.67209 12.4156C9.67207 12.4156 9.67206 12.4156 9.67204 12.4156C9.67203 12.4156 9.67201 12.4156 9.672 12.4156C9.67199 12.4156 9.67197 12.4156 9.67196 12.4156C9.67194 12.4156 9.67193 12.4156 9.67191 12.4156C9.6719 12.4156 9.67188 12.4156 9.67187 12.4156C9.67185 12.4156 9.67184 12.4156 9.67183 12.4156C9.67181 12.4156 9.6718 12.4156 9.67178 12.4156C9.67177 12.4156 9.67175 12.4156 9.67174 12.4156C9.67172 12.4156 9.67171 12.4156 9.67169 12.4156C9.67168 12.4156 9.67166 12.4156 9.67165 12.4156C9.67164 12.4156 9.67162 12.4156 9.67161 12.4156C9.67159 12.4156 9.67158 12.4156 9.67156 12.4156C9.67155 12.4156 9.67153 12.4156 9.67152 12.4156C9.6715 12.4156 9.67149 12.4156 9.67147 12.4156C9.67146 12.4156 9.67145 12.4156 9.67143 12.4156C9.67142 12.4156 9.6714 12.4156 9.67139 12.4156C9.67137 12.4156 9.67136 12.4156 9.67134 12.4156C9.67133 12.4156 9.67131 12.4156 9.6713 12.4156C9.67128 12.4156 9.67127 12.4156 9.67125 12.4156C9.67124 12.4156 9.67123 12.4156 9.67121 12.4156C9.6712 12.4156 9.67118 12.4156 9.67117 12.4156C9.67115 12.4156 9.67114 12.4156 9.67112 12.4156C9.67111 12.4156 9.67109 12.4156 9.67108 12.4156C9.67106 12.4156 9.67105 12.4156 9.67103 12.4156C9.67102 12.4156 9.67101 12.4156 9.67099 12.4156C9.67098 12.4156 9.67096 12.4156 9.67095 12.4156C9.67093 12.4156 9.67092 12.4156 9.6709 12.4156C9.67089 12.4156 9.67087 12.4156 9.67086 12.4156C9.67084 12.4156 9.67083 12.4156 9.67081 12.4156C9.6708 12.4156 9.67078 12.4156 9.67077 12.4156C9.67076 12.4156 9.67074 12.4156 9.67073 12.4156C9.67071 12.4156 9.6707 12.4156 9.67068 12.4156C9.67067 12.4156 9.67065 12.4156 9.67064 12.4156C9.67062 12.4156 9.67061 12.4156 9.67059 12.4156C9.67058 12.4156 9.67056 12.4156 9.67055 12.4156C9.67053 12.4156 9.67052 12.4156 9.67051 12.4156C9.67049 12.4156 9.67048 12.4156 9.67046 12.4156C9.67045 12.4156 9.67043 12.4156 9.67042 12.4156C9.6704 12.4156 9.67039 12.4156 9.67037 12.4156C9.67036 12.4156 9.67034 12.4156 9.67033 12.4156C9.67031 12.4156 9.6703 12.4156 9.67028 12.4156C9.67027 12.4156 9.67026 12.4156 9.67024 12.4156C9.67023 12.4156 9.67021 12.4156 9.6702 12.4156C9.67018 12.4156 9.67017 12.4156 9.67015 12.4156C9.67014 12.4156 9.67012 12.4156 9.67011 12.4156C9.67009 12.4156 9.67008 12.4156 9.67006 12.4156C9.67005 12.4156 9.67003 12.4156 9.67002 12.4156C9.67 12.4156 9.66999 12.4156 9.66997 12.4156C9.66996 12.4156 9.66995 12.4156 9.66993 12.4156C9.66992 12.4156 9.6699 12.4156 9.66989 12.4156C9.66987 12.4156 9.66986 12.4156 9.66984 12.4156C9.66983 12.4156 9.66981 12.4156 9.6698 12.4156C9.66978 12.4156 9.66977 12.4156 9.66975 12.4156C9.66974 12.4156 9.66972 12.4156 9.66971 12.4156C9.66969 12.4156 9.66968 12.4156 9.66966 12.4156C9.66965 12.4156 9.66964 12.4156 9.66962 12.4156C9.66961 12.4156 9.66959 12.4156 9.66958 12.4156C9.66956 12.4156 9.66955 12.4156 9.66953 12.4156C9.66952 12.4156 9.6695 12.4156 9.66949 12.4156C9.66947 12.4156 9.66946 12.4156 9.66944 12.4156C9.66943 12.4156 9.66941 12.4156 9.6694 12.4156C9.66938 12.4156 9.66937 12.4156 9.66935 12.4156C9.66934 12.4156 9.66932 12.4156 9.66931 12.4156C9.6693 12.4156 9.66928 12.4156 9.66927 12.4156C9.66925 12.4156 9.66924 12.4156 9.66922 12.4156C9.66921 12.4156 9.66919 12.4156 9.66918 12.4156C9.66916 12.4156 9.66915 12.4156 9.66913 12.4156C9.66912 12.4156 9.6691 12.4156 9.66909 12.4156C9.66907 12.4156 9.66906 12.4156 9.66904 12.4156C9.66903 12.4156 9.66901 12.4156 9.669 12.4156C9.66898 12.4156 9.66897 12.4156 9.66895 12.4156C9.66894 12.4156 9.66893 12.4156 9.66891 12.4156C9.6689 12.4156 9.66888 12.4156 9.66887 12.4156C9.66885 12.4156 9.66884 12.4156 9.66882 12.4156C9.66881 12.4156 9.66879 12.4156 9.66878 12.4156C9.66876 12.4156 9.66875 12.4156 9.66873 12.4156C9.66872 12.4156 9.6687 12.4156 9.66869 12.4156C9.66867 12.4156 9.66866 12.4156 9.66864 12.4156C9.66863 12.4156 9.66861 12.4156 9.6686 12.4156C9.66858 12.4156 9.66857 12.4156 9.66855 12.4156C9.66854 12.4156 9.66852 12.4156 9.66851 12.4156C9.6685 12.4156 9.66848 12.4156 9.66847 12.4156C9.66845 12.4156 9.66844 12.4156 9.66842 12.4156C9.66841 12.4156 9.66839 12.4156 9.66838 12.4156C9.66836 12.4156 9.66835 12.4156 9.66833 12.4156C9.66832 12.4156 9.6683 12.4156 9.66829 12.4156C9.66827 12.4156 9.66826 12.4156 9.66824 12.4156C9.66823 12.4156 9.66821 12.4156 9.6682 12.4156C9.66818 12.4156 9.66817 12.4156 9.66815 12.4156C9.66814 12.4156 9.66812 12.4156 9.66811 12.4156C9.66809 12.4156 9.66808 12.4156 9.66806 12.4156C9.66805 12.4156 9.66803 12.4156 9.66802 12.4156C9.66801 12.4156 9.66799 12.4156 9.66798 12.4156C9.66796 12.4156 9.66795 12.4156 9.66793 12.4156C9.66792 12.4156 9.6679 12.4156 9.66789 12.4156C9.66787 12.4156 9.66786 12.4156 9.66784 12.4156C9.66783 12.4156 9.66781 12.4156 9.6678 12.4156C9.66778 12.4156 9.66777 12.4156 9.66775 12.4156C9.66774 12.4156 9.66772 12.4156 9.66771 12.4156C9.66769 12.4156 9.66768 12.4156 9.66766 12.4156C9.66765 12.4156 9.66763 12.4156 9.66762 12.4156C9.6676 12.4156 9.66759 12.4156 9.66757 12.4156C9.66756 12.4156 9.66754 12.4156 9.66753 12.4156C9.66751 12.4156 9.6675 12.4156 9.66749 12.4156C9.66747 12.4156 9.66746 12.4156 9.66744 12.4156C9.66743 12.4156 9.66741 12.4156 9.6674 12.4156C9.66738 12.4156 9.66737 12.4156 9.66735 12.4156C9.66734 12.4156 9.66732 12.4156 9.66731 12.4156C9.66729 12.4156 9.66728 12.4156 9.66726 12.4156C9.66725 12.4156 9.66723 12.4156 9.66722 12.4156C9.6672 12.4156 9.66719 12.4156 9.66717 12.4156C9.66716 12.4156 9.66714 12.4156 9.66713 12.4156C9.66711 12.4156 9.6671 12.4156 9.66708 12.4156C9.66707 12.4156 9.66705 12.4156 9.66704 12.4156C9.66702 12.4156 9.66701 12.4156 9.66699 12.4156C9.66698 12.4156 9.66696 12.4156 9.66695 12.4156C9.66694 12.4156 9.66692 12.4156 9.66691 12.4156C9.66689 12.4156 9.66688 12.4156 9.66686 12.4156C9.66685 12.4156 9.66683 12.4156 9.66682 12.4156C9.6668 12.4156 9.66679 12.4156 9.66677 12.4156C9.66676 12.4156 9.66674 12.4156 9.66673 12.4156C9.66671 12.4156 9.6667 12.4156 9.66668 12.4156C9.66667 12.4156 9.66665 12.4156 9.66664 12.4156C9.66662 12.4156 9.66661 12.4156 9.66659 12.4156C9.66658 12.4156 9.66656 12.4156 9.66655 12.4156C9.66653 12.4156 9.66652 12.4156 9.6665 12.4156V13.4156C9.66652 13.4156 9.66653 13.4156 9.66655 13.4156C9.66656 13.4156 9.66658 13.4156 9.66659 13.4156C9.66661 13.4156 9.66662 13.4156 9.66664 13.4156C9.66665 13.4156 9.66667 13.4156 9.66668 13.4156C9.6667 13.4156 9.66671 13.4156 9.66673 13.4156C9.66674 13.4156 9.66676 13.4156 9.66677 13.4156C9.66679 13.4156 9.6668 13.4156 9.66682 13.4156C9.66683 13.4156 9.66685 13.4156 9.66686 13.4156C9.66688 13.4156 9.66689 13.4156 9.66691 13.4156C9.66692 13.4156 9.66694 13.4156 9.66695 13.4156C9.66696 13.4156 9.66698 13.4156 9.66699 13.4156C9.66701 13.4156 9.66702 13.4156 9.66704 13.4156C9.66705 13.4156 9.66707 13.4156 9.66708 13.4156C9.6671 13.4156 9.66711 13.4156 9.66713 13.4156C9.66714 13.4156 9.66716 13.4156 9.66717 13.4156C9.66719 13.4156 9.6672 13.4156 9.66722 13.4156C9.66723 13.4156 9.66725 13.4156 9.66726 13.4156C9.66728 13.4156 9.66729 13.4156 9.66731 13.4156C9.66732 13.4156 9.66734 13.4156 9.66735 13.4156C9.66737 13.4156 9.66738 13.4156 9.6674 13.4156C9.66741 13.4156 9.66743 13.4156 9.66744 13.4156C9.66746 13.4156 9.66747 13.4156 9.66749 13.4156C9.6675 13.4156 9.66751 13.4156 9.66753 13.4156C9.66754 13.4156 9.66756 13.4156 9.66757 13.4156C9.66759 13.4156 9.6676 13.4156 9.66762 13.4156C9.66763 13.4156 9.66765 13.4156 9.66766 13.4156C9.66768 13.4156 9.66769 13.4156 9.66771 13.4156C9.66772 13.4156 9.66774 13.4156 9.66775 13.4156C9.66777 13.4156 9.66778 13.4156 9.6678 13.4156C9.66781 13.4156 9.66783 13.4156 9.66784 13.4156C9.66786 13.4156 9.66787 13.4156 9.66789 13.4156C9.6679 13.4156 9.66792 13.4156 9.66793 13.4156C9.66795 13.4156 9.66796 13.4156 9.66798 13.4156C9.66799 13.4156 9.66801 13.4156 9.66802 13.4156C9.66803 13.4156 9.66805 13.4156 9.66806 13.4156C9.66808 13.4156 9.66809 13.4156 9.66811 13.4156C9.66812 13.4156 9.66814 13.4156 9.66815 13.4156C9.66817 13.4156 9.66818 13.4156 9.6682 13.4156C9.66821 13.4156 9.66823 13.4156 9.66824 13.4156C9.66826 13.4156 9.66827 13.4156 9.66829 13.4156C9.6683 13.4156 9.66832 13.4156 9.66833 13.4156C9.66835 13.4156 9.66836 13.4156 9.66838 13.4156C9.66839 13.4156 9.66841 13.4156 9.66842 13.4156C9.66844 13.4156 9.66845 13.4156 9.66847 13.4156C9.66848 13.4156 9.6685 13.4156 9.66851 13.4156C9.66852 13.4156 9.66854 13.4156 9.66855 13.4156C9.66857 13.4156 9.66858 13.4156 9.6686 13.4156C9.66861 13.4156 9.66863 13.4156 9.66864 13.4156C9.66866 13.4156 9.66867 13.4156 9.66869 13.4156C9.6687 13.4156 9.66872 13.4156 9.66873 13.4156C9.66875 13.4156 9.66876 13.4156 9.66878 13.4156C9.66879 13.4156 9.66881 13.4156 9.66882 13.4156C9.66884 13.4156 9.66885 13.4156 9.66887 13.4156C9.66888 13.4156 9.6689 13.4156 9.66891 13.4156C9.66893 13.4156 9.66894 13.4156 9.66895 13.4156C9.66897 13.4156 9.66898 13.4156 9.669 13.4156C9.66901 13.4156 9.66903 13.4156 9.66904 13.4156C9.66906 13.4156 9.66907 13.4156 9.66909 13.4156C9.6691 13.4156 9.66912 13.4156 9.66913 13.4156C9.66915 13.4156 9.66916 13.4156 9.66918 13.4156C9.66919 13.4156 9.66921 13.4156 9.66922 13.4156C9.66924 13.4156 9.66925 13.4156 9.66927 13.4156C9.66928 13.4156 9.6693 13.4156 9.66931 13.4156C9.66932 13.4156 9.66934 13.4156 9.66935 13.4156C9.66937 13.4156 9.66938 13.4156 9.6694 13.4156C9.66941 13.4156 9.66943 13.4156 9.66944 13.4156C9.66946 13.4156 9.66947 13.4156 9.66949 13.4156C9.6695 13.4156 9.66952 13.4156 9.66953 13.4156C9.66955 13.4156 9.66956 13.4156 9.66958 13.4156C9.66959 13.4156 9.66961 13.4156 9.66962 13.4156C9.66964 13.4156 9.66965 13.4156 9.66966 13.4156C9.66968 13.4156 9.66969 13.4156 9.66971 13.4156C9.66972 13.4156 9.66974 13.4156 9.66975 13.4156C9.66977 13.4156 9.66978 13.4156 9.6698 13.4156C9.66981 13.4156 9.66983 13.4156 9.66984 13.4156C9.66986 13.4156 9.66987 13.4156 9.66989 13.4156C9.6699 13.4156 9.66992 13.4156 9.66993 13.4156C9.66995 13.4156 9.66996 13.4156 9.66997 13.4156C9.66999 13.4156 9.67 13.4156 9.67002 13.4156C9.67003 13.4156 9.67005 13.4156 9.67006 13.4156C9.67008 13.4156 9.67009 13.4156 9.67011 13.4156C9.67012 13.4156 9.67014 13.4156 9.67015 13.4156C9.67017 13.4156 9.67018 13.4156 9.6702 13.4156C9.67021 13.4156 9.67023 13.4156 9.67024 13.4156C9.67026 13.4156 9.67027 13.4156 9.67028 13.4156C9.6703 13.4156 9.67031 13.4156 9.67033 13.4156C9.67034 13.4156 9.67036 13.4156 9.67037 13.4156C9.67039 13.4156 9.6704 13.4156 9.67042 13.4156C9.67043 13.4156 9.67045 13.4156 9.67046 13.4156C9.67048 13.4156 9.67049 13.4156 9.67051 13.4156C9.67052 13.4156 9.67053 13.4156 9.67055 13.4156C9.67056 13.4156 9.67058 13.4156 9.67059 13.4156C9.67061 13.4156 9.67062 13.4156 9.67064 13.4156C9.67065 13.4156 9.67067 13.4156 9.67068 13.4156C9.6707 13.4156 9.67071 13.4156 9.67073 13.4156C9.67074 13.4156 9.67076 13.4156 9.67077 13.4156C9.67078 13.4156 9.6708 13.4156 9.67081 13.4156C9.67083 13.4156 9.67084 13.4156 9.67086 13.4156C9.67087 13.4156 9.67089 13.4156 9.6709 13.4156C9.67092 13.4156 9.67093 13.4156 9.67095 13.4156C9.67096 13.4156 9.67098 13.4156 9.67099 13.4156C9.67101 13.4156 9.67102 13.4156 9.67103 13.4156C9.67105 13.4156 9.67106 13.4156 9.67108 13.4156C9.67109 13.4156 9.67111 13.4156 9.67112 13.4156C9.67114 13.4156 9.67115 13.4156 9.67117 13.4156C9.67118 13.4156 9.6712 13.4156 9.67121 13.4156C9.67123 13.4156 9.67124 13.4156 9.67125 13.4156C9.67127 13.4156 9.67128 13.4156 9.6713 13.4156C9.67131 13.4156 9.67133 13.4156 9.67134 13.4156C9.67136 13.4156 9.67137 13.4156 9.67139 13.4156C9.6714 13.4156 9.67142 13.4156 9.67143 13.4156C9.67145 13.4156 9.67146 13.4156 9.67147 13.4156C9.67149 13.4156 9.6715 13.4156 9.67152 13.4156C9.67153 13.4156 9.67155 13.4156 9.67156 13.4156C9.67158 13.4156 9.67159 13.4156 9.67161 13.4156C9.67162 13.4156 9.67164 13.4156 9.67165 13.4156C9.67166 13.4156 9.67168 13.4156 9.67169 13.4156C9.67171 13.4156 9.67172 13.4156 9.67174 13.4156C9.67175 13.4156 9.67177 13.4156 9.67178 13.4156C9.6718 13.4156 9.67181 13.4156 9.67183 13.4156C9.67184 13.4156 9.67185 13.4156 9.67187 13.4156C9.67188 13.4156 9.6719 13.4156 9.67191 13.4156C9.67193 13.4156 9.67194 13.4156 9.67196 13.4156C9.67197 13.4156 9.67199 13.4156 9.672 13.4156C9.67201 13.4156 9.67203 13.4156 9.67204 13.4156C9.67206 13.4156 9.67207 13.4156 9.67209 13.4156C9.6721 13.4156 9.67212 13.4156 9.67213 13.4156C9.67215 13.4156 9.67216 13.4156 9.67218 13.4156C9.67219 13.4156 9.6722 13.4156 9.67222 13.4156C9.67223 13.4156 9.67225 13.4156 9.67226 13.4156C9.67228 13.4156 9.67229 13.4156 9.67231 13.4156C9.67232 13.4156 9.67234 13.4156 9.67235 13.4156C9.67236 13.4156 9.67238 13.4156 9.67239 13.4156C9.67241 13.4156 9.67242 13.4156 9.67244 13.4156C9.67245 13.4156 9.67247 13.4156 9.67248 13.4156C9.6725 13.4156 9.67251 13.4156 9.67252 13.4156C9.67254 13.4156 9.67255 13.4156 9.67257 13.4156C9.67258 13.4156 9.6726 13.4156 9.67261 13.4156C9.67263 13.4156 9.67264 13.4156 9.67265 13.4156C9.67267 13.4156 9.67268 13.4156 9.6727 13.4156C9.67271 13.4156 9.67273 13.4156 9.67274 13.4156C9.67276 13.4156 9.67277 13.4156 9.67279 13.4156C9.6728 13.4156 9.67281 13.4156 9.67283 13.4156C9.67284 13.4156 9.67286 13.4156 9.67287 13.4156C9.67289 13.4156 9.6729 13.4156 9.67292 13.4156C9.67293 13.4156 9.67294 13.4156 9.67296 13.4156C9.67297 13.4156 9.67299 13.4156 9.673 13.4156C9.67302 13.4156 9.67303 13.4156 9.67305 13.4156C9.67306 13.4156 9.67307 13.4156 9.67309 13.4156C9.6731 13.4156 9.67312 13.4156 9.67313 13.4156C9.67315 13.4156 9.67316 13.4156 9.67318 13.4156C9.67319 13.4156 9.6732 13.4156 9.67322 13.4156C9.67323 13.4156 9.67325 13.4156 9.67326 13.4156C9.67328 13.4156 9.67329 13.4156 9.67331 13.4156C9.67332 13.4156 9.67333 13.4156 9.67335 13.4156C9.67336 13.4156 9.67338 13.4156 9.67339 13.4156C9.67341 13.4156 9.67342 13.4156 9.67344 13.4156C9.67345 13.4156 9.67346 13.4156 9.67348 13.4156C9.67349 13.4156 9.67351 13.4156 9.67352 13.4156C9.67354 13.4156 9.67355 13.4156 9.67356 13.4156C9.67358 13.4156 9.67359 13.4156 9.67361 13.4156C9.67362 13.4156 9.67364 13.4156 9.67365 13.4156C9.67367 13.4156 9.67368 13.4156 9.67369 13.4156C9.67371 13.4156 9.67372 13.4156 9.67374 13.4156C9.67375 13.4156 9.67377 13.4156 9.67378 13.4156C9.67379 13.4156 9.67381 13.4156 9.67382 13.4156C9.67384 13.4156 9.67385 13.4156 9.67387 13.4156C9.67388 13.4156 9.6739 13.4156 9.67391 13.4156C9.67392 13.4156 9.67394 13.4156 9.67395 13.4156C9.67397 13.4156 9.67398 13.4156 9.674 13.4156C9.67401 13.4156 9.67402 13.4156 9.67404 13.4156C9.67405 13.4156 9.67407 13.4156 9.67408 13.4156C9.6741 13.4156 9.67411 13.4156 9.67412 13.4156C9.67414 13.4156 9.67415 13.4156 9.67417 13.4156C9.67418 13.4156 9.6742 13.4156 9.67421 13.4156C9.67422 13.4156 9.67424 13.4156 9.67425 13.4156C9.67427 13.4156 9.67428 13.4156 9.6743 13.4156C9.67431 13.4156 9.67432 13.4156 9.67434 13.4156C9.67435 13.4156 9.67437 13.4156 9.67438 13.4156C9.6744 13.4156 9.67441 13.4156 9.67442 13.4156C9.67444 13.4156 9.67445 13.4156 9.67447 13.4156C9.67448 13.4156 9.6745 13.4156 9.67451 13.4156C9.67452 13.4156 9.67454 13.4156 9.67455 13.4156C9.67457 13.4156 9.67458 13.4156 9.6746 13.4156C9.67461 13.4156 9.67462 13.4156 9.67464 13.4156C9.67465 13.4156 9.67467 13.4156 9.67468 13.4156C9.67469 13.4156 9.67471 13.4156 9.67472 13.4156C9.67474 13.4156 9.67475 13.4156 9.67477 13.4156C9.67478 13.4156 9.67479 13.4156 9.67481 13.4156C9.67482 13.4156 9.67484 13.4156 9.67485 13.4156C9.67487 13.4156 9.67488 13.4156 9.67489 13.4156C9.67491 13.4156 9.67492 13.4156 9.67494 13.4156C9.67495 13.4156 9.67496 13.4156 9.67498 13.4156C9.67499 13.4156 9.67501 13.4156 9.67502 13.4156C9.67504 13.4156 9.67505 13.4156 9.67506 13.4156C9.67508 13.4156 9.67509 13.4156 9.67511 13.4156C9.67512 13.4156 9.67513 13.4156 9.67515 13.4156C9.67516 13.4156 9.67518 13.4156 9.67519 13.4156C9.67521 13.4156 9.67522 13.4156 9.67523 13.4156C9.67525 13.4156 9.67526 13.4156 9.67528 13.4156C9.67529 13.4156 9.6753 13.4156 9.67532 13.4156C9.67533 13.4156 9.67535 13.4156 9.67536 13.4156C9.67537 13.4156 9.67539 13.4156 9.6754 13.4156C9.67542 13.4156 9.67543 13.4156 9.67544 13.4156C9.67546 13.4156 9.67547 13.4156 9.67549 13.4156C9.6755 13.4156 9.67552 13.4156 9.67553 13.4156C9.67554 13.4156 9.67556 13.4156 9.67557 13.4156C9.67559 13.4156 9.6756 13.4156 9.67561 13.4156C9.67563 13.4156 9.67564 13.4156 9.67566 13.4156C9.67567 13.4156 9.67568 13.4156 9.6757 13.4156C9.67571 13.4156 9.67573 13.4156 9.67574 13.4156C9.67575 13.4156 9.67577 13.4156 9.67578 13.4156C9.6758 13.4156 9.67581 13.4156 9.67582 13.4156C9.67584 13.4156 9.67585 13.4156 9.67587 13.4156C9.67588 13.4156 9.67589 13.4156 9.67591 13.4156C9.67592 13.4156 9.67594 13.4156 9.67595 13.4156C9.67596 13.4156 9.67598 13.4156 9.67599 13.4156C9.67601 13.4156 9.67602 13.4156 9.67603 13.4156C9.67605 13.4156 9.67606 13.4156 9.67608 13.4156C9.67609 13.4156 9.6761 13.4156 9.67612 13.4156C9.67613 13.4156 9.67615 13.4156 9.67616 13.4156C9.67617 13.4156 9.67619 13.4156 9.6762 13.4156C9.67622 13.4156 9.67623 13.4156 9.67624 13.4156C9.67626 13.4156 9.67627 13.4156 9.67629 13.4156C9.6763 13.4156 9.67631 13.4156 9.67633 13.4156C9.67634 13.4156 9.67635 13.4156 9.67637 13.4156C9.67638 13.4156 9.6764 13.4156 9.67641 13.4156C9.67642 13.4156 9.67644 13.4156 9.67645 13.4156C9.67647 13.4156 9.67648 13.4156 9.67649 13.4156C9.67651 13.4156 9.67652 13.4156 9.67654 13.4156C9.67655 13.4156 9.67656 13.4156 9.67658 13.4156C9.67659 13.4156 9.6766 13.4156 9.67662 13.4156C9.67663 13.4156 9.67665 13.4156 9.67666 13.4156C9.67667 13.4156 9.67669 13.4156 9.6767 13.4156C9.67672 13.4156 9.67673 13.4156 9.67674 13.4156C9.67676 13.4156 9.67677 13.4156 9.67678 13.4156C9.6768 13.4156 9.67681 13.4156 9.67683 13.4156C9.67684 13.4156 9.67685 13.4156 9.67687 13.4156C9.67688 13.4156 9.6769 13.4156 9.67691 13.4156C9.67692 13.4156 9.67694 13.4156 9.67695 13.4156C9.67696 13.4156 9.67698 13.4156 9.67699 13.4156C9.67701 13.4156 9.67702 13.4156 9.67703 13.4156C9.67705 13.4156 9.67706 13.4156 9.67707 13.4156C9.67709 13.4156 9.6771 13.4156 9.67712 13.4156C9.67713 13.4156 9.67714 13.4156 9.67716 13.4156C9.67717 13.4156 9.67718 13.4156 9.6772 13.4156C9.67721 13.4156 9.67723 13.4156 9.67724 13.4156C9.67725 13.4156 9.67727 13.4156 9.67728 13.4156C9.67729 13.4156 9.67731 13.4156 9.67732 13.4156C9.67733 13.4156 9.67735 13.4156 9.67736 13.4156C9.67738 13.4156 9.67739 13.4156 9.6774 13.4156C9.67742 13.4156 9.67743 13.4156 9.67744 13.4156C9.67746 13.4156 9.67747 13.4156 9.67749 13.4156C9.6775 13.4156 9.67751 13.4156 9.67753 13.4156C9.67754 13.4156 9.67755 13.4156 9.67757 13.4156C9.67758 13.4156 9.67759 13.4156 9.67761 13.4156C9.67762 13.4156 9.67764 13.4156 9.67765 13.4156C9.67766 13.4156 9.67768 13.4156 9.67769 13.4156C9.6777 13.4156 9.67772 13.4156 9.67773 13.4156C9.67774 13.4156 9.67776 13.4156 9.67777 13.4156C9.67779 13.4156 9.6778 13.4156 9.67781 13.4156C9.67783 13.4156 9.67784 13.4156 9.67785 13.4156C9.67787 13.4156 9.67788 13.4156 9.67789 13.4156C9.67791 13.4156 9.67792 13.4156 9.67793 13.4156C9.67795 13.4156 9.67796 13.4156 9.67798 13.4156C9.67799 13.4156 9.678 13.4156 9.67802 13.4156C9.67803 13.4156 9.67804 13.4156 9.67806 13.4156C9.67807 13.4156 9.67808 13.4156 9.6781 13.4156C9.67811 13.4156 9.67812 13.4156 9.67814 13.4156C9.67815 13.4156 9.67816 13.4156 9.67818 13.4156C9.67819 13.4156 9.6782 13.4156 9.67822 13.4156C9.67823 13.4156 9.67825 13.4156 9.67826 13.4156C9.67827 13.4156 9.67829 13.4156 9.6783 13.4156C9.67831 13.4156 9.67833 13.4156 9.67834 13.4156C9.67835 13.4156 9.67837 13.4156 9.67838 13.4156C9.67839 13.4156 9.67841 13.4156 9.67842 13.4156C9.67843 13.4156 9.67845 13.4156 9.67846 13.4156C9.67847 13.4156 9.67849 13.4156 9.6785 13.4156C9.67851 13.4156 9.67853 13.4156 9.67854 13.4156C9.67855 13.4156 9.67857 13.4156 9.67858 13.4156C9.67859 13.4156 9.67861 13.4156 9.67862 13.4156C9.67863 13.4156 9.67865 13.4156 9.67866 13.4156C9.67867 13.4156 9.67869 13.4156 9.6787 13.4156C9.67871 13.4156 9.67873 13.4156 9.67874 13.4156C9.67875 13.4156 9.67877 13.4156 9.67878 13.4156C9.67879 13.4156 9.67881 13.4156 9.67882 13.4156C9.67883 13.4156 9.67885 13.4156 9.67886 13.4156C9.67887 13.4156 9.67889 13.4156 9.6789 13.4156C9.67891 13.4156 9.67893 13.4156 9.67894 13.4156C9.67895 13.4156 9.67897 13.4156 9.67898 13.4156C9.67899 13.4156 9.67901 13.4156 9.67902 13.4156C9.67903 13.4156 9.67905 13.4156 9.67906 13.4156C9.67907 13.4156 9.67909 13.4156 9.6791 13.4156C9.67911 13.4156 9.67913 13.4156 9.67914 13.4156C9.67915 13.4156 9.67917 13.4156 9.67918 13.4156C9.67919 13.4156 9.67921 13.4156 9.67922 13.4156C9.67923 13.4156 9.67925 13.4156 9.67926 13.4156C9.67927 13.4156 9.67929 13.4156 9.6793 13.4156C9.67931 13.4156 9.67933 13.4156 9.67934 13.4156C9.67935 13.4156 9.67936 13.4156 9.67938 13.4156C9.67939 13.4156 9.6794 13.4156 9.67942 13.4156C9.67943 13.4156 9.67944 13.4156 9.67946 13.4156C9.67947 13.4156 9.67948 13.4156 9.6795 13.4156C9.67951 13.4156 9.67952 13.4156 9.67954 13.4156C9.67955 13.4156 9.67956 13.4156 9.67957 13.4156C9.67959 13.4156 9.6796 13.4156 9.67961 13.4156C9.67963 13.4156 9.67964 13.4156 9.67965 13.4156C9.67967 13.4156 9.67968 13.4156 9.67969 13.4156C9.67971 13.4156 9.67972 13.4156 9.67973 13.4156C9.67975 13.4156 9.67976 13.4156 9.67977 13.4156C9.67978 13.4156 9.6798 13.4156 9.67981 13.4156C9.67982 13.4156 9.67984 13.4156 9.67985 13.4156C9.67986 13.4156 9.67988 13.4156 9.67989 13.4156C9.6799 13.4156 9.67991 13.4156 9.67993 13.4156C9.67994 13.4156 9.67995 13.4156 9.67997 13.4156C9.67998 13.4156 9.67999 13.4156 9.68001 13.4156C9.68002 13.4156 9.68003 13.4156 9.68004 13.4156C9.68006 13.4156 9.68007 13.4156 9.68008 13.4156C9.6801 13.4156 9.68011 13.4156 9.68012 13.4156C9.68014 13.4156 9.68015 13.4156 9.68016 13.4156C9.68017 13.4156 9.68019 13.4156 9.6802 13.4156C9.68021 13.4156 9.68023 13.4156 9.68024 13.4156C9.68025 13.4156 9.68026 13.4156 9.68028 13.4156C9.68029 13.4156 9.6803 13.4156 9.68032 13.4156C9.68033 13.4156 9.68034 13.4156 9.68035 13.4156C9.68037 13.4156 9.68038 13.4156 9.68039 13.4156C9.68041 13.4156 9.68042 13.4156 9.68043 13.4156C9.68044 13.4156 9.68046 13.4156 9.68047 13.4156C9.68048 13.4156 9.6805 13.4156 9.68051 13.4156C9.68052 13.4156 9.68053 13.4156 9.68055 13.4156C9.68056 13.4156 9.68057 13.4156 9.68059 13.4156C9.6806 13.4156 9.68061 13.4156 9.68062 13.4156C9.68064 13.4156 9.68065 13.4156 9.68066 13.4156C9.68068 13.4156 9.68069 13.4156 9.6807 13.4156C9.68071 13.4156 9.68073 13.4156 9.68074 13.4156C9.68075 13.4156 9.68076 13.4156 9.68078 13.4156C9.68079 13.4156 9.6808 13.4156 9.68082 13.4156C9.68083 13.4156 9.68084 13.4156 9.68085 13.4156C9.68087 13.4156 9.68088 13.4156 9.68089 13.4156C9.6809 13.4156 9.68092 13.4156 9.68093 13.4156C9.68094 13.4156 9.68096 13.4156 9.68097 13.4156C9.68098 13.4156 9.68099 13.4156 9.68101 13.4156C9.68102 13.4156 9.68103 13.4156 9.68104 13.4156C9.68106 13.4156 9.68107 13.4156 9.68108 13.4156C9.68109 13.4156 9.68111 13.4156 9.68112 13.4156C9.68113 13.4156 9.68114 13.4156 9.68116 13.4156C9.68117 13.4156 9.68118 13.4156 9.6812 13.4156C9.68121 13.4156 9.68122 13.4156 9.68123 13.4156C9.68125 13.4156 9.68126 13.4156 9.68127 13.4156C9.68128 13.4156 9.6813 13.4156 9.68131 13.4156C9.68132 13.4156 9.68133 13.4156 9.68135 13.4156C9.68136 13.4156 9.68137 13.4156 9.68138 13.4156C9.6814 13.4156 9.68141 13.4156 9.68142 13.4156C9.68143 13.4156 9.68145 13.4156 9.68146 13.4156C9.68147 13.4156 9.68148 13.4156 9.6815 13.4156C9.68151 13.4156 9.68152 13.4156 9.68153 13.4156C9.68155 13.4156 9.68156 13.4156 9.68157 13.4156C9.68158 13.4156 9.6816 13.4156 9.68161 13.4156C9.68162 13.4156 9.68163 13.4156 9.68165 13.4156C9.68166 13.4156 9.68167 13.4156 9.68168 13.4156C9.6817 13.4156 9.68171 13.4156 9.68172 13.4156C9.68173 13.4156 9.68175 13.4156 9.68176 13.4156C9.68177 13.4156 9.68178 13.4156 9.68179 13.4156C9.68181 13.4156 9.68182 13.4156 9.68183 13.4156C9.68184 13.4156 9.68186 13.4156 9.68187 13.4156C9.68188 13.4156 9.68189 13.4156 9.68191 13.4156C9.68192 13.4156 9.68193 13.4156 9.68194 13.4156C9.68196 13.4156 9.68197 13.4156 9.68198 13.4156C9.68199 13.4156 9.682 13.4156 9.68202 13.4156C9.68203 13.4156 9.68204 13.4156 9.68205 13.4156C9.68207 13.4156 9.68208 13.4156 9.68209 13.4156C9.6821 13.4156 9.68211 13.4156 9.68213 13.4156C9.68214 13.4156 9.68215 13.4156 9.68216 13.4156C9.68218 13.4156 9.68219 13.4156 9.6822 13.4156C9.68221 13.4156 9.68223 13.4156 9.68224 13.4156C9.68225 13.4156 9.68226 13.4156 9.68227 13.4156C9.68229 13.4156 9.6823 13.4156 9.68231 13.4156C9.68232 13.4156 9.68233 13.4156 9.68235 13.4156C9.68236 13.4156 9.68237 13.4156 9.68238 13.4156C9.6824 13.4156 9.68241 13.4156 9.68242 13.4156C9.68243 13.4156 9.68244 13.4156 9.68246 13.4156C9.68247 13.4156 9.68248 13.4156 9.68249 13.4156C9.6825 13.4156 9.68252 13.4156 9.68253 13.4156C9.68254 13.4156 9.68255 13.4156 9.68257 13.4156C9.68258 13.4156 9.68259 13.4156 9.6826 13.4156C9.68261 13.4156 9.68263 13.4156 9.68264 13.4156C9.68265 13.4156 9.68266 13.4156 9.68267 13.4156C9.68269 13.4156 9.6827 13.4156 9.68271 13.4156C9.68272 13.4156 9.68273 13.4156 9.68275 13.4156C9.68276 13.4156 9.68277 13.4156 9.68278 13.4156C9.68279 13.4156 9.68281 13.4156 9.68282 13.4156C9.68283 13.4156 9.68284 13.4156 9.68285 13.4156C9.68287 13.4156 9.68288 13.4156 9.68289 13.4156C9.6829 13.4156 9.68291 13.4156 9.68293 13.4156C9.68294 13.4156 9.68295 13.4156 9.68296 13.4156C9.68297 13.4156 9.68299 13.4156 9.683 13.4156C9.68301 13.4156 9.68302 13.4156 9.68303 13.4156C9.68304 13.4156 9.68306 13.4156 9.68307 13.4156C9.68308 13.4156 9.68309 13.4156 9.6831 13.4156C9.68312 13.4156 9.68313 13.4156 9.68314 13.4156C9.68315 13.4156 9.68316 13.4156 9.68318 13.4156C9.68319 13.4156 9.6832 13.4156 9.68321 13.4156C9.68322 13.4156 9.68323 13.4156 9.68325 13.4156C9.68326 13.4156 9.68327 13.4156 9.68328 13.4156C9.68329 13.4156 9.68331 13.4156 9.68332 13.4156C9.68333 13.4156 9.68334 13.4156 9.68335 13.4156C9.68336 13.4156 9.68338 13.4156 9.68339 13.4156C9.6834 13.4156 9.68341 13.4156 9.68342 13.4156C9.68343 13.4156 9.68345 13.4156 9.68346 13.4156C9.68347 13.4156 9.68348 13.4156 9.68349 13.4156C9.6835 13.4156 9.68352 13.4156 9.68353 13.4156C9.68354 13.4156 9.68355 13.4156 9.68356 13.4156C9.68357 13.4156 9.68359 13.4156 9.6836 13.4156C9.68361 13.4156 9.68362 13.4156 9.68363 13.4156C9.68364 13.4156 9.68366 13.4156 9.68367 13.4156C9.68368 13.4156 9.68369 13.4156 9.6837 13.4156C9.68371 13.4156 9.68373 13.4156 9.68374 13.4156C9.68375 13.4156 9.68376 13.4156 9.68377 13.4156C9.68378 13.4156 9.6838 13.4156 9.68381 13.4156C9.68382 13.4156 9.68383 13.4156 9.68384 13.4156C9.68385 13.4156 9.68386 13.4156 9.68388 13.4156C9.68389 13.4156 9.6839 13.4156 9.68391 13.4156C9.68392 13.4156 9.68393 13.4156 9.68394 13.4156C9.68396 13.4156 9.68397 13.4156 9.68398 13.4156C9.68399 13.4156 9.684 13.4156 9.68401 13.4156C9.68403 13.4156 9.68404 13.4156 9.68405 13.4156C9.68406 13.4156 9.68407 13.4156 9.68408 13.4156C9.68409 13.4156 9.68411 13.4156 9.68412 13.4156C9.68413 13.4156 9.68414 13.4156 9.68415 13.4156C9.68416 13.4156 9.68417 13.4156 9.68418 13.4156C9.6842 13.4156 9.68421 13.4156 9.68422 13.4156C9.68423 13.4156 9.68424 13.4156 9.68425 13.4156C9.68426 13.4156 9.68428 13.4156 9.68429 13.4156C9.6843 13.4156 9.68431 13.4156 9.68432 13.4156C9.68433 13.4156 9.68434 13.4156 9.68435 13.4156C9.68437 13.4156 9.68438 13.4156 9.68439 13.4156C9.6844 13.4156 9.68441 13.4156 9.68442 13.4156C9.68443 13.4156 9.68445 13.4156 9.68446 13.4156C9.68447 13.4156 9.68448 13.4156 9.68449 13.4156C9.6845 13.4156 9.68451 13.4156 9.68452 13.4156C9.68453 13.4156 9.68455 13.4156 9.68456 13.4156C9.68457 13.4156 9.68458 13.4156 9.68459 13.4156C9.6846 13.4156 9.68461 13.4156 9.68462 13.4156C9.68464 13.4156 9.68465 13.4156 9.68466 13.4156C9.68467 13.4156 9.68468 13.4156 9.68469 13.4156C9.6847 13.4156 9.68471 13.4156 9.68472 13.4156C9.68474 13.4156 9.68475 13.4156 9.68476 13.4156C9.68477 13.4156 9.68478 13.4156 9.68479 13.4156C9.6848 13.4156 9.68481 13.4156 9.68482 13.4156C9.68484 13.4156 9.68485 13.4156 9.68486 13.4156C9.68487 13.4156 9.68488 13.4156 9.68489 13.4156C9.6849 13.4156 9.68491 13.4156 9.68492 13.4156C9.68493 13.4156 9.68495 13.4156 9.68496 13.4156C9.68497 13.4156 9.68498 13.4156 9.68499 13.4156C9.685 13.4156 9.68501 13.4156 9.68502 13.4156C9.68503 13.4156 9.68504 13.4156 9.68506 13.4156C9.68507 13.4156 9.68508 13.4156 9.68509 13.4156C9.6851 13.4156 9.68511 13.4156 9.68512 13.4156C9.68513 13.4156 9.68514 13.4156 9.68515 13.4156C9.68516 13.4156 9.68518 13.4156 9.68519 13.4156C9.6852 13.4156 9.68521 13.4156 9.68522 13.4156C9.68523 13.4156 9.68524 13.4156 9.68525 13.4156C9.68526 13.4156 9.68527 13.4156 9.68528 13.4156C9.68529 13.4156 9.68531 13.4156 9.68532 13.4156C9.68533 13.4156 9.68534 13.4156 9.68535 13.4156C9.68536 13.4156 9.68537 13.4156 9.68538 13.4156C9.68539 13.4156 9.6854 13.4156 9.68541 13.4156C9.68542 13.4156 9.68543 13.4156 9.68545 13.4156C9.68546 13.4156 9.68547 13.4156 9.68548 13.4156C9.68549 13.4156 9.6855 13.4156 9.68551 13.4156C9.68552 13.4156 9.68553 13.4156 9.68554 13.4156C9.68555 13.4156 9.68556 13.4156 9.68557 13.4156C9.68558 13.4156 9.6856 13.4156 9.68561 13.4156C9.68562 13.4156 9.68563 13.4156 9.68564 13.4156C9.68565 13.4156 9.68566 13.4156 9.68567 13.4156C9.68568 13.4156 9.68569 13.4156 9.6857 13.4156C9.68571 13.4156 9.68572 13.4156 9.68573 13.4156C9.68574 13.4156 9.68575 13.4156 9.68576 13.4156C9.68578 13.4156 9.68579 13.4156 9.6858 13.4156C9.68581 13.4156 9.68582 13.4156 9.68583 13.4156C9.68584 13.4156 9.68585 13.4156 9.68586 13.4156C9.68587 13.4156 9.68588 13.4156 9.68589 13.4156C9.6859 13.4156 9.68591 13.4156 9.68592 13.4156C9.68593 13.4156 9.68594 13.4156 9.68595 13.4156C9.68596 13.4156 9.68597 13.4156 9.68598 13.4156C9.686 13.4156 9.68601 13.4156 9.68602 13.4156C9.68603 13.4156 9.68604 13.4156 9.68605 13.4156C9.68606 13.4156 9.68607 13.4156 9.68608 13.4156C9.68609 13.4156 9.6861 13.4156 9.68611 13.4156C9.68612 13.4156 9.68613 13.4156 9.68614 13.4156C9.68615 13.4156 9.68616 13.4156 9.68617 13.4156C9.68618 13.4156 9.68619 13.4156 9.6862 13.4156C9.68621 13.4156 9.68622 13.4156 9.68623 13.4156C9.68624 13.4156 9.68625 13.4156 9.68626 13.4156C9.68627 13.4156 9.68628 13.4156 9.68629 13.4156C9.68631 13.4156 9.68632 13.4156 9.68633 13.4156C9.68634 13.4156 9.68635 13.4156 9.68636 13.4156C9.68637 13.4156 9.68638 13.4156 9.68639 13.4156C9.6864 13.4156 9.68641 13.4156 9.68642 13.4156C9.68643 13.4156 9.68644 13.4156 9.68645 13.4156C9.68646 13.4156 9.68647 13.4156 9.68648 13.4156C9.68649 13.4156 9.6865 13.4156 9.68651 13.4156C9.68652 13.4156 9.68653 13.4156 9.68654 13.4156C9.68655 13.4156 9.68656 13.4156 9.68657 13.4156C9.68658 13.4156 9.68659 13.4156 9.6866 13.4156C9.68661 13.4156 9.68662 13.4156 9.68663 13.4156C9.68664 13.4156 9.68665 13.4156 9.68666 13.4156C9.68667 13.4156 9.68668 13.4156 9.68669 13.4156C9.6867 13.4156 9.68671 13.4156 9.68672 13.4156C9.68673 13.4156 9.68674 13.4156 9.68675 13.4156C9.68676 13.4156 9.68677 13.4156 9.68678 13.4156C9.68679 13.4156 9.6868 13.4156 9.68681 13.4156V12.4156ZM9.89011 13.3629C9.9875 13.3142 10.0512 13.2869 10.1052 13.2731L9.85732 12.3043C9.69299 12.3464 9.54856 12.4156 9.4429 12.4684L9.89011 13.3629ZM10.3347 13.1424L10.3373 13.1398L9.63029 12.4326L9.62775 12.4351L10.3347 13.1424Z" fill="black" mask="url(#path-12-inside-3_1189_5551)"/>
<mask id="path-14-inside-4_1189_5551" fill="white">
<path d="M8.36642 12.9791C8.29282 12.9918 8.22683 12.9511 8.15829 12.9435C8.14814 12.9435 8.14307 12.9283 8.14307 12.9182C8.21921 12.9334 8.29789 12.9435 8.36642 12.9791Z"/>
</mask>
<path d="M8.36642 12.9791C8.29282 12.9918 8.22683 12.9511 8.15829 12.9435C8.14814 12.9435 8.14307 12.9283 8.14307 12.9182C8.21921 12.9334 8.29789 12.9435 8.36642 12.9791Z" fill="#FEF67F"/>
<path d="M8.36642 12.9791L8.45138 13.4718L9.91592 13.2193L8.59658 12.5352L8.36642 12.9791ZM8.15829 12.9435L8.21351 12.4466L8.18599 12.4435H8.15829V12.9435ZM8.14307 12.9182L8.24112 12.4279L7.64307 12.3082V12.9182H8.14307ZM8.28147 12.4863C8.32048 12.4796 8.35259 12.4811 8.37285 12.4836C8.39116 12.4858 8.40124 12.4891 8.39428 12.4872C8.39082 12.4862 8.38673 12.485 8.3773 12.4822C8.3694 12.4798 8.35628 12.4759 8.34227 12.4721C8.3146 12.4644 8.26865 12.4527 8.21351 12.4466L8.10308 13.4405C8.0822 13.4382 8.07021 13.4344 8.07648 13.4361C8.07945 13.4369 8.0833 13.438 8.09241 13.4407C8.09999 13.443 8.11296 13.4469 8.12663 13.4507C8.1781 13.465 8.30156 13.4976 8.45138 13.4718L8.28147 12.4863ZM8.15829 12.4435C8.44026 12.4435 8.56688 12.6566 8.59409 12.7111C8.63018 12.7832 8.64307 12.8549 8.64307 12.9182H7.64307C7.64307 12.9916 7.65849 13.0759 7.69966 13.1582C7.73194 13.2228 7.86618 13.4435 8.15829 13.4435V12.4435ZM8.04501 13.4084C8.06679 13.4128 8.0935 13.4177 8.1069 13.4203C8.12399 13.4235 8.13477 13.4257 8.14308 13.4277C8.16032 13.4318 8.15303 13.4316 8.13627 13.4229L8.59658 12.5352C8.44678 12.4575 8.2663 12.4329 8.24112 12.4279L8.04501 13.4084Z" fill="black" mask="url(#path-14-inside-4_1189_5551)"/>
<mask id="path-16-inside-5_1189_5551" fill="white">
<path d="M11.4274 11.0881C11.4274 11.1161 11.4401 11.1492 11.4019 11.1644C11.3892 11.1314 11.4096 11.111 11.4274 11.0881Z"/>
</mask>
<path d="M11.4274 11.0881C11.4274 11.1161 11.4401 11.1492 11.4019 11.1644C11.3892 11.1314 11.4096 11.111 11.4274 11.0881Z" fill="#FEA63B"/>
<path d="M11.4274 11.0881H11.9274V9.63081L11.0327 10.7811L11.4274 11.0881ZM11.4019 11.1644L10.9353 11.3439L11.1172 11.8169L11.5876 11.6287L11.4019 11.1644ZM10.9274 11.0881C10.9274 11.122 10.9314 11.1624 10.9304 11.1505C10.9304 11.1503 10.9303 11.1482 10.9301 11.1451C10.9299 11.142 10.9296 11.1371 10.9295 11.1309C10.9293 11.1191 10.9294 11.0988 10.9323 11.0733C10.9385 11.0203 10.9581 10.937 11.019 10.8541C11.0806 10.7701 11.1571 10.7238 11.2162 10.7002L11.5876 11.6287C11.6658 11.5974 11.7551 11.5412 11.825 11.4459C11.8942 11.3517 11.9179 11.2555 11.9256 11.1888C11.9326 11.1288 11.9279 11.0789 11.9271 11.0688C11.9249 11.0424 11.9274 11.0681 11.9274 11.0881H10.9274ZM11.8686 10.985C11.8885 11.0366 11.9013 11.0999 11.8972 11.1705C11.8932 11.24 11.874 11.2966 11.8551 11.3365C11.8376 11.3734 11.8194 11.3979 11.8148 11.4041C11.8121 11.4077 11.8104 11.4098 11.812 11.4077C11.8123 11.4074 11.8176 11.4007 11.8221 11.395L11.0327 10.7811C11.0434 10.7674 11.0193 10.7981 11.0134 10.8059C11.0004 10.8234 10.9745 10.8594 10.9513 10.9084C10.9267 10.9604 10.9036 11.0297 10.8989 11.1131C10.894 11.1975 10.909 11.2758 10.9353 11.3439L11.8686 10.985Z" fill="black" mask="url(#path-16-inside-5_1189_5551)"/>
<mask id="path-18-inside-6_1189_5551" fill="white">
<path d="M11.3922 11.2099C11.3972 11.2354 11.4074 11.2634 11.3642 11.2685C11.3616 11.243 11.3591 11.2175 11.3922 11.2099Z"/>
</mask>
<path d="M11.3922 11.2099C11.3972 11.2354 11.4074 11.2634 11.3642 11.2685C11.3616 11.243 11.3591 11.2175 11.3922 11.2099Z" fill="#FEA63B"/>
<path d="M11.3922 11.2099L11.8824 11.1118L11.7815 10.6069L11.2797 10.7227L11.3922 11.2099ZM11.3642 11.2685L10.8666 11.3182L10.9173 11.8245L11.4226 11.765L11.3642 11.2685ZM10.9019 11.308C10.9092 11.3449 10.9029 11.3121 10.9022 11.3072C10.9 11.2934 10.8895 11.2288 10.9066 11.146C10.9273 11.0452 10.9849 10.9367 11.09 10.8588C11.1807 10.7918 11.2684 10.7763 11.3057 10.7719L11.4226 11.765C11.4816 11.7581 11.5842 11.7372 11.685 11.6626C11.8002 11.5773 11.8631 11.4592 11.886 11.3476C11.9053 11.254 11.894 11.1773 11.8899 11.1509C11.8871 11.1335 11.8776 11.0877 11.8824 11.1118L10.9019 11.308ZM11.8617 11.2187C11.8606 11.2079 11.8625 11.2237 11.8628 11.2431C11.863 11.2633 11.8624 11.3143 11.8433 11.3775C11.8221 11.4476 11.7794 11.5274 11.7042 11.5937C11.632 11.6573 11.5565 11.6851 11.5046 11.6971L11.2797 10.7227C11.2112 10.7385 11.1237 10.7723 11.0428 10.8437C10.9588 10.9177 10.9107 11.0069 10.8863 11.0875C10.864 11.1612 10.8624 11.2238 10.8628 11.2562C10.8633 11.2878 10.8664 11.3162 10.8666 11.3182L11.8617 11.2187Z" fill="black" mask="url(#path-18-inside-6_1189_5551)"/>
<mask id="path-20-inside-7_1189_5551" fill="white">
<path d="M7.03076 18.9285C7.05367 18.9285 7.07913 18.926 7.09186 18.954C7.0664 18.9565 7.04349 18.9565 7.03076 18.9285Z"/>
</mask>
<path d="M7.03076 18.9285C7.05367 18.9285 7.07913 18.926 7.09186 18.954C7.0664 18.9565 7.04349 18.9565 7.03076 18.9285Z" fill="#FEA63B"/>
<path d="M7.03076 18.9285V18.4285H6.25426L6.57558 19.1354L7.03076 18.9285ZM7.09186 18.954L7.14161 19.4515L7.83569 19.3821L7.54704 18.7471L7.09186 18.954ZM7.03076 19.4285C7.05524 19.4285 7.03616 19.4284 7.03107 19.4283C7.01891 19.4279 6.98293 19.4262 6.93719 19.4141C6.88802 19.4011 6.82511 19.3754 6.7641 19.3256C6.7024 19.2753 6.66164 19.2158 6.63668 19.1609L7.54704 18.7471C7.51572 18.6782 7.467 18.6085 7.39623 18.5508C7.32616 18.4936 7.25306 18.4633 7.19307 18.4474C7.13651 18.4324 7.08907 18.4297 7.06529 18.4289C7.04859 18.4283 7.01774 18.4285 7.03076 18.4285V19.4285ZM7.04211 18.4565C7.04226 18.4565 7.04611 18.4561 7.05191 18.4557C7.05777 18.4553 7.06758 18.4549 7.08007 18.4551C7.10381 18.4554 7.14799 18.458 7.20154 18.4742C7.25865 18.4915 7.32047 18.5226 7.37639 18.5729C7.43125 18.6222 7.46541 18.6765 7.48594 18.7216L6.57558 19.1354C6.63743 19.2715 6.75434 19.3836 6.91154 19.4312C7.02811 19.4665 7.13192 19.4525 7.14161 19.4515L7.04211 18.4565Z" fill="black" mask="url(#path-20-inside-7_1189_5551)"/>
</svg>
