<svg width="26" height="27" fill="none" xmlns="http://www.w3.org/2000/svg"><g opacity=".85"><path d="M13.407 25.66c6.904 0 12.5-5.597 12.5-12.5 0-6.904-5.596-12.5-12.5-12.5-6.903 0-12.5 5.596-12.5 12.5 0 6.903 5.597 12.5 12.5 12.5z" fill="#FF4C00"/><path d="M13.407 23.767c5.858 0 10.608-4.749 10.608-10.607 0-5.859-4.75-10.608-10.608-10.608-5.858 0-10.608 4.75-10.608 10.607 0 5.859 4.75 10.608 10.608 10.608z" fill="#DE3B00"/><path d="M18.956 4.106a10.559 10.559 0 0 1 1.668 5.713c0 5.859-4.749 10.608-10.607 10.608-2.035 0-3.936-.573-5.552-1.565a10.599 10.599 0 0 0 8.94 4.894c5.858 0 10.607-4.749 10.607-10.608 0-3.823-2.024-7.175-5.06-9.042h.003z" fill="#C52F05"/><path d="M4.655 14.13a9.364 9.364 0 0 1 16.788-5.708A9.364 9.364 0 1 0 5.902 18.798a9.331 9.331 0 0 1-1.244-4.668h-.003z" fill="#ED7447"/></g><circle cx="13.029" cy="13.159" r="12" stroke="#FFFEFE" stroke-width="1.757"/><mask id="a" fill="#fff"><path d="M19.668 15.008c-.008-.035.015-.061.03-.089.013.038.01.069-.03.09z"/></mask><path d="M19.668 15.008c-.008-.035.015-.061.03-.089.013.038.01.069-.03.09z" fill="#772A0C"/><path d="m19.668 15.008-.49.105.136.631.577-.289-.223-.447zm.03-.089.474-.158-.363-1.09-.55 1.009.44.239zm.458-.016a.434.434 0 0 1-.029.27l-.014.026.003-.004c0-.002.003-.005.005-.008a.696.696 0 0 0 .016-.028l-.878-.48c.004-.006.009-.014 0 .001-.006.01-.022.036-.038.07a.572.572 0 0 0-.042.363l.977-.21zm-.932.174c-.005-.015-.038-.112-.003-.24a.44.44 0 0 1 .223-.276l.447.894a.56.56 0 0 0 .281-.694l-.948.316z" fill="#000" mask="url(#a)"/><mask id="b" fill="#fff"><path d="M19.705 14.879c-.005-.028.013-.046.028-.064 0 .026.01.054-.028.064z"/></mask><path d="M19.705 14.879c-.005-.028.013-.046.028-.064 0 .026.01.054-.028.064z" fill="#772A0C"/><path d="m19.705 14.879-.492.09.097.533.524-.14-.129-.483zm.028-.064h.5v-1.351l-.88 1.026.38.325zm.464-.026a.45.45 0 0 1-.087.354c-.002.003-.01.012.003-.003l-.76-.65c.013-.015-.04.043-.077.108a.55.55 0 0 0-.063.37l.984-.179zm-.964.026c0 .025.003.07.002.047 0 0-.004-.046.008-.105a.471.471 0 0 1 .333-.361l.258.966a.528.528 0 0 0 .39-.414c.014-.07.01-.128.01-.142-.003-.035-.001-.003-.001.01h-1z" fill="#000" mask="url(#b)"/><mask id="c" fill="#fff"><path d="M10.434 12.582s-.003.02-.008.022c-.097.036-.188.084-.29.107h-.02c.102-.05.206-.1.315-.127l.003-.002z"/></mask><path d="M10.434 12.582s-.003.02-.008.022c-.097.036-.188.084-.29.107h-.02c.102-.05.206-.1.315-.127l.003-.002z" fill="#FEF67F"/><path d="m10.434 12.582.496.061.18-1.445-1.03 1.03.354.354zm-.008.022.173.47.026-.01.024-.012-.223-.448zm-.29.107v.5h.056l.054-.012-.11-.488zm-.02 0-.223-.447.223.947v-.5zm.315-.127.124.484.133-.034.096-.096-.353-.354zm.003-.002-.497-.063v-.003l.001-.004a.592.592 0 0 1 .007-.035.451.451 0 0 1 .072-.16.495.495 0 0 1 .185-.16l.447.895a.504.504 0 0 0 .27-.345.644.644 0 0 0 .01-.055v-.008l-.495-.063zm-.181-.447c-.057.021-.133.054-.158.064a.467.467 0 0 1-.068.024l.22.976c.09-.02.169-.05.224-.073.07-.029.089-.038.128-.053l-.346-.938zm-.117.076H10.116v1H10.137v-1zm.204.947c.097-.049.16-.076.215-.09l-.248-.968a2.085 2.085 0 0 0-.414.164l.447.894zm.444-.22.003-.003-.707-.707-.002.002.706.708z" fill="#000" mask="url(#c)"/><mask id="d" fill="#fff"><path d="M8.816 12.774c-.073.013-.14-.028-.208-.035-.01 0-.015-.015-.015-.026.076.016.155.026.223.061z"/></mask><path d="M8.816 12.774c-.073.013-.14-.028-.208-.035-.01 0-.015-.015-.015-.026.076.016.155.026.223.061z" fill="#FEF67F"/><path d="m8.816 12.774.085.493 1.465-.252-1.32-.685-.23.444zm-.208-.035.055-.497-.027-.003h-.028v.5zm-.015-.026.098-.49-.598-.12v.61h.5zm.138-.431a.316.316 0 0 1 .092-.003l.021.003-.017-.005-.035-.01a.837.837 0 0 0-.129-.025l-.11.994-.027-.005a.72.72 0 0 1 .05.015.733.733 0 0 0 .325.021l-.17-.985zm-.123-.043c.282 0 .409.213.436.267a.461.461 0 0 1 .049.207h-1c0 .074.015.158.056.24a.513.513 0 0 0 .459.286v-1zm-.113.965.062.011a.863.863 0 0 1 .036.008c.017.004.01.004-.007-.005l.46-.888c-.15-.077-.33-.102-.355-.107l-.196.98z" fill="#000" mask="url(#d)"/><mask id="e" fill="#fff"><path d="M11.877 10.883c0 .028.013.061-.025.077-.013-.033.007-.054.025-.077z"/></mask><path d="M11.877 10.883c0 .028.013.061-.025.077-.013-.033.007-.054.025-.077z" fill="#FEA63B"/><path d="M11.877 10.883h.5V9.426l-.895 1.15.395.307zm-.025.077-.467.18.182.472.47-.188-.185-.464zm-.475-.077c0 .034.004.075.003.063v-.02a.444.444 0 0 1 .089-.277.456.456 0 0 1 .197-.153l.371.928a.543.543 0 0 0 .338-.44c.007-.06.003-.11.002-.12-.002-.026 0 0 0 .02h-1zm.941-.103a.445.445 0 0 1-.013.352c-.018.037-.036.061-.04.067l-.003.004.01-.013-.79-.614a.608.608 0 0 0-.081.127.552.552 0 0 0-.016.436l.933-.359z" fill="#000" mask="url(#e)"/><mask id="f" fill="#fff"><path d="M11.842 11.005c.005.026.015.054-.028.059-.003-.026-.005-.051.028-.059z"/></mask><path d="M11.842 11.005c.005.026.015.054-.028.059-.003-.026-.005-.051.028-.059z" fill="#FEA63B"/><path d="m11.842 11.005.49-.098-.1-.505-.503.116.113.487zm-.028.059-.498.05.051.506.505-.06-.058-.496zm-.462.04c.007.036 0 .003 0-.002-.002-.013-.013-.078.004-.16a.478.478 0 0 1 .4-.375l.116.993a.522.522 0 0 0 .467-.614c-.002-.017-.012-.063-.007-.039l-.98.196zm.96-.09c-.002-.01 0 .005 0 .024 0 .02 0 .072-.019.135a.47.47 0 0 1-.339.32l-.225-.975a.541.541 0 0 0-.393.365.554.554 0 0 0-.023.168c0 .032.003.06.003.063l.995-.1z" fill="#000" mask="url(#f)"/><mask id="g" fill="#fff"><path d="M7.48 18.724c.023 0 .049-.003.062.025-.026.003-.049.003-.062-.025z"/></mask><path d="M7.48 18.724c.023 0 .049-.003.062.025-.026.003-.049.003-.062-.025z" fill="#FEA63B"/><path d="M7.48 18.724v-.5h-.776l.321.707.455-.207zm.062.025.05.498.693-.07-.288-.635-.455.207zm-.062.475c.025 0 .006 0 0 0a.462.462 0 0 1-.394-.267l.91-.415a.543.543 0 0 0-.481-.318H7.48v1zm.012-.972.01-.001a.386.386 0 0 1 .15.018.462.462 0 0 1 .284.248l-.91.414a.54.54 0 0 0 .335.296c.117.035.22.02.23.02l-.1-.995z" fill="#000" mask="url(#g)"/><path d="M21.09 11.112c-.494.67-.543 1.507-.85 2.25-.14.336.23.535.361.782.374.703-.037 1.33-.493 1.432-.81.18-.864.648-.802 1.216.1.917-.302 1.216-1.154 1.104-.824-.11-1.686.217-2.489-.197.16-.369.491-.296.788-.301.61-.008 1.218 0 1.828-.015.195-.005.481.077.511-.23.038-.38-.276-.323-.51-.326-1.067-.007-2.136-.027-3.2 0-.8.02-1.514-.144-2.08-.735-.224-.234-.41-.336-.67-.045-.625.708-1.452.805-2.337.778a59.815 59.815 0 0 0-2.835 0c-.24.005-.645-.157-.66.249-.018.49.433.311.69.311 2.285.015 4.572.003 6.856.013.346 0 .75-.14.99.274-.245.344-.611.212-.928.214-2.344.01-4.69-.025-7.033.022-.834.018-1.173-.241-1.118-1.088.032-.533.142-1.116-.748-1.246-.378-.055-.916-.685-.59-1.146.695-.98.152-1.816-.045-2.726-.095-.44-.735-1.016-.045-1.342.588-.277.698.505.997.834.221.242.351.616.742.6.461-.014.526-.438.675-.76.025-.054.033-.119.065-.169.24-.353.155-1.006.757-1.011.514-.003.561.568.8.897.09.122.157.259.237.389.496.78.996.79 1.515.032.164-.242.249-.583.66-.5-.05.727-.384 1.327-1.081 1.509-1.343.346-1.49-1.002-2.11-1.697-.4.504-.394 1.151-.84 1.557-.538.494-1.114.107-1.752-.037.12.399.182.693.297.964.47 1.109.279 2.78 1.338 3.261 1.056.481 2.506.105 3.787.09.617-.008 1.076-.331 1.512-.742.274-.26.301-.424.062-.728a20.964 20.964 0 0 1-1.2-1.716c-.317-.501-.217-.994.181-1.416.369-.388 2.265-.498 2.758-.152.429.302.66.723.513 1.261-.054.2-.18.384-.296.558-.237.351-.494.693-.738 1.041-.605.862-.545 1.147.409 1.652.259.137.573.237.864.242.91.017 1.822-.02 2.731-.037.49.052 1.19.346 1.398-.167.525-1.288.86-2.654 1.323-4.156-.584.187-.95.444-1.376.356-.214-.11-.331-.261-.209-.51.795.197 1.094-.389 1.442-.902.262-.384.486-.867 1.1-.52v.732l.002-.003zM12.7 14.458c.205-.25.521-.444.506-.805-.017-.339-.254-.74-.553-.732-.346.007-.608.426-.593.775.012.306.27.583.64.762zm-.393-2.23c.017-.264-.127-.364-.334-.341-.384.045-.608.261-.603.663 0 .214.065.538.281.478.364-.097.486-.506.656-.8zm1.642.222c-.023-.319-.245-.566-.67-.58-.183-.008-.4.09-.32.316.13.369.327.752.718.86.17.047.274-.265.271-.599v.003z" fill="#16140F"/><path d="M18.548 11.807c-.124.25-.007.399.21.511-.08.339-.157.678-.235 1.019-.587-.15-.906.177-1.123.65-.339.738-.528 1.478.075 2.185a.135.135 0 0 0-.06.112c-.91.018-1.821.055-2.73.038a2.001 2.001 0 0 1-.865-.242c-.954-.506-1.014-.792-.409-1.652.244-.346.501-.687.738-1.041.117-.175.244-.361.296-.558.147-.538-.085-.96-.513-1.26-.493-.347-2.39-.238-2.758.151-.399.419-.498.914-.182 1.415.374.59.767 1.169 1.201 1.717.242.306.214.468-.062.727-.434.414-.895.738-1.513.743-1.278.012-2.728.388-3.786-.09-1.06-.48-.867-2.155-1.338-3.261-.115-.27-.177-.563-.297-.964.638.144 1.211.53 1.752.037.443-.406.443-1.054.84-1.557.62.695.767 2.043 2.11 1.697.697-.18 1.03-.78 1.08-1.51.08-.2.163-.399.245-.596.872-.251.777-1.288 1.497-1.791.6 1.041 1.184 2.088 1.799 3.114.693 1.154 1.689 1.151 2.392.018.196-.317.396-.63.598-.95.264.267.191.735.655.743.057.244.187.44.386.595h-.003zm-3.051 3.69c.787.085 1.09-.516 1.1-1.046.01-.539-.29-1.117-1.058-1.1-.583.013-1.288.596-1.161 1.105.137.535.344 1.14 1.118 1.041zm-5.698-2.14c-.807-.02-1.124.543-1.104 1.096.023.593.369 1.119 1.176 1.061.757-.054 1.024-.587 1-1.143-.026-.57-.375-1.099-1.072-1.014zm-1.63 1.801c-.007-.528-.124-1.024-.448-1.455-.192-.256-.419-.468-.765-.376-.341.092-.443.399-.49.705-.08.53.05 1.031.3 1.495.188.346.437.782.865.68.466-.11.55-.598.538-1.051v.002z" fill="#F3C65F"/><path d="M15.033 17.677c-.239-.414-.642-.274-.989-.274-2.284-.01-4.571 0-6.856-.013-.254 0-.707.18-.69-.311.015-.406.421-.247.66-.25a59.816 59.816 0 0 1 2.835 0c.882.028 1.712-.07 2.337-.777.26-.291.444-.189.67.045.569.59 1.284.755 2.08.735 1.067-.027 2.133-.005 3.2 0 .234 0 .548-.055.51.327-.03.306-.316.224-.51.229-.61.015-1.219.007-1.829.015-.297.002-.628-.07-.787.301-.212-.007-.421-.012-.633-.022l.002-.005z" fill="#EDCF73"/><path d="M18.162 11.212c-.463-.008-.394-.476-.655-.742-.204.32-.404.632-.598.949-.703 1.133-1.7 1.133-2.392-.018-.615-1.026-1.198-2.07-1.798-3.114-.72.503-.626 1.54-1.498 1.791.028-.934.62-1.609 1.149-2.27.331-.413.65 0 .84.32.567.969 1.113 1.95 1.678 2.92.549.939 1.09.934 1.655 0 .094-.157.182-.317.286-.466.224-.327.334-.965.875-.67.418.226.7.73.458 1.302v-.002z" fill="#16140F"/><path d="M18.52 13.335c.08-.34.158-.678.235-1.02.428.09.795-.169 1.375-.356-.463 1.505-.797 2.87-1.323 4.156-.209.51-.909.217-1.397.167a.13.13 0 0 1 .06-.112c.398.186.62-.1.834-.337.563-.615.64-1.636.214-2.498h.003z" fill="#CA9254"/><path d="M12.701 14.46c-.37-.176-.627-.455-.64-.762-.015-.348.244-.767.593-.775.3-.005.536.394.553.733.018.356-.301.555-.506.805zM12.305 12.233c-.172.297-.291.703-.655.8-.22.06-.28-.264-.282-.478-.005-.404.22-.62.603-.663.21-.022.351.075.334.341zM13.949 12.453c.005.33-.1.642-.272.597-.393-.107-.588-.49-.717-.86-.08-.226.137-.323.319-.316.426.015.65.262.67.581v-.002z" fill="#CA646C"/><path d="M15.496 15.497c-.774.102-.984-.503-1.118-1.041-.13-.509.578-1.092 1.16-1.104.768-.018 1.07.558 1.06 1.098-.01.534-.314 1.132-1.102 1.047zM9.799 13.354c.702-.082 1.046.444 1.071 1.014.025.553-.239 1.09-.999 1.144-.807.057-1.153-.466-1.176-1.061-.02-.553.297-1.117 1.104-1.097zM18.52 13.334c.427.862.347 1.884-.213 2.5-.215.236-.436.522-.835.336-.603-.708-.414-1.448-.075-2.185.22-.476.538-.8 1.124-.65zm-.3.439c-.68.854-.728 1.106-.4 1.836.43-.51.616-1.051.4-1.836zM8.17 15.153c.012.453-.076.94-.539 1.051-.428.1-.675-.331-.864-.68-.25-.463-.38-.966-.302-1.495.045-.306.147-.613.49-.705.347-.094.574.12.766.377.324.43.438.926.448 1.454v-.002zm-1.134-1.477c-.11.872-.075 1.455.493 1.998.316-.743.072-1.273-.493-1.998z" fill="#16140F"/><path d="M18.22 13.775c.219.785.03 1.326-.4 1.837-.33-.73-.283-.982.4-1.837zM7.036 13.678c.565.728.812 1.256.493 1.998-.568-.543-.603-1.126-.493-1.998z" fill="#CA646C"/></svg>