<svg width="27" height="27" fill="none" xmlns="http://www.w3.org/2000/svg"><g opacity=".85"><path d="M13.65 25.965c6.904 0 12.5-5.597 12.5-12.5 0-6.904-5.596-12.5-12.5-12.5-6.903 0-12.5 5.596-12.5 12.5 0 6.903 5.597 12.5 12.5 12.5z" fill="#FF4C00"/><path d="M13.65 24.073c5.859 0 10.608-4.75 10.608-10.608 0-5.859-4.75-10.608-10.608-10.608-5.858 0-10.608 4.75-10.608 10.608 0 5.858 4.75 10.608 10.608 10.608z" fill="#DE3B00"/><path d="M19.199 4.411a10.56 10.56 0 0 1 1.668 5.714c0 5.858-4.749 10.607-10.607 10.607-2.035 0-3.936-.573-5.551-1.565a10.6 10.6 0 0 0 8.938 4.894c5.86 0 10.608-4.749 10.608-10.607 0-3.824-2.024-7.176-5.06-9.043h.004z" fill="#C52F05"/><path d="M4.899 14.435a9.364 9.364 0 0 1 16.787-5.708A9.364 9.364 0 1 0 6.145 19.103a9.331 9.331 0 0 1-1.244-4.668H4.9z" fill="#ED7447"/></g><path d="M6.493 15.599c-.188-.53-.318-1.077-.479-1.618-.247-.848-.486-1.696-.728-2.547-.009-.027-.022-.052.002-.093l1.26.661c.44.231.88.465 1.32.699.033.019.068.043.11.019a.217.217 0 0 0 .097.087c.71.37 1.42.742 2.126 1.117.093.05.133.027.18-.06.32-.617.647-1.231.97-1.846.025-.043.046-.09.038-.141.09-.016.096-.1.128-.16.56-1.069 1.118-2.137 1.675-3.206.016-.03.033-.057.063-.109.149.28.288.539.424.8l1.33 2.544c.026.052.032.123.11.134-.008.07.03.127.06.185.316.6.637 1.199.95 1.802.054.103.105.098.192.052.492-.261.99-.517 1.482-.778.247-.13.495-.269.742-.402l.664-.335c.054-.027.111-.049.166-.073 0 .8-.014 1.596.01 2.395a.873.873 0 0 1-.886.881c-4.002-.01-8.007-.005-12.009-.005l.003-.003zm7.566-1.8c0-.32-.062-.565-.212-.78-.263-.378-.688-.46-.99-.201-.45.391-.538 1.144-.19 1.631.31.435.742.468 1.107.082.21-.223.269-.5.283-.735l.002.003z" fill="#F8CD69" stroke="#000" stroke-width=".5" stroke-miterlimit="10"/><path d="M6.493 15.6c4.002 0 8.007-.006 12.01.005.53 0 .9-.438.886-.881-.025-.797-.009-1.596-.011-2.396l1.772-.94c.02-.011.041-.011.063-.017-.01.231-.103.446-.169.67-.451 1.592-.908 3.186-1.364 4.779-.011.038-.025.073-.036.111H6.871c-.125-.443-.253-.886-.378-1.33V15.6z" fill="#F6C144" stroke="#000" stroke-width=".5" stroke-miterlimit="10"/><path d="M18.85 16.929h.794c0 .492 0 .987.005 1.479 0 .098-.032.13-.125.116-.027-.002-.054 0-.084 0-4.124 0-8.246 0-12.37.003-.158 0-.229-.024-.213-.204.02-.198.008-.4.008-.598H18.32a.517.517 0 0 0 .5-.386c.044-.136.011-.274.022-.413l.008.003z" fill="#F2A23A" stroke="#000" stroke-width=".5" stroke-miterlimit="10"/><path d="M11.393 11.874c.008.052-.014.098-.039.142-.323.614-.65 1.229-.97 1.846-.046.087-.087.108-.18.06-.706-.376-1.416-.745-2.126-1.118a.3.3 0 0 1-.098-.087c.245-1.332.493-2.664.745-4.046.158.185.286.338.414.493.75.902 1.5 1.808 2.254 2.71zM18.548 12.736c-.248.133-.492.272-.743.402-.492.261-.99.517-1.481.778-.09.046-.139.052-.193-.052-.313-.603-.631-1.201-.95-1.802-.03-.057-.07-.114-.06-.185l1.915-2.303.748-.894c.26 1.378.514 2.719.764 4.059v-.003z" fill="#F6C144" stroke="#000" stroke-width=".5" stroke-miterlimit="10"/><path d="M18.85 16.929c-.01.136.022.274-.022.413a.519.519 0 0 1-.5.386H6.874v-.802h11.979l-.003.003z" fill="#F4B461" stroke="#000" stroke-width=".5" stroke-miterlimit="10"/><path d="m21.215 11.37.008-.012a1.035 1.035 0 0 0-.01.01v.003h.002z" fill="#F6C144" stroke="#000" stroke-width=".5" stroke-miterlimit="10"/><path d="M14.059 13.8c-.014.233-.074.51-.283.733-.364.386-.797.35-1.107-.081-.35-.49-.26-1.24.19-1.632.3-.258.724-.176.99.201.15.215.212.46.212.78l-.002-.002z" fill="#F2A23A" stroke="#000" stroke-width=".5" stroke-miterlimit="10"/><circle cx="13.272" cy="13.465" r="12" stroke="#FFFEFE" stroke-width="1.757"/><mask id="a" fill="#fff"><path d="M19.91 15.313c-.007-.035.016-.06.031-.089.013.039.01.07-.03.09z"/></mask><path d="M19.91 15.313c-.007-.035.016-.06.031-.089.013.039.01.07-.03.09z" fill="#772A0C"/><path d="m19.91 15.313-.488.105.135.631.577-.288-.223-.447zm.031-.089.475-.158-.364-1.09-.55 1.009.44.24zm.459-.015a.434.434 0 0 1-.03.268c-.009.02-.017.032-.014.027l.003-.003a.98.98 0 0 0 .021-.037l-.878-.48c.004-.005.01-.014 0 .002a.571.571 0 0 0-.08.433l.978-.21zm-.933.174c-.005-.015-.038-.113-.003-.24a.44.44 0 0 1 .223-.277l.447.895a.56.56 0 0 0 .282-.695l-.95.316z" fill="#000" mask="url(#a)"/><mask id="b" fill="#fff"><path d="M19.948 15.184c-.005-.028.013-.046.028-.064 0 .026.01.054-.028.064z"/></mask><path d="M19.948 15.184c-.005-.028.013-.046.028-.064 0 .026.01.054-.028.064z" fill="#772A0C"/><path d="m19.948 15.184-.492.09.097.533.524-.14-.129-.483zm.028-.064h.5V13.77l-.88 1.026.38.325zm.464-.025a.45.45 0 0 1-.087.354c-.002.002-.01.012.003-.003l-.76-.651c.013-.015-.04.043-.077.108-.05.09-.09.22-.063.37l.984-.178zm-.964.025c0 .025.003.07.002.048 0 0-.004-.047.008-.105a.47.47 0 0 1 .333-.362l.258.966a.53.53 0 0 0 .39-.414c.014-.07.01-.128.01-.141-.003-.035 0-.003 0 .008h-1z" fill="#000" mask="url(#b)"/><mask id="c" fill="#fff"><path d="M10.677 12.887s-.003.02-.008.023c-.096.035-.188.083-.29.106h-.02c.102-.05.206-.099.315-.127l.003-.002z"/></mask><path d="M10.677 12.887s-.003.02-.008.023c-.096.035-.188.083-.29.106h-.02c.102-.05.206-.099.315-.127l.003-.002z" fill="#FEF67F"/><path d="m10.677 12.887.496.062.18-1.446-1.03 1.03.354.354zm-.008.023.173.469.026-.01.025-.012-.224-.447zm-.29.106v.5h.056l.054-.012-.11-.488zm-.02 0-.223-.447.223.947v-.5zm.315-.127.124.485.133-.034.097-.097-.354-.354zm.003-.002-.496-.062v-.007l.002-.009.005-.026a.485.485 0 0 1 .257-.32l.448.894a.506.506 0 0 0 .279-.4v-.008l-.495-.062zm-.18-.447c-.058.022-.133.054-.16.065a.466.466 0 0 1-.067.023l.22.976c.09-.02.169-.05.225-.073.069-.028.088-.038.127-.052l-.346-.938zm-.117.076H10.36v1H10.38v-1zm.203.947c.097-.048.161-.075.215-.09l-.248-.968a2.089 2.089 0 0 0-.414.164l.447.894zm.445-.22.002-.003-.707-.707-.002.003.707.707z" fill="#000" mask="url(#c)"/><mask id="d" fill="#fff"><path d="M9.06 13.08c-.074.012-.14-.028-.209-.036-.01 0-.015-.015-.015-.025.076.015.155.025.223.06z"/></mask><path d="M9.06 13.08c-.074.012-.14-.028-.209-.036-.01 0-.015-.015-.015-.025.076.015.155.025.223.06z" fill="#FEF67F"/><path d="m9.06 13.08.084.492 1.465-.252-1.32-.684-.23.444zm-.209-.036.055-.497-.027-.003H8.85v.5zm-.015-.025.098-.49-.598-.12v.61h.5zm.138-.432a.316.316 0 0 1 .092-.003c.018.002.028.006.021.004a.568.568 0 0 1-.052-.015.813.813 0 0 0-.129-.026l-.11.994c-.02-.002-.033-.006-.027-.004a.688.688 0 0 1 .05.014.734.734 0 0 0 .325.021l-.17-.985zm-.123-.043c.282 0 .409.213.436.268a.461.461 0 0 1 .049.207h-1c0 .073.015.158.057.24a.513.513 0 0 0 .458.285v-1zm-.113.965.062.012a.751.751 0 0 1 .036.007c.017.004.01.004-.007-.005l.46-.887c-.15-.078-.33-.102-.355-.108l-.196.981z" fill="#000" mask="url(#d)"/><mask id="e" fill="#fff"><path d="M12.12 11.189c0 .028.013.06-.025.076-.013-.033.007-.053.025-.076z"/></mask><path d="M12.12 11.189c0 .028.013.06-.025.076-.013-.033.007-.053.025-.076z" fill="#FEA63B"/><path d="M12.12 11.189h.5V9.73l-.894 1.15.394.308zm-.025.076-.467.18.182.473.47-.189-.185-.464zm-.475-.076c0 .034.004.074.003.062v-.019c0-.012 0-.033.002-.058a.462.462 0 0 1 .284-.373l.371.928a.544.544 0 0 0 .338-.44c.008-.06.003-.11.002-.12-.002-.026 0 0 0 .02h-1zm.942-.104a.448.448 0 0 1-.054.42l-.003.003.01-.012-.79-.614a.6.6 0 0 0-.081.127.552.552 0 0 0-.016.435l.934-.359z" fill="#000" mask="url(#e)"/><mask id="f" fill="#fff"><path d="M12.085 11.31c.005.026.015.054-.028.059-.002-.025-.005-.05.028-.059z"/></mask><path d="M12.085 11.31c.005.026.015.054-.028.059-.002-.025-.005-.05.028-.059z" fill="#FEA63B"/><path d="m12.085 11.31.49-.098-.1-.505-.502.116.112.487zm-.028.059-.498.05.051.506.505-.06-.058-.496zm-.462.04c.007.036 0 .004 0-.001-.002-.014-.013-.079.004-.161a.478.478 0 0 1 .4-.374l.116.993a.522.522 0 0 0 .467-.614c-.002-.018-.012-.064-.007-.04l-.98.197zm.96-.09c-.002-.01 0 .005 0 .025s0 .07-.019.134a.47.47 0 0 1-.338.32l-.225-.975a.54.54 0 0 0-.394.365.557.557 0 0 0-.023.169c0 .031.003.06.004.062l.995-.1z" fill="#000" mask="url(#f)"/><mask id="g" fill="#fff"><path d="M7.724 19.03c.023 0 .048-.003.06.025-.025.002-.048.002-.06-.026z"/></mask><path d="M7.724 19.03c.023 0 .048-.003.06.025-.025.002-.048.002-.06-.026z" fill="#FEA63B"/><path d="M7.724 19.03v-.5h-.777l.321.706.456-.207zm.06.025.05.497.695-.07-.29-.634-.454.207zm-.06.474c.024 0 .005 0 0 0a.46.46 0 0 1-.394-.267l.91-.414a.543.543 0 0 0-.482-.319h-.034v1zm.011-.972h.01a.386.386 0 0 1 .15.018.463.463 0 0 1 .284.247l-.91.414a.54.54 0 0 0 .335.296c.117.035.22.021.23.02l-.099-.995z" fill="#000" mask="url(#g)"/></svg>