<svg width="26" height="26" fill="none" xmlns="http://www.w3.org/2000/svg"><g opacity=".85"><path d="M12.556 25.066c6.904 0 12.5-5.597 12.5-12.5 0-6.904-5.596-12.5-12.5-12.5-6.903 0-12.5 5.596-12.5 12.5 0 6.903 5.597 12.5 12.5 12.5z" fill="#FF4C00"/><path d="M12.556 23.173c5.858 0 10.608-4.749 10.608-10.607 0-5.859-4.75-10.608-10.608-10.608-5.859 0-10.608 4.75-10.608 10.608 0 5.858 4.75 10.607 10.608 10.607z" fill="#DE3B00"/><path d="M18.104 3.512a10.559 10.559 0 0 1 1.67 5.713c0 5.86-4.75 10.608-10.609 10.608-2.034 0-3.935-.573-5.55-1.565a10.599 10.599 0 0 0 8.938 4.894c5.859 0 10.608-4.749 10.608-10.607 0-3.824-2.024-7.176-5.06-9.043h.003z" fill="#C52F05"/><path d="M3.804 13.536a9.364 9.364 0 0 1 16.788-5.708A9.364 9.364 0 1 0 5.051 18.204a9.332 9.332 0 0 1-1.244-4.668h-.003z" fill="#ED7447"/></g><path d="M13.098 10.34a2.603 2.603 0 0 1-.245.137 5.075 5.075 0 0 0-.078.038.499.499 0 0 1-.132.04.521.521 0 0 0-.109.031.552.552 0 0 1-.244.036c-.037 0-.074 0-.111.002v.145l.918-.43zm0 0 .001.008c.002.01.005.028.01.045v.003c.037.14.093.272.14.384l.016.037c.044.107.101.227.182.336l.001.002.05.068c.066.089.14.19.223.281.148.168.31.311.485.439.109.08.223.144.334.201.093.048.191.09.28.127l.07.03h.001a.987.987 0 0 0 .203.064c.05.01.1.024.149.039a.55.55 0 0 0 .164.027c.235.052.47.04.667.031l.032-.001-3.009-2.122zm4.737 1.357a3.409 3.409 0 0 1-.41.323l-.003.002a2.129 2.129 0 0 1-.264.144l-.04.018c-.095.045-.205.096-.32.135h-.003c-.1.032-.206.063-.317.086l-.005.001a5.37 5.37 0 0 0-.052.01c-.09.017-.203.04-.314.045l1.728-.764zm0 0c.091.076.197.153.32.207l.1-.229-.42.022zm.912.14-.05.246.05-.245zm0 0c-.057-.011-.113-.026-.169-.041a3.38 3.38 0 0 0-.12-.032l.62.216a.222.222 0 0 0 .159.114l.025.002-.018.001h-.006l-.035.003H19.2l-.03.002-.113.005m-.31-.27a1.606 1.606 0 0 0 .44.014c.061-.005.09-.01.105.002.014.012.015.038.019.094m0 0h-.247a.126.126 0 0 1-.005-.021v-.003.007l.002.025v.013l.001.013a.526.526 0 0 1-.005.126m.254-.16v.008-.008zm-.253.16-.003.02a3.29 3.29 0 0 1-.011.066c-.009.047-.019.106-.024.146v.003c-.016.131-.03.245-.056.355v.001l.243.059c-.016.062-.026.126-.036.19-.013.08-.026.162-.05.241-.02.069-.033.147-.043.223a.878.878 0 0 1-.033.15 1.785 1.785 0 0 0-.02.076l-.02.085-.019.085-.021.094a3.524 3.524 0 0 0-.022.094l-.004.02a.384.384 0 0 1-.047.145m.166-2.053-.422 2.043.006-.013a.355.355 0 0 1 .034-.05l.01-.012.006-.006.19.162m.01-.07-.208-.14c0 .002-.002.004-.003.005v.001l.002-.003.21.136zm0 0c-.01.015-.01.03-.01.047v.023m0 0-.003.004c-.015.017-.03.034-.025.06l-.095-.076.123.012zm-5.621-4.015.026-.005c.005 0 .01 0 .015.002l-.197.131-.004-.007c.045-.032.088-.067.131-.103a.115.115 0 0 1 .029-.018z" fill="#FEBF2E" stroke="#000" stroke-width=".5"/><mask id="a" fill="#fff"><path d="M12.178 16.188h5.782c.028 0 .056.003.087.005-.01.074-.008.15-.008.224v1.2c0 .094 0 .188-.046.274a.53.53 0 0 1-.238.239.74.74 0 0 1-.34.063c-.762 0-1.523-.005-2.285 0-.188 0-.373.003-.56.01-.026-.022-.059-.012-.09-.012-.718 0-1.436.005-2.154 0-.901-.008-1.802 0-2.703-.005H7.158c-.028 0-.056.002-.086.005-.074-.013-.15-.003-.224-.008-.04 0-.083 0-.119-.028h5.343c.07 0 .104-.035.104-.106v-1.863l.002.002z"/></mask><path d="M12.178 16.188h5.782c.028 0 .056.003.087.005-.01.074-.008.15-.008.224v1.2c0 .094 0 .188-.046.274a.53.53 0 0 1-.238.239.74.74 0 0 1-.34.063c-.762 0-1.523-.005-2.285 0-.188 0-.373.003-.56.01-.026-.022-.059-.012-.09-.012-.718 0-1.436.005-2.154 0-.901-.008-1.802 0-2.703-.005H7.158c-.028 0-.056.002-.086.005-.074-.013-.15-.003-.224-.008-.04 0-.083 0-.119-.028h5.343c.07 0 .104-.035.104-.106v-1.863l.002.002z" fill="#FEA63B"/><path d="m12.178 16.188-.353.354.146.146h.207v-.5zm5.869.005.495.069.072-.523-.526-.044-.041.498zm-.054 1.698-.441-.234-.004.006.445.228zm-2.863.302v.5h.004l-.004-.5zm-.56.01-.335.372.151.136.204-.008-.02-.5zm-2.244-.012-.005.5h.001l.004-.5zm-2.703-.005.002-.5h-.002v.5zm-2.551.005-.085.492.063.011.063-.005-.041-.498zm-.224-.008.035-.499h-.035v.5zm-.119-.028v-.5H5.283l1.137.893.309-.393zm5.447-1.97.354-.353-.854-.854v1.208h.5zm.002.503H17.96v-1H12.18v1zm5.782 0h.01l.035.004.083-.997c-.022-.002-.074-.007-.128-.007v1zm-.409-.563c-.016.117-.012.242-.012.292h1c0-.099-.001-.126.003-.155l-.99-.137zm-.012.292V17.617h1V16.417h-1zm0 1.2a2.01 2.01 0 0 1-.002.078c0 .005.001-.013.015-.038l.883.468c.113-.213.104-.434.104-.508h-1zm.01.046a.054.054 0 0 1-.01.014c0 .001-.002.003-.008.006l.447.894a1.03 1.03 0 0 0 .46-.458l-.89-.456zm-.018.02s-.018.01-.116.01v1c.14 0 .35-.01.563-.116l-.447-.894zm-.116.01c-.757 0-1.525-.005-2.288 0l.007 1c.76-.005 1.514 0 2.28 0v-1zm-2.285 0c-.192 0-.384.003-.58.01l.04 1c.179-.007.357-.01.54-.01v-1zm-.226.139a.562.562 0 0 0-.438-.141h.015v1c.03 0 .06-.003.06-.003h-.024a.446.446 0 0 1-.282-.113l.669-.743zm-.423-.141c-.724 0-1.436.005-2.152 0l-.007 1c.72.005 1.445 0 2.159 0v-1zm-2.151 0c-.893-.008-1.822 0-2.705-.005l-.005 1c.92.005 1.792-.003 2.701.005l.009-1zm-2.707-.005H7.158v1H9.623v-1zm-2.465 0c-.053 0-.105.005-.128.006l.083.997a2.11 2.11 0 0 1 .036-.003h.009v-1zm-.001.012a1.12 1.12 0 0 0-.201-.014h-.073l-.07.998.092.003h.06c.032-.001.032 0 .022-.002l.17-.985zm-.309-.015c-.027 0-.005-.001.023.004a.374.374 0 0 1 .167.075l-.618.786c.192.152.417.135.428.135v-1zm-.119.972H6.816v-1H6.728v1zm.086 0H12.071v-1H6.817v1zm5.257 0c.115 0 .292-.03.436-.177a.608.608 0 0 0 .168-.43h-1c0-.038.01-.16.116-.269a.399.399 0 0 1 .28-.124v1zm.604-.606V16.186h-1V18.049h1zm-.854-1.51.003.003.707-.707-.002-.003-.708.707z" fill="#000" mask="url(#a)"/><path d="m19.395 11.618-.016-.078h-.003c-.02.005-.075.016-.13.048-.016 0-.041.003-.06.004l-.017.001h-.01c-.147.009-.257.014-.363-.008a3.051 3.051 0 0 1-.277-.07l-.003-.001a1.39 1.39 0 0 1-.076-.033 2.16 2.16 0 0 0-.086-.042h-.002c-.107-.047-.19-.123-.306-.23l-.054-.05-.062-.073a5.504 5.504 0 0 1-.036-.044.39.39 0 0 0-.085-.134l-.03-.062-.008-.018a.812.812 0 0 1-.04-.092l-.001-.003a1.221 1.221 0 0 1-.08-.31V10.087c.01-.12.05-.242.108-.382a1.29 1.29 0 0 1 .362-.488c.08-.068.169-.127.265-.18a.301.301 0 0 0 .095-.036.29.29 0 0 0 .112-.045l.002-.001.023-.006.016-.004.075-.016h.005c.185-.035.37-.035.554 0h.001c.134.024.262.074.385.145l.001.001c.224.128.396.307.522.536l.005.008.02.04.005.01a.242.242 0 0 1 .003.006.313.313 0 0 0 .037.106c.007.04.022.07.035.093.005.03.012.058.017.081l.004.015c.008.037.014.062.018.087a1.235 1.235 0 0 1-.022.495c-.007.029-.015.06-.023.103-.01.05-.035.1-.076.186a1.15 1.15 0 0 1-.237.336h-.001c-.146.136-.256.232-.39.286l.093.233-.269-.078z" fill="#FEA63B" stroke="#000" stroke-width=".5"/><mask id="b" fill="#fff"><path d="M18.816 14.414c-.008-.035.015-.06.03-.089.013.038.01.069-.03.09z"/></mask><path d="M18.816 14.414c-.008-.035.015-.06.03-.089.013.038.01.069-.03.09z" fill="#772A0C"/><path d="m18.816 14.414-.489.105.135.631.578-.289-.224-.447zm.03-.089.475-.158-.363-1.09-.55 1.009.438.24zm.459-.015a.434.434 0 0 1-.03.268c-.008.02-.016.032-.013.027l.002-.004.005-.008a.676.676 0 0 0 .017-.028l-.878-.48c.003-.006.008-.014-.001.001a.571.571 0 0 0-.08.433l.978-.21zm-.933.173c-.005-.015-.038-.112-.003-.24a.44.44 0 0 1 .223-.276l.448.894a.56.56 0 0 0 .28-.694l-.948.316z" fill="#000" mask="url(#b)"/><mask id="c" fill="#fff"><path d="M18.853 14.285c-.005-.028.013-.046.028-.064 0 .026.01.054-.028.064z"/></mask><path d="M18.853 14.285c-.005-.028.013-.046.028-.064 0 .026.01.054-.028.064z" fill="#772A0C"/><path d="m18.853 14.285-.492.09.098.533.523-.14-.129-.483zm.028-.064h.5V12.87l-.88 1.026.38.325zm.464-.026a.448.448 0 0 1-.087.354c-.002.003-.01.013.003-.002l-.76-.651c.014-.015-.04.043-.077.108a.55.55 0 0 0-.063.37l.984-.179zm-.964.026c0 .025.003.07.002.047 0 0-.003-.046.008-.105a.472.472 0 0 1 .334-.361l.257.966a.53.53 0 0 0 .39-.414c.014-.07.01-.128.01-.142-.002-.035 0-.003 0 .01h-1z" fill="#000" mask="url(#c)"/><mask id="d" fill="#fff"><path d="M12.176 10.61V16.185H6.445c-.04 0-.079 0-.12.002-.055-.025-.065-.083-.09-.127a6.647 6.647 0 0 1-.295-.566c-.071-.15-.147-.3-.193-.459-.046-.155-.107-.305-.15-.46l-.16-.553c-.058-.203-.104-.408-.15-.611a2.315 2.315 0 0 1-.043-.231c-.01-.082-.035-.16-.053-.242-.015-.073-.02-.147-.035-.22-.018-.09-.03-.18-.046-.272-.018-.12-.025-.239-.053-.355-.016-.059-.008-.122-.013-.186.013-.099.013-.099.11-.07.022.007.047.007.07.007.196.002.388.002.579-.058.16-.051.307-.12.45-.206.106-.066.187-.157.278-.236.196.228.434.409.693.558.135.076.277.14.43.183.027.008.052.028.083.028 0 .013.005.025.015.025.071.008.135.049.208.036.12 0 .236.04.358.04.16 0 .323.01.48-.012.137-.018.277-.028.403-.087.018-.007.039-.005.059-.007.005 0 .013.003.02 0 .102-.023.193-.071.29-.107.005 0 .005-.015.007-.023l.005-.005c.033.01.053-.017.074-.03.056-.033.122-.046.165-.099h.012a.252.252 0 0 0 .105-.066c.106-.061.2-.142.291-.226.112-.107.226-.21.323-.332.076-.097.142-.201.208-.308.076-.127.132-.263.193-.398.007-.015.007-.033.013-.05.04-.006.033-.034.027-.06l.008-.045c.038-.015.028-.048.025-.076 0-.02.003-.038.005-.058.051-.066.09-.023.122.017.02.028.054.028.076.049.127.116.287.18.445.238.16.059.33.086.502.074v.007z"/></mask><path d="M12.176 10.61V16.185H6.445c-.04 0-.079 0-.12.002-.055-.025-.065-.083-.09-.127a6.647 6.647 0 0 1-.295-.566c-.071-.15-.147-.3-.193-.459-.046-.155-.107-.305-.15-.46l-.16-.553c-.058-.203-.104-.408-.15-.611a2.315 2.315 0 0 1-.043-.231c-.01-.082-.035-.16-.053-.242-.015-.073-.02-.147-.035-.22-.018-.09-.03-.18-.046-.272-.018-.12-.025-.239-.053-.355-.016-.059-.008-.122-.013-.186.013-.099.013-.099.11-.07.022.007.047.007.07.007.196.002.388.002.579-.058.16-.051.307-.12.45-.206.106-.066.187-.157.278-.236.196.228.434.409.693.558.135.076.277.14.43.183.027.008.052.028.083.028 0 .013.005.025.015.025.071.008.135.049.208.036.12 0 .236.04.358.04.16 0 .323.01.48-.012.137-.018.277-.028.403-.087.018-.007.039-.005.059-.007.005 0 .013.003.02 0 .102-.023.193-.071.29-.107.005 0 .005-.015.007-.023l.005-.005c.033.01.053-.017.074-.03.056-.033.122-.046.165-.099h.012a.252.252 0 0 0 .105-.066c.106-.061.2-.142.291-.226.112-.107.226-.21.323-.332.076-.097.142-.201.208-.308.076-.127.132-.263.193-.398.007-.015.007-.033.013-.05.04-.006.033-.034.027-.06l.008-.045c.038-.015.028-.048.025-.076 0-.02.003-.038.005-.058.051-.066.09-.023.122.017.02.028.054.028.076.049.127.116.287.18.445.238.16.059.33.086.502.074v.007z" fill="#FEF67F"/><path d="M12.176 16.186v.5h.5v-.5h-.5zm-5.85.002-.207.456.113.051.125-.008-.031-.499zm-.092-.127.431-.253-.001-.003-.43.256zm-.294-.566.452-.214-.452.214zm-.193-.459.48-.137v-.004l-.48.141zm-.15-.46.482-.134-.001-.004-.48.139zm-.16-.553-.48.138.48-.138zm-.15-.611.488-.11v-.004l-.487.114zm-.043-.231-.496.062v.002l.496-.064zm-.053-.242-.49.102.002.005.488-.107zm-.035-.22-.49.098v.003l.49-.101zm-.046-.272-.495.074.002.008.493-.082zm-.053-.355.486-.117-.003-.01-.483.127zm-.013-.186-.496-.063-.007.051.005.052.498-.04zm.11-.07.157-.475-.01-.003-.009-.003-.139.48zm.07.007.007-.5h-.007v.5zm.579-.058-.151-.477H5.65l.153.477zm.45-.206.259.427.003-.002-.263-.425zm.278-.236.38-.325-.326-.381-.38.327.326.379zm.693.558-.25.433.004.002.246-.435zm.43.183-.137.481.005.002.131-.483zm.083.028h.5v-.5h-.5v.5zm.015.025.053-.497-.026-.003h-.027v.5zm.208.036v-.5h-.042l-.043.007.085.493zm.838.028-.064-.496-.008.001.072.495zm.403-.087-.197-.46-.011.006.208.454zm.059-.007v-.5h-.031l-.031.004.062.496zm.02 0-.11-.488-.024.006-.024.008.158.474zM9.57 12v-.5h-.09l-.083.031.172.47zm.007-.023-.353-.353-.084.083-.037.112.474.158zm.005-.005.147-.477-.287-.089-.213.213.353.353zm.074-.03-.255-.43-.01.006.265.424zm.165-.099v-.5h-.239l-.15.185.389.315zm.012 0v.5h.077l.073-.023-.15-.477zm.105-.066-.249-.434-.058.033-.047.047.354.354zm.291-.226.338.369.008-.007-.346-.362zm.323-.332.392.31-.392-.31zm.208-.308.425.264.004-.006-.43-.258zm.193-.398-.447-.224-.005.009-.004.009.456.206zm.013-.05-.063-.497-.328.041-.09.318.48.137zm.027-.06-.493-.081-.015.09.018.09.49-.098zm.008-.045-.186-.464-.26.104-.047.278.493.082zm.025-.076h-.5v.023l.002.022.498-.045zm.005-.058-.396-.305-.083.108-.017.135.496.062zm.122.017.405-.294-.008-.01-.009-.01-.388.314zm.076.049.339-.368-.006-.006-.332.374zm.445.238-.174.469h.002l.172-.469zm.502.074h.5v-.538l-.537.04.037.498zm-.5.007V10.755h1V10.61h-1zm0 .145V16.185h1V10.756h-1zm.5 4.932H12.07v1H12.177v-1zm-.106 0H6.445v1H12.07v-1zm-5.625 0c-.039 0-.092 0-.15.003l.062.998.088-.001v-1zm.088.047a.392.392 0 0 1 .174.158c.005.01.008.017 0-.001-.004-.01-.02-.045-.042-.082l-.862.507c-.009-.016-.013-.027-.007-.013.003.006.017.038.034.07.04.074.125.197.289.271l.414-.91zm.13.072a6.142 6.142 0 0 1-.271-.524l-.904.428c.093.197.195.405.317.609l.859-.513zm-.271-.524c-.08-.17-.133-.273-.164-.382l-.962.274c.06.21.16.407.222.537l.904-.429zm-.165-.386c-.027-.091-.058-.18-.083-.252a3.459 3.459 0 0 1-.065-.2l-.963.268c.026.094.057.183.083.259.027.08.05.143.068.207l.96-.282zm-.15-.457a163.703 163.703 0 0 0-.16-.553l-.96.277a163.739 163.739 0 0 0 .16.553l.96-.277zm-.16-.553c-.053-.186-.095-.377-.142-.583l-.975.22c.045.199.094.42.157.64l.96-.277zm-.142-.587a1.827 1.827 0 0 1-.035-.181l-.991.128c.013.1.032.194.052.28l.974-.227zm-.034-.18c-.014-.106-.059-.272-.061-.285l-.977.213c.032.15.038.14.045.197l.993-.125zm-.06-.28a1.223 1.223 0 0 1-.012-.077c-.005-.034-.012-.088-.024-.144l-.979.203c.004.018.007.038.012.077.005.034.012.088.024.144l.979-.203zm-.035-.217c-.016-.08-.025-.146-.043-.256l-.986.164c.012.073.029.189.048.288l.98-.196zm-.042-.248c-.009-.06-.027-.256-.061-.398l-.973.233c.022.092.019.135.045.313l.99-.148zm-.064-.407a.213.213 0 0 1 .006.032v-.052c0-.02-.001-.048-.004-.08l-.996.08v.065c.001.04.004.119.027.207l.967-.252zm0 .004c.005-.037.003-.022-.001-.002-.002.008-.035.168-.199.274-.163.106-.321.073-.328.071-.02-.003-.034-.008.002.003l.278-.96c-.012-.004-.062-.02-.11-.028-.034-.006-.212-.038-.388.076-.177.116-.218.292-.227.327-.012.047-.017.1-.019.112l.992.127zm-.545.34c.113.037.222.033.23.033v-1h.003c.012.002.043.005.083.018l-.316.949zm.223.033c.189.002.46.007.737-.082l-.305-.953c-.102.033-.218.038-.42.035l-.012 1zm.736-.082c.2-.063.384-.15.558-.255l-.52-.854c-.11.067-.221.118-.34.156l.302.953zm.561-.257c.092-.057.165-.12.219-.168.068-.063.081-.078.124-.114l-.653-.758c-.049.042-.122.112-.144.132a.536.536 0 0 1-.072.058l.526.85zm-.364-.336c.242.283.53.497.823.666l.5-.865a2.132 2.132 0 0 1-.563-.451l-.76.65zm.827.668c.162.092.341.173.539.23l.272-.963a1.45 1.45 0 0 1-.318-.137l-.493.87zm.544.23a.357.357 0 0 1-.05-.017l.003.001.017.008c.027.012.12.054.245.054v-1c.049 0 .088.008.115.016.025.007.042.015.044.015h-.003l-.018-.01a.63.63 0 0 0-.09-.031l-.263.964zm-.285-.454c0 .063.01.156.063.253a.513.513 0 0 0 .452.272v-1c.244 0 .38.165.43.257a.462.462 0 0 1 .055.218h-1zm.462.522-.027-.004.015.004.033.01a.728.728 0 0 0 .325.022l-.17-.986c.077-.013.132.006.115.001a.712.712 0 0 1-.017-.005l-.037-.01a.83.83 0 0 0-.13-.026l-.107.994zm.261.039a.69.69 0 0 1 .094.013c.053.01.154.027.264.027v-1a.677.677 0 0 1-.095-.013c-.052-.008-.153-.027-.263-.027v1zm.358.04c.117 0 .347.012.552-.017l-.144-.99c-.11.016-.205.008-.408.008v1zm.544-.016c.094-.012.334-.03.548-.128l-.417-.909c-.04.018-.079.022-.26.045l.13.992zm.536-.123a.437.437 0 0 1-.136.034h-.003H9.268l.054-.005-.124-.992a.319.319 0 0 1 .022-.002h.001-.024a.58.58 0 0 0-.192.046l.393.92zm-.138.033a.514.514 0 0 1-.06-.004l.024.003a.527.527 0 0 0 .214-.025l-.316-.948a.475.475 0 0 1 .192-.023c.01 0 .024.003.014.001l-.02-.002a.52.52 0 0 0-.048-.002v1zm.13-.012c.091-.02.17-.05.225-.074l.127-.052-.345-.938c-.058.021-.133.054-.159.064a.466.466 0 0 1-.068.024l.22.976zm.18-.095a.502.502 0 0 0 .452-.283c.03-.064.041-.12.043-.127l.003-.02a.459.459 0 0 1-.017.065l-.948-.316c-.014.041-.02.076-.02.08l.001-.005a.494.494 0 0 1 .486-.393v1zm.007-.523.354.354s-.001 0 0 0l.001-.002c.012-.012-.01.011.002-.001v-.001l.002-.001-.707-.707-.004.003v.001h-.001c-.002.002.001-.001 0 0l.353.354zm-.142.473a.546.546 0 0 0 .453-.06c.035-.022.063-.045.066-.047.013-.01-.008.007-.033.023l-.53-.848a.605.605 0 0 0-.064.046l.033-.023a.444.444 0 0 1 .37-.046l-.295.955zm.475-.078c-.01.006-.015.008-.005.004l.056-.026a.713.713 0 0 0 .248-.192l-.777-.63a.324.324 0 0 1 .066-.061c.017-.012.029-.018.027-.017a.399.399 0 0 1-.018.008l-.014.007a1.083 1.083 0 0 0-.092.046l.51.861zm-.09-.029H9.834v-1H9.82v1zm.163-.023a.75.75 0 0 0 .308-.19l-.707-.707a.276.276 0 0 1 .1-.058l.299.955zm.203-.109c.158-.09.287-.205.381-.291l-.675-.738c-.089.082-.148.13-.203.16l.497.87zm.389-.298c.098-.094.245-.228.369-.384l-.784-.62c-.07.087-.151.161-.276.28l.69.724zm.37-.385c.095-.12.174-.247.24-.353l-.85-.527a2.805 2.805 0 0 1-.176.26l.785.62zm.244-.36c.095-.159.17-.338.22-.449l-.912-.412c-.071.158-.11.253-.166.347l.858.515zm.211-.431c.037-.074.049-.14.052-.157a.295.295 0 0 0 .002-.012c0-.002 0-.001 0 0a.32.32 0 0 1-.008.032l-.961-.275a.651.651 0 0 0-.014.058l-.002.013v.002a.438.438 0 0 1 .037-.108l.894.447zm-.373.221a.524.524 0 0 0 .465-.598c-.001-.018-.004-.033-.006-.04l-.002-.01v-.004l-.98.196-.003-.016a.477.477 0 0 1 .403-.52l.123.992zm.46-.472c0-.008.002-.015.003-.023a1.82 1.82 0 0 0 .004-.023l-.986-.164-.004.023-.004.023.987.164zm-.3.336a.546.546 0 0 0 .34-.567l-.003-.024v.006l-.995.09a.618.618 0 0 0 .002.027v-.002c0-.005-.005-.045.003-.096a.461.461 0 0 1 .281-.362l.372.928zm.34-.54a.2.2 0 0 1-.002.02V10.3l.002-.006v-.008l-.992-.124c0 .008-.009.061-.009.12h1zm-.1.246a.413.413 0 0 1-.17.127.459.459 0 0 1-.336.005.416.416 0 0 1-.141-.089c-.015-.014-.023-.025-.015-.014l.776-.63a.586.586 0 0 0-.264-.2.542.542 0 0 0-.4.003.588.588 0 0 0-.242.189l.793.61zm-.678.008c.091.125.209.176.24.19a.278.278 0 0 0 .012.005l-.003-.001-.01-.005a.421.421 0 0 1-.09-.062l.664-.747a.582.582 0 0 0-.169-.105c-.001 0-.001 0 0 0l.017.008a.405.405 0 0 1 .148.128l-.81.589zm.142.122c.208.191.457.283.609.339l.348-.938c-.164-.06-.234-.095-.28-.137l-.677.736zm.611.34c.22.08.46.12.71.102l-.072-.997a.706.706 0 0 1-.295-.044l-.343.939zm.174-.396v.007h1v-.007h-1z" fill="#000" mask="url(#d)"/><path d="M6.355 11.174a3.746 3.746 0 0 0-.125.114.833.833 0 0 1-.108.086 1.807 1.807 0 0 1-.393.18h-.003c-.144.049-.294.05-.496.046h-.012a.644.644 0 0 0-.07-.018c-.01-.003-.036-.008-.069-.007A.385.385 0 0 0 5 11.55a1.246 1.246 0 0 1-.626-.385 1.514 1.514 0 0 1-.226-.332c-.042-.08-.062-.162-.089-.278a9.7 9.7 0 0 0-.021-.09v-.001c-.02-.078-.019-.16-.016-.284v-.008c.004-.132.04-.266.1-.416v-.001c.051-.134.114-.248.196-.342l.002-.001a1.46 1.46 0 0 1 .575-.416h.001c.211-.085.436-.095.69-.07h.002c.11.011.228.054.363.12.171.085.313.188.43.322.11.125.194.259.247.407l.235-.085-.235.085.005.014c.026.071.038.106.042.14.003.033.01.074.03.115V10.481c-.05.232-.138.438-.278.619l-.001.001a.306.306 0 0 1-.008.008l-.014.013a.507.507 0 0 0-.05.052zm-.743-2.496z" fill="#FEBF2E" stroke="#000" stroke-width=".5"/><path d="M13.131 9.979a.33.33 0 0 0-.013.015.395.395 0 0 0-.045.032l-.005.004a1.13 1.13 0 0 1-.17.126l-.005.002c-.048.029-.092.05-.145.077-.027.014-.057.028-.09.046l-.003.001a.236.236 0 0 1-.054.014l-.01.003a.795.795 0 0 0-.16.045l-.005.003V7.69c.04.008.08.018.124.031h.001c.15.043.285.11.414.2l.003.001c.13.087.238.204.335.344.06.088.107.193.15.315.06.176.09.342.08.51v.003a.785.785 0 0 1-.025.147 3.42 3.42 0 0 0-.026.12 1.365 1.365 0 0 1-.188.421l-.002.004c-.033.05-.071.092-.124.15l-.036.041z" fill="#FEA63B" stroke="#000" stroke-width=".5"/><path d="M11.928 7.695V10.35a1.037 1.037 0 0 1-.167-.046h-.002c-.154-.055-.272-.108-.359-.187l-.003-.003a.34.34 0 0 0-.073-.05.345.345 0 0 0-.103-.08.558.558 0 0 0-.045-.056l-.013-.014a1.345 1.345 0 0 1-.261-.459l-.24.074m1.266-1.833-.812 2.256a.292.292 0 0 0-.2.052c-.11-.143-.199-.299-.253-.475m1.265-1.833c-.049.011-.101.026-.158.044h-.001a1.294 1.294 0 0 0-.437.235l-.001.001a1.41 1.41 0 0 0-.403.526c-.058.125-.083.27-.1.443m1.1-1.249-.753.084a1.66 1.66 0 0 0-.474.617 1.621 1.621 0 0 0-.122.525m.084.607a1.59 1.59 0 0 1-.084-.607m.084.607.239-.073a1.346 1.346 0 0 1-.074-.51m-.25-.024.25.025v-.002m-.25-.023.25.022v.001m.427 1.377.01.004a.373.373 0 0 0 .024-.088v-.002a.334.334 0 0 0 0-.084l-.034.17z" fill="#FEBF2E" stroke="#000" stroke-width=".5"/><mask id="e" fill="#fff"><path d="M9.582 11.988s-.003.02-.008.022c-.096.036-.188.084-.289.107h-.02c.101-.05.205-.099.314-.127l.003-.002z"/></mask><path d="M9.582 11.988s-.003.02-.008.022c-.096.036-.188.084-.289.107h-.02c.101-.05.205-.099.314-.127l.003-.002z" fill="#FEF67F"/><path d="m9.582 11.988.496.062.18-1.446-1.03 1.03.354.354zm-.008.022.173.47.026-.01.025-.012-.224-.448zm-.289.107v.5h.056l.054-.012-.11-.488zm-.02 0-.224-.447.224.947v-.5zm.314-.127.124.485.133-.034.097-.097-.354-.354zm.003-.002-.496-.063v-.007a.469.469 0 0 1 .03-.106.486.486 0 0 1 .235-.249l.447.895a.504.504 0 0 0 .277-.387.581.581 0 0 0 .003-.017v-.004l-.496-.063zm-.18-.447c-.058.021-.133.054-.159.064a.466.466 0 0 1-.068.024l.22.976c.09-.02.17-.05.225-.073.07-.029.088-.038.127-.052l-.346-.939zm-.117.076H9.264v1H9.285v-1zm.203.947c.098-.049.161-.076.215-.09l-.248-.968a2.078 2.078 0 0 0-.414.164l.447.894zm.445-.22.002-.003-.707-.707-.002.002.707.708z" fill="#000" mask="url(#e)"/><mask id="f" fill="#fff"><path d="M7.965 12.18c-.074.013-.14-.027-.209-.035-.01 0-.015-.015-.015-.025.076.015.155.025.224.06z"/></mask><path d="M7.965 12.18c-.074.013-.14-.027-.209-.035-.01 0-.015-.015-.015-.025.076.015.155.025.224.06z" fill="#FEF67F"/><path d="m7.965 12.18.085.493 1.464-.252-1.32-.684-.23.443zm-.209-.035.056-.497-.028-.003h-.028v.5zm-.015-.025.098-.49-.598-.12v.61h.5zm.139-.432a.316.316 0 0 1 .091-.003l.021.003-.017-.005-.035-.01a.837.837 0 0 0-.128-.025l-.11.994c-.022-.002-.034-.006-.027-.005a.72.72 0 0 1 .05.015.733.733 0 0 0 .325.021l-.17-.985zm-.124-.043c.282 0 .409.213.436.267a.461.461 0 0 1 .05.207h-1c0 .074.015.158.056.24a.513.513 0 0 0 .458.286v-1zm-.113.965.062.012a.866.866 0 0 1 .036.007c.017.004.01.004-.007-.005l.46-.888c-.15-.077-.33-.102-.355-.107l-.196.98z" fill="#000" mask="url(#f)"/><mask id="g" fill="#fff"><path d="M11.026 10.29c0 .027.013.06-.025.076-.013-.033.007-.054.025-.077z"/></mask><path d="M11.026 10.29c0 .027.013.06-.025.076-.013-.033.007-.054.025-.077z" fill="#FEA63B"/><path d="M11.026 10.29h.5V8.831l-.895 1.15.395.307zm-.025.076-.467.18.182.472.47-.188-.185-.464zm-.475-.077c0 .034.004.075.003.063v-.005a.5.5 0 0 1 .002-.072.461.461 0 0 1 .284-.373l.371.928a.544.544 0 0 0 .338-.44c.007-.06.003-.11.002-.12-.002-.026 0 0 0 .02h-1zm.941-.103a.445.445 0 0 1-.013.352c-.018.037-.036.061-.04.067l-.003.004.01-.013-.79-.614-.019.025a.55.55 0 0 0-.078.538l.933-.359z" fill="#000" mask="url(#g)"/><mask id="h" fill="#fff"><path d="M10.99 10.411c.005.026.016.054-.028.059-.002-.026-.005-.051.028-.059z"/></mask><path d="M10.99 10.411c.005.026.016.054-.028.059-.002-.026-.005-.051.028-.059z" fill="#FEA63B"/><path d="m10.99 10.411.49-.098-.1-.505-.502.116.112.487zm-.028.059-.497.05.05.506.506-.06-.059-.496zm-.462.04c.007.036.001.003 0-.001-.002-.014-.012-.079.005-.162a.478.478 0 0 1 .399-.374l.117.993a.522.522 0 0 0 .467-.614l-.007-.039-.981.196zm.96-.09v.024a.47.47 0 0 1-.358.454l-.224-.974a.529.529 0 0 0-.417.533c0 .032.004.06.004.063l.995-.1z" fill="#000" mask="url(#h)"/><mask id="i" fill="#fff"><path d="m6.329 16.193.119-.002h5.731v1.863c0 .07-.035.106-.104.106H6.732c-.013 0-.028 0-.04-.002-.01-.028-.036-.026-.061-.026a.45.45 0 0 1-.267-.256.366.366 0 0 1-.035-.14v-1.543z"/></mask><path d="m6.329 16.193.119-.002h5.731v1.863c0 .07-.035.106-.104.106H6.732c-.013 0-.028 0-.04-.002-.01-.028-.036-.026-.061-.026a.45.45 0 0 1-.267-.256.366.366 0 0 1-.035-.14v-1.543z" fill="#FEBF2E"/><path d="M6.329 16.193v-.5h-.5v.5h.5zm5.85-.002h.5v-.5h-.5v.5zm-5.487 1.967-.47.17.096.265.276.055.098-.49zm-.061-.026-.17.47.082.03h.088v-.5zm-.267-.256-.462.19.004.01.458-.2zm-.035-1.183.075-.001.044-.001v-1l-.076.001-.043.001v1zm.119-.002H12.072v-1H6.449v1zm5.624 0H12.18v-1H12.072v1zm-.393-.5V18.054h1V16.19h-1zm0 1.863c0-.039.01-.16.116-.27a.399.399 0 0 1 .28-.124v1c.115 0 .292-.03.436-.177a.608.608 0 0 0 .168-.43h-1zm.396-.394H6.819v1H12.074v-1zm-5.257 0H6.732v1H6.819v-1zm-.086 0h.003a.26.26 0 0 1 .055.008l-.196.98c.07.014.138.012.138.012v-1zm.43.327a.537.537 0 0 0-.496-.354H6.63v1h.002a.465.465 0 0 1-.412-.303l.94-.343zm-.362-.325h.002l.005.004a.077.077 0 0 1 .012.01c.008.007.008.01.003 0l-.916.4a.95.95 0 0 0 .555.527l.339-.941zm.026.024a.641.641 0 0 1-.007-.018l.001.003a.242.242 0 0 1 .009.066h-1c0 .16.057.29.073.33l.924-.381zm.003.05V16.194h-1V17.736h1z" fill="#000" mask="url(#i)"/><mask id="j" fill="#fff"><path d="M6.63 18.13c.022 0 .048-.003.06.025-.025.003-.048.003-.06-.025z"/></mask><path d="M6.63 18.13c.022 0 .048-.003.06.025-.025.003-.048.003-.06-.025z" fill="#FEA63B"/><path d="M6.63 18.13v-.5h-.777l.321.707.455-.207zm.06.025.05.498.694-.07-.288-.635-.456.207zm-.06.475c.024 0 .005 0 0 0a.463.463 0 0 1-.394-.267l.91-.415a.542.542 0 0 0-.482-.318h-.035v1zm.01-.972h.01a.386.386 0 0 1 .15.018.462.462 0 0 1 .285.247l-.91.414a.54.54 0 0 0 .335.296c.117.035.22.02.23.02l-.1-.995z" fill="#000" mask="url(#j)"/></svg>