<svg width="26" height="26" fill="none" xmlns="http://www.w3.org/2000/svg"><g opacity=".85"><path d="M12.714 25.281c6.904 0 12.5-5.596 12.5-12.5 0-6.903-5.596-12.5-12.5-12.5-6.903 0-12.5 5.597-12.5 12.5 0 6.904 5.597 12.5 12.5 12.5z" fill="#FF4C00"/><path d="M12.714 23.389c5.859 0 10.608-4.75 10.608-10.608 0-5.858-4.75-10.608-10.608-10.608-5.858 0-10.608 4.75-10.608 10.608 0 5.859 4.75 10.608 10.608 10.608z" fill="#DE3B00"/><path d="M18.263 3.728A10.559 10.559 0 0 1 19.93 9.44c0 5.858-4.749 10.607-10.607 10.607-2.035 0-3.936-.572-5.552-1.565a10.599 10.599 0 0 0 8.94 4.895c5.858 0 10.607-4.75 10.607-10.608 0-3.824-2.024-7.175-5.06-9.042h.004z" fill="#C52F05"/><path d="M3.963 13.751A9.364 9.364 0 0 1 20.75 8.043 9.364 9.364 0 1 0 5.21 18.42a9.332 9.332 0 0 1-1.244-4.668h-.002z" fill="#ED7447"/></g><mask id="a" fill="#fff"><path d="M18.975 14.63c-.008-.036.015-.061.03-.09.013.039.01.07-.03.09z"/></mask><path d="M18.975 14.63c-.008-.036.015-.061.03-.09.013.039.01.07-.03.09z" fill="#772A0C"/><path d="m18.975 14.63-.49.104.136.632.577-.29-.223-.446zm.03-.09.475-.157-.364-1.09-.55 1.008.44.24zm.459-.015a.434.434 0 0 1-.03.269l-.014.027.003-.004c0-.002.003-.005.005-.008a.693.693 0 0 0 .016-.029l-.878-.479c.004-.006.01-.015 0 0a.572.572 0 0 0-.08.433l.978-.209zm-.933.174c-.005-.015-.038-.113-.003-.24a.44.44 0 0 1 .223-.277l.447.895a.56.56 0 0 0 .282-.694l-.95.316z" fill="#000" mask="url(#a)"/><mask id="b" fill="#fff"><path d="M19.012 14.5c-.005-.028.013-.046.028-.063 0 .025.01.053-.028.063z"/></mask><path d="M19.012 14.5c-.005-.028.013-.046.028-.063 0 .025.01.053-.028.063z" fill="#772A0C"/><path d="m19.012 14.5-.492.09.097.533.524-.14-.129-.483zm.028-.063h.5v-1.352l-.88 1.026.38.326zm.464-.026a.45.45 0 0 1-.087.354c-.002.002-.01.012.003-.003l-.76-.65c.013-.016-.04.042-.077.108a.55.55 0 0 0-.063.37l.984-.18zm-.964.026c0 .024.003.07.002.047 0 0-.004-.046.008-.105a.471.471 0 0 1 .333-.362l.258.966a.528.528 0 0 0 .39-.414c.014-.07.01-.128.01-.141-.003-.035 0-.003 0 .009h-1z" fill="#000" mask="url(#b)"/><mask id="c" fill="#fff"><path d="M9.74 12.203s-.002.02-.007.023c-.096.035-.188.084-.29.106h-.02c.102-.05.206-.099.315-.126l.003-.003z"/></mask><path d="M9.74 12.203s-.002.02-.007.023c-.096.035-.188.084-.29.106h-.02c.102-.05.206-.099.315-.126l.003-.003z" fill="#FEF67F"/><path d="m9.74 12.203.497.062.18-1.446-1.03 1.03.354.354zm-.007.023.173.469.026-.01.025-.012-.224-.447zm-.29.106v.5H9.5l.054-.012-.11-.488zm-.02 0-.223-.447.223.947v-.5zm.315-.126.124.484.133-.034.097-.097-.354-.353zm.003-.003-.497-.062v-.004l.001-.003.002-.008a.383.383 0 0 1 .029-.099.486.486 0 0 1 .233-.248l.448.894a.504.504 0 0 0 .268-.345.644.644 0 0 0 .009-.041l.002-.013a.222.222 0 0 1 0-.007v-.001l-.495-.063zm-.18-.446c-.058.02-.133.053-.16.064a.48.48 0 0 1-.067.024l.22.975c.09-.02.169-.05.225-.073l.127-.052-.346-.938zm-.117.075H9.423v1H9.444v-1zm.203.948c.097-.049.161-.076.215-.09l-.248-.969a2.078 2.078 0 0 0-.414.164l.447.895zm.445-.22.002-.003-.707-.708-.002.003.707.707z" fill="#000" mask="url(#c)"/><mask id="d" fill="#fff"><path d="M8.123 12.396c-.073.013-.14-.028-.208-.036-.01 0-.015-.015-.015-.025.076.015.155.025.223.06z"/></mask><path d="M8.123 12.396c-.073.013-.14-.028-.208-.036-.01 0-.015-.015-.015-.025.076.015.155.025.223.06z" fill="#FEF67F"/><path d="m8.123 12.396.085.493 1.465-.253-1.32-.684-.23.444zm-.208-.036.055-.497-.027-.003h-.028v.5zm-.015-.025.098-.49-.598-.12v.61h.5zm.138-.432a.32.32 0 0 1 .092-.003l.021.004a2.657 2.657 0 0 1-.017-.005l-.035-.01a.837.837 0 0 0-.129-.026l-.11.994c-.021-.002-.033-.006-.027-.004l.016.005.034.01a.732.732 0 0 0 .325.02l-.17-.985zm-.123-.043c.282 0 .409.213.436.268a.461.461 0 0 1 .049.207h-1a.54.54 0 0 0 .056.24.513.513 0 0 0 .46.285v-1zm-.113.965a6.653 6.653 0 0 0 .098.02c.017.004.01.003-.007-.005l.46-.888c-.15-.078-.33-.102-.355-.107l-.196.98z" fill="#000" mask="url(#d)"/><mask id="e" fill="#fff"><path d="M11.184 10.505c0 .028.013.061-.025.076-.013-.033.007-.053.025-.076z"/></mask><path d="M11.184 10.505c0 .028.013.061-.025.076-.013-.033.007-.053.025-.076z" fill="#FEA63B"/><path d="M11.184 10.505h.5V9.048l-.894 1.15.394.307zm-.025.076-.467.18.182.473.47-.188-.185-.465zm-.475-.076c0 .034.004.074.003.062v-.005a.537.537 0 0 1 .002-.072.461.461 0 0 1 .284-.373l.371.928a.544.544 0 0 0 .338-.44c.007-.06.003-.11.002-.12-.002-.026 0 0 0 .02h-1zm.941-.103a.445.445 0 0 1-.013.351c-.018.037-.036.062-.04.068l-.003.004.01-.013-.79-.614-.019.025a.55.55 0 0 0-.078.538l.933-.36z" fill="#000" mask="url(#e)"/><mask id="f" fill="#fff"><path d="M11.149 10.627c.005.025.015.053-.028.058-.003-.025-.005-.05.028-.058z"/></mask><path d="M11.149 10.627c.005.025.015.053-.028.058-.003-.025-.005-.05.028-.058z" fill="#FEA63B"/><path d="m11.149 10.627.49-.098-.1-.505-.502.116.112.487zm-.028.058-.498.05.051.506.505-.06-.058-.496zm-.462.04c.007.037 0 .004 0 0-.002-.015-.013-.08.004-.162a.478.478 0 0 1 .4-.374l.116.993a.522.522 0 0 0 .467-.614c-.002-.018-.012-.064-.007-.04l-.98.197zm.96-.09c-.002-.01 0 .005 0 .025s0 .071-.019.134a.47.47 0 0 1-.339.32l-.224-.975a.529.529 0 0 0-.417.534c0 .032.003.06.003.062l.995-.1z" fill="#000" mask="url(#f)"/><mask id="g" fill="#fff"><path d="M6.788 18.345c.023 0 .048-.002.06.026-.025.002-.048.002-.06-.026z"/></mask><path d="M6.788 18.345c.023 0 .048-.002.06.026-.025.002-.048.002-.06-.026z" fill="#FEA63B"/><path d="M6.788 18.345v-.5H6.01l.321.707.456-.207zm.06.026.05.497.695-.07-.29-.634-.454.207zm-.06.474c.024 0 .005 0 0 0a.461.461 0 0 1-.394-.267l.91-.414a.542.542 0 0 0-.482-.318h-.034v1zm.01-.972h.01a.4.4 0 0 1 .15.018.462.462 0 0 1 .285.248l-.91.413a.54.54 0 0 0 .335.296c.117.035.22.021.23.02l-.1-.995z" fill="#000" mask="url(#g)"/><path d="M20.397 10.734c-.493.67-.543 1.507-.85 2.25-.14.336.23.535.361.782.374.702-.037 1.33-.493 1.432-.81.18-.864.648-.802 1.216.1.917-.302 1.216-1.154 1.104-.824-.11-1.686.216-2.488-.197.16-.369.49-.297.787-.302.61-.007 1.218 0 1.829-.015.194-.005.48.078.51-.229.038-.381-.276-.324-.51-.326-1.067-.008-2.136-.028-3.2 0-.799.02-1.514-.145-2.08-.735-.224-.234-.41-.337-.67-.045-.625.707-1.452.805-2.337.777a59.682 59.682 0 0 0-2.835 0c-.239.005-.645-.157-.66.25-.017.49.433.31.69.31 2.285.016 4.572.003 6.856.013.347 0 .75-.14.99.274-.245.344-.611.212-.927.215-2.345.01-4.692-.025-7.034.022-.834.017-1.173-.242-1.118-1.089.032-.533.142-1.116-.748-1.245-.378-.055-.916-.685-.59-1.146.695-.98.152-1.817-.045-2.726-.094-.44-.735-1.016-.045-1.343.588-.276.698.506.997.835.222.241.351.615.742.6.461-.015.526-.438.675-.76.025-.054.033-.12.065-.169.24-.354.155-1.007.758-1.011.513-.003.56.567.8.896.089.123.156.26.236.389.496.78.997.79 1.515.032.164-.241.249-.582.66-.5-.05.727-.384 1.328-1.081 1.51-1.343.346-1.49-1.002-2.11-1.697-.4.503-.394 1.15-.84 1.557-.538.493-1.114.107-1.751-.037.12.398.181.692.296.964.47 1.108.279 2.78 1.338 3.26 1.056.482 2.506.106 3.787.09.618-.007 1.076-.33 1.512-.742.274-.259.301-.423.062-.727a20.964 20.964 0 0 1-1.2-1.717c-.317-.5-.217-.994.181-1.415.369-.389 2.265-.498 2.758-.152.429.302.66.723.513 1.26-.054.2-.179.384-.296.559-.237.351-.493.692-.738 1.041-.605.862-.545 1.146.41 1.652.258.137.572.237.864.242.909.017 1.82-.02 2.73-.038.49.053 1.19.347 1.398-.167.525-1.288.86-2.653 1.323-4.155-.583.187-.95.443-1.376.356-.214-.11-.33-.262-.209-.51.795.196 1.094-.39 1.443-.903.261-.383.485-.867 1.098-.52v.732l.003-.002zm-8.389 3.345c.205-.249.521-.443.506-.804-.017-.339-.254-.74-.553-.733-.346.008-.608.426-.593.775.013.307.27.583.64.762zm-.393-2.23c.017-.263-.127-.363-.334-.34-.384.044-.608.261-.603.662 0 .214.065.538.282.479.363-.098.485-.506.655-.8zm1.642.223c-.023-.32-.245-.566-.67-.581-.182-.008-.4.09-.32.316.13.37.327.753.718.86.17.047.274-.264.272-.598v.002z" fill="#16140F"/><path d="M17.855 11.429c-.124.249-.007.399.21.51-.08.34-.157.678-.234 1.02-.588-.15-.907.176-1.124.65-.339.737-.528 1.477.075 2.185a.135.135 0 0 0-.06.112c-.91.017-1.821.055-2.73.037a2.002 2.002 0 0 1-.865-.242c-.954-.505-1.014-.792-.409-1.651.245-.347.501-.688.738-1.042.117-.174.244-.36.296-.558.147-.538-.084-.959-.513-1.26-.493-.347-2.39-.237-2.758.152-.399.418-.498.914-.182 1.415.374.59.768 1.168 1.201 1.716.242.307.214.469-.062.728-.434.413-.895.737-1.512.742-1.278.013-2.728.389-3.787-.09-1.06-.48-.867-2.155-1.338-3.26-.115-.27-.177-.564-.297-.965.638.145 1.211.53 1.752.037.443-.405.443-1.053.84-1.556.62.694.767 2.042 2.11 1.696.697-.18 1.031-.78 1.08-1.51.08-.199.163-.398.245-.595.872-.252.777-1.288 1.497-1.791.6 1.041 1.184 2.087 1.799 3.114.693 1.153 1.69 1.15 2.392.017.197-.316.396-.63.598-.949.264.267.192.735.655.742.057.245.187.441.386.596h-.003zm-3.051 3.69c.787.084 1.09-.516 1.1-1.047.01-.538-.29-1.116-1.058-1.098-.583.012-1.288.595-1.161 1.103.137.536.344 1.141 1.119 1.042zm-5.698-2.14c-.807-.02-1.124.543-1.104 1.096.023.593.369 1.118 1.176 1.061.758-.055 1.024-.588 1-1.143-.026-.571-.375-1.1-1.072-1.014zm-1.63 1.8c-.007-.527-.124-1.023-.448-1.454-.192-.257-.418-.469-.765-.376-.341.092-.443.398-.49.705-.08.53.05 1.031.3 1.494.188.347.437.783.865.68.466-.109.551-.597.539-1.05v.002z" fill="#F3C65F"/><path d="M14.34 17.298c-.239-.413-.642-.274-.989-.274-2.284-.01-4.571 0-6.856-.012-.254 0-.707.18-.69-.312.015-.406.421-.246.66-.249a59.682 59.682 0 0 1 2.836 0c.881.028 1.711-.07 2.336-.777.26-.291.444-.19.67.045.569.59 1.284.755 2.08.735 1.067-.028 2.133-.005 3.2 0 .234 0 .548-.055.51.326-.03.307-.316.224-.51.23-.61.014-1.218.007-1.829.014-.296.003-.628-.07-.787.302-.212-.008-.421-.013-.633-.023l.003-.005z" fill="#EDCF73"/><path d="M17.47 10.834c-.464-.008-.394-.476-.656-.743-.204.322-.404.633-.598.95-.703 1.133-1.699 1.133-2.392-.018-.615-1.027-1.198-2.07-1.798-3.114-.72.503-.626 1.54-1.498 1.791.028-.934.62-1.61 1.149-2.27.331-.413.65 0 .84.32.567.968 1.113 1.95 1.679 2.92.548.938 1.088.933 1.654 0 .095-.158.182-.317.286-.467.225-.326.334-.964.875-.67.418.227.7.73.458 1.303v-.002z" fill="#16140F"/><path d="M17.828 12.956c.08-.339.157-.678.234-1.019.429.09.795-.17 1.375-.356-.463 1.505-.797 2.87-1.323 4.155-.209.511-.909.217-1.397.167a.13.13 0 0 1 .06-.112c.398.187.62-.1.834-.336.563-.615.64-1.637.214-2.499h.003z" fill="#CA9254"/><path d="M12.009 14.082c-.372-.177-.628-.456-.64-.762-.016-.349.243-.768.592-.775.3-.005.536.394.553.732.018.357-.301.556-.505.805zM11.612 11.855c-.172.296-.291.702-.655.8-.22.06-.28-.264-.282-.479-.005-.403.22-.62.603-.662.21-.023.352.074.334.34zM13.256 12.074c.005.331-.1.643-.271.598-.394-.107-.588-.49-.718-.86-.08-.226.137-.323.319-.316.426.015.65.262.67.58v-.002z" fill="#CA646C"/><path d="M14.804 15.118c-.775.103-.985-.503-1.12-1.041-.129-.508.579-1.091 1.162-1.104.767-.017 1.069.558 1.059 1.1-.01.532-.314 1.13-1.101 1.045zM9.106 12.976c.703-.082 1.046.443 1.071 1.014.025.553-.239 1.089-.999 1.144-.807.057-1.153-.466-1.176-1.062-.02-.553.297-1.116 1.104-1.096zM17.828 12.956c.426.862.346 1.883-.214 2.499-.215.236-.436.523-.835.336-.603-.707-.413-1.447-.075-2.185.22-.476.538-.8 1.124-.65zm-.302.439c-.68.854-.727 1.106-.398 1.836.428-.511.615-1.052.398-1.836zM7.476 14.775c.013.453-.074.939-.538 1.05-.428.1-.675-.33-.864-.68-.25-.463-.379-.966-.302-1.494.045-.306.147-.613.491-.705.346-.095.573.12.765.376.324.431.438.927.448 1.455v-.002zm-1.133-1.478c-.11.872-.075 1.455.493 1.998.316-.742.072-1.273-.493-1.998z" fill="#16140F"/><path d="M17.526 13.397c.22.785.03 1.325-.398 1.836-.331-.73-.284-.981.398-1.836zM6.343 13.3c.566.727.812 1.255.493 1.998-.568-.543-.603-1.126-.493-1.998z" fill="#CA646C"/></svg>