<svg width="27" height="27" fill="none" xmlns="http://www.w3.org/2000/svg"><g opacity=".85"><path d="M13.65 26.243c6.904 0 12.5-5.597 12.5-12.5 0-6.904-5.596-12.5-12.5-12.5-6.903 0-12.5 5.596-12.5 12.5 0 6.903 5.597 12.5 12.5 12.5z" fill="#FF4C00"/><path d="M13.65 24.35c5.859 0 10.608-4.749 10.608-10.607 0-5.859-4.75-10.608-10.608-10.608-5.858 0-10.608 4.75-10.608 10.608 0 5.858 4.75 10.607 10.608 10.607z" fill="#DE3B00"/><path d="M19.199 4.69a10.56 10.56 0 0 1 1.668 5.712c0 5.86-4.749 10.608-10.607 10.608-2.035 0-3.936-.573-5.551-1.565a10.599 10.599 0 0 0 8.938 4.894c5.86 0 10.608-4.749 10.608-10.607 0-3.824-2.024-7.176-5.06-9.043h.004z" fill="#C52F05"/><path d="M4.899 14.713a9.364 9.364 0 0 1 16.787-5.708A9.364 9.364 0 1 0 6.145 19.38a9.331 9.331 0 0 1-1.244-4.668H4.9z" fill="#ED7447"/></g><path d="M21.681 11.455c-.606.393-.865 1.005-1.072 1.662-.245.77-.488 1.539-.779 2.293-.42 1.083-.72 2.18-.582 3.357.06.531-.083.784-.698.779-3.704-.024-7.406-.019-11.111-.003-.517 0-.746-.15-.698-.692.221-2.4-1.088-4.419-1.678-6.615-.076-.283-.35-.337-.501-.525-.343-.426-.372-.86.013-1.258.34-.353.765-.434 1.177-.13.431.318.55.739.28 1.229-.355.652-.04 1.509.763 2.085.72.518 1.218.14 1.665-.412.534-.663.84-1.441 1.159-2.22.11-.27.067-.442-.095-.668-.334-.472-.301-.946.176-1.31.401-.307.827-.264 1.177.095.418.428.412.897-.019 1.309-.197.189-.334.326-.2.62.394.846.771 1.703 1.456 2.363.662.638 1.15.63 1.748-.035.615-.685.897-1.547 1.237-2.38.132-.325-.127-.428-.28-.608-.35-.415-.359-.865.016-1.259.34-.358.765-.42 1.177-.118.48.353.596.843.21 1.288-.288.334-.215.598-.08.908.334.77.665 1.546 1.253 2.166.654.69 1.296.744 1.918.04.488-.55 1.404-1.037.587-2.053-.272-.34-.032-.787.345-1.04.62-.417 1.037-.037 1.441.386v.746h-.005zm-6.105.048c-.34.633-.625 1.29-1.019 1.878-.924 1.374-2.04 1.404-3.112.138-.525-.62-.883-1.356-1.277-2.134-1.85 3.27-1.94 3.333-3.877 2.761.254.72.528 1.428.752 2.153.121.394.323.536.733.534 3.486-.014 6.967-.008 10.454-.008.248 0 .53.037.625-.275.237-.809.67-1.563.727-2.47-1.805.786-2.212.516-4-2.577h-.006zm-2.598 7.46c1.68 0 3.36-.032 5.039.017.652.019.695-.28.674-.779-.02-.447.059-.821-.642-.813-3.36.035-6.72.035-10.08 0-.649-.008-.667.283-.68.778-.014.555.07.836.74.814 1.646-.051 3.298-.016 4.947-.016h.002z" fill="#16120B"/><path d="M15.579 11.498c1.786 3.093 2.195 3.362 4 2.576-.056.908-.49 1.665-.727 2.47-.091.313-.377.275-.625.275-3.486 0-6.967-.005-10.454.008-.41 0-.611-.14-.733-.533-.223-.725-.498-1.434-.751-2.153 1.937.571 2.026.51 3.877-2.762.393.782.751 1.512 1.277 2.134 1.072 1.267 2.188 1.237 3.112-.137.396-.587.681-1.248 1.018-1.878h.005z" fill="#F5D336"/><path d="M12.978 18.959c-1.649 0-3.3-.035-4.947.016-.668.021-.751-.256-.74-.814.01-.498.029-.787.681-.779 3.36.035 6.72.035 10.08 0 .7-.008.622.364.64.814.022.498-.02.797-.673.779-1.678-.049-3.36-.017-5.038-.017h-.003z" fill="#FBAC3A"/><circle cx="13.272" cy="13.743" r="12" stroke="#FFFEFE" stroke-width="1.757"/><mask id="a" fill="#fff"><path d="M19.91 15.591c-.007-.035.016-.06.031-.089.013.038.01.069-.03.09z"/></mask><path d="M19.91 15.591c-.007-.035.016-.06.031-.089.013.038.01.069-.03.09z" fill="#772A0C"/><path d="m19.91 15.591-.488.105.135.631.577-.289-.223-.447zm.031-.089.475-.158-.364-1.09-.55 1.009.44.24zm.459-.016a.435.435 0 0 1-.03.27l-.014.026.003-.004a.326.326 0 0 1 .005-.008l.016-.028-.878-.48c.004-.006.01-.014 0 .002a.571.571 0 0 0-.08.433l.978-.21zm-.933.174a.44.44 0 0 1 .22-.516l.447.894a.56.56 0 0 0 .282-.694l-.95.316z" fill="#000" mask="url(#a)"/><mask id="b" fill="#fff"><path d="M19.948 15.462c-.005-.028.013-.046.028-.064 0 .026.01.054-.028.064z"/></mask><path d="M19.948 15.462c-.005-.028.013-.046.028-.064 0 .026.01.054-.028.064z" fill="#772A0C"/><path d="m19.948 15.462-.492.09.097.533.524-.14-.129-.483zm.028-.064h.5v-1.351l-.88 1.026.38.325zm.464-.025a.45.45 0 0 1-.087.354c-.002.002-.01.012.003-.003l-.76-.651c.013-.015-.04.043-.077.108-.05.09-.09.22-.063.37l.984-.178zm-.964.025c0 .025.003.07.002.048 0-.001-.004-.047.008-.106a.47.47 0 0 1 .333-.361l.258.966a.53.53 0 0 0 .39-.414c.014-.07.01-.128.01-.142-.003-.034 0-.002 0 .01h-1z" fill="#000" mask="url(#b)"/><mask id="c" fill="#fff"><path d="M10.677 13.165s-.003.02-.008.023c-.096.035-.188.083-.29.106h-.02c.102-.05.206-.099.315-.127l.003-.002z"/></mask><path d="M10.677 13.165s-.003.02-.008.023c-.096.035-.188.083-.29.106h-.02c.102-.05.206-.099.315-.127l.003-.002z" fill="#FEF67F"/><path d="m10.677 13.165.496.062.18-1.446-1.03 1.03.354.354zm-.008.023.173.469.026-.01.025-.012-.224-.447zm-.29.106v.5h.056l.054-.012-.11-.488zm-.02 0-.223-.447.223.947v-.5zm.315-.127.124.485.133-.034.097-.097-.354-.354zm.003-.002-.496-.063v-.007l.002-.008.005-.027a.482.482 0 0 1 .257-.32l.448.895a.506.506 0 0 0 .277-.387l.002-.012V13.227l-.495-.062zm-.18-.447c-.058.021-.133.054-.16.064a.473.473 0 0 1-.067.024l.22.976c.09-.02.169-.05.225-.073.069-.028.088-.038.127-.052l-.346-.939zm-.117.076H10.36v1H10.38v-1zm.203.947c.097-.048.161-.076.215-.09l-.248-.968a2.089 2.089 0 0 0-.414.164l.447.894zm.445-.22.002-.003-.707-.707-.002.002.707.708z" fill="#000" mask="url(#c)"/><mask id="d" fill="#fff"><path d="M9.06 13.357c-.074.013-.14-.027-.209-.035-.01 0-.015-.015-.015-.025.076.015.155.025.223.06z"/></mask><path d="M9.06 13.357c-.074.013-.14-.027-.209-.035-.01 0-.015-.015-.015-.025.076.015.155.025.223.06z" fill="#FEF67F"/><path d="m9.06 13.357.084.493 1.465-.252-1.32-.684-.23.444zm-.209-.035.055-.497-.027-.003H8.85v.5zm-.015-.025.098-.49-.598-.12v.61h.5zm.138-.432a.317.317 0 0 1 .092-.003 2.408 2.408 0 0 1 .004-.001.825.825 0 0 0-.164-.036l-.11.994c-.02-.002-.033-.006-.027-.005l.016.005.035.01a.734.734 0 0 0 .324.021l-.17-.985zm-.123-.043c.282 0 .409.213.436.268a.461.461 0 0 1 .049.207h-1a.54.54 0 0 0 .057.24.513.513 0 0 0 .458.285v-1zm-.113.965.062.012a.902.902 0 0 1 .036.007c.017.004.01.004-.007-.005l.46-.887c-.15-.078-.33-.103-.355-.108l-.196.98z" fill="#000" mask="url(#d)"/><mask id="e" fill="#fff"><path d="M12.12 11.466c0 .029.013.062-.025.077-.013-.033.007-.054.025-.076z"/></mask><path d="M12.12 11.466c0 .029.013.062-.025.077-.013-.033.007-.054.025-.076z" fill="#FEA63B"/><path d="M12.12 11.466h.5V10.01l-.894 1.15.394.307zm-.025.077-.467.18.182.472.47-.188-.185-.464zm-.475-.076c0 .033.004.074.003.062v-.02c0-.011 0-.032.002-.057a.462.462 0 0 1 .284-.373l.371.928a.544.544 0 0 0 .338-.44c.008-.06.003-.11.002-.12-.002-.026 0 0 0 .02h-1zm.942-.104a.448.448 0 0 1-.054.42l-.003.003.01-.012-.79-.614-.019.024a.552.552 0 0 0-.078.538l.934-.359z" fill="#000" mask="url(#e)"/><mask id="f" fill="#fff"><path d="M12.085 11.588c.005.026.015.054-.028.059-.002-.026-.005-.051.028-.059z"/></mask><path d="M12.085 11.588c.005.026.015.054-.028.059-.002-.026-.005-.051.028-.059z" fill="#FEA63B"/><path d="m12.085 11.588.49-.098-.1-.505-.502.116.112.487zm-.028.059-.498.05.051.506.505-.06-.058-.496zm-.462.04c.007.036 0 .004 0-.001-.002-.014-.013-.079.004-.162a.478.478 0 0 1 .4-.374l.116.993a.522.522 0 0 0 .467-.614c-.002-.017-.012-.063-.007-.039l-.98.196zm.96-.09c-.002-.01 0 .005 0 .024 0 .02 0 .072-.019.135a.47.47 0 0 1-.338.32l-.225-.975a.53.53 0 0 0-.417.534c0 .031.003.06.003.062l.996-.1z" fill="#000" mask="url(#f)"/><mask id="g" fill="#fff"><path d="M7.724 19.307c.023 0 .048-.003.06.025-.025.003-.048.003-.06-.025z"/></mask><path d="M7.724 19.307c.023 0 .048-.003.06.025-.025.003-.048.003-.06-.025z" fill="#FEA63B"/><path d="M7.724 19.307v-.5h-.777l.321.707.456-.207zm.06.025.05.498.695-.07-.29-.635-.454.207zm-.06.475c.024 0 .005 0 0 0a.46.46 0 0 1-.394-.267l.91-.415a.542.542 0 0 0-.482-.318h-.034v1zm.011-.972h.01a.4.4 0 0 1 .15.018.462.462 0 0 1 .284.247l-.91.414a.54.54 0 0 0 .335.296c.117.035.22.02.23.02l-.099-.995z" fill="#000" mask="url(#g)"/></svg>