<svg width="26" height="27" viewBox="0 0 26 27" fill="none" xmlns="http://www.w3.org/2000/svg">
<g opacity="0.85">
<path d="M13.4072 25.6595C20.3108 25.6595 25.9072 20.0631 25.9072 13.1595C25.9072 6.25596 20.3108 0.659515 13.4072 0.659515C6.50367 0.659515 0.907227 6.25596 0.907227 13.1595C0.907227 20.0631 6.50367 25.6595 13.4072 25.6595Z" fill="#FF4C00"/>
<path d="M13.407 23.7672C19.2654 23.7672 24.0147 19.018 24.0147 13.1595C24.0147 7.30107 19.2654 2.55185 13.407 2.55185C7.54853 2.55185 2.79932 7.30107 2.79932 13.1595C2.79932 19.018 7.54853 23.7672 13.407 23.7672Z" fill="#DE3B00"/>
<path d="M18.9555 4.10596C20.0121 5.75511 20.6242 7.71732 20.6242 9.81928C20.6242 15.678 15.8752 20.427 10.0165 20.427C7.98166 20.427 6.08094 19.8539 4.46533 18.8617C6.34928 21.805 9.65037 23.756 13.4043 23.756C19.263 23.756 24.012 19.007 24.012 13.1483C24.012 9.32454 21.9883 5.97313 18.9527 4.10596H18.9555Z" fill="#C52F05"/>
<path d="M4.65547 14.1295C4.65547 8.95839 8.84822 4.76563 14.0193 4.76563C17.0409 4.76563 19.7298 6.19956 21.4433 8.42172C19.8277 5.61536 16.7949 3.72583 13.3233 3.72583C8.15223 3.72583 3.95947 7.91858 3.95947 13.0896C3.95947 15.2391 4.68342 17.2181 5.90212 18.7974C5.11108 17.4222 4.65827 15.8289 4.65827 14.1295H4.65547Z" fill="#ED7447"/>
</g>
<circle cx="13.0288" cy="13.1595" r="12" stroke="#FFFEFE" stroke-width="1.75684"/>
<mask id="path-6-inside-1_1189_5549" fill="white">
<path d="M19.6675 15.0081C19.6599 14.9725 19.6828 14.947 19.6981 14.919C19.7108 14.9572 19.7083 14.9878 19.6675 15.0081Z"/>
</mask>
<path d="M19.6675 15.0081C19.6599 14.9725 19.6828 14.947 19.6981 14.919C19.7108 14.9572 19.7083 14.9878 19.6675 15.0081Z" fill="#772A0C"/>
<path d="M19.6675 15.0081L19.1786 15.1129L19.3139 15.744L19.8911 15.4554L19.6675 15.0081ZM19.6981 14.919L20.1724 14.7609L19.8092 13.6712L19.2591 14.6796L19.6981 14.919ZM20.1564 14.9034C20.1684 14.9591 20.1686 15.0145 20.1601 15.0657C20.1519 15.1145 20.1371 15.1512 20.1273 15.1722C20.1184 15.1913 20.1103 15.204 20.1132 15.1992C20.1138 15.1983 20.1142 15.1975 20.1156 15.1952C20.1168 15.1934 20.1185 15.1905 20.1205 15.1872C20.1243 15.1809 20.1304 15.1707 20.137 15.1585L19.2591 14.6796C19.2626 14.6733 19.268 14.6645 19.2584 14.6803C19.2529 14.6893 19.2367 14.7158 19.2211 14.7493C19.1855 14.8257 19.1448 14.9549 19.1786 15.1129L20.1564 14.9034ZM19.2237 15.0772C19.2188 15.0623 19.1856 14.9647 19.2209 14.837C19.2639 14.6817 19.3727 14.5965 19.4439 14.5609L19.8911 15.4554C20.0031 15.3994 20.1335 15.2887 20.1848 15.1036C20.2284 14.9459 20.1901 14.8139 20.1724 14.7609L19.2237 15.0772Z" fill="black" mask="url(#path-6-inside-1_1189_5549)"/>
<mask id="path-8-inside-2_1189_5549" fill="white">
<path d="M19.705 14.8787C19.6999 14.8507 19.7177 14.8329 19.733 14.8151C19.733 14.8406 19.7432 14.8686 19.705 14.8787Z"/>
</mask>
<path d="M19.705 14.8787C19.6999 14.8507 19.7177 14.8329 19.733 14.8151C19.733 14.8406 19.7432 14.8686 19.705 14.8787Z" fill="#772A0C"/>
<path d="M19.705 14.8787L19.2131 14.9682L19.31 15.5015L19.8338 15.3619L19.705 14.8787ZM19.733 14.8151H20.233V13.4635L19.3534 14.4897L19.733 14.8151ZM20.1969 14.7893C20.2069 14.8443 20.2066 14.902 20.1951 14.9588C20.1839 15.0142 20.1643 15.0578 20.1471 15.0882C20.1308 15.1172 20.1153 15.1368 20.1099 15.1434C20.108 15.1457 20.0998 15.1554 20.1126 15.1405L19.3534 14.4897C19.3661 14.4748 19.3122 14.5329 19.2756 14.598C19.225 14.6879 19.1856 14.8171 19.2131 14.9682L20.1969 14.7893ZM19.233 14.8151C19.233 14.8396 19.236 14.8847 19.2348 14.8624C19.2347 14.8618 19.2311 14.8159 19.2425 14.7572C19.256 14.6879 19.2909 14.5962 19.3703 14.5161C19.4454 14.4403 19.5269 14.4088 19.5762 14.3956L19.8338 15.3619C19.9022 15.3436 19.9967 15.3047 20.0806 15.22C20.1689 15.131 20.2084 15.0289 20.2241 14.9481C20.2377 14.878 20.2339 14.8196 20.2332 14.8063C20.2312 14.7713 20.233 14.8033 20.233 14.8151H19.233Z" fill="black" mask="url(#path-8-inside-2_1189_5549)"/>
<mask id="path-10-inside-3_1189_5549" fill="white">
<path d="M10.4335 12.5815C10.4335 12.5815 10.4309 12.6018 10.4259 12.6043C10.3294 12.6398 10.238 12.6881 10.1365 12.7109C10.1314 12.7109 10.1238 12.7109 10.1162 12.7109C10.2177 12.6601 10.3218 12.6119 10.4309 12.584L10.4335 12.5815Z"/>
</mask>
<path d="M10.4335 12.5815C10.4335 12.5815 10.4309 12.6018 10.4259 12.6043C10.3294 12.6398 10.238 12.6881 10.1365 12.7109C10.1314 12.7109 10.1238 12.7109 10.1162 12.7109C10.2177 12.6601 10.3218 12.6119 10.4309 12.584L10.4335 12.5815Z" fill="#FEF67F"/>
<path d="M10.4335 12.5815L10.9296 12.6435L11.1104 11.1978L10.08 12.2278L10.4335 12.5815ZM10.4259 12.6043L10.5987 13.0735L10.6247 13.0639L10.6495 13.0515L10.4259 12.6043ZM10.1365 12.7109V13.2109H10.1921L10.2463 13.1987L10.1365 12.7109ZM10.1162 12.7109L9.8926 12.2637L10.1162 13.2109V12.7109ZM10.4309 12.584L10.5549 13.0684L10.6876 13.0344L10.7844 12.9376L10.4309 12.584ZM10.4335 12.5815C9.93734 12.5194 9.93735 12.5194 9.93736 12.5193C9.93736 12.5193 9.93737 12.5192 9.93737 12.5192C9.93738 12.5191 9.93739 12.519 9.9374 12.519C9.93742 12.5188 9.93744 12.5187 9.93746 12.5185C9.9375 12.5182 9.93753 12.5179 9.93757 12.5176C9.93765 12.517 9.93773 12.5164 9.9378 12.5159C9.93796 12.5147 9.93813 12.5135 9.9383 12.5122C9.93865 12.5098 9.93906 12.5071 9.93954 12.5041C9.94038 12.4989 9.94202 12.4895 9.94487 12.4774C9.94689 12.4688 9.95361 12.4407 9.96838 12.4056C9.97575 12.3881 9.99088 12.3549 10.0172 12.317C10.0399 12.2844 10.0973 12.2096 10.2023 12.1571L10.6495 13.0515C10.7557 12.9984 10.8143 12.9224 10.8381 12.8881C10.8655 12.8487 10.8817 12.8134 10.89 12.7937C10.9067 12.7541 10.915 12.7204 10.9183 12.7065C10.9224 12.6889 10.925 12.6743 10.9265 12.6652C10.9273 12.6603 10.9279 12.656 10.9284 12.6524C10.9287 12.6506 10.9289 12.649 10.9291 12.6475C10.9292 12.6468 10.9293 12.6461 10.9294 12.6454C10.9294 12.645 10.9295 12.6447 10.9295 12.6444C10.9295 12.6442 10.9295 12.6441 10.9296 12.6439C10.9296 12.6439 10.9296 12.6438 10.9296 12.6437C10.9296 12.6437 10.9296 12.6436 10.9296 12.6436C10.9296 12.6435 10.9296 12.6435 10.4335 12.5815ZM10.253 12.1351C10.1957 12.1562 10.1205 12.1887 10.0947 12.1992C10.0553 12.2152 10.0372 12.2208 10.0268 12.2231L10.2463 13.1987C10.3374 13.1782 10.4157 13.1482 10.4714 13.1255C10.5409 13.0973 10.5596 13.0879 10.5987 13.0735L10.253 12.1351ZM10.1365 12.2109C10.1365 12.2109 10.1365 12.2109 10.1365 12.2109C10.1365 12.2109 10.1365 12.2109 10.1365 12.2109C10.1364 12.2109 10.1364 12.2109 10.1364 12.2109C10.1364 12.2109 10.1364 12.2109 10.1364 12.2109C10.1364 12.2109 10.1364 12.2109 10.1364 12.2109C10.1364 12.2109 10.1363 12.2109 10.1363 12.2109C10.1363 12.2109 10.1363 12.2109 10.1363 12.2109C10.1363 12.2109 10.1363 12.2109 10.1363 12.2109C10.1363 12.2109 10.1363 12.2109 10.1362 12.2109C10.1362 12.2109 10.1362 12.2109 10.1362 12.2109C10.1362 12.2109 10.1362 12.2109 10.1362 12.2109C10.1362 12.2109 10.1362 12.2109 10.1362 12.2109C10.1361 12.2109 10.1361 12.2109 10.1361 12.2109C10.1361 12.2109 10.1361 12.2109 10.1361 12.2109C10.1361 12.2109 10.1361 12.2109 10.1361 12.2109C10.1361 12.2109 10.136 12.2109 10.136 12.2109C10.136 12.2109 10.136 12.2109 10.136 12.2109C10.136 12.2109 10.136 12.2109 10.136 12.2109C10.136 12.2109 10.136 12.2109 10.1359 12.2109C10.1359 12.2109 10.1359 12.2109 10.1359 12.2109C10.1359 12.2109 10.1359 12.2109 10.1359 12.2109C10.1359 12.2109 10.1359 12.2109 10.1358 12.2109C10.1358 12.2109 10.1358 12.2109 10.1358 12.2109C10.1358 12.2109 10.1358 12.2109 10.1358 12.2109C10.1358 12.2109 10.1358 12.2109 10.1358 12.2109C10.1357 12.2109 10.1357 12.2109 10.1357 12.2109C10.1357 12.2109 10.1357 12.2109 10.1357 12.2109C10.1357 12.2109 10.1357 12.2109 10.1357 12.2109C10.1357 12.2109 10.1356 12.2109 10.1356 12.2109C10.1356 12.2109 10.1356 12.2109 10.1356 12.2109C10.1356 12.2109 10.1356 12.2109 10.1356 12.2109C10.1356 12.2109 10.1355 12.2109 10.1355 12.2109C10.1355 12.2109 10.1355 12.2109 10.1355 12.2109C10.1355 12.2109 10.1355 12.2109 10.1355 12.2109C10.1355 12.2109 10.1355 12.2109 10.1354 12.2109C10.1354 12.2109 10.1354 12.2109 10.1354 12.2109C10.1354 12.2109 10.1354 12.2109 10.1354 12.2109C10.1354 12.2109 10.1354 12.2109 10.1353 12.2109C10.1353 12.2109 10.1353 12.2109 10.1353 12.2109C10.1353 12.2109 10.1353 12.2109 10.1353 12.2109C10.1353 12.2109 10.1353 12.2109 10.1352 12.2109C10.1352 12.2109 10.1352 12.2109 10.1352 12.2109C10.1352 12.2109 10.1352 12.2109 10.1352 12.2109C10.1352 12.2109 10.1352 12.2109 10.1352 12.2109C10.1351 12.2109 10.1351 12.2109 10.1351 12.2109C10.1351 12.2109 10.1351 12.2109 10.1351 12.2109C10.1351 12.2109 10.1351 12.2109 10.1351 12.2109C10.135 12.2109 10.135 12.2109 10.135 12.2109C10.135 12.2109 10.135 12.2109 10.135 12.2109C10.135 12.2109 10.135 12.2109 10.135 12.2109C10.1349 12.2109 10.1349 12.2109 10.1349 12.2109C10.1349 12.2109 10.1349 12.2109 10.1349 12.2109C10.1349 12.2109 10.1349 12.2109 10.1349 12.2109C10.1348 12.2109 10.1348 12.2109 10.1348 12.2109C10.1348 12.2109 10.1348 12.2109 10.1348 12.2109C10.1348 12.2109 10.1348 12.2109 10.1348 12.2109C10.1348 12.2109 10.1347 12.2109 10.1347 12.2109C10.1347 12.2109 10.1347 12.2109 10.1347 12.2109C10.1347 12.2109 10.1347 12.2109 10.1347 12.2109C10.1347 12.2109 10.1346 12.2109 10.1346 12.2109C10.1346 12.2109 10.1346 12.2109 10.1346 12.2109C10.1346 12.2109 10.1346 12.2109 10.1346 12.2109C10.1346 12.2109 10.1345 12.2109 10.1345 12.2109C10.1345 12.2109 10.1345 12.2109 10.1345 12.2109C10.1345 12.2109 10.1345 12.2109 10.1345 12.2109C10.1345 12.2109 10.1344 12.2109 10.1344 12.2109C10.1344 12.2109 10.1344 12.2109 10.1344 12.2109C10.1344 12.2109 10.1344 12.2109 10.1344 12.2109C10.1344 12.2109 10.1343 12.2109 10.1343 12.2109C10.1343 12.2109 10.1343 12.2109 10.1343 12.2109C10.1343 12.2109 10.1343 12.2109 10.1343 12.2109C10.1343 12.2109 10.1342 12.2109 10.1342 12.2109C10.1342 12.2109 10.1342 12.2109 10.1342 12.2109C10.1342 12.2109 10.1342 12.2109 10.1342 12.2109C10.1342 12.2109 10.1341 12.2109 10.1341 12.2109C10.1341 12.2109 10.1341 12.2109 10.1341 12.2109C10.1341 12.2109 10.1341 12.2109 10.1341 12.2109C10.1341 12.2109 10.134 12.2109 10.134 12.2109C10.134 12.2109 10.134 12.2109 10.134 12.2109C10.134 12.2109 10.134 12.2109 10.134 12.2109C10.1339 12.2109 10.1339 12.2109 10.1339 12.2109C10.1339 12.2109 10.1339 12.2109 10.1339 12.2109C10.1339 12.2109 10.1339 12.2109 10.1339 12.2109C10.1338 12.2109 10.1338 12.2109 10.1338 12.2109C10.1338 12.2109 10.1338 12.2109 10.1338 12.2109C10.1338 12.2109 10.1338 12.2109 10.1338 12.2109C10.1337 12.2109 10.1337 12.2109 10.1337 12.2109C10.1337 12.2109 10.1337 12.2109 10.1337 12.2109C10.1337 12.2109 10.1337 12.2109 10.1337 12.2109C10.1336 12.2109 10.1336 12.2109 10.1336 12.2109C10.1336 12.2109 10.1336 12.2109 10.1336 12.2109C10.1336 12.2109 10.1336 12.2109 10.1335 12.2109C10.1335 12.2109 10.1335 12.2109 10.1335 12.2109C10.1335 12.2109 10.1335 12.2109 10.1335 12.2109C10.1335 12.2109 10.1335 12.2109 10.1334 12.2109C10.1334 12.2109 10.1334 12.2109 10.1334 12.2109C10.1334 12.2109 10.1334 12.2109 10.1334 12.2109C10.1334 12.2109 10.1334 12.2109 10.1333 12.2109C10.1333 12.2109 10.1333 12.2109 10.1333 12.2109C10.1333 12.2109 10.1333 12.2109 10.1333 12.2109C10.1333 12.2109 10.1332 12.2109 10.1332 12.2109C10.1332 12.2109 10.1332 12.2109 10.1332 12.2109C10.1332 12.2109 10.1332 12.2109 10.1332 12.2109C10.1332 12.2109 10.1331 12.2109 10.1331 12.2109C10.1331 12.2109 10.1331 12.2109 10.1331 12.2109C10.1331 12.2109 10.1331 12.2109 10.1331 12.2109C10.133 12.2109 10.133 12.2109 10.133 12.2109C10.133 12.2109 10.133 12.2109 10.133 12.2109C10.133 12.2109 10.133 12.2109 10.133 12.2109C10.1329 12.2109 10.1329 12.2109 10.1329 12.2109C10.1329 12.2109 10.1329 12.2109 10.1329 12.2109C10.1329 12.2109 10.1329 12.2109 10.1328 12.2109C10.1328 12.2109 10.1328 12.2109 10.1328 12.2109C10.1328 12.2109 10.1328 12.2109 10.1328 12.2109C10.1328 12.2109 10.1328 12.2109 10.1327 12.2109C10.1327 12.2109 10.1327 12.2109 10.1327 12.2109C10.1327 12.2109 10.1327 12.2109 10.1327 12.2109C10.1327 12.2109 10.1326 12.2109 10.1326 12.2109C10.1326 12.2109 10.1326 12.2109 10.1326 12.2109C10.1326 12.2109 10.1326 12.2109 10.1326 12.2109C10.1325 12.2109 10.1325 12.2109 10.1325 12.2109C10.1325 12.2109 10.1325 12.2109 10.1325 12.2109C10.1325 12.2109 10.1325 12.2109 10.1325 12.2109C10.1324 12.2109 10.1324 12.2109 10.1324 12.2109C10.1324 12.2109 10.1324 12.2109 10.1324 12.2109C10.1324 12.2109 10.1324 12.2109 10.1323 12.2109C10.1323 12.2109 10.1323 12.2109 10.1323 12.2109C10.1323 12.2109 10.1323 12.2109 10.1323 12.2109C10.1323 12.2109 10.1322 12.2109 10.1322 12.2109C10.1322 12.2109 10.1322 12.2109 10.1322 12.2109C10.1322 12.2109 10.1322 12.2109 10.1322 12.2109C10.1322 12.2109 10.1321 12.2109 10.1321 12.2109C10.1321 12.2109 10.1321 12.2109 10.1321 12.2109C10.1321 12.2109 10.1321 12.2109 10.1321 12.2109C10.132 12.2109 10.132 12.2109 10.132 12.2109C10.132 12.2109 10.132 12.2109 10.132 12.2109C10.132 12.2109 10.132 12.2109 10.1319 12.2109C10.1319 12.2109 10.1319 12.2109 10.1319 12.2109C10.1319 12.2109 10.1319 12.2109 10.1319 12.2109C10.1319 12.2109 10.1318 12.2109 10.1318 12.2109C10.1318 12.2109 10.1318 12.2109 10.1318 12.2109C10.1318 12.2109 10.1318 12.2109 10.1318 12.2109C10.1317 12.2109 10.1317 12.2109 10.1317 12.2109C10.1317 12.2109 10.1317 12.2109 10.1317 12.2109C10.1317 12.2109 10.1317 12.2109 10.1316 12.2109C10.1316 12.2109 10.1316 12.2109 10.1316 12.2109C10.1316 12.2109 10.1316 12.2109 10.1316 12.2109C10.1316 12.2109 10.1316 12.2109 10.1315 12.2109C10.1315 12.2109 10.1315 12.2109 10.1315 12.2109C10.1315 12.2109 10.1315 12.2109 10.1315 12.2109C10.1315 12.2109 10.1314 12.2109 10.1314 12.2109C10.1314 12.2109 10.1314 12.2109 10.1314 12.2109C10.1314 12.2109 10.1314 12.2109 10.1314 12.2109C10.1313 12.2109 10.1313 12.2109 10.1313 12.2109C10.1313 12.2109 10.1313 12.2109 10.1313 12.2109C10.1313 12.2109 10.1313 12.2109 10.1312 12.2109C10.1312 12.2109 10.1312 12.2109 10.1312 12.2109C10.1312 12.2109 10.1312 12.2109 10.1312 12.2109C10.1312 12.2109 10.1311 12.2109 10.1311 12.2109C10.1311 12.2109 10.1311 12.2109 10.1311 12.2109C10.1311 12.2109 10.1311 12.2109 10.1311 12.2109C10.131 12.2109 10.131 12.2109 10.131 12.2109C10.131 12.2109 10.131 12.2109 10.131 12.2109C10.131 12.2109 10.131 12.2109 10.1309 12.2109C10.1309 12.2109 10.1309 12.2109 10.1309 12.2109C10.1309 12.2109 10.1309 12.2109 10.1309 12.2109C10.1309 12.2109 10.1308 12.2109 10.1308 12.2109C10.1308 12.2109 10.1308 12.2109 10.1308 12.2109C10.1308 12.2109 10.1308 12.2109 10.1308 12.2109C10.1307 12.2109 10.1307 12.2109 10.1307 12.2109C10.1307 12.2109 10.1307 12.2109 10.1307 12.2109C10.1307 12.2109 10.1306 12.2109 10.1306 12.2109C10.1306 12.2109 10.1306 12.2109 10.1306 12.2109C10.1306 12.2109 10.1306 12.2109 10.1306 12.2109C10.1305 12.2109 10.1305 12.2109 10.1305 12.2109C10.1305 12.2109 10.1305 12.2109 10.1305 12.2109C10.1305 12.2109 10.1305 12.2109 10.1304 12.2109C10.1304 12.2109 10.1304 12.2109 10.1304 12.2109C10.1304 12.2109 10.1304 12.2109 10.1304 12.2109C10.1304 12.2109 10.1303 12.2109 10.1303 12.2109C10.1303 12.2109 10.1303 12.2109 10.1303 12.2109C10.1303 12.2109 10.1303 12.2109 10.1303 12.2109C10.1302 12.2109 10.1302 12.2109 10.1302 12.2109C10.1302 12.2109 10.1302 12.2109 10.1302 12.2109C10.1302 12.2109 10.1302 12.2109 10.1301 12.2109C10.1301 12.2109 10.1301 12.2109 10.1301 12.2109C10.1301 12.2109 10.1301 12.2109 10.1301 12.2109C10.13 12.2109 10.13 12.2109 10.13 12.2109C10.13 12.2109 10.13 12.2109 10.13 12.2109C10.13 12.2109 10.13 12.2109 10.1299 12.2109C10.1299 12.2109 10.1299 12.2109 10.1299 12.2109C10.1299 12.2109 10.1299 12.2109 10.1299 12.2109C10.1299 12.2109 10.1298 12.2109 10.1298 12.2109C10.1298 12.2109 10.1298 12.2109 10.1298 12.2109C10.1298 12.2109 10.1298 12.2109 10.1298 12.2109C10.1297 12.2109 10.1297 12.2109 10.1297 12.2109C10.1297 12.2109 10.1297 12.2109 10.1297 12.2109C10.1297 12.2109 10.1296 12.2109 10.1296 12.2109C10.1296 12.2109 10.1296 12.2109 10.1296 12.2109C10.1296 12.2109 10.1296 12.2109 10.1296 12.2109C10.1295 12.2109 10.1295 12.2109 10.1295 12.2109C10.1295 12.2109 10.1295 12.2109 10.1295 12.2109C10.1295 12.2109 10.1295 12.2109 10.1294 12.2109C10.1294 12.2109 10.1294 12.2109 10.1294 12.2109C10.1294 12.2109 10.1294 12.2109 10.1294 12.2109C10.1293 12.2109 10.1293 12.2109 10.1293 12.2109C10.1293 12.2109 10.1293 12.2109 10.1293 12.2109C10.1293 12.2109 10.1293 12.2109 10.1292 12.2109C10.1292 12.2109 10.1292 12.2109 10.1292 12.2109C10.1292 12.2109 10.1292 12.2109 10.1292 12.2109C10.1292 12.2109 10.1291 12.2109 10.1291 12.2109C10.1291 12.2109 10.1291 12.2109 10.1291 12.2109C10.1291 12.2109 10.1291 12.2109 10.129 12.2109C10.129 12.2109 10.129 12.2109 10.129 12.2109C10.129 12.2109 10.129 12.2109 10.129 12.2109C10.129 12.2109 10.1289 12.2109 10.1289 12.2109C10.1289 12.2109 10.1289 12.2109 10.1289 12.2109C10.1289 12.2109 10.1289 12.2109 10.1288 12.2109C10.1288 12.2109 10.1288 12.2109 10.1288 12.2109C10.1288 12.2109 10.1288 12.2109 10.1288 12.2109C10.1288 12.2109 10.1287 12.2109 10.1287 12.2109C10.1287 12.2109 10.1287 12.2109 10.1287 12.2109C10.1287 12.2109 10.1287 12.2109 10.1286 12.2109C10.1286 12.2109 10.1286 12.2109 10.1286 12.2109C10.1286 12.2109 10.1286 12.2109 10.1286 12.2109C10.1286 12.2109 10.1285 12.2109 10.1285 12.2109C10.1285 12.2109 10.1285 12.2109 10.1285 12.2109C10.1285 12.2109 10.1285 12.2109 10.1284 12.2109C10.1284 12.2109 10.1284 12.2109 10.1284 12.2109C10.1284 12.2109 10.1284 12.2109 10.1284 12.2109C10.1284 12.2109 10.1283 12.2109 10.1283 12.2109C10.1283 12.2109 10.1283 12.2109 10.1283 12.2109C10.1283 12.2109 10.1283 12.2109 10.1282 12.2109C10.1282 12.2109 10.1282 12.2109 10.1282 12.2109C10.1282 12.2109 10.1282 12.2109 10.1282 12.2109C10.1282 12.2109 10.1281 12.2109 10.1281 12.2109C10.1281 12.2109 10.1281 12.2109 10.1281 12.2109C10.1281 12.2109 10.1281 12.2109 10.128 12.2109C10.128 12.2109 10.128 12.2109 10.128 12.2109C10.128 12.2109 10.128 12.2109 10.128 12.2109C10.128 12.2109 10.1279 12.2109 10.1279 12.2109C10.1279 12.2109 10.1279 12.2109 10.1279 12.2109C10.1279 12.2109 10.1279 12.2109 10.1278 12.2109C10.1278 12.2109 10.1278 12.2109 10.1278 12.2109C10.1278 12.2109 10.1278 12.2109 10.1278 12.2109C10.1277 12.2109 10.1277 12.2109 10.1277 12.2109C10.1277 12.2109 10.1277 12.2109 10.1277 12.2109C10.1277 12.2109 10.1277 12.2109 10.1276 12.2109C10.1276 12.2109 10.1276 12.2109 10.1276 12.2109C10.1276 12.2109 10.1276 12.2109 10.1276 12.2109C10.1275 12.2109 10.1275 12.2109 10.1275 12.2109C10.1275 12.2109 10.1275 12.2109 10.1275 12.2109C10.1275 12.2109 10.1275 12.2109 10.1274 12.2109C10.1274 12.2109 10.1274 12.2109 10.1274 12.2109C10.1274 12.2109 10.1274 12.2109 10.1274 12.2109C10.1273 12.2109 10.1273 12.2109 10.1273 12.2109C10.1273 12.2109 10.1273 12.2109 10.1273 12.2109C10.1273 12.2109 10.1272 12.2109 10.1272 12.2109C10.1272 12.2109 10.1272 12.2109 10.1272 12.2109C10.1272 12.2109 10.1272 12.2109 10.1272 12.2109C10.1271 12.2109 10.1271 12.2109 10.1271 12.2109C10.1271 12.2109 10.1271 12.2109 10.1271 12.2109C10.1271 12.2109 10.127 12.2109 10.127 12.2109C10.127 12.2109 10.127 12.2109 10.127 12.2109C10.127 12.2109 10.127 12.2109 10.1269 12.2109C10.1269 12.2109 10.1269 12.2109 10.1269 12.2109C10.1269 12.2109 10.1269 12.2109 10.1269 12.2109C10.1268 12.2109 10.1268 12.2109 10.1268 12.2109C10.1268 12.2109 10.1268 12.2109 10.1268 12.2109C10.1268 12.2109 10.1268 12.2109 10.1267 12.2109C10.1267 12.2109 10.1267 12.2109 10.1267 12.2109C10.1267 12.2109 10.1267 12.2109 10.1267 12.2109C10.1266 12.2109 10.1266 12.2109 10.1266 12.2109C10.1266 12.2109 10.1266 12.2109 10.1266 12.2109C10.1266 12.2109 10.1265 12.2109 10.1265 12.2109C10.1265 12.2109 10.1265 12.2109 10.1265 12.2109C10.1265 12.2109 10.1265 12.2109 10.1265 12.2109C10.1264 12.2109 10.1264 12.2109 10.1264 12.2109C10.1264 12.2109 10.1264 12.2109 10.1264 12.2109C10.1264 12.2109 10.1263 12.2109 10.1263 12.2109C10.1263 12.2109 10.1263 12.2109 10.1263 12.2109C10.1263 12.2109 10.1263 12.2109 10.1262 12.2109C10.1262 12.2109 10.1262 12.2109 10.1262 12.2109C10.1262 12.2109 10.1262 12.2109 10.1262 12.2109C10.1261 12.2109 10.1261 12.2109 10.1261 12.2109C10.1261 12.2109 10.1261 12.2109 10.1261 12.2109C10.1261 12.2109 10.126 12.2109 10.126 12.2109C10.126 12.2109 10.126 12.2109 10.126 12.2109C10.126 12.2109 10.126 12.2109 10.126 12.2109C10.1259 12.2109 10.1259 12.2109 10.1259 12.2109C10.1259 12.2109 10.1259 12.2109 10.1259 12.2109C10.1259 12.2109 10.1258 12.2109 10.1258 12.2109C10.1258 12.2109 10.1258 12.2109 10.1258 12.2109C10.1258 12.2109 10.1258 12.2109 10.1257 12.2109C10.1257 12.2109 10.1257 12.2109 10.1257 12.2109C10.1257 12.2109 10.1257 12.2109 10.1257 12.2109C10.1256 12.2109 10.1256 12.2109 10.1256 12.2109C10.1256 12.2109 10.1256 12.2109 10.1256 12.2109C10.1256 12.2109 10.1255 12.2109 10.1255 12.2109C10.1255 12.2109 10.1255 12.2109 10.1255 12.2109C10.1255 12.2109 10.1255 12.2109 10.1254 12.2109C10.1254 12.2109 10.1254 12.2109 10.1254 12.2109C10.1254 12.2109 10.1254 12.2109 10.1254 12.2109C10.1253 12.2109 10.1253 12.2109 10.1253 12.2109C10.1253 12.2109 10.1253 12.2109 10.1253 12.2109C10.1253 12.2109 10.1253 12.2109 10.1252 12.2109C10.1252 12.2109 10.1252 12.2109 10.1252 12.2109C10.1252 12.2109 10.1252 12.2109 10.1252 12.2109C10.1251 12.2109 10.1251 12.2109 10.1251 12.2109C10.1251 12.2109 10.1251 12.2109 10.1251 12.2109C10.1251 12.2109 10.125 12.2109 10.125 12.2109C10.125 12.2109 10.125 12.2109 10.125 12.2109C10.125 12.2109 10.125 12.2109 10.1249 12.2109C10.1249 12.2109 10.1249 12.2109 10.1249 12.2109C10.1249 12.2109 10.1249 12.2109 10.1249 12.2109C10.1248 12.2109 10.1248 12.2109 10.1248 12.2109C10.1248 12.2109 10.1248 12.2109 10.1248 12.2109C10.1248 12.2109 10.1247 12.2109 10.1247 12.2109C10.1247 12.2109 10.1247 12.2109 10.1247 12.2109C10.1247 12.2109 10.1247 12.2109 10.1246 12.2109C10.1246 12.2109 10.1246 12.2109 10.1246 12.2109C10.1246 12.2109 10.1246 12.2109 10.1246 12.2109C10.1245 12.2109 10.1245 12.2109 10.1245 12.2109C10.1245 12.2109 10.1245 12.2109 10.1245 12.2109C10.1245 12.2109 10.1244 12.2109 10.1244 12.2109C10.1244 12.2109 10.1244 12.2109 10.1244 12.2109C10.1244 12.2109 10.1244 12.2109 10.1243 12.2109C10.1243 12.2109 10.1243 12.2109 10.1243 12.2109C10.1243 12.2109 10.1243 12.2109 10.1243 12.2109C10.1242 12.2109 10.1242 12.2109 10.1242 12.2109C10.1242 12.2109 10.1242 12.2109 10.1242 12.2109C10.1242 12.2109 10.1241 12.2109 10.1241 12.2109C10.1241 12.2109 10.1241 12.2109 10.1241 12.2109C10.1241 12.2109 10.1241 12.2109 10.124 12.2109C10.124 12.2109 10.124 12.2109 10.124 12.2109C10.124 12.2109 10.124 12.2109 10.124 12.2109C10.1239 12.2109 10.1239 12.2109 10.1239 12.2109C10.1239 12.2109 10.1239 12.2109 10.1239 12.2109C10.1239 12.2109 10.1238 12.2109 10.1238 12.2109C10.1238 12.2109 10.1238 12.2109 10.1238 12.2109C10.1238 12.2109 10.1238 12.2109 10.1237 12.2109C10.1237 12.2109 10.1237 12.2109 10.1237 12.2109C10.1237 12.2109 10.1237 12.2109 10.1237 12.2109C10.1236 12.2109 10.1236 12.2109 10.1236 12.2109C10.1236 12.2109 10.1236 12.2109 10.1236 12.2109C10.1236 12.2109 10.1235 12.2109 10.1235 12.2109C10.1235 12.2109 10.1235 12.2109 10.1235 12.2109C10.1235 12.2109 10.1235 12.2109 10.1234 12.2109C10.1234 12.2109 10.1234 12.2109 10.1234 12.2109C10.1234 12.2109 10.1234 12.2109 10.1234 12.2109C10.1233 12.2109 10.1233 12.2109 10.1233 12.2109C10.1233 12.2109 10.1233 12.2109 10.1233 12.2109C10.1233 12.2109 10.1232 12.2109 10.1232 12.2109C10.1232 12.2109 10.1232 12.2109 10.1232 12.2109C10.1232 12.2109 10.1232 12.2109 10.1231 12.2109C10.1231 12.2109 10.1231 12.2109 10.1231 12.2109C10.1231 12.2109 10.1231 12.2109 10.1231 12.2109C10.123 12.2109 10.123 12.2109 10.123 12.2109C10.123 12.2109 10.123 12.2109 10.123 12.2109C10.123 12.2109 10.1229 12.2109 10.1229 12.2109C10.1229 12.2109 10.1229 12.2109 10.1229 12.2109C10.1229 12.2109 10.1229 12.2109 10.1228 12.2109C10.1228 12.2109 10.1228 12.2109 10.1228 12.2109C10.1228 12.2109 10.1228 12.2109 10.1228 12.2109C10.1227 12.2109 10.1227 12.2109 10.1227 12.2109C10.1227 12.2109 10.1227 12.2109 10.1227 12.2109C10.1227 12.2109 10.1226 12.2109 10.1226 12.2109C10.1226 12.2109 10.1226 12.2109 10.1226 12.2109C10.1226 12.2109 10.1226 12.2109 10.1225 12.2109C10.1225 12.2109 10.1225 12.2109 10.1225 12.2109C10.1225 12.2109 10.1225 12.2109 10.1224 12.2109C10.1224 12.2109 10.1224 12.2109 10.1224 12.2109C10.1224 12.2109 10.1224 12.2109 10.1224 12.2109C10.1223 12.2109 10.1223 12.2109 10.1223 12.2109C10.1223 12.2109 10.1223 12.2109 10.1223 12.2109C10.1223 12.2109 10.1222 12.2109 10.1222 12.2109C10.1222 12.2109 10.1222 12.2109 10.1222 12.2109C10.1222 12.2109 10.1222 12.2109 10.1221 12.2109C10.1221 12.2109 10.1221 12.2109 10.1221 12.2109C10.1221 12.2109 10.1221 12.2109 10.1221 12.2109C10.122 12.2109 10.122 12.2109 10.122 12.2109C10.122 12.2109 10.122 12.2109 10.122 12.2109C10.122 12.2109 10.1219 12.2109 10.1219 12.2109C10.1219 12.2109 10.1219 12.2109 10.1219 12.2109C10.1219 12.2109 10.1219 12.2109 10.1218 12.2109C10.1218 12.2109 10.1218 12.2109 10.1218 12.2109C10.1218 12.2109 10.1218 12.2109 10.1218 12.2109C10.1217 12.2109 10.1217 12.2109 10.1217 12.2109C10.1217 12.2109 10.1217 12.2109 10.1217 12.2109C10.1216 12.2109 10.1216 12.2109 10.1216 12.2109C10.1216 12.2109 10.1216 12.2109 10.1216 12.2109C10.1216 12.2109 10.1215 12.2109 10.1215 12.2109C10.1215 12.2109 10.1215 12.2109 10.1215 12.2109C10.1215 12.2109 10.1215 12.2109 10.1214 12.2109C10.1214 12.2109 10.1214 12.2109 10.1214 12.2109C10.1214 12.2109 10.1214 12.2109 10.1214 12.2109C10.1213 12.2109 10.1213 12.2109 10.1213 12.2109C10.1213 12.2109 10.1213 12.2109 10.1213 12.2109C10.1213 12.2109 10.1212 12.2109 10.1212 12.2109C10.1212 12.2109 10.1212 12.2109 10.1212 12.2109C10.1212 12.2109 10.1212 12.2109 10.1211 12.2109C10.1211 12.2109 10.1211 12.2109 10.1211 12.2109C10.1211 12.2109 10.1211 12.2109 10.121 12.2109C10.121 12.2109 10.121 12.2109 10.121 12.2109C10.121 12.2109 10.121 12.2109 10.121 12.2109C10.1209 12.2109 10.1209 12.2109 10.1209 12.2109C10.1209 12.2109 10.1209 12.2109 10.1209 12.2109C10.1209 12.2109 10.1208 12.2109 10.1208 12.2109C10.1208 12.2109 10.1208 12.2109 10.1208 12.2109C10.1208 12.2109 10.1208 12.2109 10.1207 12.2109C10.1207 12.2109 10.1207 12.2109 10.1207 12.2109C10.1207 12.2109 10.1207 12.2109 10.1207 12.2109C10.1206 12.2109 10.1206 12.2109 10.1206 12.2109C10.1206 12.2109 10.1206 12.2109 10.1206 12.2109C10.1206 12.2109 10.1205 12.2109 10.1205 12.2109C10.1205 12.2109 10.1205 12.2109 10.1205 12.2109C10.1205 12.2109 10.1204 12.2109 10.1204 12.2109C10.1204 12.2109 10.1204 12.2109 10.1204 12.2109C10.1204 12.2109 10.1204 12.2109 10.1203 12.2109C10.1203 12.2109 10.1203 12.2109 10.1203 12.2109C10.1203 12.2109 10.1203 12.2109 10.1203 12.2109C10.1202 12.2109 10.1202 12.2109 10.1202 12.2109C10.1202 12.2109 10.1202 12.2109 10.1202 12.2109C10.1202 12.2109 10.1201 12.2109 10.1201 12.2109C10.1201 12.2109 10.1201 12.2109 10.1201 12.2109C10.1201 12.2109 10.1201 12.2109 10.12 12.2109C10.12 12.2109 10.12 12.2109 10.12 12.2109C10.12 12.2109 10.12 12.2109 10.1199 12.2109C10.1199 12.2109 10.1199 12.2109 10.1199 12.2109C10.1199 12.2109 10.1199 12.2109 10.1199 12.2109C10.1198 12.2109 10.1198 12.2109 10.1198 12.2109C10.1198 12.2109 10.1198 12.2109 10.1198 12.2109C10.1198 12.2109 10.1197 12.2109 10.1197 12.2109C10.1197 12.2109 10.1197 12.2109 10.1197 12.2109C10.1197 12.2109 10.1197 12.2109 10.1196 12.2109C10.1196 12.2109 10.1196 12.2109 10.1196 12.2109C10.1196 12.2109 10.1196 12.2109 10.1195 12.2109C10.1195 12.2109 10.1195 12.2109 10.1195 12.2109C10.1195 12.2109 10.1195 12.2109 10.1195 12.2109C10.1194 12.2109 10.1194 12.2109 10.1194 12.2109C10.1194 12.2109 10.1194 12.2109 10.1194 12.2109C10.1194 12.2109 10.1193 12.2109 10.1193 12.2109C10.1193 12.2109 10.1193 12.2109 10.1193 12.2109C10.1193 12.2109 10.1193 12.2109 10.1192 12.2109C10.1192 12.2109 10.1192 12.2109 10.1192 12.2109C10.1192 12.2109 10.1192 12.2109 10.1192 12.2109C10.1191 12.2109 10.1191 12.2109 10.1191 12.2109C10.1191 12.2109 10.1191 12.2109 10.1191 12.2109C10.119 12.2109 10.119 12.2109 10.119 12.2109C10.119 12.2109 10.119 12.2109 10.119 12.2109C10.119 12.2109 10.1189 12.2109 10.1189 12.2109C10.1189 12.2109 10.1189 12.2109 10.1189 12.2109C10.1189 12.2109 10.1189 12.2109 10.1188 12.2109C10.1188 12.2109 10.1188 12.2109 10.1188 12.2109C10.1188 12.2109 10.1188 12.2109 10.1188 12.2109C10.1187 12.2109 10.1187 12.2109 10.1187 12.2109C10.1187 12.2109 10.1187 12.2109 10.1187 12.2109C10.1186 12.2109 10.1186 12.2109 10.1186 12.2109C10.1186 12.2109 10.1186 12.2109 10.1186 12.2109C10.1186 12.2109 10.1185 12.2109 10.1185 12.2109C10.1185 12.2109 10.1185 12.2109 10.1185 12.2109C10.1185 12.2109 10.1185 12.2109 10.1184 12.2109C10.1184 12.2109 10.1184 12.2109 10.1184 12.2109C10.1184 12.2109 10.1184 12.2109 10.1184 12.2109C10.1183 12.2109 10.1183 12.2109 10.1183 12.2109C10.1183 12.2109 10.1183 12.2109 10.1183 12.2109C10.1182 12.2109 10.1182 12.2109 10.1182 12.2109C10.1182 12.2109 10.1182 12.2109 10.1182 12.2109C10.1182 12.2109 10.1181 12.2109 10.1181 12.2109C10.1181 12.2109 10.1181 12.2109 10.1181 12.2109C10.1181 12.2109 10.1181 12.2109 10.118 12.2109C10.118 12.2109 10.118 12.2109 10.118 12.2109C10.118 12.2109 10.118 12.2109 10.1179 12.2109C10.1179 12.2109 10.1179 12.2109 10.1179 12.2109C10.1179 12.2109 10.1179 12.2109 10.1179 12.2109C10.1178 12.2109 10.1178 12.2109 10.1178 12.2109C10.1178 12.2109 10.1178 12.2109 10.1178 12.2109C10.1178 12.2109 10.1177 12.2109 10.1177 12.2109C10.1177 12.2109 10.1177 12.2109 10.1177 12.2109C10.1177 12.2109 10.1177 12.2109 10.1176 12.2109C10.1176 12.2109 10.1176 12.2109 10.1176 12.2109C10.1176 12.2109 10.1176 12.2109 10.1175 12.2109C10.1175 12.2109 10.1175 12.2109 10.1175 12.2109C10.1175 12.2109 10.1175 12.2109 10.1175 12.2109C10.1174 12.2109 10.1174 12.2109 10.1174 12.2109C10.1174 12.2109 10.1174 12.2109 10.1174 12.2109C10.1174 12.2109 10.1173 12.2109 10.1173 12.2109C10.1173 12.2109 10.1173 12.2109 10.1173 12.2109C10.1173 12.2109 10.1173 12.2109 10.1172 12.2109C10.1172 12.2109 10.1172 12.2109 10.1172 12.2109C10.1172 12.2109 10.1172 12.2109 10.1171 12.2109C10.1171 12.2109 10.1171 12.2109 10.1171 12.2109C10.1171 12.2109 10.1171 12.2109 10.1171 12.2109C10.117 12.2109 10.117 12.2109 10.117 12.2109C10.117 12.2109 10.117 12.2109 10.117 12.2109C10.117 12.2109 10.1169 12.2109 10.1169 12.2109C10.1169 12.2109 10.1169 12.2109 10.1169 12.2109C10.1169 12.2109 10.1169 12.2109 10.1168 12.2109C10.1168 12.2109 10.1168 12.2109 10.1168 12.2109C10.1168 12.2109 10.1168 12.2109 10.1167 12.2109C10.1167 12.2109 10.1167 12.2109 10.1167 12.2109C10.1167 12.2109 10.1167 12.2109 10.1167 12.2109C10.1166 12.2109 10.1166 12.2109 10.1166 12.2109C10.1166 12.2109 10.1166 12.2109 10.1166 12.2109C10.1166 12.2109 10.1165 12.2109 10.1165 12.2109C10.1165 12.2109 10.1165 12.2109 10.1165 12.2109C10.1165 12.2109 10.1164 12.2109 10.1164 12.2109C10.1164 12.2109 10.1164 12.2109 10.1164 12.2109C10.1164 12.2109 10.1164 12.2109 10.1163 12.2109C10.1163 12.2109 10.1163 12.2109 10.1163 12.2109C10.1163 12.2109 10.1163 12.2109 10.1163 12.2109C10.1162 12.2109 10.1162 12.2109 10.1162 12.2109V13.2109C10.1162 13.2109 10.1162 13.2109 10.1163 13.2109C10.1163 13.2109 10.1163 13.2109 10.1163 13.2109C10.1163 13.2109 10.1163 13.2109 10.1163 13.2109C10.1164 13.2109 10.1164 13.2109 10.1164 13.2109C10.1164 13.2109 10.1164 13.2109 10.1164 13.2109C10.1164 13.2109 10.1165 13.2109 10.1165 13.2109C10.1165 13.2109 10.1165 13.2109 10.1165 13.2109C10.1165 13.2109 10.1166 13.2109 10.1166 13.2109C10.1166 13.2109 10.1166 13.2109 10.1166 13.2109C10.1166 13.2109 10.1166 13.2109 10.1167 13.2109C10.1167 13.2109 10.1167 13.2109 10.1167 13.2109C10.1167 13.2109 10.1167 13.2109 10.1167 13.2109C10.1168 13.2109 10.1168 13.2109 10.1168 13.2109C10.1168 13.2109 10.1168 13.2109 10.1168 13.2109C10.1169 13.2109 10.1169 13.2109 10.1169 13.2109C10.1169 13.2109 10.1169 13.2109 10.1169 13.2109C10.1169 13.2109 10.117 13.2109 10.117 13.2109C10.117 13.2109 10.117 13.2109 10.117 13.2109C10.117 13.2109 10.117 13.2109 10.1171 13.2109C10.1171 13.2109 10.1171 13.2109 10.1171 13.2109C10.1171 13.2109 10.1171 13.2109 10.1171 13.2109C10.1172 13.2109 10.1172 13.2109 10.1172 13.2109C10.1172 13.2109 10.1172 13.2109 10.1172 13.2109C10.1173 13.2109 10.1173 13.2109 10.1173 13.2109C10.1173 13.2109 10.1173 13.2109 10.1173 13.2109C10.1173 13.2109 10.1174 13.2109 10.1174 13.2109C10.1174 13.2109 10.1174 13.2109 10.1174 13.2109C10.1174 13.2109 10.1174 13.2109 10.1175 13.2109C10.1175 13.2109 10.1175 13.2109 10.1175 13.2109C10.1175 13.2109 10.1175 13.2109 10.1175 13.2109C10.1176 13.2109 10.1176 13.2109 10.1176 13.2109C10.1176 13.2109 10.1176 13.2109 10.1176 13.2109C10.1177 13.2109 10.1177 13.2109 10.1177 13.2109C10.1177 13.2109 10.1177 13.2109 10.1177 13.2109C10.1177 13.2109 10.1178 13.2109 10.1178 13.2109C10.1178 13.2109 10.1178 13.2109 10.1178 13.2109C10.1178 13.2109 10.1178 13.2109 10.1179 13.2109C10.1179 13.2109 10.1179 13.2109 10.1179 13.2109C10.1179 13.2109 10.1179 13.2109 10.1179 13.2109C10.118 13.2109 10.118 13.2109 10.118 13.2109C10.118 13.2109 10.118 13.2109 10.118 13.2109C10.1181 13.2109 10.1181 13.2109 10.1181 13.2109C10.1181 13.2109 10.1181 13.2109 10.1181 13.2109C10.1181 13.2109 10.1182 13.2109 10.1182 13.2109C10.1182 13.2109 10.1182 13.2109 10.1182 13.2109C10.1182 13.2109 10.1182 13.2109 10.1183 13.2109C10.1183 13.2109 10.1183 13.2109 10.1183 13.2109C10.1183 13.2109 10.1183 13.2109 10.1184 13.2109C10.1184 13.2109 10.1184 13.2109 10.1184 13.2109C10.1184 13.2109 10.1184 13.2109 10.1184 13.2109C10.1185 13.2109 10.1185 13.2109 10.1185 13.2109C10.1185 13.2109 10.1185 13.2109 10.1185 13.2109C10.1185 13.2109 10.1186 13.2109 10.1186 13.2109C10.1186 13.2109 10.1186 13.2109 10.1186 13.2109C10.1186 13.2109 10.1186 13.2109 10.1187 13.2109C10.1187 13.2109 10.1187 13.2109 10.1187 13.2109C10.1187 13.2109 10.1187 13.2109 10.1188 13.2109C10.1188 13.2109 10.1188 13.2109 10.1188 13.2109C10.1188 13.2109 10.1188 13.2109 10.1188 13.2109C10.1189 13.2109 10.1189 13.2109 10.1189 13.2109C10.1189 13.2109 10.1189 13.2109 10.1189 13.2109C10.1189 13.2109 10.119 13.2109 10.119 13.2109C10.119 13.2109 10.119 13.2109 10.119 13.2109C10.119 13.2109 10.119 13.2109 10.1191 13.2109C10.1191 13.2109 10.1191 13.2109 10.1191 13.2109C10.1191 13.2109 10.1191 13.2109 10.1192 13.2109C10.1192 13.2109 10.1192 13.2109 10.1192 13.2109C10.1192 13.2109 10.1192 13.2109 10.1192 13.2109C10.1193 13.2109 10.1193 13.2109 10.1193 13.2109C10.1193 13.2109 10.1193 13.2109 10.1193 13.2109C10.1193 13.2109 10.1194 13.2109 10.1194 13.2109C10.1194 13.2109 10.1194 13.2109 10.1194 13.2109C10.1194 13.2109 10.1194 13.2109 10.1195 13.2109C10.1195 13.2109 10.1195 13.2109 10.1195 13.2109C10.1195 13.2109 10.1195 13.2109 10.1195 13.2109C10.1196 13.2109 10.1196 13.2109 10.1196 13.2109C10.1196 13.2109 10.1196 13.2109 10.1196 13.2109C10.1197 13.2109 10.1197 13.2109 10.1197 13.2109C10.1197 13.2109 10.1197 13.2109 10.1197 13.2109C10.1197 13.2109 10.1198 13.2109 10.1198 13.2109C10.1198 13.2109 10.1198 13.2109 10.1198 13.2109C10.1198 13.2109 10.1198 13.2109 10.1199 13.2109C10.1199 13.2109 10.1199 13.2109 10.1199 13.2109C10.1199 13.2109 10.1199 13.2109 10.1199 13.2109C10.12 13.2109 10.12 13.2109 10.12 13.2109C10.12 13.2109 10.12 13.2109 10.12 13.2109C10.1201 13.2109 10.1201 13.2109 10.1201 13.2109C10.1201 13.2109 10.1201 13.2109 10.1201 13.2109C10.1201 13.2109 10.1202 13.2109 10.1202 13.2109C10.1202 13.2109 10.1202 13.2109 10.1202 13.2109C10.1202 13.2109 10.1202 13.2109 10.1203 13.2109C10.1203 13.2109 10.1203 13.2109 10.1203 13.2109C10.1203 13.2109 10.1203 13.2109 10.1203 13.2109C10.1204 13.2109 10.1204 13.2109 10.1204 13.2109C10.1204 13.2109 10.1204 13.2109 10.1204 13.2109C10.1204 13.2109 10.1205 13.2109 10.1205 13.2109C10.1205 13.2109 10.1205 13.2109 10.1205 13.2109C10.1205 13.2109 10.1206 13.2109 10.1206 13.2109C10.1206 13.2109 10.1206 13.2109 10.1206 13.2109C10.1206 13.2109 10.1206 13.2109 10.1207 13.2109C10.1207 13.2109 10.1207 13.2109 10.1207 13.2109C10.1207 13.2109 10.1207 13.2109 10.1207 13.2109C10.1208 13.2109 10.1208 13.2109 10.1208 13.2109C10.1208 13.2109 10.1208 13.2109 10.1208 13.2109C10.1208 13.2109 10.1209 13.2109 10.1209 13.2109C10.1209 13.2109 10.1209 13.2109 10.1209 13.2109C10.1209 13.2109 10.1209 13.2109 10.121 13.2109C10.121 13.2109 10.121 13.2109 10.121 13.2109C10.121 13.2109 10.121 13.2109 10.121 13.2109C10.1211 13.2109 10.1211 13.2109 10.1211 13.2109C10.1211 13.2109 10.1211 13.2109 10.1211 13.2109C10.1212 13.2109 10.1212 13.2109 10.1212 13.2109C10.1212 13.2109 10.1212 13.2109 10.1212 13.2109C10.1212 13.2109 10.1213 13.2109 10.1213 13.2109C10.1213 13.2109 10.1213 13.2109 10.1213 13.2109C10.1213 13.2109 10.1213 13.2109 10.1214 13.2109C10.1214 13.2109 10.1214 13.2109 10.1214 13.2109C10.1214 13.2109 10.1214 13.2109 10.1214 13.2109C10.1215 13.2109 10.1215 13.2109 10.1215 13.2109C10.1215 13.2109 10.1215 13.2109 10.1215 13.2109C10.1215 13.2109 10.1216 13.2109 10.1216 13.2109C10.1216 13.2109 10.1216 13.2109 10.1216 13.2109C10.1216 13.2109 10.1216 13.2109 10.1217 13.2109C10.1217 13.2109 10.1217 13.2109 10.1217 13.2109C10.1217 13.2109 10.1217 13.2109 10.1218 13.2109C10.1218 13.2109 10.1218 13.2109 10.1218 13.2109C10.1218 13.2109 10.1218 13.2109 10.1218 13.2109C10.1219 13.2109 10.1219 13.2109 10.1219 13.2109C10.1219 13.2109 10.1219 13.2109 10.1219 13.2109C10.1219 13.2109 10.122 13.2109 10.122 13.2109C10.122 13.2109 10.122 13.2109 10.122 13.2109C10.122 13.2109 10.122 13.2109 10.1221 13.2109C10.1221 13.2109 10.1221 13.2109 10.1221 13.2109C10.1221 13.2109 10.1221 13.2109 10.1221 13.2109C10.1222 13.2109 10.1222 13.2109 10.1222 13.2109C10.1222 13.2109 10.1222 13.2109 10.1222 13.2109C10.1222 13.2109 10.1223 13.2109 10.1223 13.2109C10.1223 13.2109 10.1223 13.2109 10.1223 13.2109C10.1223 13.2109 10.1223 13.2109 10.1224 13.2109C10.1224 13.2109 10.1224 13.2109 10.1224 13.2109C10.1224 13.2109 10.1224 13.2109 10.1224 13.2109C10.1225 13.2109 10.1225 13.2109 10.1225 13.2109C10.1225 13.2109 10.1225 13.2109 10.1225 13.2109C10.1226 13.2109 10.1226 13.2109 10.1226 13.2109C10.1226 13.2109 10.1226 13.2109 10.1226 13.2109C10.1226 13.2109 10.1227 13.2109 10.1227 13.2109C10.1227 13.2109 10.1227 13.2109 10.1227 13.2109C10.1227 13.2109 10.1227 13.2109 10.1228 13.2109C10.1228 13.2109 10.1228 13.2109 10.1228 13.2109C10.1228 13.2109 10.1228 13.2109 10.1228 13.2109C10.1229 13.2109 10.1229 13.2109 10.1229 13.2109C10.1229 13.2109 10.1229 13.2109 10.1229 13.2109C10.1229 13.2109 10.123 13.2109 10.123 13.2109C10.123 13.2109 10.123 13.2109 10.123 13.2109C10.123 13.2109 10.123 13.2109 10.1231 13.2109C10.1231 13.2109 10.1231 13.2109 10.1231 13.2109C10.1231 13.2109 10.1231 13.2109 10.1231 13.2109C10.1232 13.2109 10.1232 13.2109 10.1232 13.2109C10.1232 13.2109 10.1232 13.2109 10.1232 13.2109C10.1232 13.2109 10.1233 13.2109 10.1233 13.2109C10.1233 13.2109 10.1233 13.2109 10.1233 13.2109C10.1233 13.2109 10.1233 13.2109 10.1234 13.2109C10.1234 13.2109 10.1234 13.2109 10.1234 13.2109C10.1234 13.2109 10.1234 13.2109 10.1234 13.2109C10.1235 13.2109 10.1235 13.2109 10.1235 13.2109C10.1235 13.2109 10.1235 13.2109 10.1235 13.2109C10.1235 13.2109 10.1236 13.2109 10.1236 13.2109C10.1236 13.2109 10.1236 13.2109 10.1236 13.2109C10.1236 13.2109 10.1236 13.2109 10.1237 13.2109C10.1237 13.2109 10.1237 13.2109 10.1237 13.2109C10.1237 13.2109 10.1237 13.2109 10.1237 13.2109C10.1238 13.2109 10.1238 13.2109 10.1238 13.2109C10.1238 13.2109 10.1238 13.2109 10.1238 13.2109C10.1238 13.2109 10.1239 13.2109 10.1239 13.2109C10.1239 13.2109 10.1239 13.2109 10.1239 13.2109C10.1239 13.2109 10.1239 13.2109 10.124 13.2109C10.124 13.2109 10.124 13.2109 10.124 13.2109C10.124 13.2109 10.124 13.2109 10.124 13.2109C10.1241 13.2109 10.1241 13.2109 10.1241 13.2109C10.1241 13.2109 10.1241 13.2109 10.1241 13.2109C10.1241 13.2109 10.1242 13.2109 10.1242 13.2109C10.1242 13.2109 10.1242 13.2109 10.1242 13.2109C10.1242 13.2109 10.1242 13.2109 10.1243 13.2109C10.1243 13.2109 10.1243 13.2109 10.1243 13.2109C10.1243 13.2109 10.1243 13.2109 10.1243 13.2109C10.1244 13.2109 10.1244 13.2109 10.1244 13.2109C10.1244 13.2109 10.1244 13.2109 10.1244 13.2109C10.1244 13.2109 10.1245 13.2109 10.1245 13.2109C10.1245 13.2109 10.1245 13.2109 10.1245 13.2109C10.1245 13.2109 10.1245 13.2109 10.1246 13.2109C10.1246 13.2109 10.1246 13.2109 10.1246 13.2109C10.1246 13.2109 10.1246 13.2109 10.1246 13.2109C10.1247 13.2109 10.1247 13.2109 10.1247 13.2109C10.1247 13.2109 10.1247 13.2109 10.1247 13.2109C10.1247 13.2109 10.1248 13.2109 10.1248 13.2109C10.1248 13.2109 10.1248 13.2109 10.1248 13.2109C10.1248 13.2109 10.1248 13.2109 10.1249 13.2109C10.1249 13.2109 10.1249 13.2109 10.1249 13.2109C10.1249 13.2109 10.1249 13.2109 10.1249 13.2109C10.125 13.2109 10.125 13.2109 10.125 13.2109C10.125 13.2109 10.125 13.2109 10.125 13.2109C10.125 13.2109 10.1251 13.2109 10.1251 13.2109C10.1251 13.2109 10.1251 13.2109 10.1251 13.2109C10.1251 13.2109 10.1251 13.2109 10.1252 13.2109C10.1252 13.2109 10.1252 13.2109 10.1252 13.2109C10.1252 13.2109 10.1252 13.2109 10.1252 13.2109C10.1253 13.2109 10.1253 13.2109 10.1253 13.2109C10.1253 13.2109 10.1253 13.2109 10.1253 13.2109C10.1253 13.2109 10.1253 13.2109 10.1254 13.2109C10.1254 13.2109 10.1254 13.2109 10.1254 13.2109C10.1254 13.2109 10.1254 13.2109 10.1254 13.2109C10.1255 13.2109 10.1255 13.2109 10.1255 13.2109C10.1255 13.2109 10.1255 13.2109 10.1255 13.2109C10.1255 13.2109 10.1256 13.2109 10.1256 13.2109C10.1256 13.2109 10.1256 13.2109 10.1256 13.2109C10.1256 13.2109 10.1256 13.2109 10.1257 13.2109C10.1257 13.2109 10.1257 13.2109 10.1257 13.2109C10.1257 13.2109 10.1257 13.2109 10.1257 13.2109C10.1258 13.2109 10.1258 13.2109 10.1258 13.2109C10.1258 13.2109 10.1258 13.2109 10.1258 13.2109C10.1258 13.2109 10.1259 13.2109 10.1259 13.2109C10.1259 13.2109 10.1259 13.2109 10.1259 13.2109C10.1259 13.2109 10.1259 13.2109 10.126 13.2109C10.126 13.2109 10.126 13.2109 10.126 13.2109C10.126 13.2109 10.126 13.2109 10.126 13.2109C10.126 13.2109 10.1261 13.2109 10.1261 13.2109C10.1261 13.2109 10.1261 13.2109 10.1261 13.2109C10.1261 13.2109 10.1261 13.2109 10.1262 13.2109C10.1262 13.2109 10.1262 13.2109 10.1262 13.2109C10.1262 13.2109 10.1262 13.2109 10.1262 13.2109C10.1263 13.2109 10.1263 13.2109 10.1263 13.2109C10.1263 13.2109 10.1263 13.2109 10.1263 13.2109C10.1263 13.2109 10.1264 13.2109 10.1264 13.2109C10.1264 13.2109 10.1264 13.2109 10.1264 13.2109C10.1264 13.2109 10.1264 13.2109 10.1265 13.2109C10.1265 13.2109 10.1265 13.2109 10.1265 13.2109C10.1265 13.2109 10.1265 13.2109 10.1265 13.2109C10.1265 13.2109 10.1266 13.2109 10.1266 13.2109C10.1266 13.2109 10.1266 13.2109 10.1266 13.2109C10.1266 13.2109 10.1266 13.2109 10.1267 13.2109C10.1267 13.2109 10.1267 13.2109 10.1267 13.2109C10.1267 13.2109 10.1267 13.2109 10.1267 13.2109C10.1268 13.2109 10.1268 13.2109 10.1268 13.2109C10.1268 13.2109 10.1268 13.2109 10.1268 13.2109C10.1268 13.2109 10.1268 13.2109 10.1269 13.2109C10.1269 13.2109 10.1269 13.2109 10.1269 13.2109C10.1269 13.2109 10.1269 13.2109 10.1269 13.2109C10.127 13.2109 10.127 13.2109 10.127 13.2109C10.127 13.2109 10.127 13.2109 10.127 13.2109C10.127 13.2109 10.1271 13.2109 10.1271 13.2109C10.1271 13.2109 10.1271 13.2109 10.1271 13.2109C10.1271 13.2109 10.1271 13.2109 10.1272 13.2109C10.1272 13.2109 10.1272 13.2109 10.1272 13.2109C10.1272 13.2109 10.1272 13.2109 10.1272 13.2109C10.1272 13.2109 10.1273 13.2109 10.1273 13.2109C10.1273 13.2109 10.1273 13.2109 10.1273 13.2109C10.1273 13.2109 10.1273 13.2109 10.1274 13.2109C10.1274 13.2109 10.1274 13.2109 10.1274 13.2109C10.1274 13.2109 10.1274 13.2109 10.1274 13.2109C10.1275 13.2109 10.1275 13.2109 10.1275 13.2109C10.1275 13.2109 10.1275 13.2109 10.1275 13.2109C10.1275 13.2109 10.1275 13.2109 10.1276 13.2109C10.1276 13.2109 10.1276 13.2109 10.1276 13.2109C10.1276 13.2109 10.1276 13.2109 10.1276 13.2109C10.1277 13.2109 10.1277 13.2109 10.1277 13.2109C10.1277 13.2109 10.1277 13.2109 10.1277 13.2109C10.1277 13.2109 10.1277 13.2109 10.1278 13.2109C10.1278 13.2109 10.1278 13.2109 10.1278 13.2109C10.1278 13.2109 10.1278 13.2109 10.1278 13.2109C10.1279 13.2109 10.1279 13.2109 10.1279 13.2109C10.1279 13.2109 10.1279 13.2109 10.1279 13.2109C10.1279 13.2109 10.128 13.2109 10.128 13.2109C10.128 13.2109 10.128 13.2109 10.128 13.2109C10.128 13.2109 10.128 13.2109 10.128 13.2109C10.1281 13.2109 10.1281 13.2109 10.1281 13.2109C10.1281 13.2109 10.1281 13.2109 10.1281 13.2109C10.1281 13.2109 10.1282 13.2109 10.1282 13.2109C10.1282 13.2109 10.1282 13.2109 10.1282 13.2109C10.1282 13.2109 10.1282 13.2109 10.1282 13.2109C10.1283 13.2109 10.1283 13.2109 10.1283 13.2109C10.1283 13.2109 10.1283 13.2109 10.1283 13.2109C10.1283 13.2109 10.1284 13.2109 10.1284 13.2109C10.1284 13.2109 10.1284 13.2109 10.1284 13.2109C10.1284 13.2109 10.1284 13.2109 10.1284 13.2109C10.1285 13.2109 10.1285 13.2109 10.1285 13.2109C10.1285 13.2109 10.1285 13.2109 10.1285 13.2109C10.1285 13.2109 10.1286 13.2109 10.1286 13.2109C10.1286 13.2109 10.1286 13.2109 10.1286 13.2109C10.1286 13.2109 10.1286 13.2109 10.1286 13.2109C10.1287 13.2109 10.1287 13.2109 10.1287 13.2109C10.1287 13.2109 10.1287 13.2109 10.1287 13.2109C10.1287 13.2109 10.1288 13.2109 10.1288 13.2109C10.1288 13.2109 10.1288 13.2109 10.1288 13.2109C10.1288 13.2109 10.1288 13.2109 10.1288 13.2109C10.1289 13.2109 10.1289 13.2109 10.1289 13.2109C10.1289 13.2109 10.1289 13.2109 10.1289 13.2109C10.1289 13.2109 10.129 13.2109 10.129 13.2109C10.129 13.2109 10.129 13.2109 10.129 13.2109C10.129 13.2109 10.129 13.2109 10.129 13.2109C10.1291 13.2109 10.1291 13.2109 10.1291 13.2109C10.1291 13.2109 10.1291 13.2109 10.1291 13.2109C10.1291 13.2109 10.1292 13.2109 10.1292 13.2109C10.1292 13.2109 10.1292 13.2109 10.1292 13.2109C10.1292 13.2109 10.1292 13.2109 10.1292 13.2109C10.1293 13.2109 10.1293 13.2109 10.1293 13.2109C10.1293 13.2109 10.1293 13.2109 10.1293 13.2109C10.1293 13.2109 10.1293 13.2109 10.1294 13.2109C10.1294 13.2109 10.1294 13.2109 10.1294 13.2109C10.1294 13.2109 10.1294 13.2109 10.1294 13.2109C10.1295 13.2109 10.1295 13.2109 10.1295 13.2109C10.1295 13.2109 10.1295 13.2109 10.1295 13.2109C10.1295 13.2109 10.1295 13.2109 10.1296 13.2109C10.1296 13.2109 10.1296 13.2109 10.1296 13.2109C10.1296 13.2109 10.1296 13.2109 10.1296 13.2109C10.1296 13.2109 10.1297 13.2109 10.1297 13.2109C10.1297 13.2109 10.1297 13.2109 10.1297 13.2109C10.1297 13.2109 10.1297 13.2109 10.1298 13.2109C10.1298 13.2109 10.1298 13.2109 10.1298 13.2109C10.1298 13.2109 10.1298 13.2109 10.1298 13.2109C10.1298 13.2109 10.1299 13.2109 10.1299 13.2109C10.1299 13.2109 10.1299 13.2109 10.1299 13.2109C10.1299 13.2109 10.1299 13.2109 10.1299 13.2109C10.13 13.2109 10.13 13.2109 10.13 13.2109C10.13 13.2109 10.13 13.2109 10.13 13.2109C10.13 13.2109 10.13 13.2109 10.1301 13.2109C10.1301 13.2109 10.1301 13.2109 10.1301 13.2109C10.1301 13.2109 10.1301 13.2109 10.1301 13.2109C10.1302 13.2109 10.1302 13.2109 10.1302 13.2109C10.1302 13.2109 10.1302 13.2109 10.1302 13.2109C10.1302 13.2109 10.1302 13.2109 10.1303 13.2109C10.1303 13.2109 10.1303 13.2109 10.1303 13.2109C10.1303 13.2109 10.1303 13.2109 10.1303 13.2109C10.1303 13.2109 10.1304 13.2109 10.1304 13.2109C10.1304 13.2109 10.1304 13.2109 10.1304 13.2109C10.1304 13.2109 10.1304 13.2109 10.1304 13.2109C10.1305 13.2109 10.1305 13.2109 10.1305 13.2109C10.1305 13.2109 10.1305 13.2109 10.1305 13.2109C10.1305 13.2109 10.1305 13.2109 10.1306 13.2109C10.1306 13.2109 10.1306 13.2109 10.1306 13.2109C10.1306 13.2109 10.1306 13.2109 10.1306 13.2109C10.1306 13.2109 10.1307 13.2109 10.1307 13.2109C10.1307 13.2109 10.1307 13.2109 10.1307 13.2109C10.1307 13.2109 10.1307 13.2109 10.1308 13.2109C10.1308 13.2109 10.1308 13.2109 10.1308 13.2109C10.1308 13.2109 10.1308 13.2109 10.1308 13.2109C10.1308 13.2109 10.1309 13.2109 10.1309 13.2109C10.1309 13.2109 10.1309 13.2109 10.1309 13.2109C10.1309 13.2109 10.1309 13.2109 10.1309 13.2109C10.131 13.2109 10.131 13.2109 10.131 13.2109C10.131 13.2109 10.131 13.2109 10.131 13.2109C10.131 13.2109 10.131 13.2109 10.1311 13.2109C10.1311 13.2109 10.1311 13.2109 10.1311 13.2109C10.1311 13.2109 10.1311 13.2109 10.1311 13.2109C10.1311 13.2109 10.1312 13.2109 10.1312 13.2109C10.1312 13.2109 10.1312 13.2109 10.1312 13.2109C10.1312 13.2109 10.1312 13.2109 10.1312 13.2109C10.1313 13.2109 10.1313 13.2109 10.1313 13.2109C10.1313 13.2109 10.1313 13.2109 10.1313 13.2109C10.1313 13.2109 10.1313 13.2109 10.1314 13.2109C10.1314 13.2109 10.1314 13.2109 10.1314 13.2109C10.1314 13.2109 10.1314 13.2109 10.1314 13.2109C10.1314 13.2109 10.1315 13.2109 10.1315 13.2109C10.1315 13.2109 10.1315 13.2109 10.1315 13.2109C10.1315 13.2109 10.1315 13.2109 10.1315 13.2109C10.1316 13.2109 10.1316 13.2109 10.1316 13.2109C10.1316 13.2109 10.1316 13.2109 10.1316 13.2109C10.1316 13.2109 10.1316 13.2109 10.1316 13.2109C10.1317 13.2109 10.1317 13.2109 10.1317 13.2109C10.1317 13.2109 10.1317 13.2109 10.1317 13.2109C10.1317 13.2109 10.1317 13.2109 10.1318 13.2109C10.1318 13.2109 10.1318 13.2109 10.1318 13.2109C10.1318 13.2109 10.1318 13.2109 10.1318 13.2109C10.1318 13.2109 10.1319 13.2109 10.1319 13.2109C10.1319 13.2109 10.1319 13.2109 10.1319 13.2109C10.1319 13.2109 10.1319 13.2109 10.1319 13.2109C10.132 13.2109 10.132 13.2109 10.132 13.2109C10.132 13.2109 10.132 13.2109 10.132 13.2109C10.132 13.2109 10.132 13.2109 10.1321 13.2109C10.1321 13.2109 10.1321 13.2109 10.1321 13.2109C10.1321 13.2109 10.1321 13.2109 10.1321 13.2109C10.1321 13.2109 10.1322 13.2109 10.1322 13.2109C10.1322 13.2109 10.1322 13.2109 10.1322 13.2109C10.1322 13.2109 10.1322 13.2109 10.1322 13.2109C10.1322 13.2109 10.1323 13.2109 10.1323 13.2109C10.1323 13.2109 10.1323 13.2109 10.1323 13.2109C10.1323 13.2109 10.1323 13.2109 10.1323 13.2109C10.1324 13.2109 10.1324 13.2109 10.1324 13.2109C10.1324 13.2109 10.1324 13.2109 10.1324 13.2109C10.1324 13.2109 10.1324 13.2109 10.1325 13.2109C10.1325 13.2109 10.1325 13.2109 10.1325 13.2109C10.1325 13.2109 10.1325 13.2109 10.1325 13.2109C10.1325 13.2109 10.1325 13.2109 10.1326 13.2109C10.1326 13.2109 10.1326 13.2109 10.1326 13.2109C10.1326 13.2109 10.1326 13.2109 10.1326 13.2109C10.1326 13.2109 10.1327 13.2109 10.1327 13.2109C10.1327 13.2109 10.1327 13.2109 10.1327 13.2109C10.1327 13.2109 10.1327 13.2109 10.1327 13.2109C10.1328 13.2109 10.1328 13.2109 10.1328 13.2109C10.1328 13.2109 10.1328 13.2109 10.1328 13.2109C10.1328 13.2109 10.1328 13.2109 10.1328 13.2109C10.1329 13.2109 10.1329 13.2109 10.1329 13.2109C10.1329 13.2109 10.1329 13.2109 10.1329 13.2109C10.1329 13.2109 10.1329 13.2109 10.133 13.2109C10.133 13.2109 10.133 13.2109 10.133 13.2109C10.133 13.2109 10.133 13.2109 10.133 13.2109C10.133 13.2109 10.133 13.2109 10.1331 13.2109C10.1331 13.2109 10.1331 13.2109 10.1331 13.2109C10.1331 13.2109 10.1331 13.2109 10.1331 13.2109C10.1331 13.2109 10.1332 13.2109 10.1332 13.2109C10.1332 13.2109 10.1332 13.2109 10.1332 13.2109C10.1332 13.2109 10.1332 13.2109 10.1332 13.2109C10.1332 13.2109 10.1333 13.2109 10.1333 13.2109C10.1333 13.2109 10.1333 13.2109 10.1333 13.2109C10.1333 13.2109 10.1333 13.2109 10.1333 13.2109C10.1334 13.2109 10.1334 13.2109 10.1334 13.2109C10.1334 13.2109 10.1334 13.2109 10.1334 13.2109C10.1334 13.2109 10.1334 13.2109 10.1334 13.2109C10.1335 13.2109 10.1335 13.2109 10.1335 13.2109C10.1335 13.2109 10.1335 13.2109 10.1335 13.2109C10.1335 13.2109 10.1335 13.2109 10.1335 13.2109C10.1336 13.2109 10.1336 13.2109 10.1336 13.2109C10.1336 13.2109 10.1336 13.2109 10.1336 13.2109C10.1336 13.2109 10.1336 13.2109 10.1337 13.2109C10.1337 13.2109 10.1337 13.2109 10.1337 13.2109C10.1337 13.2109 10.1337 13.2109 10.1337 13.2109C10.1337 13.2109 10.1337 13.2109 10.1338 13.2109C10.1338 13.2109 10.1338 13.2109 10.1338 13.2109C10.1338 13.2109 10.1338 13.2109 10.1338 13.2109C10.1338 13.2109 10.1338 13.2109 10.1339 13.2109C10.1339 13.2109 10.1339 13.2109 10.1339 13.2109C10.1339 13.2109 10.1339 13.2109 10.1339 13.2109C10.1339 13.2109 10.1339 13.2109 10.134 13.2109C10.134 13.2109 10.134 13.2109 10.134 13.2109C10.134 13.2109 10.134 13.2109 10.134 13.2109C10.134 13.2109 10.1341 13.2109 10.1341 13.2109C10.1341 13.2109 10.1341 13.2109 10.1341 13.2109C10.1341 13.2109 10.1341 13.2109 10.1341 13.2109C10.1341 13.2109 10.1342 13.2109 10.1342 13.2109C10.1342 13.2109 10.1342 13.2109 10.1342 13.2109C10.1342 13.2109 10.1342 13.2109 10.1342 13.2109C10.1342 13.2109 10.1343 13.2109 10.1343 13.2109C10.1343 13.2109 10.1343 13.2109 10.1343 13.2109C10.1343 13.2109 10.1343 13.2109 10.1343 13.2109C10.1343 13.2109 10.1344 13.2109 10.1344 13.2109C10.1344 13.2109 10.1344 13.2109 10.1344 13.2109C10.1344 13.2109 10.1344 13.2109 10.1344 13.2109C10.1344 13.2109 10.1345 13.2109 10.1345 13.2109C10.1345 13.2109 10.1345 13.2109 10.1345 13.2109C10.1345 13.2109 10.1345 13.2109 10.1345 13.2109C10.1345 13.2109 10.1346 13.2109 10.1346 13.2109C10.1346 13.2109 10.1346 13.2109 10.1346 13.2109C10.1346 13.2109 10.1346 13.2109 10.1346 13.2109C10.1346 13.2109 10.1347 13.2109 10.1347 13.2109C10.1347 13.2109 10.1347 13.2109 10.1347 13.2109C10.1347 13.2109 10.1347 13.2109 10.1347 13.2109C10.1347 13.2109 10.1348 13.2109 10.1348 13.2109C10.1348 13.2109 10.1348 13.2109 10.1348 13.2109C10.1348 13.2109 10.1348 13.2109 10.1348 13.2109C10.1348 13.2109 10.1348 13.2109 10.1349 13.2109C10.1349 13.2109 10.1349 13.2109 10.1349 13.2109C10.1349 13.2109 10.1349 13.2109 10.1349 13.2109C10.1349 13.2109 10.1349 13.2109 10.135 13.2109C10.135 13.2109 10.135 13.2109 10.135 13.2109C10.135 13.2109 10.135 13.2109 10.135 13.2109C10.135 13.2109 10.135 13.2109 10.1351 13.2109C10.1351 13.2109 10.1351 13.2109 10.1351 13.2109C10.1351 13.2109 10.1351 13.2109 10.1351 13.2109C10.1351 13.2109 10.1351 13.2109 10.1352 13.2109C10.1352 13.2109 10.1352 13.2109 10.1352 13.2109C10.1352 13.2109 10.1352 13.2109 10.1352 13.2109C10.1352 13.2109 10.1352 13.2109 10.1352 13.2109C10.1353 13.2109 10.1353 13.2109 10.1353 13.2109C10.1353 13.2109 10.1353 13.2109 10.1353 13.2109C10.1353 13.2109 10.1353 13.2109 10.1353 13.2109C10.1354 13.2109 10.1354 13.2109 10.1354 13.2109C10.1354 13.2109 10.1354 13.2109 10.1354 13.2109C10.1354 13.2109 10.1354 13.2109 10.1354 13.2109C10.1355 13.2109 10.1355 13.2109 10.1355 13.2109C10.1355 13.2109 10.1355 13.2109 10.1355 13.2109C10.1355 13.2109 10.1355 13.2109 10.1355 13.2109C10.1355 13.2109 10.1356 13.2109 10.1356 13.2109C10.1356 13.2109 10.1356 13.2109 10.1356 13.2109C10.1356 13.2109 10.1356 13.2109 10.1356 13.2109C10.1356 13.2109 10.1357 13.2109 10.1357 13.2109C10.1357 13.2109 10.1357 13.2109 10.1357 13.2109C10.1357 13.2109 10.1357 13.2109 10.1357 13.2109C10.1357 13.2109 10.1357 13.2109 10.1358 13.2109C10.1358 13.2109 10.1358 13.2109 10.1358 13.2109C10.1358 13.2109 10.1358 13.2109 10.1358 13.2109C10.1358 13.2109 10.1358 13.2109 10.1358 13.2109C10.1359 13.2109 10.1359 13.2109 10.1359 13.2109C10.1359 13.2109 10.1359 13.2109 10.1359 13.2109C10.1359 13.2109 10.1359 13.2109 10.1359 13.2109C10.136 13.2109 10.136 13.2109 10.136 13.2109C10.136 13.2109 10.136 13.2109 10.136 13.2109C10.136 13.2109 10.136 13.2109 10.136 13.2109C10.136 13.2109 10.1361 13.2109 10.1361 13.2109C10.1361 13.2109 10.1361 13.2109 10.1361 13.2109C10.1361 13.2109 10.1361 13.2109 10.1361 13.2109C10.1361 13.2109 10.1361 13.2109 10.1362 13.2109C10.1362 13.2109 10.1362 13.2109 10.1362 13.2109C10.1362 13.2109 10.1362 13.2109 10.1362 13.2109C10.1362 13.2109 10.1362 13.2109 10.1362 13.2109C10.1363 13.2109 10.1363 13.2109 10.1363 13.2109C10.1363 13.2109 10.1363 13.2109 10.1363 13.2109C10.1363 13.2109 10.1363 13.2109 10.1363 13.2109C10.1363 13.2109 10.1364 13.2109 10.1364 13.2109C10.1364 13.2109 10.1364 13.2109 10.1364 13.2109C10.1364 13.2109 10.1364 13.2109 10.1364 13.2109C10.1364 13.2109 10.1364 13.2109 10.1365 13.2109C10.1365 13.2109 10.1365 13.2109 10.1365 13.2109C10.1365 13.2109 10.1365 13.2109 10.1365 13.2109V12.2109ZM10.3398 13.1581C10.4372 13.1094 10.5009 13.0822 10.5549 13.0684L10.307 12.0996C10.1427 12.1416 9.99827 12.2109 9.8926 12.2637L10.3398 13.1581ZM10.7844 12.9376L10.787 12.9351L10.08 12.2278L10.0775 12.2304L10.7844 12.9376Z" fill="black" mask="url(#path-10-inside-3_1189_5549)"/>
<mask id="path-12-inside-4_1189_5549" fill="white">
<path d="M8.81613 12.7743C8.74252 12.787 8.67653 12.7464 8.608 12.7388C8.59785 12.7388 8.59277 12.7236 8.59277 12.7134C8.66892 12.7286 8.7476 12.7388 8.81613 12.7743Z"/>
</mask>
<path d="M8.81613 12.7743C8.74252 12.787 8.67653 12.7464 8.608 12.7388C8.59785 12.7388 8.59277 12.7236 8.59277 12.7134C8.66892 12.7286 8.7476 12.7388 8.81613 12.7743Z" fill="#FEF67F"/>
<path d="M8.81613 12.7743L8.90108 13.2671L10.3656 13.0145L9.04629 12.3304L8.81613 12.7743ZM8.608 12.7388L8.66322 12.2418L8.63569 12.2388H8.608V12.7388ZM8.59277 12.7134L8.69083 12.2231L8.09277 12.1035V12.7134H8.59277ZM8.73118 12.2816C8.77019 12.2749 8.8023 12.2764 8.82256 12.2789C8.84086 12.2811 8.85095 12.2843 8.84398 12.2824C8.84053 12.2815 8.83644 12.2802 8.82701 12.2774C8.81911 12.2751 8.80599 12.2712 8.79197 12.2673C8.7643 12.2597 8.71836 12.248 8.66322 12.2418L8.55279 13.2357C8.53191 13.2334 8.51991 13.2296 8.52619 13.2314C8.52915 13.2322 8.533 13.2333 8.54212 13.236C8.5497 13.2383 8.56267 13.2421 8.57634 13.2459C8.6278 13.2602 8.75127 13.2929 8.90108 13.2671L8.73118 12.2816ZM8.608 12.2388C8.88996 12.2388 9.01659 12.4519 9.0438 12.5063C9.07989 12.5785 9.09277 12.6501 9.09277 12.7134H8.09277C8.09277 12.7868 8.10819 12.8712 8.14936 12.9535C8.18165 13.0181 8.31589 13.2388 8.608 13.2388V12.2388ZM8.49472 13.2037C8.51649 13.2081 8.54321 13.213 8.5566 13.2155C8.5737 13.2188 8.58448 13.221 8.59279 13.223C8.61003 13.227 8.60274 13.2269 8.58597 13.2182L9.04629 12.3304C8.89649 12.2528 8.71601 12.2282 8.69083 12.2231L8.49472 13.2037Z" fill="black" mask="url(#path-12-inside-4_1189_5549)"/>
<mask id="path-14-inside-5_1189_5549" fill="white">
<path d="M11.8771 10.8833C11.8771 10.9113 11.8898 10.9444 11.8516 10.9597C11.8389 10.9266 11.8593 10.9062 11.8771 10.8833Z"/>
</mask>
<path d="M11.8771 10.8833C11.8771 10.9113 11.8898 10.9444 11.8516 10.9597C11.8389 10.9266 11.8593 10.9062 11.8771 10.8833Z" fill="#FEA63B"/>
<path d="M11.8771 10.8833H12.3771V9.42606L11.4824 10.5764L11.8771 10.8833ZM11.8516 10.9597L11.385 11.1392L11.5669 11.6121L12.0373 11.4239L11.8516 10.9597ZM11.3771 10.8833C11.3771 10.9173 11.3811 10.9577 11.3802 10.9458C11.3801 10.9455 11.38 10.9435 11.3798 10.9404C11.3796 10.9373 11.3793 10.9324 11.3792 10.9262C11.379 10.9144 11.3791 10.8941 11.382 10.8685C11.3882 10.8155 11.4078 10.7322 11.4687 10.6493C11.5303 10.5654 11.6069 10.5191 11.6659 10.4955L12.0373 11.4239C12.1155 11.3927 12.2048 11.3365 12.2747 11.2412C12.344 11.1469 12.3676 11.0507 12.3753 10.984C12.3823 10.9241 12.3776 10.8741 12.3768 10.8641C12.3746 10.8376 12.3771 10.8634 12.3771 10.8833H11.3771ZM12.3183 10.7802C12.3382 10.8318 12.351 10.8952 12.3469 10.9657C12.3429 11.0353 12.3237 11.0918 12.3048 11.1317C12.2873 11.1687 12.2691 11.1932 12.2645 11.1994C12.2618 11.203 12.2601 11.2051 12.2617 11.203C12.262 11.2027 12.2674 11.196 12.2718 11.1903L11.4824 10.5764C11.4931 10.5626 11.469 10.5933 11.4631 10.6012C11.4501 10.6187 11.4243 10.6546 11.401 10.7037C11.3764 10.7557 11.3534 10.8249 11.3486 10.9083C11.3437 10.9927 11.3587 11.071 11.385 11.1392L12.3183 10.7802Z" fill="black" mask="url(#path-14-inside-5_1189_5549)"/>
<mask id="path-16-inside-6_1189_5549" fill="white">
<path d="M11.8419 11.0052C11.847 11.0306 11.8571 11.0586 11.8139 11.0637C11.8113 11.0383 11.8088 11.0128 11.8419 11.0052Z"/>
</mask>
<path d="M11.8419 11.0052C11.847 11.0306 11.8571 11.0586 11.8139 11.0637C11.8113 11.0383 11.8088 11.0128 11.8419 11.0052Z" fill="#FEA63B"/>
<path d="M11.8419 11.0052L12.3322 10.9071L12.2312 10.4022L11.7294 10.518L11.8419 11.0052ZM11.8139 11.0637L11.3163 11.1135L11.367 11.6197L11.8723 11.5603L11.8139 11.0637ZM11.3516 11.1032C11.359 11.1401 11.3526 11.1073 11.3519 11.1025C11.3497 11.0886 11.3392 11.0241 11.3563 10.9412C11.377 10.8405 11.4346 10.7319 11.5397 10.6541C11.6304 10.587 11.7181 10.5715 11.7554 10.5671L11.8723 11.5603C11.9313 11.5533 12.0339 11.5324 12.1347 11.4579C12.2499 11.3726 12.3128 11.2545 12.3357 11.1429C12.355 11.0492 12.3438 10.9726 12.3396 10.9462C12.3368 10.9288 12.3273 10.8829 12.3322 10.9071L11.3516 11.1032ZM12.3114 11.014C12.3103 11.0032 12.3122 11.0189 12.3125 11.0384C12.3127 11.0585 12.3122 11.1096 12.293 11.1728C12.2718 11.2429 12.2291 11.3226 12.1539 11.389C12.0817 11.4526 12.0062 11.4804 11.9543 11.4924L11.7294 10.518C11.6609 10.5338 11.5734 10.5676 11.4925 10.6389C11.4085 10.713 11.3604 10.8021 11.336 10.8827C11.3137 10.9564 11.3121 11.0191 11.3126 11.0514C11.313 11.083 11.3161 11.1115 11.3163 11.1135L12.3114 11.014Z" fill="black" mask="url(#path-16-inside-6_1189_5549)"/>
<mask id="path-18-inside-7_1189_5549" fill="white">
<path d="M7.48047 18.7238C7.50338 18.7238 7.52884 18.7212 7.54157 18.7492C7.51611 18.7518 7.4932 18.7518 7.48047 18.7238Z"/>
</mask>
<path d="M7.48047 18.7238C7.50338 18.7238 7.52884 18.7212 7.54157 18.7492C7.51611 18.7518 7.4932 18.7518 7.48047 18.7238Z" fill="#FEA63B"/>
<path d="M7.48047 18.7238V18.2238H6.70397L7.02529 18.9307L7.48047 18.7238ZM7.54157 18.7492L7.59132 19.2468L8.28539 19.1774L7.99675 18.5423L7.54157 18.7492ZM7.48047 19.2238C7.50495 19.2238 7.48587 19.2237 7.48078 19.2235C7.46862 19.2231 7.43263 19.2215 7.38689 19.2094C7.33772 19.1964 7.27481 19.1706 7.21381 19.1209C7.15211 19.0705 7.11134 19.0111 7.08638 18.9561L7.99675 18.5423C7.96542 18.4734 7.91671 18.4038 7.84593 18.346C7.77586 18.2889 7.70277 18.2585 7.64278 18.2427C7.58622 18.2277 7.53878 18.2249 7.515 18.2241C7.4983 18.2235 7.46744 18.2238 7.48047 18.2238V19.2238ZM7.49182 18.2517C7.49197 18.2517 7.49582 18.2513 7.50161 18.251C7.50747 18.2506 7.51728 18.2502 7.52978 18.2503C7.55352 18.2506 7.5977 18.2532 7.65124 18.2695C7.70836 18.2868 7.77017 18.3178 7.8261 18.3681C7.88095 18.4174 7.91512 18.4717 7.93565 18.5169L7.02529 18.9307C7.08714 19.0668 7.20405 19.1788 7.36124 19.2265C7.47782 19.2618 7.58163 19.2477 7.59132 19.2468L7.49182 18.2517Z" fill="black" mask="url(#path-18-inside-7_1189_5549)"/>
<path d="M21.0897 11.1121C20.5964 11.7822 20.5466 12.6193 20.2401 13.3617C20.1006 13.6981 20.4693 13.8974 20.6014 14.144C20.9751 14.8466 20.564 15.4744 20.1081 15.5765C19.2984 15.7559 19.2436 16.2243 19.3059 16.7923C19.4055 17.7091 19.0044 18.0081 18.1524 17.896C17.3277 17.7864 16.4657 18.1127 15.6635 17.6992C15.823 17.3304 16.1543 17.4027 16.4508 17.3977C17.0612 17.3902 17.6691 17.3977 18.2794 17.3828C18.4738 17.3778 18.7603 17.46 18.7902 17.1536C18.8275 16.7724 18.5136 16.8297 18.2794 16.8272C17.2131 16.8197 16.1444 16.7998 15.0805 16.8272C14.2808 16.8471 13.5658 16.6827 13.0003 16.0923C12.7761 15.8581 12.5892 15.7559 12.3301 16.0474C11.7048 16.7549 10.8776 16.8521 9.99322 16.8247C9.049 16.7973 8.10478 16.8073 7.15807 16.8247C6.9189 16.8297 6.51281 16.6678 6.49786 17.0738C6.48042 17.5646 6.93135 17.3853 7.18796 17.3853C9.47253 17.4002 11.7596 17.3877 14.0441 17.3977C14.3904 17.3977 14.794 17.2582 15.0332 17.6718C14.7891 18.0156 14.4228 17.8835 14.1064 17.886C11.7621 17.896 9.41523 17.8611 7.07336 17.9084C6.23876 17.9259 5.89994 17.6668 5.95475 16.8197C5.98714 16.2866 6.09675 15.7036 5.20734 15.574C4.82866 15.5192 4.29053 14.8889 4.61689 14.428C5.31198 13.4489 4.76887 12.6118 4.57205 11.7025C4.47738 11.2615 3.8371 10.686 4.52721 10.3597C5.11516 10.0831 5.22478 10.8654 5.52374 11.1943C5.74547 11.4359 5.87502 11.8096 6.26617 11.7947C6.72706 11.7797 6.79184 11.3562 6.94132 11.0348C6.96623 10.98 6.97371 10.9152 7.0061 10.8654C7.24526 10.5116 7.16056 9.8589 7.76346 9.85392C8.27668 9.85143 8.32402 10.4219 8.56319 10.7508C8.65288 10.8729 8.72014 11.0099 8.79986 11.1395C9.29564 11.9192 9.7964 11.9292 10.3146 11.1718C10.479 10.9302 10.5637 10.5889 10.9748 10.6711C10.925 11.3986 10.5911 11.999 9.89357 12.1808C8.55073 12.5271 8.40374 11.1793 7.7834 10.4842C7.38478 10.9875 7.38976 11.6352 6.94381 12.0413C6.40568 12.5346 5.83018 12.1485 5.1924 12.004C5.31198 12.4026 5.37426 12.6965 5.48887 12.9681C5.95973 14.0768 5.7679 15.7484 6.82672 16.2293C7.88305 16.7101 9.33301 16.3339 10.6136 16.319C11.2314 16.3115 11.6898 15.9876 12.1258 15.5765C12.3999 15.3174 12.4273 15.153 12.1881 14.8491C11.7546 14.301 11.3635 13.7205 10.9873 13.1325C10.6709 12.6318 10.7705 12.1385 11.1691 11.7174C11.5379 11.3288 13.4338 11.2192 13.9271 11.5655C14.3556 11.8669 14.5873 12.288 14.4403 12.8261C14.3855 13.0254 14.2609 13.2098 14.1438 13.3842C13.9071 13.7354 13.6505 14.0768 13.4064 14.4255C12.801 15.2875 12.8608 15.5716 13.8149 16.0773C14.074 16.2143 14.388 16.314 14.6794 16.319C15.5888 16.3364 16.5006 16.299 17.41 16.2816C17.9008 16.3339 18.6008 16.6279 18.8076 16.1147C19.3333 14.8266 19.6671 13.4614 20.1305 11.9591C19.5475 12.146 19.1813 12.4026 18.7553 12.3154C18.541 12.2058 18.4239 12.0538 18.546 11.8046C19.3407 12.0015 19.6397 11.416 19.9885 10.9028C20.2501 10.5191 20.4743 10.0358 21.0872 10.3821V11.1145L21.0897 11.1121ZM12.7013 14.4579C12.9056 14.2088 13.222 14.0145 13.2071 13.6532C13.1896 13.3144 12.9529 12.9133 12.654 12.9208C12.3077 12.9282 12.0461 13.3468 12.061 13.6956C12.0735 14.002 12.3301 14.2786 12.7013 14.4579ZM12.3077 12.2282C12.3251 11.9641 12.1806 11.8644 11.9738 11.8869C11.5902 11.9317 11.366 12.1484 11.3709 12.5496C11.3709 12.7638 11.4357 13.0877 11.6525 13.0279C12.0162 12.9307 12.1383 12.5222 12.3077 12.2282ZM13.9495 12.4499C13.9271 12.131 13.7053 11.8844 13.2793 11.8694C13.0974 11.8619 12.8807 11.9591 12.9604 12.1858C13.09 12.5545 13.2868 12.9382 13.6779 13.0453C13.8473 13.0927 13.952 12.7813 13.9495 12.4474V12.4499Z" fill="#16140F"/>
<path d="M18.5484 11.8073C18.4238 12.0564 18.5409 12.2059 18.7577 12.318C18.6779 12.6568 18.6007 12.9957 18.5235 13.337C17.9355 13.1875 17.6166 13.5139 17.3999 13.9872C17.0611 14.7247 16.8717 15.4646 17.4746 16.1721C17.4372 16.1995 17.4148 16.2369 17.4148 16.2842C16.5055 16.3017 15.5937 16.339 14.6843 16.3216C14.3928 16.3166 14.0789 16.217 13.8198 16.0799C12.8656 15.5742 12.8058 15.2877 13.4112 14.4282C13.6554 14.0819 13.912 13.7406 14.1487 13.3868C14.2658 13.2124 14.3928 13.0256 14.4451 12.8287C14.5921 12.2906 14.3604 11.8696 13.9319 11.5681C13.4386 11.2218 11.5427 11.3314 11.174 11.7201C10.7754 12.1386 10.6757 12.6344 10.9921 13.1352C11.3658 13.7256 11.7595 14.3036 12.193 14.8517C12.4346 15.1581 12.4072 15.3201 12.1307 15.5792C11.6972 15.9927 11.2363 16.3166 10.6184 16.3216C9.34037 16.3341 7.89041 16.7103 6.83159 16.2319C5.77277 15.7511 5.9646 14.0769 5.49374 12.9707C5.37913 12.7017 5.31685 12.4077 5.19727 12.0066C5.83505 12.1511 6.40806 12.5373 6.94868 12.044C7.39214 11.6379 7.39214 10.9901 7.78827 10.4869C8.40861 11.182 8.5556 12.5298 9.89843 12.1835C10.596 12.0041 10.9299 11.4037 10.9797 10.6737C11.0594 10.4744 11.1416 10.2751 11.2238 10.0783C12.0958 9.82667 12.0011 8.79027 12.7211 8.28702C13.3215 9.3284 13.9045 10.3748 14.5199 11.4012C15.2125 12.5547 16.209 12.5522 16.9116 11.4186C17.1084 11.1022 17.3077 10.7883 17.5095 10.4694C17.7736 10.736 17.7013 11.2044 18.1647 11.2119C18.222 11.456 18.3516 11.6528 18.5509 11.8073H18.5484ZM15.4965 15.497C16.2838 15.5817 16.5877 14.9813 16.5977 14.4506C16.6076 13.9125 16.3062 13.3345 15.5388 13.3519C14.9559 13.3644 14.2508 13.9474 14.3779 14.4556C14.5149 14.9912 14.7217 15.5966 15.4965 15.497ZM9.79878 13.3569C8.99159 13.337 8.67518 13.9 8.69512 14.4531C8.71754 15.046 9.06383 15.5717 9.87103 15.5144C10.6284 15.4596 10.895 14.9265 10.8701 14.3709C10.8451 13.8004 10.4964 13.2722 9.79878 13.3569ZM8.16944 15.1581C8.16197 14.63 8.04487 14.1342 7.721 13.7032C7.52917 13.4466 7.30245 13.2348 6.95616 13.327C6.61484 13.4192 6.5127 13.7256 6.46536 14.0321C6.38564 14.5627 6.51519 15.0635 6.76681 15.5269C6.95366 15.8732 7.2028 16.3091 7.63131 16.207C8.09719 16.0974 8.1819 15.6091 8.16944 15.1557V15.1581Z" fill="#F3C65F"/>
<path d="M15.0334 17.6768C14.7942 17.2632 14.3906 17.4027 14.0443 17.4027C11.7598 17.3927 9.47271 17.4027 7.18815 17.3903C6.93403 17.3903 6.48061 17.5696 6.49805 17.0788C6.513 16.6727 6.91908 16.8322 7.15825 16.8297C8.10247 16.8123 9.04669 16.8023 9.99341 16.8297C10.8753 16.8571 11.705 16.7599 12.3303 16.0524C12.5894 15.7609 12.7737 15.8631 13.0005 16.0973C13.5685 16.6877 14.2835 16.8521 15.0807 16.8322C16.147 16.8048 17.2133 16.8272 18.2796 16.8322C18.5138 16.8322 18.8277 16.7774 18.7903 17.1586C18.7605 17.465 18.4739 17.3828 18.2796 17.3878C17.6692 17.4027 17.0614 17.3952 16.451 17.4027C16.1545 17.4052 15.8232 17.333 15.6637 17.7042C15.4519 17.6967 15.2427 17.6917 15.0309 17.6817L15.0334 17.6768Z" fill="#EDCF73"/>
<path d="M18.1621 11.212C17.6987 11.2045 17.7684 10.7361 17.5069 10.4695C17.3026 10.7909 17.1033 11.1023 16.9089 11.4187C16.2064 12.5523 15.2098 12.5523 14.5172 11.4013C13.9019 10.3749 13.3189 9.33099 12.7185 8.28712C11.9985 8.79037 12.0932 9.82677 11.2212 10.0784C11.2486 9.14414 11.8415 8.46899 12.3697 7.80878C12.7011 7.39522 13.0199 7.80878 13.2093 8.12767C13.7773 9.09681 14.3229 10.0784 14.8885 11.0475C15.4365 11.9868 15.9772 11.9818 16.5427 11.0475C16.6374 10.8906 16.7246 10.7311 16.8292 10.5816C17.0534 10.2553 17.1631 9.6175 17.7037 9.91148C18.1222 10.1382 18.4037 10.6414 18.1621 11.2145V11.212Z" fill="#16140F"/>
<path d="M18.5208 13.3345C18.6005 12.9957 18.6778 12.6569 18.755 12.3156C19.1835 12.4053 19.5497 12.1462 20.1302 11.9593C19.6668 13.4641 19.333 14.8294 18.8073 16.1149C18.598 16.6256 17.898 16.3316 17.4097 16.2818C17.4097 16.2345 17.4296 16.1971 17.4695 16.1697C17.8681 16.3565 18.0898 16.07 18.3041 15.8334C18.8671 15.218 18.9443 14.1965 18.5183 13.3345H18.5208Z" fill="#CA9254"/>
<path d="M12.7014 14.4606C12.3302 14.2837 12.0736 14.0047 12.0612 13.6983C12.0462 13.3495 12.3053 12.9309 12.6541 12.9234C12.9531 12.9185 13.1897 13.3171 13.2072 13.6559C13.2246 14.0122 12.9057 14.2115 12.7014 14.4606Z" fill="#CA646C"/>
<path d="M12.305 12.2333C12.1331 12.5297 12.0135 12.9358 11.6498 13.033C11.4305 13.0928 11.3707 12.7689 11.3682 12.5546C11.3633 12.151 11.5875 11.9343 11.9712 11.8919C12.1804 11.8695 12.3224 11.9667 12.305 12.2333Z" fill="#CA646C"/>
<path d="M13.9489 12.4525C13.9539 12.7839 13.8493 13.0953 13.6774 13.0504C13.2837 12.9433 13.0894 12.5596 12.9599 12.1909C12.8801 11.9642 13.0969 11.867 13.2788 11.8745C13.7048 11.8895 13.929 12.1361 13.9489 12.455V12.4525Z" fill="#CA646C"/>
<path d="M15.4964 15.4968C14.7216 15.599 14.5124 14.9936 14.3778 14.4555C14.2483 13.9472 14.9558 13.3643 15.5388 13.3518C16.3061 13.3344 16.6076 13.9099 16.5976 14.4505C16.5876 14.9836 16.2837 15.5816 15.4964 15.4968Z" fill="#16140F"/>
<path d="M9.79888 13.3545C10.5014 13.2723 10.8452 13.7979 10.8702 14.3684C10.8951 14.9215 10.631 15.4572 9.87113 15.512C9.06394 15.5693 8.71764 15.0461 8.69522 14.4507C8.67529 13.8976 8.99169 13.3345 9.79888 13.3545Z" fill="#16140F"/>
<path d="M18.5207 13.3344C18.9468 14.1964 18.867 15.2179 18.3065 15.8332C18.0922 16.0699 17.8705 16.3564 17.4719 16.1696C16.869 15.462 17.0583 14.7221 17.3971 13.9847C17.6164 13.5088 17.9353 13.1849 18.5207 13.3344ZM18.2193 13.7729C17.5392 14.6274 17.4918 14.8791 17.8207 15.609C18.2492 15.0983 18.436 14.5577 18.2193 13.7729Z" fill="#16140F"/>
<path d="M8.16919 15.153C8.18165 15.6064 8.09445 16.0922 7.63106 16.2043C7.20255 16.304 6.9559 15.873 6.76656 15.5242C6.51743 15.0608 6.38788 14.5576 6.46511 14.0294C6.50995 13.723 6.6121 13.4165 6.95591 13.3243C7.3022 13.2297 7.52891 13.4439 7.72075 13.7005C8.04462 14.1315 8.15922 14.6273 8.16919 15.1555V15.153ZM7.03563 13.6756C6.92601 14.5476 6.96089 15.1306 7.52891 15.6737C7.84532 14.9313 7.60116 14.4006 7.03563 13.6756Z" fill="#16140F"/>
<path d="M18.2194 13.7755C18.4386 14.5603 18.2493 15.1009 17.8208 15.6116C17.4894 14.8816 17.5368 14.63 18.2194 13.7755Z" fill="#CA646C"/>
<path d="M7.0359 13.6782C7.60144 14.4057 7.84808 14.9339 7.52919 15.6763C6.96116 15.1332 6.92628 14.5502 7.0359 13.6782Z" fill="#CA646C"/>
</svg>
