<svg width="27" height="26" fill="none" xmlns="http://www.w3.org/2000/svg"><g opacity=".85"><path d="M14.249 25.444c6.904 0 12.5-5.596 12.5-12.5s-5.596-12.5-12.5-12.5-12.5 5.596-12.5 12.5 5.596 12.5 12.5 12.5z" fill="#FF4C00"/><path d="M14.249 23.552c5.858 0 10.607-4.75 10.607-10.608 0-5.858-4.749-10.608-10.607-10.608-5.859 0-10.608 4.75-10.608 10.608 0 5.858 4.75 10.608 10.608 10.608z" fill="#DE3B00"/><path d="M19.797 3.89a10.559 10.559 0 0 1 1.669 5.714c0 5.859-4.749 10.608-10.608 10.608-2.035 0-3.935-.573-5.55-1.566a10.6 10.6 0 0 0 8.938 4.895c5.859 0 10.608-4.75 10.608-10.608 0-3.824-2.024-7.175-5.06-9.043h.003z" fill="#C52F05"/><path d="M5.497 13.914a9.364 9.364 0 0 1 16.788-5.708A9.364 9.364 0 1 0 6.744 18.582 9.332 9.332 0 0 1 5.5 13.914h-.003z" fill="#ED7447"/></g><circle cx="13.871" cy="12.944" r="12" stroke="#FFFEFE" stroke-width="1.757"/><path d="M14.79 10.718a.954.954 0 0 1-.073.046c-.056.034-.114.062-.172.091a4.642 4.642 0 0 0-.077.039.5.5 0 0 1-.132.04.522.522 0 0 0-.11.03c-.08.038-.161.037-.243.036-.037 0-.074 0-.111.003v.145l.918-.43zm0 0 .002.008c.002.011.005.028.01.046v.003c.037.14.093.271.14.384l.016.036c.044.108.101.227.182.337l.001.002.05.067c.066.089.14.19.223.282.148.167.31.31.485.438.109.08.223.145.333.202.094.047.192.09.28.126l.07.03.002.001a.982.982 0 0 0 .203.063c.05.01.099.024.149.039a.553.553 0 0 0 .164.027c.235.052.47.04.667.032l.032-.002-3.009-2.121zm4.738 1.357a3.409 3.409 0 0 1-.41.323l-.003.002a2.123 2.123 0 0 1-.264.144l-.04.019c-.095.044-.205.096-.32.134l-.003.001c-.1.032-.206.063-.317.085l-.005.001-.052.01c-.09.018-.203.04-.315.045l1.729-.764zm0 0c.091.077.197.154.319.208l.101-.23-.42.022zm.912.141-.05.245.05-.245zm0 0a2.674 2.674 0 0 1-.169-.042c-.04-.01-.08-.022-.12-.031l.62.215a.222.222 0 0 0 .12.104l.003.001a.215.215 0 0 0 .035.01c.017.002.028.001.026.001l-.018.001h-.006c-.01.002-.022.002-.036.003h-.002a14.172 14.172 0 0 1-.143.008m-.31-.27c.14.029.278.022.415.014l.024-.001c.062-.004.091-.01.106.003.014.011.015.037.019.093m0 0h-.247a.126.126 0 0 1-.005-.021V12.3v.007l.002.026v.012l.001.014a.527.527 0 0 1-.005.126m.254-.16v.007-.008zm-.254.16a.573.573 0 0 1-.003.02l-.01.065c-.009.048-.02.106-.024.146v.003c-.016.131-.03.246-.056.356l.243.059a2.233 2.233 0 0 0-.036.19c-.013.081-.026.162-.05.242-.02.068-.034.147-.044.223a.864.864 0 0 1-.032.149c-.008.025-.015.05-.021.077l-.019.085-.02.085c-.005.03-.013.062-.02.094-.008.032-.016.063-.022.094l-.004.02c-.009.048-.018.1-.047.145m.165-2.053-.422 2.042a.32.32 0 0 1 .041-.062l.01-.013.006-.006.19.163m.01-.071-.208-.139-.003.005.001-.003.21.137zm0 0c-.01.015-.01.031-.01.048v.023m0 0-.003.004c-.015.016-.03.033-.025.06l-.095-.077.123.013zm-5.621-4.015.025-.006c.006 0 .01.001.016.003l-.197.13a.104.104 0 0 1-.004-.006c.045-.032.088-.068.13-.104a.118.118 0 0 1 .03-.017z" fill="#FEBF2E" stroke="#000" stroke-width=".5"/><mask id="a" fill="#fff"><path d="M13.871 16.567h5.782c.028 0 .056.002.087.005-.01.073-.008.15-.008.223v1.2c0 .095 0 .188-.046.275a.53.53 0 0 1-.238.238.74.74 0 0 1-.34.064c-.762 0-1.523-.005-2.285 0-.188 0-.373.002-.56.01-.026-.023-.06-.013-.09-.013-.718 0-1.436.005-2.154 0-.902-.007-1.803 0-2.704-.005H8.851c-.028 0-.056.003-.086.005-.074-.012-.15-.002-.224-.007-.04 0-.084 0-.12-.028H13.766c.07 0 .104-.036.104-.107v-1.863l.002.003z"/></mask><path d="M13.871 16.567h5.782c.028 0 .056.002.087.005-.01.073-.008.15-.008.223v1.2c0 .095 0 .188-.046.275a.53.53 0 0 1-.238.238.74.74 0 0 1-.34.064c-.762 0-1.523-.005-2.285 0-.188 0-.373.002-.56.01-.026-.023-.06-.013-.09-.013-.718 0-1.436.005-2.154 0-.902-.007-1.803 0-2.704-.005H8.851c-.028 0-.056.003-.086.005-.074-.012-.15-.002-.224-.007-.04 0-.084 0-.12-.028H13.766c.07 0 .104-.036.104-.107v-1.863l.002.003z" fill="#FEA63B"/><path d="m13.871 16.567-.353.353.146.147h.207v-.5zm5.869.005.495.068.072-.523-.526-.044-.041.499zm-.054 1.698-.442-.234-.003.006.445.228zm-2.863.302v.5h.003l-.003-.5zm-.56.01-.335.371.151.137.203-.009-.02-.5zm-2.245-.013-.004.5h.001l.003-.5zm-2.703-.005.003-.5h-.003v.5zm-2.55.005-.085.493.062.01.064-.005-.041-.498zm-.224-.007.035-.5H8.54v.5zm-.12-.028v-.5H6.977l1.137.893.309-.393zm5.448-1.97.353-.354-.853-.853v1.207h.5zm.002.503H19.653v-1H13.871v1zm5.782 0h.01l.035.003.083-.997c-.023-.002-.074-.006-.128-.006v1zm-.409-.564c-.016.118-.012.243-.012.292h1c0-.098-.001-.125.003-.155l-.99-.137zm-.012.292V17.996h1V16.795h-1zm0 1.2a2.003 2.003 0 0 1-.002.079c0 .004.001-.013.014-.038l.884.468c.113-.214.104-.435.104-.508h-1zm.01.047a.054.054 0 0 1-.01.014l-.008.005.447.895a1.03 1.03 0 0 0 .46-.458l-.89-.456zm-.018.019s-.019.01-.116.01v1c.14 0 .35-.009.563-.116l-.447-.894zm-.116.01c-.757 0-1.525-.004-2.288 0l.006 1c.76-.004 1.515 0 2.282 0v-1zm-2.285 0c-.192 0-.384.003-.581.011l.04 1c.18-.008.358-.01.541-.01v-1zm-.226.14a.561.561 0 0 0-.367-.144l-.072.002c-.014.002 0 0 .015 0v1l.062-.002h-.026a.446.446 0 0 1-.281-.113l.669-.744zm-.424-.142c-.723 0-1.435.005-2.15 0l-.008 1c.72.005 1.445 0 2.158 0v-1zm-2.15 0c-.893-.007-1.823 0-2.705-.005l-.005 1c.92.005 1.792-.003 2.701.005l.009-1zm-2.708-.005H8.851v1H11.315v-1zm-2.464 0c-.054 0-.105.005-.128.007l.083.996.036-.002h.009v-1zm-.002.012a1.12 1.12 0 0 0-.2-.014c-.055.001-.062.002-.073 0l-.07.998c.036.003.067.003.092.003h.06c.032 0 .032 0 .022-.001l.17-.986zm-.308-.014c-.028 0-.005-.002.023.003a.376.376 0 0 1 .167.075l-.618.787c.192.15.417.135.428.135v-1zm-.12.972H8.509v-1H8.421v1zm.087 0H13.764v-1H8.51v1zm5.257 0c.115 0 .292-.03.436-.178a.608.608 0 0 0 .168-.429h-1c0-.038.01-.16.116-.27a.399.399 0 0 1 .28-.123v1zm.604-.607V16.564h-1V18.427h1zm-.854-1.51.003.003.707-.707-.003-.003-.707.708z" fill="#000" mask="url(#a)"/><path d="m21.088 11.997-.016-.079h-.003c-.02.005-.075.016-.13.049l-.06.003-.017.002h-.01a1.43 1.43 0 0 1-.363-.008 2.997 2.997 0 0 1-.192-.048l-.085-.023h-.003a.297.297 0 0 1-.054-.023l-.022-.01a2.1 2.1 0 0 0-.086-.042l-.002-.001c-.108-.047-.19-.122-.306-.23l-.054-.049a14.7 14.7 0 0 0-.062-.074l-.036-.043a.392.392 0 0 0-.086-.135 3.16 3.16 0 0 0-.029-.062l-.009-.017a.812.812 0 0 1-.04-.093v-.003a1.217 1.217 0 0 1-.08-.309V10.466c.01-.121.05-.243.108-.382.08-.191.201-.353.361-.489.08-.067.17-.126.266-.18a.302.302 0 0 0 .095-.036.297.297 0 0 0 .112-.045h.002l.023-.006.016-.004a1.11 1.11 0 0 1 .074-.016l.006-.001c.185-.035.37-.035.554 0h.001c.134.025.262.075.385.146h.001c.224.129.396.307.522.536l.004.008a.531.531 0 0 1 .03.057.313.313 0 0 0 .036.105.29.29 0 0 0 .035.093c.005.03.012.059.017.082l.004.014a1.136 1.136 0 0 1 .019.472c-.007.042-.015.073-.023.11-.007.029-.015.06-.024.104-.01.049-.034.1-.075.185-.07.137-.142.249-.237.336h-.001c-.146.136-.256.233-.39.287l.093.232-.269-.077z" fill="#FEA63B" stroke="#000" stroke-width=".5"/><mask id="b" fill="#fff"><path d="M20.509 14.793c-.008-.036.015-.061.03-.09.013.039.01.07-.03.09z"/></mask><path d="M20.509 14.793c-.008-.036.015-.061.03-.09.013.039.01.07-.03.09z" fill="#772A0C"/><path d="m20.509 14.793-.49.104.136.631.577-.288-.223-.447zm.03-.09.475-.158-.363-1.09-.55 1.01.438.239zm.459-.015a.434.434 0 0 1-.03.269c-.008.019-.016.031-.014.027l.003-.004a.696.696 0 0 0 .021-.037l-.878-.479c.004-.006.01-.015 0 0a.572.572 0 0 0-.08.432l.978-.208zm-.933.174c-.005-.015-.038-.113-.003-.24a.44.44 0 0 1 .223-.277l.447.895a.56.56 0 0 0 .282-.695l-.949.317z" fill="#000" mask="url(#b)"/><mask id="c" fill="#fff"><path d="M20.546 14.663c-.005-.028.013-.046.028-.063 0 .025.01.053-.028.063z"/></mask><path d="M20.546 14.663c-.005-.028.013-.046.028-.063 0 .025.01.053-.028.063z" fill="#772A0C"/><path d="m20.546 14.663-.492.09.097.533.524-.14-.129-.483zm.028-.063h.5v-1.352l-.88 1.026.38.326zm.464-.026a.45.45 0 0 1-.087.354c-.002.002-.01.012.003-.003l-.76-.65c.013-.016-.04.042-.077.107a.55.55 0 0 0-.063.37l.984-.178zm-.964.026c0 .024.003.07.002.047 0 0-.004-.047.008-.105a.472.472 0 0 1 .334-.362l.257.966a.529.529 0 0 0 .39-.414c.014-.07.01-.128.01-.141-.002-.035 0-.003 0 .009h-1z" fill="#000" mask="url(#c)"/><mask id="d" fill="#fff"><path d="M13.87 10.988v5.576H8.137c-.04 0-.079 0-.12.003-.055-.026-.065-.084-.09-.127a6.632 6.632 0 0 1-.295-.566c-.071-.15-.147-.3-.193-.46-.046-.154-.107-.304-.15-.459l-.16-.553c-.058-.203-.104-.409-.15-.612a2.317 2.317 0 0 1-.043-.231c-.01-.081-.035-.16-.053-.241-.015-.074-.02-.147-.036-.221-.017-.089-.03-.18-.045-.271-.018-.12-.026-.24-.053-.356-.016-.058-.008-.122-.013-.185.013-.1.013-.1.109-.071a.227.227 0 0 0 .071.007c.195.003.388.003.579-.058.16-.05.307-.12.449-.206.107-.066.188-.157.28-.236.195.229.433.409.692.559.135.076.277.14.43.183.027.007.052.027.083.027 0 .013.005.026.015.026.071.007.135.048.208.035.12 0 .236.04.358.04.16 0 .322.011.48-.012.137-.018.276-.028.403-.086.018-.008.038-.005.059-.008.005 0 .012.003.02 0 .101-.022.193-.07.29-.106.004 0 .004-.015.007-.023l.005-.005c.033.01.053-.018.074-.03.056-.034.121-.046.165-.1h.012a.252.252 0 0 0 .104-.066c.107-.06.2-.142.292-.225.112-.107.226-.211.323-.333.076-.096.142-.2.208-.307.076-.127.132-.264.193-.399.007-.015.007-.033.012-.05.041-.005.033-.033.028-.059l.008-.046c.038-.015.028-.048.025-.076 0-.02.003-.038.005-.058.051-.066.09-.023.122.018.02.028.053.028.076.048.127.117.287.18.444.239.16.058.33.086.503.073v.008z"/></mask><path d="M13.87 10.988v5.576H8.137c-.04 0-.079 0-.12.003-.055-.026-.065-.084-.09-.127a6.632 6.632 0 0 1-.295-.566c-.071-.15-.147-.3-.193-.46-.046-.154-.107-.304-.15-.459l-.16-.553c-.058-.203-.104-.409-.15-.612a2.317 2.317 0 0 1-.043-.231c-.01-.081-.035-.16-.053-.241-.015-.074-.02-.147-.036-.221-.017-.089-.03-.18-.045-.271-.018-.12-.026-.24-.053-.356-.016-.058-.008-.122-.013-.185.013-.1.013-.1.109-.071a.227.227 0 0 0 .071.007c.195.003.388.003.579-.058.16-.05.307-.12.449-.206.107-.066.188-.157.28-.236.195.229.433.409.692.559.135.076.277.14.43.183.027.007.052.027.083.027 0 .013.005.026.015.026.071.007.135.048.208.035.12 0 .236.04.358.04.16 0 .322.011.48-.012.137-.018.276-.028.403-.086.018-.008.038-.005.059-.008.005 0 .012.003.02 0 .101-.022.193-.07.29-.106.004 0 .004-.015.007-.023l.005-.005c.033.01.053-.018.074-.03.056-.034.121-.046.165-.1h.012a.252.252 0 0 0 .104-.066c.107-.06.2-.142.292-.225.112-.107.226-.211.323-.333.076-.096.142-.2.208-.307.076-.127.132-.264.193-.399.007-.015.007-.033.012-.05.041-.005.033-.033.028-.059l.008-.046c.038-.015.028-.048.025-.076 0-.02.003-.038.005-.058.051-.066.09-.023.122.018.02.028.053.028.076.048.127.117.287.18.444.239.16.058.33.086.503.073v.008z" fill="#FEF67F"/><path d="M13.87 16.564v.5h.5v-.5h-.5zm-5.851.003-.207.455.113.052.125-.008-.031-.5zm-.092-.127.431-.254-.002-.003-.429.257zm-.294-.566.452-.214-.452.214zm-.193-.46.48-.137v-.004l-.48.141zm-.15-.459.482-.134-.001-.004-.48.138zm-.16-.553-.48.138.48-.138zm-.15-.612.488-.11v-.004l-.488.114zm-.043-.231-.496.062v.002l.496-.064zm-.053-.241-.49.101.002.006.488-.107zm-.036-.221-.49.098v.003l.49-.101zm-.045-.271-.495.073.002.009.493-.082zm-.053-.356.486-.116-.003-.01-.483.126zm-.013-.185-.496-.064-.007.052.004.052.499-.04zm.109-.071.158-.475-.01-.003-.009-.003-.139.48zm.071.007.007-.5h-.007v.5zm.579-.058-.152-.477.152.477zm.449-.206.26.428.003-.002-.263-.426zm.28-.236.38-.325-.327-.38-.38.326.326.38zm.692.559-.25.433.004.002.246-.435zm.43.183-.137.48.004.002.132-.482zm.083.027h.5v-.5h-.5v.5zm.015.026.053-.497-.026-.003h-.027v.5zm.208.035v-.5H9.61l-.042.008.085.492zm.838.028-.064-.496-.008.001.072.495zm.403-.086-.197-.46-.012.006.21.454zm.059-.008v-.5h-.031l-.031.004.062.496zm.02 0-.11-.487-.024.005-.024.008.158.474zm.29-.106v-.5h-.09l-.084.03.173.47zm.007-.023-.354-.354-.083.084-.037.112.474.158zm.005-.005.147-.478-.288-.089-.213.213.354.354zm.074-.03-.255-.431-.01.006.265.424zm.165-.1v-.5h-.239l-.15.186.389.314zm.012 0v.5h.077l.072-.022-.149-.478zm.104-.066-.248-.434-.058.034-.047.047.353.353zm.292-.225.338.368.008-.007-.346-.361zm.323-.333.392.31-.392-.31zm.208-.307.425.263.004-.006-.43-.257zm.193-.399-.448-.223-.004.008-.004.01.456.205zm.012-.05-.062-.496-.328.04-.09.318.48.138zm.028-.059-.493-.082-.015.09.018.09.49-.098zm.008-.046-.186-.464-.261.105-.046.277.493.082zm.025-.076h-.5v.023l.002.023.498-.046zm.005-.058-.396-.305-.083.108-.017.135.496.062zm.122.018.405-.294-.008-.011-.009-.01-.388.315zm.076.048.339-.368-.006-.006-.333.374zm.444.239-.173.468.002.001.171-.47zm.503.073h.5v-.538l-.537.04.037.498zm-.5.008V11.133h1V10.987h-1zm0 .145V16.563h1V11.133h-1zm.5 4.931H13.762v1H13.87v-1zm-.107 0H8.139v1H13.762v-1zm-5.624 0c-.039 0-.092 0-.15.004l.062.998c.022-.002.045-.002.088-.002v-1zm.087.047a.392.392 0 0 1 .175.159c.005.009.008.016 0-.002-.005-.01-.02-.045-.042-.082l-.862.507-.007-.013a.622.622 0 0 0 .323.342l.413-.91zm.131.072a6.155 6.155 0 0 1-.271-.523l-.904.428c.093.196.195.404.317.608l.858-.513zm-.271-.524c-.08-.169-.133-.272-.164-.382l-.962.275c.06.21.16.406.222.536l.904-.429zm-.166-.386c-.026-.091-.057-.18-.082-.252a3.485 3.485 0 0 1-.065-.2l-.964.268c.027.094.057.184.084.26.027.079.05.143.068.207l.96-.283zm-.148-.456-.08-.278-.08-.276-.961.277a163.703 163.703 0 0 0 .16.553l.96-.276zm-.16-.553c-.054-.187-.096-.377-.143-.584l-.975.22c.045.2.093.42.157.64l.96-.276zm-.144-.588a1.822 1.822 0 0 1-.034-.181l-.992.128c.013.1.032.195.053.28l.973-.227zm-.034-.179c-.013-.107-.058-.273-.06-.286l-.977.214c.032.15.038.14.045.196l.992-.124zm-.06-.28a1.23 1.23 0 0 1-.011-.078c-.005-.034-.012-.087-.024-.143l-.98.202c.005.018.008.038.013.078.005.034.012.087.023.143l.98-.202zm-.034-.218c-.016-.079-.025-.146-.043-.256l-.986.165c.012.072.028.188.048.287l.98-.196zm-.042-.247c-.009-.061-.027-.256-.061-.398l-.973.232c.022.092.019.135.045.313l.99-.147zm-.064-.408a.212.212 0 0 1 .006.032v-.051c0-.02-.001-.048-.004-.08l-.997.08v.015l.001.05c.001.04.004.118.027.206l.967-.252zm0 .004c.005-.037.003-.022-.002-.001-.002.008-.035.167-.198.274-.163.105-.321.072-.328.07-.02-.003-.034-.007.002.003l.278-.96c-.012-.004-.062-.02-.11-.027-.034-.007-.212-.039-.388.076-.177.115-.219.292-.227.327-.012.047-.018.1-.02.111l.993.127zm-.545.34c.113.038.222.033.229.033v-1c-.014 0-.007 0 .004.001.012 0 .043.004.083.017l-.316.95zm.223.033c.189.003.46.007.737-.082l-.305-.952c-.102.033-.218.037-.42.034l-.012 1zm.736-.081c.2-.064.384-.15.557-.255l-.519-.855c-.11.067-.221.119-.34.156l.302.954zm.561-.258c.092-.056.165-.12.219-.168.068-.062.08-.077.123-.114l-.652-.758c-.049.042-.122.112-.144.132a.528.528 0 0 1-.072.058l.526.85zm-.364-.336c.242.283.53.497.823.667l.5-.866a2.132 2.132 0 0 1-.563-.45l-.76.65zm.827.669c.162.092.341.172.539.229l.272-.963a1.45 1.45 0 0 1-.319-.136l-.492.87zm.543.23c-.027-.008-.046-.016-.048-.017h.001l.018.009c.027.011.12.053.245.053v-1c.048 0 .088.009.115.016.025.007.042.015.044.016l-.003-.001-.019-.009a.657.657 0 0 0-.09-.032l-.263.965zm-.284-.455a.513.513 0 0 0 .515.525v-1c.244 0 .38.165.43.258a.462.462 0 0 1 .055.217h-1zm.462.523c-.02-.002-.032-.006-.027-.004l.015.004.033.01a.729.729 0 0 0 .325.021l-.17-.985c.077-.014.132.005.115 0l-.017-.004a.83.83 0 0 0-.167-.036l-.107.994zm.261.038a.69.69 0 0 1 .094.014c.053.008.154.027.264.027v-1a.659.659 0 0 1-.095-.013c-.052-.009-.153-.028-.263-.028v1zm.358.04c.117 0 .347.013.552-.017l-.144-.99c-.11.016-.205.008-.408.008v1zm.544-.016c.094-.012.334-.03.548-.128l-.418-.908c-.039.018-.078.021-.258.044l.128.992zm.536-.122a.437.437 0 0 1-.136.033h-.003H10.96l.054-.005-.124-.992a.293.293 0 0 1 .021-.002h.002a.58.58 0 0 0-.216.046l.393.92zm-.138.032a.473.473 0 0 1-.06-.003l.024.002a.527.527 0 0 0 .214-.024l-.316-.949a.475.475 0 0 1 .192-.023l.014.002a.4.4 0 0 0-.068-.005v1zm.13-.012c.09-.02.17-.05.225-.073.07-.028.088-.038.127-.052l-.346-.938c-.057.02-.132.053-.158.064a.463.463 0 0 1-.068.024l.22.975zm.18-.094a.502.502 0 0 0 .452-.284c.03-.063.041-.12.042-.127l.004-.02a.448.448 0 0 1-.017.066l-.948-.316c-.014.04-.02.075-.02.079-.003.019 0 0 0-.005.001-.002.01-.054.04-.115a.493.493 0 0 1 .446-.278v1zm.007-.523.354.353s-.001.001 0 0l.001-.001.002-.002.002-.002-.707-.707-.004.004h-.001v.001c-.002.002.001-.002 0 0l.353.354zm-.142.473a.545.545 0 0 0 .453-.06c.035-.022.063-.045.066-.047.012-.01-.008.006-.033.022l-.53-.848a.575.575 0 0 0-.064.046l.033-.023a.455.455 0 0 1 .37-.047l-.295.957zm.475-.078c-.01.006-.015.007-.005.003l.056-.025a.712.712 0 0 0 .248-.193l-.777-.63a.325.325 0 0 1 .066-.06c.017-.013.029-.018.027-.018l-.008.004-.01.005-.014.006a1 1 0 0 0-.092.047l.509.86zm-.09-.03H11.527v-1H11.513v1zm.162-.022a.75.75 0 0 0 .309-.19l-.707-.707a.274.274 0 0 1 .1-.058l.298.955zm.204-.11a2.15 2.15 0 0 0 .381-.29l-.676-.738c-.088.081-.147.13-.202.16l.497.868zm.389-.298c.098-.094.245-.228.369-.384l-.784-.62c-.07.087-.151.162-.276.28l.69.724zm.37-.384c.095-.121.174-.247.24-.354l-.85-.526a2.789 2.789 0 0 1-.176.26l.785.62zm.244-.36c.095-.16.169-.339.22-.45l-.912-.412c-.072.159-.11.253-.166.348l.858.514zm.21-.432c.038-.074.05-.14.053-.157l.002-.011c0-.002 0-.002 0 0l-.008.031-.961-.275a.66.66 0 0 0-.014.058l-.002.013v.002a.426.426 0 0 1 .037-.108l.894.447zm-.372.222a.524.524 0 0 0 .459-.64.922.922 0 0 0-.002-.01v-.003l-.981.196c.004.02 0 .001-.002-.016a.477.477 0 0 1 .403-.52l.123.993zm.46-.473.003-.022.004-.023-.986-.165-.004.023-.004.023.987.164zm-.3.337a.546.546 0 0 0 .34-.568l-.003-.023v.005l-.996.09a.76.76 0 0 0 .003.026c0-.006-.005-.045.003-.097a.461.461 0 0 1 .281-.362l.372.929zm.34-.54-.002.02v-.003l.002-.006v-.008l-.992-.124c0 .009-.009.062-.009.12h1zm-.1.246a.413.413 0 0 1-.17.127.459.459 0 0 1-.336.004.416.416 0 0 1-.142-.088l-.014-.015.776-.63c-.008-.01-.033-.042-.066-.073a.583.583 0 0 0-.198-.128.541.541 0 0 0-.4.005.589.589 0 0 0-.242.188l.793.61zm-.678.007c.091.126.208.177.24.19l.012.006-.003-.002-.01-.004a.42.42 0 0 1-.09-.062l.664-.748a.582.582 0 0 0-.162-.101l-.007-.003c-.001 0-.001 0 0 0l.017.008a.432.432 0 0 1 .148.128l-.81.588zm.142.122c.208.191.457.283.609.34l.347-.938c-.163-.06-.233-.096-.28-.138l-.676.736zm.611.34c.219.08.46.121.71.103l-.073-.997a.706.706 0 0 1-.294-.045l-.343.94zm.174-.396v.008h1v-.008h-1z" fill="#000" mask="url(#d)"/><path d="m8.047 11.553-.09.082a.822.822 0 0 1-.142.118 1.807 1.807 0 0 1-.393.18H7.42c-.144.048-.295.049-.497.046h-.011a.668.668 0 0 0-.07-.02c-.01-.001-.036-.006-.07-.005a.385.385 0 0 0-.078-.025 1.246 1.246 0 0 1-.626-.386 1.514 1.514 0 0 1-.226-.332c-.043-.08-.062-.161-.09-.278a9.7 9.7 0 0 0-.02-.089l-.001-.002c-.02-.077-.018-.159-.015-.284v-.008c.004-.131.04-.265.1-.416v-.001c.051-.134.114-.248.196-.341l.001-.002a1.46 1.46 0 0 1 .576-.415h.001c.21-.086.436-.096.69-.07h.002c.11.01.228.054.363.12.171.085.313.188.43.321.11.126.194.26.247.408l.235-.085-.235.084.005.015c.025.07.038.105.042.14.002.032.01.073.03.114V10.86c-.05.232-.139.437-.278.618l-.001.002-.008.007a1.1 1.1 0 0 0-.064.066zm-.742-2.497z" fill="#FEBF2E" stroke="#000" stroke-width=".5"/><path d="M14.824 10.357a.327.327 0 0 0-.013.016.393.393 0 0 0-.045.031l-.005.005a1.128 1.128 0 0 1-.17.125l-.005.003c-.048.028-.092.05-.145.076l-.09.046-.004.002a.238.238 0 0 1-.053.014l-.01.002a.795.795 0 0 0-.16.046l-.005.002V8.07c.039.008.08.019.123.032h.002c.15.043.284.109.414.199l.003.002a1.285 1.285 0 0 1 .484.658c.061.176.091.343.08.51v.003c-.002.051-.011.09-.024.148-.008.032-.017.07-.026.12a1.243 1.243 0 0 1-.189.421l-.001.003c-.033.05-.072.093-.124.151a10.94 10.94 0 0 0-.037.04v.001z" fill="#FEA63B" stroke="#000" stroke-width=".5"/><path d="M13.62 8.074V10.727a1.046 1.046 0 0 1-.166-.045h-.002c-.154-.056-.272-.108-.359-.188l-.003-.003a.345.345 0 0 0-.068-.047l-.005-.002a.345.345 0 0 0-.103-.08.602.602 0 0 0-.026-.034l-.02-.023-.012-.014a1.344 1.344 0 0 1-.262-.458l-.239.074m1.266-1.833-.812 2.256a.292.292 0 0 0-.2.052c-.11-.143-.2-.3-.254-.475m1.266-1.833c-.05.01-.101.026-.158.043h-.001a1.293 1.293 0 0 0-.437.235l-.001.001c-.176.14-.306.315-.403.526a1.38 1.38 0 0 0-.1.444m1.1-1.25-.753.085a1.66 1.66 0 0 0-.474.616 1.618 1.618 0 0 0-.122.526m.083.607a1.59 1.59 0 0 1-.083-.607m.083.607.24-.074a1.349 1.349 0 0 1-.074-.51m-.25-.023.25.024v-.001m-.25-.023.25.021v.002m.427 1.376.01.005a.375.375 0 0 0 .024-.089v-.002a.35.35 0 0 0 0-.084l-.034.17z" fill="#FEBF2E" stroke="#000" stroke-width=".5"/><mask id="e" fill="#fff"><path d="M11.275 12.366s-.003.02-.008.023c-.096.035-.188.084-.29.106h-.02c.102-.05.206-.099.315-.127l.003-.002z"/></mask><path d="M11.275 12.366s-.003.02-.008.023c-.096.035-.188.084-.29.106h-.02c.102-.05.206-.099.315-.127l.003-.002z" fill="#FEF67F"/><path d="m11.275 12.366.496.062.18-1.446-1.03 1.03.354.354zm-.008.023.173.469.026-.01.025-.012-.224-.447zm-.29.106v.5h.056l.055-.012-.11-.488zm-.02 0-.223-.447.223.947v-.5zm.315-.127.124.485.133-.034.097-.097-.354-.354zm.003-.002-.496-.062v-.007l.002-.008a.445.445 0 0 1 .078-.187.495.495 0 0 1 .185-.16l.447.894a.504.504 0 0 0 .269-.345.644.644 0 0 0 .008-.041l.002-.013v-.008l-.495-.063zm-.18-.446c-.058.02-.133.053-.159.064a.466.466 0 0 1-.068.024l.22.975c.09-.02.169-.05.225-.073.07-.028.088-.038.127-.052l-.346-.938zm-.117.075H10.957v1H10.978v-1zm.203.948c.098-.05.161-.076.215-.09l-.248-.969a2.085 2.085 0 0 0-.414.164l.447.895zm.445-.22.002-.003-.707-.708-.002.003.707.707z" fill="#000" mask="url(#e)"/><mask id="f" fill="#fff"><path d="M9.657 12.559c-.073.013-.14-.028-.208-.036-.01 0-.015-.015-.015-.025.076.015.155.025.223.06z"/></mask><path d="M9.657 12.559c-.073.013-.14-.028-.208-.036-.01 0-.015-.015-.015-.025.076.015.155.025.223.06z" fill="#FEF67F"/><path d="m9.657 12.559.085.493 1.465-.253-1.32-.684-.23.444zm-.208-.036.056-.497-.028-.003h-.028v.5zm-.015-.025.098-.49-.598-.12v.61h.5zm.138-.432a.316.316 0 0 1 .092-.003l.021.004a.587.587 0 0 1-.052-.015.827.827 0 0 0-.128-.026l-.11.994c-.022-.002-.034-.006-.027-.004a.72.72 0 0 1 .05.014.733.733 0 0 0 .324.022l-.17-.986zm-.123-.043c.282 0 .409.213.436.268a.461.461 0 0 1 .05.207h-1c0 .073.014.158.056.24a.513.513 0 0 0 .458.285v-1zm-.113.965.062.012a.863.863 0 0 1 .036.008c.017.004.01.003-.007-.005l.46-.888c-.15-.078-.33-.102-.355-.107l-.196.98z" fill="#000" mask="url(#f)"/><mask id="g" fill="#fff"><path d="M12.719 10.668c0 .028.013.06-.026.076-.012-.033.008-.053.026-.076z"/></mask><path d="M12.719 10.668c0 .028.013.06-.026.076-.012-.033.008-.053.026-.076z" fill="#FEA63B"/><path d="M12.719 10.668h.5V9.21l-.895 1.15.395.307zm-.026.076-.466.18.182.473.47-.188-.186-.465zm-.474-.076c0 .034.004.074.003.062v-.005l-.001-.014a.442.442 0 0 1 .09-.277.455.455 0 0 1 .197-.154l.371.929a.544.544 0 0 0 .338-.44c.007-.06.002-.11.002-.12-.003-.027 0-.001 0 .019h-1zm.941-.103a.445.445 0 0 1-.013.351c-.018.037-.036.062-.04.068l-.003.004.01-.013-.79-.614a.608.608 0 0 0-.081.127.55.55 0 0 0-.016.436l.933-.36z" fill="#000" mask="url(#g)"/><mask id="h" fill="#fff"><path d="M12.683 10.79c.005.025.015.053-.028.058-.002-.025-.005-.05.028-.058z"/></mask><path d="M12.683 10.79c.005.025.015.053-.028.058-.002-.025-.005-.05.028-.058z" fill="#FEA63B"/><path d="m12.683 10.79.49-.098-.1-.505-.502.116.112.487zm-.028.058-.497.05.05.506.506-.06-.059-.496zm-.462.04c.007.037 0 .004 0-.001-.002-.014-.012-.078.005-.161a.478.478 0 0 1 .399-.374l.117.993a.521.521 0 0 0 .467-.614l-.008-.04-.98.197zm.96-.09v.025a.47.47 0 0 1-.358.454l-.224-.975a.53.53 0 0 0-.417.533c0 .033.004.061.004.063l.995-.1z" fill="#000" mask="url(#h)"/><mask id="i" fill="#fff"><path d="M8.021 16.572c.041 0 .08-.003.12-.003h5.731v1.863c0 .071-.035.107-.104.107H8.425c-.013 0-.028 0-.04-.003-.01-.028-.036-.025-.061-.025a.45.45 0 0 1-.267-.256.366.366 0 0 1-.036-.14v-1.543z"/></mask><path d="M8.021 16.572c.041 0 .08-.003.12-.003h5.731v1.863c0 .071-.035.107-.104.107H8.425c-.013 0-.028 0-.04-.003-.01-.028-.036-.025-.061-.025a.45.45 0 0 1-.267-.256.366.366 0 0 1-.036-.14v-1.543z" fill="#FEBF2E"/><path d="M8.021 16.572v-.5h-.5v.5h.5zm5.851-.003h.5v-.5h-.5v.5zm-5.488 1.967-.47.171.097.264.275.055.098-.49zm-.06-.025-.17.47.082.03h.088v-.5zm-.267-.256-.462.19.004.01.458-.2zm-.036-1.183.076-.002h.044v-1h-.076l-.044.002v1zm.12-.003H13.765v-1H8.141v1zm5.624 0H13.873v-1H13.765v1zm-.393-.5V18.432h1V16.57h-1zm0 1.863c0-.038.01-.16.116-.27a.399.399 0 0 1 .28-.123v1c.115 0 .292-.03.436-.178a.608.608 0 0 0 .168-.429h-1zm.396-.393H8.512v1H13.766v-1zm-5.257 0H8.425v1H8.512v-1zm-.086 0h.002a.26.26 0 0 1 .056.007l-.197.98c.07.015.139.013.14.013v-1zm.43.326a.537.537 0 0 0-.496-.354h-.035v1h.002a.464.464 0 0 1-.412-.303l.94-.343zm-.362-.325.002.001.005.003a.076.076 0 0 1 .012.01c.008.008.008.01.003 0l-.916.4a.95.95 0 0 0 .555.527l.339-.94zm.026.024a.527.527 0 0 1-.007-.017c0-.003 0-.002.001.002a.242.242 0 0 1 .008.066h-1c0 .161.058.291.074.33l.924-.38zm.002.05V16.573h-1V18.115h1z" fill="#000" mask="url(#i)"/><mask id="j" fill="#fff"><path d="M8.322 18.508c.023 0 .049-.002.061.026-.025.002-.048.002-.06-.026z"/></mask><path d="M8.322 18.508c.023 0 .049-.002.061.026-.025.002-.048.002-.06-.026z" fill="#FEA63B"/><path d="M8.322 18.508v-.5h-.776l.321.707.455-.207zm.061.026.05.497.694-.07-.288-.634-.456.207zm-.06.474c.024 0 .005 0 0 0a.46.46 0 0 1-.394-.267l.91-.414a.542.542 0 0 0-.482-.318h-.035v1zm.01-.972h.01a.386.386 0 0 1 .15.018.463.463 0 0 1 .284.247l-.91.414a.54.54 0 0 0 .336.296c.117.035.22.021.23.02l-.1-.995z" fill="#000" mask="url(#j)"/></svg>