<svg width="27" height="27" viewBox="0 0 27 27" fill="none" xmlns="http://www.w3.org/2000/svg">
<g opacity="0.85">
<path d="M13.6504 26.2427C20.5539 26.2427 26.1504 20.6462 26.1504 13.7427C26.1504 6.83912 20.5539 1.24268 13.6504 1.24268C6.74683 1.24268 1.15039 6.83912 1.15039 13.7427C1.15039 20.6462 6.74683 26.2427 13.6504 26.2427Z" fill="#FF4C00"/>
<path d="M13.6502 24.3503C19.5086 24.3503 24.2578 19.6011 24.2578 13.7427C24.2578 7.88423 19.5086 3.13501 13.6502 3.13501C7.7917 3.13501 3.04248 7.88423 3.04248 13.7427C3.04248 19.6011 7.7917 24.3503 13.6502 24.3503Z" fill="#DE3B00"/>
<path d="M19.1987 4.68915C20.2552 6.3383 20.8674 8.30051 20.8674 10.4025C20.8674 16.2612 16.1184 21.0101 10.2597 21.0101C8.22482 21.0101 6.3241 20.4371 4.7085 19.4448C6.59244 22.3882 9.89354 24.3392 13.6474 24.3392C19.5061 24.3392 24.2551 19.5902 24.2551 13.7315C24.2551 9.90773 22.2314 6.55632 19.1959 4.68915H19.1987Z" fill="#C52F05"/>
<path d="M4.89863 14.7126C4.89863 9.54152 9.09139 5.34876 14.2625 5.34876C17.284 5.34876 19.973 6.78269 21.6864 9.00485C20.0708 6.19849 17.0381 4.30896 13.5665 4.30896C8.39539 4.30896 4.20264 8.50171 4.20264 13.6728C4.20264 15.8223 4.92659 17.8012 6.14528 19.3805C5.35425 18.0053 4.90143 16.412 4.90143 14.7126H4.89863Z" fill="#ED7447"/>
</g>
<path d="M21.6811 11.4548C21.0749 11.8482 20.8163 12.4598 20.6088 13.1172C20.3636 13.8878 20.1211 14.6557 19.8301 15.4101C19.4098 16.4932 19.1108 17.5898 19.2482 18.7672C19.3075 19.298 19.1647 19.5512 18.5503 19.5458C14.8457 19.5216 11.1437 19.527 7.43903 19.5431C6.92172 19.5431 6.6927 19.3923 6.7412 18.8507C6.96213 16.4501 5.6527 14.432 5.06265 12.2362C4.98721 11.9533 4.71239 11.8994 4.56151 11.7108C4.21933 11.2851 4.18969 10.8513 4.57498 10.4526C4.91446 10.0996 5.34016 10.0188 5.75239 10.3232C6.18348 10.6412 6.30203 11.0615 6.0326 11.5518C5.67695 12.2039 5.99218 13.0606 6.79509 13.6372C7.51447 14.1545 8.01291 13.7773 8.46017 13.225C8.99364 12.5622 9.30079 11.7835 9.61872 11.0049C9.72919 10.7355 9.68608 10.563 9.52442 10.3367C9.19033 9.8652 9.22266 9.391 9.69955 9.02727C10.101 8.72012 10.5267 8.76322 10.877 9.12157C11.2946 9.54996 11.2892 10.0188 10.8581 10.431C10.6614 10.6196 10.524 10.757 10.6587 11.0507C11.0521 11.8967 11.4293 12.7535 12.1136 13.4136C12.7764 14.0521 13.2641 14.0441 13.8623 13.3786C14.4766 12.6942 14.7595 11.832 15.0989 10.9995C15.231 10.6735 14.9723 10.5711 14.8187 10.3906C14.4685 9.97566 14.4604 9.52571 14.8349 9.13234C15.1744 8.774 15.6001 8.71203 16.0123 9.01379C16.4919 9.36675 16.6078 9.85711 16.2225 10.3017C15.9342 10.6358 16.0069 10.8998 16.1416 11.2097C16.4757 11.9802 16.8071 12.7562 17.3945 13.3759C18.0492 14.0656 18.6905 14.1195 19.3128 13.4163C19.8005 12.8667 20.7166 12.379 19.9002 11.3632C19.6281 11.0237 19.8679 10.5765 20.2451 10.3232C20.8648 9.90561 21.2824 10.2855 21.6865 10.7085V11.4548H21.6811ZM15.5758 11.5033C15.2364 12.1365 14.9508 12.7939 14.5574 13.3813C13.6332 14.7554 12.5178 14.785 11.4455 13.5187C10.9201 12.899 10.5617 12.1634 10.1684 11.3848C8.31737 14.6557 8.22846 14.7176 6.29125 14.1465C6.54452 14.8658 6.81934 15.5744 7.04296 16.2992C7.16421 16.6926 7.36628 16.8354 7.77582 16.8327C11.2622 16.8192 14.7433 16.8246 18.2297 16.8246C18.4776 16.8246 18.7605 16.8623 18.8548 16.5498C19.0919 15.7415 19.5257 14.9871 19.5823 14.0791C17.7771 14.8658 17.3702 14.5964 15.5812 11.5033H15.5758ZM12.9785 18.9639C14.6571 18.9639 16.3383 18.9315 18.0169 18.98C18.6689 18.9989 18.712 18.6998 18.6905 18.2014C18.6716 17.7541 18.7497 17.3796 18.0492 17.3877C14.6894 17.4227 11.3296 17.4227 7.9698 17.3877C7.32048 17.3796 7.30162 17.6706 7.28815 18.1664C7.27467 18.7214 7.3582 19.0016 8.02908 18.98C9.6753 18.9288 11.3269 18.9639 12.9758 18.9639H12.9785Z" fill="#16120B"/>
<path d="M15.5785 11.4979C17.3649 14.5909 17.7744 14.8604 19.5796 14.0736C19.523 14.9816 19.0892 15.7387 18.8521 16.5443C18.7605 16.8569 18.4749 16.8191 18.2271 16.8191C14.7406 16.8191 11.2596 16.8138 7.77314 16.8272C7.3636 16.8272 7.16153 16.6871 7.04029 16.2938C6.81666 15.569 6.54184 14.8604 6.28857 14.141C8.22578 14.7122 8.31469 14.6502 10.1657 11.3793C10.5591 12.1607 10.9174 12.8908 11.4428 13.5132C12.5151 14.7795 13.6306 14.7499 14.5547 13.3758C14.9508 12.7885 15.2364 12.1284 15.5732 11.4979H15.5785Z" fill="#F5D336"/>
<path d="M12.9781 18.9585C11.3292 18.9585 9.67756 18.9235 8.03133 18.9747C7.36315 18.9962 7.27962 18.7187 7.2904 18.161C7.30118 17.6625 7.32004 17.3743 7.97206 17.3823C11.3319 17.4174 14.6917 17.4174 18.0515 17.3823C18.752 17.3743 18.6738 17.7461 18.6927 18.196C18.7143 18.6945 18.6712 18.9935 18.0191 18.9747C16.3406 18.9262 14.6593 18.9585 12.9808 18.9585H12.9781Z" fill="#FBAC3A"/>
<circle cx="13.272" cy="13.7427" r="12" stroke="#FFFEFE" stroke-width="1.75684"/>
<mask id="path-9-inside-1_1189_5548" fill="white">
<path d="M19.9107 15.5913C19.9031 15.5557 19.926 15.5302 19.9412 15.5022C19.954 15.5404 19.9514 15.5709 19.9107 15.5913Z"/>
</mask>
<path d="M19.9107 15.5913C19.9031 15.5557 19.926 15.5302 19.9412 15.5022C19.954 15.5404 19.9514 15.5709 19.9107 15.5913Z" fill="#772A0C"/>
<path d="M19.9107 15.5913L19.4218 15.6961L19.557 16.3271L20.1343 16.0385L19.9107 15.5913ZM19.9412 15.5022L20.4156 15.3441L20.0523 14.2544L19.5023 15.2628L19.9412 15.5022ZM20.3996 15.4865C20.4115 15.5423 20.4118 15.5977 20.4032 15.6489C20.3951 15.6977 20.3802 15.7344 20.3705 15.7553C20.3615 15.7744 20.3535 15.7871 20.3564 15.7823C20.3569 15.7814 20.3574 15.7807 20.3588 15.7784C20.3599 15.7765 20.3617 15.7736 20.3637 15.7704C20.3675 15.764 20.3735 15.7539 20.3802 15.7416L19.5023 15.2628C19.5057 15.2564 19.5112 15.2476 19.5015 15.2635C19.4961 15.2725 19.4799 15.299 19.4643 15.3324C19.4286 15.4089 19.3879 15.5381 19.4218 15.6961L20.3996 15.4865ZM19.4669 15.6603C19.462 15.6455 19.4288 15.5479 19.4641 15.4201C19.5071 15.2649 19.6159 15.1797 19.6871 15.1441L20.1343 16.0385C20.2463 15.9825 20.3767 15.8719 20.4279 15.6867C20.4715 15.5291 20.4333 15.3971 20.4156 15.3441L19.4669 15.6603Z" fill="black" mask="url(#path-9-inside-1_1189_5548)"/>
<mask id="path-11-inside-2_1189_5548" fill="white">
<path d="M19.9482 15.4619C19.9431 15.4339 19.9609 15.4161 19.9762 15.3983C19.9762 15.4237 19.9863 15.4517 19.9482 15.4619Z"/>
</mask>
<path d="M19.9482 15.4619C19.9431 15.4339 19.9609 15.4161 19.9762 15.3983C19.9762 15.4237 19.9863 15.4517 19.9482 15.4619Z" fill="#772A0C"/>
<path d="M19.9482 15.4619L19.4562 15.5513L19.5532 16.0847L20.077 15.945L19.9482 15.4619ZM19.9762 15.3983H20.4762V14.0466L19.5965 15.0729L19.9762 15.3983ZM20.4401 15.3725C20.4501 15.4274 20.4498 15.4851 20.4383 15.542C20.4271 15.5973 20.4074 15.641 20.3903 15.6714C20.374 15.7004 20.3584 15.72 20.3531 15.7266C20.3512 15.7289 20.343 15.7386 20.3558 15.7237L19.5965 15.0729C19.6093 15.058 19.5553 15.116 19.5187 15.1811C19.4681 15.2711 19.4288 15.4003 19.4562 15.5513L20.4401 15.3725ZM19.4762 15.3983C19.4762 15.4228 19.4792 15.4678 19.4779 15.4456C19.4779 15.4449 19.4743 15.399 19.4857 15.3404C19.4991 15.271 19.5341 15.1794 19.6135 15.0993C19.6886 15.0235 19.7701 14.9919 19.8193 14.9788L20.077 15.945C20.1453 15.9268 20.2398 15.8879 20.3238 15.8032C20.412 15.7142 20.4516 15.612 20.4673 15.5312C20.4809 15.4611 20.4771 15.4028 20.4764 15.3894C20.4744 15.3545 20.4762 15.3865 20.4762 15.3983H19.4762Z" fill="black" mask="url(#path-11-inside-2_1189_5548)"/>
<mask id="path-13-inside-3_1189_5548" fill="white">
<path d="M10.6766 13.1646C10.6766 13.1646 10.6741 13.1849 10.669 13.1875C10.5726 13.223 10.4812 13.2712 10.3797 13.2941C10.3746 13.2941 10.367 13.2941 10.3594 13.2941C10.4609 13.2433 10.565 13.1951 10.6741 13.1671L10.6766 13.1646Z"/>
</mask>
<path d="M10.6766 13.1646C10.6766 13.1646 10.6741 13.1849 10.669 13.1875C10.5726 13.223 10.4812 13.2712 10.3797 13.2941C10.3746 13.2941 10.367 13.2941 10.3594 13.2941C10.4609 13.2433 10.565 13.1951 10.6741 13.1671L10.6766 13.1646Z" fill="#FEF67F"/>
<path d="M10.6766 13.1646L11.1728 13.2266L11.3535 11.781L10.3232 12.811L10.6766 13.1646ZM10.669 13.1875L10.8419 13.6566L10.8679 13.6471L10.8926 13.6347L10.669 13.1875ZM10.3797 13.2941V13.7941H10.4352L10.4894 13.7819L10.3797 13.2941ZM10.3594 13.2941L10.1358 12.8468L10.3594 13.7941V13.2941ZM10.6741 13.1671L10.798 13.6516L10.9307 13.6176L11.0276 13.5208L10.6741 13.1671ZM10.6766 13.1646C10.1805 13.1026 10.1805 13.1025 10.1805 13.1025C10.1805 13.1024 10.1805 13.1024 10.1805 13.1024C10.1805 13.1023 10.1806 13.1022 10.1806 13.1021C10.1806 13.102 10.1806 13.1018 10.1806 13.1017C10.1807 13.1014 10.1807 13.1011 10.1807 13.1008C10.1808 13.1002 10.1809 13.0996 10.181 13.099C10.1811 13.0978 10.1813 13.0966 10.1815 13.0954C10.1818 13.0929 10.1822 13.0902 10.1827 13.0872C10.1835 13.0821 10.1852 13.0727 10.188 13.0605C10.1901 13.052 10.1968 13.0239 10.2115 12.9888C10.2189 12.9713 10.234 12.938 10.2604 12.9002C10.2831 12.8676 10.3405 12.7927 10.4454 12.7402L10.8926 13.6347C10.9989 13.5816 11.0574 13.5055 11.0813 13.4713C11.1087 13.4319 11.1249 13.3966 11.1332 13.3769C11.1499 13.3372 11.1582 13.3036 11.1614 13.2896C11.1656 13.2721 11.1682 13.2574 11.1696 13.2484C11.1704 13.2435 11.1711 13.2392 11.1716 13.2356C11.1718 13.2338 11.1721 13.2322 11.1723 13.2307C11.1724 13.2299 11.1725 13.2292 11.1725 13.2285C11.1726 13.2282 11.1726 13.2279 11.1727 13.2276C11.1727 13.2274 11.1727 13.2273 11.1727 13.2271C11.1727 13.227 11.1727 13.2269 11.1728 13.2269C11.1728 13.2268 11.1728 13.2268 11.1728 13.2268C11.1728 13.2267 11.1728 13.2266 10.6766 13.1646ZM10.4962 12.7183C10.4389 12.7394 10.3637 12.7719 10.3379 12.7823C10.2985 12.7984 10.2803 12.8039 10.2699 12.8063L10.4894 13.7819C10.5806 13.7614 10.6588 13.7314 10.7146 13.7087C10.784 13.6805 10.8028 13.671 10.8419 13.6566L10.4962 12.7183ZM10.3797 12.7941C10.3797 12.7941 10.3797 12.7941 10.3797 12.7941C10.3796 12.7941 10.3796 12.7941 10.3796 12.7941C10.3796 12.7941 10.3796 12.7941 10.3796 12.7941C10.3796 12.7941 10.3796 12.7941 10.3796 12.7941C10.3796 12.7941 10.3795 12.7941 10.3795 12.7941C10.3795 12.7941 10.3795 12.7941 10.3795 12.7941C10.3795 12.7941 10.3795 12.7941 10.3795 12.7941C10.3795 12.7941 10.3795 12.7941 10.3794 12.7941C10.3794 12.7941 10.3794 12.7941 10.3794 12.7941C10.3794 12.7941 10.3794 12.7941 10.3794 12.7941C10.3794 12.7941 10.3794 12.7941 10.3793 12.7941C10.3793 12.7941 10.3793 12.7941 10.3793 12.7941C10.3793 12.7941 10.3793 12.7941 10.3793 12.7941C10.3793 12.7941 10.3793 12.7941 10.3793 12.7941C10.3792 12.7941 10.3792 12.7941 10.3792 12.7941C10.3792 12.7941 10.3792 12.7941 10.3792 12.7941C10.3792 12.7941 10.3792 12.7941 10.3792 12.7941C10.3792 12.7941 10.3791 12.7941 10.3791 12.7941C10.3791 12.7941 10.3791 12.7941 10.3791 12.7941C10.3791 12.7941 10.3791 12.7941 10.3791 12.7941C10.3791 12.7941 10.3791 12.7941 10.379 12.7941C10.379 12.7941 10.379 12.7941 10.379 12.7941C10.379 12.7941 10.379 12.7941 10.379 12.7941C10.379 12.7941 10.379 12.7941 10.3789 12.7941C10.3789 12.7941 10.3789 12.7941 10.3789 12.7941C10.3789 12.7941 10.3789 12.7941 10.3789 12.7941C10.3789 12.7941 10.3789 12.7941 10.3789 12.7941C10.3788 12.7941 10.3788 12.7941 10.3788 12.7941C10.3788 12.7941 10.3788 12.7941 10.3788 12.7941C10.3788 12.7941 10.3788 12.7941 10.3788 12.7941C10.3788 12.7941 10.3787 12.7941 10.3787 12.7941C10.3787 12.7941 10.3787 12.7941 10.3787 12.7941C10.3787 12.7941 10.3787 12.7941 10.3787 12.7941C10.3787 12.7941 10.3786 12.7941 10.3786 12.7941C10.3786 12.7941 10.3786 12.7941 10.3786 12.7941C10.3786 12.7941 10.3786 12.7941 10.3786 12.7941C10.3786 12.7941 10.3786 12.7941 10.3785 12.7941C10.3785 12.7941 10.3785 12.7941 10.3785 12.7941C10.3785 12.7941 10.3785 12.7941 10.3785 12.7941C10.3785 12.7941 10.3785 12.7941 10.3784 12.7941C10.3784 12.7941 10.3784 12.7941 10.3784 12.7941C10.3784 12.7941 10.3784 12.7941 10.3784 12.7941C10.3784 12.7941 10.3784 12.7941 10.3783 12.7941C10.3783 12.7941 10.3783 12.7941 10.3783 12.7941C10.3783 12.7941 10.3783 12.7941 10.3783 12.7941C10.3783 12.7941 10.3783 12.7941 10.3783 12.7941C10.3782 12.7941 10.3782 12.7941 10.3782 12.7941C10.3782 12.7941 10.3782 12.7941 10.3782 12.7941C10.3782 12.7941 10.3782 12.7941 10.3782 12.7941C10.3781 12.7941 10.3781 12.7941 10.3781 12.7941C10.3781 12.7941 10.3781 12.7941 10.3781 12.7941C10.3781 12.7941 10.3781 12.7941 10.3781 12.7941C10.378 12.7941 10.378 12.7941 10.378 12.7941C10.378 12.7941 10.378 12.7941 10.378 12.7941C10.378 12.7941 10.378 12.7941 10.378 12.7941C10.3779 12.7941 10.3779 12.7941 10.3779 12.7941C10.3779 12.7941 10.3779 12.7941 10.3779 12.7941C10.3779 12.7941 10.3779 12.7941 10.3779 12.7941C10.3778 12.7941 10.3778 12.7941 10.3778 12.7941C10.3778 12.7941 10.3778 12.7941 10.3778 12.7941C10.3778 12.7941 10.3778 12.7941 10.3778 12.7941C10.3778 12.7941 10.3777 12.7941 10.3777 12.7941C10.3777 12.7941 10.3777 12.7941 10.3777 12.7941C10.3777 12.7941 10.3777 12.7941 10.3777 12.7941C10.3777 12.7941 10.3776 12.7941 10.3776 12.7941C10.3776 12.7941 10.3776 12.7941 10.3776 12.7941C10.3776 12.7941 10.3776 12.7941 10.3776 12.7941C10.3776 12.7941 10.3775 12.7941 10.3775 12.7941C10.3775 12.7941 10.3775 12.7941 10.3775 12.7941C10.3775 12.7941 10.3775 12.7941 10.3775 12.7941C10.3775 12.7941 10.3774 12.7941 10.3774 12.7941C10.3774 12.7941 10.3774 12.7941 10.3774 12.7941C10.3774 12.7941 10.3774 12.7941 10.3774 12.7941C10.3773 12.7941 10.3773 12.7941 10.3773 12.7941C10.3773 12.7941 10.3773 12.7941 10.3773 12.7941C10.3773 12.7941 10.3773 12.7941 10.3773 12.7941C10.3772 12.7941 10.3772 12.7941 10.3772 12.7941C10.3772 12.7941 10.3772 12.7941 10.3772 12.7941C10.3772 12.7941 10.3772 12.7941 10.3772 12.7941C10.3771 12.7941 10.3771 12.7941 10.3771 12.7941C10.3771 12.7941 10.3771 12.7941 10.3771 12.7941C10.3771 12.7941 10.3771 12.7941 10.3771 12.7941C10.377 12.7941 10.377 12.7941 10.377 12.7941C10.377 12.7941 10.377 12.7941 10.377 12.7941C10.377 12.7941 10.377 12.7941 10.377 12.7941C10.3769 12.7941 10.3769 12.7941 10.3769 12.7941C10.3769 12.7941 10.3769 12.7941 10.3769 12.7941C10.3769 12.7941 10.3769 12.7941 10.3769 12.7941C10.3768 12.7941 10.3768 12.7941 10.3768 12.7941C10.3768 12.7941 10.3768 12.7941 10.3768 12.7941C10.3768 12.7941 10.3768 12.7941 10.3767 12.7941C10.3767 12.7941 10.3767 12.7941 10.3767 12.7941C10.3767 12.7941 10.3767 12.7941 10.3767 12.7941C10.3767 12.7941 10.3767 12.7941 10.3766 12.7941C10.3766 12.7941 10.3766 12.7941 10.3766 12.7941C10.3766 12.7941 10.3766 12.7941 10.3766 12.7941C10.3766 12.7941 10.3766 12.7941 10.3765 12.7941C10.3765 12.7941 10.3765 12.7941 10.3765 12.7941C10.3765 12.7941 10.3765 12.7941 10.3765 12.7941C10.3765 12.7941 10.3764 12.7941 10.3764 12.7941C10.3764 12.7941 10.3764 12.7941 10.3764 12.7941C10.3764 12.7941 10.3764 12.7941 10.3764 12.7941C10.3764 12.7941 10.3763 12.7941 10.3763 12.7941C10.3763 12.7941 10.3763 12.7941 10.3763 12.7941C10.3763 12.7941 10.3763 12.7941 10.3763 12.7941C10.3762 12.7941 10.3762 12.7941 10.3762 12.7941C10.3762 12.7941 10.3762 12.7941 10.3762 12.7941C10.3762 12.7941 10.3762 12.7941 10.3762 12.7941C10.3761 12.7941 10.3761 12.7941 10.3761 12.7941C10.3761 12.7941 10.3761 12.7941 10.3761 12.7941C10.3761 12.7941 10.3761 12.7941 10.376 12.7941C10.376 12.7941 10.376 12.7941 10.376 12.7941C10.376 12.7941 10.376 12.7941 10.376 12.7941C10.376 12.7941 10.376 12.7941 10.3759 12.7941C10.3759 12.7941 10.3759 12.7941 10.3759 12.7941C10.3759 12.7941 10.3759 12.7941 10.3759 12.7941C10.3759 12.7941 10.3758 12.7941 10.3758 12.7941C10.3758 12.7941 10.3758 12.7941 10.3758 12.7941C10.3758 12.7941 10.3758 12.7941 10.3758 12.7941C10.3757 12.7941 10.3757 12.7941 10.3757 12.7941C10.3757 12.7941 10.3757 12.7941 10.3757 12.7941C10.3757 12.7941 10.3757 12.7941 10.3757 12.7941C10.3756 12.7941 10.3756 12.7941 10.3756 12.7941C10.3756 12.7941 10.3756 12.7941 10.3756 12.7941C10.3756 12.7941 10.3756 12.7941 10.3755 12.7941C10.3755 12.7941 10.3755 12.7941 10.3755 12.7941C10.3755 12.7941 10.3755 12.7941 10.3755 12.7941C10.3755 12.7941 10.3754 12.7941 10.3754 12.7941C10.3754 12.7941 10.3754 12.7941 10.3754 12.7941C10.3754 12.7941 10.3754 12.7941 10.3754 12.7941C10.3754 12.7941 10.3753 12.7941 10.3753 12.7941C10.3753 12.7941 10.3753 12.7941 10.3753 12.7941C10.3753 12.7941 10.3753 12.7941 10.3753 12.7941C10.3752 12.7941 10.3752 12.7941 10.3752 12.7941C10.3752 12.7941 10.3752 12.7941 10.3752 12.7941C10.3752 12.7941 10.3752 12.7941 10.3751 12.7941C10.3751 12.7941 10.3751 12.7941 10.3751 12.7941C10.3751 12.7941 10.3751 12.7941 10.3751 12.7941C10.3751 12.7941 10.375 12.7941 10.375 12.7941C10.375 12.7941 10.375 12.7941 10.375 12.7941C10.375 12.7941 10.375 12.7941 10.375 12.7941C10.3749 12.7941 10.3749 12.7941 10.3749 12.7941C10.3749 12.7941 10.3749 12.7941 10.3749 12.7941C10.3749 12.7941 10.3749 12.7941 10.3749 12.7941C10.3748 12.7941 10.3748 12.7941 10.3748 12.7941C10.3748 12.7941 10.3748 12.7941 10.3748 12.7941C10.3748 12.7941 10.3748 12.7941 10.3747 12.7941C10.3747 12.7941 10.3747 12.7941 10.3747 12.7941C10.3747 12.7941 10.3747 12.7941 10.3747 12.7941C10.3747 12.7941 10.3746 12.7941 10.3746 12.7941C10.3746 12.7941 10.3746 12.7941 10.3746 12.7941C10.3746 12.7941 10.3746 12.7941 10.3746 12.7941C10.3745 12.7941 10.3745 12.7941 10.3745 12.7941C10.3745 12.7941 10.3745 12.7941 10.3745 12.7941C10.3745 12.7941 10.3745 12.7941 10.3744 12.7941C10.3744 12.7941 10.3744 12.7941 10.3744 12.7941C10.3744 12.7941 10.3744 12.7941 10.3744 12.7941C10.3744 12.7941 10.3743 12.7941 10.3743 12.7941C10.3743 12.7941 10.3743 12.7941 10.3743 12.7941C10.3743 12.7941 10.3743 12.7941 10.3743 12.7941C10.3742 12.7941 10.3742 12.7941 10.3742 12.7941C10.3742 12.7941 10.3742 12.7941 10.3742 12.7941C10.3742 12.7941 10.3742 12.7941 10.3741 12.7941C10.3741 12.7941 10.3741 12.7941 10.3741 12.7941C10.3741 12.7941 10.3741 12.7941 10.3741 12.7941C10.3741 12.7941 10.374 12.7941 10.374 12.7941C10.374 12.7941 10.374 12.7941 10.374 12.7941C10.374 12.7941 10.374 12.7941 10.374 12.7941C10.3739 12.7941 10.3739 12.7941 10.3739 12.7941C10.3739 12.7941 10.3739 12.7941 10.3739 12.7941C10.3739 12.7941 10.3739 12.7941 10.3738 12.7941C10.3738 12.7941 10.3738 12.7941 10.3738 12.7941C10.3738 12.7941 10.3738 12.7941 10.3738 12.7941C10.3738 12.7941 10.3737 12.7941 10.3737 12.7941C10.3737 12.7941 10.3737 12.7941 10.3737 12.7941C10.3737 12.7941 10.3737 12.7941 10.3736 12.7941C10.3736 12.7941 10.3736 12.7941 10.3736 12.7941C10.3736 12.7941 10.3736 12.7941 10.3736 12.7941C10.3736 12.7941 10.3735 12.7941 10.3735 12.7941C10.3735 12.7941 10.3735 12.7941 10.3735 12.7941C10.3735 12.7941 10.3735 12.7941 10.3735 12.7941C10.3734 12.7941 10.3734 12.7941 10.3734 12.7941C10.3734 12.7941 10.3734 12.7941 10.3734 12.7941C10.3734 12.7941 10.3734 12.7941 10.3733 12.7941C10.3733 12.7941 10.3733 12.7941 10.3733 12.7941C10.3733 12.7941 10.3733 12.7941 10.3733 12.7941C10.3733 12.7941 10.3732 12.7941 10.3732 12.7941C10.3732 12.7941 10.3732 12.7941 10.3732 12.7941C10.3732 12.7941 10.3732 12.7941 10.3731 12.7941C10.3731 12.7941 10.3731 12.7941 10.3731 12.7941C10.3731 12.7941 10.3731 12.7941 10.3731 12.7941C10.3731 12.7941 10.373 12.7941 10.373 12.7941C10.373 12.7941 10.373 12.7941 10.373 12.7941C10.373 12.7941 10.373 12.7941 10.373 12.7941C10.3729 12.7941 10.3729 12.7941 10.3729 12.7941C10.3729 12.7941 10.3729 12.7941 10.3729 12.7941C10.3729 12.7941 10.3729 12.7941 10.3728 12.7941C10.3728 12.7941 10.3728 12.7941 10.3728 12.7941C10.3728 12.7941 10.3728 12.7941 10.3728 12.7941C10.3727 12.7941 10.3727 12.7941 10.3727 12.7941C10.3727 12.7941 10.3727 12.7941 10.3727 12.7941C10.3727 12.7941 10.3727 12.7941 10.3726 12.7941C10.3726 12.7941 10.3726 12.7941 10.3726 12.7941C10.3726 12.7941 10.3726 12.7941 10.3726 12.7941C10.3726 12.7941 10.3725 12.7941 10.3725 12.7941C10.3725 12.7941 10.3725 12.7941 10.3725 12.7941C10.3725 12.7941 10.3725 12.7941 10.3724 12.7941C10.3724 12.7941 10.3724 12.7941 10.3724 12.7941C10.3724 12.7941 10.3724 12.7941 10.3724 12.7941C10.3724 12.7941 10.3723 12.7941 10.3723 12.7941C10.3723 12.7941 10.3723 12.7941 10.3723 12.7941C10.3723 12.7941 10.3723 12.7941 10.3722 12.7941C10.3722 12.7941 10.3722 12.7941 10.3722 12.7941C10.3722 12.7941 10.3722 12.7941 10.3722 12.7941C10.3722 12.7941 10.3721 12.7941 10.3721 12.7941C10.3721 12.7941 10.3721 12.7941 10.3721 12.7941C10.3721 12.7941 10.3721 12.7941 10.3721 12.7941C10.372 12.7941 10.372 12.7941 10.372 12.7941C10.372 12.7941 10.372 12.7941 10.372 12.7941C10.372 12.7941 10.3719 12.7941 10.3719 12.7941C10.3719 12.7941 10.3719 12.7941 10.3719 12.7941C10.3719 12.7941 10.3719 12.7941 10.3719 12.7941C10.3718 12.7941 10.3718 12.7941 10.3718 12.7941C10.3718 12.7941 10.3718 12.7941 10.3718 12.7941C10.3718 12.7941 10.3717 12.7941 10.3717 12.7941C10.3717 12.7941 10.3717 12.7941 10.3717 12.7941C10.3717 12.7941 10.3717 12.7941 10.3717 12.7941C10.3716 12.7941 10.3716 12.7941 10.3716 12.7941C10.3716 12.7941 10.3716 12.7941 10.3716 12.7941C10.3716 12.7941 10.3715 12.7941 10.3715 12.7941C10.3715 12.7941 10.3715 12.7941 10.3715 12.7941C10.3715 12.7941 10.3715 12.7941 10.3715 12.7941C10.3714 12.7941 10.3714 12.7941 10.3714 12.7941C10.3714 12.7941 10.3714 12.7941 10.3714 12.7941C10.3714 12.7941 10.3713 12.7941 10.3713 12.7941C10.3713 12.7941 10.3713 12.7941 10.3713 12.7941C10.3713 12.7941 10.3713 12.7941 10.3713 12.7941C10.3712 12.7941 10.3712 12.7941 10.3712 12.7941C10.3712 12.7941 10.3712 12.7941 10.3712 12.7941C10.3712 12.7941 10.3711 12.7941 10.3711 12.7941C10.3711 12.7941 10.3711 12.7941 10.3711 12.7941C10.3711 12.7941 10.3711 12.7941 10.371 12.7941C10.371 12.7941 10.371 12.7941 10.371 12.7941C10.371 12.7941 10.371 12.7941 10.371 12.7941C10.371 12.7941 10.3709 12.7941 10.3709 12.7941C10.3709 12.7941 10.3709 12.7941 10.3709 12.7941C10.3709 12.7941 10.3709 12.7941 10.3708 12.7941C10.3708 12.7941 10.3708 12.7941 10.3708 12.7941C10.3708 12.7941 10.3708 12.7941 10.3708 12.7941C10.3708 12.7941 10.3707 12.7941 10.3707 12.7941C10.3707 12.7941 10.3707 12.7941 10.3707 12.7941C10.3707 12.7941 10.3707 12.7941 10.3706 12.7941C10.3706 12.7941 10.3706 12.7941 10.3706 12.7941C10.3706 12.7941 10.3706 12.7941 10.3706 12.7941C10.3705 12.7941 10.3705 12.7941 10.3705 12.7941C10.3705 12.7941 10.3705 12.7941 10.3705 12.7941C10.3705 12.7941 10.3705 12.7941 10.3704 12.7941C10.3704 12.7941 10.3704 12.7941 10.3704 12.7941C10.3704 12.7941 10.3704 12.7941 10.3704 12.7941C10.3703 12.7941 10.3703 12.7941 10.3703 12.7941C10.3703 12.7941 10.3703 12.7941 10.3703 12.7941C10.3703 12.7941 10.3702 12.7941 10.3702 12.7941C10.3702 12.7941 10.3702 12.7941 10.3702 12.7941C10.3702 12.7941 10.3702 12.7941 10.3702 12.7941C10.3701 12.7941 10.3701 12.7941 10.3701 12.7941C10.3701 12.7941 10.3701 12.7941 10.3701 12.7941C10.3701 12.7941 10.37 12.7941 10.37 12.7941C10.37 12.7941 10.37 12.7941 10.37 12.7941C10.37 12.7941 10.37 12.7941 10.3699 12.7941C10.3699 12.7941 10.3699 12.7941 10.3699 12.7941C10.3699 12.7941 10.3699 12.7941 10.3699 12.7941C10.3698 12.7941 10.3698 12.7941 10.3698 12.7941C10.3698 12.7941 10.3698 12.7941 10.3698 12.7941C10.3698 12.7941 10.3698 12.7941 10.3697 12.7941C10.3697 12.7941 10.3697 12.7941 10.3697 12.7941C10.3697 12.7941 10.3697 12.7941 10.3697 12.7941C10.3696 12.7941 10.3696 12.7941 10.3696 12.7941C10.3696 12.7941 10.3696 12.7941 10.3696 12.7941C10.3696 12.7941 10.3695 12.7941 10.3695 12.7941C10.3695 12.7941 10.3695 12.7941 10.3695 12.7941C10.3695 12.7941 10.3695 12.7941 10.3694 12.7941C10.3694 12.7941 10.3694 12.7941 10.3694 12.7941C10.3694 12.7941 10.3694 12.7941 10.3694 12.7941C10.3694 12.7941 10.3693 12.7941 10.3693 12.7941C10.3693 12.7941 10.3693 12.7941 10.3693 12.7941C10.3693 12.7941 10.3693 12.7941 10.3692 12.7941C10.3692 12.7941 10.3692 12.7941 10.3692 12.7941C10.3692 12.7941 10.3692 12.7941 10.3692 12.7941C10.3691 12.7941 10.3691 12.7941 10.3691 12.7941C10.3691 12.7941 10.3691 12.7941 10.3691 12.7941C10.3691 12.7941 10.369 12.7941 10.369 12.7941C10.369 12.7941 10.369 12.7941 10.369 12.7941C10.369 12.7941 10.369 12.7941 10.3689 12.7941C10.3689 12.7941 10.3689 12.7941 10.3689 12.7941C10.3689 12.7941 10.3689 12.7941 10.3689 12.7941C10.3688 12.7941 10.3688 12.7941 10.3688 12.7941C10.3688 12.7941 10.3688 12.7941 10.3688 12.7941C10.3688 12.7941 10.3688 12.7941 10.3687 12.7941C10.3687 12.7941 10.3687 12.7941 10.3687 12.7941C10.3687 12.7941 10.3687 12.7941 10.3687 12.7941C10.3686 12.7941 10.3686 12.7941 10.3686 12.7941C10.3686 12.7941 10.3686 12.7941 10.3686 12.7941C10.3686 12.7941 10.3685 12.7941 10.3685 12.7941C10.3685 12.7941 10.3685 12.7941 10.3685 12.7941C10.3685 12.7941 10.3685 12.7941 10.3684 12.7941C10.3684 12.7941 10.3684 12.7941 10.3684 12.7941C10.3684 12.7941 10.3684 12.7941 10.3684 12.7941C10.3683 12.7941 10.3683 12.7941 10.3683 12.7941C10.3683 12.7941 10.3683 12.7941 10.3683 12.7941C10.3683 12.7941 10.3682 12.7941 10.3682 12.7941C10.3682 12.7941 10.3682 12.7941 10.3682 12.7941C10.3682 12.7941 10.3682 12.7941 10.3681 12.7941C10.3681 12.7941 10.3681 12.7941 10.3681 12.7941C10.3681 12.7941 10.3681 12.7941 10.3681 12.7941C10.368 12.7941 10.368 12.7941 10.368 12.7941C10.368 12.7941 10.368 12.7941 10.368 12.7941C10.368 12.7941 10.3679 12.7941 10.3679 12.7941C10.3679 12.7941 10.3679 12.7941 10.3679 12.7941C10.3679 12.7941 10.3679 12.7941 10.3678 12.7941C10.3678 12.7941 10.3678 12.7941 10.3678 12.7941C10.3678 12.7941 10.3678 12.7941 10.3678 12.7941C10.3678 12.7941 10.3677 12.7941 10.3677 12.7941C10.3677 12.7941 10.3677 12.7941 10.3677 12.7941C10.3677 12.7941 10.3677 12.7941 10.3676 12.7941C10.3676 12.7941 10.3676 12.7941 10.3676 12.7941C10.3676 12.7941 10.3676 12.7941 10.3676 12.7941C10.3675 12.7941 10.3675 12.7941 10.3675 12.7941C10.3675 12.7941 10.3675 12.7941 10.3675 12.7941C10.3675 12.7941 10.3674 12.7941 10.3674 12.7941C10.3674 12.7941 10.3674 12.7941 10.3674 12.7941C10.3674 12.7941 10.3674 12.7941 10.3673 12.7941C10.3673 12.7941 10.3673 12.7941 10.3673 12.7941C10.3673 12.7941 10.3673 12.7941 10.3673 12.7941C10.3672 12.7941 10.3672 12.7941 10.3672 12.7941C10.3672 12.7941 10.3672 12.7941 10.3672 12.7941C10.3672 12.7941 10.3671 12.7941 10.3671 12.7941C10.3671 12.7941 10.3671 12.7941 10.3671 12.7941C10.3671 12.7941 10.3671 12.7941 10.367 12.7941C10.367 12.7941 10.367 12.7941 10.367 12.7941C10.367 12.7941 10.367 12.7941 10.367 12.7941C10.3669 12.7941 10.3669 12.7941 10.3669 12.7941C10.3669 12.7941 10.3669 12.7941 10.3669 12.7941C10.3669 12.7941 10.3668 12.7941 10.3668 12.7941C10.3668 12.7941 10.3668 12.7941 10.3668 12.7941C10.3668 12.7941 10.3668 12.7941 10.3667 12.7941C10.3667 12.7941 10.3667 12.7941 10.3667 12.7941C10.3667 12.7941 10.3667 12.7941 10.3667 12.7941C10.3666 12.7941 10.3666 12.7941 10.3666 12.7941C10.3666 12.7941 10.3666 12.7941 10.3666 12.7941C10.3666 12.7941 10.3665 12.7941 10.3665 12.7941C10.3665 12.7941 10.3665 12.7941 10.3665 12.7941C10.3665 12.7941 10.3665 12.7941 10.3664 12.7941C10.3664 12.7941 10.3664 12.7941 10.3664 12.7941C10.3664 12.7941 10.3664 12.7941 10.3663 12.7941C10.3663 12.7941 10.3663 12.7941 10.3663 12.7941C10.3663 12.7941 10.3663 12.7941 10.3663 12.7941C10.3662 12.7941 10.3662 12.7941 10.3662 12.7941C10.3662 12.7941 10.3662 12.7941 10.3662 12.7941C10.3662 12.7941 10.3661 12.7941 10.3661 12.7941C10.3661 12.7941 10.3661 12.7941 10.3661 12.7941C10.3661 12.7941 10.3661 12.7941 10.366 12.7941C10.366 12.7941 10.366 12.7941 10.366 12.7941C10.366 12.7941 10.366 12.7941 10.366 12.7941C10.3659 12.7941 10.3659 12.7941 10.3659 12.7941C10.3659 12.7941 10.3659 12.7941 10.3659 12.7941C10.3659 12.7941 10.3658 12.7941 10.3658 12.7941C10.3658 12.7941 10.3658 12.7941 10.3658 12.7941C10.3658 12.7941 10.3658 12.7941 10.3657 12.7941C10.3657 12.7941 10.3657 12.7941 10.3657 12.7941C10.3657 12.7941 10.3657 12.7941 10.3657 12.7941C10.3656 12.7941 10.3656 12.7941 10.3656 12.7941C10.3656 12.7941 10.3656 12.7941 10.3656 12.7941C10.3656 12.7941 10.3655 12.7941 10.3655 12.7941C10.3655 12.7941 10.3655 12.7941 10.3655 12.7941C10.3655 12.7941 10.3655 12.7941 10.3654 12.7941C10.3654 12.7941 10.3654 12.7941 10.3654 12.7941C10.3654 12.7941 10.3654 12.7941 10.3654 12.7941C10.3653 12.7941 10.3653 12.7941 10.3653 12.7941C10.3653 12.7941 10.3653 12.7941 10.3653 12.7941C10.3652 12.7941 10.3652 12.7941 10.3652 12.7941C10.3652 12.7941 10.3652 12.7941 10.3652 12.7941C10.3652 12.7941 10.3651 12.7941 10.3651 12.7941C10.3651 12.7941 10.3651 12.7941 10.3651 12.7941C10.3651 12.7941 10.3651 12.7941 10.365 12.7941C10.365 12.7941 10.365 12.7941 10.365 12.7941C10.365 12.7941 10.365 12.7941 10.365 12.7941C10.3649 12.7941 10.3649 12.7941 10.3649 12.7941C10.3649 12.7941 10.3649 12.7941 10.3649 12.7941C10.3649 12.7941 10.3648 12.7941 10.3648 12.7941C10.3648 12.7941 10.3648 12.7941 10.3648 12.7941C10.3648 12.7941 10.3648 12.7941 10.3647 12.7941C10.3647 12.7941 10.3647 12.7941 10.3647 12.7941C10.3647 12.7941 10.3647 12.7941 10.3647 12.7941C10.3646 12.7941 10.3646 12.7941 10.3646 12.7941C10.3646 12.7941 10.3646 12.7941 10.3646 12.7941C10.3646 12.7941 10.3645 12.7941 10.3645 12.7941C10.3645 12.7941 10.3645 12.7941 10.3645 12.7941C10.3645 12.7941 10.3644 12.7941 10.3644 12.7941C10.3644 12.7941 10.3644 12.7941 10.3644 12.7941C10.3644 12.7941 10.3644 12.7941 10.3643 12.7941C10.3643 12.7941 10.3643 12.7941 10.3643 12.7941C10.3643 12.7941 10.3643 12.7941 10.3643 12.7941C10.3642 12.7941 10.3642 12.7941 10.3642 12.7941C10.3642 12.7941 10.3642 12.7941 10.3642 12.7941C10.3642 12.7941 10.3641 12.7941 10.3641 12.7941C10.3641 12.7941 10.3641 12.7941 10.3641 12.7941C10.3641 12.7941 10.3641 12.7941 10.364 12.7941C10.364 12.7941 10.364 12.7941 10.364 12.7941C10.364 12.7941 10.364 12.7941 10.3639 12.7941C10.3639 12.7941 10.3639 12.7941 10.3639 12.7941C10.3639 12.7941 10.3639 12.7941 10.3639 12.7941C10.3638 12.7941 10.3638 12.7941 10.3638 12.7941C10.3638 12.7941 10.3638 12.7941 10.3638 12.7941C10.3638 12.7941 10.3637 12.7941 10.3637 12.7941C10.3637 12.7941 10.3637 12.7941 10.3637 12.7941C10.3637 12.7941 10.3637 12.7941 10.3636 12.7941C10.3636 12.7941 10.3636 12.7941 10.3636 12.7941C10.3636 12.7941 10.3636 12.7941 10.3636 12.7941C10.3635 12.7941 10.3635 12.7941 10.3635 12.7941C10.3635 12.7941 10.3635 12.7941 10.3635 12.7941C10.3635 12.7941 10.3634 12.7941 10.3634 12.7941C10.3634 12.7941 10.3634 12.7941 10.3634 12.7941C10.3634 12.7941 10.3633 12.7941 10.3633 12.7941C10.3633 12.7941 10.3633 12.7941 10.3633 12.7941C10.3633 12.7941 10.3633 12.7941 10.3632 12.7941C10.3632 12.7941 10.3632 12.7941 10.3632 12.7941C10.3632 12.7941 10.3632 12.7941 10.3632 12.7941C10.3631 12.7941 10.3631 12.7941 10.3631 12.7941C10.3631 12.7941 10.3631 12.7941 10.3631 12.7941C10.3631 12.7941 10.363 12.7941 10.363 12.7941C10.363 12.7941 10.363 12.7941 10.363 12.7941C10.363 12.7941 10.3629 12.7941 10.3629 12.7941C10.3629 12.7941 10.3629 12.7941 10.3629 12.7941C10.3629 12.7941 10.3629 12.7941 10.3628 12.7941C10.3628 12.7941 10.3628 12.7941 10.3628 12.7941C10.3628 12.7941 10.3628 12.7941 10.3628 12.7941C10.3627 12.7941 10.3627 12.7941 10.3627 12.7941C10.3627 12.7941 10.3627 12.7941 10.3627 12.7941C10.3627 12.7941 10.3626 12.7941 10.3626 12.7941C10.3626 12.7941 10.3626 12.7941 10.3626 12.7941C10.3626 12.7941 10.3626 12.7941 10.3625 12.7941C10.3625 12.7941 10.3625 12.7941 10.3625 12.7941C10.3625 12.7941 10.3625 12.7941 10.3624 12.7941C10.3624 12.7941 10.3624 12.7941 10.3624 12.7941C10.3624 12.7941 10.3624 12.7941 10.3624 12.7941C10.3623 12.7941 10.3623 12.7941 10.3623 12.7941C10.3623 12.7941 10.3623 12.7941 10.3623 12.7941C10.3623 12.7941 10.3622 12.7941 10.3622 12.7941C10.3622 12.7941 10.3622 12.7941 10.3622 12.7941C10.3622 12.7941 10.3622 12.7941 10.3621 12.7941C10.3621 12.7941 10.3621 12.7941 10.3621 12.7941C10.3621 12.7941 10.3621 12.7941 10.362 12.7941C10.362 12.7941 10.362 12.7941 10.362 12.7941C10.362 12.7941 10.362 12.7941 10.362 12.7941C10.3619 12.7941 10.3619 12.7941 10.3619 12.7941C10.3619 12.7941 10.3619 12.7941 10.3619 12.7941C10.3619 12.7941 10.3618 12.7941 10.3618 12.7941C10.3618 12.7941 10.3618 12.7941 10.3618 12.7941C10.3618 12.7941 10.3618 12.7941 10.3617 12.7941C10.3617 12.7941 10.3617 12.7941 10.3617 12.7941C10.3617 12.7941 10.3617 12.7941 10.3616 12.7941C10.3616 12.7941 10.3616 12.7941 10.3616 12.7941C10.3616 12.7941 10.3616 12.7941 10.3616 12.7941C10.3615 12.7941 10.3615 12.7941 10.3615 12.7941C10.3615 12.7941 10.3615 12.7941 10.3615 12.7941C10.3615 12.7941 10.3614 12.7941 10.3614 12.7941C10.3614 12.7941 10.3614 12.7941 10.3614 12.7941C10.3614 12.7941 10.3614 12.7941 10.3613 12.7941C10.3613 12.7941 10.3613 12.7941 10.3613 12.7941C10.3613 12.7941 10.3613 12.7941 10.3612 12.7941C10.3612 12.7941 10.3612 12.7941 10.3612 12.7941C10.3612 12.7941 10.3612 12.7941 10.3612 12.7941C10.3611 12.7941 10.3611 12.7941 10.3611 12.7941C10.3611 12.7941 10.3611 12.7941 10.3611 12.7941C10.3611 12.7941 10.361 12.7941 10.361 12.7941C10.361 12.7941 10.361 12.7941 10.361 12.7941C10.361 12.7941 10.361 12.7941 10.3609 12.7941C10.3609 12.7941 10.3609 12.7941 10.3609 12.7941C10.3609 12.7941 10.3609 12.7941 10.3608 12.7941C10.3608 12.7941 10.3608 12.7941 10.3608 12.7941C10.3608 12.7941 10.3608 12.7941 10.3608 12.7941C10.3607 12.7941 10.3607 12.7941 10.3607 12.7941C10.3607 12.7941 10.3607 12.7941 10.3607 12.7941C10.3607 12.7941 10.3606 12.7941 10.3606 12.7941C10.3606 12.7941 10.3606 12.7941 10.3606 12.7941C10.3606 12.7941 10.3605 12.7941 10.3605 12.7941C10.3605 12.7941 10.3605 12.7941 10.3605 12.7941C10.3605 12.7941 10.3605 12.7941 10.3604 12.7941C10.3604 12.7941 10.3604 12.7941 10.3604 12.7941C10.3604 12.7941 10.3604 12.7941 10.3604 12.7941C10.3603 12.7941 10.3603 12.7941 10.3603 12.7941C10.3603 12.7941 10.3603 12.7941 10.3603 12.7941C10.3603 12.7941 10.3602 12.7941 10.3602 12.7941C10.3602 12.7941 10.3602 12.7941 10.3602 12.7941C10.3602 12.7941 10.3601 12.7941 10.3601 12.7941C10.3601 12.7941 10.3601 12.7941 10.3601 12.7941C10.3601 12.7941 10.3601 12.7941 10.36 12.7941C10.36 12.7941 10.36 12.7941 10.36 12.7941C10.36 12.7941 10.36 12.7941 10.36 12.7941C10.3599 12.7941 10.3599 12.7941 10.3599 12.7941C10.3599 12.7941 10.3599 12.7941 10.3599 12.7941C10.3599 12.7941 10.3598 12.7941 10.3598 12.7941C10.3598 12.7941 10.3598 12.7941 10.3598 12.7941C10.3598 12.7941 10.3597 12.7941 10.3597 12.7941C10.3597 12.7941 10.3597 12.7941 10.3597 12.7941C10.3597 12.7941 10.3597 12.7941 10.3596 12.7941C10.3596 12.7941 10.3596 12.7941 10.3596 12.7941C10.3596 12.7941 10.3596 12.7941 10.3596 12.7941C10.3595 12.7941 10.3595 12.7941 10.3595 12.7941C10.3595 12.7941 10.3595 12.7941 10.3595 12.7941C10.3594 12.7941 10.3594 12.7941 10.3594 12.7941C10.3594 12.7941 10.3594 12.7941 10.3594 12.7941V13.7941C10.3594 13.7941 10.3594 13.7941 10.3594 13.7941C10.3594 13.7941 10.3594 13.7941 10.3595 13.7941C10.3595 13.7941 10.3595 13.7941 10.3595 13.7941C10.3595 13.7941 10.3595 13.7941 10.3596 13.7941C10.3596 13.7941 10.3596 13.7941 10.3596 13.7941C10.3596 13.7941 10.3596 13.7941 10.3596 13.7941C10.3597 13.7941 10.3597 13.7941 10.3597 13.7941C10.3597 13.7941 10.3597 13.7941 10.3597 13.7941C10.3597 13.7941 10.3598 13.7941 10.3598 13.7941C10.3598 13.7941 10.3598 13.7941 10.3598 13.7941C10.3598 13.7941 10.3599 13.7941 10.3599 13.7941C10.3599 13.7941 10.3599 13.7941 10.3599 13.7941C10.3599 13.7941 10.3599 13.7941 10.36 13.7941C10.36 13.7941 10.36 13.7941 10.36 13.7941C10.36 13.7941 10.36 13.7941 10.36 13.7941C10.3601 13.7941 10.3601 13.7941 10.3601 13.7941C10.3601 13.7941 10.3601 13.7941 10.3601 13.7941C10.3601 13.7941 10.3602 13.7941 10.3602 13.7941C10.3602 13.7941 10.3602 13.7941 10.3602 13.7941C10.3602 13.7941 10.3603 13.7941 10.3603 13.7941C10.3603 13.7941 10.3603 13.7941 10.3603 13.7941C10.3603 13.7941 10.3603 13.7941 10.3604 13.7941C10.3604 13.7941 10.3604 13.7941 10.3604 13.7941C10.3604 13.7941 10.3604 13.7941 10.3604 13.7941C10.3605 13.7941 10.3605 13.7941 10.3605 13.7941C10.3605 13.7941 10.3605 13.7941 10.3605 13.7941C10.3605 13.7941 10.3606 13.7941 10.3606 13.7941C10.3606 13.7941 10.3606 13.7941 10.3606 13.7941C10.3606 13.7941 10.3607 13.7941 10.3607 13.7941C10.3607 13.7941 10.3607 13.7941 10.3607 13.7941C10.3607 13.7941 10.3607 13.7941 10.3608 13.7941C10.3608 13.7941 10.3608 13.7941 10.3608 13.7941C10.3608 13.7941 10.3608 13.7941 10.3608 13.7941C10.3609 13.7941 10.3609 13.7941 10.3609 13.7941C10.3609 13.7941 10.3609 13.7941 10.3609 13.7941C10.361 13.7941 10.361 13.7941 10.361 13.7941C10.361 13.7941 10.361 13.7941 10.361 13.7941C10.361 13.7941 10.3611 13.7941 10.3611 13.7941C10.3611 13.7941 10.3611 13.7941 10.3611 13.7941C10.3611 13.7941 10.3611 13.7941 10.3612 13.7941C10.3612 13.7941 10.3612 13.7941 10.3612 13.7941C10.3612 13.7941 10.3612 13.7941 10.3612 13.7941C10.3613 13.7941 10.3613 13.7941 10.3613 13.7941C10.3613 13.7941 10.3613 13.7941 10.3613 13.7941C10.3614 13.7941 10.3614 13.7941 10.3614 13.7941C10.3614 13.7941 10.3614 13.7941 10.3614 13.7941C10.3614 13.7941 10.3615 13.7941 10.3615 13.7941C10.3615 13.7941 10.3615 13.7941 10.3615 13.7941C10.3615 13.7941 10.3615 13.7941 10.3616 13.7941C10.3616 13.7941 10.3616 13.7941 10.3616 13.7941C10.3616 13.7941 10.3616 13.7941 10.3616 13.7941C10.3617 13.7941 10.3617 13.7941 10.3617 13.7941C10.3617 13.7941 10.3617 13.7941 10.3617 13.7941C10.3618 13.7941 10.3618 13.7941 10.3618 13.7941C10.3618 13.7941 10.3618 13.7941 10.3618 13.7941C10.3618 13.7941 10.3619 13.7941 10.3619 13.7941C10.3619 13.7941 10.3619 13.7941 10.3619 13.7941C10.3619 13.7941 10.3619 13.7941 10.362 13.7941C10.362 13.7941 10.362 13.7941 10.362 13.7941C10.362 13.7941 10.362 13.7941 10.362 13.7941C10.3621 13.7941 10.3621 13.7941 10.3621 13.7941C10.3621 13.7941 10.3621 13.7941 10.3621 13.7941C10.3622 13.7941 10.3622 13.7941 10.3622 13.7941C10.3622 13.7941 10.3622 13.7941 10.3622 13.7941C10.3622 13.7941 10.3623 13.7941 10.3623 13.7941C10.3623 13.7941 10.3623 13.7941 10.3623 13.7941C10.3623 13.7941 10.3623 13.7941 10.3624 13.7941C10.3624 13.7941 10.3624 13.7941 10.3624 13.7941C10.3624 13.7941 10.3624 13.7941 10.3624 13.7941C10.3625 13.7941 10.3625 13.7941 10.3625 13.7941C10.3625 13.7941 10.3625 13.7941 10.3625 13.7941C10.3626 13.7941 10.3626 13.7941 10.3626 13.7941C10.3626 13.7941 10.3626 13.7941 10.3626 13.7941C10.3626 13.7941 10.3627 13.7941 10.3627 13.7941C10.3627 13.7941 10.3627 13.7941 10.3627 13.7941C10.3627 13.7941 10.3627 13.7941 10.3628 13.7941C10.3628 13.7941 10.3628 13.7941 10.3628 13.7941C10.3628 13.7941 10.3628 13.7941 10.3628 13.7941C10.3629 13.7941 10.3629 13.7941 10.3629 13.7941C10.3629 13.7941 10.3629 13.7941 10.3629 13.7941C10.3629 13.7941 10.363 13.7941 10.363 13.7941C10.363 13.7941 10.363 13.7941 10.363 13.7941C10.363 13.7941 10.3631 13.7941 10.3631 13.7941C10.3631 13.7941 10.3631 13.7941 10.3631 13.7941C10.3631 13.7941 10.3631 13.7941 10.3632 13.7941C10.3632 13.7941 10.3632 13.7941 10.3632 13.7941C10.3632 13.7941 10.3632 13.7941 10.3632 13.7941C10.3633 13.7941 10.3633 13.7941 10.3633 13.7941C10.3633 13.7941 10.3633 13.7941 10.3633 13.7941C10.3633 13.7941 10.3634 13.7941 10.3634 13.7941C10.3634 13.7941 10.3634 13.7941 10.3634 13.7941C10.3634 13.7941 10.3635 13.7941 10.3635 13.7941C10.3635 13.7941 10.3635 13.7941 10.3635 13.7941C10.3635 13.7941 10.3635 13.7941 10.3636 13.7941C10.3636 13.7941 10.3636 13.7941 10.3636 13.7941C10.3636 13.7941 10.3636 13.7941 10.3636 13.7941C10.3637 13.7941 10.3637 13.7941 10.3637 13.7941C10.3637 13.7941 10.3637 13.7941 10.3637 13.7941C10.3637 13.7941 10.3638 13.7941 10.3638 13.7941C10.3638 13.7941 10.3638 13.7941 10.3638 13.7941C10.3638 13.7941 10.3638 13.7941 10.3639 13.7941C10.3639 13.7941 10.3639 13.7941 10.3639 13.7941C10.3639 13.7941 10.3639 13.7941 10.3639 13.7941C10.364 13.7941 10.364 13.7941 10.364 13.7941C10.364 13.7941 10.364 13.7941 10.364 13.7941C10.3641 13.7941 10.3641 13.7941 10.3641 13.7941C10.3641 13.7941 10.3641 13.7941 10.3641 13.7941C10.3641 13.7941 10.3642 13.7941 10.3642 13.7941C10.3642 13.7941 10.3642 13.7941 10.3642 13.7941C10.3642 13.7941 10.3642 13.7941 10.3643 13.7941C10.3643 13.7941 10.3643 13.7941 10.3643 13.7941C10.3643 13.7941 10.3643 13.7941 10.3643 13.7941C10.3644 13.7941 10.3644 13.7941 10.3644 13.7941C10.3644 13.7941 10.3644 13.7941 10.3644 13.7941C10.3644 13.7941 10.3645 13.7941 10.3645 13.7941C10.3645 13.7941 10.3645 13.7941 10.3645 13.7941C10.3645 13.7941 10.3646 13.7941 10.3646 13.7941C10.3646 13.7941 10.3646 13.7941 10.3646 13.7941C10.3646 13.7941 10.3646 13.7941 10.3647 13.7941C10.3647 13.7941 10.3647 13.7941 10.3647 13.7941C10.3647 13.7941 10.3647 13.7941 10.3647 13.7941C10.3648 13.7941 10.3648 13.7941 10.3648 13.7941C10.3648 13.7941 10.3648 13.7941 10.3648 13.7941C10.3648 13.7941 10.3649 13.7941 10.3649 13.7941C10.3649 13.7941 10.3649 13.7941 10.3649 13.7941C10.3649 13.7941 10.3649 13.7941 10.365 13.7941C10.365 13.7941 10.365 13.7941 10.365 13.7941C10.365 13.7941 10.365 13.7941 10.365 13.7941C10.3651 13.7941 10.3651 13.7941 10.3651 13.7941C10.3651 13.7941 10.3651 13.7941 10.3651 13.7941C10.3651 13.7941 10.3652 13.7941 10.3652 13.7941C10.3652 13.7941 10.3652 13.7941 10.3652 13.7941C10.3652 13.7941 10.3652 13.7941 10.3653 13.7941C10.3653 13.7941 10.3653 13.7941 10.3653 13.7941C10.3653 13.7941 10.3653 13.7941 10.3654 13.7941C10.3654 13.7941 10.3654 13.7941 10.3654 13.7941C10.3654 13.7941 10.3654 13.7941 10.3654 13.7941C10.3655 13.7941 10.3655 13.7941 10.3655 13.7941C10.3655 13.7941 10.3655 13.7941 10.3655 13.7941C10.3655 13.7941 10.3656 13.7941 10.3656 13.7941C10.3656 13.7941 10.3656 13.7941 10.3656 13.7941C10.3656 13.7941 10.3656 13.7941 10.3657 13.7941C10.3657 13.7941 10.3657 13.7941 10.3657 13.7941C10.3657 13.7941 10.3657 13.7941 10.3657 13.7941C10.3658 13.7941 10.3658 13.7941 10.3658 13.7941C10.3658 13.7941 10.3658 13.7941 10.3658 13.7941C10.3658 13.7941 10.3659 13.7941 10.3659 13.7941C10.3659 13.7941 10.3659 13.7941 10.3659 13.7941C10.3659 13.7941 10.3659 13.7941 10.366 13.7941C10.366 13.7941 10.366 13.7941 10.366 13.7941C10.366 13.7941 10.366 13.7941 10.366 13.7941C10.3661 13.7941 10.3661 13.7941 10.3661 13.7941C10.3661 13.7941 10.3661 13.7941 10.3661 13.7941C10.3661 13.7941 10.3662 13.7941 10.3662 13.7941C10.3662 13.7941 10.3662 13.7941 10.3662 13.7941C10.3662 13.7941 10.3662 13.7941 10.3663 13.7941C10.3663 13.7941 10.3663 13.7941 10.3663 13.7941C10.3663 13.7941 10.3663 13.7941 10.3663 13.7941C10.3664 13.7941 10.3664 13.7941 10.3664 13.7941C10.3664 13.7941 10.3664 13.7941 10.3664 13.7941C10.3665 13.7941 10.3665 13.7941 10.3665 13.7941C10.3665 13.7941 10.3665 13.7941 10.3665 13.7941C10.3665 13.7941 10.3666 13.7941 10.3666 13.7941C10.3666 13.7941 10.3666 13.7941 10.3666 13.7941C10.3666 13.7941 10.3666 13.7941 10.3667 13.7941C10.3667 13.7941 10.3667 13.7941 10.3667 13.7941C10.3667 13.7941 10.3667 13.7941 10.3667 13.7941C10.3668 13.7941 10.3668 13.7941 10.3668 13.7941C10.3668 13.7941 10.3668 13.7941 10.3668 13.7941C10.3668 13.7941 10.3669 13.7941 10.3669 13.7941C10.3669 13.7941 10.3669 13.7941 10.3669 13.7941C10.3669 13.7941 10.3669 13.7941 10.367 13.7941C10.367 13.7941 10.367 13.7941 10.367 13.7941C10.367 13.7941 10.367 13.7941 10.367 13.7941C10.3671 13.7941 10.3671 13.7941 10.3671 13.7941C10.3671 13.7941 10.3671 13.7941 10.3671 13.7941C10.3671 13.7941 10.3672 13.7941 10.3672 13.7941C10.3672 13.7941 10.3672 13.7941 10.3672 13.7941C10.3672 13.7941 10.3672 13.7941 10.3673 13.7941C10.3673 13.7941 10.3673 13.7941 10.3673 13.7941C10.3673 13.7941 10.3673 13.7941 10.3673 13.7941C10.3674 13.7941 10.3674 13.7941 10.3674 13.7941C10.3674 13.7941 10.3674 13.7941 10.3674 13.7941C10.3674 13.7941 10.3675 13.7941 10.3675 13.7941C10.3675 13.7941 10.3675 13.7941 10.3675 13.7941C10.3675 13.7941 10.3675 13.7941 10.3676 13.7941C10.3676 13.7941 10.3676 13.7941 10.3676 13.7941C10.3676 13.7941 10.3676 13.7941 10.3676 13.7941C10.3677 13.7941 10.3677 13.7941 10.3677 13.7941C10.3677 13.7941 10.3677 13.7941 10.3677 13.7941C10.3677 13.7941 10.3678 13.7941 10.3678 13.7941C10.3678 13.7941 10.3678 13.7941 10.3678 13.7941C10.3678 13.7941 10.3678 13.7941 10.3678 13.7941C10.3679 13.7941 10.3679 13.7941 10.3679 13.7941C10.3679 13.7941 10.3679 13.7941 10.3679 13.7941C10.3679 13.7941 10.368 13.7941 10.368 13.7941C10.368 13.7941 10.368 13.7941 10.368 13.7941C10.368 13.7941 10.368 13.7941 10.3681 13.7941C10.3681 13.7941 10.3681 13.7941 10.3681 13.7941C10.3681 13.7941 10.3681 13.7941 10.3681 13.7941C10.3682 13.7941 10.3682 13.7941 10.3682 13.7941C10.3682 13.7941 10.3682 13.7941 10.3682 13.7941C10.3682 13.7941 10.3683 13.7941 10.3683 13.7941C10.3683 13.7941 10.3683 13.7941 10.3683 13.7941C10.3683 13.7941 10.3683 13.7941 10.3684 13.7941C10.3684 13.7941 10.3684 13.7941 10.3684 13.7941C10.3684 13.7941 10.3684 13.7941 10.3684 13.7941C10.3685 13.7941 10.3685 13.7941 10.3685 13.7941C10.3685 13.7941 10.3685 13.7941 10.3685 13.7941C10.3685 13.7941 10.3686 13.7941 10.3686 13.7941C10.3686 13.7941 10.3686 13.7941 10.3686 13.7941C10.3686 13.7941 10.3686 13.7941 10.3687 13.7941C10.3687 13.7941 10.3687 13.7941 10.3687 13.7941C10.3687 13.7941 10.3687 13.7941 10.3687 13.7941C10.3688 13.7941 10.3688 13.7941 10.3688 13.7941C10.3688 13.7941 10.3688 13.7941 10.3688 13.7941C10.3688 13.7941 10.3688 13.7941 10.3689 13.7941C10.3689 13.7941 10.3689 13.7941 10.3689 13.7941C10.3689 13.7941 10.3689 13.7941 10.3689 13.7941C10.369 13.7941 10.369 13.7941 10.369 13.7941C10.369 13.7941 10.369 13.7941 10.369 13.7941C10.369 13.7941 10.3691 13.7941 10.3691 13.7941C10.3691 13.7941 10.3691 13.7941 10.3691 13.7941C10.3691 13.7941 10.3691 13.7941 10.3692 13.7941C10.3692 13.7941 10.3692 13.7941 10.3692 13.7941C10.3692 13.7941 10.3692 13.7941 10.3692 13.7941C10.3693 13.7941 10.3693 13.7941 10.3693 13.7941C10.3693 13.7941 10.3693 13.7941 10.3693 13.7941C10.3693 13.7941 10.3694 13.7941 10.3694 13.7941C10.3694 13.7941 10.3694 13.7941 10.3694 13.7941C10.3694 13.7941 10.3694 13.7941 10.3694 13.7941C10.3695 13.7941 10.3695 13.7941 10.3695 13.7941C10.3695 13.7941 10.3695 13.7941 10.3695 13.7941C10.3695 13.7941 10.3696 13.7941 10.3696 13.7941C10.3696 13.7941 10.3696 13.7941 10.3696 13.7941C10.3696 13.7941 10.3696 13.7941 10.3697 13.7941C10.3697 13.7941 10.3697 13.7941 10.3697 13.7941C10.3697 13.7941 10.3697 13.7941 10.3697 13.7941C10.3698 13.7941 10.3698 13.7941 10.3698 13.7941C10.3698 13.7941 10.3698 13.7941 10.3698 13.7941C10.3698 13.7941 10.3698 13.7941 10.3699 13.7941C10.3699 13.7941 10.3699 13.7941 10.3699 13.7941C10.3699 13.7941 10.3699 13.7941 10.3699 13.7941C10.37 13.7941 10.37 13.7941 10.37 13.7941C10.37 13.7941 10.37 13.7941 10.37 13.7941C10.37 13.7941 10.3701 13.7941 10.3701 13.7941C10.3701 13.7941 10.3701 13.7941 10.3701 13.7941C10.3701 13.7941 10.3701 13.7941 10.3702 13.7941C10.3702 13.7941 10.3702 13.7941 10.3702 13.7941C10.3702 13.7941 10.3702 13.7941 10.3702 13.7941C10.3702 13.7941 10.3703 13.7941 10.3703 13.7941C10.3703 13.7941 10.3703 13.7941 10.3703 13.7941C10.3703 13.7941 10.3703 13.7941 10.3704 13.7941C10.3704 13.7941 10.3704 13.7941 10.3704 13.7941C10.3704 13.7941 10.3704 13.7941 10.3704 13.7941C10.3705 13.7941 10.3705 13.7941 10.3705 13.7941C10.3705 13.7941 10.3705 13.7941 10.3705 13.7941C10.3705 13.7941 10.3705 13.7941 10.3706 13.7941C10.3706 13.7941 10.3706 13.7941 10.3706 13.7941C10.3706 13.7941 10.3706 13.7941 10.3706 13.7941C10.3707 13.7941 10.3707 13.7941 10.3707 13.7941C10.3707 13.7941 10.3707 13.7941 10.3707 13.7941C10.3707 13.7941 10.3708 13.7941 10.3708 13.7941C10.3708 13.7941 10.3708 13.7941 10.3708 13.7941C10.3708 13.7941 10.3708 13.7941 10.3708 13.7941C10.3709 13.7941 10.3709 13.7941 10.3709 13.7941C10.3709 13.7941 10.3709 13.7941 10.3709 13.7941C10.3709 13.7941 10.371 13.7941 10.371 13.7941C10.371 13.7941 10.371 13.7941 10.371 13.7941C10.371 13.7941 10.371 13.7941 10.371 13.7941C10.3711 13.7941 10.3711 13.7941 10.3711 13.7941C10.3711 13.7941 10.3711 13.7941 10.3711 13.7941C10.3711 13.7941 10.3712 13.7941 10.3712 13.7941C10.3712 13.7941 10.3712 13.7941 10.3712 13.7941C10.3712 13.7941 10.3712 13.7941 10.3713 13.7941C10.3713 13.7941 10.3713 13.7941 10.3713 13.7941C10.3713 13.7941 10.3713 13.7941 10.3713 13.7941C10.3713 13.7941 10.3714 13.7941 10.3714 13.7941C10.3714 13.7941 10.3714 13.7941 10.3714 13.7941C10.3714 13.7941 10.3714 13.7941 10.3715 13.7941C10.3715 13.7941 10.3715 13.7941 10.3715 13.7941C10.3715 13.7941 10.3715 13.7941 10.3715 13.7941C10.3715 13.7941 10.3716 13.7941 10.3716 13.7941C10.3716 13.7941 10.3716 13.7941 10.3716 13.7941C10.3716 13.7941 10.3716 13.7941 10.3717 13.7941C10.3717 13.7941 10.3717 13.7941 10.3717 13.7941C10.3717 13.7941 10.3717 13.7941 10.3717 13.7941C10.3717 13.7941 10.3718 13.7941 10.3718 13.7941C10.3718 13.7941 10.3718 13.7941 10.3718 13.7941C10.3718 13.7941 10.3718 13.7941 10.3719 13.7941C10.3719 13.7941 10.3719 13.7941 10.3719 13.7941C10.3719 13.7941 10.3719 13.7941 10.3719 13.7941C10.3719 13.7941 10.372 13.7941 10.372 13.7941C10.372 13.7941 10.372 13.7941 10.372 13.7941C10.372 13.7941 10.372 13.7941 10.3721 13.7941C10.3721 13.7941 10.3721 13.7941 10.3721 13.7941C10.3721 13.7941 10.3721 13.7941 10.3721 13.7941C10.3721 13.7941 10.3722 13.7941 10.3722 13.7941C10.3722 13.7941 10.3722 13.7941 10.3722 13.7941C10.3722 13.7941 10.3722 13.7941 10.3722 13.7941C10.3723 13.7941 10.3723 13.7941 10.3723 13.7941C10.3723 13.7941 10.3723 13.7941 10.3723 13.7941C10.3723 13.7941 10.3724 13.7941 10.3724 13.7941C10.3724 13.7941 10.3724 13.7941 10.3724 13.7941C10.3724 13.7941 10.3724 13.7941 10.3724 13.7941C10.3725 13.7941 10.3725 13.7941 10.3725 13.7941C10.3725 13.7941 10.3725 13.7941 10.3725 13.7941C10.3725 13.7941 10.3726 13.7941 10.3726 13.7941C10.3726 13.7941 10.3726 13.7941 10.3726 13.7941C10.3726 13.7941 10.3726 13.7941 10.3726 13.7941C10.3727 13.7941 10.3727 13.7941 10.3727 13.7941C10.3727 13.7941 10.3727 13.7941 10.3727 13.7941C10.3727 13.7941 10.3727 13.7941 10.3728 13.7941C10.3728 13.7941 10.3728 13.7941 10.3728 13.7941C10.3728 13.7941 10.3728 13.7941 10.3728 13.7941C10.3729 13.7941 10.3729 13.7941 10.3729 13.7941C10.3729 13.7941 10.3729 13.7941 10.3729 13.7941C10.3729 13.7941 10.3729 13.7941 10.373 13.7941C10.373 13.7941 10.373 13.7941 10.373 13.7941C10.373 13.7941 10.373 13.7941 10.373 13.7941C10.373 13.7941 10.3731 13.7941 10.3731 13.7941C10.3731 13.7941 10.3731 13.7941 10.3731 13.7941C10.3731 13.7941 10.3731 13.7941 10.3731 13.7941C10.3732 13.7941 10.3732 13.7941 10.3732 13.7941C10.3732 13.7941 10.3732 13.7941 10.3732 13.7941C10.3732 13.7941 10.3733 13.7941 10.3733 13.7941C10.3733 13.7941 10.3733 13.7941 10.3733 13.7941C10.3733 13.7941 10.3733 13.7941 10.3733 13.7941C10.3734 13.7941 10.3734 13.7941 10.3734 13.7941C10.3734 13.7941 10.3734 13.7941 10.3734 13.7941C10.3734 13.7941 10.3734 13.7941 10.3735 13.7941C10.3735 13.7941 10.3735 13.7941 10.3735 13.7941C10.3735 13.7941 10.3735 13.7941 10.3735 13.7941C10.3735 13.7941 10.3736 13.7941 10.3736 13.7941C10.3736 13.7941 10.3736 13.7941 10.3736 13.7941C10.3736 13.7941 10.3736 13.7941 10.3736 13.7941C10.3737 13.7941 10.3737 13.7941 10.3737 13.7941C10.3737 13.7941 10.3737 13.7941 10.3737 13.7941C10.3737 13.7941 10.3738 13.7941 10.3738 13.7941C10.3738 13.7941 10.3738 13.7941 10.3738 13.7941C10.3738 13.7941 10.3738 13.7941 10.3738 13.7941C10.3739 13.7941 10.3739 13.7941 10.3739 13.7941C10.3739 13.7941 10.3739 13.7941 10.3739 13.7941C10.3739 13.7941 10.3739 13.7941 10.374 13.7941C10.374 13.7941 10.374 13.7941 10.374 13.7941C10.374 13.7941 10.374 13.7941 10.374 13.7941C10.374 13.7941 10.3741 13.7941 10.3741 13.7941C10.3741 13.7941 10.3741 13.7941 10.3741 13.7941C10.3741 13.7941 10.3741 13.7941 10.3741 13.7941C10.3742 13.7941 10.3742 13.7941 10.3742 13.7941C10.3742 13.7941 10.3742 13.7941 10.3742 13.7941C10.3742 13.7941 10.3742 13.7941 10.3743 13.7941C10.3743 13.7941 10.3743 13.7941 10.3743 13.7941C10.3743 13.7941 10.3743 13.7941 10.3743 13.7941C10.3743 13.7941 10.3744 13.7941 10.3744 13.7941C10.3744 13.7941 10.3744 13.7941 10.3744 13.7941C10.3744 13.7941 10.3744 13.7941 10.3744 13.7941C10.3745 13.7941 10.3745 13.7941 10.3745 13.7941C10.3745 13.7941 10.3745 13.7941 10.3745 13.7941C10.3745 13.7941 10.3745 13.7941 10.3746 13.7941C10.3746 13.7941 10.3746 13.7941 10.3746 13.7941C10.3746 13.7941 10.3746 13.7941 10.3746 13.7941C10.3746 13.7941 10.3747 13.7941 10.3747 13.7941C10.3747 13.7941 10.3747 13.7941 10.3747 13.7941C10.3747 13.7941 10.3747 13.7941 10.3747 13.7941C10.3748 13.7941 10.3748 13.7941 10.3748 13.7941C10.3748 13.7941 10.3748 13.7941 10.3748 13.7941C10.3748 13.7941 10.3748 13.7941 10.3749 13.7941C10.3749 13.7941 10.3749 13.7941 10.3749 13.7941C10.3749 13.7941 10.3749 13.7941 10.3749 13.7941C10.3749 13.7941 10.3749 13.7941 10.375 13.7941C10.375 13.7941 10.375 13.7941 10.375 13.7941C10.375 13.7941 10.375 13.7941 10.375 13.7941C10.375 13.7941 10.3751 13.7941 10.3751 13.7941C10.3751 13.7941 10.3751 13.7941 10.3751 13.7941C10.3751 13.7941 10.3751 13.7941 10.3751 13.7941C10.3752 13.7941 10.3752 13.7941 10.3752 13.7941C10.3752 13.7941 10.3752 13.7941 10.3752 13.7941C10.3752 13.7941 10.3752 13.7941 10.3753 13.7941C10.3753 13.7941 10.3753 13.7941 10.3753 13.7941C10.3753 13.7941 10.3753 13.7941 10.3753 13.7941C10.3753 13.7941 10.3754 13.7941 10.3754 13.7941C10.3754 13.7941 10.3754 13.7941 10.3754 13.7941C10.3754 13.7941 10.3754 13.7941 10.3754 13.7941C10.3754 13.7941 10.3755 13.7941 10.3755 13.7941C10.3755 13.7941 10.3755 13.7941 10.3755 13.7941C10.3755 13.7941 10.3755 13.7941 10.3755 13.7941C10.3756 13.7941 10.3756 13.7941 10.3756 13.7941C10.3756 13.7941 10.3756 13.7941 10.3756 13.7941C10.3756 13.7941 10.3756 13.7941 10.3757 13.7941C10.3757 13.7941 10.3757 13.7941 10.3757 13.7941C10.3757 13.7941 10.3757 13.7941 10.3757 13.7941C10.3757 13.7941 10.3757 13.7941 10.3758 13.7941C10.3758 13.7941 10.3758 13.7941 10.3758 13.7941C10.3758 13.7941 10.3758 13.7941 10.3758 13.7941C10.3758 13.7941 10.3759 13.7941 10.3759 13.7941C10.3759 13.7941 10.3759 13.7941 10.3759 13.7941C10.3759 13.7941 10.3759 13.7941 10.3759 13.7941C10.376 13.7941 10.376 13.7941 10.376 13.7941C10.376 13.7941 10.376 13.7941 10.376 13.7941C10.376 13.7941 10.376 13.7941 10.376 13.7941C10.3761 13.7941 10.3761 13.7941 10.3761 13.7941C10.3761 13.7941 10.3761 13.7941 10.3761 13.7941C10.3761 13.7941 10.3761 13.7941 10.3762 13.7941C10.3762 13.7941 10.3762 13.7941 10.3762 13.7941C10.3762 13.7941 10.3762 13.7941 10.3762 13.7941C10.3762 13.7941 10.3762 13.7941 10.3763 13.7941C10.3763 13.7941 10.3763 13.7941 10.3763 13.7941C10.3763 13.7941 10.3763 13.7941 10.3763 13.7941C10.3763 13.7941 10.3764 13.7941 10.3764 13.7941C10.3764 13.7941 10.3764 13.7941 10.3764 13.7941C10.3764 13.7941 10.3764 13.7941 10.3764 13.7941C10.3764 13.7941 10.3765 13.7941 10.3765 13.7941C10.3765 13.7941 10.3765 13.7941 10.3765 13.7941C10.3765 13.7941 10.3765 13.7941 10.3765 13.7941C10.3766 13.7941 10.3766 13.7941 10.3766 13.7941C10.3766 13.7941 10.3766 13.7941 10.3766 13.7941C10.3766 13.7941 10.3766 13.7941 10.3766 13.7941C10.3767 13.7941 10.3767 13.7941 10.3767 13.7941C10.3767 13.7941 10.3767 13.7941 10.3767 13.7941C10.3767 13.7941 10.3767 13.7941 10.3767 13.7941C10.3768 13.7941 10.3768 13.7941 10.3768 13.7941C10.3768 13.7941 10.3768 13.7941 10.3768 13.7941C10.3768 13.7941 10.3768 13.7941 10.3769 13.7941C10.3769 13.7941 10.3769 13.7941 10.3769 13.7941C10.3769 13.7941 10.3769 13.7941 10.3769 13.7941C10.3769 13.7941 10.3769 13.7941 10.377 13.7941C10.377 13.7941 10.377 13.7941 10.377 13.7941C10.377 13.7941 10.377 13.7941 10.377 13.7941C10.377 13.7941 10.377 13.7941 10.3771 13.7941C10.3771 13.7941 10.3771 13.7941 10.3771 13.7941C10.3771 13.7941 10.3771 13.7941 10.3771 13.7941C10.3771 13.7941 10.3771 13.7941 10.3772 13.7941C10.3772 13.7941 10.3772 13.7941 10.3772 13.7941C10.3772 13.7941 10.3772 13.7941 10.3772 13.7941C10.3772 13.7941 10.3772 13.7941 10.3773 13.7941C10.3773 13.7941 10.3773 13.7941 10.3773 13.7941C10.3773 13.7941 10.3773 13.7941 10.3773 13.7941C10.3773 13.7941 10.3773 13.7941 10.3774 13.7941C10.3774 13.7941 10.3774 13.7941 10.3774 13.7941C10.3774 13.7941 10.3774 13.7941 10.3774 13.7941C10.3774 13.7941 10.3775 13.7941 10.3775 13.7941C10.3775 13.7941 10.3775 13.7941 10.3775 13.7941C10.3775 13.7941 10.3775 13.7941 10.3775 13.7941C10.3775 13.7941 10.3776 13.7941 10.3776 13.7941C10.3776 13.7941 10.3776 13.7941 10.3776 13.7941C10.3776 13.7941 10.3776 13.7941 10.3776 13.7941C10.3776 13.7941 10.3777 13.7941 10.3777 13.7941C10.3777 13.7941 10.3777 13.7941 10.3777 13.7941C10.3777 13.7941 10.3777 13.7941 10.3777 13.7941C10.3777 13.7941 10.3778 13.7941 10.3778 13.7941C10.3778 13.7941 10.3778 13.7941 10.3778 13.7941C10.3778 13.7941 10.3778 13.7941 10.3778 13.7941C10.3778 13.7941 10.3778 13.7941 10.3779 13.7941C10.3779 13.7941 10.3779 13.7941 10.3779 13.7941C10.3779 13.7941 10.3779 13.7941 10.3779 13.7941C10.3779 13.7941 10.3779 13.7941 10.378 13.7941C10.378 13.7941 10.378 13.7941 10.378 13.7941C10.378 13.7941 10.378 13.7941 10.378 13.7941C10.378 13.7941 10.378 13.7941 10.3781 13.7941C10.3781 13.7941 10.3781 13.7941 10.3781 13.7941C10.3781 13.7941 10.3781 13.7941 10.3781 13.7941C10.3781 13.7941 10.3781 13.7941 10.3782 13.7941C10.3782 13.7941 10.3782 13.7941 10.3782 13.7941C10.3782 13.7941 10.3782 13.7941 10.3782 13.7941C10.3782 13.7941 10.3782 13.7941 10.3783 13.7941C10.3783 13.7941 10.3783 13.7941 10.3783 13.7941C10.3783 13.7941 10.3783 13.7941 10.3783 13.7941C10.3783 13.7941 10.3783 13.7941 10.3783 13.7941C10.3784 13.7941 10.3784 13.7941 10.3784 13.7941C10.3784 13.7941 10.3784 13.7941 10.3784 13.7941C10.3784 13.7941 10.3784 13.7941 10.3784 13.7941C10.3785 13.7941 10.3785 13.7941 10.3785 13.7941C10.3785 13.7941 10.3785 13.7941 10.3785 13.7941C10.3785 13.7941 10.3785 13.7941 10.3785 13.7941C10.3786 13.7941 10.3786 13.7941 10.3786 13.7941C10.3786 13.7941 10.3786 13.7941 10.3786 13.7941C10.3786 13.7941 10.3786 13.7941 10.3786 13.7941C10.3786 13.7941 10.3787 13.7941 10.3787 13.7941C10.3787 13.7941 10.3787 13.7941 10.3787 13.7941C10.3787 13.7941 10.3787 13.7941 10.3787 13.7941C10.3787 13.7941 10.3788 13.7941 10.3788 13.7941C10.3788 13.7941 10.3788 13.7941 10.3788 13.7941C10.3788 13.7941 10.3788 13.7941 10.3788 13.7941C10.3788 13.7941 10.3788 13.7941 10.3789 13.7941C10.3789 13.7941 10.3789 13.7941 10.3789 13.7941C10.3789 13.7941 10.3789 13.7941 10.3789 13.7941C10.3789 13.7941 10.3789 13.7941 10.3789 13.7941C10.379 13.7941 10.379 13.7941 10.379 13.7941C10.379 13.7941 10.379 13.7941 10.379 13.7941C10.379 13.7941 10.379 13.7941 10.379 13.7941C10.3791 13.7941 10.3791 13.7941 10.3791 13.7941C10.3791 13.7941 10.3791 13.7941 10.3791 13.7941C10.3791 13.7941 10.3791 13.7941 10.3791 13.7941C10.3791 13.7941 10.3792 13.7941 10.3792 13.7941C10.3792 13.7941 10.3792 13.7941 10.3792 13.7941C10.3792 13.7941 10.3792 13.7941 10.3792 13.7941C10.3792 13.7941 10.3792 13.7941 10.3793 13.7941C10.3793 13.7941 10.3793 13.7941 10.3793 13.7941C10.3793 13.7941 10.3793 13.7941 10.3793 13.7941C10.3793 13.7941 10.3793 13.7941 10.3793 13.7941C10.3794 13.7941 10.3794 13.7941 10.3794 13.7941C10.3794 13.7941 10.3794 13.7941 10.3794 13.7941C10.3794 13.7941 10.3794 13.7941 10.3794 13.7941C10.3795 13.7941 10.3795 13.7941 10.3795 13.7941C10.3795 13.7941 10.3795 13.7941 10.3795 13.7941C10.3795 13.7941 10.3795 13.7941 10.3795 13.7941C10.3795 13.7941 10.3796 13.7941 10.3796 13.7941C10.3796 13.7941 10.3796 13.7941 10.3796 13.7941C10.3796 13.7941 10.3796 13.7941 10.3796 13.7941C10.3796 13.7941 10.3796 13.7941 10.3797 13.7941C10.3797 13.7941 10.3797 13.7941 10.3797 13.7941V12.7941ZM10.583 13.7413C10.6804 13.6926 10.7441 13.6654 10.798 13.6516L10.5502 12.6827C10.3859 12.7248 10.2414 12.794 10.1358 12.8468L10.583 13.7413ZM11.0276 13.5208L11.0301 13.5182L10.3232 12.811L10.3206 12.8135L11.0276 13.5208Z" fill="black" mask="url(#path-13-inside-3_1189_5548)"/>
<mask id="path-15-inside-4_1189_5548" fill="white">
<path d="M9.0593 13.3575C8.98569 13.3702 8.9197 13.3296 8.85117 13.322C8.84101 13.322 8.83594 13.3067 8.83594 13.2966C8.91208 13.3118 8.99077 13.322 9.0593 13.3575Z"/>
</mask>
<path d="M9.0593 13.3575C8.98569 13.3702 8.9197 13.3296 8.85117 13.322C8.84101 13.322 8.83594 13.3067 8.83594 13.2966C8.91208 13.3118 8.99077 13.322 9.0593 13.3575Z" fill="#FEF67F"/>
<path d="M9.0593 13.3575L9.14425 13.8502L10.6088 13.5977L9.28945 12.9136L9.0593 13.3575ZM8.85117 13.322L8.90638 12.825L8.87886 12.822H8.85117V13.322ZM8.83594 13.2966L8.934 12.8063L8.33594 12.6867V13.2966H8.83594ZM8.97434 12.8648C9.01335 12.858 9.04546 12.8596 9.06573 12.862C9.08403 12.8642 9.09412 12.8675 9.08715 12.8656C9.08369 12.8646 9.0796 12.8634 9.07017 12.8606C9.06227 12.8583 9.04915 12.8543 9.03514 12.8505C9.00747 12.8429 8.96153 12.8311 8.90638 12.825L8.79595 13.8189C8.77507 13.8166 8.76308 13.8128 8.76935 13.8145C8.77232 13.8153 8.77617 13.8165 8.78528 13.8192C8.79287 13.8214 8.80583 13.8253 8.81951 13.8291C8.87097 13.8434 8.99443 13.876 9.14425 13.8502L8.97434 12.8648ZM8.85117 12.822C9.13313 12.822 9.25975 13.0351 9.28696 13.0895C9.32305 13.1617 9.33594 13.2333 9.33594 13.2966H8.33594C8.33594 13.37 8.35136 13.4543 8.39253 13.5367C8.42481 13.6012 8.55905 13.822 8.85117 13.822V12.822ZM8.73788 13.7869C8.75966 13.7912 8.78637 13.7961 8.79977 13.7987C8.81687 13.8019 8.82764 13.8042 8.83595 13.8061C8.85319 13.8102 8.8459 13.8101 8.82914 13.8014L9.28945 12.9136C9.13965 12.8359 8.95917 12.8113 8.934 12.8063L8.73788 13.7869Z" fill="black" mask="url(#path-15-inside-4_1189_5548)"/>
<mask id="path-17-inside-5_1189_5548" fill="white">
<path d="M12.1203 11.4665C12.1203 11.4945 12.133 11.5276 12.0948 11.5429C12.0821 11.5098 12.1024 11.4894 12.1203 11.4665Z"/>
</mask>
<path d="M12.1203 11.4665C12.1203 11.4945 12.133 11.5276 12.0948 11.5429C12.0821 11.5098 12.1024 11.4894 12.1203 11.4665Z" fill="#FEA63B"/>
<path d="M12.1203 11.4665H12.6203V10.0092L11.7256 11.1595L12.1203 11.4665ZM12.0948 11.5429L11.6281 11.7224L11.81 12.1953L12.2805 12.0071L12.0948 11.5429ZM11.6203 11.4665C11.6203 11.5004 11.6243 11.5408 11.6233 11.5289C11.6233 11.5287 11.6231 11.5266 11.6229 11.5235C11.6228 11.5204 11.6225 11.5155 11.6224 11.5094C11.6221 11.4975 11.6222 11.4772 11.6252 11.4517C11.6314 11.3987 11.651 11.3154 11.7119 11.2325C11.7735 11.1486 11.85 11.1023 11.9091 11.0786L12.2805 12.0071C12.3587 11.9758 12.4479 11.9197 12.5179 11.8244C12.5871 11.7301 12.6107 11.6339 12.6185 11.5672C12.6255 11.5073 12.6208 11.4573 12.62 11.4472C12.6178 11.4208 12.6203 11.4465 12.6203 11.4665H11.6203ZM12.5615 11.3634C12.5813 11.415 12.5941 11.4783 12.5901 11.5489C12.5861 11.6185 12.5668 11.675 12.5479 11.7149C12.5304 11.7518 12.5123 11.7763 12.5076 11.7825C12.505 11.7861 12.5032 11.7882 12.5049 11.7862C12.5052 11.7858 12.5105 11.7791 12.5149 11.7735L11.7256 11.1595C11.7363 11.1458 11.7122 11.1765 11.7063 11.1843C11.6932 11.2018 11.6674 11.2378 11.6442 11.2868C11.6196 11.3388 11.5965 11.4081 11.5917 11.4915C11.5869 11.5759 11.6019 11.6542 11.6281 11.7224L12.5615 11.3634Z" fill="black" mask="url(#path-17-inside-5_1189_5548)"/>
<mask id="path-19-inside-6_1189_5548" fill="white">
<path d="M12.085 11.5883C12.0901 11.6138 12.1003 11.6418 12.057 11.6469C12.0545 11.6214 12.0519 11.596 12.085 11.5883Z"/>
</mask>
<path d="M12.085 11.5883C12.0901 11.6138 12.1003 11.6418 12.057 11.6469C12.0545 11.6214 12.0519 11.596 12.085 11.5883Z" fill="#FEA63B"/>
<path d="M12.085 11.5883L12.5753 11.4903L12.4743 10.9853L11.9726 11.1011L12.085 11.5883ZM12.057 11.6469L11.5595 11.6966L11.6101 12.2029L12.1154 12.1434L12.057 11.6469ZM11.5947 11.6864C11.6021 11.7233 11.5958 11.6905 11.595 11.6856C11.5928 11.6718 11.5824 11.6072 11.5994 11.5244C11.6202 11.4237 11.6777 11.3151 11.7829 11.2373C11.8735 11.1702 11.9612 11.1547 11.9986 11.1503L12.1154 12.1434C12.1745 12.1365 12.2771 12.1156 12.3778 12.041C12.4931 11.9557 12.5559 11.8376 12.5789 11.7261C12.5982 11.6324 12.5869 11.5557 12.5827 11.5294C12.58 11.5119 12.5705 11.4661 12.5753 11.4903L11.5947 11.6864ZM12.5545 11.5971C12.5535 11.5863 12.5554 11.6021 12.5556 11.6215C12.5559 11.6417 12.5553 11.6927 12.5362 11.7559C12.5149 11.826 12.4723 11.9058 12.397 11.9721C12.3249 12.0357 12.2494 12.0635 12.1975 12.0755L11.9726 11.1011C11.9041 11.1169 11.8165 11.1508 11.7356 11.2221C11.6517 11.2961 11.6036 11.3853 11.5791 11.4659C11.5568 11.5396 11.5553 11.6023 11.5557 11.6346C11.5561 11.6662 11.5593 11.6947 11.5595 11.6966L12.5545 11.5971Z" fill="black" mask="url(#path-19-inside-6_1189_5548)"/>
<mask id="path-21-inside-7_1189_5548" fill="white">
<path d="M7.72363 19.3069C7.74654 19.3069 7.772 19.3044 7.78473 19.3324C7.75927 19.3349 7.73636 19.3349 7.72363 19.3069Z"/>
</mask>
<path d="M7.72363 19.3069C7.74654 19.3069 7.772 19.3044 7.78473 19.3324C7.75927 19.3349 7.73636 19.3349 7.72363 19.3069Z" fill="#FEA63B"/>
<path d="M7.72363 19.3069V18.8069H6.94713L7.26845 19.5138L7.72363 19.3069ZM7.78473 19.3324L7.83448 19.8299L8.52856 19.7605L8.23991 19.1255L7.78473 19.3324ZM7.72363 19.8069C7.74811 19.8069 7.72903 19.8069 7.72395 19.8067C7.71178 19.8063 7.6758 19.8046 7.63006 19.7925C7.58089 19.7795 7.51798 19.7538 7.45697 19.704C7.39527 19.6537 7.35451 19.5942 7.32955 19.5393L8.23991 19.1255C8.20859 19.0566 8.15987 18.9869 8.0891 18.9292C8.01903 18.872 7.94593 18.8417 7.88594 18.8258C7.82938 18.8108 7.78194 18.8081 7.75817 18.8073C7.74147 18.8067 7.71061 18.8069 7.72363 18.8069V19.8069ZM7.73498 18.8349C7.73513 18.8349 7.73898 18.8345 7.74478 18.8341C7.75064 18.8338 7.76045 18.8333 7.77294 18.8335C7.79668 18.8338 7.84086 18.8364 7.89441 18.8526C7.95152 18.8699 8.01334 18.901 8.06926 18.9513C8.12412 19.0006 8.15828 19.0549 8.17882 19.1L7.26845 19.5138C7.3303 19.6499 7.44721 19.762 7.60441 19.8096C7.72098 19.845 7.82479 19.8309 7.83448 19.8299L7.73498 18.8349Z" fill="black" mask="url(#path-21-inside-7_1189_5548)"/>
</svg>
