<svg width="26" height="26" fill="none" xmlns="http://www.w3.org/2000/svg"><g opacity=".85"><path d="M12.957 25.864c6.904 0 12.5-5.596 12.5-12.5 0-6.903-5.596-12.5-12.5-12.5-6.903 0-12.5 5.597-12.5 12.5 0 6.904 5.597 12.5 12.5 12.5z" fill="#FF4C00"/><path d="M12.957 23.972c5.859 0 10.608-4.75 10.608-10.608 0-5.858-4.75-10.607-10.608-10.607C7.1 2.757 2.35 7.506 2.35 13.364c0 5.859 4.749 10.608 10.607 10.608z" fill="#DE3B00"/><path d="M18.506 4.31a10.559 10.559 0 0 1 1.668 5.714c0 5.859-4.748 10.608-10.607 10.608-2.035 0-3.936-.573-5.551-1.566a10.6 10.6 0 0 0 8.939 4.895c5.858 0 10.607-4.75 10.607-10.608 0-3.824-2.024-7.175-5.059-9.042h.003z" fill="#C52F05"/><path d="M4.206 14.334a9.364 9.364 0 0 1 16.788-5.708A9.364 9.364 0 1 0 5.453 19.002a9.331 9.331 0 0 1-1.244-4.668h-.003z" fill="#ED7447"/></g><path d="M20.988 11.076c-.606.394-.865 1.005-1.072 1.663-.245.77-.488 1.538-.779 2.293-.42 1.083-.72 2.18-.582 3.357.06.53-.083.784-.697.778-3.705-.024-7.407-.018-11.112-.002-.517 0-.746-.151-.698-.693.221-2.4-1.088-4.418-1.678-6.614-.076-.283-.35-.337-.501-.526-.343-.425-.372-.86.013-1.258.34-.353.765-.434 1.178-.13.43.319.55.74.28 1.23-.356.651-.04 1.508.762 2.085.72.517 1.218.14 1.665-.412.534-.663.84-1.442 1.159-2.22.11-.27.067-.442-.094-.669-.335-.471-.302-.945.175-1.31.401-.306.827-.263 1.177.095.418.429.412.897-.019 1.31-.196.188-.334.326-.2.62.394.845.771 1.702 1.456 2.362.663.639 1.15.63 1.748-.035.615-.684.898-1.546 1.237-2.379.132-.326-.127-.428-.28-.609-.35-.415-.358-.865.016-1.258.34-.358.765-.42 1.177-.119.48.353.596.844.21 1.288-.288.334-.215.598-.08.908.334.77.665 1.547 1.253 2.167.654.69 1.296.743 1.918.04.488-.55 1.404-1.037.587-2.053-.272-.34-.032-.787.345-1.04.62-.418 1.038-.038 1.442.385v.746h-.006zm-6.105.049c-.34.633-.625 1.29-1.018 1.878-.925 1.374-2.04 1.404-3.112.137-.526-.62-.884-1.355-1.278-2.134-1.85 3.271-1.94 3.333-3.877 2.762.254.72.528 1.428.752 2.153.121.393.323.536.733.533 3.486-.013 6.967-.008 10.454-.008.248 0 .53.038.625-.275.237-.808.67-1.562.727-2.47-1.805.786-2.212.517-4-2.576h-.006zm-2.597 7.46c1.678 0 3.36-.032 5.038.017.652.018.695-.28.674-.779-.02-.447.059-.822-.642-.814-3.36.035-6.72.035-10.08 0-.648-.008-.667.283-.68.779-.014.555.07.835.74.814 1.646-.052 3.298-.017 4.947-.017h.003z" fill="#16120B"/><path d="M14.886 11.12c1.786 3.093 2.195 3.362 4 2.575-.056.908-.49 1.665-.727 2.47-.091.313-.377.276-.625.276-3.486 0-6.967-.006-10.454.008-.41 0-.611-.14-.733-.534-.223-.724-.498-1.433-.751-2.152 1.937.57 2.026.509 3.877-2.762.393.781.752 1.511 1.277 2.134 1.072 1.266 2.188 1.236 3.112-.138.396-.587.681-1.247 1.018-1.877h.006z" fill="#F5D336"/><path d="M12.285 18.58c-1.649 0-3.3-.035-4.947.016-.668.022-.751-.256-.74-.813.01-.499.03-.787.681-.78 3.36.036 6.72.036 10.08 0 .7-.007.622.365.64.815.022.498-.02.797-.673.778-1.678-.048-3.36-.016-5.038-.016h-.003z" fill="#FBAC3A"/><mask id="a" fill="#fff"><path d="M19.218 15.213c-.008-.036.015-.061.03-.09.013.039.01.07-.03.09z"/></mask><path d="M19.218 15.213c-.008-.036.015-.061.03-.09.013.039.01.07-.03.09z" fill="#772A0C"/><path d="m19.218 15.213-.49.105.136.63.577-.288-.223-.447zm.03-.09.475-.157-.363-1.09-.55 1.008.438.24zm.459-.015a.435.435 0 0 1-.03.269c-.008.019-.016.032-.014.027l.003-.004.005-.008a.98.98 0 0 0 .016-.029l-.878-.479c.004-.006.01-.015 0 .001-.006.01-.022.036-.038.069a.572.572 0 0 0-.042.364l.978-.21zm-.933.174c-.005-.015-.038-.113-.003-.24a.44.44 0 0 1 .223-.276l.447.894a.56.56 0 0 0 .282-.694l-.949.316z" fill="#000" mask="url(#a)"/><mask id="b" fill="#fff"><path d="M19.255 15.084c-.005-.028.013-.046.028-.064 0 .025.01.053-.028.064z"/></mask><path d="M19.255 15.084c-.005-.028.013-.046.028-.064 0 .025.01.053-.028.064z" fill="#772A0C"/><path d="m19.255 15.084-.492.089.097.533.524-.14-.129-.482zm.028-.064h.5v-1.352l-.88 1.026.38.326zm.464-.026a.45.45 0 0 1-.087.354c-.002.002-.01.012.003-.003l-.76-.65c.013-.015-.04.043-.077.108-.05.09-.09.219-.063.37l.984-.179zm-.964.026c0 .024.003.07.002.047 0 0-.004-.046.008-.105a.47.47 0 0 1 .334-.362l.257.967a.53.53 0 0 0 .39-.414c.014-.07.01-.129.01-.142-.002-.035 0-.003 0 .009h-1z" fill="#000" mask="url(#b)"/><mask id="c" fill="#fff"><path d="M9.984 12.786s-.003.02-.008.023c-.096.036-.188.084-.29.107h-.02a1.61 1.61 0 0 1 .315-.127l.003-.003z"/></mask><path d="M9.984 12.786s-.003.02-.008.023c-.096.036-.188.084-.29.107h-.02a1.61 1.61 0 0 1 .315-.127l.003-.003z" fill="#FEF67F"/><path d="m9.984 12.786.496.062.18-1.445-1.03 1.03.354.353zm-.008.023.173.47.026-.01.025-.013-.224-.447zm-.29.107v.5h.056l.055-.013-.11-.487zm-.02 0-.223-.448.223.948v-.5zm.315-.127.124.484.133-.034.097-.097-.354-.353zm.003-.003-.496-.062v-.007a.356.356 0 0 1 .007-.035.448.448 0 0 1 .073-.16.495.495 0 0 1 .185-.16l.447.894a.506.506 0 0 0 .277-.386l.002-.013v-.008l-.495-.063zm-.18-.446c-.058.021-.133.053-.159.064a.453.453 0 0 1-.068.024l.22.975c.09-.02.169-.05.225-.073l.127-.052-.346-.938zm-.117.076H9.666v1H9.687v-1zm.203.947c.098-.049.161-.076.215-.09l-.248-.969a2.09 2.09 0 0 0-.414.164l.447.895zm.445-.22.002-.003-.707-.707-.002.002.707.707z" fill="#000" mask="url(#c)"/><mask id="d" fill="#fff"><path d="M8.366 12.98c-.073.012-.14-.029-.208-.037-.01 0-.015-.015-.015-.025.076.015.155.026.223.061z"/></mask><path d="M8.366 12.98c-.073.012-.14-.029-.208-.037-.01 0-.015-.015-.015-.025.076.015.155.026.223.061z" fill="#FEF67F"/><path d="m8.366 12.98.085.492 1.465-.253-1.32-.684-.23.444zm-.208-.037.056-.496-.028-.003h-.028v.5zm-.015-.025.098-.49-.598-.12v.61h.5zm.138-.432a.316.316 0 0 1 .092-.002l.021.003a2.408 2.408 0 0 1-.052-.015.814.814 0 0 0-.128-.025l-.11.994-.028-.005a.688.688 0 0 1 .05.015.734.734 0 0 0 .325.02l-.17-.985zm-.123-.043c.282 0 .409.214.436.268a.46.46 0 0 1 .05.207h-1c0 .074.014.158.056.24a.513.513 0 0 0 .458.286v-1zm-.113.965.062.012a.754.754 0 0 1 .036.008c.017.004.01.004-.007-.005l.46-.888c-.15-.078-.33-.102-.355-.107l-.196.98z" fill="#000" mask="url(#d)"/><mask id="e" fill="#fff"><path d="M11.427 11.088c0 .028.013.061-.025.076-.013-.033.008-.053.025-.076z"/></mask><path d="M11.427 11.088c0 .028.013.061-.025.076-.013-.033.008-.053.025-.076z" fill="#FEA63B"/><path d="M11.427 11.088h.5V9.631l-.894 1.15.394.307zm-.025.076-.467.18.182.473.47-.188-.185-.465zm-.475-.076c0 .034.004.074.003.063a.21.21 0 0 0 0-.02.442.442 0 0 1 .089-.277.455.455 0 0 1 .197-.154l.372.929a.544.544 0 0 0 .338-.44c.007-.06.002-.11.001-.12-.002-.027 0 0 0 .02h-1zm.942-.103a.445.445 0 0 1-.014.351c-.017.037-.036.062-.04.068l-.003.004.01-.013-.79-.614-.019.025a.55.55 0 0 0-.078.538l.934-.359z" fill="#000" mask="url(#e)"/><mask id="f" fill="#fff"><path d="M11.392 11.21c.005.025.015.053-.028.058-.002-.025-.005-.05.028-.058z"/></mask><path d="M11.392 11.21c.005.025.015.053-.028.058-.002-.025-.005-.05.028-.058z" fill="#FEA63B"/><path d="m11.392 11.21.49-.098-.1-.505-.502.116.112.487zm-.028.058-.497.05.05.507.506-.06-.059-.497zm-.462.04c.007.037 0 .004 0 0-.002-.015-.012-.08.005-.162a.478.478 0 0 1 .399-.374l.117.993a.522.522 0 0 0 .467-.614l-.008-.04-.98.197zm.96-.09v.025a.47.47 0 0 1-.358.454l-.224-.974a.54.54 0 0 0-.394.364.558.558 0 0 0-.023.17c0 .03.003.06.004.061l.995-.1z" fill="#000" mask="url(#f)"/><mask id="g" fill="#fff"><path d="M7.03 18.928c.024 0 .05-.002.062.026-.026.002-.049.002-.061-.026z"/></mask><path d="M7.03 18.928c.024 0 .05-.002.062.026-.026.002-.049.002-.061-.026z" fill="#FEA63B"/><path d="M7.03 18.928v-.5h-.776l.322.707.455-.207zm.062.026.05.497.694-.069-.289-.635-.455.207zm-.061.474c.024 0 .005 0 0 0a.46.46 0 0 1-.394-.267l.91-.414a.542.542 0 0 0-.482-.318h-.034v1zm.011-.972h.038a.462.462 0 0 1 .406.266l-.91.413a.54.54 0 0 0 .336.296c.116.035.22.021.23.02l-.1-.995z" fill="#000" mask="url(#g)"/></svg>