<svg width="26" height="26" fill="none" xmlns="http://www.w3.org/2000/svg"><g opacity=".69" clip-path="url(#a)"><path d="M12.888 25.972c6.903 0 12.5-5.596 12.5-12.5S19.79.972 12.888.972c-6.904 0-12.5 5.596-12.5 12.5s5.596 12.5 12.5 12.5z" fill="#FFD015"/><path d="M12.888 24.082c5.86 0 10.61-4.75 10.61-10.61 0-5.86-4.75-10.61-10.61-10.61-5.86 0-10.61 4.75-10.61 10.61 0 5.86 4.75 10.61 10.61 10.61z" fill="#FFC501"/><path d="M18.438 4.417a10.556 10.556 0 0 1 1.67 5.715c0 5.858-4.75 10.61-10.61 10.61-2.036 0-3.935-.573-5.55-1.566a10.597 10.597 0 0 0 8.94 4.895c5.858 0 10.61-4.75 10.61-10.61 0-3.825-2.026-7.176-5.058-9.041l-.002-.003z" fill="#F5B611"/><path d="M4.138 14.443a9.366 9.366 0 0 1 16.79-5.709A9.366 9.366 0 1 0 5.385 19.113a9.31 9.31 0 0 1-1.244-4.667l-.003-.003z" fill="#FFD453"/></g><path d="M21.185 10.887c-.493.67-.543 1.507-.85 2.25-.139.336.23.535.362.782.374.702-.037 1.33-.493 1.432-.81.18-.865.648-.802 1.216.1.917-.302 1.216-1.154 1.104-.825-.11-1.687.216-2.489-.197.16-.369.491-.297.788-.302.61-.007 1.218 0 1.828-.015.195-.005.481.078.51-.229.038-.38-.276-.324-.51-.326-1.066-.008-2.135-.027-3.199 0-.8.02-1.514-.145-2.08-.735-.224-.234-.411-.336-.67-.045-.626.708-1.453.805-2.337.777a59.815 59.815 0 0 0-2.835 0c-.24.005-.645-.157-.66.25-.018.49.433.31.69.31 2.284.016 4.571.003 6.856.013.346 0 .75-.14.989.274-.244.344-.61.212-.927.215-2.344.01-4.691-.025-7.033.022-.835.018-1.173-.241-1.119-1.089.033-.533.142-1.116-.747-1.245-.379-.055-.917-.685-.59-1.146.695-.98.152-1.816-.045-2.726-.095-.44-.735-1.016-.045-1.343.588-.276.697.506.996.835.222.242.352.615.743.6.46-.015.526-.438.675-.76.025-.054.032-.12.065-.169.239-.354.154-1.006.757-1.011.513-.003.56.568.8.896.09.123.157.26.237.39.495.779.996.789 1.514.032.165-.242.25-.583.66-.501-.05.727-.383 1.328-1.08 1.51-1.344.346-1.49-1.002-2.11-1.697-.4.503-.395 1.15-.84 1.557-.539.493-1.114.107-1.752-.037.12.398.182.692.297.964.47 1.108.279 2.78 1.337 3.261 1.057.48 2.507.105 3.787.09.618-.008 1.077-.332 1.513-.743.274-.259.301-.423.062-.727a20.964 20.964 0 0 1-1.201-1.717c-.316-.5-.217-.994.182-1.415.369-.389 2.264-.498 2.758-.152.428.302.66.723.513 1.26-.055.2-.18.385-.296.559-.237.351-.494.692-.738 1.041-.605.862-.546 1.146.409 1.652.259.137.573.237.864.242.91.017 1.821-.02 2.73-.038.492.053 1.192.347 1.398-.167.526-1.288.86-2.653 1.323-4.155-.583.187-.949.443-1.375.356-.214-.11-.331-.261-.21-.51.796.196 1.094-.39 1.443-.902.262-.384.486-.868 1.099-.521v.732l.002-.002zm-8.388 3.346c.204-.25.52-.444.506-.805-.018-.339-.254-.74-.553-.733-.347.008-.608.426-.593.775.012.307.269.583.64.763zm-.394-2.23c.018-.264-.127-.364-.334-.341-.383.044-.607.261-.602.662 0 .215.064.538.281.479.364-.098.486-.506.655-.8zm1.642.222c-.022-.32-.244-.566-.67-.58-.182-.008-.399.089-.319.316.13.368.327.752.718.859.169.047.274-.264.271-.598v.003z" fill="#16140F"/><path d="M18.644 11.582c-.124.25-.007.399.21.51-.08.34-.158.678-.235 1.02-.588-.15-.907.177-1.123.65-.34.737-.529 1.477.074 2.185a.135.135 0 0 0-.06.112c-.909.017-1.82.055-2.73.037a2.001 2.001 0 0 1-.864-.241c-.955-.506-1.014-.793-.41-1.652.245-.346.502-.688.738-1.041.117-.175.245-.362.297-.559.147-.538-.085-.959-.513-1.26-.494-.347-2.39-.237-2.758.152-.399.418-.499.914-.182 1.415.373.59.767 1.168 1.2 1.716.242.307.215.469-.062.728-.433.413-.894.737-1.512.742-1.278.013-2.728.389-3.787-.09-1.059-.48-.867-2.154-1.338-3.26-.114-.27-.176-.564-.296-.965.638.145 1.21.53 1.751.038.444-.406.444-1.054.84-1.557.62.695.767 2.043 2.11 1.696.698-.18 1.032-.78 1.081-1.51.08-.199.162-.398.245-.595.871-.252.777-1.288 1.497-1.791.6 1.041 1.183 2.088 1.799 3.114.692 1.153 1.689 1.15 2.391.017.197-.316.396-.63.598-.949.264.267.192.735.655.742.058.245.187.441.387.596h-.003zm-3.052 3.69c.787.084 1.091-.516 1.101-1.047.01-.538-.291-1.116-1.059-1.098-.582.012-1.287.595-1.16 1.103.137.536.343 1.141 1.118 1.042zm-5.698-2.14c-.807-.02-1.123.543-1.103 1.096.022.593.369 1.118 1.176 1.061.757-.055 1.024-.588.999-1.143-.025-.57-.374-1.1-1.072-1.014zm-1.629 1.8c-.007-.527-.124-1.023-.448-1.454-.192-.257-.419-.469-.765-.376-.341.092-.444.398-.49.705-.08.53.049 1.031.3 1.495.187.346.436.782.865.68.466-.11.55-.598.538-1.052v.003z" fill="#F3C65F"/><path d="M15.13 17.451c-.24-.413-.644-.274-.99-.274-2.285-.01-4.572 0-6.856-.012-.254 0-.708.18-.69-.311.015-.407.42-.247.66-.25a59.815 59.815 0 0 1 2.835 0c.882.028 1.712-.07 2.337-.777.26-.291.444-.19.67.045.568.59 1.283.755 2.08.735 1.067-.027 2.133-.005 3.2 0 .233 0 .547-.055.51.326-.03.307-.316.224-.51.23-.611.014-1.219.007-1.83.014-.296.003-.627-.07-.787.302-.211-.008-.42-.013-.632-.023l.002-.005z" fill="#EDCF73"/><path d="M18.258 10.987c-.464-.008-.394-.476-.655-.743-.205.322-.404.633-.598.95-.703 1.133-1.7 1.133-2.392-.018-.615-1.027-1.198-2.07-1.799-3.114-.72.503-.625 1.54-1.497 1.791.027-.934.62-1.61 1.148-2.27.332-.413.65 0 .84.32.568.968 1.114 1.95 1.68 2.92.547.938 1.088.933 1.653 0 .095-.158.182-.317.287-.467.224-.326.334-.964.874-.67.419.227.7.73.459 1.303v-.002z" fill="#16140F"/><path d="M18.616 13.11c.08-.34.157-.678.235-1.02.428.09.794-.17 1.375-.356-.463 1.505-.797 2.87-1.323 4.156-.21.51-.91.216-1.398.166a.13.13 0 0 1 .06-.112c.399.187.62-.1.835-.336.563-.615.64-1.637.214-2.499h.002z" fill="#CA9254"/><path d="M12.797 14.235c-.371-.177-.628-.456-.64-.762-.015-.349.244-.767.593-.775.299-.005.535.394.553.733.017.356-.302.555-.506.804zM12.4 12.008c-.171.296-.29.703-.655.8-.219.06-.279-.264-.281-.479-.005-.403.22-.62.603-.662.21-.023.351.074.334.34zM14.045 12.227c.005.332-.1.643-.272.598-.394-.107-.588-.49-.717-.86-.08-.226.137-.323.319-.316.425.015.65.262.67.58v-.002z" fill="#CA646C"/><path d="M15.592 15.271c-.775.103-.984-.503-1.119-1.04-.129-.51.579-1.092 1.161-1.105.768-.017 1.07.559 1.06 1.1-.01.532-.315 1.13-1.102 1.045zM9.895 13.13c.702-.083 1.046.443 1.07 1.013.026.553-.238 1.089-.998 1.144-.807.057-1.154-.466-1.176-1.062-.02-.553.296-1.116 1.104-1.096zM18.616 13.11c.427.861.347 1.883-.214 2.498-.214.237-.436.523-.834.336-.603-.707-.414-1.447-.075-2.185.22-.476.538-.8 1.123-.65zm-.301.438c-.68.854-.728 1.106-.399 1.836.429-.511.616-1.052.399-1.836zM8.265 14.928c.012.453-.075.939-.538 1.051-.429.1-.675-.331-.865-.68-.249-.463-.378-.967-.301-1.495.045-.306.147-.613.49-.705.347-.095.574.12.765.376.324.431.439.927.449 1.455v-.002zM7.13 13.45c-.11.872-.074 1.455.494 1.998.316-.742.072-1.273-.494-1.998z" fill="#16140F"/><path d="M18.315 13.55c.22.785.03 1.326-.399 1.836-.33-.73-.284-.981.4-1.836zM7.132 13.453c.565.727.812 1.256.493 1.998-.568-.543-.603-1.126-.493-1.998z" fill="#CA646C"/><defs><clipPath id="a"><path fill="#fff" transform="translate(.388 .972)" d="M0 0h25v25H0z"/></clipPath></defs></svg>