<svg width="26" height="26" fill="none" xmlns="http://www.w3.org/2000/svg"><g opacity=".69" clip-path="url(#a)"><path d="M12.888 25.384c6.903 0 12.5-5.597 12.5-12.5 0-6.904-5.597-12.5-12.5-12.5-6.904 0-12.5 5.596-12.5 12.5 0 6.903 5.596 12.5 12.5 12.5z" fill="#FFD015"/><path d="M12.888 23.494c5.86 0 10.61-4.75 10.61-10.61 0-5.86-4.75-10.61-10.61-10.61-5.86 0-10.61 4.75-10.61 10.61 0 5.86 4.75 10.61 10.61 10.61z" fill="#FFC501"/><path d="M18.438 3.829a10.556 10.556 0 0 1 1.67 5.715c0 5.857-4.75 10.61-10.61 10.61-2.036 0-3.935-.573-5.55-1.566a10.597 10.597 0 0 0 8.94 4.895c5.858 0 10.61-4.75 10.61-10.61 0-3.825-2.026-7.176-5.058-9.042l-.002-.002z" fill="#F5B611"/><path d="M4.138 13.855a9.366 9.366 0 0 1 16.79-5.71A9.366 9.366 0 1 0 5.385 18.525a9.31 9.31 0 0 1-1.244-4.666l-.003-.003z" fill="#FFD453"/></g><path d="M13.88 9.743c-.03.022-.06.042-.092.06-.06.036-.121.066-.183.096a6.205 6.205 0 0 0-.082.042.532.532 0 0 1-.14.043c-.04.008-.08.016-.116.032a.588.588 0 0 1-.26.038c-.04 0-.079 0-.118.003v.154l.991-.468zm0 0 .003.017a.844.844 0 0 0 .01.047l.001.003c.04.148.098.287.149.406l.016.04c.047.113.107.239.192.354v.002l.054.072a3.228 3.228 0 0 0 .75.762c.114.084.235.153.352.213.099.05.203.095.297.134l.074.032.002.001c.06.025.131.05.213.066.053.012.106.026.16.042a.567.567 0 0 0 .171.029c.249.054.498.043.708.033l.034-.002-3.186-2.25zm5.025 1.433a3.617 3.617 0 0 1-.445.352l-.002.002a2.24 2.24 0 0 1-.28.152 6.737 6.737 0 0 0-.042.02c-.1.047-.217.101-.338.142l-.004.001a3.334 3.334 0 0 1-.335.09l-.005.001-.056.01a2.296 2.296 0 0 1-.332.048l1.839-.818zm0 0c.098.084.213.169.346.227l.101-.228-.447.001zM14.04 9.623l.027-.006c.005 0 .011 0 .017.002l-.197.131a.11.11 0 0 1-.005-.008c.044-.032.086-.066.127-.1a.123.123 0 0 1 .03-.02zm6.184 1.994a1.31 1.31 0 0 1-.006.04l-.012.072c-.008.05-.019.11-.024.153v.003c-.017.14-.032.263-.06.38-.02.078-.032.156-.043.223a2.965 2.965 0 0 1-.045.223v.002a1.856 1.856 0 0 0-.055.275v.008a.51.51 0 0 1-.026.109l-.026.1v.001l-.021.091-.02.09-.001.005a2.996 2.996 0 0 1-.021.092v.002c-.009.032-.017.07-.025.105v.005l-.005.023-.004.02a.511.511 0 0 1-.01.044.31.31 0 0 0-.048.129.31.31 0 0 0-.03.098.26.26 0 0 0-.005.02.33.33 0 0 0-.04.16l-.003.01-.007.018-.01.024a.7.7 0 0 0-.023.069l-.001.003a3.1 3.1 0 0 1-.083.258v.002a4.09 4.09 0 0 1-.178.461 6.365 6.365 0 0 1-.397.803H13.139V10.303l7.085 1.315z" fill="#FEBF2E" stroke="#000" stroke-width=".5"/><mask id="b" fill="#fff"><path d="M12.888 15.975h6.15c.03 0 .06.003.093.005-.011.079-.009.16-.009.238v1.277c0 .1 0 .2-.048.291a.563.563 0 0 1-.254.254.787.787 0 0 1-.362.068c-.81 0-1.62-.006-2.43 0-.2 0-.396.002-.596.01-.027-.024-.062-.013-.095-.013-.764 0-1.528.005-2.292 0-.958-.008-1.917 0-2.875-.005H7.548c-.03 0-.06.002-.092.005-.078-.013-.159-.003-.237-.008-.044 0-.09 0-.127-.03h5.683c.074 0 .11-.038.11-.113v-1.982l.003.003z"/></mask><path d="M12.888 15.975h6.15c.03 0 .06.003.093.005-.011.079-.009.16-.009.238v1.277c0 .1 0 .2-.048.291a.563.563 0 0 1-.254.254.787.787 0 0 1-.362.068c-.81 0-1.62-.006-2.43 0-.2 0-.396.002-.596.01-.027-.024-.062-.013-.095-.013-.764 0-1.528.005-2.292 0-.958-.008-1.917 0-2.875-.005H7.548c-.03 0-.06.002-.092.005-.078-.013-.159-.003-.237-.008-.044 0-.09 0-.127-.03h5.683c.074 0 .11-.038.11-.113v-1.982l.003.003z" fill="#FEA63B"/><path d="m12.888 15.975-.353.353.146.147h.207v-.5zm6.243.005.495.069.072-.523-.526-.044-.041.498zm-.057 1.806-.442-.233-.003.006.445.227zm-3.046.322v.5h.004l-.004-.5zm-.596.01-.335.372.152.137.203-.009-.02-.5zm-2.387-.013-.004.5.004-.5zM10.17 18.1l.002-.5h-.002v.5zm-2.714.005-.085.493.063.01.064-.005-.042-.498zm-.237-.008.034-.499-.017-.001h-.017v.5zm-.127-.03v-.5H5.646l1.137.893.309-.393zm5.794-2.095.353-.353-.853-.854v1.207h.5zm.002.503H19.04v-1H12.888v1zm6.15 0h.012l.039.004.083-.997c-.024-.002-.078-.007-.133-.007v1zm-.403-.563c-.017.122-.013.252-.013.306h1c0-.103 0-.135.004-.17l-.99-.136zm-.013.306V17.495h1V16.218h-1zm0 1.277a1.922 1.922 0 0 1-.002.087c0 .008 0-.007.012-.03l.884.468c.116-.218.107-.446.107-.525h-1zm.007.064a.091.091 0 0 1-.016.023.061.061 0 0 1-.017.011l.448.895c.214-.107.372-.274.475-.473l-.89-.456zm-.033.034c-.006.004-.032.015-.138.015v1c.149 0 .366-.01.586-.12l-.448-.895zm-.138.015c-.805 0-1.621-.006-2.433 0l.007 1c.808-.006 1.612 0 2.426 0v-1zm-2.43 0c-.204 0-.408.003-.616.011l.04 1c.191-.009.381-.011.576-.011v-1zm-.262.139a.565.565 0 0 0-.37-.144l-.072.002h.013v1c.031 0 .06-.003.063-.003h-.024a.442.442 0 0 1-.279-.112l.67-.743zm-.429-.142c-.769 0-1.526.005-2.288 0l-.008 1c.767.005 1.537 0 2.296 0v-1zm-2.288 0c-.95-.008-1.937 0-2.877-.005l-.005 1c.977.005 1.907-.003 2.874.005l.008-1zm-2.88-.005H7.549v1H10.17v-1zm-2.62 0c-.056 0-.11.005-.134.007l.083.996.038-.003h.012v-1zm-.008.012a1.152 1.152 0 0 0-.208-.014h-.08l-.069.998.095.003.063-.001h.03l.17-.986zm-.322-.015c-.03 0-.009-.001.019.003.037.007.1.025.163.074l-.618.787c.194.152.422.136.436.136v-1zm-.127.97H7.184v-1H7.091v1zm.092 0H12.775v-1H7.184v1zm5.591 0a.61.61 0 0 0 .44-.179.615.615 0 0 0 .17-.434h-1c0-.036.01-.156.115-.264a.393.393 0 0 1 .275-.123v1zm.61-.613V15.972h-1V17.954h1zm-.853-1.628.003.002.707-.707-.003-.002-.707.707z" fill="#000" mask="url(#b)"/><path d="m19.35 11.166.069.034a.714.714 0 0 0 .146.061l-.216-.095zm0 0c-.16-.069-.283-.183-.407-.298l-.063-.058.47.356zm1.22-.032-.02-.088h-.002a.442.442 0 0 0-.138.052h-.003c-.017 0-.043.002-.063.004l.225.032zm.187-.17.094.232-.537-.092c-.157.008-.275.014-.39-.01a3.259 3.259 0 0 1-.205-.05 13.75 13.75 0 0 0-.09-.025h-.003a.328.328 0 0 1-.06-.025l-.025-.012c-.026-.013-.061-.031-.09-.044h-.002c-.117-.052-.206-.134-.33-.248a10.814 10.814 0 0 0-.058-.053l-.067-.08a26.788 26.788 0 0 1-.04-.048.4.4 0 0 0-.09-.142 3.253 3.253 0 0 0-.033-.068l-.009-.019a.89.89 0 0 1-.043-.1v-.003a1.308 1.308 0 0 1-.087-.333V9.484c.012-.132.054-.263.116-.412.086-.206.218-.38.39-.526a1.78 1.78 0 0 1 .287-.194.304.304 0 0 0 .1-.038.312.312 0 0 0 .116-.046l.005-.003.027-.007.018-.004a1.19 1.19 0 0 1 .08-.017h.005c.199-.038.397-.038.596 0 .145.026.283.08.415.156h.001c.241.139.426.331.561.577l.005.008.023.043.005.01a.711.711 0 0 0 .004.01.316.316 0 0 0 .04.112.292.292 0 0 0 .036.099c.006.033.013.063.019.088l.004.016.02.094c.02.143.022.279 0 .414-.007.045-.015.079-.025.12l-.024.108a.923.923 0 0 1-.082.201 1.243 1.243 0 0 1-.256.362c-.155.144-.275.25-.42.308z" fill="#FEA63B" stroke="#000" stroke-width=".5"/><mask id="c" fill="#fff"><path d="M19.949 14.087c-.008-.037.016-.064.032-.094.013.04.01.073-.032.094z"/></mask><path d="M19.949 14.087c-.008-.037.016-.064.032-.094.013.04.01.073-.032.094z" fill="#772A0C"/><path d="m19.949 14.087-.489.105.135.63.578-.288-.224-.447zm.032-.094.474-.158-.363-1.09-.55 1.009.439.24zm.457-.01a.432.432 0 0 1-.029.265c-.009.02-.017.032-.014.027l.003-.005.005-.008a.79.79 0 0 0 .017-.03l-.878-.478-.001.002a.575.575 0 0 0-.08.436l.977-.21zm-.931.168a.437.437 0 0 1 .219-.512l.446.895a.564.564 0 0 0 .283-.699l-.948.316z" fill="#000" mask="url(#c)"/><mask id="d" fill="#fff"><path d="M19.989 13.95c-.006-.03.013-.049.03-.067 0 .026.01.056-.03.067z"/></mask><path d="M19.989 13.95c-.006-.03.013-.049.03-.067 0 .026.01.056-.03.067z" fill="#772A0C"/><path d="m19.989 13.95-.492.09.097.532.524-.14-.13-.482zm.03-.067h.5V12.53l-.88 1.026.38.326zm.462-.023a.447.447 0 0 1-.087.352l.004-.004-.76-.65c.013-.015-.041.043-.078.109-.051.09-.09.22-.063.372l.984-.179zm-.963.023c0 .025.003.07.002.048 0 0-.004-.046.008-.104a.47.47 0 0 1 .332-.36l.258.966a.53.53 0 0 0 .392-.415c.013-.07.01-.13.009-.143-.002-.036 0-.004 0 .008h-1z" fill="#000" mask="url(#d)"/><mask id="e" fill="#fff"><path d="M12.886 10.04v5.932H6.79c-.044 0-.084 0-.127.003-.06-.027-.07-.09-.097-.135a7.064 7.064 0 0 1-.314-.602c-.075-.16-.156-.319-.205-.489-.048-.164-.113-.324-.16-.488-.056-.197-.112-.392-.17-.589-.061-.216-.11-.435-.158-.65a2.467 2.467 0 0 1-.046-.246c-.011-.087-.038-.17-.057-.257-.016-.078-.022-.156-.038-.235-.019-.094-.032-.191-.048-.289-.02-.127-.027-.253-.057-.378-.016-.062-.008-.13-.014-.197.014-.105.014-.105.116-.075a.24.24 0 0 0 .076.008c.208.002.413.002.616-.062.17-.054.326-.127.477-.219.114-.07.2-.167.297-.251.208.243.462.435.738.594.143.08.294.148.456.194.03.008.056.03.089.03 0 .014.005.027.016.027.076.008.143.051.221.038.127 0 .252.043.381.043.17 0 .343.01.51-.014.146-.018.295-.03.43-.091.019-.008.04-.006.062-.008.005 0 .013.002.021 0 .108-.025.206-.076.308-.114.006 0 .006-.016.008-.024l.006-.005c.035.01.056-.02.078-.033.06-.035.13-.049.175-.105h.014a.267.267 0 0 0 .11-.07c.114-.065.214-.152.311-.24.119-.114.24-.225.343-.354.081-.103.151-.214.221-.327.081-.135.14-.28.206-.424.008-.016.008-.035.013-.054.043-.005.035-.035.03-.062l.008-.049c.04-.016.03-.05.027-.08 0-.022.003-.041.005-.063.054-.07.095-.024.13.02.021.029.057.029.08.05.136.125.306.192.473.254.17.062.351.092.535.079v.008z"/></mask><path d="M12.886 10.04v5.932H6.79c-.044 0-.084 0-.127.003-.06-.027-.07-.09-.097-.135a7.064 7.064 0 0 1-.314-.602c-.075-.16-.156-.319-.205-.489-.048-.164-.113-.324-.16-.488-.056-.197-.112-.392-.17-.589-.061-.216-.11-.435-.158-.65a2.467 2.467 0 0 1-.046-.246c-.011-.087-.038-.17-.057-.257-.016-.078-.022-.156-.038-.235-.019-.094-.032-.191-.048-.289-.02-.127-.027-.253-.057-.378-.016-.062-.008-.13-.014-.197.014-.105.014-.105.116-.075a.24.24 0 0 0 .076.008c.208.002.413.002.616-.062.17-.054.326-.127.477-.219.114-.07.2-.167.297-.251.208.243.462.435.738.594.143.08.294.148.456.194.03.008.056.03.089.03 0 .014.005.027.016.027.076.008.143.051.221.038.127 0 .252.043.381.043.17 0 .343.01.51-.014.146-.018.295-.03.43-.091.019-.008.04-.006.062-.008.005 0 .013.002.021 0 .108-.025.206-.076.308-.114.006 0 .006-.016.008-.024l.006-.005c.035.01.056-.02.078-.033.06-.035.13-.049.175-.105h.014a.267.267 0 0 0 .11-.07c.114-.065.214-.152.311-.24.119-.114.24-.225.343-.354.081-.103.151-.214.221-.327.081-.135.14-.28.206-.424.008-.016.008-.035.013-.054.043-.005.035-.035.03-.062l.008-.049c.04-.016.03-.05.027-.08 0-.022.003-.041.005-.063.054-.07.095-.024.13.02.021.029.057.029.08.05.136.125.306.192.473.254.17.062.351.092.535.079v.008z" fill="#FEF67F"/><path d="M12.886 15.972v.5h.5v-.5h-.5zm-6.223.003-.207.455.113.052.125-.008-.031-.499zm-.097-.135.43-.254-.001-.002-.43.256zm-.314-.602.452-.214-.452.214zm-.205-.489.481-.137-.001-.004-.48.141zm-.16-.488.483-.135-.002-.004-.48.139zm-.17-.589-.48.138.48-.138zm-.158-.65.487-.11v-.004l-.487.113zm-.046-.246-.497.062v.002l.497-.064zm-.057-.257-.49.101.001.006.489-.107zm-.038-.235-.49.098v.004l.49-.102zm-.048-.289-.495.074.001.009.494-.083zm-.057-.378.486-.116-.002-.01-.484.126zm-.014-.197-.496-.063-.006.051.004.052.498-.04zm.116-.075.159-.475-.01-.003-.01-.003-.139.48zm.076.008.006-.5h-.006v.5zm.616-.062-.152-.477.152.477zm.477-.219.26.428.004-.003-.264-.425zm.297-.251.38-.325-.326-.381-.38.327.326.379zm.738.594-.25.433.003.002.247-.435zm.456.194-.137.481.005.002.132-.483zm.089.03h.5v-.5h-.5v.5zm.016.027.053-.497-.026-.003H8.18v.5zm.221.038v-.5H8.36l-.042.007.084.493zm.891.03-.064-.496h-.007l.071.495zm.43-.092-.197-.46-.012.005.209.455zm.062-.008v-.5h-.031l-.031.003.062.497zm.021 0-.11-.488-.024.005-.024.008.158.475zm.308-.114v-.5h-.089l-.084.031.173.47zm.008-.024-.353-.354-.084.084-.037.112.474.158zm.006-.005.147-.478-.288-.089-.213.213.354.354zm.078-.033-.254-.43-.011.006.265.424zm.175-.105v-.5h-.238l-.15.185.388.315zm.014 0v.5h.076l.073-.023-.149-.477zm.11-.07-.247-.434-.059.033-.047.047.354.354zm.311-.24.338.368.007-.007-.345-.362zm.343-.354.392.31-.392-.31zm.221-.327.426.263.003-.006-.429-.257zm.206-.424-.448-.224-.004.01-.004.008.456.206zm.013-.054-.062-.496-.328.041-.09.318.48.137zm.03-.062-.493-.082-.015.09.018.09.49-.098zm.008-.049-.186-.464-.261.105-.046.277.493.082zm.027-.08h-.5v.022l.002.023.498-.046zm.005-.063-.396-.305-.083.108-.017.135.496.062zm.13.02.404-.295-.008-.01-.008-.011-.388.315zm.08.05.34-.368-.007-.005-.332.374zm.473.254-.174.47h.003l.171-.47zm.535.079h.5v-.539l-.537.04.037.499zm-.5.008V10.195h1V10.04h-1zm0 .154V15.972h1V10.195h-1zm.5 5.277H12.772v1H12.887v-1zm-.113 0H6.79v1H12.773v-1zm-5.983 0c-.041 0-.097 0-.158.004l.062.998c.025-.002.05-.002.096-.002v-1zm.08.048a.386.386 0 0 1 .17.154c.005.009.008.015 0-.003-.005-.011-.021-.047-.043-.085l-.862.507c-.01-.014-.013-.025-.007-.01.003.006.018.04.036.072a.63.63 0 0 0 .292.275l.414-.91zm.125.064a6.592 6.592 0 0 1-.29-.56l-.904.428c.098.208.206.429.335.644l.859-.512zm-.29-.56c-.086-.18-.143-.292-.177-.412l-.962.275c.063.22.168.426.235.565l.903-.428zm-.178-.416c-.029-.096-.061-.19-.088-.267a3.731 3.731 0 0 1-.07-.215l-.963.269c.028.099.06.193.088.273.03.085.053.154.074.223l.959-.283zm-.159-.486-.085-.295-.085-.293-.96.276c.028.1.056.198.085.295l.084.294.961-.277zm-.17-.588c-.057-.2-.102-.403-.152-.622l-.975.22c.047.212.1.445.166.678l.961-.276zm-.153-.626a1.968 1.968 0 0 1-.037-.196l-.991.128c.013.105.033.204.055.295l.973-.227zm-.036-.194c-.014-.112-.06-.283-.065-.302l-.977.214c.034.155.042.15.05.212l.992-.124zm-.063-.296a1.333 1.333 0 0 1-.014-.085c-.005-.036-.012-.092-.024-.15l-.98.203c.005.02.008.042.014.084.005.037.012.092.024.15l.98-.202zm-.038-.232c-.017-.084-.026-.157-.045-.273l-.987.165c.013.078.03.2.052.304l.98-.196zm-.044-.264c-.01-.069-.03-.272-.065-.42l-.972.232c.023.099.02.15.048.335l.99-.147zm-.067-.43a.198.198 0 0 1 .005.028V11.463l-.004-.082-.997.08v.017l.001.053c.001.042.004.123.027.213l.968-.253zm-.002-.008c.005-.039.004-.025 0-.005-.002.007-.035.166-.198.272-.162.106-.32.072-.326.07-.02-.002-.032-.007.005.004l.278-.96c-.013-.005-.064-.02-.113-.029-.035-.006-.213-.038-.39.077-.178.116-.22.293-.228.328-.012.049-.018.102-.02.116l.992.127zm-.538.335c.115.038.225.034.234.034v-1h.002a.34.34 0 0 1 .08.017l-.316.95zm.228.034c.201.002.484.007.774-.086l-.305-.952c-.115.036-.242.04-.457.038l-.012 1zm.773-.086c.21-.067.403-.157.586-.268l-.519-.854a1.69 1.69 0 0 1-.37.17l.303.952zm.59-.27c.095-.059.17-.124.227-.175.072-.065.087-.083.133-.122l-.653-.758c-.052.045-.128.117-.152.14a.585.585 0 0 1-.082.065l.527.85zm-.346-.351c.254.297.556.523.866.702l.5-.866a2.302 2.302 0 0 1-.607-.486l-.76.65zm.87.704c.171.097.36.182.566.24l.273-.962a1.58 1.58 0 0 1-.346-.148l-.493.87zm.571.242a.345.345 0 0 1-.047-.017l.002.001.018.009c.028.012.123.054.248.054v-1c.048 0 .087.008.113.016.025.007.042.014.043.015l-.003-.002-.02-.008a.768.768 0 0 0-.09-.033l-.264.965zm-.28-.453a.54.54 0 0 0 .064.254.514.514 0 0 0 .453.273v-1c.244 0 .38.164.43.256a.46.46 0 0 1 .054.217h-1zm.464.524c-.02-.002-.03-.005-.023-.004l.016.005.035.01a.744.744 0 0 0 .331.023l-.17-.986c.075-.013.127.006.109 0a.884.884 0 0 1-.02-.005l-.037-.011a.838.838 0 0 0-.135-.026l-.106.994zm.274.04a.73.73 0 0 1 .105.015c.057.01.162.029.276.029v-1a.724.724 0 0 1-.107-.014c-.055-.01-.16-.03-.274-.03v1zm.381.044c.127 0 .367.012.582-.019l-.143-.99c-.12.018-.226.009-.439.009v1zm.575-.018c.102-.013.35-.03.574-.133l-.418-.909c-.047.022-.096.026-.285.05l.129.992zm.562-.128a.435.435 0 0 1-.135.034h-.002H9.79l.055-.005-.124-.993.022-.002h-.006l-.018.002a.586.586 0 0 0-.195.045l.394.92zm-.135.033a.47.47 0 0 1-.06-.004l.024.003a.529.529 0 0 0 .216-.025l-.317-.949a.471.471 0 0 1 .192-.022l.013.001a.42.42 0 0 0-.068-.004v1zm.131-.013c.095-.02.176-.052.235-.076.072-.03.094-.04.136-.056l-.346-.938c-.06.022-.138.056-.167.068a.511.511 0 0 1-.077.027l.22.975zm.198-.1a.503.503 0 0 0 .453-.285c.03-.063.041-.12.043-.127l.003-.02a.46.46 0 0 1-.017.065l-.948-.316c-.014.04-.02.076-.02.08l.001-.005a.494.494 0 0 1 .485-.393v1zm.008-.525.354.354v-.001c.001 0 0 0 0 0l.002-.001.003-.004-.707-.707-.004.004c-.008.008.007-.007 0 0l-.001.001.353.354zm-.141.472a.548.548 0 0 0 .455-.06c.036-.022.064-.045.067-.048l-.032.022-.53-.848a.618.618 0 0 0-.047.032l-.018.015c-.008.006.009-.008.032-.022a.453.453 0 0 1 .367-.046l-.294.955zm.48-.08c-.01.006-.014.007-.003.002a.725.725 0 0 0 .312-.223l-.777-.629c.045-.056.094-.077.088-.075a.197.197 0 0 1-.02.01l-.015.006a.94.94 0 0 0-.094.049l.508.86zm-.08-.035H10.395v-1H10.38v1zm.163-.023a.766.766 0 0 0 .315-.194l-.707-.707a.26.26 0 0 1 .094-.053l.298.954zm.21-.113c.165-.095.3-.214.4-.306l-.676-.737a1.3 1.3 0 0 1-.22.175l.496.868zm.407-.313c.106-.1.26-.241.39-.405l-.784-.62c-.075.095-.164.176-.296.302l.69.723zm.39-.405c.1-.128.184-.26.255-.374l-.85-.526c-.07.113-.128.202-.19.28l.785.62zm.258-.38c.1-.167.178-.355.232-.475l-.91-.412c-.076.167-.118.27-.18.373l.858.514zm.224-.457c.037-.075.049-.142.052-.159a.409.409 0 0 0 .002-.011c0-.003 0-.002 0 0a.366.366 0 0 1-.007.03l-.962-.275a.677.677 0 0 0-.013.058l-.003.014v.002a.436.436 0 0 1 .037-.107l.894.448zm-.372.218a.525.525 0 0 0 .467-.6.649.649 0 0 0-.006-.042l-.002-.01v-.004l-.982.196c.005.02 0 .002-.002-.015a.475.475 0 0 1 .4-.517l.125.992zm.461-.476.004-.024.004-.024-.986-.165-.004.024-.004.025.986.164zm-.3.334a.547.547 0 0 0 .34-.596v.005l-.996.09a.857.857 0 0 0 .003.028c0 .006 0 .003 0 0a.459.459 0 0 1 .282-.455l.372.928zm.342-.546v.02V9.7l.002-.009-.993-.124c-.001.01-.01.065-.01.124h1zm-.098.243a.406.406 0 0 1-.169.125.456.456 0 0 1-.334.005.41.41 0 0 1-.14-.088c-.014-.014-.021-.024-.012-.012l.776-.631c-.008-.01-.034-.043-.068-.075a.59.59 0 0 0-.2-.129.544.544 0 0 0-.401.005.595.595 0 0 0-.245.19l.793.61zm-.671.008c.092.127.21.178.241.192a.557.557 0 0 0 .01.005l.004.001-.012-.006a.412.412 0 0 1-.09-.06l.664-.748a.588.588 0 0 0-.163-.103l-.008-.003c-.001 0-.001 0 0 0l.016.008a.386.386 0 0 1 .093.065.43.43 0 0 1 .053.061l-.808.588zm.146.126c.217.198.476.294.638.354l.347-.937c-.173-.065-.254-.104-.308-.153l-.677.736zm.64.355c.229.084.48.127.743.107l-.074-.997a.783.783 0 0 1-.326-.05l-.343.94zm.206-.391v.008h1v-.008h-1z" fill="#000" mask="url(#e)"/><path d="M6.705 10.653c-.034.029-.067.06-.097.087a.901.901 0 0 1-.153.127 1.936 1.936 0 0 1-.422.193l-.003.002c-.156.052-.319.052-.533.049h-.014a.681.681 0 0 0-.075-.02.321.321 0 0 0-.074-.007.392.392 0 0 0-.084-.027 1.34 1.34 0 0 1-.675-.415c-.093-.1-.17-.219-.243-.356a1.21 1.21 0 0 1-.096-.3l-.022-.094-.001-.002c-.022-.085-.02-.174-.017-.305v-.01a1.35 1.35 0 0 1 .107-.448l.001-.001c.055-.143.123-.267.211-.368l.002-.002c.172-.2.374-.348.618-.446h.001c.228-.092.47-.103.743-.075.12.012.248.058.392.13.184.09.337.2.463.344.118.135.208.279.266.44l.235-.086m-.53 1.59-1.625.616a1.625 1.625 0 0 1-.688-.456 1.872 1.872 0 0 1-.28-.41 1.502 1.502 0 0 1-.122-.371l-.02-.08c-.03-.12-.027-.24-.024-.359v-.025c.006-.184.057-.359.125-.532a1.45 1.45 0 0 1 .256-.443c.197-.229.432-.402.716-.515.28-.114.57-.122.86-.092.166.016.325.078.479.154a1.7 1.7 0 0 1 .54.405c.135.154.243.324.313.518m-.53 1.59a.511.511 0 0 1 .052-.055l.015-.014a.259.259 0 0 0 .008-.008l.003-.003c.15-.196.245-.417.3-.666V9.435m-.378 1.217.377-1.218m.153-.372.008.024c.025.067.05.136.057.208m-.065-.232-.236.084.006.017c.027.074.04.113.045.152m.25-.02h-.25v.02m.25-.02c0 .021.008.043.032.05l-.032-.05zm-.25.02a.336.336 0 0 0 .032.12m-.032-.12.032.12" fill="#FEBF2E" stroke="#000" stroke-width=".5"/><path d="M13.914 9.38a.337.337 0 0 0-.015.019.399.399 0 0 0-.049.033l-.005.005a1.216 1.216 0 0 1-.184.135l-.004.003c-.052.03-.1.054-.156.082l-.095.048-.003.002a.262.262 0 0 1-.062.016l-.011.003a.827.827 0 0 0-.166.047.138.138 0 0 1-.028.01V6.916c.048.009.098.022.152.037h.002c.16.047.305.118.444.214l.003.002c.14.094.257.22.36.37.066.095.117.209.162.339a1.4 1.4 0 0 1 .086.548v.003a.87.87 0 0 1-.027.162 3.69 3.69 0 0 0-.027.126 1.47 1.47 0 0 1-.203.454l-.002.003c-.036.054-.077.1-.133.162l-.039.043z" fill="#FEA63B" stroke="#000" stroke-width=".5"/><path d="m11.276 8.89.24-.073a1.452 1.452 0 0 1-.08-.549c.018-.185.045-.341.108-.477.104-.226.244-.415.433-.565l.002-.001c.144-.116.3-.2.47-.253.068-.021.13-.039.189-.05V9.782a1.11 1.11 0 0 1-.199-.053h-.002c-.164-.059-.292-.115-.387-.203l-.003-.003a.344.344 0 0 0-.077-.051.41.41 0 0 0-.11-.087.593.593 0 0 0-.05-.06l-.013-.016a1.445 1.445 0 0 1-.282-.493l-.239.073zm0 0c.06.193.159.363.28.519l.266-2.379c-.224.178-.386.4-.505.656-.081.176-.111.368-.13.56-.019.22.024.434.09.644z" fill="#FEBF2E" stroke="#000" stroke-width=".5"/><mask id="f" fill="#fff"><path d="M10.127 11.507s-.003.021-.009.024c-.102.038-.2.089-.307.113h-.022c.108-.054.219-.105.335-.135l.002-.002z"/></mask><path d="M10.127 11.507s-.003.021-.009.024c-.102.038-.2.089-.307.113h-.022c.108-.054.219-.105.335-.135l.002-.002z" fill="#FEF67F"/><path d="m10.127 11.507.496.062.18-1.446-1.03 1.03.354.354zm-.009.024.173.47.026-.01.025-.013-.224-.447zm-.307.113v.5h.055l.054-.012-.11-.488zm-.022 0-.224-.447.224.947v-.5zm.335-.135.124.485.133-.034.096-.097-.353-.354zm.002-.002-.496-.063v-.003l.001-.004a.346.346 0 0 1 .007-.034.444.444 0 0 1 .072-.16.495.495 0 0 1 .185-.16l.447.895a.506.506 0 0 0 .277-.387l.002-.013.001-.005v-.004l-.495-.062zm-.18-.445c-.06.022-.139.056-.168.068a.511.511 0 0 1-.077.026l.22.976a1.49 1.49 0 0 0 .234-.076c.072-.03.094-.04.136-.056l-.345-.938zm-.135.082H9.79v1H9.81v-1zm.202.948c.104-.052.174-.083.235-.098L10 11.025a2.19 2.19 0 0 0-.435.172l.448.895zm.464-.229.003-.003-.707-.707-.003.003.707.707z" fill="#000" mask="url(#f)"/><mask id="g" fill="#fff"><path d="M8.406 11.712c-.078.013-.148-.03-.221-.038-.011 0-.017-.016-.017-.027.081.016.165.027.238.065z"/></mask><path d="M8.406 11.712c-.078.013-.148-.03-.221-.038-.011 0-.017-.016-.017-.027.081.016.165.027.238.065z" fill="#FEF67F"/><path d="m8.406 11.712.085.493 1.465-.253-1.32-.684-.23.444zm-.221-.038.055-.497-.028-.003h-.027v.5zm-.017-.027.099-.49-.599-.12v.61h.5zm.153-.428a.307.307 0 0 1 .088-.003c.017.003.026.006.018.003-.004 0-.008-.002-.018-.005l-.037-.01a.845.845 0 0 0-.132-.027l-.11.994c-.02-.002-.031-.006-.024-.004l.018.005.035.01c.054.016.18.049.332.023l-.17-.986zm-.136-.045c.281 0 .408.213.435.267a.458.458 0 0 1 .048.206h-1c0 .074.016.159.057.241a.514.514 0 0 0 .46.286v-1zm-.115.963a4.96 4.96 0 0 0 .106.021c.02.005.014.005 0-.002l.46-.888c-.154-.08-.34-.105-.37-.111l-.196.98z" fill="#000" mask="url(#g)"/><mask id="h" fill="#fff"><path d="M11.662 9.7c0 .03.014.065-.027.08-.013-.034.009-.055.027-.08z"/></mask><path d="M11.662 9.7c0 .03.014.065-.027.08-.013-.034.009-.055.027-.08z" fill="#FEA63B"/><path d="M11.662 9.7h.5V8.243l-.894 1.15.394.307zm-.027.08-.466.18.182.473.47-.188-.185-.464zm-.473-.08c0 .035.004.075.003.064v-.005a.459.459 0 0 1 .285-.442l.371.928a.546.546 0 0 0 .34-.442c.007-.06.002-.11.001-.12-.002-.028 0-.002 0 .017h-1zm.94-.099a.444.444 0 0 1-.053.416l-.002.004.01-.014-.79-.614a.607.607 0 0 0-.083.13.554.554 0 0 0-.015.437l.933-.359z" fill="#000" mask="url(#h)"/><mask id="i" fill="#fff"><path d="M11.625 9.83c.005.027.016.056-.03.062-.003-.027-.005-.054.03-.062z"/></mask><path d="M11.625 9.83c.005.027.016.056-.03.062-.003-.027-.005-.054.03-.062z" fill="#FEA63B"/><path d="m11.625 9.83.49-.098-.101-.505-.502.116.113.487zm-.03.062-.497.05.05.506.506-.06-.059-.496zm-.46.036c.007.037 0 .005 0 0a.477.477 0 0 1 .402-.533l.117.993a.548.548 0 0 0 .263-.103.523.523 0 0 0 .206-.513l-.008-.04-.98.196zm.958-.086v.023a.47.47 0 0 1-.357.452l-.224-.974a.543.543 0 0 0-.395.366.56.56 0 0 0-.02.232l.996-.1z" fill="#000" mask="url(#i)"/><mask id="j" fill="#fff"><path d="m6.666 15.98.126-.002H12.89v1.981c0 .076-.037.114-.11.114H7.094c-.014 0-.03 0-.043-.003-.011-.03-.038-.027-.065-.027a.479.479 0 0 1-.284-.273.389.389 0 0 1-.037-.148V15.98z"/></mask><path d="m6.666 15.98.126-.002H12.89v1.981c0 .076-.037.114-.11.114H7.094c-.014 0-.03 0-.043-.003-.011-.03-.038-.027-.065-.027a.479.479 0 0 1-.284-.273.389.389 0 0 1-.037-.148V15.98z" fill="#FEBF2E"/><path d="M6.666 15.98v-.5h-.5v.5h.5zm6.223-.002h.5v-.5h-.5v.5zM7.052 18.07l-.47.17.096.265.276.055.098-.49zm-.065-.027-.17.47.083.03h.087v-.5zm-.284-.273-.462.19.004.01.458-.2zm-.037-1.29.08-.001.046-.001v-1a2.259 2.259 0 0 0-.126.002v1zm.126-.002H12.775v-1H6.792v1zm5.983 0H12.889v-1H12.775v1zm-.386-.5V17.959h1V15.978h-1zm0 1.981c0-.036.009-.155.114-.264a.393.393 0 0 1 .275-.122v1a.61.61 0 0 0 .44-.18.615.615 0 0 0 .17-.434h-1zm.39-.386H7.186v1H12.778v-1zm-5.592 0H7.094v1H7.187v-1zm-.092 0c-.009 0-.005 0 0 0a.46.46 0 0 1 .055.007l-.196.98c.07.015.14.013.14.013v-1zm.427.326a.54.54 0 0 0-.499-.356h-.036v1h.004a.464.464 0 0 1-.409-.302l.94-.342zm-.366-.326h.002a.044.044 0 0 1 .007.007l.003.002a.089.089 0 0 1-.007-.012l-.916.4c.105.24.293.443.572.544l.34-.941zm.01.007a.583.583 0 0 1-.008-.02c-.001-.003-.001-.002 0 0 .002.008.008.03.008.062h-1c0 .164.058.297.075.339l.925-.381zm0 .042V15.98h-1V17.622h1z" fill="#000" mask="url(#j)"/><mask id="k" fill="#fff"><path d="M6.986 18.04c.024 0 .051-.002.065.027-.027.003-.051.003-.065-.027z"/></mask><path d="M6.986 18.04c.024 0 .051-.002.065.027-.027.003-.051.003-.065-.027z" fill="#FEA63B"/><path d="M6.986 18.04v-.5H6.21l.321.707.455-.207zm.065.027.05.498.693-.07-.288-.635-.455.207zm-.065.473h.002a.459.459 0 0 1-.392-.266l.91-.414a.545.545 0 0 0-.484-.32h-.036v1zm.015-.97h.002l.007-.001h.028a.461.461 0 0 1 .404.265l-.91.413c.061.137.179.25.336.297.118.036.222.022.232.02L7 17.57z" fill="#000" mask="url(#k)"/><defs><clipPath id="a"><path fill="#fff" transform="translate(.388 .384)" d="M0 0h25v25H0z"/></clipPath></defs></svg>