<svg width="27" height="27" fill="none" xmlns="http://www.w3.org/2000/svg"><g opacity=".69" clip-path="url(#a)"><path d="M13.769 26.384c6.904 0 12.5-5.597 12.5-12.5 0-6.904-5.596-12.5-12.5-12.5s-12.5 5.596-12.5 12.5c0 6.903 5.596 12.5 12.5 12.5z" fill="#FFD015"/><path d="M13.769 24.494c5.86 0 10.61-4.75 10.61-10.61 0-5.86-4.75-10.61-10.61-10.61-5.86 0-10.61 4.75-10.61 10.61 0 5.86 4.75 10.61 10.61 10.61z" fill="#FFC501"/><path d="M19.319 4.829a10.555 10.555 0 0 1 1.67 5.715c0 5.857-4.749 10.61-10.61 10.61-2.036 0-3.934-.573-5.55-1.566a10.597 10.597 0 0 0 8.94 4.895c5.858 0 10.61-4.75 10.61-10.61 0-3.825-2.025-7.176-5.057-9.042l-.003-.002z" fill="#F5B611"/><path d="M5.02 14.855a9.366 9.366 0 0 1 16.789-5.71A9.366 9.366 0 1 0 6.266 19.525a9.31 9.31 0 0 1-1.244-4.666l-.003-.003z" fill="#FFD453"/></g><circle cx="13.769" cy="13.384" r="12" stroke="#FFFEFE" stroke-width="2"/><path d="M14.762 10.743c-.03.022-.06.042-.093.06-.06.036-.12.066-.182.096l-.082.042c-.046.023-.094.033-.141.043a.554.554 0 0 0-.116.032.588.588 0 0 1-.26.038c-.039 0-.079 0-.118.003v.154l.992-.468zm0 0 .003.016v.001c.002.011.005.029.01.047v.003c.04.148.098.287.149.406l.016.04.231-.097m-.41-.416.661 1.239m-.25-.822c.042.105.094.21.161.302l.06.08c.068.093.138.187.216.274m-.438-.657-.016-.039-.067-.161.083.2zm.438.656-.188.166.001.001m.187-.166-.186.167v-.001m.186-.166c.143.161.302.302.475.429.1.073.208.135.318.192a4.214 4.214 0 0 0 .357.159c.051.021.105.04.165.051m-1.502-.665c.157.177.33.329.514.464.115.084.235.153.352.213.1.05.203.095.297.134l.075.032.002.001c.06.025.13.05.212.066m.05-.245-.054.244.004.001m.05-.245c.062.014.124.03.186.049l-.236.196m.05-.245-.045.246h-.005m3.883-.546-.05.245a2.775 2.775 0 0 1-.17-.042l-.026-.007-.12-.03a.783.783 0 0 1-.21-.086.784.784 0 0 0-.049-.024l.101-.228-.1.228a1.44 1.44 0 0 1-.347-.227 3.617 3.617 0 0 1-.445.352l-.002.002c-.092.06-.188.109-.28.152l-.042.02a3.17 3.17 0 0 1-.338.142l-.004.001a3.348 3.348 0 0 1-.335.09l-.005.001-.056.01a2.297 2.297 0 0 1-.332.048l3.17-.515.002.004a.222.222 0 0 0 .117.109h.003c.017.007.031.01.041.012.016.003.027.002.024.002l-.02.001h-.006c-.01.002-.023.003-.038.003h-.002l-.032.002a6.042 6.042 0 0 1-.1.005.534.534 0 0 0 .002-.119l-.001-.013v-.013l-.002-.028-.001-.008v.002c0 .002.002.012.007.025h.246m-.6-.116c.148.031.296.023.442.015l.025-.001c.066-.004.097-.01.113.003.014.012.016.04.02.1m-.6-.117c-.06-.012-.12-.028-.18-.044-.042-.012-.085-.024-.128-.034l.308.078zm.6.117v.008m0-.008v.008m0 0c.011.107-.007.213-.026.317a2.627 2.627 0 0 0-.02.125l.046-.442zm-6.436-1.85.027-.005c.006 0 .011 0 .017.002l-.196.131a.091.091 0 0 1-.005-.008c.044-.032.085-.066.127-.1a.123.123 0 0 1 .03-.02zm-.901 6.116V11.303v5.436z" fill="#FEBF2E" stroke="#000" stroke-width=".5"/><mask id="b" fill="#fff"><path d="M13.77 16.975h6.15c.03 0 .06.003.092.005-.01.079-.008.16-.008.238v1.277c0 .1 0 .2-.049.291a.563.563 0 0 1-.254.254.787.787 0 0 1-.361.068c-.81 0-1.62-.006-2.43 0-.2 0-.397.002-.597.01-.027-.024-.062-.013-.094-.013-.765 0-1.529.005-2.293 0-.958-.008-1.917 0-2.875-.005H8.429c-.03 0-.059.002-.091.005-.079-.013-.16-.003-.238-.008-.043 0-.09 0-.127-.03h5.683c.074 0 .111-.038.111-.113v-1.982l.003.003z"/></mask><path d="M13.77 16.975h6.15c.03 0 .06.003.092.005-.01.079-.008.16-.008.238v1.277c0 .1 0 .2-.049.291a.563.563 0 0 1-.254.254.787.787 0 0 1-.361.068c-.81 0-1.62-.006-2.43 0-.2 0-.397.002-.597.01-.027-.024-.062-.013-.094-.013-.765 0-1.529.005-2.293 0-.958-.008-1.917 0-2.875-.005H8.429c-.03 0-.059.002-.091.005-.079-.013-.16-.003-.238-.008-.043 0-.09 0-.127-.03h5.683c.074 0 .111-.038.111-.113v-1.982l.003.003z" fill="#FEA63B"/><path d="m13.77 16.975-.354.353.147.147h.207v-.5zm6.242.005.495.069.072-.523-.526-.044-.041.498zm-.057 1.806-.442-.233-.003.006.445.227zm-3.045.322v.5h.003l-.003-.5zm-.597.01-.334.372.15.137.204-.009-.02-.5zm-2.387-.013-.004.5.004-.5zm-2.875-.005.003-.5h-.003v.5zm-2.713.005-.085.493.063.01.063-.005-.041-.498zm-.238-.008.034-.499-.017-.001H8.1v.5zm-.127-.03v-.5H6.527l1.137.893.31-.393zm5.794-2.095.354-.353-.854-.854v1.207h.5zm.003.503H19.92v-1H13.77v1zm6.15 0h.012l.038.004.083-.997c-.024-.002-.078-.007-.133-.007v1zm-.403-.563c-.017.122-.013.252-.013.306h1c0-.103-.002-.135.003-.17l-.99-.136zm-.013.306V18.495h1V17.218h-1zm0 1.277v.06a.294.294 0 0 1-.003.027c0 .008 0-.007.012-.03l.884.468c.116-.218.107-.446.107-.525h-1zm.006.064a.093.093 0 0 1-.015.023.061.061 0 0 1-.017.011l.447.895c.214-.107.373-.274.475-.473l-.89-.456zm-.032.034c-.007.004-.033.015-.138.015v1c.148 0 .365-.01.585-.12l-.447-.895zm-.138.015c-.806 0-1.622-.006-2.434 0l.007 1c.808-.006 1.612 0 2.427 0v-1zm-2.43 0c-.204 0-.409.003-.617.011l.04 1c.191-.009.381-.011.577-.011v-1zm-.262.139a.565.565 0 0 0-.37-.144l-.073.002h.014v1c.03 0 .06-.003.062-.003h-.024a.441.441 0 0 1-.279-.112l.67-.743zm-.43-.142c-.768 0-1.526.005-2.288 0l-.007 1c.766.005 1.537 0 2.296 0v-1zm-2.287 0c-.95-.008-1.938 0-2.877-.005l-.006 1c.977.005 1.907-.003 2.874.005l.009-1zm-2.88-.005H8.429v1H11.051v-1zm-2.622 0c-.055 0-.108.005-.133.007l.083.996.039-.003h.011v-1zm-.006.012a1.152 1.152 0 0 0-.208-.014h-.08l-.07.998.095.003.063-.001h.03l.17-.986zm-.323-.015c-.029 0-.008-.001.02.003.036.007.1.025.162.074l-.618.787c.195.152.422.136.436.136v-1zm-.127.97H8.065v-1H7.973v1zm.092 0H13.656v-1H8.065v1zm5.591 0c.117 0 .296-.03.441-.179a.615.615 0 0 0 .17-.434h-1c0-.036.009-.156.115-.264a.393.393 0 0 1 .274-.123v1zm.611-.613V16.972h-1V18.954h1zm-.853-1.628.002.002.707-.707-.002-.002-.707.707z" fill="#000" mask="url(#b)"/><path d="m19.459 9.977.23.096c.087-.206.218-.38.39-.526.087-.073.183-.137.287-.194a.306.306 0 0 0 .101-.038.287.287 0 0 0 .116-.046l.004-.003a5.976 5.976 0 0 0 .045-.01c.032-.008.057-.014.08-.018h.005c.2-.038.397-.038.596 0h.001c.144.026.282.08.414.156h.002c.24.139.425.331.56.577l.005.008a.572.572 0 0 1 .028.054l.005.01a.322.322 0 0 0 .038.11.293.293 0 0 0 .037.1c.006.033.013.063.02.088 0 .006.002.01.003.016a1.327 1.327 0 0 1-.005.627l-.024.109a.918.918 0 0 1-.082.201 1.24 1.24 0 0 1-.256.362c-.155.144-.274.25-.419.308h-.001l.093.232-.537-.092c-.156.008-.274.014-.39-.01-.07-.014-.133-.031-.205-.05a12.222 12.222 0 0 0-.09-.025h-.003a.33.33 0 0 1-.06-.025l-.025-.012c-.026-.013-.06-.031-.09-.044h-.001c-.118-.052-.207-.134-.331-.248l-.058-.053a12.98 12.98 0 0 0-.067-.08l-.04-.048a.399.399 0 0 0-.09-.142l-.032-.068-.01-.019a.871.871 0 0 1-.042-.1l-.001-.003a1.31 1.31 0 0 1-.086-.333V10.485c.011-.132.053-.263.115-.412l-.23-.096zm0 0a1.618 1.618 0 0 0-.135.497l.594-1.118c-.2.17-.357.375-.46.62zm1.992 2.157-.019-.088h-.003a.44.44 0 0 0-.138.052h-.003c-.016 0-.042.002-.062.004l.225.032z" fill="#FEA63B" stroke="#000" stroke-width=".5"/><mask id="c" fill="#fff"><path d="M20.83 15.087c-.008-.037.016-.064.032-.094.014.04.011.073-.032.094z"/></mask><path d="M20.83 15.087c-.008-.037.016-.064.032-.094.014.04.011.073-.032.094z" fill="#772A0C"/><path d="m20.83 15.087-.489.105.136.63.577-.288-.224-.447zm.032-.094.475-.158-.363-1.09-.55 1.009.438.24zm.457-.01a.43.43 0 0 1-.029.265c-.008.02-.016.032-.013.027l.002-.005.006-.008.016-.03-.878-.478c.004-.006.009-.015-.001.002a.576.576 0 0 0-.08.436l.977-.21zm-.931.168a.437.437 0 0 1 .219-.512l.447.895a.563.563 0 0 0 .283-.699l-.949.316z" fill="#000" mask="url(#c)"/><mask id="d" fill="#fff"><path d="M20.87 14.95c-.005-.03.014-.049.03-.067 0 .026.01.056-.03.067z"/></mask><path d="M20.87 14.95c-.005-.03.014-.049.03-.067 0 .026.01.056-.03.067z" fill="#772A0C"/><path d="m20.87 14.95-.492.09.097.532.524-.14-.129-.482zm.03-.067h.5V13.53l-.88 1.026.38.326zm.462-.023a.447.447 0 0 1-.086.352c-.002.002-.01.011.003-.004l-.76-.65c.013-.015-.041.043-.078.109-.05.09-.09.22-.063.372l.984-.179zm-.962.023c0 .025.003.07.001.048 0 0-.003-.046.008-.104a.47.47 0 0 1 .332-.36l.258.966a.531.531 0 0 0 .392-.415c.013-.07.01-.13.009-.143-.002-.036 0-.004 0 .008h-1z" fill="#000" mask="url(#d)"/><mask id="e" fill="#fff"><path d="M13.767 11.04v5.932H7.671c-.043 0-.084 0-.127.003-.06-.027-.07-.09-.097-.135a7.061 7.061 0 0 1-.313-.602c-.076-.16-.157-.319-.205-.489-.05-.164-.114-.324-.16-.488l-.17-.589c-.062-.216-.11-.435-.16-.65a2.464 2.464 0 0 1-.045-.246c-.01-.087-.038-.17-.057-.257-.016-.078-.021-.156-.038-.235-.018-.094-.032-.191-.048-.289-.019-.127-.027-.253-.057-.378-.016-.062-.008-.13-.013-.197.013-.105.013-.105.116-.075.024.008.051.008.075.008.208.002.413.002.616-.062.17-.054.327-.127.478-.219.113-.07.2-.167.297-.251.208.243.461.435.737.594.143.08.294.148.456.194.03.008.057.03.09.03 0 .014.005.027.015.027.076.008.144.051.222.038.127 0 .25.043.38.043.17 0 .343.01.51-.014.147-.018.295-.03.43-.091.019-.008.04-.006.062-.008.006 0 .014.002.022 0 .108-.025.205-.076.308-.114.005 0 .005-.016.008-.024l.005-.005c.035.01.057-.02.078-.033.06-.035.13-.049.176-.105h.013a.267.267 0 0 0 .111-.07c.113-.065.213-.152.31-.24.12-.114.24-.225.343-.354.081-.103.152-.214.222-.327.08-.135.14-.28.205-.424.008-.016.008-.035.014-.054.043-.005.035-.035.03-.062l.007-.049c.04-.016.03-.05.027-.08 0-.022.003-.041.006-.063.054-.07.094-.024.13.02.02.029.056.029.08.05.135.125.305.192.473.254.17.062.35.092.534.079v.008z"/></mask><path d="M13.767 11.04v5.932H7.671c-.043 0-.084 0-.127.003-.06-.027-.07-.09-.097-.135a7.061 7.061 0 0 1-.313-.602c-.076-.16-.157-.319-.205-.489-.05-.164-.114-.324-.16-.488l-.17-.589c-.062-.216-.11-.435-.16-.65a2.464 2.464 0 0 1-.045-.246c-.01-.087-.038-.17-.057-.257-.016-.078-.021-.156-.038-.235-.018-.094-.032-.191-.048-.289-.019-.127-.027-.253-.057-.378-.016-.062-.008-.13-.013-.197.013-.105.013-.105.116-.075.024.008.051.008.075.008.208.002.413.002.616-.062.17-.054.327-.127.478-.219.113-.07.2-.167.297-.251.208.243.461.435.737.594.143.08.294.148.456.194.03.008.057.03.09.03 0 .014.005.027.015.027.076.008.144.051.222.038.127 0 .25.043.38.043.17 0 .343.01.51-.014.147-.018.295-.03.43-.091.019-.008.04-.006.062-.008.006 0 .014.002.022 0 .108-.025.205-.076.308-.114.005 0 .005-.016.008-.024l.005-.005c.035.01.057-.02.078-.033.06-.035.13-.049.176-.105h.013a.267.267 0 0 0 .111-.07c.113-.065.213-.152.31-.24.12-.114.24-.225.343-.354.081-.103.152-.214.222-.327.08-.135.14-.28.205-.424.008-.016.008-.035.014-.054.043-.005.035-.035.03-.062l.007-.049c.04-.016.03-.05.027-.08 0-.022.003-.041.006-.063.054-.07.094-.024.13.02.02.029.056.029.08.05.135.125.305.192.473.254.17.062.35.092.534.079v.008z" fill="#FEF67F"/><path d="M13.767 16.972v.5h.5v-.5h-.5zm-6.223.003-.207.455.114.052.124-.008-.03-.499zm-.097-.135.43-.253v-.003l-.43.256zm-.313-.602.452-.214-.452.214zm-.205-.489.48-.137v-.004l-.48.141zm-.16-.488.482-.135-.001-.004-.48.139zm-.17-.589-.48.138.48-.138zm-.16-.65.489-.11-.001-.004-.487.113zm-.045-.246-.496.062v.002l.496-.064zm-.057-.257-.49.101.002.006.488-.107zm-.038-.235-.49.098v.004l.49-.102zm-.048-.289-.495.074.002.009.493-.083zm-.057-.378.487-.116-.003-.01-.484.126zm-.013-.197-.496-.063-.007.051.004.052.499-.04zm.116-.075.158-.475-.01-.003-.01-.003-.138.48zm.075.008.007-.5h-.007v.5zm.616-.062-.151-.477h-.001l.152.477zm.478-.219.26.428.003-.003-.263-.425zm.297-.251.38-.325-.326-.381-.38.327.326.379zm.737.594-.25.433.004.002.246-.435zm.456.194-.136.481.005.002.131-.483zm.09.03h.5v-.5h-.5v.5zm.015.027.054-.497-.027-.003h-.027v.5zm.222.038v-.5H9.24l-.042.007.085.493zm.89.03-.063-.496h-.008l.072.495zm.43-.092-.197-.46-.012.005.21.455zm.062-.008v-.5h-.031l-.03.003.061.497zm.022 0-.11-.488-.024.005-.024.008.158.475zm.308-.114v-.5h-.09l-.083.031.173.47zm.008-.024-.354-.354-.083.084-.038.112.475.158zm.005-.005.147-.478-.288-.089-.213.213.354.354zm.078-.033-.254-.43-.01.006.264.424zm.176-.105v-.5h-.239l-.15.185.389.315zm.013 0v.5h.077l.072-.023-.149-.477zm.111-.07-.248-.434-.058.033-.047.047.353.354zm.31-.24.338.368.008-.007-.345-.362zm.343-.354.392.31-.392-.31zm.222-.327.425.263.004-.006-.43-.257zm.205-.424-.447-.224-.005.01-.003.008.455.206zm.014-.054-.063-.496-.328.041-.09.318.48.137zm.03-.062-.494-.082-.015.09.018.09.49-.098zm.007-.049-.185-.464-.262.105-.046.277.493.082zm.027-.08h-.5v.022l.002.023.498-.046zm.006-.063-.397-.305-.083.108-.017.135.497.062zm.13.02.404-.295-.008-.01-.009-.011-.388.315zm.08.05.339-.367-.007-.006-.332.373zm.473.254-.174.47h.002l.172-.47zm.534.079h.5v-.538l-.536.039.036.499zm-.5.008V11.195h1V11.04h-1zm0 .154V16.972h1V11.195h-1zm.5 5.277H13.653v1H13.768v-1zm-.113 0H7.67v1H13.654v-1zm-5.983 0c-.041 0-.097 0-.158.004l.062.998c.025-.002.05-.002.096-.002v-1zm.08.048a.386.386 0 0 1 .17.154c.005.009.008.015 0-.003-.005-.011-.02-.047-.043-.084l-.862.506c-.009-.014-.013-.025-.007-.01.004.006.018.04.036.072a.63.63 0 0 0 .292.275l.414-.91zm.125.064a6.589 6.589 0 0 1-.29-.56l-.904.428c.099.208.207.429.336.644l.858-.512zm-.29-.56c-.085-.18-.142-.292-.177-.412l-.961.275c.063.22.168.426.234.565l.903-.428zm-.178-.416c-.028-.096-.06-.19-.088-.267a3.74 3.74 0 0 1-.07-.215l-.962.269c.027.099.06.193.087.273.03.085.054.154.074.223l.96-.283zm-.158-.486a159.306 159.306 0 0 0-.17-.588l-.961.276.085.295.085.294.96-.277zm-.17-.588c-.058-.2-.103-.403-.152-.622l-.976.22c.048.212.1.445.167.678l.96-.276zm-.153-.626a1.974 1.974 0 0 1-.037-.196l-.992.128c.014.105.034.204.055.295l.974-.227zm-.037-.194c-.014-.112-.06-.283-.064-.302l-.977.214c.034.155.041.15.049.212l.992-.124zm-.063-.296a1.333 1.333 0 0 1-.013-.085c-.005-.036-.013-.092-.025-.15l-.98.203c.005.02.008.042.014.084.005.037.013.092.025.15l.979-.202zm-.037-.232c-.017-.084-.027-.157-.046-.273l-.986.165c.013.078.03.2.051.304l.98-.196zm-.045-.264c-.01-.069-.029-.272-.065-.42l-.972.232c.024.099.02.15.048.335l.99-.147zm-.067-.43a.196.196 0 0 1 .006.028v-.01l-.001-.018v-.029c0-.02-.001-.05-.004-.082l-.997.08v.017l.001.053c.001.042.004.123.027.213l.968-.253zm-.001-.008c.005-.039.004-.025-.001-.005-.002.007-.035.166-.198.272-.162.106-.32.072-.326.07-.02-.002-.032-.007.006.004l.278-.96c-.014-.005-.065-.02-.114-.029-.035-.006-.213-.038-.39.077-.177.116-.219.293-.228.328-.011.049-.018.102-.02.116l.993.127zm-.538.335c.114.038.225.034.233.034v-1h.002a.34.34 0 0 1 .08.017l-.315.95zm.227.034c.201.002.484.007.774-.086l-.304-.952c-.115.036-.243.04-.457.038l-.013 1zm.773-.086c.21-.067.404-.157.586-.268l-.519-.854a1.69 1.69 0 0 1-.37.17l.303.952zm.59-.27c.095-.059.171-.124.228-.175.071-.065.087-.083.132-.122l-.652-.758c-.052.045-.128.117-.153.14a.586.586 0 0 1-.081.065l.526.85zm-.346-.351c.254.297.557.523.867.702l.5-.866a2.302 2.302 0 0 1-.607-.486l-.76.65zm.87.704c.171.097.36.182.567.24l.272-.962a1.58 1.58 0 0 1-.346-.148l-.492.87zm.572.242c-.027-.008-.046-.016-.048-.017l.002.001.019.009c.027.012.122.054.247.054v-1c.048 0 .087.008.114.016.025.007.041.014.043.015l-.004-.002-.02-.008a.765.765 0 0 0-.09-.033l-.263.965zm-.28-.453a.54.54 0 0 0 .063.254.514.514 0 0 0 .453.273v-1c.244 0 .38.164.43.256a.46.46 0 0 1 .054.217h-1zm.463.524c-.019-.002-.03-.005-.023-.004l.016.005.035.01a.744.744 0 0 0 .332.023l-.17-.986c.074-.013.127.006.108 0a.884.884 0 0 1-.02-.005l-.037-.011a.838.838 0 0 0-.134-.026l-.107.994zm.275.04a.73.73 0 0 1 .105.015c.057.01.161.029.276.029v-1a.724.724 0 0 1-.108-.014c-.055-.01-.16-.03-.273-.03v1zm.38.044c.128 0 .368.012.583-.019l-.144-.99c-.12.018-.225.009-.438.009v1zm.575-.018c.102-.013.351-.03.574-.133l-.418-.909c-.047.022-.095.026-.284.05l.128.992zm.562-.128a.434.434 0 0 1-.135.034h-.002.01l.054-.005-.124-.993.022-.002h-.006l-.018.002a.586.586 0 0 0-.195.045l.394.92zm-.135.033a.47.47 0 0 1-.059-.004l.024.003a.529.529 0 0 0 .215-.025l-.316-.949a.471.471 0 0 1 .191-.022l.013.001a.435.435 0 0 0-.068-.004v1zm.132-.013c.094-.02.175-.052.234-.076.072-.03.094-.04.136-.056l-.345-.938c-.06.022-.139.056-.168.068a.511.511 0 0 1-.077.027l.22.975zm.198-.1a.503.503 0 0 0 .452-.285c.031-.063.042-.12.043-.127l.004-.02-.004.018a.46.46 0 0 1-.013.047l-.949-.316a.534.534 0 0 0-.02.08l.001-.005a.494.494 0 0 1 .485-.393v1zm.008-.525.353.354v-.001c.002 0 0 0 0 0h.001c.002-.002 0 0 0-.001l.005-.004-.707-.707-.004.004c-.008.008.006-.007-.001 0-.002.002 0 0 0 .001l.353.354zm-.142.472a.548.548 0 0 0 .455-.06c.036-.022.064-.045.067-.048.014-.01-.006.006-.032.022l-.53-.848a.607.607 0 0 0-.046.032c-.01.007-.018.014-.018.015-.008.006.008-.008.031-.022a.453.453 0 0 1 .367-.046l-.294.955zm.48-.08c-.01.006-.013.007-.002.002l.058-.026a.725.725 0 0 0 .253-.197l-.777-.629c.046-.056.094-.077.088-.075a.197.197 0 0 1-.01.005l-.01.005-.015.006a.95.95 0 0 0-.094.049l.509.86zm-.08-.035H11.276v-1H11.261v1zm.164-.023a.767.767 0 0 0 .315-.194l-.707-.707a.257.257 0 0 1 .094-.053l.297.954zm.21-.113c.165-.095.3-.214.4-.306l-.676-.737c-.095.086-.16.14-.221.175l.496.868zm.407-.313c.106-.1.26-.241.39-.405l-.785-.62c-.075.095-.164.176-.296.302l.69.723zm.39-.405c.1-.128.184-.26.254-.374l-.85-.526c-.07.113-.127.202-.189.28l.785.62zm.258-.38c.1-.167.178-.355.232-.475l-.912-.412c-.075.167-.117.27-.178.373l.857.514zm.223-.457c.037-.075.05-.142.052-.159l.002-.011c0-.003 0-.002 0 0s-.002.014-.007.03L12 10.746a.636.636 0 0 0-.014.058l-.002.014v.002l.006-.031a.426.426 0 0 1 .03-.075l.894.447zm-.372.218a.525.525 0 0 0 .46-.642v-.01l-.002-.004-.98.196c.004.02 0 .002-.002-.015a.475.475 0 0 1 .4-.517l.124.992zm.461-.476.004-.024.005-.024-.987-.165-.004.024-.004.025.986.164zm-.299.334a.548.548 0 0 0 .341-.572l-.002-.024v.005l-.996.09.003.028c.001.006 0 .003 0 0 0-.006-.004-.045.003-.096a.459.459 0 0 1 .28-.36l.371.929zm.341-.546v.02-.011l.002-.009-.992-.124c-.002.01-.01.065-.01.124h1zm-.098.243a.408.408 0 0 1-.169.125.456.456 0 0 1-.333.005.411.411 0 0 1-.14-.088c-.014-.014-.022-.024-.013-.013l.776-.63a.591.591 0 0 0-.268-.204.544.544 0 0 0-.4.005.594.594 0 0 0-.246.19l.793.61zm-.671.008c.092.127.21.178.242.192l.01.005.003.001-.012-.006a.408.408 0 0 1-.09-.06l.664-.748a.586.586 0 0 0-.13-.087c-.014-.008-.026-.013-.033-.016a.245.245 0 0 0-.007-.003h-.001l.017.008a.417.417 0 0 1 .146.126l-.81.588zm.147.126c.216.198.475.294.637.354l.348-.938c-.173-.064-.255-.103-.308-.152l-.677.736zm.64.355c.228.084.48.127.742.107l-.073-.997a.781.781 0 0 1-.327-.05l-.343.94zm.205-.391v.008h1v-.008h-1z" fill="#000" mask="url(#e)"/><path d="m8.116 10.063-.235.084.006.017c.026.074.04.113.045.152a.336.336 0 0 0 .031.12V10.908c-.053.249-.148.47-.299.666l-.002.002a.251.251 0 0 1-.01.009l-.014.014a.512.512 0 0 0-.052.055l-.096.087a.901.901 0 0 1-.153.127 1.936 1.936 0 0 1-.422.193l-.004.002c-.156.052-.319.052-.533.049H6.364a.68.68 0 0 0-.075-.02.32.32 0 0 0-.074-.007.392.392 0 0 0-.084-.027 1.34 1.34 0 0 1-.675-.415c-.093-.1-.17-.219-.242-.356a1.211 1.211 0 0 1-.097-.3l-.022-.094v-.002a1.143 1.143 0 0 1-.018-.305v-.01a1.35 1.35 0 0 1 .108-.448v-.001c.055-.143.123-.267.212-.368l.001-.002c.172-.2.375-.348.619-.446.228-.092.471-.103.743-.075.121.012.249.058.393.13.183.09.336.2.462.344.118.135.208.279.266.44l.235-.086zm0 0a1.615 1.615 0 0 0-.313-.518 1.7 1.7 0 0 0-.54-.405 1.415 1.415 0 0 0-.478-.154l1.428 1.36c-.024-.007-.032-.029-.032-.05-.007-.073-.032-.142-.056-.21a2.859 2.859 0 0 1-.009-.023z" fill="#FEBF2E" stroke="#000" stroke-width=".5"/><path d="M14.795 10.38a.293.293 0 0 0-.015.019.387.387 0 0 0-.049.033l-.005.005a1.225 1.225 0 0 1-.183.135l-.004.003c-.052.03-.1.054-.157.082l-.095.048-.003.002a.266.266 0 0 1-.073.019.819.819 0 0 0-.165.047.137.137 0 0 1-.029.01V7.916c.048.009.099.022.152.037h.002c.16.047.306.118.444.214l.003.002c.14.094.257.22.36.37.066.095.117.209.162.339a1.4 1.4 0 0 1 .087.548v.003c-.003.056-.013.1-.028.162a3.69 3.69 0 0 0-.027.126 1.469 1.469 0 0 1-.203.453l-.002.004a1.36 1.36 0 0 1-.133.162 6.924 6.924 0 0 0-.038.043z" fill="#FEA63B" stroke="#000" stroke-width=".5"/><path d="M13.52 7.921V10.783a1.107 1.107 0 0 1-.2-.053h-.002c-.164-.059-.292-.116-.386-.203l-.004-.003a.352.352 0 0 0-.069-.047l-.008-.004a.35.35 0 0 0-.11-.086.542.542 0 0 0-.05-.062l-.013-.015a1.447 1.447 0 0 1-.282-.493l-.239.073m1.362-1.969-.896 2.434a.295.295 0 0 0-.186.054 1.634 1.634 0 0 1-.28-.519m1.362-1.969a1.98 1.98 0 0 0-.188.051h-.001c-.17.052-.326.137-.47.253h-.002c-.189.151-.328.34-.433.566-.063.136-.09.292-.108.477m1.202-1.347-.816.11c-.224.177-.386.399-.505.655-.081.176-.11.368-.13.56m.09.644a1.692 1.692 0 0 1-.09-.645m.09.645.239-.073a1.448 1.448 0 0 1-.08-.549m-.249-.023.25.025v-.002m-.25-.023.25.021v.002m.467 1.463a.388.388 0 0 0 .019-.065v-.002a.35.35 0 0 0 .006-.092v-.008l-.025.167z" fill="#FEBF2E" stroke="#000" stroke-width=".5"/><mask id="f" fill="#fff"><path d="M11.008 12.507s-.003.021-.008.024c-.103.038-.2.089-.308.113h-.022c.108-.054.22-.105.335-.135l.003-.002z"/></mask><path d="M11.008 12.507s-.003.021-.008.024c-.103.038-.2.089-.308.113h-.022c.108-.054.22-.105.335-.135l.003-.002z" fill="#FEF67F"/><path d="m11.008 12.507.496.062.18-1.446-1.03 1.03.354.354zM11 12.53l.173.47.026-.01.024-.013-.223-.447zm-.308.113v.5h.056l.054-.012-.11-.488zm-.022 0-.223-.447.223.947v-.5zm.335-.135.124.485.133-.034.097-.097-.354-.354zm.003-.002-.496-.063v-.007l.002-.007a.386.386 0 0 1 .029-.098.493.493 0 0 1 .233-.248l.447.894a.505.505 0 0 0 .27-.346.675.675 0 0 0 .008-.041l.002-.013v-.008h.001v-.001l-.496-.062zm-.181-.445c-.06.022-.139.056-.167.068a.515.515 0 0 1-.078.026l.22.976c.094-.021.175-.052.234-.076.073-.03.094-.04.137-.056l-.346-.938zm-.135.082H10.67v1H10.693v-1zm.202.948a1.23 1.23 0 0 1 .235-.098l-.248-.969a2.188 2.188 0 0 0-.434.172l.447.895zm.465-.229.002-.003-.707-.707-.002.003.707.707z" fill="#000" mask="url(#f)"/><mask id="g" fill="#fff"><path d="M9.287 12.712c-.078.013-.148-.03-.221-.038-.01 0-.016-.016-.016-.027.08.016.164.027.237.065z"/></mask><path d="M9.287 12.712c-.078.013-.148-.03-.221-.038-.01 0-.016-.016-.016-.027.08.016.164.027.237.065z" fill="#FEF67F"/><path d="m9.287 12.712.085.493 1.465-.253-1.32-.684-.23.444zm-.221-.038.055-.497-.027-.003h-.028v.5zm-.016-.027.098-.49-.598-.12v.61h.5zm.152-.428a.307.307 0 0 1 .088-.003c.018.003.027.006.018.003-.004 0-.008-.002-.018-.005a.845.845 0 0 0-.169-.037l-.11.994c-.02-.002-.03-.006-.024-.004l.018.005.036.01c.053.016.18.049.331.023l-.17-.986zm-.136-.045c.282 0 .408.213.435.267a.458.458 0 0 1 .049.206h-1c0 .074.015.159.057.241a.514.514 0 0 0 .459.286v-1zm-.114.963a4.929 4.929 0 0 0 .105.021c.02.005.015.005 0-.002l.46-.888c-.154-.08-.34-.105-.37-.111l-.195.98z" fill="#000" mask="url(#g)"/><mask id="h" fill="#fff"><path d="M12.544 10.7c0 .03.013.065-.027.08-.013-.034.008-.055.027-.08z"/></mask><path d="M12.544 10.7c0 .03.013.065-.027.08-.013-.034.008-.055.027-.08z" fill="#FEA63B"/><path d="M12.544 10.7h.5V9.243l-.895 1.15.395.307zm-.027.08-.467.18.182.473.47-.188-.185-.464zm-.473-.08c0 .035.004.075.003.064v-.005a.46.46 0 0 1 .285-.442l.37.928a.547.547 0 0 0 .34-.442c.007-.06.002-.11.002-.12-.003-.028 0-.002 0 .017h-1zm.94-.099a.445.445 0 0 1-.054.416l-.002.004.01-.014-.789-.614-.02.026a.553.553 0 0 0-.079.541l.934-.359z" fill="#000" mask="url(#h)"/><mask id="i" fill="#fff"><path d="M12.506 10.83c.005.027.016.056-.03.062-.002-.027-.005-.054.03-.062z"/></mask><path d="M12.506 10.83c.005.027.016.056-.03.062-.002-.027-.005-.054.03-.062z" fill="#FEA63B"/><path d="m12.506 10.83.49-.098-.1-.505-.502.116.112.487zm-.03.062-.497.05.05.506.506-.06-.059-.496zm-.46.036c.007.037 0 .005 0 0-.002-.013-.012-.077.005-.16a.477.477 0 0 1 .397-.373l.117.993a.523.523 0 0 0 .469-.616l-.008-.04-.98.196zm.958-.086.001.023c0 .02 0 .07-.02.134a.469.469 0 0 1-.337.318l-.224-.974a.53.53 0 0 0-.418.536c0 .031.003.06.003.062l.995-.1z" fill="#000" mask="url(#i)"/><mask id="j" fill="#fff"><path d="m7.547 16.98.127-.002h6.096v1.981c0 .076-.037.114-.11.114H7.975c-.013 0-.03 0-.043-.003-.01-.03-.038-.027-.065-.027a.479.479 0 0 1-.283-.273.389.389 0 0 1-.038-.148V16.98z"/></mask><path d="m7.547 16.98.127-.002h6.096v1.981c0 .076-.037.114-.11.114H7.975c-.013 0-.03 0-.043-.003-.01-.03-.038-.027-.065-.027a.479.479 0 0 1-.283-.273.389.389 0 0 1-.038-.148V16.98z" fill="#FEBF2E"/><path d="M7.547 16.98v-.5h-.5v.5h.5zm6.223-.002h.5v-.5h-.5v.5zM7.933 19.07l-.47.17.096.265.276.055.098-.49zm-.065-.027-.17.47.083.03h.087v-.5zm-.283-.273-.463.19.005.01.458-.2zm-.038-1.29.08-.001.047-.001v-1a2.259 2.259 0 0 0-.127.002v1zm.127-.002H13.657v-1H7.674v1zm5.983 0H13.77v-1H13.656v1zm-.387-.5V18.959h1V16.978h-1zm0 1.981c0-.036.009-.155.115-.264a.393.393 0 0 1 .274-.122v1a.61.61 0 0 0 .441-.18.615.615 0 0 0 .17-.434h-1zm.39-.386H8.067v1H13.659v-1zm-5.592 0H7.976v1H8.068v-1zm-.092 0h.001a.46.46 0 0 1 .054.007l-.196.98c.071.015.14.013.141.013v-1zm.427.326a.539.539 0 0 0-.499-.356h-.036v1h.004a.464.464 0 0 1-.409-.302l.94-.342zm-.365-.326h.001a.044.044 0 0 1 .008.007l.002.002a.088.088 0 0 1-.006-.012l-.916.4c.105.24.293.443.572.544l.339-.941zm.009.007a.632.632 0 0 1-.008-.02c-.001-.003 0-.002 0 0 .002.008.008.03.008.062h-1c0 .164.058.297.075.339l.925-.381zm0 .042V16.98h-1V18.622h1z" fill="#000" mask="url(#j)"/><mask id="k" fill="#fff"><path d="M7.868 19.04c.024 0 .05-.002.064.027-.027.003-.05.003-.064-.027z"/></mask><path d="M7.868 19.04c.024 0 .05-.002.064.027-.027.003-.05.003-.064-.027z" fill="#FEA63B"/><path d="M7.868 19.04v-.5H7.09l.321.707.456-.207zm.064.027.05.498.694-.07-.289-.635-.455.207zm-.064.473c.024 0 .006 0 0 0a.459.459 0 0 1-.392-.266l.911-.414a.545.545 0 0 0-.484-.32h-.035v1zm.014-.97h.003l.007-.001h.027a.461.461 0 0 1 .404.265l-.91.413c.062.137.18.25.337.297.117.036.221.022.232.02l-.1-.994z" fill="#000" mask="url(#k)"/><defs><clipPath id="a"><path fill="#fff" transform="translate(1.269 1.384)" d="M0 0h25v25H0z"/></clipPath></defs></svg>