<svg width="26" height="25" fill="none" xmlns="http://www.w3.org/2000/svg"><g opacity=".69" clip-path="url(#a)"><path d="M12.933 25c6.903 0 12.5-5.596 12.5-12.5S19.836 0 12.933 0C6.029 0 .433 5.596.433 12.5S6.029 25 12.933 25z" fill="#FFD015"/><path d="M12.932 23.11c5.86 0 10.61-4.75 10.61-10.61 0-5.86-4.75-10.61-10.61-10.61-5.86 0-10.61 4.75-10.61 10.61 0 5.86 4.75 10.61 10.61 10.61z" fill="#FFC501"/><path d="M18.483 3.445a10.555 10.555 0 0 1 1.67 5.715c0 5.858-4.75 10.61-10.61 10.61-2.036 0-3.935-.573-5.55-1.566a10.598 10.598 0 0 0 8.94 4.895c5.858 0 10.61-4.75 10.61-10.61 0-3.825-2.026-7.176-5.058-9.041l-.002-.003z" fill="#F5B611"/><path d="M4.183 13.471a9.366 9.366 0 0 1 16.79-5.709A9.366 9.366 0 1 0 5.43 18.141a9.31 9.31 0 0 1-1.244-4.667l-.003-.003z" fill="#FFD453"/></g><path d="M19.814 9.84c-.48.31-.684.795-.849 1.316-.194.61-.386 1.218-.616 1.815-.333.858-.57 1.726-.461 2.659.047.42-.066.62-.553.616-2.934-.019-5.865-.014-8.799-.002-.41 0-.59-.12-.552-.548.175-1.901-.862-3.5-1.33-5.238-.06-.224-.277-.267-.396-.416-.271-.337-.295-.68.01-.996.27-.28.606-.344.933-.103.341.252.435.585.222.973-.282.516-.032 1.195.603 1.652.57.41.965.11 1.319-.327.422-.525.666-1.141.917-1.758.088-.213.054-.35-.074-.53-.265-.373-.24-.748.138-1.036.318-.243.655-.21.933.075.33.339.326.71-.015 1.036-.156.15-.265.259-.158.491.311.67.61 1.349 1.152 1.871.525.506.911.5 1.385-.027.486-.542.71-1.225.98-1.884.104-.258-.101-.34-.223-.483-.277-.328-.284-.684.013-.996.269-.284.606-.333.932-.094.38.28.472.668.167 1.02-.229.265-.17.474-.064.72.264.61.527 1.224.992 1.714.518.547 1.026.59 1.519.033.386-.436 1.112-.822.465-1.626-.215-.27-.026-.623.273-.824.491-.33.822-.03 1.142.305v.591h-.005zm-4.834.038c-.27.501-.495 1.022-.807 1.487-.732 1.088-1.615 1.111-2.464.109-.416-.491-.7-1.074-1.011-1.69-1.466 2.59-1.537 2.639-3.07 2.187.2.57.418 1.13.595 1.704.096.312.256.425.58.423 2.76-.01 5.517-.007 8.278-.007.197 0 .42.03.495-.217.188-.64.532-1.238.576-1.957-1.43.623-1.751.41-3.168-2.04h-.004zm-2.057 5.908c1.33 0 2.66-.026 3.99.012.516.015.55-.222.533-.616-.015-.354.047-.651-.508-.645-2.66.028-5.32.028-7.981 0-.515-.006-.53.224-.54.617-.01.44.055.661.587.644 1.303-.04 2.611-.012 3.917-.012h.002z" fill="#16120B"/><path d="M14.982 9.873c1.414 2.45 1.739 2.663 3.168 2.04-.045.72-.388 1.319-.576 1.957-.073.247-.299.217-.495.217-2.76 0-5.518-.004-8.278.007-.325 0-.485-.111-.58-.423-.178-.574-.395-1.135-.596-1.705 1.534.453 1.604.404 3.07-2.187.312.62.595 1.197 1.012 1.69.849 1.003 1.732.98 2.464-.108.314-.466.54-.988.806-1.488h.005z" fill="#F5D336"/><path d="M12.923 15.781c-1.306 0-2.614-.027-3.918.013-.529.017-.595-.203-.586-.644.008-.395.023-.623.54-.617 2.66.028 5.32.028 7.981 0 .555-.006.493.288.508.645.017.394-.017.631-.533.616-1.33-.038-2.661-.013-3.99-.013h-.002z" fill="#FBAC3A"/><defs><clipPath id="a"><path fill="#fff" transform="translate(.433)" d="M0 0h25v25H0z"/></clipPath></defs></svg>