<svg width="27" height="27" fill="none" xmlns="http://www.w3.org/2000/svg"><g opacity=".69" clip-path="url(#a)"><path d="M13.618 26.126c6.904 0 12.5-5.596 12.5-12.5s-5.596-12.5-12.5-12.5c-6.903 0-12.5 5.596-12.5 12.5s5.597 12.5 12.5 12.5z" fill="#FFD015"/><path d="M13.618 24.236c5.86 0 10.61-4.75 10.61-10.61 0-5.86-4.75-10.61-10.61-10.61-5.86 0-10.61 4.75-10.61 10.61 0 5.86 4.75 10.61 10.61 10.61z" fill="#FFC501"/><path d="M19.168 4.57a10.555 10.555 0 0 1 1.67 5.716c0 5.858-4.749 10.61-10.61 10.61-2.036 0-3.934-.573-5.55-1.566a10.597 10.597 0 0 0 8.94 4.895c5.858 0 10.61-4.75 10.61-10.61 0-3.825-2.025-7.176-5.057-9.041l-.003-.003z" fill="#F5B611"/><path d="M4.868 14.597a9.366 9.366 0 0 1 16.79-5.709A9.366 9.366 0 1 0 6.115 19.267 9.31 9.31 0 0 1 4.87 14.6l-.003-.003z" fill="#FFD453"/></g><circle cx="13.618" cy="13.126" r="12" stroke="#FFFEFE" stroke-width="2"/><path d="M21.916 11.04c-.493.67-.543 1.508-.85 2.25-.14.337.23.536.361.783.374.702-.037 1.33-.493 1.432-.81.18-.864.648-.802 1.216.1.917-.301 1.216-1.154 1.104-.824-.11-1.686.216-2.488-.197.16-.369.49-.297.787-.302.61-.007 1.218 0 1.829-.015.194-.005.48.078.51-.229.038-.38-.276-.324-.51-.326-1.067-.008-2.136-.027-3.2 0-.799.02-1.514-.145-2.08-.735-.224-.234-.41-.336-.67-.045-.625.708-1.452.805-2.337.777a59.683 59.683 0 0 0-2.835 0c-.239.005-.645-.157-.66.25-.017.49.434.31.69.31 2.285.016 4.572.003 6.856.013.347 0 .75-.14.99.274-.245.344-.611.212-.927.215-2.345.01-4.692-.025-7.033.022-.835.018-1.174-.241-1.12-1.089.033-.533.143-1.116-.746-1.245-.38-.055-.917-.685-.59-1.146.694-.98.151-1.816-.046-2.726-.094-.44-.735-1.016-.045-1.343.588-.276.698.506.997.835.222.242.351.615.742.6.461-.015.526-.438.675-.76.025-.054.033-.12.065-.169.24-.354.155-1.006.758-1.011.513-.003.56.568.8.897.09.122.156.259.236.388.496.78.997.79 1.515.033.164-.242.249-.584.66-.501-.05.727-.384 1.328-1.081 1.51-1.343.346-1.49-1.002-2.11-1.697-.399.503-.394 1.15-.84 1.557-.538.493-1.114.107-1.751-.037.12.398.181.692.296.964.47 1.108.28 2.78 1.338 3.261 1.056.48 2.506.105 3.787.09.618-.008 1.076-.332 1.512-.743.274-.259.301-.423.062-.727a20.947 20.947 0 0 1-1.2-1.717c-.317-.5-.217-.994.181-1.415.369-.389 2.265-.498 2.758-.152.429.302.66.723.513 1.26-.054.2-.179.384-.296.559-.237.351-.493.692-.738 1.041-.605.862-.545 1.146.41 1.652.258.137.572.237.864.242.909.017 1.82-.02 2.73-.038.49.053 1.191.347 1.398-.167.525-1.288.86-2.653 1.323-4.155-.583.187-.95.443-1.376.356-.214-.11-.33-.261-.209-.51.795.196 1.094-.39 1.443-.902.261-.384.485-.868 1.098-.521v.732l.003-.002zm-8.389 3.347c.205-.25.521-.444.506-.805-.017-.339-.254-.74-.553-.733-.346.008-.608.426-.593.775.013.307.27.583.64.763zm-.393-2.23c.017-.264-.127-.364-.334-.341-.384.044-.608.261-.603.662 0 .215.065.538.282.479.363-.098.485-.506.655-.8zm1.642.222c-.023-.32-.245-.566-.67-.58-.182-.008-.4.089-.32.316.13.368.327.752.718.859.17.047.274-.264.272-.598v.003z" fill="#16140F"/><path d="M19.375 11.736c-.125.25-.008.399.209.51-.08.34-.157.678-.234 1.02-.588-.15-.907.177-1.124.65-.339.737-.528 1.477.075 2.185a.135.135 0 0 0-.06.112c-.91.017-1.821.055-2.73.037a2.003 2.003 0 0 1-.865-.241c-.954-.506-1.014-.793-.409-1.652.245-.346.501-.688.738-1.041.117-.175.244-.362.296-.559.147-.538-.084-.959-.513-1.26-.493-.347-2.39-.237-2.758.152-.398.418-.498.914-.182 1.415.374.59.768 1.168 1.201 1.716.242.307.214.469-.062.728-.434.413-.895.737-1.512.742-1.279.013-2.728.389-3.787-.09-1.06-.48-.867-2.154-1.338-3.26-.115-.27-.177-.564-.297-.965.638.145 1.211.53 1.752.038.443-.406.443-1.054.84-1.557.62.695.767 2.043 2.11 1.696.697-.18 1.031-.78 1.08-1.51.08-.199.163-.398.245-.595.872-.252.777-1.288 1.497-1.791.6 1.041 1.184 2.087 1.8 3.114.692 1.153 1.688 1.15 2.39.017.198-.316.397-.63.599-.949.264.267.192.735.655.742.057.245.187.441.386.596h-.002zm-3.052 3.69c.787.084 1.09-.516 1.1-1.047.01-.538-.29-1.116-1.058-1.098-.583.012-1.288.595-1.161 1.103.137.536.344 1.141 1.119 1.042zm-5.698-2.14c-.807-.02-1.124.543-1.104 1.096.023.593.369 1.118 1.176 1.061.758-.055 1.024-.588 1-1.143-.026-.571-.374-1.1-1.072-1.014zm-1.63 1.8c-.007-.527-.124-1.023-.448-1.454-.192-.257-.418-.468-.765-.376-.341.092-.443.398-.49.705-.08.53.05 1.031.301 1.495.187.346.436.782.864.68.466-.11.551-.598.539-1.052v.003z" fill="#F3C65F"/><path d="M15.86 17.605c-.24-.413-.643-.274-.99-.274-2.284-.01-4.571 0-6.856-.012-.254 0-.707.18-.69-.311.015-.407.421-.247.66-.25a59.683 59.683 0 0 1 2.836 0c.881.028 1.711-.07 2.336-.777.26-.291.444-.19.67.045.569.59 1.284.755 2.08.735 1.067-.027 2.133-.005 3.2 0 .234 0 .548-.055.51.326-.03.307-.316.224-.51.23-.61.014-1.219.007-1.829.014-.296.003-.628-.07-.787.302-.212-.008-.421-.013-.633-.023l.003-.005z" fill="#EDCF73"/><path d="M18.988 11.14c-.463-.007-.393-.475-.655-.742-.204.322-.404.633-.598.95-.703 1.133-1.699 1.133-2.392-.018-.615-1.027-1.198-2.07-1.798-3.114-.72.503-.626 1.54-1.498 1.791.028-.934.62-1.61 1.149-2.27.331-.413.65 0 .84.32.568.968 1.113 1.95 1.679 2.92.548.938 1.088.933 1.654 0 .095-.158.182-.317.286-.467.225-.326.334-.964.875-.67.418.227.7.73.458 1.303v-.002z" fill="#16140F"/><path d="M19.347 13.263c.08-.339.157-.677.234-1.019.429.09.795-.17 1.375-.356-.463 1.505-.797 2.87-1.322 4.156-.21.51-.91.216-1.398.166a.13.13 0 0 1 .06-.112c.398.187.62-.1.834-.336.563-.615.64-1.637.215-2.499h.002z" fill="#CA9254"/><path d="M13.528 14.39c-.372-.178-.628-.457-.64-.763-.016-.349.244-.767.592-.775.3-.005.536.394.553.733.018.356-.301.555-.505.804zM13.131 12.162c-.172.296-.291.702-.655.8-.22.06-.28-.264-.282-.479-.005-.403.22-.62.603-.662.21-.023.352.074.334.34zM14.775 12.381c.005.332-.1.643-.271.598-.394-.107-.588-.49-.718-.86-.08-.226.137-.323.319-.316.426.015.65.262.67.58v-.002z" fill="#CA646C"/><path d="M16.323 15.425c-.775.103-.985-.503-1.119-1.04-.13-.51.578-1.092 1.161-1.105.767-.017 1.069.559 1.059 1.1-.01.532-.314 1.13-1.101 1.045zM10.625 13.283c.703-.082 1.046.444 1.071 1.014.025.553-.239 1.089-.999 1.144-.807.057-1.153-.466-1.176-1.062-.02-.553.297-1.116 1.104-1.096zM19.347 13.263c.426.862.346 1.884-.214 2.499-.215.237-.436.523-.835.336-.603-.707-.413-1.447-.075-2.185.22-.476.538-.8 1.124-.65zm-.302.439c-.68.854-.727 1.106-.398 1.836.428-.511.615-1.052.399-1.836zM8.995 15.082c.013.453-.074.939-.538 1.051-.428.1-.675-.331-.864-.68-.25-.463-.379-.967-.302-1.495.045-.306.147-.613.491-.705.346-.095.573.12.765.376.324.431.438.927.448 1.455v-.002zm-1.133-1.478c-.11.872-.075 1.455.493 1.998.316-.742.072-1.273-.493-1.998z" fill="#16140F"/><path d="M19.046 13.704c.219.785.03 1.326-.4 1.836-.33-.73-.283-.981.4-1.836zM7.862 13.607c.566.727.812 1.256.493 1.998-.568-.543-.603-1.126-.493-1.998z" fill="#CA646C"/><defs><clipPath id="a"><path fill="#fff" transform="translate(1.118 1.126)" d="M0 0h25v25H0z"/></clipPath></defs></svg>