<svg width="27" height="27" fill="none" xmlns="http://www.w3.org/2000/svg"><g opacity=".69" clip-path="url(#a)"><path d="M13.62 26.56c6.904 0 12.5-5.596 12.5-12.5 0-6.903-5.596-12.5-12.5-12.5-6.903 0-12.5 5.597-12.5 12.5 0 6.904 5.597 12.5 12.5 12.5z" fill="#FFD015"/><path d="M13.62 24.67c5.86 0 10.61-4.75 10.61-10.61 0-5.86-4.75-10.61-10.61-10.61-5.86 0-10.61 4.75-10.61 10.61 0 5.86 4.75 10.61 10.61 10.61z" fill="#FFC501"/><path d="M19.17 5.005a10.555 10.555 0 0 1 1.67 5.715c0 5.858-4.749 10.61-10.61 10.61-2.036 0-3.934-.573-5.55-1.566a10.598 10.598 0 0 0 8.94 4.895c5.858 0 10.61-4.749 10.61-10.61 0-3.824-2.025-7.176-5.057-9.041l-.003-.003z" fill="#F5B611"/><path d="M4.87 15.032a9.366 9.366 0 0 1 16.79-5.71A9.366 9.366 0 1 0 6.117 19.701a9.31 9.31 0 0 1-1.244-4.667l-.003-.002z" fill="#FFD453"/></g><circle cx="13.62" cy="13.56" r="12" stroke="#FFFEFE" stroke-width="2"/><path d="M6.58 15.784c-.195-.552-.33-1.122-.498-1.686-.258-.883-.507-1.767-.76-2.654-.008-.028-.022-.054.004-.096.436.23.875.459 1.311.688.46.24.918.485 1.377.728.034.02.07.046.113.02.026.04.057.07.102.09.74.386 1.479.774 2.216 1.165.096.051.138.028.187-.062.334-.643.674-1.284 1.01-1.924.026-.045.05-.093.04-.147.094-.017.1-.105.134-.167l1.745-3.34c.017-.032.034-.06.065-.114.156.292.3.561.442.833l1.385 2.652c.029.054.034.127.116.139-.008.073.031.133.063.192.328.626.662 1.25.988 1.878.057.108.11.103.201.054.513-.272 1.032-.538 1.544-.81.258-.136.516-.28.774-.42l.691-.348c.057-.028.116-.05.173-.076 0 .833-.014 1.663.011 2.496a.91.91 0 0 1-.923.918c-4.17-.012-8.343-.006-12.513-.006l.003-.003zm7.884-1.875c0-.335-.065-.59-.22-.813-.275-.394-.717-.48-1.032-.21-.47.408-.56 1.193-.198 1.7.323.453.773.487 1.153.085.218-.233.28-.521.295-.765l.002.003z" fill="#F8CD69" stroke="#000" stroke-width=".5" stroke-miterlimit="10"/><path d="M6.58 15.784c4.17 0 8.344-.006 12.513.006a.913.913 0 0 0 .924-.918c-.026-.83-.008-1.663-.011-2.496l1.847-.98c.02-.011.042-.011.065-.017-.011.24-.108.465-.176.697-.47 1.66-.946 3.32-1.422 4.98-.011.04-.025.076-.037.116H6.974c-.13-.462-.263-.923-.393-1.385v-.003z" fill="#F6C144" stroke="#000" stroke-width=".5" stroke-miterlimit="10"/><path d="M19.456 17.17h.827c0 .512 0 1.028.006 1.54 0 .102-.034.136-.13.122-.029-.003-.057 0-.088 0-4.298 0-8.593 0-12.89.003-.164 0-.238-.025-.221-.212.02-.207.008-.417.008-.624H18.903a.538.538 0 0 0 .522-.402c.045-.142.011-.286.022-.43l.009.002z" fill="#F2A23A" stroke="#000" stroke-width=".5" stroke-miterlimit="10"/><path d="M11.686 11.903c.008.054-.014.102-.04.147-.337.64-.677 1.28-1.011 1.924-.049.09-.091.113-.187.062-.737-.39-1.476-.776-2.216-1.164a.313.313 0 0 1-.102-.09c.255-1.389.513-2.777.777-4.216.164.192.297.351.43.513.782.94 1.564 1.883 2.349 2.824zM19.141 12.801c-.258.139-.513.283-.773.42-.513.271-1.031.537-1.544.81-.094.048-.145.053-.201-.054-.326-.63-.658-1.252-.989-1.879-.031-.06-.074-.119-.062-.192.663-.8 1.328-1.6 1.994-2.4l.78-.932c.271 1.437.535 2.833.795 4.23V12.8z" fill="#F6C144" stroke="#000" stroke-width=".5" stroke-miterlimit="10"/><path d="M19.456 17.17c-.011.141.023.285-.023.43a.54.54 0 0 1-.52.402H6.976v-.835h12.482l-.003.002z" fill="#F4B461" stroke="#000" stroke-width=".5" stroke-miterlimit="10"/><path d="m21.92 11.379.009-.014-.011.01v.004h.003z" fill="#F6C144" stroke="#000" stroke-width=".5" stroke-miterlimit="10"/><path d="M14.464 13.909c-.014.243-.076.532-.294.764-.38.403-.83.366-1.153-.085-.366-.51-.272-1.291.198-1.7.312-.268.754-.183 1.031.21.156.224.221.48.221.813l-.003-.002z" fill="#F2A23A" stroke="#000" stroke-width=".5" stroke-miterlimit="10"/><defs><clipPath id="a"><path fill="#fff" transform="translate(1.12 1.56)" d="M0 0h25v25H0z"/></clipPath></defs></svg>