<svg width="26" height="26" fill="none" xmlns="http://www.w3.org/2000/svg"><g opacity=".69" clip-path="url(#a)"><path d="M12.888 25.56c6.903 0 12.5-5.596 12.5-12.5 0-6.903-5.597-12.5-12.5-12.5-6.904 0-12.5 5.597-12.5 12.5 0 6.904 5.596 12.5 12.5 12.5z" fill="#FFD015"/><path d="M12.888 23.67c5.86 0 10.61-4.75 10.61-10.61 0-5.86-4.75-10.61-10.61-10.61-5.86 0-10.61 4.75-10.61 10.61 0 5.86 4.75 10.61 10.61 10.61z" fill="#FFC501"/><path d="M18.438 4.005a10.556 10.556 0 0 1 1.67 5.715c0 5.858-4.75 10.61-10.61 10.61-2.036 0-3.935-.573-5.55-1.566a10.598 10.598 0 0 0 8.94 4.895c5.858 0 10.61-4.749 10.61-10.61 0-3.824-2.026-7.176-5.058-9.041l-.002-.003z" fill="#F5B611"/><path d="M4.138 14.032a9.366 9.366 0 0 1 16.79-5.71A9.366 9.366 0 1 0 5.385 18.701a9.31 9.31 0 0 1-1.244-4.667l-.003-.002z" fill="#FFD453"/></g><path d="M5.848 14.784c-.195-.552-.331-1.122-.498-1.686-.258-.883-.508-1.767-.76-2.654-.008-.028-.022-.054.003-.096.436.23.875.459 1.312.688.459.24.918.485 1.377.728.034.02.07.046.113.02.025.04.057.07.102.09.74.386 1.479.774 2.215 1.165.096.051.139.028.187-.062.334-.643.674-1.284 1.012-1.924.025-.045.048-.093.04-.147.093-.017.098-.105.132-.167.584-1.114 1.165-2.227 1.745-3.34.017-.032.034-.06.066-.114.155.292.3.561.441.833l1.386 2.652c.028.054.034.127.116.139-.009.073.031.133.062.192.329.626.663 1.25.989 1.878.057.108.11.103.201.054.513-.272 1.031-.538 1.544-.81.258-.136.516-.28.773-.42l.692-.348c.056-.028.116-.05.172-.076 0 .833-.014 1.663.012 2.496a.91.91 0 0 1-.924.918c-4.17-.012-8.343-.006-12.513-.006l.003-.003zm7.884-1.875c0-.335-.065-.59-.22-.813-.276-.394-.718-.48-1.032-.21-.47.408-.561 1.193-.198 1.7.323.453.773.487 1.153.085.218-.233.28-.521.294-.765l.003.003z" fill="#F8CD69" stroke="#000" stroke-width=".5" stroke-miterlimit="10"/><path d="M5.848 14.784c4.17 0 8.343-.006 12.513.006a.913.913 0 0 0 .924-.918c-.026-.83-.009-1.663-.012-2.496l1.847-.98c.02-.011.043-.011.066-.017-.012.24-.108.465-.176.697-.47 1.66-.946 3.32-1.422 4.98-.012.04-.026.076-.037.116H6.242c-.13-.462-.264-.923-.394-1.385v-.003z" fill="#F6C144" stroke="#000" stroke-width=".5" stroke-miterlimit="10"/><path d="M18.723 16.17h.828c0 .512 0 1.028.005 1.54 0 .102-.034.136-.13.122-.028-.003-.057 0-.088 0-4.297 0-8.592 0-12.89.003-.164 0-.238-.025-.22-.212.02-.207.008-.417.008-.624H18.171a.538.538 0 0 0 .521-.402c.046-.142.012-.286.023-.43l.008.002z" fill="#F2A23A" stroke="#000" stroke-width=".5" stroke-miterlimit="10"/><path d="M10.953 10.903c.009.054-.014.102-.04.147-.337.64-.677 1.28-1.01 1.924-.049.09-.091.113-.188.062-.736-.39-1.476-.776-2.215-1.164a.314.314 0 0 1-.102-.09c.255-1.389.513-2.777.776-4.216.164.192.298.351.43.513.783.94 1.565 1.883 2.35 2.824zM18.409 11.801c-.258.139-.513.283-.774.42-.512.271-1.03.537-1.544.81-.093.048-.144.053-.2-.054-.326-.63-.658-1.252-.99-1.879-.03-.06-.073-.119-.062-.192.663-.8 1.329-1.6 1.995-2.4.249-.3.501-.6.779-.932.272 1.437.535 2.833.796 4.23V11.8z" fill="#F6C144" stroke="#000" stroke-width=".5" stroke-miterlimit="10"/><path d="M18.724 16.17c-.012.141.022.285-.023.43a.54.54 0 0 1-.521.402H6.244v-.835h12.482l-.002.002z" fill="#F4B461" stroke="#000" stroke-width=".5" stroke-miterlimit="10"/><path d="m21.188 10.379.009-.014a.57.57 0 0 1-.011.01v.004h.002z" fill="#F6C144" stroke="#000" stroke-width=".5" stroke-miterlimit="10"/><path d="M13.732 12.909c-.014.243-.077.532-.295.764-.38.403-.83.366-1.153-.085-.365-.51-.272-1.291.199-1.7.311-.268.753-.183 1.03.21.157.224.222.48.222.813l-.003-.002z" fill="#F2A23A" stroke="#000" stroke-width=".5" stroke-miterlimit="10"/><defs><clipPath id="a"><path fill="#fff" transform="translate(.388 .56)" d="M0 0h25v25H0z"/></clipPath></defs></svg>