<svg width="99" height="110" viewBox="0 0 99 110" fill="none" xmlns="http://www.w3.org/2000/svg">
<path d="M89.796 110C92.1775 110 94.4615 109.054 96.1455 107.37C97.8295 105.686 98.7756 103.402 98.7756 101.02V56.1224C98.7756 53.7409 97.8295 51.4569 96.1455 49.7729C94.4615 48.0889 92.1775 47.1428 89.796 47.1428C87.4145 47.1428 85.1305 48.0889 83.4465 49.7729C81.7625 51.4569 80.8164 53.7409 80.8164 56.1224V101.02C80.8164 103.402 81.7625 105.686 83.4465 107.37C85.1305 109.054 87.4145 110 89.796 110Z" fill="#FCD5CF"/>
<path d="M53.8774 83.0611V101.02C53.8774 103.402 54.8235 105.686 56.5075 107.37C58.1915 109.054 60.4755 110 62.857 110C65.2386 110 67.5226 109.054 69.2066 107.37C70.8906 105.686 71.8366 103.402 71.8366 101.02V83.0611C71.8366 80.6796 70.8906 78.3956 69.2066 76.7116C67.5226 75.0276 65.2386 74.0815 62.857 74.0815C60.4755 74.0815 58.1915 75.0276 56.5075 76.7116C54.8235 78.3956 53.8774 80.6796 53.8774 83.0611Z" fill="#FCD5CF"/>
<path d="M26.9385 94.2857V101.02C26.9385 103.402 27.8845 105.686 29.5685 107.37C31.2525 109.054 33.5365 110 35.9181 110C38.2996 110 40.5836 109.054 42.2676 107.37C43.9516 105.686 44.8977 103.402 44.8977 101.02V94.2857C44.8977 91.9042 43.9516 89.6202 42.2676 87.9362C40.5836 86.2522 38.2996 85.3062 35.9181 85.3062C33.5365 85.3062 31.2525 86.2522 29.5685 87.9362C27.8845 89.6202 26.9385 91.9042 26.9385 94.2857Z" fill="#FCD5CF"/>
<path d="M35.9184 0C28.8144 0 21.87 2.10658 15.9632 6.05334C10.0565 10.0001 5.45272 15.6098 2.73414 22.173C0.0155628 28.7362 -0.695741 35.9582 0.690178 42.9257C2.0761 49.8932 5.49699 56.2932 10.5203 61.3165C15.5435 66.3398 21.9436 69.7607 28.9111 71.1466C35.8785 72.5325 43.1005 71.8212 49.6637 69.1026C56.227 66.384 61.8367 61.7803 65.7834 55.8735C69.7302 49.9668 71.8368 43.0223 71.8368 35.9184C71.8368 26.3922 68.0525 17.2562 61.3165 10.5202C54.5805 3.78425 45.4445 0 35.9184 0ZM40.4082 52.0816V53.8775C40.4082 55.0683 39.9352 56.2103 39.0932 57.0523C38.2512 57.8943 37.1092 58.3673 35.9184 58.3673C34.7276 58.3673 33.5856 57.8943 32.7436 57.0523C31.9016 56.2103 31.4286 55.0683 31.4286 53.8775V52.4633C28.9425 51.6402 26.812 49.9928 25.3898 47.7939C24.7528 46.7877 24.5415 45.5696 24.8025 44.4077C25.0635 43.2457 25.7755 42.235 26.7817 41.598C27.7878 40.9609 29.0059 40.7496 30.1679 41.0107C31.3298 41.2717 32.3405 41.9836 32.9776 42.9898C33.2616 43.3737 33.6349 43.6827 34.0652 43.89C34.4954 44.0973 34.9697 44.1967 35.447 44.1796C36.9061 44.1796 38.1633 43.2367 38.1633 42.1143C38.1633 40.9918 36.9061 40.049 35.447 40.049C34.9964 40.0438 34.5495 39.9681 34.1225 39.8245C31.5347 39.4058 29.175 38.0945 27.4529 36.1181C25.7307 34.1417 24.7546 31.6248 24.6939 29.0041C24.7302 26.8689 25.3861 24.7902 26.5817 23.0207C27.7773 21.2512 29.4611 19.8671 31.4286 19.0367V17.0388C31.4286 15.848 31.9016 14.706 32.7436 13.864C33.5856 13.022 34.7276 12.549 35.9184 12.549C37.1092 12.549 38.2512 13.022 39.0932 13.864C39.9352 14.706 40.4082 15.848 40.4082 17.0388V18.6551C42.8943 19.4782 45.0248 21.1255 46.447 23.3245C46.7639 23.8227 46.9795 24.3785 47.0817 24.96C47.1838 25.5416 47.1704 26.1376 47.0422 26.714C46.914 27.2904 46.6735 27.8359 46.3345 28.3193C45.9955 28.8028 45.5646 29.2147 45.0663 29.5316C44.5681 29.8485 44.0124 30.0642 43.4308 30.1664C42.8492 30.2685 42.2532 30.2551 41.6768 30.1269C41.1005 29.9987 40.555 29.7582 40.0715 29.4192C39.5881 29.0802 39.1761 28.6492 38.8592 28.151C38.5804 27.7601 38.2087 27.4446 37.7776 27.233C37.3466 27.0214 36.8697 26.9203 36.3898 26.9388C34.9306 26.9388 33.6735 27.8816 33.6735 29.0041C33.6735 30.1265 34.9306 31.0694 36.3898 31.0694C36.8403 31.0745 37.2873 31.1503 37.7143 31.2939C40.3021 31.7126 42.6617 33.0239 44.3839 35.0003C46.1061 36.9767 47.0822 39.4935 47.1429 42.1143C47.1065 44.2495 46.4507 46.3282 45.2551 48.0977C44.0595 49.8671 42.3756 51.2512 40.4082 52.0816Z" fill="#FCD5CF"/>
</svg>
