<svg width="34" height="34" viewBox="0 0 34 34" fill="none" xmlns="http://www.w3.org/2000/svg">
<path d="M17.2156 33.3273C8.20989 33.3273 0.947329 26.039 0.985994 16.9753C1.02144 7.98889 8.371 0.806876 17.3123 0.839097C26.2084 0.871318 33.4678 8.14999 33.4645 17.0913C33.4613 26.0648 26.1923 33.3273 17.2188 33.3273H17.2156ZM5.66123 24.5633C5.69023 24.618 5.71278 24.676 5.74823 24.7276C6.47319 25.8199 7.33671 26.7929 8.34522 27.6242C11.3546 30.0988 14.8152 31.1846 18.6945 30.7787C22.1808 30.4146 25.1065 28.8873 27.4715 26.2935C28.5638 25.0949 29.4047 23.7352 30.0137 22.2337C30.8224 20.2425 31.1221 18.1739 30.9674 16.0344C30.8708 14.6554 30.5679 13.3247 30.062 12.0423C29.1276 9.66759 27.6326 7.71179 25.6252 6.14264C25.2772 5.87198 24.9293 5.59489 24.5201 5.41445C24.4492 5.35967 24.3847 5.29523 24.3074 5.25012C23.8628 5.00202 23.4149 4.7507 22.9477 4.53804C20.5215 3.44254 17.9857 3.05911 15.3532 3.42643C12.0667 3.88718 9.29251 5.35001 7.04028 7.79557C6.04788 8.87174 5.25847 10.0832 4.65594 11.4172C3.69254 13.5534 3.30589 15.796 3.47666 18.1288C3.58943 19.656 3.94708 21.1317 4.5625 22.543C4.87182 23.2487 5.20692 23.9382 5.66445 24.56L5.66123 24.5633Z" fill="#383331"/>
<path d="M5.66104 24.5632C5.20028 23.9413 4.86519 23.2518 4.55909 22.5461C3.94367 21.1381 3.58602 19.6624 3.47325 18.1319C3.30248 15.7991 3.68913 13.5565 4.65253 11.4203C5.25506 10.0831 6.04447 8.87486 7.03687 7.79869C9.2891 5.35313 12.0601 3.89031 15.3498 3.42955C17.9855 3.06223 20.518 3.44566 22.9443 4.54117C23.4115 4.75382 23.8561 5.00515 24.304 5.25325C24.3813 5.29513 24.4458 5.3628 24.5166 5.41757C24.855 6.03621 25.2062 6.64518 25.48 7.29927C25.654 7.71814 25.8441 8.13701 25.9311 8.5881C25.8409 8.5011 25.7507 8.41733 25.6605 8.33033C24.7454 7.43137 23.7176 6.68385 22.5673 6.11354C20.2893 4.98581 17.8824 4.58628 15.3659 4.96004C11.9731 5.4659 9.25366 7.12849 7.23986 9.89948C5.48383 12.3193 4.75886 15.0451 4.99085 18.0223C5.13262 19.8332 5.67393 21.5183 6.57933 23.0907C6.77588 23.4322 6.96598 23.7802 7.23986 24.067C7.25275 24.0799 7.26886 24.0927 7.28175 24.1056L7.28819 24.1217L7.27852 24.1056C7.27852 24.1056 7.25275 24.0766 7.23986 24.0637C7.22053 23.9091 7.13031 23.7802 7.06587 23.6449C5.86725 21.1413 5.55471 18.5218 6.1218 15.812C6.69533 13.0732 8.07438 10.7984 10.2267 9.01019C12.7851 6.8804 15.7494 5.96855 19.0584 6.21987C20.8306 6.3552 22.4932 6.87717 24.0333 7.76647C24.8066 8.21434 25.5509 8.70731 26.1825 9.34851C26.1921 9.39684 26.1986 9.44195 26.2115 9.49028C26.5788 10.9757 26.6787 12.4804 26.5433 14.0044C26.4402 15.1805 26.1825 16.3275 25.7765 17.4391C25.1675 19.1114 24.2718 20.6161 23.0828 21.9339C21.881 23.2647 20.4794 24.3441 18.8522 25.1335C16.4131 26.3192 13.8451 26.7316 11.1611 26.4287C9.27944 26.2161 7.52018 25.62 5.88336 24.663C5.81248 24.6212 5.73193 24.5954 5.6546 24.5632H5.66104Z" fill="#4C4644"/>
<path d="M25.934 8.5816C25.847 8.13051 25.6601 7.71486 25.4829 7.29277C25.209 6.64191 24.8578 6.02971 24.5195 5.41107C24.9287 5.59151 25.2767 5.86861 25.6246 6.13926C27.632 7.70519 29.127 9.66099 30.0614 12.0389C30.5673 13.3213 30.8702 14.652 30.9669 16.031C31.1215 18.1737 30.8219 20.2423 30.0131 22.2303C29.4041 23.7318 28.5632 25.0883 27.4709 26.2901C25.1091 28.8871 22.1802 30.4112 18.694 30.7753C14.8146 31.1813 11.3573 30.0954 8.34464 27.6209C7.33613 26.7928 6.47261 25.8165 5.74764 24.7242C5.7122 24.6727 5.68964 24.6147 5.66064 24.5599C5.73797 24.5921 5.81853 24.6179 5.88941 24.6598C7.52301 25.6199 9.28548 26.2128 11.1672 26.4255C13.8512 26.7316 16.4192 26.3159 18.8583 25.1302C20.4822 24.3408 21.8838 23.2646 23.0889 21.9307C24.2778 20.6128 25.1736 19.1081 25.7825 17.4359C26.1885 16.321 26.4463 15.1772 26.5494 14.0011C26.6847 12.4803 26.5848 10.9724 26.2175 9.487C26.2046 9.44189 26.1982 9.39356 26.1885 9.34523C26.4817 9.54822 26.7008 9.82532 26.9554 10.0702C27.0842 10.1926 27.168 10.3634 27.3356 10.444C27.3517 10.4923 27.3775 10.5342 27.4258 10.56C27.429 10.5632 27.4355 10.5664 27.4387 10.5696C27.4355 10.5664 27.4322 10.56 27.429 10.5567C27.4032 10.5148 27.3775 10.4697 27.3517 10.4278C27.3066 10.3505 27.2647 10.27 27.2164 10.1959C26.8426 9.61266 26.3915 9.09391 25.934 8.57515V8.5816Z" fill="#5E5756"/>
<path d="M25.9348 8.58161C26.3923 9.10036 26.8434 9.62234 27.2172 10.2023C27.2655 10.2796 27.3074 10.357 27.3525 10.4343C27.3461 10.4407 27.3396 10.444 27.3364 10.4504C27.1689 10.3666 27.0819 10.1991 26.9562 10.0767C26.7017 9.83177 26.4858 9.55145 26.1894 9.35168C25.5578 8.71049 24.8135 8.21751 24.0402 7.76964C22.5001 6.87713 20.8343 6.35515 19.0653 6.22305C15.753 5.97495 12.7887 6.88357 10.2336 9.01337C8.08449 10.8016 6.70222 13.0764 6.12869 15.8152C5.5616 18.5249 5.87092 21.1413 7.07276 23.648C7.1372 23.7834 7.22742 23.9123 7.24675 24.0669C6.97287 23.7802 6.78277 23.4289 6.58622 23.0906C5.68082 21.5215 5.13951 19.8331 4.99774 18.0223C4.76575 15.0419 5.4875 12.316 7.24675 9.89944C9.25733 7.12845 11.98 5.46586 15.3728 4.95999C17.8893 4.58623 20.2962 4.98255 22.5742 6.1135C23.7245 6.6838 24.7523 7.4281 25.6674 8.33029C25.7576 8.41728 25.8478 8.50106 25.938 8.58805V8.58161H25.9348Z" fill="#5E5756"/>
<path d="M7.79736 23.3166L7.80788 23.3306L7.80087 23.3131L7.79736 23.3166Z" fill="#B69942"/>
<path d="M7.75523 23.2678C7.75523 23.2678 7.7847 23.3006 7.7978 23.3137C7.7978 23.3137 7.76505 23.2842 7.75195 23.2711V23.2678H7.75523Z" fill="#B69942"/>
<path d="M27.3235 14.3286C26.7332 15.1305 26.6736 16.1322 26.3069 17.0205C26.14 17.423 26.5812 17.6614 26.7392 17.9566C27.1863 18.7972 26.6945 19.5485 26.1489 19.6707C25.1801 19.8853 25.1145 20.4458 25.189 21.1254C25.3083 22.2225 24.8283 22.5802 23.8088 22.446C22.8221 22.3149 21.7906 22.7054 20.8307 22.2105C21.0215 21.7693 21.418 21.8558 21.7727 21.8498C22.5031 21.8409 23.2305 21.8498 23.9608 21.8319C24.1934 21.826 24.5362 21.9244 24.5719 21.5577C24.6167 21.1016 24.241 21.1702 23.9608 21.1672C22.6849 21.1582 21.4061 21.1344 20.1332 21.1672C19.1762 21.191 18.3207 20.9943 17.644 20.2878C17.3757 20.0075 17.1521 19.8853 16.8421 20.2341C16.0938 21.0807 15.1041 21.197 14.0458 21.1642C12.916 21.1314 11.7862 21.1433 10.6534 21.1642C10.3672 21.1702 9.88129 20.9764 9.86341 21.4623C9.84254 22.0496 10.3821 21.8349 10.6892 21.8349C13.4228 21.8528 16.1594 21.8379 18.893 21.8498C19.3074 21.8498 19.7903 21.6829 20.0765 22.1778C19.7844 22.5891 19.3462 22.4311 18.9676 22.4341C16.1624 22.446 13.3542 22.4043 10.552 22.461C9.55338 22.4818 9.14795 22.1718 9.21354 21.1582C9.25229 20.5203 9.38346 19.8227 8.31922 19.6677C7.8661 19.6021 7.22219 18.8479 7.61271 18.2964C8.44442 17.1249 7.79455 16.1232 7.55905 15.0351C7.44577 14.5075 6.67964 13.8189 7.50539 13.4283C8.20892 13.0974 8.34009 14.0335 8.69781 14.427C8.96313 14.7162 9.11814 15.1633 9.58617 15.1454C10.1377 15.1275 10.2152 14.6208 10.394 14.2362C10.4238 14.1706 10.4328 14.0931 10.4715 14.0335C10.7577 13.6102 10.6564 12.8292 11.3778 12.8232C11.9919 12.8202 12.0485 13.5029 12.3347 13.8964C12.442 14.0424 12.5225 14.2064 12.6179 14.3614C13.2111 15.2945 13.8103 15.3064 14.4304 14.4002C14.6271 14.111 14.7285 13.7026 15.2204 13.801C15.1607 14.6714 14.7613 15.3899 13.9266 15.6075C12.3198 16.0219 12.1439 14.4091 11.4016 13.5774C10.9247 14.1796 10.9306 14.9546 10.397 15.4406C9.75311 16.0308 9.06448 15.5687 8.30133 15.3958C8.44442 15.8728 8.51895 16.2246 8.65608 16.5495C9.2195 17.8761 8.98996 19.8764 10.2569 20.4517C11.5209 21.0271 13.2559 20.5769 14.7881 20.559C15.5274 20.5501 16.0759 20.1626 16.5976 19.6707C16.9255 19.3607 16.9583 19.1639 16.6721 18.8002C16.1534 18.1444 15.6854 17.4498 15.2353 16.7463C14.8567 16.1471 14.9759 15.5568 15.4529 15.053C15.8941 14.588 18.1627 14.4568 18.7529 14.8712C19.2657 15.2319 19.5429 15.7357 19.367 16.3796C19.3014 16.6181 19.1524 16.8387 19.0123 17.0473C18.7291 17.4677 18.422 17.8761 18.1299 18.2934C17.4055 19.3249 17.477 19.6647 18.6188 20.2699C18.9288 20.4338 19.3044 20.5531 19.6532 20.559C20.7413 20.5799 21.8324 20.5352 22.9204 20.5143C23.5077 20.5769 24.3454 20.9287 24.5928 20.3146C25.2218 18.7734 25.6213 17.1398 26.1758 15.3422C25.4782 15.5658 25.04 15.8728 24.5302 15.7685C24.2738 15.6373 24.1337 15.4555 24.2798 15.1574C25.2308 15.3929 25.5885 14.6923 26.0058 14.0782C26.3188 13.6191 26.5871 13.0408 27.3205 13.4552V14.3316L27.3235 14.3286ZM17.2862 18.3322C17.5307 18.0341 17.9093 17.8016 17.8914 17.3693C17.8705 16.9639 17.5873 16.4839 17.2296 16.4929C16.8152 16.5018 16.5022 17.0026 16.5201 17.42C16.535 17.7867 16.8421 18.1175 17.2862 18.3322ZM16.8152 15.6641C16.8361 15.3481 16.6632 15.2289 16.4158 15.2557C15.9567 15.3094 15.6884 15.5687 15.6944 16.0487C15.6944 16.3051 15.7719 16.6926 16.0312 16.6211C16.4664 16.5048 16.6125 16.0159 16.8152 15.6641ZM18.7797 15.9295C18.7529 15.5479 18.4876 15.2528 17.9778 15.2349C17.7602 15.2259 17.5009 15.3422 17.5963 15.6135C17.7513 16.0547 17.9868 16.5137 18.4548 16.6419C18.6575 16.6986 18.7827 16.3259 18.7797 15.9265V15.9295Z" fill="#16140F"/>
<path d="M24.2826 15.1605C24.1336 15.4586 24.2737 15.6375 24.533 15.7717C24.4376 16.1771 24.3452 16.5825 24.2528 16.9909C23.5493 16.812 23.1677 17.2026 22.9084 17.769C22.5029 18.6514 22.2764 19.5367 22.9978 20.3833C22.9531 20.4161 22.9262 20.4609 22.9262 20.5175C21.8382 20.5384 20.7471 20.5831 19.659 20.5622C19.3102 20.5563 18.9346 20.437 18.6246 20.273C17.4828 19.6679 17.4113 19.3251 18.1357 18.2966C18.4278 17.8822 18.7349 17.4738 19.0181 17.0505C19.1582 16.8419 19.3102 16.6183 19.3728 16.3828C19.5487 15.7389 19.2715 15.2351 18.7587 14.8744C18.1685 14.46 15.8999 14.5912 15.4587 15.0562C14.9817 15.557 14.8625 16.1502 15.2411 16.7494C15.6882 17.456 16.1592 18.1476 16.6779 18.8034C16.9671 19.1701 16.9343 19.3638 16.6034 19.6739C16.0847 20.1687 15.5332 20.5563 14.7939 20.5622C13.2646 20.5771 11.5297 21.0273 10.2627 20.4549C8.99575 19.8795 9.22529 17.8763 8.66187 16.5527C8.52475 16.2307 8.45022 15.879 8.30713 15.399C9.07028 15.5719 9.75592 16.034 10.4028 15.4437C10.9334 14.9578 10.9334 14.1827 11.4074 13.5806C12.1497 14.4123 12.3256 16.025 13.9324 15.6107C14.7671 15.396 15.1665 14.6776 15.2262 13.8042C15.3216 13.5657 15.4199 13.3272 15.5183 13.0917C16.5617 12.7906 16.4484 11.5505 17.3099 10.9483C18.0284 12.1944 18.7259 13.4464 19.4622 14.6746C20.291 16.0549 21.4834 16.0519 22.3241 14.6955C22.5596 14.3169 22.798 13.9413 23.0395 13.5597C23.3555 13.8787 23.2691 14.4391 23.8235 14.4481C23.8921 14.7402 24.0471 14.9757 24.2856 15.1605H24.2826ZM20.6308 19.5755C21.5728 19.6768 21.9365 18.9584 21.9485 18.3234C21.9604 17.6795 21.5997 16.9879 20.6815 17.0088C19.9839 17.0237 19.1403 17.7213 19.2923 18.3294C19.4563 18.9703 19.7037 19.6947 20.6308 19.5755ZM13.8131 17.0148C12.8473 16.9909 12.4687 17.6646 12.4925 18.3264C12.5194 19.0359 12.9337 19.6649 13.8996 19.5964C14.8058 19.5308 15.1248 18.8928 15.095 18.228C15.0652 17.5454 14.6478 16.9134 13.8131 17.0148ZM11.8635 19.1701C11.8546 18.5381 11.7145 17.9448 11.3269 17.4291C11.0974 17.1221 10.8261 16.8687 10.4118 16.979C10.0034 17.0893 9.88113 17.456 9.82449 17.8226C9.72909 18.4576 9.88411 19.0568 10.1852 19.6113C10.4088 20.0256 10.7069 20.5473 11.2196 20.4251C11.7771 20.2939 11.8784 19.7096 11.8635 19.1671V19.1701Z" fill="#F3C65F"/>
<path d="M20.0765 22.1837C19.7903 21.6888 19.3074 21.8558 18.893 21.8558C16.1594 21.8439 13.4228 21.8558 10.6891 21.8409C10.3851 21.8409 9.84251 22.0555 9.86338 21.4682C9.88126 20.9823 10.3672 21.1731 10.6534 21.1701C11.7832 21.1493 12.913 21.1373 14.0458 21.1701C15.1011 21.2029 16.0938 21.0867 16.842 20.24C17.1521 19.8913 17.3727 20.0135 17.6439 20.2937C18.3236 21.0002 19.1792 21.197 20.1331 21.1731C21.409 21.1403 22.6849 21.1672 23.9608 21.1731C24.241 21.1731 24.6166 21.1075 24.5719 21.5636C24.5361 21.9303 24.1933 21.8319 23.9608 21.8379C23.2304 21.8558 22.5031 21.8468 21.7727 21.8558C21.418 21.8588 21.0215 21.7723 20.8307 22.2165C20.5773 22.2075 20.3269 22.2016 20.0735 22.1897L20.0765 22.1837Z" fill="#EDCF73"/>
<path d="M23.8204 14.4482C23.2659 14.4393 23.3494 13.8788 23.0363 13.5599C22.7919 13.9444 22.5534 14.317 22.3209 14.6956C21.4802 16.052 20.2878 16.052 19.4591 14.6748C18.7228 13.4466 18.0252 12.1975 17.3068 10.9484C16.4452 11.5506 16.5585 12.7907 15.5151 13.0918C15.5479 11.9739 16.2574 11.1661 16.8894 10.3761C17.2859 9.88123 17.6675 10.3761 17.894 10.7577C18.5737 11.9173 19.2266 13.0918 19.9033 14.2515C20.5591 15.3753 21.206 15.3694 21.8827 14.2515C21.996 14.0636 22.1003 13.8729 22.2255 13.694C22.4938 13.3035 22.625 12.5403 23.2718 12.8921C23.7727 13.1634 24.1095 13.7655 23.8204 14.4512V14.4482Z" fill="#16140F"/>
<path d="M24.25 16.988C24.3454 16.5826 24.4378 16.1772 24.5302 15.7688C25.0429 15.8761 25.4811 15.566 26.1757 15.3425C25.6212 17.143 25.2218 18.7766 24.5928 20.3149C24.3424 20.926 23.5047 20.5742 22.9204 20.5146C22.9204 20.458 22.9443 20.4132 22.992 20.3805C23.4689 20.604 23.7342 20.2612 23.9906 19.978C24.6643 19.2417 24.7567 18.0195 24.247 16.988H24.25Z" fill="#CA9254"/>
<path d="M17.2859 18.3354C16.8417 18.1237 16.5347 17.7899 16.5198 17.4232C16.5019 17.0058 16.8119 16.505 17.2293 16.4961C17.587 16.4901 17.8702 16.9671 17.8911 17.3725C17.9119 17.7988 17.5304 18.0373 17.2859 18.3354Z" fill="#CA646C"/>
<path d="M16.8119 15.6702C16.6062 16.0249 16.4631 16.5108 16.0279 16.6271C15.7655 16.6987 15.694 16.3111 15.691 16.0547C15.6851 15.5718 15.9533 15.3125 16.4124 15.2618C16.6628 15.235 16.8328 15.3512 16.8119 15.6702Z" fill="#CA646C"/>
<path d="M18.7795 15.9326C18.7855 16.3291 18.6603 16.7017 18.4546 16.6481C17.9836 16.5199 17.751 16.0608 17.596 15.6196C17.5006 15.3483 17.76 15.2321 17.9776 15.241C18.4874 15.2589 18.7556 15.554 18.7795 15.9356V15.9326Z" fill="#CA646C"/>
<path d="M20.631 19.5753C19.7039 19.6976 19.4535 18.9732 19.2925 18.3293C19.1375 17.7211 19.9841 17.0235 20.6817 17.0086C21.5998 16.9878 21.9605 17.6764 21.9486 18.3233C21.9367 18.9612 21.573 19.6767 20.631 19.5753Z" fill="#16140F"/>
<path d="M13.8134 17.0118C14.654 16.9134 15.0654 17.5424 15.0952 18.2251C15.125 18.8869 14.809 19.5278 13.8998 19.5934C12.934 19.6619 12.5196 19.0359 12.4928 18.3234C12.4689 17.6617 12.8475 16.9879 13.8134 17.0118Z" fill="#16140F"/>
<path d="M24.2497 16.9879C24.7595 18.0193 24.6641 19.2415 23.9934 19.9779C23.737 20.2611 23.4717 20.6039 22.9947 20.3803C22.2733 19.5337 22.4998 18.6483 22.9053 17.7659C23.1676 17.1965 23.5492 16.809 24.2497 16.9879ZM23.889 17.5125C23.0752 18.535 23.0186 18.8361 23.412 19.7096C23.9248 19.0984 24.1484 18.4516 23.889 17.5125Z" fill="#16140F"/>
<path d="M11.8635 19.1639C11.8784 19.7065 11.7741 20.2878 11.2196 20.4219C10.7069 20.5411 10.4117 20.0254 10.1852 19.6081C9.88706 19.0536 9.73205 18.4514 9.82446 17.8194C9.87812 17.4528 10.0003 17.0861 10.4117 16.9758C10.8261 16.8625 11.0974 17.1189 11.3269 17.4259C11.7145 17.9417 11.8516 18.5349 11.8635 19.1669V19.1639ZM10.5071 17.3961C10.376 18.4395 10.4177 19.1371 11.0974 19.7869C11.476 18.8986 11.1838 18.2636 10.5071 17.3961Z" fill="#16140F"/>
<path d="M23.8892 17.5156C24.1516 18.4547 23.925 19.1015 23.4123 19.7127C23.0158 18.8392 23.0724 18.5381 23.8892 17.5156Z" fill="#CA646C"/>
<path d="M10.5076 17.3992C11.1843 18.2696 11.4794 18.9016 11.0978 19.79C10.4181 19.1401 10.3764 18.4425 10.5076 17.3992Z" fill="#CA646C"/>
</svg>
