<svg width="34" height="34" viewBox="0 0 34 34" fill="none" xmlns="http://www.w3.org/2000/svg">
<path d="M16.9622 33.4172C7.95648 33.4172 0.693911 26.1289 0.732576 17.0652C0.768018 8.0788 8.11758 0.896781 17.0588 0.929002C25.955 0.961223 33.2143 8.2399 33.2111 17.1812C33.2079 26.1547 25.9389 33.4172 16.9654 33.4172H16.9622ZM5.40781 24.6532C5.43681 24.7079 5.45936 24.7659 5.49481 24.8175C6.21977 25.9098 7.08329 26.8828 8.0918 27.7141C11.1012 30.1887 14.5617 31.2745 18.4411 30.8686C21.9274 30.5045 24.8531 28.9772 27.2181 26.3834C28.3103 25.1848 29.1513 23.8251 29.7603 22.3236C30.569 20.3324 30.8687 18.2638 30.714 16.1243C30.6174 14.7453 30.3145 13.4146 29.8086 12.1322C28.8742 9.7575 27.3792 7.8017 25.3718 6.23254C25.0238 5.96189 24.6758 5.68479 24.2666 5.50435C24.1958 5.44958 24.1313 5.38514 24.054 5.34003C23.6093 5.09193 23.1615 4.84061 22.6943 4.62795C20.268 3.53244 17.7323 3.14901 15.0998 3.51633C11.8133 3.97709 9.03909 5.43991 6.78686 7.88547C5.79446 8.96164 5.00505 10.1731 4.40252 11.5071C3.43912 13.6433 3.05247 15.8859 3.22324 18.2187C3.33601 19.7459 3.69367 21.2217 4.30908 22.6329C4.6184 23.3386 4.9535 24.0281 5.41103 24.6499L5.40781 24.6532Z" fill="#383331"/>
<path d="M5.40762 24.6531C4.94687 24.0312 4.61177 23.3417 4.30567 22.636C3.69026 21.228 3.33261 19.7523 3.21983 18.2218C3.04906 15.889 3.43571 13.6464 4.39911 11.5102C5.00164 10.173 5.79105 8.96477 6.78345 7.88859C9.03568 5.44303 11.8067 3.98021 15.0964 3.51945C17.7321 3.15214 20.2646 3.53556 22.6909 4.63107C23.1581 4.84373 23.6027 5.09505 24.0506 5.34315C24.1279 5.38504 24.1923 5.4527 24.2632 5.50748C24.6015 6.12612 24.9528 6.73509 25.2266 7.38917C25.4006 7.80804 25.5907 8.22691 25.6777 8.678C25.5875 8.59101 25.4973 8.50723 25.4071 8.42024C24.492 7.52128 23.4642 6.77375 22.3139 6.20345C20.0359 5.07572 17.629 4.67618 15.1125 5.04994C11.7197 5.55581 9.00024 7.2184 6.98644 9.98939C5.23041 12.4092 4.50544 15.135 4.73743 18.1122C4.8792 19.9231 5.42051 21.6082 6.32592 23.1806C6.52246 23.5221 6.71257 23.8701 6.98644 24.1569C6.99933 24.1698 7.01544 24.1826 7.02833 24.1955L7.03477 24.2116L7.02511 24.1955C7.02511 24.1955 6.99933 24.1665 6.98644 24.1536C6.96711 23.999 6.87689 23.8701 6.81245 23.7348C5.61384 21.2312 5.3013 18.6117 5.86838 15.9019C6.44191 13.1631 7.82096 10.8883 9.97331 9.10009C12.5316 6.9703 15.496 6.05845 18.805 6.30977C20.5772 6.4451 22.2398 6.96708 23.7799 7.85637C24.5532 8.30424 25.2975 8.79722 25.929 9.43841C25.9387 9.48674 25.9452 9.53185 25.958 9.58018C26.3254 11.0656 26.4252 12.5703 26.2899 14.0943C26.1868 15.2704 25.929 16.4174 25.5231 17.5291C24.9141 19.2013 24.0183 20.706 22.8294 22.0239C21.6276 23.3546 20.226 24.434 18.5988 25.2234C16.1597 26.4091 13.5917 26.8215 10.9077 26.5187C9.02602 26.306 7.26676 25.7099 5.62995 24.753C5.55906 24.7111 5.47851 24.6853 5.40118 24.6531H5.40762Z" fill="#4C4644"/>
<path d="M25.6805 8.6715C25.5936 8.22041 25.4067 7.80476 25.2295 7.38267C24.9556 6.73181 24.6044 6.11962 24.2661 5.50098C24.6753 5.68141 25.0232 5.95851 25.3712 6.22917C27.3786 7.7951 28.8736 9.7509 29.808 12.1288C30.3139 13.4112 30.6168 14.7419 30.7134 16.1209C30.8681 18.2636 30.5684 20.3322 29.7597 22.3202C29.1507 23.8217 28.3098 25.1782 27.2175 26.38C24.8557 28.977 21.9268 30.5011 18.4405 30.8652C14.5612 31.2712 11.1039 30.1853 8.09122 27.7108C7.08271 26.8827 6.21919 25.9064 5.49422 24.8141C5.45878 24.7626 5.43623 24.7046 5.40723 24.6498C5.48456 24.682 5.56511 24.7078 5.63599 24.7497C7.26959 25.7099 9.03207 26.3027 10.9138 26.5154C13.5978 26.8215 16.1657 26.4058 18.6049 25.2201C20.2288 24.4307 21.6304 23.3545 22.8355 22.0206C24.0244 20.7027 24.9201 19.198 25.5291 17.5258C25.9351 16.4109 26.1929 15.2671 26.296 14.091C26.4313 12.5702 26.3314 11.0623 25.9641 9.57691C25.9512 9.5318 25.9448 9.48347 25.9351 9.43513C26.2283 9.63813 26.4474 9.91522 26.7019 10.1601C26.8308 10.2825 26.9146 10.4533 27.0822 10.5339C27.0983 10.5822 27.124 10.6241 27.1724 10.6499C27.1756 10.6531 27.182 10.6563 27.1853 10.6595C27.182 10.6563 27.1788 10.6499 27.1756 10.6466C27.1498 10.6047 27.124 10.5596 27.0983 10.5178C27.0532 10.4404 27.0113 10.3599 26.9629 10.2858C26.5892 9.70257 26.1381 9.18381 25.6805 8.66506V8.6715Z" fill="#5E5756"/>
<path d="M25.6814 8.67151C26.1389 9.19027 26.59 9.71224 26.9638 10.2922C27.0121 10.3695 27.054 10.4469 27.0991 10.5242C27.0927 10.5307 27.0862 10.5339 27.083 10.5403C26.9154 10.4565 26.8284 10.289 26.7028 10.1666C26.4482 9.92168 26.2324 9.64136 25.9359 9.44159C25.3044 8.8004 24.5601 8.30742 23.7868 7.85955C22.2467 6.96703 20.5808 6.44506 18.8119 6.31295C15.4996 6.06485 12.5353 6.97348 9.9802 9.10327C7.83107 10.8915 6.4488 13.1663 5.87527 15.9051C5.30819 18.6148 5.6175 21.2312 6.81934 23.7379C6.88378 23.8733 6.974 24.0022 6.99333 24.1568C6.71946 23.8701 6.52935 23.5188 6.33281 23.1805C5.4274 21.6114 4.88609 19.923 4.74432 18.1122C4.51233 15.1318 5.23408 12.4059 6.99333 9.98934C9.00391 7.21835 11.7266 5.55576 15.1194 5.0499C17.6359 4.67614 20.0428 5.07245 22.3208 6.2034C23.471 6.77371 24.4989 7.51801 25.414 8.42019C25.5042 8.50719 25.5944 8.59096 25.6846 8.67796V8.67151H25.6814Z" fill="#5E5756"/>
<path d="M7.54395 23.4065L7.55446 23.4205L7.54745 23.403L7.54395 23.4065Z" fill="#B69942"/>
<path d="M7.50181 23.3577C7.50181 23.3577 7.53128 23.3905 7.54438 23.4036C7.54438 23.4036 7.51163 23.3741 7.49854 23.361V23.3577H7.50181Z" fill="#B69942"/>
<path d="M16.9719 31.8749C25.0357 31.8749 31.5728 25.2927 31.5728 17.173C31.5728 9.0534 25.0357 2.47113 16.9719 2.47113C8.90811 2.47113 2.37109 9.0534 2.37109 17.173C2.37109 25.2927 8.90811 31.8749 16.9719 31.8749Z" stroke="#FBC300" stroke-opacity="0.88" stroke-width="3" stroke-miterlimit="10"/>
<path d="M18.3505 13.9723C18.3802 14.017 18.3832 14.0736 18.3951 14.1212C18.4368 14.2791 18.5024 14.428 18.5649 14.5769C18.6126 14.6931 18.6692 14.8093 18.7436 14.9105C18.8419 15.0416 18.9372 15.1786 19.0474 15.3007C19.2053 15.4794 19.381 15.6343 19.5717 15.7743C19.6819 15.8547 19.801 15.9233 19.9231 15.9858C20.0512 16.0513 20.1853 16.1049 20.3163 16.1615C20.3729 16.1854 20.4325 16.2062 20.498 16.2181C20.5665 16.233 20.635 16.2509 20.7035 16.2717C20.7482 16.2866 20.7929 16.2926 20.8376 16.2896C21.0937 16.3522 21.3558 16.3373 21.615 16.3254C21.746 16.3194 21.8771 16.2896 22.0052 16.2658C22.1213 16.242 22.2345 16.2092 22.3477 16.1735C22.4817 16.1288 22.6098 16.0662 22.7379 16.0067C22.8332 15.962 22.9255 15.9143 23.0119 15.8577C23.2294 15.7118 23.4289 15.545 23.6106 15.3573C23.6225 15.3454 23.6374 15.3275 23.6315 15.3037C23.7923 15.4497 23.9472 15.6075 24.1497 15.6969C24.2302 15.7326 24.3016 15.7803 24.388 15.8011C24.5012 15.8279 24.6114 15.8637 24.7276 15.8875C24.9003 15.9233 25.0731 15.9113 25.2429 15.9024C25.3829 15.8935 25.3799 15.8786 25.3888 16.0156C25.3888 16.0156 25.3888 16.0215 25.3888 16.0245C25.4067 16.1913 25.359 16.3522 25.3382 16.513C25.3203 16.6649 25.3024 16.8168 25.2667 16.9658C25.225 17.1326 25.2161 17.3053 25.1654 17.4721C25.1416 17.5525 25.1267 17.6449 25.1148 17.7342C25.1059 17.8236 25.0731 17.91 25.0522 17.9993C25.0374 18.0648 25.0225 18.1334 25.0076 18.1989C24.9927 18.2704 24.9718 18.3478 24.9569 18.4193C24.945 18.4818 24.9361 18.5533 24.8974 18.6129C24.8795 18.6397 24.8884 18.6665 24.8854 18.6963C24.8676 18.7172 24.8467 18.738 24.8527 18.7708C24.8408 18.7857 24.8437 18.8035 24.8437 18.8214C24.8259 18.8542 24.7991 18.881 24.808 18.9257C24.805 18.9942 24.7663 19.0537 24.7484 19.1193C24.7216 19.2235 24.6859 19.3248 24.6501 19.426C24.6114 19.5392 24.5697 19.6524 24.528 19.7626C24.4833 19.8758 24.4297 19.989 24.3821 20.1022C24.3046 20.2839 24.2153 20.4596 24.1229 20.6353C24.0544 20.7634 23.9859 20.8915 23.9055 21.0136C23.8727 21.0136 23.84 21.0077 23.8042 21.0077C21.5435 21.0077 19.2798 21.0077 17.019 21.0077C17.019 18.884 17.019 16.7573 17.019 14.6335C17.019 14.5769 17.019 14.5203 17.019 14.4638C17.159 14.4518 17.299 14.4816 17.436 14.4191C17.5224 14.3804 17.6267 14.3833 17.719 14.3357C17.8173 14.285 17.9156 14.2404 18.0109 14.1838C18.1003 14.1331 18.1777 14.0706 18.2551 14.0051C18.2849 13.9812 18.3177 13.9693 18.3534 13.9872L18.3505 13.9723Z" fill="#FEBF2E"/>
<path d="M17.0185 20.9928C19.2793 20.9928 21.543 20.9928 23.8037 20.9928C23.8365 20.9928 23.8692 20.9958 23.905 20.9987C23.8931 21.0851 23.896 21.1745 23.896 21.2609C23.896 21.7315 23.896 22.2021 23.896 22.6697C23.896 22.7799 23.896 22.8901 23.8424 22.9914C23.7799 23.1135 23.6875 23.2088 23.5624 23.2714C23.4373 23.3339 23.3033 23.3459 23.1633 23.3459C22.2697 23.3459 21.3762 23.3399 20.4826 23.3459C20.2622 23.3459 20.0447 23.3488 19.8243 23.3578C19.7945 23.331 19.7558 23.3429 19.7201 23.3429C18.8772 23.3429 18.0342 23.3488 17.1913 23.3429C16.1339 23.3339 15.0765 23.3429 14.0191 23.3369C13.054 23.3369 12.092 23.3369 11.1269 23.3369C11.0941 23.3369 11.0614 23.3399 11.0256 23.3429C10.9393 23.328 10.8499 23.3399 10.7635 23.3339C10.7159 23.3339 10.6652 23.3339 10.6235 23.3012C10.6563 23.3012 10.692 23.3012 10.7248 23.3012C12.78 23.3012 14.8382 23.3012 16.8934 23.3012C16.9748 23.3012 17.0155 23.2595 17.0155 23.1761C17.0155 22.4463 17.0155 21.7196 17.0155 20.9898L17.0185 20.9928Z" fill="#FEA63B"/>
<path d="M25.3859 16.0156C25.3859 16.0156 25.3859 16.0096 25.3859 16.0067C25.3769 15.8696 25.3799 15.8845 25.2399 15.8935C25.0702 15.9024 24.8974 15.9143 24.7246 15.8786C24.6085 15.8548 24.4983 15.822 24.3851 15.7922C24.3017 15.7714 24.2272 15.7237 24.1468 15.688C23.9413 15.5986 23.7894 15.4407 23.6285 15.2948C23.5719 15.2263 23.5153 15.1607 23.4587 15.0922C23.4528 15.0386 23.423 15.0029 23.3813 14.9701C23.3426 14.8748 23.289 14.7854 23.2562 14.6872C23.2056 14.5412 23.1549 14.3953 23.146 14.2374C23.146 14.0974 23.146 13.9574 23.146 13.8204C23.1609 13.6298 23.2205 13.451 23.2949 13.2723C23.4081 13.0013 23.5809 12.7749 23.8013 12.5873C23.9294 12.48 24.0694 12.3907 24.2183 12.3132C24.251 12.3192 24.2749 12.3043 24.2927 12.2775C24.3076 12.2775 24.3225 12.2715 24.3404 12.2686C24.3761 12.2775 24.394 12.2507 24.4178 12.2328C24.4893 12.2179 24.5608 12.1971 24.6323 12.1852C24.8855 12.1375 25.1387 12.1375 25.3918 12.1852C25.5854 12.2209 25.7671 12.2924 25.9369 12.3907C26.2497 12.5694 26.488 12.8196 26.6607 13.1323C26.6875 13.177 26.7084 13.2277 26.7322 13.2723C26.7292 13.3081 26.7352 13.3379 26.7709 13.3528C26.7709 13.3676 26.7739 13.3825 26.7769 13.3974C26.765 13.4302 26.7918 13.4481 26.8067 13.4689C26.8156 13.5642 26.8484 13.6566 26.8633 13.7549C26.8901 13.9366 26.893 14.1153 26.8633 14.297C26.8484 14.3863 26.8245 14.4727 26.8067 14.5591C26.7858 14.6603 26.7381 14.7557 26.6935 14.848C26.6041 15.0237 26.4999 15.1905 26.3509 15.3275C26.1841 15.4824 26.0173 15.6343 25.8029 15.7207C25.7105 15.7565 25.6242 15.8041 25.5289 15.825C25.4723 15.8369 25.4127 15.8548 25.4186 15.9352C25.4186 15.962 25.4127 15.9918 25.3859 16.0096V16.0156Z" fill="#FEA63B"/>
<path d="M24.8079 18.91C24.799 18.8686 24.8257 18.839 24.8434 18.8065C24.8582 18.8509 24.8552 18.8863 24.8079 18.91Z" fill="#772A0C"/>
<path d="M24.8521 18.7584C24.8462 18.7258 24.8669 18.7051 24.8846 18.6844C24.8846 18.714 24.8965 18.7465 24.8521 18.7584Z" fill="#772A0C"/>
<path d="M17.0158 14.4459C17.0158 14.5025 17.0158 14.5591 17.0158 14.6156C17.0158 16.7394 17.0158 18.8661 17.0158 20.9898C16.9741 20.9898 16.9324 20.9898 16.8907 20.9898C14.6895 20.9898 12.4913 20.9898 10.2902 20.9898C10.2425 20.9898 10.1978 20.9898 10.1502 20.9928C10.0846 20.963 10.0727 20.8945 10.0429 20.8438C9.91487 20.6294 9.80466 20.406 9.69743 20.1796C9.61403 20.0039 9.52467 19.8281 9.47106 19.6405C9.41745 19.4588 9.34596 19.2831 9.29532 19.1014C9.23277 18.8839 9.17022 18.6695 9.10767 18.452C9.03917 18.2138 8.98555 17.9725 8.93194 17.7342C8.91109 17.6449 8.89322 17.5555 8.8813 17.4632C8.86939 17.3678 8.8396 17.2755 8.81875 17.1802C8.80088 17.0938 8.79492 17.0074 8.77705 16.9211C8.7562 16.8168 8.74131 16.7096 8.72344 16.6024C8.70259 16.4624 8.69365 16.3224 8.66089 16.1854C8.64302 16.1168 8.65195 16.0424 8.646 15.9679C8.66089 15.8518 8.66089 15.8518 8.77407 15.8845C8.80088 15.8935 8.83067 15.8935 8.85747 15.8935C9.08682 15.8964 9.3132 15.8964 9.53659 15.8249C9.72424 15.7654 9.897 15.685 10.0638 15.5837C10.1889 15.5062 10.2842 15.399 10.3914 15.3067C10.6208 15.5747 10.9008 15.7862 11.2046 15.962C11.3625 16.0513 11.5293 16.1258 11.708 16.1764C11.7407 16.1854 11.7705 16.2092 11.8063 16.2092C11.8063 16.2241 11.8122 16.239 11.8241 16.239C11.9075 16.2479 11.982 16.2956 12.0684 16.2807C12.2084 16.2807 12.3454 16.3283 12.4884 16.3283C12.676 16.3283 12.8666 16.3402 13.0513 16.3134C13.2121 16.2926 13.376 16.2807 13.5249 16.2122C13.5457 16.2032 13.5696 16.2062 13.5934 16.2032C13.5994 16.2032 13.6083 16.2062 13.6172 16.2032C13.7364 16.1764 13.8436 16.1198 13.9568 16.0781C13.9627 16.0781 13.9627 16.0603 13.9657 16.0513C13.9657 16.0513 13.9687 16.0483 13.9717 16.0454C14.0104 16.0573 14.0342 16.0245 14.0581 16.0096C14.1236 15.9709 14.201 15.956 14.2517 15.8935C14.2576 15.8935 14.2606 15.8935 14.2666 15.8935C14.3142 15.8786 14.3529 15.8518 14.3887 15.816C14.5138 15.7445 14.624 15.6492 14.7312 15.5509C14.8623 15.4258 14.9963 15.3037 15.1095 15.1607C15.1988 15.0475 15.2763 14.9254 15.3537 14.8003C15.4431 14.6514 15.5086 14.4905 15.5801 14.3327C15.589 14.3148 15.589 14.294 15.595 14.2731C15.6427 14.2672 15.6337 14.2344 15.6278 14.2046C15.6307 14.1867 15.6337 14.1689 15.6367 14.151C15.6814 14.1331 15.6695 14.0944 15.6665 14.0616C15.6665 14.0378 15.6695 14.017 15.6724 13.9931C15.732 13.9157 15.7767 13.9663 15.8154 14.014C15.8392 14.0467 15.878 14.0467 15.9048 14.0706C16.0537 14.2076 16.2413 14.282 16.426 14.3506C16.6137 14.4191 16.8132 14.4518 17.0158 14.4369V14.4459Z" fill="#FEF67F"/>
<path d="M10.3944 15.3156C10.2842 15.408 10.1888 15.5152 10.0667 15.5926C9.89992 15.6939 9.72717 15.7743 9.53952 15.8339C9.31613 15.9084 9.08975 15.9054 8.8604 15.9024C8.8336 15.9024 8.80381 15.9024 8.777 15.8935C8.6668 15.8577 8.66382 15.8577 8.64893 15.9769C8.62212 15.9679 8.6251 15.9441 8.6251 15.9262C8.61914 15.8696 8.58042 15.8458 8.53276 15.8369C8.17831 15.7535 7.88939 15.5599 7.64515 15.2978C7.52005 15.1637 7.42176 15.0088 7.33538 14.845C7.25198 14.6872 7.22219 14.5174 7.18049 14.3476C7.14475 14.2076 7.15071 14.0646 7.15368 13.9246C7.15964 13.7221 7.21623 13.5285 7.2907 13.3379C7.35921 13.1591 7.44856 12.9923 7.57366 12.8494C7.7911 12.5962 8.05023 12.4056 8.36298 12.2805C8.67275 12.1554 8.99146 12.1464 9.31315 12.1792C9.49484 12.1971 9.67058 12.2656 9.84035 12.349C10.0697 12.4622 10.2693 12.6051 10.4361 12.7958C10.585 12.9655 10.7041 13.1532 10.7816 13.3676C10.8114 13.451 10.8441 13.5344 10.8531 13.6238C10.8531 13.6476 10.862 13.6715 10.8888 13.6804C10.8888 13.6983 10.8888 13.7191 10.8888 13.737C10.8888 13.9336 10.8888 14.1302 10.8888 14.3267C10.8233 14.6484 10.7012 14.9433 10.4986 15.2054C10.4659 15.2471 10.4182 15.2739 10.3944 15.3216V15.3156Z" fill="#FEBF2E"/>
<path d="M18.35 13.9723C18.3113 13.9545 18.2815 13.9664 18.2517 13.9902C18.1743 14.0557 18.0968 14.1183 18.0075 14.1689C17.9122 14.2255 17.8139 14.2702 17.7156 14.3208C17.6262 14.3685 17.522 14.3655 17.4326 14.4042C17.2956 14.4638 17.1556 14.434 17.0156 14.4489C17.0156 14.4072 17.0156 14.3655 17.0156 14.3238C17.0156 13.1175 17.0156 11.9142 17.0156 10.7078C17.1943 10.6929 17.3641 10.7257 17.5369 10.7763C17.7454 10.8359 17.933 10.9283 18.1088 11.0504C18.2994 11.1785 18.4513 11.3453 18.5794 11.5299C18.6717 11.664 18.7372 11.8159 18.7909 11.9708C18.8713 12.2031 18.916 12.4384 18.9011 12.6826C18.8951 12.8047 18.8594 12.9209 18.8355 13.043C18.8147 13.1383 18.7819 13.2277 18.7462 13.3171C18.6985 13.4302 18.6389 13.5405 18.5704 13.6417C18.5079 13.737 18.4304 13.8175 18.356 13.9009C18.3322 13.9277 18.3381 13.9485 18.3441 13.9753L18.35 13.9723Z" fill="#FEA63B"/>
<path d="M17.0186 10.7078C17.0186 11.9141 17.0186 13.1175 17.0186 14.3238C17.0186 14.3655 17.0186 14.4072 17.0186 14.4489C16.8161 14.4638 16.6165 14.431 16.4289 14.3625C16.2442 14.297 16.0566 14.2196 15.9076 14.0825C15.8808 14.0587 15.8421 14.0557 15.8183 14.026C15.7825 13.9783 15.7349 13.9277 15.6753 14.0051C15.7081 13.9217 15.6545 13.877 15.6038 13.8175C15.446 13.6268 15.3149 13.4183 15.2404 13.1771C15.1689 12.9447 15.1213 12.7094 15.1421 12.4652C15.163 12.2537 15.1958 12.0422 15.2851 11.8486C15.4162 11.5657 15.5949 11.3214 15.8421 11.1248C16.0268 10.9759 16.2293 10.8657 16.4527 10.7972C16.6344 10.7406 16.822 10.6929 17.0186 10.7138V10.7078Z" fill="#FEBF2E"/>
<path d="M13.9719 16.0632C13.9719 16.0632 13.969 16.0871 13.963 16.09C13.8498 16.1317 13.7426 16.1883 13.6234 16.2151C13.6175 16.2151 13.6085 16.2151 13.5996 16.2151C13.7188 16.1556 13.8409 16.099 13.969 16.0662L13.9719 16.0632Z" fill="#FEF67F"/>
<path d="M12.0741 16.2896C11.9877 16.3045 11.9103 16.2569 11.8299 16.2479C11.818 16.2479 11.812 16.2301 11.812 16.2181C11.9014 16.236 11.9937 16.2479 12.0741 16.2896Z" fill="#FEF67F"/>
<path d="M15.666 14.0706C15.666 14.1031 15.6808 14.1415 15.6365 14.1593C15.6217 14.1208 15.6453 14.0972 15.666 14.0706Z" fill="#FEA63B"/>
<path d="M15.6244 14.2136C15.6303 14.2431 15.6422 14.2757 15.5919 14.2816C15.589 14.252 15.586 14.2224 15.6244 14.2136Z" fill="#FEA63B"/>
<path d="M10.1533 20.9988C10.201 20.9988 10.2457 20.9958 10.2933 20.9958C12.4945 20.9958 14.6927 20.9958 16.8938 20.9958C16.9355 20.9958 16.9772 20.9958 17.0189 20.9958C17.0189 21.7255 17.0189 22.4523 17.0189 23.1821C17.0189 23.2655 16.9782 23.3072 16.8968 23.3072C14.8416 23.3072 12.7834 23.3072 10.7282 23.3072C10.6954 23.3072 10.6597 23.3072 10.6269 23.3072C10.612 23.3072 10.5941 23.3072 10.5793 23.3042C10.5673 23.2714 10.5376 23.2744 10.5078 23.2744C10.3588 23.2208 10.2576 23.1165 10.195 22.9736C10.1742 22.9229 10.1533 22.8693 10.1533 22.8097C10.1533 22.2051 10.1533 21.6034 10.1533 20.9988Z" fill="#FEBF2E"/>
<path d="M10.5073 23.2714C10.5339 23.2714 10.5635 23.2684 10.5783 23.3009C10.5487 23.3039 10.5221 23.3039 10.5073 23.2714Z" fill="#FEA63B"/>
</svg>
