<svg width="34" height="34" viewBox="0 0 34 34" fill="none" xmlns="http://www.w3.org/2000/svg">
<path d="M16.9348 33.0721C7.92913 33.0721 0.666567 25.7837 0.705232 16.72C0.740675 7.73364 8.09024 0.551627 17.0315 0.583848C25.9277 0.616069 33.187 7.89474 33.1838 16.836C33.1806 25.8095 25.9116 33.0721 16.9381 33.0721H16.9348ZM5.38047 24.308C5.40947 24.3628 5.43202 24.4208 5.46746 24.4723C6.19243 25.5646 7.05595 26.5377 8.06446 27.369C11.0739 29.8435 14.5344 30.9294 18.4138 30.5234C21.9001 30.1593 24.8257 28.632 27.1907 26.0383C28.283 24.8397 29.124 23.4799 29.7329 21.9784C30.5417 19.9872 30.8413 17.9186 30.6867 15.7792C30.59 14.4001 30.2871 13.0694 29.7813 11.787C28.8469 9.41234 27.3518 7.45654 25.3445 5.88739C24.9965 5.61674 24.6485 5.33964 24.2393 5.1592C24.1684 5.10442 24.104 5.03998 24.0266 4.99487C23.582 4.74677 23.1341 4.49545 22.6669 4.28279C20.2407 3.18729 17.7049 2.80386 15.0725 3.17118C11.786 3.63193 9.01175 5.09476 6.75952 7.54032C5.76712 8.61649 4.97771 9.82799 4.37518 11.1619C3.41178 13.2982 3.02513 15.5407 3.1959 17.8735C3.30867 19.4008 3.66632 20.8765 4.28174 22.2878C4.59106 22.9934 4.92615 23.6829 5.38369 24.3048L5.38047 24.308Z" fill="#383331"/>
<path d="M5.38028 24.3079C4.91952 23.6861 4.58443 22.9965 4.27833 22.2909C3.66291 20.8828 3.30526 19.4071 3.19249 17.8766C3.02172 15.5439 3.40837 13.3013 4.37177 11.1651C4.9743 9.82789 5.76371 8.61961 6.75611 7.54344C9.00834 5.09788 11.7793 3.63506 15.0691 3.1743C17.7047 2.80698 20.2373 3.19041 22.6635 4.28592C23.1307 4.49857 23.5754 4.7499 24.0232 4.998C24.1006 5.03988 24.165 5.10755 24.2359 5.16232C24.5742 5.78096 24.9254 6.38993 25.1993 7.04402C25.3733 7.46289 25.5634 7.88176 25.6504 8.33285C25.5602 8.24585 25.4699 8.16208 25.3797 8.07508C24.4646 7.17612 23.4368 6.4286 22.2865 5.85829C20.0085 4.73056 17.6016 4.33103 15.0852 4.70479C11.6923 5.21065 8.9729 6.87325 6.9591 9.64423C5.20307 12.064 4.4781 14.7899 4.71009 17.7671C4.85186 19.5779 5.39317 21.2631 6.29857 22.8354C6.49512 23.177 6.68522 23.5249 6.9591 23.8117C6.97199 23.8246 6.9881 23.8375 7.00099 23.8504L7.00743 23.8665L6.99776 23.8504C6.99776 23.8504 6.97199 23.8214 6.9591 23.8085C6.93977 23.6538 6.84955 23.525 6.78511 23.3896C5.58649 20.8861 5.27395 18.2665 5.84104 15.5567C6.41457 12.818 7.79362 10.5432 9.94596 8.75494C12.5043 6.62515 15.4686 5.7133 18.7777 5.96462C20.5498 6.09995 22.2124 6.62192 23.7526 7.51122C24.5259 7.95909 25.2702 8.45206 25.9017 9.09326C25.9114 9.14159 25.9178 9.1867 25.9307 9.23503C26.298 10.7204 26.3979 12.2251 26.2626 13.7492C26.1595 14.9252 25.9017 16.0723 25.4957 17.1839C24.8867 18.8562 23.991 20.3609 22.8021 21.6787C21.6002 23.0094 20.1986 24.0888 18.5715 24.8782C16.1324 26.0639 13.5644 26.4764 10.8804 26.1735C8.99867 25.9608 7.23942 25.3648 5.6026 24.4078C5.53172 24.3659 5.45117 24.3401 5.37384 24.3079H5.38028Z" fill="#4C4644"/>
<path d="M25.6532 8.32635C25.5662 7.87526 25.3793 7.45961 25.2021 7.03752C24.9282 6.38666 24.577 5.77446 24.2387 5.15582C24.6479 5.33626 24.9959 5.61336 25.3439 5.88401C27.3512 7.44994 28.8463 9.40574 29.7807 11.7836C30.2866 13.066 30.5894 14.3967 30.6861 15.7758C30.8407 17.9185 30.5411 19.9871 29.7324 21.9751C29.1234 23.4766 28.2824 24.8331 27.1901 26.0349C24.8284 28.6319 21.8995 30.1559 18.4132 30.52C14.5338 30.926 11.0765 29.8402 8.06387 27.3656C7.05536 26.5375 6.19185 25.5612 5.46688 24.469C5.43144 24.4174 5.40888 24.3594 5.37988 24.3046C5.45721 24.3369 5.53776 24.3626 5.60865 24.4045C7.24224 25.3647 9.00472 25.9576 10.8864 26.1702C13.5704 26.4763 16.1384 26.0607 18.5775 24.8749C20.2014 24.0855 21.6031 23.0094 22.8081 21.6754C23.9971 20.3576 24.8928 18.8529 25.5018 17.1806C25.9077 16.0658 26.1655 14.9219 26.2686 13.7459C26.4039 12.2251 26.3041 10.7171 25.9367 9.23175C25.9239 9.18664 25.9174 9.13831 25.9077 9.08998C26.201 9.29297 26.4201 9.57007 26.6746 9.81495C26.8035 9.93739 26.8873 10.1082 27.0548 10.1887C27.0709 10.237 27.0967 10.2789 27.145 10.3047C27.1482 10.3079 27.1547 10.3111 27.1579 10.3144C27.1547 10.3111 27.1515 10.3047 27.1482 10.3015C27.1225 10.2596 27.0967 10.2145 27.0709 10.1726C27.0258 10.0953 26.9839 10.0147 26.9356 9.94061C26.5618 9.35741 26.1107 8.83866 25.6532 8.3199V8.32635Z" fill="#5E5756"/>
<path d="M25.654 8.32636C26.1116 8.84511 26.5627 9.36709 26.9364 9.94706C26.9848 10.0244 27.0266 10.1017 27.0718 10.1791C27.0653 10.1855 27.0589 10.1887 27.0557 10.1952C26.8881 10.1114 26.8011 9.94384 26.6754 9.8214C26.4209 9.57653 26.205 9.2962 25.9086 9.09644C25.2771 8.45524 24.5328 7.96226 23.7595 7.51439C22.2193 6.62188 20.5535 6.0999 18.7846 5.9678C15.4723 5.7197 12.508 6.62832 9.95286 8.75812C7.80373 10.5464 6.42146 12.8212 5.84793 15.5599C5.28084 18.2697 5.59016 20.886 6.792 23.3928C6.85644 23.5281 6.94666 23.657 6.96599 23.8117C6.69211 23.5249 6.50201 23.1737 6.30546 22.8354C5.40006 21.2662 4.85875 19.5779 4.71698 17.767C4.48499 14.7866 5.20673 12.0607 6.96599 9.64419C8.97657 6.8732 11.6992 5.21061 15.0921 4.70474C17.6085 4.33098 20.0154 4.7273 22.2934 5.85825C23.4437 6.42855 24.4715 7.17285 25.3866 8.07504C25.4768 8.16203 25.567 8.24581 25.6573 8.3328V8.32636H25.654Z" fill="#5E5756"/>
<path d="M7.5166 23.0614L7.52712 23.0754L7.52011 23.0579L7.5166 23.0614Z" fill="#B69942"/>
<path d="M7.47447 23.0126C7.47447 23.0126 7.50394 23.0453 7.51703 23.0584C7.51703 23.0584 7.48429 23.0289 7.47119 23.0158V23.0126H7.47447Z" fill="#B69942"/>
<path d="M16.9446 31.5298C25.0084 31.5298 31.5454 24.9475 31.5454 16.8279C31.5454 8.70824 25.0084 2.12598 16.9446 2.12598C8.88076 2.12598 2.34375 8.70824 2.34375 16.8279C2.34375 24.9475 8.88076 31.5298 16.9446 31.5298Z" stroke="#FBC300" stroke-opacity="0.88" stroke-width="3" stroke-miterlimit="10"/>
<path d="M9.03762 18.5985C8.8162 17.9728 8.66217 17.3278 8.47283 16.6892C8.18081 15.688 7.89842 14.6868 7.61282 13.6823C7.60319 13.6503 7.58715 13.6214 7.61603 13.5732C8.11022 13.8332 8.60761 14.0931 9.1018 14.353C9.62166 14.6258 10.1415 14.9018 10.6614 15.1777C10.6999 15.2002 10.7416 15.2291 10.7897 15.2002C10.8186 15.2451 10.8539 15.2804 10.9053 15.3029C11.7428 15.7393 12.5804 16.179 13.4147 16.6218C13.5238 16.6796 13.5719 16.6539 13.6265 16.5512C14.0052 15.8228 14.3902 15.0975 14.7721 14.3723C14.801 14.3209 14.8267 14.2664 14.817 14.2054C14.9229 14.1862 14.9293 14.0867 14.9679 14.0161C15.6289 12.7549 16.2868 11.4938 16.9446 10.2327C16.9639 10.1974 16.9831 10.1653 17.0184 10.1043C17.1949 10.4348 17.3586 10.7397 17.519 11.0478C18.0421 12.049 18.5652 13.0502 19.0882 14.0514C19.1203 14.1124 19.1267 14.1958 19.2198 14.2086C19.2102 14.2921 19.2551 14.3594 19.2904 14.4268C19.6626 15.136 20.0413 15.842 20.4103 16.5544C20.4745 16.6763 20.5355 16.6699 20.6382 16.6154C21.219 16.3073 21.8062 16.0057 22.3871 15.6976C22.6791 15.5436 22.9711 15.3799 23.2631 15.2227C23.5231 15.0911 23.7862 14.9595 24.0461 14.828C24.1103 14.7959 24.1777 14.7702 24.2419 14.7413C24.2419 15.6848 24.2258 16.625 24.2547 17.5685C24.2708 18.0947 23.8343 18.6114 23.2086 18.6082C18.4849 18.5953 13.7581 18.6018 9.03441 18.6018L9.03762 18.5985ZM17.9683 16.4742C17.9683 16.0955 17.8945 15.8067 17.718 15.5532C17.4067 15.1071 16.9061 15.0109 16.5499 15.3157C16.0172 15.7778 15.9145 16.6667 16.3253 17.2411C16.6911 17.7546 17.2013 17.7931 17.6313 17.3374C17.8784 17.0743 17.949 16.7469 17.9651 16.471L17.9683 16.4742Z" fill="#F8CD69"/>
<path d="M9.0376 18.5986C13.7613 18.5986 18.4881 18.5922 23.2118 18.605C23.8375 18.605 24.2739 18.0884 24.2579 17.5653C24.229 16.625 24.2483 15.6816 24.2451 14.7382C24.9414 14.3691 25.641 13.9969 26.3373 13.6278C26.3598 13.615 26.3855 13.615 26.4111 13.6086C26.3983 13.8813 26.2892 14.1349 26.2122 14.398C25.6795 16.2785 25.1404 18.1589 24.6013 20.0394C24.5884 20.0844 24.5724 20.1261 24.5595 20.171C24.2483 20.171 23.9338 20.171 23.6225 20.171C18.9085 20.171 14.1977 20.171 9.48365 20.171C9.33603 19.6479 9.18521 19.1249 9.0376 18.6018V18.5986Z" fill="#F6C144"/>
<path d="M23.6225 20.1678C23.9337 20.1678 24.2482 20.1678 24.5595 20.1678C24.5595 20.7486 24.5595 21.3326 24.5659 21.9135C24.5659 22.029 24.5274 22.0675 24.4183 22.0514C24.3862 22.0482 24.3541 22.0514 24.3188 22.0514C19.4508 22.0514 14.5859 22.0514 9.71785 22.0547C9.53173 22.0547 9.4483 22.0258 9.46755 21.814C9.49001 21.5797 9.47718 21.3423 9.47718 21.108C13.9249 21.108 18.3725 21.108 22.8202 21.108C22.878 21.108 22.939 21.108 22.9967 21.108C23.2855 21.1016 23.5005 20.9315 23.5872 20.6523C23.6385 20.4919 23.6 20.3282 23.6128 20.1646L23.6225 20.1678Z" fill="#F2A23A"/>
<path d="M14.8203 14.2023C14.8299 14.2632 14.8042 14.3178 14.7753 14.3691C14.3935 15.0944 14.0084 15.8196 13.6297 16.548C13.5752 16.6507 13.527 16.6764 13.4179 16.6186C12.5836 16.1758 11.746 15.7394 10.9085 15.2997C10.8604 15.2741 10.8251 15.2388 10.793 15.1971C11.0818 13.6246 11.3738 12.0522 11.6722 10.4221C11.8584 10.6403 12.0092 10.82 12.16 11.0029C13.0457 12.0683 13.9314 13.1369 14.8203 14.2023Z" fill="#F6C144"/>
<path d="M23.2662 15.2195C22.9742 15.3767 22.6853 15.5404 22.3901 15.6944C21.8093 16.0025 21.222 16.3041 20.6412 16.6122C20.5353 16.6667 20.4775 16.6732 20.4134 16.5512C20.0443 15.8388 19.6689 15.1328 19.2934 14.4236C19.2581 14.3563 19.21 14.2889 19.2228 14.2054C19.9737 13.3005 20.7278 12.3923 21.482 11.4874C21.7644 11.1472 22.05 10.8071 22.3644 10.4316C22.6725 12.0586 22.9709 13.6406 23.2662 15.2227V15.2195Z" fill="#F6C144"/>
<path d="M23.6225 20.1678C23.6096 20.3282 23.6482 20.4919 23.5968 20.6555C23.5102 20.9347 23.292 21.1048 23.0064 21.1112C22.9486 21.1112 22.8876 21.1112 22.8299 21.1112C18.3822 21.1112 13.9345 21.1112 9.48682 21.1112C9.48682 20.7967 9.48682 20.4822 9.48682 20.1646C14.2008 20.1646 18.9117 20.1646 23.6257 20.1646L23.6225 20.1678Z" fill="#F4B461"/>
<path d="M26.4143 13.6083C26.4143 13.6083 26.4206 13.5988 26.4237 13.5925C26.4206 13.5957 26.4143 13.602 26.4111 13.6051V13.6083H26.4143Z" fill="#F6C144"/>
<path d="M17.9684 16.4742C17.9524 16.7502 17.8818 17.0775 17.6347 17.3406C17.2047 17.7963 16.6945 17.7546 16.3286 17.2444C15.9147 16.6667 16.0206 15.7811 16.5533 15.319C16.9063 15.0141 17.4069 15.1104 17.7213 15.5564C17.8978 15.8099 17.9716 16.0988 17.9716 16.4774L17.9684 16.4742Z" fill="#F2A23A"/>
</svg>
