<svg width="34" height="34" viewBox="0 0 34 34" fill="none" xmlns="http://www.w3.org/2000/svg">
<path d="M16.7537 33.0915C7.74798 33.0915 0.485415 25.8032 0.524079 16.7395C0.559522 7.75311 7.90908 0.571098 16.8504 0.603318C25.7465 0.635539 33.0059 7.91421 33.0026 16.8555C32.9994 25.829 25.7304 33.0915 16.7569 33.0915H16.7537ZM5.19932 24.3275C5.22831 24.3823 5.25087 24.4403 5.28631 24.4918C6.01128 25.5841 6.8748 26.5572 7.88331 27.3885C10.8927 29.863 14.3532 30.9489 18.2326 30.5429C21.7189 30.1788 24.6446 28.6515 27.0096 26.0577C28.1018 24.8591 28.9428 23.4994 29.5518 21.9979C30.3605 20.0067 30.6602 17.9381 30.5055 15.7986C30.4089 14.4196 30.106 13.0889 29.6001 11.8065C28.6657 9.43181 27.1707 7.47601 25.1633 5.90686C24.8153 5.63621 24.4673 5.35911 24.0581 5.17867C23.9873 5.1239 23.9228 5.05945 23.8455 5.01434C23.4008 4.76624 22.953 4.51492 22.4858 4.30226C20.0595 3.20676 17.5238 2.82333 14.8913 3.19065C11.6048 3.6514 8.8306 5.11423 6.57836 7.55979C5.58596 8.63596 4.79656 9.84746 4.19403 11.1814C3.23063 13.3176 2.84398 15.5602 3.01475 17.893C3.12752 19.4203 3.48517 20.896 4.10059 22.3072C4.40991 23.0129 4.745 23.7024 5.20254 24.3243L5.19932 24.3275Z" fill="#383331"/>
<path d="M5.19913 24.3274C4.73837 23.7055 4.40327 23.016 4.09718 22.3104C3.48176 20.9023 3.12411 19.4266 3.01134 17.8961C2.84057 15.5633 3.22722 13.3208 4.19062 11.1845C4.79315 9.84736 5.58255 8.63908 6.57495 7.56291C8.82719 5.11735 11.5982 3.65453 14.8879 3.19377C17.5236 2.82645 20.0561 3.20988 22.4824 4.30539C22.9496 4.51804 23.3942 4.76937 23.8421 5.01747C23.9194 5.05935 23.9838 5.12702 24.0547 5.18179C24.393 5.80043 24.7443 6.4094 25.0181 7.06349C25.1921 7.48236 25.3822 7.90123 25.4692 8.35232C25.379 8.26532 25.2888 8.18155 25.1986 8.09455C24.2835 7.19559 23.2557 6.44807 22.1054 5.87776C19.8274 4.75003 17.4205 4.3505 14.904 4.72426C11.5112 5.23012 8.79175 6.89272 6.77795 9.6637C5.02191 12.0835 4.29695 14.8094 4.52893 17.7866C4.67071 19.5974 5.21202 21.2825 6.11742 22.8549C6.31397 23.1964 6.50407 23.5444 6.77795 23.8312C6.79083 23.8441 6.80694 23.857 6.81983 23.8699L6.82628 23.886L6.81661 23.8699C6.81661 23.8699 6.79083 23.8408 6.77795 23.828C6.75861 23.6733 6.6684 23.5444 6.60395 23.4091C5.40534 20.9055 5.0928 18.286 5.65988 15.5762C6.23341 12.8375 7.61246 10.5627 9.76481 8.77441C12.3231 6.64462 15.2875 5.73277 18.5965 5.98409C20.3687 6.11942 22.0313 6.64139 23.5714 7.53069C24.3447 7.97856 25.089 8.47154 25.7205 9.11273C25.7302 9.16106 25.7367 9.20617 25.7495 9.2545C26.1169 10.7399 26.2167 12.2446 26.0814 13.7686C25.9783 14.9447 25.7205 16.0918 25.3146 17.2034C24.7056 18.8756 23.8099 20.3803 22.6209 21.6982C21.4191 23.0289 20.0175 24.1083 18.3903 24.8977C15.9512 26.0834 13.3832 26.4958 10.6992 26.193C8.81752 25.9803 7.05827 25.3842 5.42145 24.4273C5.35057 24.3854 5.27001 24.3596 5.19268 24.3274H5.19913Z" fill="#4C4644"/>
<path d="M25.4721 8.34582C25.3851 7.89473 25.1982 7.47908 25.021 7.05699C24.7471 6.40613 24.3959 5.79393 24.0576 5.17529C24.4668 5.35573 24.8147 5.63283 25.1627 5.90348C27.1701 7.46941 28.6651 9.42521 29.5995 11.8031C30.1054 13.0855 30.4083 14.4162 30.5049 15.7953C30.6596 17.9379 30.3599 20.0065 29.5512 21.9945C28.9422 23.496 28.1013 24.8525 27.009 26.0544C24.6472 28.6514 21.7183 30.1754 18.232 30.5395C14.3527 30.9455 10.8954 29.8596 7.88272 27.3851C6.87421 26.557 6.01069 25.5807 5.28573 24.4884C5.25028 24.4369 5.22773 24.3789 5.19873 24.3241C5.27606 24.3563 5.35661 24.3821 5.4275 24.424C7.06109 25.3842 8.82357 25.977 10.7053 26.1897C13.3893 26.4958 15.9573 26.0801 18.3964 24.8944C20.0203 24.105 21.4219 23.0288 22.627 21.6949C23.8159 20.3771 24.7116 18.8723 25.3206 17.2001C25.7266 16.0853 25.9844 14.9414 26.0875 13.7654C26.2228 12.2445 26.1229 10.7366 25.7556 9.25122C25.7427 9.20611 25.7363 9.15778 25.7266 9.10945C26.0198 9.31244 26.2389 9.58954 26.4935 9.83442C26.6223 9.95686 26.7061 10.1276 26.8737 10.2082C26.8898 10.2565 26.9155 10.2984 26.9639 10.3242C26.9671 10.3274 26.9735 10.3306 26.9768 10.3338C26.9735 10.3306 26.9703 10.3242 26.9671 10.321C26.9413 10.2791 26.9155 10.234 26.8898 10.1921C26.8447 10.1147 26.8028 10.0342 26.7544 9.96008C26.3807 9.37688 25.9296 8.85813 25.4721 8.33937V8.34582Z" fill="#5E5756"/>
<path d="M25.4729 8.34583C25.9304 8.86458 26.3815 9.38656 26.7553 9.96653C26.8036 10.0439 26.8455 10.1212 26.8906 10.1985C26.8842 10.205 26.8777 10.2082 26.8745 10.2146C26.7069 10.1309 26.62 9.96331 26.4943 9.84087C26.2397 9.596 26.0239 9.31567 25.7274 9.11591C25.0959 8.47471 24.3516 7.98173 23.5783 7.53386C22.0382 6.64135 20.3723 6.11937 18.6034 5.98727C15.2911 5.73917 12.3268 6.64779 9.7717 8.77759C7.62258 10.5658 6.2403 12.8406 5.66677 15.5794C5.09969 18.2892 5.40901 20.9055 6.61084 23.4123C6.67529 23.5476 6.7655 23.6765 6.78484 23.8311C6.51096 23.5444 6.32086 23.1932 6.12431 22.8548C5.21891 21.2857 4.6776 19.5973 4.53583 17.7865C4.30384 14.8061 5.02558 12.0802 6.78484 9.66366C8.79541 6.89267 11.5181 5.23008 14.9109 4.72421C17.4274 4.35045 19.8343 4.74677 22.1123 5.87772C23.2625 6.44802 24.2904 7.19232 25.2055 8.09451C25.2957 8.1815 25.3859 8.26528 25.4761 8.35227V8.34583H25.4729Z" fill="#5E5756"/>
<path d="M7.33545 23.0808L7.34597 23.0948L7.33896 23.0773L7.33545 23.0808Z" fill="#B69942"/>
<path d="M7.29331 23.032C7.29331 23.032 7.32278 23.0648 7.33588 23.0779C7.33588 23.0779 7.30314 23.0484 7.29004 23.0353V23.032H7.29331Z" fill="#B69942"/>
<path d="M16.7634 31.5493C24.8272 31.5493 31.3643 24.967 31.3643 16.8474C31.3643 8.72771 24.8272 2.14545 16.7634 2.14545C8.69961 2.14545 2.1626 8.72771 2.1626 16.8474C2.1626 24.967 8.69961 31.5493 16.7634 31.5493Z" stroke="#FBC300" stroke-opacity="0.88" stroke-width="3" stroke-miterlimit="10"/>
<path d="M26.8746 13.7498C26.1864 14.1963 25.8927 14.8906 25.6572 15.637C25.3789 16.5117 25.1036 17.3835 24.7733 18.2399C24.2961 19.4695 23.9566 20.7143 24.1126 22.051C24.1799 22.6535 24.0178 22.9411 23.3204 22.9349C19.1147 22.9074 14.9121 22.9135 10.7064 22.9319C10.1192 22.9319 9.85919 22.7606 9.91424 22.1458C10.1651 19.4205 8.67854 17.1296 8.00869 14.6368C7.92305 14.3156 7.61106 14.2544 7.43978 14.0403C7.05133 13.5571 7.01768 13.0646 7.45507 12.6119C7.84046 12.2112 8.32373 12.1195 8.79171 12.4651C9.2811 12.826 9.41568 13.3032 9.10981 13.8599C8.70607 14.6001 9.06393 15.5727 9.97542 16.2273C10.7921 16.8145 11.3579 16.3863 11.8657 15.7593C12.4713 15.0069 12.82 14.1229 13.1809 13.239C13.3063 12.9331 13.2574 12.7373 13.0738 12.4804C12.6946 11.9451 12.7313 11.4068 13.2727 10.9939C13.7284 10.6452 14.2117 10.6941 14.6093 11.1009C15.0834 11.5873 15.0773 12.1195 14.5879 12.5875C14.3646 12.8016 14.2086 12.9576 14.3616 13.291C14.8081 14.2514 15.2363 15.224 16.0132 15.9734C16.7657 16.6983 17.3193 16.6891 17.9983 15.9336C18.6957 15.1567 19.0168 14.178 19.4022 13.2328C19.5521 12.8627 19.2585 12.7465 19.0841 12.5416C18.6865 12.0705 18.6773 11.5597 19.1025 11.1132C19.4879 10.7064 19.9712 10.636 20.4391 10.9786C20.9836 11.3793 21.1151 11.936 20.6777 12.4406C20.3504 12.8199 20.433 13.1197 20.5859 13.4714C20.9652 14.3462 21.3414 15.2271 22.0082 15.9306C22.7515 16.7136 23.4794 16.7748 24.186 15.9765C24.7396 15.3525 25.7796 14.7989 24.8528 13.6458C24.5439 13.2604 24.8161 12.7526 25.2443 12.4651C25.9478 11.991 26.4219 12.4223 26.8807 12.9025V13.7498H26.8746ZM19.9436 13.8048C19.5582 14.5236 19.234 15.2699 18.7874 15.9367C17.7383 17.4966 16.472 17.5303 15.2547 16.0927C14.6582 15.3892 14.2514 14.5542 13.8049 13.6702C11.7036 17.3835 11.6026 17.4538 9.40344 16.8054C9.69096 17.622 10.0029 18.4265 10.2568 19.2492C10.3945 19.6958 10.6239 19.8579 11.0888 19.8549C15.0467 19.8396 18.9985 19.8457 22.9564 19.8457C23.2378 19.8457 23.559 19.8885 23.666 19.5337C23.9352 18.6161 24.4276 17.7597 24.4919 16.7289C22.4426 17.622 21.9807 17.3162 19.9497 13.8048H19.9436ZM16.9951 22.2743C18.9006 22.2743 20.8092 22.2376 22.7148 22.2926C23.455 22.314 23.5039 21.9745 23.4794 21.4087C23.458 20.9009 23.5467 20.4758 22.7515 20.4849C18.9373 20.5247 15.1232 20.5247 11.309 20.4849C10.5719 20.4758 10.5504 20.8061 10.5352 21.3689C10.5199 21.999 10.6147 22.3171 11.3763 22.2926C13.2451 22.2345 15.1201 22.2743 16.992 22.2743H16.9951Z" fill="#16120B"/>
<path d="M19.9467 13.7987C21.9746 17.3101 22.4395 17.6159 24.4888 16.7228C24.4246 17.7536 23.9321 18.6131 23.663 19.5276C23.559 19.8824 23.2348 19.8396 22.9534 19.8396C18.9954 19.8396 15.0436 19.8335 11.0857 19.8488C10.6208 19.8488 10.3914 19.6897 10.2538 19.2431C9.99989 18.4204 9.68791 17.6159 9.40039 16.7993C11.5996 17.4477 11.7005 17.3774 13.8018 13.6641C14.2484 14.5511 14.6552 15.38 15.2516 16.0866C16.469 17.5242 17.7353 17.4905 18.7844 15.9306C19.234 15.2638 19.5582 14.5144 19.9406 13.7987H19.9467Z" fill="#F5D336"/>
<path d="M16.9949 22.2681C15.123 22.2681 13.2481 22.2284 11.3792 22.2865C10.6207 22.311 10.5258 21.9959 10.5381 21.3628C10.5503 20.7969 10.5717 20.4696 11.3119 20.4788C15.1261 20.5186 18.9402 20.5186 22.7544 20.4788C23.5497 20.4696 23.461 20.8917 23.4824 21.4025C23.5068 21.9684 23.4579 22.3079 22.7177 22.2865C20.8121 22.2314 18.9035 22.2681 16.998 22.2681H16.9949Z" fill="#FBAC3A"/>
</svg>
