<svg width="33" height="34" viewBox="0 0 33 34" fill="none" xmlns="http://www.w3.org/2000/svg">
<path d="M16.5916 33.0015C7.58587 33.0015 0.323305 25.7132 0.36197 16.6495C0.397413 7.66308 7.74697 0.481071 16.6882 0.513292C25.5844 0.545512 32.8437 7.82419 32.8405 16.7655C32.8373 25.7389 25.5683 33.0015 16.5948 33.0015H16.5916ZM5.03721 24.2375C5.0662 24.2922 5.08876 24.3502 5.1242 24.4018C5.84917 25.4941 6.71269 26.4671 7.7212 27.2984C10.7306 29.773 14.1911 30.8588 18.0705 30.4528C21.5568 30.0888 24.4824 28.5615 26.8475 25.9677C27.9397 24.7691 28.7807 23.4094 29.3897 21.9079C30.1984 19.9166 30.4981 17.8481 30.3434 15.7086C30.2467 14.3296 29.9439 12.9988 29.438 11.7165C28.5036 9.34179 27.0086 7.38599 25.0012 5.81683C24.6532 5.54618 24.3052 5.26908 23.896 5.08864C23.8251 5.03387 23.7607 4.96943 23.6834 4.92432C23.2387 4.67622 22.7909 4.4249 22.3237 4.21224C19.8974 3.11673 17.3617 2.7333 14.7292 3.10062C11.4427 3.56138 8.66849 5.0242 6.41626 7.46976C5.42386 8.54593 4.63445 9.75744 4.03192 11.0914C3.06852 13.2276 2.68187 15.4702 2.85264 17.803C2.96541 19.3302 3.32306 20.8059 3.93848 22.2172C4.2478 22.9228 4.58289 23.6124 5.04043 24.2342L5.03721 24.2375Z" fill="#383331"/>
<path d="M5.03702 24.2374C4.57626 23.6155 4.24116 22.926 3.93507 22.2203C3.31965 20.8123 2.962 19.3366 2.84923 17.8061C2.67846 15.4733 3.06511 13.2307 4.02851 11.0945C4.63104 9.75734 5.42045 8.54906 6.41285 7.47288C8.66508 5.02732 11.4361 3.5645 14.7258 3.10374C17.3615 2.73643 19.894 3.11985 22.3202 4.21536C22.7874 4.42802 23.2321 4.67934 23.68 4.92744C23.7573 4.96933 23.8217 5.03699 23.8926 5.09177C24.2309 5.71041 24.5821 6.31938 24.856 6.97346C25.03 7.39233 25.2201 7.8112 25.3071 8.26229C25.2169 8.17529 25.1267 8.09152 25.0365 8.00453C24.1214 7.10557 23.0935 6.35804 21.9433 5.78774C19.6653 4.66001 17.2584 4.26047 14.7419 4.63423C11.3491 5.1401 8.62964 6.80269 6.61584 9.57368C4.8598 11.9935 4.13484 14.7193 4.36683 17.6965C4.5086 19.5073 5.04991 21.1925 5.95531 22.7649C6.15186 23.1064 6.34196 23.4544 6.61584 23.7412C6.62873 23.754 6.64484 23.7669 6.65772 23.7798L6.66417 23.7959L6.6545 23.7798C6.6545 23.7798 6.62873 23.7508 6.61584 23.7379C6.5965 23.5833 6.50629 23.4544 6.44184 23.3191C5.24323 20.8155 4.93069 18.196 5.49778 15.4862C6.07131 12.7474 7.45036 10.4726 9.6027 8.68438C12.161 6.55459 15.1253 5.64274 18.4344 5.89406C20.2066 6.02939 21.8692 6.55137 23.4093 7.44066C24.1826 7.88853 24.9269 8.38151 25.5584 9.0227C25.5681 9.07103 25.5745 9.11614 25.5874 9.16447C25.9548 10.6499 26.0546 12.1546 25.9193 13.6786C25.8162 14.8547 25.5584 16.0017 25.1525 17.1133C24.5435 18.7856 23.6477 20.2903 22.4588 21.6081C21.257 22.9389 19.8554 24.0183 18.2282 24.8077C15.7891 25.9934 13.2211 26.4058 10.5371 26.1029C8.65541 25.8903 6.89616 25.2942 5.25934 24.3372C5.18846 24.2954 5.1079 24.2696 5.03057 24.2374H5.03702Z" fill="#4C4644"/>
<path d="M25.3099 8.25579C25.2229 7.8047 25.0361 7.38905 24.8589 6.96696C24.585 6.3161 24.2338 5.70391 23.8955 5.08527C24.3047 5.2657 24.6526 5.5428 25.0006 5.81346C27.008 7.37939 28.503 9.33519 29.4374 11.7131C29.9433 12.9955 30.2462 14.3262 30.3428 15.7052C30.4975 17.8479 30.1978 19.9165 29.3891 21.9045C28.7801 23.406 27.9392 24.7625 26.8469 25.9643C24.4851 28.5613 21.5562 30.0854 18.0699 30.4495C14.1905 30.8555 10.7333 29.7696 7.72061 27.2951C6.7121 26.467 5.84859 25.4907 5.12362 24.3984C5.08817 24.3469 5.06562 24.2889 5.03662 24.2341C5.11395 24.2663 5.1945 24.2921 5.26539 24.334C6.89898 25.2941 8.66146 25.887 10.5432 26.0997C13.2271 26.4058 15.7951 25.9901 18.2343 24.8044C19.8582 24.015 21.2598 22.9388 22.4648 21.6049C23.6538 20.287 24.5495 18.7823 25.1585 17.1101C25.5645 15.9952 25.8223 14.8514 25.9254 13.6753C26.0607 12.1545 25.9608 10.6466 25.5935 9.1612C25.5806 9.11609 25.5742 9.06775 25.5645 9.01942C25.8577 9.22241 26.0768 9.49951 26.3313 9.74439C26.4602 9.86683 26.544 10.0376 26.7115 10.1182C26.7277 10.1665 26.7534 10.2084 26.8018 10.2341C26.805 10.2374 26.8114 10.2406 26.8147 10.2438C26.8114 10.2406 26.8082 10.2341 26.805 10.2309C26.7792 10.189 26.7534 10.1439 26.7277 10.102C26.6825 10.0247 26.6407 9.94416 26.5923 9.87005C26.2186 9.28686 25.7675 8.7681 25.3099 8.24935V8.25579Z" fill="#5E5756"/>
<path d="M25.3108 8.2558C25.7683 8.77456 26.2194 9.29653 26.5932 9.87651C26.6415 9.95384 26.6834 10.0312 26.7285 10.1085C26.7221 10.1149 26.7156 10.1182 26.7124 10.1246C26.5448 10.0408 26.4578 9.87329 26.3322 9.75085C26.0776 9.50597 25.8618 9.22565 25.5653 9.02588C24.9338 8.38468 24.1895 7.89171 23.4162 7.44384C21.876 6.55132 20.2102 6.02935 18.4413 5.89724C15.129 5.64914 12.1647 6.55777 9.60959 8.68756C7.46047 10.4758 6.0782 12.7506 5.50467 15.4894C4.93758 18.1991 5.2469 20.8155 6.44873 23.3222C6.51318 23.4576 6.60339 23.5865 6.62273 23.7411C6.34885 23.4543 6.15875 23.1031 5.9622 22.7648C5.0568 21.1957 4.51549 19.5073 4.37372 17.6965C4.14173 14.7161 4.86347 11.9902 6.62273 9.57363C8.6333 6.80264 11.356 5.14005 14.7488 4.63419C17.2653 4.26042 19.6721 4.65674 21.9502 5.78769C23.1004 6.358 24.1283 7.1023 25.0434 8.00448C25.1336 8.09148 25.2238 8.17525 25.314 8.26225V8.2558H25.3108Z" fill="#5E5756"/>
<path d="M7.17334 22.9908L7.18386 23.0048L7.17685 22.9873L7.17334 22.9908Z" fill="#B69942"/>
<path d="M7.1312 22.942C7.1312 22.942 7.16067 22.9748 7.17377 22.9879C7.17377 22.9879 7.14103 22.9584 7.12793 22.9453V22.942H7.1312Z" fill="#B69942"/>
<path d="M8.69436 18.528C8.47294 17.9022 8.3189 17.2572 8.12957 16.6186C7.83755 15.6174 7.55516 14.6162 7.26956 13.6118C7.25993 13.5797 7.24389 13.5508 7.27277 13.5027C7.76695 13.7626 8.26435 14.0225 8.75854 14.2825C9.2784 14.5552 9.79825 14.8312 10.3181 15.1072C10.3566 15.1297 10.3983 15.1585 10.4465 15.1297C10.4754 15.1746 10.5107 15.2099 10.562 15.2323C11.3995 15.6688 12.2371 16.1084 13.0714 16.5512C13.1805 16.609 13.2287 16.5833 13.2832 16.4806C13.6619 15.7522 14.047 15.027 14.4288 14.3017C14.4577 14.2504 14.4834 14.1958 14.4738 14.1349C14.5797 14.1156 14.5861 14.0161 14.6246 13.9455C15.2857 12.6844 15.9435 11.4233 16.6013 10.1621C16.6206 10.1268 16.6399 10.0947 16.6752 10.0338C16.8516 10.3643 17.0153 10.6691 17.1758 10.9772C17.6988 11.9784 18.2219 12.9796 18.745 13.9808C18.777 14.0418 18.7835 14.1252 18.8765 14.1381C18.8669 14.2215 18.9118 14.2889 18.9471 14.3563C19.3194 15.0655 19.698 15.7715 20.0671 16.4838C20.1312 16.6058 20.1922 16.5994 20.2949 16.5448C20.8757 16.2368 21.463 15.9351 22.0438 15.627C22.3358 15.473 22.6279 15.3094 22.9199 15.1521C23.1798 15.0205 23.4429 14.889 23.7029 14.7574C23.767 14.7253 23.8344 14.6996 23.8986 14.6708C23.8986 15.6142 23.8826 16.5544 23.9115 17.4979C23.9275 18.0242 23.4911 18.5408 22.8653 18.5376C18.1417 18.5248 13.4148 18.5312 8.69115 18.5312L8.69436 18.528ZM17.625 16.4036C17.625 16.025 17.5512 15.7362 17.3747 15.4826C17.0634 15.0366 16.5628 14.9403 16.2066 15.2452C15.6739 15.7073 15.5713 16.5962 15.982 17.1706C16.3478 17.684 16.8581 17.7225 17.2881 17.2668C17.5352 17.0037 17.6058 16.6764 17.6218 16.4004L17.625 16.4036Z" fill="#F8CD69"/>
<path d="M8.69434 18.528C13.418 18.528 18.1449 18.5216 22.8685 18.5344C23.4943 18.5344 23.9307 18.0178 23.9146 17.4947C23.8858 16.5545 23.905 15.611 23.9018 14.6676C24.5982 14.2986 25.2977 13.9263 25.9941 13.5573C26.0165 13.5444 26.0422 13.5444 26.0679 13.538C26.055 13.8108 25.9459 14.0643 25.8689 14.3274C25.3362 16.2079 24.7971 18.0884 24.258 19.9689C24.2452 20.0138 24.2291 20.0555 24.2163 20.1004C23.905 20.1004 23.5905 20.1004 23.2793 20.1004C18.5652 20.1004 13.8544 20.1004 9.14039 20.1004C8.99277 19.5774 8.84195 19.0543 8.69434 18.5312V18.528Z" fill="#F6C144"/>
<path d="M23.2792 20.0972C23.5905 20.0972 23.905 20.0972 24.2162 20.0972C24.2162 20.678 24.2162 21.2621 24.2227 21.8429C24.2227 21.9584 24.1841 21.9969 24.075 21.9809C24.0429 21.9777 24.0109 21.9809 23.9756 21.9809C19.1075 21.9809 14.2427 21.9809 9.37459 21.9841C9.18847 21.9841 9.10504 21.9552 9.12429 21.7434C9.14675 21.5092 9.13392 21.2717 9.13392 21.0374C13.5816 21.0374 18.0293 21.0374 22.477 21.0374C22.5347 21.0374 22.5957 21.0374 22.6535 21.0374C22.9423 21.031 23.1573 20.8609 23.2439 20.5818C23.2953 20.4213 23.2567 20.2577 23.2696 20.094L23.2792 20.0972Z" fill="#F2A23A"/>
<path d="M14.477 14.1317C14.4866 14.1927 14.461 14.2472 14.4321 14.2986C14.0502 15.0238 13.6651 15.749 13.2865 16.4775C13.2319 16.5802 13.1838 16.6059 13.0747 16.5481C12.2403 16.1052 11.4028 15.6688 10.5652 15.2292C10.5171 15.2035 10.4818 15.1682 10.4497 15.1265C10.7385 13.5541 11.0305 11.9817 11.329 10.3515C11.5151 10.5697 11.6659 10.7494 11.8167 10.9323C12.7024 11.9977 13.5881 13.0663 14.477 14.1317Z" fill="#F6C144"/>
<path d="M22.9229 15.1489C22.6309 15.3062 22.3421 15.4698 22.0469 15.6238C21.466 15.9319 20.8788 16.2336 20.2979 16.5416C20.192 16.5962 20.1343 16.6026 20.0701 16.4807C19.7011 15.7683 19.3256 15.0623 18.9502 14.3531C18.9149 14.2857 18.8667 14.2183 18.8796 14.1349C19.6305 13.2299 20.3846 12.3218 21.1387 11.4168C21.4211 11.0767 21.7067 10.7365 22.0212 10.3611C22.3292 11.988 22.6277 13.5701 22.9229 15.1521V15.1489Z" fill="#F6C144"/>
<path d="M23.2792 20.0972C23.2664 20.2577 23.3049 20.4213 23.2535 20.585C23.1669 20.8642 22.9487 21.0342 22.6631 21.0407C22.6053 21.0407 22.5444 21.0407 22.4866 21.0407C18.0389 21.0407 13.5912 21.0407 9.14355 21.0407C9.14355 20.7262 9.14355 20.4117 9.14355 20.094C13.8576 20.094 18.5684 20.094 23.2824 20.094L23.2792 20.0972Z" fill="#F4B461"/>
<path d="M26.071 13.5377C26.071 13.5377 26.0773 13.5283 26.0805 13.522C26.0773 13.5251 26.071 13.5314 26.0679 13.5346V13.5377H26.071Z" fill="#F6C144"/>
<path d="M17.6252 16.4037C17.6091 16.6796 17.5385 17.0069 17.2914 17.2701C16.8614 17.7258 16.3512 17.684 15.9854 17.1738C15.5714 16.5962 15.6773 15.7105 16.21 15.2484C16.563 14.9436 17.0636 15.0398 17.3781 15.4859C17.5546 15.7394 17.6284 16.0282 17.6284 16.4069L17.6252 16.4037Z" fill="#F2A23A"/>
</svg>
