<svg width="33" height="34" viewBox="0 0 33 34" fill="none" xmlns="http://www.w3.org/2000/svg">
<path d="M16.5589 33.3979C7.55316 33.3979 0.29059 26.1095 0.329255 17.0458C0.364698 8.05945 7.71426 0.877433 16.6555 0.909654C25.5517 0.941875 32.811 8.22055 32.8078 17.1618C32.8046 26.1353 25.5356 33.3979 16.5621 33.3979H16.5589ZM5.00449 24.6338C5.03349 24.6886 5.05604 24.7466 5.09149 24.7981C5.81645 25.8904 6.67997 26.8635 7.68848 27.6948C10.6979 30.1693 14.1584 31.2552 18.0378 30.8492C21.5241 30.4851 24.4497 28.9578 26.8147 26.3641C27.907 25.1655 28.748 23.8057 29.357 22.3043C30.1657 20.313 30.4654 18.2444 30.3107 16.105C30.214 14.7259 29.9112 13.3952 29.4053 12.1128C28.4709 9.73815 26.9758 7.78235 24.9685 6.2132C24.6205 5.94254 24.2725 5.66544 23.8633 5.48501C23.7924 5.43023 23.728 5.36579 23.6507 5.32068C23.206 5.07258 22.7581 4.82126 22.2909 4.6086C19.8647 3.51309 17.3289 3.12967 14.6965 3.49698C11.41 3.95774 8.63577 5.42056 6.38354 7.86612C5.39114 8.9423 4.60173 10.1538 3.9992 11.4877C3.0358 13.624 2.64915 15.8665 2.81992 18.1993C2.93269 19.7266 3.29035 21.2023 3.90576 22.6136C4.21508 23.3192 4.55018 24.0087 5.00771 24.6306L5.00449 24.6338Z" fill="#383331"/>
<path d="M5.0043 24.6337C4.54355 24.0119 4.20845 23.3223 3.90235 22.6167C3.28694 21.2087 2.92928 19.7329 2.81651 18.2025C2.64574 15.8697 3.03239 13.6271 3.99579 11.4909C4.59832 10.1537 5.38773 8.94542 6.38013 7.86924C8.63236 5.42369 11.4034 3.96086 14.6931 3.50011C17.3288 3.13279 19.8613 3.51622 22.2875 4.61172C22.7547 4.82438 23.1994 5.0757 23.6472 5.3238C23.7246 5.36569 23.789 5.43335 23.8599 5.48813C24.1982 6.10677 24.5494 6.71574 24.8233 7.36982C24.9973 7.78869 25.1874 8.20756 25.2744 8.65865C25.1842 8.57166 25.094 8.48788 25.0037 8.40089C24.0887 7.50193 23.0608 6.75441 21.9105 6.1841C19.6325 5.05637 17.2256 4.65683 14.7092 5.03059C11.3164 5.53646 8.59692 7.19905 6.58312 9.97004C4.82709 12.3898 4.10212 15.1157 4.33411 18.0929C4.47588 19.9037 5.01719 21.5889 5.9226 23.1612C6.11914 23.5028 6.30925 23.8508 6.58312 24.1375C6.59601 24.1504 6.61212 24.1633 6.62501 24.1762L6.63145 24.1923L6.62179 24.1762C6.62179 24.1762 6.59601 24.1472 6.58312 24.1343C6.56379 23.9796 6.47357 23.8508 6.40913 23.7154C5.21052 21.2119 4.89797 18.5923 5.46506 15.8826C6.03859 13.1438 7.41764 10.869 9.56999 9.08075C12.1283 6.95095 15.0926 6.0391 18.4017 6.29043C20.1738 6.42575 21.8364 6.94773 23.3766 7.83702C24.1499 8.28489 24.8942 8.77787 25.5257 9.41906C25.5354 9.4674 25.5418 9.5125 25.5547 9.56084C25.922 11.0462 26.0219 12.5509 25.8866 14.075C25.7835 15.251 25.5257 16.3981 25.1197 17.5097C24.5108 19.182 23.615 20.6867 22.4261 22.0045C21.2242 23.3352 19.8226 24.4146 18.1955 25.204C15.7564 26.3898 13.1884 26.8022 10.5044 26.4993C8.6227 26.2866 6.86344 25.6906 5.22663 24.7336C5.15574 24.6917 5.07519 24.6659 4.99786 24.6337H5.0043Z" fill="#4C4644"/>
<path d="M25.2772 8.65215C25.1902 8.20106 25.0033 7.78541 24.8261 7.36332C24.5523 6.71246 24.2011 6.10027 23.8627 5.48163C24.2719 5.66206 24.6199 5.93916 24.9679 6.20982C26.9753 7.77575 28.4703 9.73155 29.4047 12.1094C29.9106 13.3918 30.2134 14.7225 30.3101 16.1016C30.4648 18.2443 30.1651 20.3129 29.3564 22.3009C28.7474 23.8024 27.9064 25.1589 26.8142 26.3607C24.4524 28.9577 21.5235 30.4817 18.0372 30.8458C14.1578 31.2518 10.7005 30.166 7.6879 27.6914C6.67939 26.8633 5.81587 25.8871 5.0909 24.7948C5.05546 24.7432 5.0329 24.6852 5.00391 24.6304C5.08124 24.6627 5.16179 24.6884 5.23267 24.7303C6.86627 25.6905 8.62875 26.2834 10.5104 26.496C13.1944 26.8021 15.7624 26.3865 18.2015 25.2008C19.8255 24.4113 21.2271 23.3352 22.4321 22.0012C23.6211 20.6834 24.5168 19.1787 25.1258 17.5064C25.5318 16.3916 25.7895 15.2477 25.8926 14.0717C26.028 12.5509 25.9281 11.0429 25.5608 9.55756C25.5479 9.51245 25.5414 9.46412 25.5318 9.41579C25.825 9.61878 26.0441 9.89588 26.2986 10.1408C26.4275 10.2632 26.5113 10.434 26.6788 10.5145C26.6949 10.5628 26.7207 10.6047 26.769 10.6305C26.7723 10.6337 26.7787 10.637 26.7819 10.6402C26.7787 10.637 26.7755 10.6305 26.7723 10.6273C26.7465 10.5854 26.7207 10.5403 26.6949 10.4984C26.6498 10.4211 26.6079 10.3405 26.5596 10.2664C26.1859 9.68322 25.7348 9.16446 25.2772 8.64571V8.65215Z" fill="#5E5756"/>
<path d="M25.2781 8.65216C25.7356 9.17092 26.1867 9.6929 26.5605 10.2729C26.6088 10.3502 26.6507 10.4275 26.6958 10.5049C26.6893 10.5113 26.6829 10.5145 26.6797 10.521C26.5121 10.4372 26.4251 10.2696 26.2995 10.1472C26.0449 9.90233 25.829 9.62201 25.5326 9.42224C24.9011 8.78105 24.1568 8.28807 23.3835 7.8402C21.8433 6.94768 20.1775 6.42571 18.4086 6.2936C15.0963 6.0455 12.132 6.95413 9.57688 9.08392C7.42775 10.8722 6.04548 13.147 5.47195 15.8857C4.90486 18.5955 5.21418 21.2118 6.41602 23.7186C6.48046 23.8539 6.57068 23.9828 6.59001 24.1375C6.31614 23.8507 6.12603 23.4995 5.92949 23.1612C5.02408 21.592 4.48277 19.9037 4.341 18.0929C4.10901 15.1124 4.83076 12.3866 6.59001 9.96999C8.60059 7.19901 11.3232 5.53641 14.7161 5.03055C17.2325 4.65679 19.6394 5.0531 21.9174 6.18405C23.0677 6.75436 24.0956 7.49866 25.0106 8.40084C25.1009 8.48784 25.1911 8.57161 25.2813 8.65861V8.65216H25.2781Z" fill="#5E5756"/>
<path d="M7.14062 23.3872L7.15114 23.4012L7.14413 23.3837L7.14062 23.3872Z" fill="#B69942"/>
<path d="M7.09849 23.3384C7.09849 23.3384 7.12796 23.3711 7.14106 23.3842C7.14106 23.3842 7.10831 23.3548 7.09521 23.3417V23.3384H7.09849Z" fill="#B69942"/>
<path d="M16.5686 31.8556C24.6324 31.8556 31.1694 25.2733 31.1694 17.1537C31.1694 9.03405 24.6324 2.45178 16.5686 2.45178C8.50479 2.45178 1.96777 9.03405 1.96777 17.1537C1.96777 25.2733 8.50479 31.8556 16.5686 31.8556Z" stroke="#FBC300" stroke-opacity="0.88" stroke-width="3" stroke-miterlimit="10"/>
<path d="M26.6667 14.3992C26.0765 15.2011 26.0169 16.2027 25.6502 17.0911C25.4832 17.4935 25.9244 17.732 26.0824 18.0271C26.5296 18.8678 26.0377 19.619 25.4922 19.7412C24.5233 19.9559 24.4578 20.5163 24.5323 21.196C24.6515 22.293 24.1716 22.6507 23.1521 22.5166C22.1653 22.3854 21.1339 22.776 20.174 22.2811C20.3648 21.8399 20.7612 21.9264 21.116 21.9204C21.8464 21.9114 22.5737 21.9204 23.3041 21.9025C23.5366 21.8965 23.8794 21.9949 23.9152 21.6282C23.9599 21.1721 23.5843 21.2407 23.3041 21.2377C22.0282 21.2288 20.7493 21.2049 19.4764 21.2377C18.5195 21.2616 17.6639 21.0648 16.9872 20.3583C16.7189 20.0781 16.4954 19.9559 16.1853 20.3047C15.4371 21.1513 14.4474 21.2675 13.3891 21.2347C12.2593 21.202 11.1295 21.2139 9.99665 21.2347C9.71047 21.2407 9.22455 21.0469 9.20667 21.5329C9.1858 22.1201 9.72537 21.9055 10.0324 21.9055C12.7661 21.9234 15.5027 21.9085 18.2363 21.9204C18.6507 21.9204 19.1336 21.7535 19.4198 22.2483C19.1276 22.6597 18.6894 22.5017 18.3108 22.5047C15.5056 22.5166 12.6975 22.4749 9.89529 22.5315C8.89664 22.5524 8.49121 22.2423 8.5568 21.2288C8.59555 20.5908 8.72672 19.8933 7.66248 19.7383C7.20936 19.6727 6.56545 18.9185 6.95597 18.367C7.78768 17.1954 7.13781 16.1938 6.90231 15.1057C6.78903 14.578 6.0229 13.8894 6.84865 13.4989C7.55218 13.168 7.68335 14.1041 8.04107 14.4976C8.30639 14.7867 8.4614 15.2339 8.92943 15.216C9.48093 15.1981 9.55843 14.6913 9.7373 14.3068C9.76711 14.2412 9.77605 14.1637 9.8148 14.1041C10.101 13.6807 9.99963 12.8997 10.721 12.8937C11.3351 12.8908 11.3918 13.5734 11.678 13.9669C11.7853 14.113 11.8658 14.277 11.9612 14.432C12.5544 15.365 13.1536 15.377 13.7736 14.4707C13.9704 14.1816 14.0718 13.7732 14.5636 13.8715C14.504 14.742 14.1045 15.4604 13.2698 15.6781C11.6631 16.0924 11.4872 14.4797 10.7449 13.648C10.2679 14.2501 10.2739 15.0252 9.74028 15.5111C9.09637 16.1014 8.40774 15.6393 7.64459 15.4664C7.78768 15.9434 7.86221 16.2951 7.99934 16.6201C8.56276 17.9466 8.33322 19.9469 9.60017 20.5223C10.8641 21.0976 12.5991 20.6475 14.1314 20.6296C14.8707 20.6206 15.4192 20.2331 15.9409 19.7412C16.2688 19.4312 16.3016 19.2345 16.0154 18.8708C15.4967 18.2149 15.0287 17.5203 14.5785 16.8168C14.1999 16.2176 14.3192 15.6274 14.7962 15.1236C15.2373 14.6585 17.5059 14.5274 18.0962 14.9417C18.6089 15.3024 18.8862 15.8062 18.7103 16.4501C18.6447 16.6886 18.4956 16.9092 18.3555 17.1179C18.0723 17.5382 17.7653 17.9466 17.4731 18.364C16.7487 19.3954 16.8203 19.7353 17.962 20.3404C18.2721 20.5044 18.6477 20.6236 18.9965 20.6296C20.0845 20.6505 21.1756 20.6057 22.2637 20.5849C22.851 20.6475 23.6886 20.9992 23.9361 20.3851C24.5651 18.8439 24.9645 17.2103 25.519 15.4127C24.8214 15.6363 24.3832 15.9434 23.8735 15.839C23.6171 15.7079 23.477 15.526 23.6231 15.2279C24.574 15.4634 24.9317 14.7629 25.3491 14.1488C25.6621 13.6897 25.9304 13.1114 26.6637 13.5257V14.4022L26.6667 14.3992ZM16.6295 18.4027C16.8739 18.1046 17.2525 17.8721 17.2347 17.4399C17.2138 17.0344 16.9306 16.5545 16.5729 16.5634C16.1585 16.5724 15.8455 17.0732 15.8634 17.4905C15.8783 17.8572 16.1853 18.1881 16.6295 18.4027ZM16.1585 15.7347C16.1794 15.4187 16.0065 15.2995 15.759 15.3263C15.2999 15.3799 15.0317 15.6393 15.0376 16.1193C15.0376 16.3756 15.1151 16.7632 15.3745 16.6916C15.8097 16.5754 15.9558 16.0865 16.1585 15.7347ZM18.123 16C18.0962 15.6184 17.8309 15.3233 17.3211 15.3054C17.1035 15.2965 16.8441 15.4127 16.9395 15.684C17.0945 16.1252 17.3301 16.5843 17.7981 16.7125C18.0008 16.7691 18.126 16.3965 18.123 15.997V16Z" fill="#16140F"/>
<path d="M23.6259 15.2311C23.4768 15.5292 23.6169 15.7081 23.8763 15.8422C23.7809 16.2476 23.6885 16.6531 23.5961 17.0615C22.8925 16.8826 22.511 17.2731 22.2516 17.8395C21.8462 18.7219 21.6196 19.6073 22.341 20.4539C22.2963 20.4867 22.2695 20.5314 22.2695 20.5881C21.1814 20.6089 20.0903 20.6536 19.0023 20.6328C18.6535 20.6268 18.2779 20.5076 17.9678 20.3436C16.8261 19.7385 16.7545 19.3956 17.4789 18.3672C17.7711 17.9528 18.0781 17.5444 18.3613 17.1211C18.5014 16.9124 18.6535 16.6888 18.7161 16.4533C18.892 15.8094 18.6147 15.3056 18.102 14.9449C17.5117 14.5305 15.2431 14.6617 14.8019 15.1268C14.325 15.6276 14.2057 16.2208 14.5843 16.82C15.0315 17.5265 15.5025 18.2181 16.0212 18.8739C16.3104 19.2406 16.2776 19.4344 15.9467 19.7444C15.428 20.2393 14.8765 20.6268 14.1372 20.6328C12.6079 20.6477 10.8729 21.0978 9.60596 20.5255C8.33902 19.9501 8.56856 17.9468 8.00514 16.6232C7.86801 16.3013 7.79348 15.9495 7.65039 15.4696C8.41354 15.6425 9.09918 16.1045 9.74607 15.5143C10.2767 15.0284 10.2767 14.2533 10.7507 13.6511C11.493 14.4828 11.6689 16.0956 13.2756 15.6812C14.1103 15.4666 14.5098 14.7482 14.5694 13.8747C14.6648 13.6362 14.7632 13.3977 14.8616 13.1622C15.9049 12.8612 15.7917 11.621 16.6532 11.0189C17.3716 12.2649 18.0692 13.517 18.8055 14.7452C19.6342 16.1254 20.8267 16.1224 21.6673 14.766C21.9028 14.3875 22.1413 14.0118 22.3828 13.6303C22.6988 13.9492 22.6123 14.5097 23.1668 14.5186C23.2354 14.8108 23.3904 15.0463 23.6289 15.2311H23.6259ZM19.9741 19.646C20.9161 19.7474 21.2798 19.029 21.2917 18.394C21.3036 17.7501 20.9429 17.0585 20.0248 17.0793C19.3272 17.0943 18.4836 17.7918 18.6356 18.4C18.7995 19.0409 19.047 19.7653 19.9741 19.646ZM13.1564 17.0853C12.1905 17.0615 11.8119 17.7352 11.8358 18.397C11.8626 19.1065 12.277 19.7355 13.2429 19.6669C14.1491 19.6013 14.4681 18.9634 14.4383 18.2986C14.4084 17.6159 13.9911 16.984 13.1564 17.0853ZM11.2068 19.2406C11.1978 18.6086 11.0577 18.0154 10.6702 17.4997C10.4407 17.1926 10.1694 16.9392 9.75502 17.0495C9.34661 17.1598 9.22439 17.5265 9.16775 17.8932C9.07236 18.5281 9.22737 19.1273 9.52846 19.6818C9.75204 20.0962 10.0501 20.6179 10.5629 20.4956C11.1203 20.3645 11.2217 19.7802 11.2068 19.2376V19.2406Z" fill="#F3C65F"/>
<path d="M19.4197 22.2543C19.1336 21.7594 18.6506 21.9263 18.2363 21.9263C15.5026 21.9144 12.766 21.9263 10.0324 21.9114C9.72832 21.9114 9.18577 22.1261 9.20664 21.5388C9.22453 21.0529 9.71044 21.2437 9.99662 21.2407C11.1264 21.2198 12.2563 21.2079 13.3891 21.2407C14.4444 21.2735 15.4371 21.1572 16.1853 20.3106C16.4953 19.9618 16.7159 20.084 16.9872 20.3643C17.6669 21.0708 18.5224 21.2675 19.4764 21.2437C20.7523 21.2109 22.0282 21.2377 23.3041 21.2437C23.5843 21.2437 23.9599 21.1781 23.9152 21.6342C23.8794 22.0009 23.5366 21.9025 23.3041 21.9084C22.5737 21.9263 21.8463 21.9174 21.116 21.9263C20.7612 21.9293 20.3647 21.8429 20.174 22.287C19.9206 22.2781 19.6702 22.2721 19.4168 22.2602L19.4197 22.2543Z" fill="#EDCF73"/>
<path d="M23.1636 14.5188C22.6091 14.5098 22.6926 13.9494 22.3796 13.6304C22.1352 14.015 21.8967 14.3876 21.6642 14.7662C20.8235 16.1226 19.6311 16.1226 18.8023 14.7453C18.066 13.5171 17.3684 12.2681 16.65 11.019C15.7885 11.6212 15.9018 12.8613 14.8584 13.1624C14.8912 12.0445 15.6007 11.2366 16.2327 10.4466C16.6291 9.95178 17.0107 10.4466 17.2373 10.8282C17.917 11.9878 18.5698 13.1624 19.2465 14.322C19.9023 15.4459 20.5492 15.4399 21.2259 14.322C21.3392 14.1342 21.4436 13.9434 21.5688 13.7646C21.8371 13.374 21.9682 12.6109 22.6151 12.9627C23.1159 13.2339 23.4528 13.8361 23.1636 14.5217V14.5188Z" fill="#16140F"/>
<path d="M23.5932 17.0586C23.6886 16.6531 23.781 16.2477 23.8734 15.8393C24.3862 15.9466 24.8244 15.6366 25.519 15.413C24.9645 17.2136 24.565 18.8472 23.936 20.3854C23.6856 20.9965 22.848 20.6448 22.2637 20.5852C22.2637 20.5285 22.2875 20.4838 22.3352 20.451C22.8122 20.6746 23.0775 20.3318 23.3339 20.0486C24.0076 19.3122 24.1 18.09 23.5902 17.0586H23.5932Z" fill="#CA9254"/>
<path d="M16.6292 18.406C16.185 18.1943 15.8779 17.8604 15.863 17.4938C15.8452 17.0764 16.1552 16.5756 16.5725 16.5666C16.9303 16.5607 17.2135 17.0377 17.2343 17.4431C17.2552 17.8694 16.8736 18.1079 16.6292 18.406Z" fill="#CA646C"/>
<path d="M16.1552 15.7407C15.9495 16.0955 15.8064 16.5814 15.3711 16.6977C15.1088 16.7692 15.0373 16.3817 15.0343 16.1253C15.0283 15.6424 15.2966 15.383 15.7557 15.3323C16.0061 15.3055 16.176 15.4218 16.1552 15.7407Z" fill="#CA646C"/>
<path d="M18.1228 16.0032C18.1287 16.3997 18.0035 16.7723 17.7978 16.7186C17.3268 16.5904 17.0943 16.1314 16.9393 15.6902C16.8439 15.4189 17.1032 15.3026 17.3209 15.3116C17.8306 15.3295 18.0989 15.6246 18.1228 16.0062V16.0032Z" fill="#CA646C"/>
<path d="M19.9742 19.6459C19.0471 19.7681 18.7967 19.0437 18.6358 18.3998C18.4807 17.7917 19.3274 17.0941 20.0249 17.0792C20.9431 17.0583 21.3038 17.747 21.2919 18.3938C21.28 19.0318 20.9163 19.7472 19.9742 19.6459Z" fill="#16140F"/>
<path d="M13.1566 17.0823C13.9973 16.984 14.4087 17.613 14.4385 18.2956C14.4683 18.9574 14.1523 19.5984 13.2431 19.6639C12.2772 19.7325 11.8628 19.1065 11.836 18.394C11.8122 17.7322 12.1908 17.0585 13.1566 17.0823Z" fill="#16140F"/>
<path d="M23.593 17.0584C24.1028 18.0899 24.0074 19.3121 23.3366 20.0484C23.0802 20.3316 22.8149 20.6744 22.338 20.4509C21.6165 19.6042 21.8431 18.7189 22.2485 17.8365C22.5109 17.2671 22.8924 16.8796 23.593 17.0584ZM23.2323 17.5831C22.4185 18.6056 22.3618 18.9067 22.7553 19.7801C23.2681 19.169 23.4916 18.5221 23.2323 17.5831Z" fill="#16140F"/>
<path d="M11.2068 19.2345C11.2217 19.777 11.1173 20.3583 10.5629 20.4925C10.0501 20.6117 9.75499 20.096 9.52843 19.6786C9.23033 19.1242 9.07531 18.522 9.16772 17.89C9.22138 17.5233 9.34361 17.1567 9.75499 17.0464C10.1694 16.9331 10.4406 17.1894 10.6702 17.4965C11.0577 18.0122 11.1948 18.6055 11.2068 19.2374V19.2345ZM9.85039 17.4667C9.71922 18.5101 9.76095 19.2076 10.4406 19.8575C10.8192 18.9691 10.5271 18.3342 9.85039 17.4667Z" fill="#16140F"/>
<path d="M23.2325 17.5862C23.4948 18.5252 23.2683 19.1721 22.7555 19.7832C22.359 18.9098 22.4157 18.6087 23.2325 17.5862Z" fill="#CA646C"/>
<path d="M9.85082 17.4697C10.5275 18.3402 10.8226 18.9722 10.4411 19.8605C9.76139 19.2107 9.71965 18.5131 9.85082 17.4697Z" fill="#CA646C"/>
</svg>
