<svg width="33" height="34" viewBox="0 0 33 34" fill="none" xmlns="http://www.w3.org/2000/svg">
<path d="M16.6189 33.3467C7.61321 33.3467 0.350649 26.0583 0.389314 16.9946C0.424757 8.00824 7.77432 0.826225 16.7156 0.858445C25.6117 0.890666 32.8711 8.16934 32.8679 17.1106C32.8646 26.0841 25.5956 33.3467 16.6221 33.3467H16.6189ZM5.06455 24.5826C5.09355 24.6374 5.1161 24.6954 5.15155 24.7469C5.87651 25.8392 6.74003 26.8123 7.74854 27.6436C10.758 30.1181 14.2185 31.204 18.0979 30.798C21.5841 30.4339 24.5098 28.9066 26.8748 26.3129C27.9671 25.1143 28.808 23.7545 29.417 22.253C30.2258 20.2618 30.5254 18.1932 30.3708 16.0538C30.2741 14.6747 29.9712 13.344 29.4653 12.0616C28.5309 9.68694 27.0359 7.73114 25.0285 6.16199C24.6806 5.89133 24.3326 5.61423 23.9234 5.4338C23.8525 5.37902 23.788 5.31458 23.7107 5.26947C23.2661 5.02137 22.8182 4.77005 22.351 4.55739C19.9248 3.46188 17.389 3.07846 14.7566 3.44577C11.47 3.90653 8.69583 5.36936 6.4436 7.81491C5.4512 8.89109 4.66179 10.1026 4.05926 11.4365C3.09586 13.5728 2.70921 15.8153 2.87998 18.1481C2.99275 19.6754 3.3504 21.1511 3.96582 22.5624C4.27514 23.268 4.61024 23.9575 5.06777 24.5794L5.06455 24.5826Z" fill="#383331"/>
<path d="M5.06436 24.5825C4.6036 23.9607 4.26851 23.2711 3.96241 22.5655C3.34699 21.1574 2.98934 19.6817 2.87657 18.1512C2.7058 15.8185 3.09245 13.5759 4.05585 11.4397C4.65838 10.1025 5.44779 8.89421 6.44019 7.81804C8.69242 5.37248 11.4634 3.90965 14.7532 3.4489C17.3888 3.08158 19.9214 3.46501 22.3476 4.56051C22.8148 4.77317 23.2594 5.02449 23.7073 5.27259C23.7846 5.31448 23.8491 5.38214 23.92 5.43692C24.2583 6.05556 24.6095 6.66453 24.8834 7.31861C25.0574 7.73748 25.2475 8.15635 25.3345 8.60744C25.2442 8.52045 25.154 8.43668 25.0638 8.34968C24.1487 7.45072 23.1209 6.7032 21.9706 6.13289C19.6926 5.00516 17.2857 4.60562 14.7693 4.97938C11.3764 5.48525 8.65698 7.14784 6.64318 9.91883C4.88715 12.3386 4.16218 15.0645 4.39417 18.0417C4.53594 19.8525 5.07725 21.5376 5.98265 23.11C6.1792 23.4516 6.3693 23.7995 6.64318 24.0863C6.65607 24.0992 6.67218 24.1121 6.68507 24.125L6.69151 24.1411L6.68185 24.125C6.68185 24.125 6.65607 24.096 6.64318 24.0831C6.62385 23.9284 6.53363 23.7995 6.46919 23.6642C5.27058 21.1607 4.95803 18.5411 5.52512 15.8313C6.09865 13.0926 7.4777 10.8178 9.63005 9.02954C12.1884 6.89974 15.1527 5.9879 18.4618 6.23922C20.2339 6.37454 21.8965 6.89652 23.4367 7.78582C24.21 8.23368 24.9543 8.72666 25.5858 9.36786C25.5954 9.41619 25.6019 9.4613 25.6148 9.50963C25.9821 10.995 26.082 12.4997 25.9467 14.0238C25.8435 15.1998 25.5858 16.3469 25.1798 17.4585C24.5708 19.1308 23.6751 20.6355 22.4861 21.9533C21.2843 23.284 19.8827 24.3634 18.2556 25.1528C15.8164 26.3385 13.2484 26.751 10.5645 26.4481C8.68276 26.2354 6.9235 25.6394 5.28669 24.6824C5.2158 24.6405 5.13525 24.6147 5.05792 24.5825H5.06436Z" fill="#4C4644"/>
<path d="M25.3373 8.60095C25.2503 8.14985 25.0634 7.73421 24.8862 7.31211C24.6123 6.66125 24.2611 6.04906 23.9228 5.43042C24.332 5.61086 24.68 5.88796 25.028 6.15861C27.0353 7.72454 28.5304 9.68034 29.4648 12.0582C29.9706 13.3406 30.2735 14.6713 30.3702 16.0504C30.5248 18.1931 30.2252 20.2616 29.4164 22.2497C28.8075 23.7512 27.9665 25.1077 26.8742 26.3095C24.5124 28.9065 21.5836 30.4305 18.0973 30.7946C14.2179 31.2006 10.7606 30.1148 7.74796 27.6402C6.73945 26.8121 5.87593 25.8358 5.15096 24.7436C5.11552 24.692 5.09296 24.634 5.06396 24.5792C5.14129 24.6115 5.22185 24.6372 5.29273 24.6791C6.92633 25.6393 8.6888 26.2322 10.5705 26.4448C13.2545 26.7509 15.8225 26.3353 18.2616 25.1495C19.8855 24.3601 21.2871 23.284 22.4922 21.95C23.6811 20.6322 24.5769 19.1275 25.1858 17.4552C25.5918 16.3404 25.8496 15.1965 25.9527 14.0205C26.088 12.4997 25.9881 10.9917 25.6208 9.50635C25.6079 9.46124 25.6015 9.41291 25.5918 9.36458C25.885 9.56757 26.1041 9.84467 26.3587 10.0895C26.4876 10.212 26.5713 10.3828 26.7389 10.4633C26.755 10.5116 26.7808 10.5535 26.8291 10.5793C26.8323 10.5825 26.8388 10.5857 26.842 10.589C26.8388 10.5857 26.8356 10.5793 26.8323 10.5761C26.8066 10.5342 26.7808 10.4891 26.755 10.4472C26.7099 10.3699 26.668 10.2893 26.6197 10.2152C26.2459 9.63201 25.7948 9.11326 25.3373 8.5945V8.60095Z" fill="#5E5756"/>
<path d="M25.3381 8.60096C25.7957 9.11971 26.2468 9.64169 26.6205 10.2217C26.6688 10.299 26.7107 10.3763 26.7558 10.4536C26.7494 10.4601 26.743 10.4633 26.7397 10.4698C26.5722 10.386 26.4852 10.2184 26.3595 10.096C26.105 9.85112 25.8891 9.5708 25.5927 9.37103C24.9611 8.72984 24.2168 8.23686 23.4435 7.78899C21.9034 6.89648 20.2376 6.3745 18.4687 6.24239C15.1564 5.99429 12.192 6.90292 9.63694 9.03271C7.48781 10.821 6.10554 13.0958 5.53201 15.8345C4.96492 18.5443 5.27424 21.1606 6.47608 23.6674C6.54052 23.8027 6.63074 23.9316 6.65007 24.0863C6.37619 23.7995 6.18609 23.4483 5.98954 23.11C5.08414 21.5408 4.54283 19.8525 4.40106 18.0416C4.16907 15.0612 4.89082 12.3353 6.65007 9.91879C8.66065 7.1478 11.3833 5.48521 14.7762 4.97934C17.2926 4.60558 19.6995 5.00189 21.9775 6.13284C23.1278 6.70315 24.1556 7.44745 25.0707 8.34963C25.1609 8.43663 25.2511 8.5204 25.3413 8.6074V8.60096H25.3381Z" fill="#5E5756"/>
<path d="M7.20068 23.3359L7.2112 23.3499L7.20419 23.3324L7.20068 23.3359Z" fill="#B69942"/>
<path d="M7.15855 23.2872C7.15855 23.2872 7.18802 23.3199 7.20112 23.333C7.20112 23.333 7.16837 23.3035 7.15527 23.2904V23.2872H7.15855Z" fill="#B69942"/>
<path d="M18.0072 13.1144C18.037 13.1591 18.04 13.2157 18.0519 13.2634C18.0936 13.4212 18.1591 13.5702 18.2217 13.7191C18.2693 13.8353 18.3259 13.9514 18.4004 14.0527C18.4987 14.1837 18.594 14.3208 18.7042 14.4429C18.8621 14.6216 19.0378 14.7765 19.2284 14.9165C19.3386 14.9969 19.4578 15.0654 19.5799 15.128C19.708 15.1935 19.842 15.2471 19.9731 15.3037C20.0296 15.3275 20.0892 15.3484 20.1547 15.3603C20.2233 15.3752 20.2918 15.393 20.3603 15.4139C20.4049 15.4288 20.4496 15.4347 20.4943 15.4318C20.7505 15.4943 21.0126 15.4794 21.2717 15.4675C21.4028 15.4616 21.5338 15.4318 21.6619 15.4079C21.7781 15.3841 21.8913 15.3513 22.0044 15.3156C22.1385 15.2709 22.2666 15.2084 22.3946 15.1488C22.4899 15.1041 22.5823 15.0565 22.6687 14.9999C22.8861 14.8539 23.0857 14.6871 23.2674 14.4995C23.2793 14.4876 23.2942 14.4697 23.2882 14.4459C23.449 14.5918 23.6039 14.7497 23.8065 14.839C23.8869 14.8748 23.9584 14.9224 24.0448 14.9433C24.1579 14.9701 24.2682 15.0058 24.3843 15.0297C24.5571 15.0654 24.7298 15.0535 24.8996 15.0446C25.0396 15.0356 25.0366 15.0207 25.0456 15.1577C25.0456 15.1577 25.0456 15.1637 25.0456 15.1667C25.0634 15.3335 25.0158 15.4943 24.9949 15.6552C24.9771 15.8071 24.9592 15.959 24.9234 16.1079C24.8817 16.2747 24.8728 16.4475 24.8222 16.6143C24.7983 16.6947 24.7834 16.787 24.7715 16.8764C24.7626 16.9657 24.7298 17.0521 24.709 17.1415C24.6941 17.207 24.6792 17.2755 24.6643 17.341C24.6494 17.4125 24.6286 17.49 24.6137 17.5614C24.6018 17.624 24.5928 17.6955 24.5541 17.7551C24.5362 17.7819 24.5452 17.8087 24.5422 17.8385C24.5243 17.8593 24.5035 17.8802 24.5094 17.9129C24.4975 17.9278 24.5005 17.9457 24.5005 17.9636C24.4826 17.9963 24.4558 18.0231 24.4647 18.0678C24.4618 18.1363 24.423 18.1959 24.4052 18.2614C24.3784 18.3657 24.3426 18.4669 24.3069 18.5682C24.2682 18.6814 24.2265 18.7946 24.1848 18.9048C24.1401 19.018 24.0865 19.1312 24.0388 19.2443C23.9614 19.426 23.872 19.6018 23.7797 19.7775C23.7112 19.9056 23.6427 20.0337 23.5622 20.1558C23.5295 20.1558 23.4967 20.1498 23.461 20.1498C21.2002 20.1498 18.9365 20.1498 16.6758 20.1498C16.6758 18.0261 16.6758 15.8994 16.6758 13.7757C16.6758 13.7191 16.6758 13.6625 16.6758 13.6059C16.8158 13.594 16.9558 13.6238 17.0928 13.5612C17.1792 13.5225 17.2834 13.5255 17.3757 13.4778C17.474 13.4272 17.5723 13.3825 17.6676 13.3259C17.757 13.2753 17.8344 13.2127 17.9119 13.1472C17.9417 13.1234 17.9744 13.1115 18.0102 13.1293L18.0072 13.1144Z" fill="#FEBF2E"/>
<path d="M16.6753 20.1349C18.936 20.1349 21.1997 20.1349 23.4604 20.1349C23.4932 20.1349 23.526 20.1379 23.5617 20.1409C23.5498 20.2273 23.5528 20.3166 23.5528 20.403C23.5528 20.8736 23.5528 21.3442 23.5528 21.8119C23.5528 21.9221 23.5528 22.0323 23.4992 22.1336C23.4366 22.2557 23.3443 22.351 23.2192 22.4135C23.0941 22.4761 22.96 22.488 22.8201 22.488C21.9265 22.488 21.0329 22.4821 20.1393 22.488C19.9189 22.488 19.7015 22.491 19.4811 22.4999C19.4513 22.4731 19.4126 22.485 19.3768 22.485C18.5339 22.485 17.691 22.491 16.848 22.485C15.7906 22.4761 14.7332 22.485 13.6758 22.4791C12.7108 22.4791 11.7487 22.4791 10.7837 22.4791C10.7509 22.4791 10.7181 22.482 10.6824 22.485C10.596 22.4701 10.5066 22.482 10.4203 22.4761C10.3726 22.4761 10.322 22.4761 10.2803 22.4433C10.313 22.4433 10.3488 22.4433 10.3815 22.4433C12.4368 22.4433 14.4949 22.4433 16.5502 22.4433C16.6316 22.4433 16.6723 22.4016 16.6723 22.3182C16.6723 21.5885 16.6723 20.8617 16.6723 20.132L16.6753 20.1349Z" fill="#FEA63B"/>
<path d="M25.0426 15.1577C25.0426 15.1577 25.0426 15.1518 25.0426 15.1488C25.0337 15.0118 25.0367 15.0267 24.8967 15.0356C24.7269 15.0446 24.5541 15.0565 24.3814 15.0207C24.2652 14.9969 24.155 14.9641 24.0418 14.9344C23.9584 14.9135 23.884 14.8658 23.8035 14.8301C23.598 14.7407 23.4461 14.5829 23.2853 14.4369C23.2287 14.3684 23.1721 14.3029 23.1155 14.2344C23.1095 14.1808 23.0797 14.145 23.038 14.1123C22.9993 14.017 22.9457 13.9276 22.9129 13.8293C22.8623 13.6834 22.8117 13.5374 22.8027 13.3795C22.8027 13.2395 22.8027 13.0996 22.8027 12.9625C22.8176 12.7719 22.8772 12.5932 22.9517 12.4145C23.0648 12.1434 23.2376 11.9171 23.458 11.7294C23.5861 11.6222 23.7261 11.5328 23.875 11.4554C23.9078 11.4613 23.9316 11.4465 23.9495 11.4196C23.9644 11.4196 23.9793 11.4137 23.9971 11.4107C24.0329 11.4196 24.0508 11.3928 24.0746 11.375C24.1461 11.3601 24.2176 11.3392 24.289 11.3273C24.5422 11.2797 24.7954 11.2797 25.0486 11.3273C25.2422 11.3631 25.4239 11.4345 25.5937 11.5328C25.9064 11.7115 26.1447 11.9617 26.3174 12.2745C26.3443 12.3192 26.3651 12.3698 26.3889 12.4145C26.386 12.4502 26.3919 12.48 26.4277 12.4949C26.4277 12.5098 26.4306 12.5247 26.4336 12.5396C26.4217 12.5723 26.4485 12.5902 26.4634 12.6111C26.4723 12.7064 26.5051 12.7987 26.52 12.897C26.5468 13.0787 26.5498 13.2574 26.52 13.4391C26.5051 13.5285 26.4813 13.6148 26.4634 13.7012C26.4425 13.8025 26.3949 13.8978 26.3502 13.9901C26.2609 14.1659 26.1566 14.3327 26.0077 14.4697C25.8409 14.6246 25.6741 14.7765 25.4596 14.8629C25.3673 14.8986 25.2809 14.9463 25.1856 14.9671C25.129 14.979 25.0694 14.9969 25.0754 15.0773C25.0754 15.1041 25.0694 15.1339 25.0426 15.1518V15.1577Z" fill="#FEA63B"/>
<path d="M24.4647 18.0522C24.4558 18.0108 24.4824 17.9812 24.5001 17.9487C24.5149 17.993 24.512 18.0285 24.4647 18.0522Z" fill="#772A0C"/>
<path d="M24.5088 17.9005C24.5029 17.868 24.5236 17.8473 24.5414 17.8266C24.5414 17.8562 24.5532 17.8887 24.5088 17.9005Z" fill="#772A0C"/>
<path d="M16.6725 13.5881C16.6725 13.6447 16.6725 13.7013 16.6725 13.7579C16.6725 15.8816 16.6725 18.0083 16.6725 20.132C16.6308 20.132 16.5891 20.132 16.5474 20.132C14.3463 20.132 12.1481 20.132 9.9469 20.132C9.89925 20.132 9.85457 20.132 9.80691 20.135C9.74138 20.1052 9.72947 20.0367 9.69968 19.986C9.5716 19.7716 9.4614 19.5482 9.35417 19.3218C9.27077 19.1461 9.18141 18.9704 9.1278 18.7827C9.07418 18.601 9.0027 18.4253 8.95206 18.2436C8.88951 18.0261 8.82696 17.8117 8.76441 17.5943C8.69591 17.356 8.64229 17.1147 8.58868 16.8764C8.56783 16.7871 8.54996 16.6977 8.53804 16.6054C8.52613 16.5101 8.49634 16.4177 8.47549 16.3224C8.45762 16.236 8.45166 16.1496 8.43379 16.0633C8.41294 15.959 8.39805 15.8518 8.38018 15.7446C8.35933 15.6046 8.35039 15.4646 8.31763 15.3276C8.29976 15.2591 8.30869 15.1846 8.30273 15.1101C8.31763 14.994 8.31763 14.994 8.43081 15.0267C8.45762 15.0357 8.48741 15.0357 8.51421 15.0357C8.74356 15.0386 8.96993 15.0386 9.19333 14.9672C9.38098 14.9076 9.55373 14.8272 9.72053 14.7259C9.84563 14.6485 9.94095 14.5412 10.0482 14.4489C10.2775 14.717 10.5575 14.9284 10.8613 15.1042C11.0192 15.1935 11.186 15.268 11.3647 15.3186C11.3975 15.3276 11.4273 15.3514 11.463 15.3514C11.463 15.3663 11.469 15.3812 11.4809 15.3812C11.5643 15.3901 11.6387 15.4378 11.7251 15.4229C11.8651 15.4229 12.0021 15.4705 12.1451 15.4705C12.3327 15.4705 12.5234 15.4825 12.708 15.4556C12.8689 15.4348 13.0327 15.4229 13.1816 15.3544C13.2025 15.3454 13.2263 15.3484 13.2501 15.3454C13.2561 15.3454 13.265 15.3484 13.274 15.3454C13.3931 15.3186 13.5003 15.262 13.6135 15.2203C13.6195 15.2203 13.6195 15.2025 13.6225 15.1935C13.6225 15.1935 13.6254 15.1906 13.6284 15.1876C13.6671 15.1995 13.691 15.1667 13.7148 15.1518C13.7803 15.1131 13.8578 15.0982 13.9084 15.0357C13.9144 15.0357 13.9173 15.0357 13.9233 15.0357C13.971 15.0208 14.0097 14.994 14.0454 14.9582C14.1705 14.8867 14.2807 14.7914 14.388 14.6931C14.519 14.568 14.653 14.4459 14.7662 14.3029C14.8556 14.1898 14.933 14.0676 15.0105 13.9425C15.0998 13.7936 15.1654 13.6328 15.2368 13.4749C15.2458 13.457 15.2458 13.4362 15.2517 13.4153C15.2994 13.4094 15.2905 13.3766 15.2845 13.3468C15.2875 13.3289 15.2905 13.3111 15.2934 13.2932C15.3381 13.2753 15.3262 13.2366 15.3232 13.2038C15.3232 13.18 15.3262 13.1592 15.3292 13.1353C15.3888 13.0579 15.4334 13.1085 15.4721 13.1562C15.496 13.189 15.5347 13.189 15.5615 13.2128C15.7104 13.3498 15.8981 13.4243 16.0828 13.4928C16.2704 13.5613 16.47 13.594 16.6725 13.5791V13.5881Z" fill="#FEF67F"/>
<path d="M10.0511 14.4578C9.9409 14.5501 9.84558 14.6573 9.72346 14.7348C9.55666 14.8361 9.38391 14.9165 9.19626 14.9761C8.97286 15.0505 8.74649 15.0475 8.51714 15.0446C8.49033 15.0446 8.46055 15.0446 8.43374 15.0356C8.32354 14.9999 8.32056 14.9999 8.30566 15.119C8.27886 15.1101 8.28184 15.0863 8.28184 15.0684C8.27588 15.0118 8.23716 14.988 8.1895 14.979C7.83505 14.8956 7.54613 14.702 7.30189 14.4399C7.17679 14.3059 7.07849 14.151 6.99212 13.9872C6.90872 13.8293 6.87893 13.6595 6.83723 13.4897C6.80149 13.3498 6.80744 13.2068 6.81042 13.0668C6.81638 12.8642 6.87297 12.6706 6.94744 12.48C7.01594 12.3013 7.1053 12.1345 7.2304 11.9915C7.44784 11.7383 7.70697 11.5477 8.01972 11.4226C8.32949 11.2975 8.6482 11.2886 8.96988 11.3213C9.15158 11.3392 9.32731 11.4077 9.49709 11.4911C9.72644 11.6043 9.92601 11.7473 10.0928 11.9379C10.2417 12.1077 10.3609 12.2953 10.4383 12.5098C10.4681 12.5932 10.5009 12.6766 10.5098 12.766C10.5098 12.7898 10.5187 12.8136 10.5455 12.8225C10.5455 12.8404 10.5455 12.8613 10.5455 12.8791C10.5455 13.0757 10.5455 13.2723 10.5455 13.4689C10.48 13.7906 10.3579 14.0855 10.1554 14.3476C10.1226 14.3893 10.0749 14.4161 10.0511 14.4637V14.4578Z" fill="#FEBF2E"/>
<path d="M18.0068 13.1145C17.968 13.0966 17.9383 13.1085 17.9085 13.1324C17.831 13.1979 17.7536 13.2604 17.6642 13.3111C17.5689 13.3677 17.4706 13.4124 17.3723 13.463C17.283 13.5106 17.1787 13.5077 17.0894 13.5464C16.9523 13.606 16.8124 13.5762 16.6724 13.5911C16.6724 13.5494 16.6724 13.5077 16.6724 13.466C16.6724 12.2597 16.6724 11.0563 16.6724 9.84999C16.8511 9.8351 17.0209 9.86786 17.1936 9.91849C17.4021 9.97807 17.5898 10.0704 17.7655 10.1925C17.9561 10.3206 18.108 10.4874 18.2361 10.6721C18.3284 10.8061 18.394 10.958 18.4476 11.1129C18.528 11.3452 18.5727 11.5805 18.5578 11.8248C18.5518 11.9469 18.5161 12.0631 18.4923 12.1852C18.4714 12.2805 18.4387 12.3699 18.4029 12.4592C18.3553 12.5724 18.2957 12.6826 18.2272 12.7839C18.1646 12.8792 18.0872 12.9596 18.0127 13.043C17.9889 13.0698 17.9948 13.0907 18.0008 13.1175L18.0068 13.1145Z" fill="#FEA63B"/>
<path d="M16.6754 9.84998C16.6754 11.0563 16.6754 12.2596 16.6754 13.466C16.6754 13.5077 16.6754 13.5494 16.6754 13.5911C16.4728 13.606 16.2733 13.5732 16.0856 13.5047C15.9009 13.4392 15.7133 13.3617 15.5644 13.2247C15.5376 13.2009 15.4988 13.1979 15.475 13.1681C15.4393 13.1204 15.3916 13.0698 15.332 13.1473C15.3648 13.0639 15.3112 13.0192 15.2606 12.9596C15.1027 12.769 14.9716 12.5605 14.8972 12.3192C14.8257 12.0869 14.778 11.8516 14.7989 11.6073C14.8197 11.3959 14.8525 11.1844 14.9418 10.9908C15.0729 10.7078 15.2516 10.4636 15.4988 10.267C15.6835 10.118 15.8861 10.0078 16.1094 9.93933C16.2911 9.88274 16.4788 9.83508 16.6754 9.85593V9.84998Z" fill="#FEBF2E"/>
<path d="M13.6287 15.2054C13.6287 15.2054 13.6257 15.2292 13.6197 15.2322C13.5065 15.2739 13.3993 15.3305 13.2802 15.3573C13.2742 15.3573 13.2653 15.3573 13.2563 15.3573C13.3755 15.2977 13.4976 15.2411 13.6257 15.2084L13.6287 15.2054Z" fill="#FEF67F"/>
<path d="M11.7309 15.4318C11.6445 15.4467 11.567 15.399 11.4866 15.3901C11.4747 15.3901 11.4688 15.3722 11.4688 15.3603C11.5581 15.3782 11.6504 15.3901 11.7309 15.4318Z" fill="#FEF67F"/>
<path d="M15.3228 13.2127C15.3228 13.2452 15.3375 13.2837 15.2932 13.3014C15.2784 13.263 15.3021 13.2393 15.3228 13.2127Z" fill="#FEA63B"/>
<path d="M15.2812 13.3557C15.2871 13.3853 15.2989 13.4178 15.2487 13.4237C15.2457 13.3941 15.2427 13.3646 15.2812 13.3557Z" fill="#FEA63B"/>
<path d="M9.81006 20.1409C9.85772 20.1409 9.90239 20.1379 9.95005 20.1379C12.1512 20.1379 14.3494 20.1379 16.5506 20.1379C16.5923 20.1379 16.634 20.1379 16.6757 20.1379C16.6757 20.8677 16.6757 21.5945 16.6757 22.3242C16.6757 22.4076 16.635 22.4493 16.5535 22.4493C14.4983 22.4493 12.4401 22.4493 10.3849 22.4493C10.3522 22.4493 10.3164 22.4493 10.2837 22.4493C10.2688 22.4493 10.2509 22.4493 10.236 22.4463C10.2241 22.4136 10.1943 22.4165 10.1645 22.4165C10.0156 22.3629 9.91431 22.2587 9.85176 22.1157C9.83091 22.0651 9.81006 22.0115 9.81006 21.9519C9.81006 21.3472 9.81006 20.7456 9.81006 20.1409Z" fill="#FEBF2E"/>
<path d="M10.1641 22.4135C10.1907 22.4135 10.2202 22.4106 10.235 22.4431C10.2055 22.446 10.1788 22.446 10.1641 22.4135Z" fill="#FEA63B"/>
</svg>
