<svg width="33" height="34" viewBox="0 0 33 34" fill="none" xmlns="http://www.w3.org/2000/svg">
<path d="M16.4104 33.021C7.40472 33.021 0.142153 25.7326 0.180818 16.6689C0.216261 7.68256 7.56582 0.500541 16.5071 0.532762C25.4032 0.564983 32.6626 7.84366 32.6594 16.7849C32.6561 25.7584 25.3871 33.021 16.4136 33.021H16.4104ZM4.85605 24.2569C4.88505 24.3117 4.90761 24.3697 4.94305 24.4213C5.66802 25.5135 6.53153 26.4866 7.54004 27.3179C10.5495 29.7925 14.01 30.8783 17.8894 30.4723C21.3757 30.1082 24.3013 28.581 26.6663 25.9872C27.7586 24.7886 28.5995 23.4289 29.2085 21.9274C30.0173 19.9361 30.3169 17.8675 30.1623 15.7281C30.0656 14.349 29.7627 13.0183 29.2569 11.7359C28.3225 9.36126 26.8274 7.40546 24.8201 5.8363C24.4721 5.56565 24.1241 5.28855 23.7149 5.10811C23.644 5.05334 23.5796 4.9889 23.5022 4.94379C23.0576 4.69569 22.6097 4.44437 22.1425 4.23171C19.7163 3.1362 17.1805 2.75277 14.5481 3.12009C11.2615 3.58085 8.48734 5.04367 6.2351 7.48923C5.2427 8.5654 4.45329 9.77691 3.85076 11.1108C2.88736 13.2471 2.50071 15.4897 2.67148 17.8224C2.78426 19.3497 3.14191 20.8254 3.75732 22.2367C4.06664 22.9423 4.40174 23.6318 4.85928 24.2537L4.85605 24.2569Z" fill="#383331"/>
<path d="M4.85587 24.2568C4.39511 23.635 4.06001 22.9454 3.75392 22.2398C3.1385 20.8318 2.78085 19.356 2.66807 17.8256C2.4973 15.4928 2.88395 13.2502 3.84736 11.114C4.44988 9.77681 5.23929 8.56853 6.23169 7.49235C8.48393 5.04679 11.2549 3.58397 14.5447 3.12321C17.1803 2.7559 19.7129 3.13932 22.1391 4.23483C22.6063 4.44749 23.0509 4.69881 23.4988 4.94691C23.5761 4.9888 23.6406 5.05646 23.7115 5.11124C24.0498 5.72988 24.401 6.33885 24.6749 6.99293C24.8489 7.4118 25.039 7.83067 25.126 8.28176C25.0357 8.19477 24.9455 8.11099 24.8553 8.024C23.9402 7.12504 22.9124 6.37751 21.7621 5.80721C19.4841 4.67948 17.0772 4.27994 14.5608 4.6537C11.1679 5.15957 8.44848 6.82216 6.43468 9.59315C4.67865 12.0129 3.95368 14.7388 4.18567 17.716C4.32744 19.5268 4.86875 21.212 5.77416 22.7843C5.97071 23.1259 6.16081 23.4739 6.43468 23.7606C6.44757 23.7735 6.46368 23.7864 6.47657 23.7993L6.48302 23.8154L6.47335 23.7993C6.47335 23.7993 6.44757 23.7703 6.43468 23.7574C6.41535 23.6027 6.32513 23.4739 6.26069 23.3385C5.06208 20.835 4.74954 18.2154 5.31662 15.5057C5.89015 12.7669 7.2692 10.4921 9.42155 8.70385C11.9799 6.57406 14.9442 5.66221 18.2533 5.91353C20.0254 6.04886 21.688 6.57084 23.2282 7.46013C24.0015 7.908 24.7458 8.40098 25.3773 9.04217C25.3869 9.0905 25.3934 9.13561 25.4063 9.18394C25.7736 10.6693 25.8735 12.174 25.7382 13.6981C25.635 14.8741 25.3773 16.0212 24.9713 17.1328C24.3623 18.8051 23.4666 20.3098 22.2776 21.6276C21.0758 22.9583 19.6742 24.0377 18.0471 24.8271C15.6079 26.0129 13.0399 26.4253 10.356 26.1224C8.47426 25.9098 6.715 25.3137 5.07819 24.3567C5.0073 24.3148 4.92675 24.289 4.84942 24.2568H4.85587Z" fill="#4C4644"/>
<path d="M25.1288 8.27526C25.0418 7.82417 24.8549 7.40852 24.6777 6.98643C24.4038 6.33557 24.0526 5.72338 23.7143 5.10474C24.1235 5.28517 24.4715 5.56227 24.8195 5.83293C26.8268 7.39886 28.3219 9.35466 29.2563 11.7326C29.7621 13.0149 30.065 14.3457 30.1617 15.7247C30.3163 17.8674 30.0167 19.936 29.2079 21.924C28.599 23.4255 27.758 24.782 26.6657 25.9838C24.3039 28.5808 21.3751 30.1048 17.8888 30.4689C14.0094 30.8749 10.5521 29.7891 7.53946 27.3145C6.53095 26.4865 5.66743 25.5102 4.94247 24.4179C4.90702 24.3663 4.88447 24.3083 4.85547 24.2535C4.9328 24.2858 5.01335 24.3115 5.08424 24.3534C6.71783 25.3136 8.48031 25.9065 10.362 26.1191C13.046 26.4252 15.614 26.0096 18.0531 24.8239C19.677 24.0345 21.0786 22.9583 22.2837 21.6243C23.4726 20.3065 24.3684 18.8018 24.9774 17.1295C25.3833 16.0147 25.6411 14.8709 25.7442 13.6948C25.8795 12.174 25.7796 10.666 25.4123 9.18067C25.3994 9.13556 25.393 9.08723 25.3833 9.03889C25.6765 9.24189 25.8956 9.51898 26.1502 9.76386C26.2791 9.8863 26.3628 10.0571 26.5304 10.1376C26.5465 10.186 26.5723 10.2278 26.6206 10.2536C26.6238 10.2568 26.6303 10.2601 26.6335 10.2633C26.6303 10.2601 26.6271 10.2536 26.6238 10.2504C26.5981 10.2085 26.5723 10.1634 26.5465 10.1215C26.5014 10.0442 26.4595 9.96363 26.4112 9.88952C26.0374 9.30633 25.5863 8.78757 25.1288 8.26882V8.27526Z" fill="#5E5756"/>
<path d="M25.1296 8.27527C25.5872 8.79403 26.0383 9.316 26.412 9.89598C26.4604 9.97331 26.5022 10.0506 26.5473 10.128C26.5409 10.1344 26.5345 10.1376 26.5312 10.1441C26.3637 10.0603 26.2767 9.89276 26.151 9.77032C25.8965 9.52544 25.6806 9.24512 25.3842 9.04535C24.7526 8.40416 24.0083 7.91118 23.235 7.46331C21.6949 6.57079 20.0291 6.04882 18.2602 5.91671C14.9479 5.66861 11.9836 6.57724 9.42844 8.70703C7.27932 10.4953 5.89704 12.7701 5.32351 15.5088C4.75643 18.2186 5.06575 20.8349 6.26758 23.3417C6.33202 23.477 6.42224 23.6059 6.44157 23.7606C6.1677 23.4738 5.9776 23.1226 5.78105 22.7843C4.87564 21.2151 4.33434 19.5268 4.19256 17.716C3.96057 14.7355 4.68232 12.0097 6.44157 9.5931C8.45215 6.82211 11.1748 5.15952 14.5677 4.65366C17.0841 4.27989 19.491 4.67621 21.769 5.80716C22.9193 6.37747 23.9471 7.12177 24.8622 8.02395C24.9524 8.11095 25.0426 8.19472 25.1329 8.28172V8.27527H25.1296Z" fill="#5E5756"/>
<path d="M6.99219 23.0102L7.00271 23.0242L6.99569 23.0067L6.99219 23.0102Z" fill="#B69942"/>
<path d="M6.95005 22.9615C6.95005 22.9615 6.97952 22.9942 6.99262 23.0073C6.99262 23.0073 6.95988 22.9779 6.94678 22.9648V22.9615H6.95005Z" fill="#B69942"/>
<path d="M26.5313 13.6792C25.8431 14.1258 25.5495 14.8201 25.314 15.5664C25.0356 16.4412 24.7603 17.3129 24.43 18.1693C23.9529 19.3989 23.6133 20.6438 23.7693 21.9804C23.8366 22.583 23.6745 22.8705 22.9771 22.8644C18.7715 22.8369 14.5688 22.843 10.3632 22.8613C9.77591 22.8613 9.51592 22.69 9.57098 22.0752C9.82179 19.35 8.33528 17.059 7.66543 14.5662C7.57979 14.2451 7.2678 14.1839 7.09652 13.9698C6.70806 13.4865 6.67442 12.9941 7.11181 12.5414C7.4972 12.1407 7.98047 12.0489 8.44845 12.3946C8.93784 12.7555 9.07242 13.2326 8.76655 13.7893C8.36281 14.5295 8.72067 15.5022 9.63215 16.1567C10.4488 16.744 11.0147 16.3158 11.5224 15.6887C12.128 14.9363 12.4767 14.0524 12.8376 13.1684C12.963 12.8625 12.9141 12.6668 12.7306 12.4098C12.3513 11.8746 12.388 11.3363 12.9294 10.9233C13.3851 10.5746 13.8684 10.6236 14.266 11.0304C14.7401 11.5167 14.734 12.0489 14.2446 12.5169C14.0213 12.731 13.8654 12.887 14.0183 13.2204C14.4649 14.1808 14.8931 15.1535 15.67 15.9029C16.4224 16.6278 16.976 16.6186 17.655 15.8631C18.3524 15.0862 18.6736 14.1074 19.059 13.1623C19.2089 12.7922 18.9152 12.676 18.7409 12.471C18.3432 12 18.3341 11.4892 18.7592 11.0426C19.1446 10.6358 19.6279 10.5655 20.0959 10.908C20.6403 11.3087 20.7718 11.8654 20.3344 12.3701C20.0072 12.7494 20.0897 13.0491 20.2427 13.4009C20.622 14.2756 20.9982 15.1565 21.665 15.86C22.4082 16.643 23.1362 16.7042 23.8427 15.9059C24.3964 15.2819 25.4363 14.7283 24.5095 13.5752C24.2006 13.1898 24.4728 12.6821 24.901 12.3946C25.6045 11.9205 26.0786 12.3517 26.5374 12.8319V13.6792H26.5313ZM19.6004 13.7343C19.215 14.453 18.8908 15.1994 18.4442 15.8661C17.3951 17.4261 16.1288 17.4597 14.9114 16.0221C14.315 15.3186 13.9082 14.4836 13.4616 13.5997C11.3603 17.3129 11.2594 17.3832 9.06018 16.7348C9.3477 17.5515 9.65968 18.3559 9.91355 19.1787C10.0512 19.6253 10.2806 19.7874 10.7455 19.7843C14.7034 19.769 18.6552 19.7751 22.6132 19.7751C22.8946 19.7751 23.2157 19.8179 23.3228 19.4631C23.5919 18.5455 24.0844 17.6891 24.1486 16.6583C22.0993 17.5515 21.6374 17.2456 19.6065 13.7343H19.6004ZM16.6518 22.2037C18.5574 22.2037 20.466 22.167 22.3715 22.2221C23.1117 22.2435 23.1607 21.904 23.1362 21.3381C23.1148 20.8304 23.2035 20.4052 22.4082 20.4144C18.5941 20.4542 14.7799 20.4542 10.9657 20.4144C10.2286 20.4052 10.2072 20.7356 10.1919 21.2983C10.1766 21.9284 10.2714 22.2465 11.033 22.2221C12.9019 22.1639 14.7768 22.2037 16.6487 22.2037H16.6518Z" fill="#16120B"/>
<path d="M19.6034 13.7281C21.6313 17.2395 22.0962 17.5454 24.1456 16.6522C24.0813 17.683 23.5889 18.5425 23.3197 19.457C23.2157 19.8118 22.8915 19.769 22.6101 19.769C18.6522 19.769 14.7004 19.7629 10.7425 19.7782C10.2775 19.7782 10.0481 19.6191 9.9105 19.1726C9.65663 18.3498 9.34464 17.5454 9.05713 16.7287C11.2563 17.3771 11.3572 17.3068 13.4586 13.5936C13.9051 14.4806 14.3119 15.3095 14.9084 16.016C16.1257 17.4536 17.392 17.42 18.4411 15.86C18.8908 15.1933 19.215 14.4439 19.5973 13.7281H19.6034Z" fill="#F5D336"/>
<path d="M16.6517 22.1976C14.7798 22.1976 12.9048 22.1578 11.0359 22.2159C10.2774 22.2404 10.1826 21.9254 10.1948 21.2922C10.207 20.7264 10.2285 20.3991 10.9687 20.4083C14.7828 20.448 18.597 20.448 22.4111 20.4083C23.2064 20.3991 23.1177 20.8212 23.1391 21.332C23.1636 21.8978 23.1146 22.2374 22.3744 22.2159C20.4689 22.1609 18.5603 22.1976 16.6547 22.1976H16.6517Z" fill="#FBAC3A"/>
</svg>
