<svg width="40" height="38" viewBox="0 0 40 38" fill="none" xmlns="http://www.w3.org/2000/svg">
<path d="M19.7909 34.1485C11.242 34.1485 4.34772 27.2298 4.38442 18.6258C4.41807 10.0921 11.3949 3.27738 19.8827 3.30796C28.3277 3.33855 35.2189 10.2481 35.2158 18.7359C35.2128 27.2543 28.3124 34.1485 19.794 34.1485H19.7909ZM8.82255 25.829C8.85008 25.881 8.87149 25.936 8.90514 25.9849C9.59334 27.0218 10.4131 27.9456 11.3704 28.7347C14.2272 31.0838 17.5122 32.1145 21.1949 31.7291C24.5044 31.3835 27.2816 29.9337 29.5267 27.4715C30.5636 26.3336 31.3619 25.0429 31.94 23.6175C32.7077 21.7273 32.9922 19.7636 32.8454 17.7327C32.7536 16.4235 32.4661 15.1603 31.9859 13.943C31.0989 11.6887 29.6796 9.83211 27.7741 8.34254C27.4437 8.08561 27.1134 7.82256 26.725 7.65128C26.6577 7.59928 26.5965 7.53811 26.5231 7.49528C26.101 7.25977 25.6758 7.02119 25.2323 6.81932C22.9291 5.77937 20.522 5.41539 18.023 5.76408C14.9032 6.20147 12.2697 7.5901 10.1317 9.91163C9.1896 10.9332 8.44022 12.0833 7.86825 13.3496C6.95371 15.3775 6.58667 17.5063 6.74878 19.7208C6.85583 21.1706 7.19534 22.5715 7.77955 23.9112C8.07318 24.581 8.39128 25.2356 8.82561 25.8259L8.82255 25.829Z" fill="#383331"/>
<path d="M8.82252 25.8289C8.38513 25.2386 8.06702 24.584 7.77645 23.9142C7.19224 22.5776 6.85273 21.1767 6.74568 19.7238C6.58357 17.5093 6.95061 15.3805 7.86515 13.3526C8.43712 12.0833 9.1865 10.9363 10.1286 9.91466C12.2666 7.59313 14.897 6.2045 18.0199 5.76711C20.5219 5.41842 22.926 5.7824 25.2292 6.82235C25.6727 7.02422 26.0948 7.2628 26.52 7.49831C26.5934 7.53808 26.6546 7.60231 26.7219 7.65431C27.043 8.24157 27.3764 8.81966 27.6364 9.44057C27.8016 9.8382 27.982 10.2358 28.0646 10.664C27.979 10.5815 27.8933 10.5019 27.8077 10.4193C26.939 9.56597 25.9633 8.85636 24.8714 8.31498C22.7089 7.24444 20.4241 6.86517 18.0352 7.21997C14.8145 7.70019 12.2329 9.27846 10.3213 11.9089C8.65429 14.206 7.96609 16.7936 8.18631 19.6198C8.32089 21.3388 8.83475 22.9385 9.69424 24.4311C9.88082 24.7553 10.0613 25.0857 10.3213 25.3579C10.3335 25.3701 10.3488 25.3824 10.361 25.3946L10.3671 25.4099L10.358 25.3946C10.358 25.3946 10.3335 25.3671 10.3213 25.3548C10.3029 25.208 10.2173 25.0857 10.1561 24.9572C9.01827 22.5806 8.72158 20.0939 9.25991 17.5216C9.80435 14.9217 11.1135 12.7623 13.1567 11.0647C15.5852 9.04294 18.3992 8.17734 21.5405 8.41591C23.2227 8.54438 24.801 9.03988 26.2631 9.88408C26.9971 10.3092 27.7037 10.7772 28.3032 11.3859C28.3124 11.4318 28.3185 11.4746 28.3307 11.5205C28.6794 12.9305 28.7742 14.3589 28.6458 15.8057C28.5479 16.9221 28.3032 18.011 27.9178 19.0662C27.3397 20.6537 26.4894 22.0821 25.3607 23.3331C24.2199 24.5963 22.8893 25.6209 21.3447 26.3703C19.0293 27.4959 16.5915 27.8874 14.0437 27.5999C12.2574 27.398 10.5874 26.8322 9.03356 25.9237C8.96627 25.884 8.88981 25.8595 8.8164 25.8289H8.82252Z" fill="#ADA7A6"/>
<path d="M28.0679 10.6579C27.9853 10.2297 27.8079 9.83514 27.6397 9.43446C27.3797 8.81661 27.0463 8.23546 26.7252 7.64819C27.1136 7.81948 27.4439 8.08252 27.7743 8.33945C29.6798 9.82597 31.0991 11.6826 31.9861 13.9399C32.4663 15.1572 32.7538 16.4205 32.8456 17.7296C32.9924 19.7636 32.7079 21.7273 31.9402 23.6145C31.3621 25.0398 30.5638 26.3275 29.5269 27.4684C27.2849 29.9337 24.5046 31.3804 21.1951 31.7261C17.5124 32.1114 14.2305 31.0807 11.3706 28.7316C10.4133 27.9455 9.59354 27.0188 8.90534 25.9819C8.87169 25.9329 8.85028 25.8779 8.82275 25.8259C8.89616 25.8565 8.97263 25.8809 9.03992 25.9207C10.5907 26.8322 12.2638 27.395 14.05 27.5968C16.5979 27.8874 19.0357 27.4928 21.3511 26.3673C22.8926 25.6179 24.2232 24.5963 25.3671 23.33C26.4958 22.079 27.3461 20.6506 27.9242 19.0632C28.3095 18.0049 28.5542 16.919 28.6521 15.8026C28.7806 14.3589 28.6858 12.9275 28.3371 11.5174C28.3248 11.4746 28.3187 11.4287 28.3095 11.3828C28.5879 11.5755 28.7959 11.8386 29.0375 12.071C29.1599 12.1873 29.2394 12.3494 29.3984 12.4258C29.4137 12.4717 29.4382 12.5115 29.4841 12.536C29.4871 12.539 29.4933 12.5421 29.4963 12.5451C29.4933 12.5421 29.4902 12.5359 29.4871 12.5329C29.4627 12.4931 29.4382 12.4503 29.4137 12.4105C29.3709 12.3371 29.3311 12.2607 29.2853 12.1903C28.9305 11.6367 28.5022 11.1443 28.0679 10.6518V10.6579Z" fill="#96908F"/>
<path d="M28.0676 10.658C28.502 11.1504 28.9302 11.6459 29.285 12.1965C29.3309 12.2699 29.3706 12.3433 29.4134 12.4167C29.4073 12.4228 29.4012 12.4259 29.3981 12.432C29.2391 12.3525 29.1565 12.1934 29.0372 12.0772C28.7956 11.8447 28.5907 11.5786 28.3093 11.389C27.7098 10.7803 27.0032 10.3123 26.2691 9.88719C24.8071 9.03994 23.2257 8.54444 21.5465 8.41903C18.4022 8.18351 15.5882 9.04606 13.1627 11.0678C11.1226 12.7654 9.81041 14.9248 9.26597 17.5247C8.72765 20.097 9.02128 22.5807 10.1622 24.9603C10.2233 25.0888 10.309 25.2111 10.3273 25.358C10.0673 25.0857 9.88688 24.7523 9.7003 24.4312C8.84082 22.9416 8.32696 21.3389 8.19238 19.6199C7.97215 16.7906 8.6573 14.203 10.3273 11.909C12.2359 9.27852 14.8205 7.70024 18.0413 7.22003C20.4301 6.86523 22.7149 7.24144 24.8774 8.31504C25.9694 8.85642 26.9451 9.56298 27.8138 10.4194C27.8994 10.502 27.985 10.5815 28.0707 10.6641V10.658H28.0676Z" fill="#5E5756"/>
<path d="M10.8506 24.6422L10.8606 24.6584L10.8539 24.6422H10.8506Z" fill="#B69942"/>
<path d="M10.8107 24.5994C10.8107 24.5994 10.8382 24.63 10.8504 24.6422C10.8504 24.6422 10.8199 24.6147 10.8076 24.6024V24.5994H10.8107Z" fill="#B69942"/>
<path d="M19.8 33.4301C27.8639 33.4301 34.4009 26.8478 34.4009 18.7282C34.4009 10.6086 27.8639 4.02631 19.8 4.02631C11.7362 4.02631 5.19922 10.6086 5.19922 18.7282C5.19922 26.8478 11.7362 33.4301 19.8 33.4301Z" stroke="#FBC300" stroke-opacity="0.88" stroke-width="3" stroke-miterlimit="10"/>
<path d="M30.5972 16.1727C29.909 16.6192 29.6154 17.3136 29.3799 18.0599C29.1015 18.9346 28.8263 19.8064 28.4959 20.6628C28.0188 21.8924 27.6793 23.1373 27.8353 24.4739C27.9025 25.0765 27.7404 25.364 27.0431 25.3579C22.8374 25.3303 18.6348 25.3364 14.4291 25.3548C13.8418 25.3548 13.5818 25.1835 13.6369 24.5687C13.8877 21.8434 12.4012 19.5525 11.7313 17.0597C11.6457 16.7385 11.3337 16.6773 11.1624 16.4632C10.774 15.98 10.7403 15.4875 11.1777 15.0348C11.5631 14.6342 12.0464 14.5424 12.5144 14.888C13.0038 15.2489 13.1383 15.7261 12.8325 16.2828C12.4287 17.023 12.7866 17.9956 13.6981 18.6502C14.5147 19.2375 15.0806 18.8092 15.5883 18.1822C16.1939 17.4298 16.5426 16.5458 16.9036 15.6619C17.029 15.356 16.98 15.1602 16.7965 14.9033C16.4172 14.3681 16.4539 13.8297 16.9953 13.4168C17.4511 13.0681 17.9343 13.1171 18.332 13.5239C18.8061 14.0102 18.7999 14.5424 18.3105 15.0104C18.0873 15.2245 17.9313 15.3805 18.0842 15.7139C18.5308 16.6743 18.959 17.6469 19.7359 18.3963C20.4883 19.1212 21.0419 19.112 21.721 18.3566C22.4183 17.5797 22.7395 16.6009 23.1249 15.6558C23.2748 15.2857 22.9811 15.1694 22.8068 14.9645C22.4092 14.4935 22.4 13.9827 22.8251 13.5361C23.2105 13.1293 23.6938 13.0589 24.1618 13.4015C24.7062 13.8022 24.8378 14.3589 24.4004 14.8636C24.0731 15.2428 24.1557 15.5426 24.3086 15.8943C24.6879 16.7691 25.0641 17.65 25.7309 18.3535C26.4741 19.1365 27.2021 19.1977 27.9087 18.3994C28.4623 17.7754 29.5022 17.2218 28.5754 16.0687C28.2665 15.6833 28.5387 15.1755 28.967 14.888C29.6705 14.4139 30.1445 14.8452 30.6033 15.3254V16.1727H30.5972ZM23.6663 16.2277C23.2809 16.9465 22.9567 17.6928 22.5101 18.3596C21.461 19.9195 20.1947 19.9532 18.9773 18.5156C18.3809 17.8121 17.9741 16.9771 17.5275 16.0931C15.4262 19.8064 15.3253 19.8767 13.1261 19.2283C13.4136 20.0449 13.7256 20.8494 13.9795 21.6722C14.1171 22.1187 14.3465 22.2808 14.8114 22.2778C18.7693 22.2625 22.7212 22.2686 26.6791 22.2686C26.9605 22.2686 27.2816 22.3114 27.3887 21.9566C27.6578 21.039 28.1503 20.1826 28.2145 19.1518C26.1652 20.0449 25.7034 19.7391 23.6724 16.2277H23.6663ZM20.7177 24.6972C22.6233 24.6972 24.5319 24.6605 26.4374 24.7155C27.1776 24.7369 27.2266 24.3974 27.2021 23.8316C27.1807 23.3238 27.2694 22.8987 26.4741 22.9079C22.66 22.9476 18.8458 22.9476 15.0317 22.9079C14.2945 22.8987 14.2731 23.229 14.2578 23.7918C14.2425 24.4219 14.3373 24.74 15.0989 24.7155C16.9678 24.6574 18.8428 24.6972 20.7147 24.6972H20.7177Z" fill="#16120B"/>
<path d="M23.6693 16.2216C25.6972 19.733 26.1622 20.0388 28.2115 19.1457C28.1472 20.1765 27.6548 21.036 27.3856 21.9505C27.2816 22.3053 26.9574 22.2625 26.676 22.2625C22.7181 22.2625 18.7663 22.2564 14.8084 22.2717C14.3435 22.2717 14.1141 22.1126 13.9764 21.6661C13.7225 20.8433 13.4106 20.0388 13.123 19.2222C15.3222 19.8706 15.4232 19.8003 17.5245 16.087C17.971 16.9741 18.3778 17.803 18.9743 18.5095C20.1916 19.9471 21.4579 19.9134 22.507 18.3535C22.9567 17.6867 23.2809 16.9373 23.6632 16.2216H23.6693Z" fill="#F5D336"/>
<path d="M20.7176 24.6911C18.8457 24.6911 16.9707 24.6513 15.1019 24.7094C14.3433 24.7339 14.2485 24.4188 14.2607 23.7857C14.273 23.2198 14.2944 22.8926 15.0346 22.9017C18.8487 22.9415 22.6629 22.9415 26.4771 22.9017C27.2723 22.8926 27.1836 23.3147 27.205 23.8255C27.2295 24.3913 27.1806 24.7308 26.4404 24.7094C24.5348 24.6544 22.6262 24.6911 20.7206 24.6911H20.7176Z" fill="#FBAC3A"/>
</svg>
