<svg width="40" height="38" viewBox="0 0 40 38" fill="none" xmlns="http://www.w3.org/2000/svg">
<path d="M19.6581 34.5555C11.1092 34.5555 4.21491 27.6368 4.25161 19.0328C4.28526 10.4991 11.2621 3.68436 19.7499 3.71495C28.1949 3.74553 35.0861 10.6551 35.083 19.1429C35.08 27.6613 28.1796 34.5555 19.6612 34.5555H19.6581ZM8.68974 26.2359C8.71727 26.2879 8.73868 26.343 8.77233 26.3919C9.46053 27.4288 10.2803 28.3525 11.2376 29.1417C14.0944 31.4907 17.3794 32.5215 21.0621 32.1361C24.3715 31.7905 27.1488 30.3407 29.3939 27.8784C30.4308 26.7406 31.2291 25.4499 31.8072 24.0245C32.5749 22.1343 32.8594 20.1706 32.7125 18.1396C32.6208 16.8305 32.3333 15.5673 31.8531 14.3499C30.966 12.0957 29.5468 10.2391 27.6413 8.74952C27.3109 8.49259 26.9806 8.22954 26.5921 8.05826C26.5249 8.00626 26.4637 7.94509 26.3903 7.90227C25.9682 7.66675 25.543 7.42817 25.0995 7.2263C22.7963 6.18635 20.3892 5.82237 17.8902 6.17106C14.7704 6.60845 12.1369 7.99709 9.99885 10.3186C9.05678 11.3402 8.30741 12.4903 7.73544 13.7566C6.82089 15.7845 6.45385 17.9133 6.61596 20.1278C6.72302 21.5776 7.06253 22.9785 7.64674 24.3182C7.94037 24.988 8.25847 25.6426 8.6928 26.2329L8.68974 26.2359Z" fill="#383331"/>
<path d="M8.6897 26.2359C8.25231 25.6456 7.93421 24.991 7.64364 24.3212C7.05943 22.9845 6.71992 21.5837 6.61287 20.1308C6.45076 17.9163 6.8178 15.7875 7.73234 13.7596C8.30431 12.4902 9.05368 11.3432 9.99576 10.3216C12.1338 8.00011 14.7642 6.61148 17.8871 6.17409C20.3891 5.8254 22.7932 6.18938 25.0964 7.22933C25.5399 7.4312 25.962 7.66978 26.3872 7.9053C26.4606 7.94506 26.5218 8.00929 26.589 8.06129C26.9102 8.64855 27.2436 9.22664 27.5036 9.84755C27.6688 10.2452 27.8492 10.6428 27.9318 11.071C27.8462 10.9884 27.7605 10.9089 27.6749 10.8263C26.8062 9.97296 25.8305 9.26335 24.7385 8.72196C22.5761 7.65143 20.2912 7.27215 17.9024 7.62696C14.6816 8.10717 12.1001 9.68544 10.1885 12.3159C8.52148 14.613 7.83327 17.2006 8.0535 20.0268C8.18808 21.7458 8.70194 23.3455 9.56142 24.8381C9.748 25.1623 9.92846 25.4927 10.1885 25.7649C10.2007 25.7771 10.216 25.7893 10.2282 25.8016L10.2343 25.8169L10.2252 25.8016C10.2252 25.8016 10.2007 25.774 10.1885 25.7618C10.1701 25.615 10.0845 25.4927 10.0233 25.3642C8.88546 22.9876 8.58877 20.5009 9.12709 17.9286C9.67154 15.3287 10.9806 13.1693 13.0238 11.4717C15.4524 9.44992 18.2664 8.58432 21.4077 8.8229C23.0899 8.95136 24.6682 9.44687 26.1302 10.2911C26.8643 10.7162 27.5709 11.1842 28.1704 11.7929C28.1796 11.8387 28.1857 11.8816 28.1979 11.9274C28.5466 13.3375 28.6414 14.7659 28.5129 16.2126C28.4151 17.3291 28.1704 18.4179 27.785 19.4732C27.2069 21.0606 26.3566 22.489 25.2279 23.74C24.0871 25.0033 22.7565 26.0279 21.2119 26.7773C18.8965 27.9029 16.4587 28.2944 13.9109 28.0069C12.1246 27.805 10.4546 27.2392 8.90075 26.3307C8.83346 26.291 8.75699 26.2665 8.68359 26.2359H8.6897Z" fill="#ADA7A6"/>
<path d="M27.9351 11.0649C27.8525 10.6367 27.6751 10.2421 27.5069 9.84144C27.2469 9.22359 26.9135 8.64244 26.5923 8.05518C26.9808 8.22646 27.3111 8.48951 27.6415 8.74644C29.547 10.2329 30.9662 12.0896 31.8533 14.3469C32.3335 15.5642 32.621 16.8274 32.7127 18.1366C32.8596 20.1706 32.5751 22.1342 31.8074 24.0214C31.2293 25.4468 30.431 26.7345 29.3941 27.8754C27.1521 30.3407 24.3717 31.7874 21.0623 32.133C17.3796 32.5184 14.0977 31.4877 11.2378 29.1386C10.2805 28.3525 9.46073 27.4257 8.77253 26.3888C8.73888 26.3399 8.71747 26.2849 8.68994 26.2329C8.76335 26.2634 8.83982 26.2879 8.90711 26.3277C10.4579 27.2392 12.1309 27.802 13.9172 28.0038C16.4651 28.2944 18.9028 27.8998 21.2183 26.7742C22.7598 26.0249 24.0904 25.0033 25.2343 23.737C26.3629 22.486 27.2133 21.0576 27.7913 19.4701C28.1767 18.4118 28.4214 17.326 28.5193 16.2096C28.6478 14.7659 28.5529 13.3344 28.2043 11.9244C28.192 11.8816 28.1859 11.8357 28.1767 11.7898C28.4551 11.9825 28.6631 12.2456 28.9047 12.478C29.027 12.5942 29.1066 12.7564 29.2656 12.8328C29.2809 12.8787 29.3054 12.9185 29.3513 12.9429C29.3543 12.946 29.3604 12.949 29.3635 12.9521C29.3604 12.949 29.3574 12.9429 29.3543 12.9399C29.3299 12.9001 29.3054 12.8573 29.2809 12.8175C29.2381 12.7441 29.1983 12.6677 29.1524 12.5973C28.7976 12.0437 28.3694 11.5512 27.9351 11.0588V11.0649Z" fill="#96908F"/>
<path d="M27.9348 11.065C28.3691 11.5574 28.7974 12.0529 29.1522 12.6035C29.198 12.6769 29.2378 12.7503 29.2806 12.8237C29.2745 12.8298 29.2684 12.8329 29.2653 12.839C29.1063 12.7595 29.0237 12.6004 28.9044 12.4842C28.6628 12.2517 28.4578 11.9856 28.1764 11.796C27.5769 11.1873 26.8704 10.7193 26.1363 10.2942C24.6743 9.44692 23.0929 8.95142 21.4137 8.82601C18.2694 8.5905 15.4554 9.45304 13.0299 11.4748C10.9898 13.1724 9.6776 15.3318 9.13316 17.9317C8.59483 20.504 8.88847 22.9877 10.0293 25.3673C10.0905 25.4958 10.1762 25.6181 10.1945 25.7649C9.93453 25.4927 9.75407 25.1593 9.56749 24.8382C8.708 23.3486 8.19415 21.7458 8.05957 20.0269C7.83934 17.1976 8.52448 14.61 10.1945 12.316C12.1031 9.6855 14.6877 8.10723 17.9085 7.62702C20.2973 7.27221 22.5821 7.64843 24.7446 8.72202C25.8366 9.2634 26.8123 9.96996 27.6809 10.8264C27.7666 10.909 27.8522 10.9885 27.9379 11.0711V11.065H27.9348Z" fill="#5E5756"/>
<path d="M10.7178 25.0492L10.7278 25.0654L10.7211 25.0492H10.7178Z" fill="#B69942"/>
<path d="M10.6779 25.0063C10.6779 25.0063 10.7054 25.0369 10.7176 25.0492C10.7176 25.0492 10.687 25.0216 10.6748 25.0094V25.0063H10.6779Z" fill="#B69942"/>
<path d="M19.6672 33.8371C27.7311 33.8371 34.2681 27.2548 34.2681 19.1352C34.2681 11.0156 27.7311 4.43329 19.6672 4.43329C11.6034 4.43329 5.06641 11.0156 5.06641 19.1352C5.06641 27.2548 11.6034 33.8371 19.6672 33.8371Z" stroke="#FBC300" stroke-opacity="0.88" stroke-width="3" stroke-miterlimit="10"/>
<path d="M11.8946 21.55C11.6731 20.9243 11.5191 20.2793 11.3298 19.6407C11.0377 18.6395 10.7554 17.6382 10.4698 16.6338C10.4601 16.6017 10.4441 16.5729 10.473 16.5247C10.9672 16.7846 11.4645 17.0446 11.9587 17.3045C12.4786 17.5773 12.9984 17.8532 13.5183 18.1292C13.5568 18.1517 13.5985 18.1806 13.6467 18.1517C13.6756 18.1966 13.7108 18.2319 13.7622 18.2544C14.5997 18.6908 15.4373 19.1304 16.2716 19.5733C16.3807 19.631 16.4289 19.6054 16.4834 19.5027C16.8621 18.7742 17.2472 18.049 17.629 17.3238C17.6579 17.2724 17.6836 17.2179 17.674 17.1569C17.7799 17.1376 17.7863 17.0382 17.8248 16.9676C18.4858 15.7064 19.1437 14.4453 19.8015 13.1841C19.8208 13.1488 19.84 13.1168 19.8753 13.0558C20.0518 13.3863 20.2155 13.6912 20.3759 13.9992C20.899 15.0004 21.4221 16.0017 21.9452 17.0029C21.9772 17.0638 21.9837 17.1473 22.0767 17.1601C22.0671 17.2435 22.112 17.3109 22.1473 17.3783C22.5196 18.0875 22.8982 18.7935 23.2673 19.5059C23.3314 19.6278 23.3924 19.6214 23.4951 19.5669C24.0759 19.2588 24.6632 18.9571 25.244 18.6491C25.536 18.495 25.828 18.3314 26.1201 18.1741C26.38 18.0426 26.6431 17.911 26.9031 17.7794C26.9672 17.7474 27.0346 17.7217 27.0988 17.6928C27.0988 18.6362 27.0828 19.5765 27.1116 20.5199C27.1277 21.0462 26.6913 21.5629 26.0655 21.5596C21.3419 21.5468 16.615 21.5532 11.8913 21.5532L11.8946 21.55ZM20.8252 19.4257C20.8252 19.047 20.7514 18.7582 20.5749 18.5047C20.2636 18.0586 19.763 17.9624 19.4068 18.2672C18.8741 18.7293 18.7714 19.6182 19.1822 20.1926C19.548 20.7061 20.0583 20.7446 20.4883 20.2889C20.7354 20.0257 20.806 19.6984 20.822 19.4224L20.8252 19.4257Z" fill="#F8CD69"/>
<path d="M11.8945 21.5501C16.6182 21.5501 21.345 21.5436 26.0687 21.5565C26.6945 21.5565 27.1309 21.0398 27.1148 20.5168C27.086 19.5765 27.1052 18.6331 27.102 17.6896C27.7984 17.3206 28.4979 16.9483 29.1943 16.5793C29.2167 16.5665 29.2424 16.5665 29.2681 16.5601C29.2552 16.8328 29.1461 17.0863 29.0691 17.3495C28.5364 19.23 27.9973 21.1104 27.4582 22.9909C27.4454 23.0358 27.4293 23.0775 27.4165 23.1225C27.1052 23.1225 26.7907 23.1225 26.4795 23.1225C21.7654 23.1225 17.0546 23.1225 12.3406 23.1225C12.193 22.5994 12.0421 22.0763 11.8945 21.5533V21.5501Z" fill="#F6C144"/>
<path d="M26.4794 23.1192C26.7907 23.1192 27.1052 23.1192 27.4164 23.1192C27.4164 23.7001 27.4164 24.2841 27.4228 24.8649C27.4228 24.9805 27.3843 25.019 27.2752 25.0029C27.2431 24.9997 27.2111 25.0029 27.1758 25.0029C22.3077 25.0029 17.4428 25.0029 12.5748 25.0061C12.3887 25.0061 12.3052 24.9773 12.3245 24.7655C12.3469 24.5312 12.3341 24.2937 12.3341 24.0595C16.7818 24.0595 21.2295 24.0595 25.6772 24.0595C25.7349 24.0595 25.7959 24.0595 25.8536 24.0595C26.1425 24.0531 26.3575 23.883 26.4441 23.6038C26.4954 23.4433 26.4569 23.2797 26.4698 23.116L26.4794 23.1192Z" fill="#F2A23A"/>
<path d="M17.6772 17.1537C17.6868 17.2147 17.6612 17.2693 17.6323 17.3206C17.2504 18.0458 16.8653 18.7711 16.4867 19.4995C16.4321 19.6022 16.384 19.6279 16.2749 19.5701C15.4405 19.1273 14.603 18.6909 13.7654 18.2512C13.7173 18.2255 13.682 18.1903 13.6499 18.1485C13.9387 16.5761 14.2307 15.0037 14.5292 13.3735C14.7153 13.5917 14.8661 13.7715 15.0169 13.9544C15.9026 15.0198 16.7883 16.0884 17.6772 17.1537Z" fill="#F6C144"/>
<path d="M26.1231 18.171C25.8311 18.3282 25.5423 18.4919 25.247 18.6459C24.6662 18.9539 24.079 19.2556 23.4981 19.5637C23.3922 19.6182 23.3345 19.6246 23.2703 19.5027C22.9013 18.7903 22.5258 18.0843 22.1504 17.3751C22.1151 17.3077 22.0669 17.2403 22.0798 17.1569C22.8307 16.252 23.5848 15.3438 24.3389 14.4389C24.6213 14.0987 24.9069 13.7586 25.2214 13.3831C25.5294 15.0101 25.8279 16.5921 26.1231 18.1742V18.171Z" fill="#F6C144"/>
<path d="M26.4794 23.1192C26.4666 23.2797 26.5051 23.4433 26.4537 23.607C26.3671 23.8862 26.1489 24.0563 25.8633 24.0627C25.8055 24.0627 25.7446 24.0627 25.6868 24.0627C21.2391 24.0627 16.7914 24.0627 12.3438 24.0627C12.3438 23.7482 12.3438 23.4337 12.3438 23.116C17.0578 23.116 21.7686 23.116 26.4826 23.116L26.4794 23.1192Z" fill="#F4B461"/>
<path d="M29.2712 16.5598C29.2712 16.5598 29.2775 16.5503 29.2807 16.544C29.2775 16.5472 29.2712 16.5535 29.2681 16.5566V16.5598H29.2712Z" fill="#F6C144"/>
<path d="M20.8254 19.4257C20.8093 19.7017 20.7387 20.029 20.4916 20.2921C20.0616 20.7478 19.5514 20.7061 19.1856 20.1958C18.7716 19.6182 18.8775 18.7325 19.4102 18.2704C19.7632 17.9656 20.2638 18.0619 20.5783 18.5079C20.7548 18.7614 20.8286 19.0502 20.8286 19.4289L20.8254 19.4257Z" fill="#F2A23A"/>
</svg>
