<svg width="40" height="38" viewBox="0 0 40 38" fill="none" xmlns="http://www.w3.org/2000/svg">
<path d="M20.2612 34.0452C11.7122 34.0452 4.81793 27.1265 4.85464 18.5225C4.88828 9.98876 11.8651 3.17404 20.3529 3.20463C28.7979 3.23522 35.6891 10.1448 35.686 18.6326C35.683 27.151 28.7826 34.0452 20.2642 34.0452H20.2612ZM9.29277 25.7256C9.3203 25.7776 9.34171 25.8327 9.37535 25.8816C10.0636 26.9185 10.8833 27.8422 11.8406 28.6314C14.6974 30.9804 17.9825 32.0112 21.6651 31.6258C24.9746 31.2802 27.7519 29.8304 29.9969 27.3681C31.0338 26.2303 31.8321 24.9395 32.4102 23.5142C33.1779 21.6239 33.4624 19.6603 33.3156 17.6293C33.2238 16.3202 32.9363 15.057 32.4561 13.8396C31.5691 11.5854 30.1498 9.72878 28.2443 8.2392C27.914 7.98228 27.5836 7.71923 27.1952 7.54794C27.1279 7.49595 27.0667 7.43477 26.9933 7.39195C26.5712 7.15643 26.146 6.91786 25.7025 6.71599C23.3994 5.67604 20.9922 5.31206 18.4933 5.66074C15.3734 6.09813 12.7399 7.48677 10.6019 9.8083C9.65981 10.8299 8.91044 11.98 8.33846 13.2462C7.42392 15.2741 7.05688 17.403 7.21899 19.6175C7.32604 21.0673 7.66556 22.4681 8.24976 23.8078C8.5434 24.4777 8.8615 25.1322 9.29583 25.7226L9.29277 25.7256Z" fill="#383331"/>
<path d="M9.29273 25.7256C8.85534 25.1353 8.53724 24.4807 8.24667 23.8109C7.66246 22.4743 7.32295 21.0734 7.21589 19.6205C7.05378 17.406 7.42082 15.2772 8.33537 13.2493C8.90734 11.98 9.65671 10.833 10.5988 9.81136C12.7368 7.48983 15.3673 6.10119 18.4902 5.6638C20.9921 5.31512 23.3963 5.6791 25.6994 6.71905C26.1429 6.92092 26.565 7.15949 26.9902 7.39501C27.0636 7.43477 27.1248 7.49901 27.1921 7.551C27.5132 8.13827 27.8466 8.71636 28.1066 9.33727C28.2718 9.73489 28.4522 10.1325 28.5348 10.5607C28.4492 10.4782 28.3635 10.3986 28.2779 10.316C27.4092 9.46267 26.4335 8.75306 25.3416 8.21168C23.1791 7.14114 20.8943 6.76187 18.5054 7.11667C15.2847 7.59688 12.7031 9.17516 10.7915 11.8056C9.1245 14.1027 8.4363 16.6903 8.65653 19.5165C8.79111 21.2355 9.30497 22.8352 10.1645 24.3278C10.351 24.652 10.5315 24.9824 10.7915 25.2546C10.8037 25.2668 10.819 25.2791 10.8312 25.2913L10.8374 25.3066L10.8282 25.2913C10.8282 25.2913 10.8037 25.2638 10.7915 25.2515C10.7731 25.1047 10.6875 24.9824 10.6263 24.8539C9.48849 22.4773 9.19179 19.9906 9.73012 17.4183C10.2746 14.8184 11.5837 12.659 13.6269 10.9614C16.0555 8.93964 18.8694 8.07404 22.0107 8.31261C23.693 8.44108 25.2712 8.93658 26.7333 9.78077C27.4674 10.2059 28.1739 10.6739 28.7734 11.2826C28.7826 11.3285 28.7887 11.3713 28.8009 11.4172C29.1496 12.8272 29.2444 14.2556 29.116 15.7024C29.0181 16.8188 28.7734 17.9077 28.388 18.9629C27.8099 20.5504 26.9596 21.9788 25.831 23.2297C24.6901 24.493 23.3596 25.5176 21.8149 26.267C19.4995 27.3926 17.0618 27.7841 14.5139 27.4966C12.7276 27.2947 11.0576 26.7289 9.50378 25.8204C9.43649 25.7807 9.36002 25.7562 9.28661 25.7256H9.29273Z" fill="#ADA7A6"/>
<path d="M28.5381 10.5546C28.4555 10.1264 28.2781 9.73184 28.1099 9.33116C27.8499 8.7133 27.5165 8.13216 27.1954 7.54489C27.5838 7.71618 27.9142 7.97922 28.2445 8.23615C30.15 9.72267 31.5693 11.5793 32.4563 13.8366C32.9365 15.0539 33.224 16.3172 33.3158 17.6263C33.4626 19.6603 33.1781 21.624 32.4104 23.5112C31.8323 24.9365 31.034 26.2242 29.9971 27.3651C27.7551 29.8304 24.9748 31.2771 21.6653 31.6228C17.9827 32.0081 14.7007 30.9774 11.8408 28.6283C10.8835 27.8422 10.0638 26.9155 9.37555 25.8786C9.34191 25.8296 9.3205 25.7746 9.29297 25.7226C9.36638 25.7532 9.44284 25.7776 9.51013 25.8174C11.0609 26.7289 12.734 27.2917 14.5202 27.4935C17.0681 27.7841 19.5059 27.3895 21.8213 26.264C23.3629 25.5146 24.6934 24.493 25.8373 23.2267C26.966 21.9757 27.8163 20.5473 28.3944 18.9599C28.7798 17.9016 29.0245 16.8157 29.1223 15.6993C29.2508 14.2556 29.156 12.8242 28.8073 11.4141C28.7951 11.3713 28.7889 11.3254 28.7798 11.2795C29.0581 11.4722 29.2661 11.7353 29.5077 11.9677C29.6301 12.084 29.7096 12.2461 29.8686 12.3225C29.8839 12.3684 29.9084 12.4082 29.9543 12.4326C29.9573 12.4357 29.9635 12.4388 29.9665 12.4418C29.9635 12.4388 29.9604 12.4326 29.9573 12.4296C29.9329 12.3898 29.9084 12.347 29.8839 12.3072C29.8411 12.2338 29.8014 12.1574 29.7555 12.087C29.4007 11.5334 28.9725 11.041 28.5381 10.5485V10.5546Z" fill="#96908F"/>
<path d="M28.5378 10.5546C28.9722 11.0471 29.4004 11.5426 29.7552 12.0931C29.8011 12.1665 29.8408 12.2399 29.8837 12.3134C29.8775 12.3195 29.8714 12.3225 29.8684 12.3286C29.7093 12.2491 29.6267 12.0901 29.5074 11.9738C29.2658 11.7414 29.0609 11.4753 28.7795 11.2856C28.18 10.677 27.4734 10.209 26.7393 9.78383C25.2773 8.93658 23.696 8.44108 22.0168 8.31567C18.8724 8.08015 16.0585 8.9427 13.6329 10.9645C11.5928 12.662 10.2806 14.8215 9.73619 17.4213C9.19786 19.9937 9.49149 22.4773 10.6324 24.857C10.6936 24.9854 10.7792 25.1078 10.7975 25.2546C10.5376 24.9824 10.3571 24.649 10.1705 24.3278C9.31103 22.8382 8.79717 21.2355 8.66259 19.5165C8.44237 16.6873 9.12751 14.0996 10.7975 11.8056C12.7062 9.17516 15.2907 7.59688 18.5115 7.11667C20.9003 6.76186 23.1852 7.13808 25.3476 8.21167C26.4396 8.75306 27.4153 9.45961 28.284 10.316C28.3696 10.3986 28.4553 10.4781 28.5409 10.5607V10.5546H28.5378Z" fill="#5E5756"/>
<path d="M11.3208 24.5388L11.3308 24.5551L11.3241 24.5388H11.3208Z" fill="#B69942"/>
<path d="M11.2809 24.496C11.2809 24.496 11.3084 24.5266 11.3207 24.5389C11.3207 24.5389 11.2901 24.5113 11.2778 24.4991V24.496H11.2809Z" fill="#B69942"/>
<path d="M30.8874 15.9043C30.2972 16.7062 30.2376 17.7079 29.8709 18.5962C29.7039 18.9987 30.1451 19.2372 30.3031 19.5323C30.7503 20.3729 30.2584 21.1242 29.7129 21.2464C28.744 21.461 28.6785 22.0215 28.753 22.7011C28.8722 23.7982 28.3923 24.1559 27.3728 24.0218C26.386 23.8906 25.3546 24.2811 24.3947 23.7863C24.5855 23.3451 24.9819 23.4315 25.3367 23.4255C26.0671 23.4166 26.7944 23.4255 27.5248 23.4077C27.7573 23.4017 28.1001 23.5001 28.1359 23.1334C28.1806 22.6773 27.805 22.7459 27.5248 22.7429C26.2489 22.7339 24.97 22.7101 23.6971 22.7429C22.7402 22.7667 21.8846 22.57 21.2079 21.8635C20.9396 21.5833 20.7161 21.461 20.406 21.8098C19.6578 22.6564 18.6681 22.7727 17.6098 22.7399C16.48 22.7071 15.3502 22.719 14.2174 22.7399C13.9312 22.7459 13.4453 22.5521 13.4274 23.038C13.4065 23.6253 13.9461 23.4106 14.2531 23.4106C16.9868 23.4285 19.7234 23.4136 22.457 23.4255C22.8714 23.4255 23.3543 23.2586 23.6405 23.7535C23.3483 24.1649 22.9101 24.0069 22.5315 24.0098C19.7263 24.0218 16.9182 23.98 14.116 24.0367C13.1173 24.0575 12.7119 23.7475 12.7775 22.7339C12.8163 22.096 12.9474 21.3984 11.8832 21.2434C11.4301 21.1778 10.7862 20.4236 11.1767 19.8721C12.0084 18.7006 11.3585 17.6989 11.123 16.6109C11.0097 16.0832 10.2436 15.3946 11.0694 15.0041C11.7729 14.6732 11.9041 15.6092 12.2618 16.0027C12.5271 16.2919 12.6821 16.739 13.1501 16.7211C13.7016 16.7033 13.7791 16.1965 13.958 15.8119C13.9878 15.7463 13.9968 15.6688 14.0355 15.6092C14.3217 15.1859 14.2203 14.4049 14.9417 14.3989C15.5558 14.3959 15.6125 15.0786 15.8987 15.4721C16.006 15.6182 16.0865 15.7821 16.1819 15.9371C16.7751 16.8702 17.3743 16.8821 17.9944 15.9759C18.1911 15.6867 18.2925 15.2783 18.7843 15.3767C18.7247 16.2472 18.3252 16.9656 17.4906 17.1832C15.8838 17.5976 15.7079 15.9848 14.9656 15.1531C14.4886 15.7553 14.4946 16.5304 13.961 17.0163C13.3171 17.6065 12.6284 17.1445 11.8653 16.9716C12.0084 17.4485 12.0829 17.8003 12.22 18.1252C12.7835 19.4518 12.5539 21.4521 13.8209 22.0274C15.0848 22.6028 16.8198 22.1526 18.3521 22.1348C19.0914 22.1258 19.6399 21.7383 20.1616 21.2464C20.4895 20.9364 20.5223 20.7396 20.2361 20.3759C19.7174 19.7201 19.2494 19.0255 18.7992 18.322C18.4206 17.7228 18.5399 17.1325 19.0169 16.6287C19.4581 16.1637 21.7266 16.0325 22.3169 16.4469C22.8296 16.8076 23.1069 17.3114 22.931 17.9553C22.8654 18.1938 22.7163 18.4144 22.5762 18.6231C22.293 19.0434 21.986 19.4518 21.6938 19.8691C20.9694 20.9006 21.041 21.2404 22.1827 21.8456C22.4928 22.0095 22.8684 22.1288 23.2172 22.1348C24.3053 22.1556 25.3963 22.1109 26.4844 22.09C27.0717 22.1526 27.9093 22.5044 28.1568 21.8903C28.7858 20.3491 29.1852 18.7155 29.7397 16.9179C29.0422 17.1415 28.6039 17.4485 28.0942 17.3442C27.8378 17.213 27.6977 17.0312 27.8438 16.7331C28.7947 16.9686 29.1525 16.268 29.5698 15.6539C29.8828 15.1948 30.1511 14.6165 30.8844 15.0309V15.9073L30.8874 15.9043ZM20.8502 19.9079C21.0947 19.6098 21.4732 19.3773 21.4554 18.945C21.4345 18.5396 21.1513 18.0596 20.7936 18.0686C20.3792 18.0775 20.0662 18.5783 20.0841 18.9957C20.099 19.3624 20.406 19.6933 20.8502 19.9079ZM20.3792 17.2399C20.4001 16.9239 20.2272 16.8046 19.9797 16.8314C19.5207 16.8851 19.2524 17.1445 19.2583 17.6244C19.2583 17.8808 19.3358 18.2683 19.5952 18.1968C20.0304 18.0805 20.1765 17.5916 20.3792 17.2399ZM22.3437 17.5052C22.3169 17.1236 22.0516 16.8285 21.5418 16.8106C21.3242 16.8016 21.0648 16.9179 21.1602 17.1892C21.3152 17.6304 21.5508 18.0895 22.0188 18.2176C22.2215 18.2743 22.3467 17.9016 22.3437 17.5022V17.5052Z" fill="#16140F"/>
<path d="M27.8466 16.7362C27.6975 17.0343 27.8376 17.2132 28.097 17.3473C28.0016 17.7528 27.9092 18.1582 27.8168 18.5666C27.1132 18.3877 26.7317 18.7782 26.4723 19.3446C26.0669 20.227 25.8403 21.1124 26.5617 21.959C26.517 21.9918 26.4902 22.0365 26.4902 22.0932C25.4021 22.114 24.311 22.1588 23.223 22.1379C22.8742 22.1319 22.4986 22.0127 22.1885 21.8487C21.0468 21.2436 20.9752 20.9008 21.6996 19.8723C21.9918 19.4579 22.2988 19.0495 22.582 18.6262C22.7221 18.4175 22.8742 18.194 22.9368 17.9585C23.1127 17.3145 22.8354 16.8107 22.3227 16.45C21.7324 16.0357 19.4638 16.1668 19.0227 16.6319C18.5457 17.1327 18.4264 17.7259 18.805 18.3251C19.2522 19.0316 19.7232 19.7232 20.2419 20.3791C20.5311 20.7457 20.4983 20.9395 20.1674 21.2495C19.6487 21.7444 19.0972 22.1319 18.3579 22.1379C16.8286 22.1528 15.0936 22.6029 13.8267 22.0306C12.5597 21.4552 12.7893 19.452 12.2258 18.1284C12.0887 17.8064 12.0142 17.4547 11.8711 16.9747C12.6342 17.1476 13.3199 17.6097 13.9668 17.0194C14.4974 16.5335 14.4974 15.7584 14.9714 15.1563C15.7137 15.988 15.8896 17.6007 17.4963 17.1864C18.331 16.9717 18.7305 16.2533 18.7901 15.3798C18.8855 15.1414 18.9839 14.9029 19.0823 14.6674C20.1256 14.3663 20.0124 13.1262 20.8739 12.524C21.5923 13.7701 22.2899 15.0221 23.0262 16.2503C23.8549 17.6305 25.0474 17.6276 25.888 16.2712C26.1235 15.8926 26.362 15.517 26.6035 15.1354C26.9195 15.4544 26.833 16.0148 27.3875 16.0237C27.4561 16.3159 27.6111 16.5514 27.8496 16.7362H27.8466ZM24.1948 21.1512C25.1368 21.2525 25.5005 20.5341 25.5124 19.8991C25.5243 19.2552 25.1636 18.5636 24.2455 18.5845C23.5479 18.5994 22.7043 19.2969 22.8563 19.9051C23.0203 20.546 23.2677 21.2704 24.1948 21.1512ZM17.3771 18.5904C16.4112 18.5666 16.0327 19.2403 16.0565 19.9021C16.0833 20.6116 16.4977 21.2406 17.4636 21.172C18.3698 21.1065 18.6888 20.4685 18.659 19.8037C18.6292 19.1211 18.2118 18.4891 17.3771 18.5904ZM15.4275 20.7457C15.4186 20.1138 15.2784 19.5205 14.8909 19.0048C14.6614 18.6978 14.3901 18.4444 13.9757 18.5547C13.5673 18.665 13.4451 19.0316 13.3885 19.3983C13.2931 20.0333 13.4481 20.6325 13.7492 21.1869C13.9727 21.6013 14.2708 22.123 14.7836 22.0008C15.341 21.8696 15.4424 21.2853 15.4275 20.7428V20.7457Z" fill="#F3C65F"/>
<path d="M23.6404 23.7594C23.3543 23.2646 22.8713 23.4315 22.457 23.4315C19.7233 23.4196 16.9867 23.4315 14.2531 23.4166C13.949 23.4166 13.4065 23.6312 13.4273 23.044C13.4452 22.558 13.9311 22.7488 14.2173 22.7458C15.3471 22.725 16.477 22.7131 17.6098 22.7458C18.6651 22.7786 19.6578 22.6624 20.406 21.8158C20.716 21.467 20.9366 21.5892 21.2079 21.8694C21.8876 22.5759 22.7431 22.7727 23.6971 22.7488C24.973 22.716 26.2489 22.7429 27.5248 22.7488C27.805 22.7488 28.1806 22.6832 28.1359 23.1393C28.1001 23.506 27.7573 23.4076 27.5248 23.4136C26.7944 23.4315 26.067 23.4225 25.3367 23.4315C24.9819 23.4345 24.5854 23.348 24.3947 23.7922C24.1413 23.7833 23.8909 23.7773 23.6375 23.7654L23.6404 23.7594Z" fill="#EDCF73"/>
<path d="M27.3843 16.0239C26.8299 16.015 26.9133 15.4545 26.6003 15.1356C26.3559 15.5201 26.1174 15.8928 25.8849 16.2713C25.0442 17.6277 23.8518 17.6277 23.023 16.2505C22.2867 15.0223 21.5892 13.7732 20.8707 12.5242C20.0092 13.1263 20.1225 14.3665 19.0791 14.6675C19.1119 13.5496 19.8214 12.7418 20.4534 11.9518C20.8499 11.4569 21.2314 11.9518 21.458 12.3334C22.1377 13.493 22.7905 14.6675 23.4672 15.8272C24.1231 16.951 24.7699 16.9451 25.4466 15.8272C25.5599 15.6394 25.6643 15.4486 25.7895 15.2697C26.0578 14.8792 26.1889 14.116 26.8358 14.4678C27.3366 14.7391 27.6735 15.3413 27.3843 16.0269V16.0239Z" fill="#16140F"/>
<path d="M27.8139 18.5637C27.9093 18.1583 28.0017 17.7529 28.0941 17.3445C28.6069 17.4518 29.0451 17.1418 29.7397 16.9182C29.1852 18.7187 28.7857 20.3524 28.1567 21.8906C27.9063 22.5017 27.0687 22.1499 26.4844 22.0903C26.4844 22.0337 26.5082 21.989 26.5559 21.9562C27.0329 22.1797 27.2982 21.8369 27.5546 21.5537C28.2283 20.8174 28.3207 19.5952 27.8109 18.5637H27.8139Z" fill="#CA9254"/>
<path d="M20.8499 19.9111C20.4057 19.6995 20.0986 19.3656 20.0837 18.9989C20.0659 18.5816 20.3759 18.0807 20.7932 18.0718C21.151 18.0658 21.4342 18.5428 21.455 18.9482C21.4759 19.3745 21.0943 19.613 20.8499 19.9111Z" fill="#CA646C"/>
<path d="M20.3759 17.2459C20.1702 17.6006 20.0271 18.0866 19.5918 18.2028C19.3295 18.2744 19.258 17.8868 19.255 17.6305C19.249 17.1475 19.5173 16.8882 19.9764 16.8375C20.2268 16.8107 20.3967 16.9269 20.3759 17.2459Z" fill="#CA646C"/>
<path d="M22.3435 17.5083C22.3494 17.9048 22.2242 18.2775 22.0185 18.2238C21.5475 18.0956 21.315 17.6365 21.16 17.1953C21.0646 16.924 21.3239 16.8078 21.5416 16.8167C22.0513 16.8346 22.3196 17.1297 22.3435 17.5113V17.5083Z" fill="#CA646C"/>
<path d="M24.1949 21.151C23.2678 21.2733 23.0174 20.5489 22.8565 19.905C22.7014 19.2968 23.5481 18.5993 24.2456 18.5844C25.1638 18.5635 25.5245 19.2521 25.5126 19.899C25.5007 20.5369 25.137 21.2524 24.1949 21.151Z" fill="#16140F"/>
<path d="M17.3773 18.5875C18.218 18.4892 18.6294 19.1182 18.6592 19.8008C18.689 20.4626 18.373 21.1035 17.4638 21.1691C16.4979 21.2377 16.0835 20.6117 16.0567 19.8992C16.0329 19.2374 16.4115 18.5637 17.3773 18.5875Z" fill="#16140F"/>
<path d="M27.8137 18.5636C28.3235 19.595 28.2281 20.8173 27.5573 21.5536C27.301 21.8368 27.0356 22.1796 26.5587 21.956C25.8373 21.1094 26.0638 20.224 26.4692 19.3416C26.7316 18.7722 27.1131 18.3847 27.8137 18.5636ZM27.453 19.0882C26.6392 20.1107 26.5825 20.4118 26.976 21.2853C27.4888 20.6742 27.7123 20.0273 27.453 19.0882Z" fill="#16140F"/>
<path d="M15.4275 20.7396C15.4424 21.2822 15.338 21.8635 14.7836 21.9976C14.2708 22.1169 13.9757 21.6011 13.7491 21.1838C13.451 20.6293 13.296 20.0271 13.3884 19.3952C13.4421 19.0285 13.5643 18.6618 13.9757 18.5515C14.3901 18.4382 14.6613 18.6946 14.8909 19.0017C15.2784 19.5174 15.4155 20.1106 15.4275 20.7426V20.7396ZM14.0711 18.9718C13.9399 20.0152 13.9817 20.7128 14.6613 21.3627C15.0399 20.4743 14.7478 19.8393 14.0711 18.9718Z" fill="#16140F"/>
<path d="M27.4532 19.0913C27.7155 20.0304 27.489 20.6773 26.9762 21.2884C26.5798 20.4149 26.6364 20.1138 27.4532 19.0913Z" fill="#CA646C"/>
<path d="M14.0715 18.9749C14.7482 19.8453 15.0433 20.4773 14.6618 21.3657C13.9821 20.7158 13.9404 20.0182 14.0715 18.9749Z" fill="#CA646C"/>
</svg>
