<svg width="40" height="38" viewBox="0 0 40 38" fill="none" xmlns="http://www.w3.org/2000/svg">
<path d="M19.5268 34.6382C10.9778 34.6382 4.08356 27.7195 4.12026 19.1155C4.15391 10.5818 11.1307 3.76706 19.6186 3.79765C28.0635 3.82824 34.9547 10.7378 34.9517 19.2256C34.9486 27.744 28.0482 34.6382 19.5298 34.6382H19.5268ZM8.55839 26.3186C8.58592 26.3706 8.60733 26.4257 8.64098 26.4746C9.32918 27.5115 10.1489 28.4352 11.1063 29.2244C13.9631 31.5734 17.2481 32.6042 20.9307 32.2188C24.2402 31.8732 27.0175 30.4234 29.2625 27.9611C30.2994 26.8233 31.0977 25.5326 31.6758 24.1072C32.4436 22.217 32.728 20.2533 32.5812 18.2223C32.4894 16.9132 32.2019 15.65 31.7217 14.4326C30.8347 12.1784 29.4155 10.3218 27.5099 8.83222C27.1796 8.57529 26.8492 8.31225 26.4608 8.14096C26.3935 8.08896 26.3323 8.02779 26.2589 7.98497C25.8368 7.74945 25.4117 7.51088 24.9682 7.309C22.665 6.26905 20.2578 5.90507 17.7589 6.25376C14.639 6.69115 12.0055 8.07979 9.86751 10.4013C8.92544 11.4229 8.17606 12.573 7.60409 13.8393C6.68955 15.8672 6.32251 17.996 6.48462 20.2105C6.59167 21.6603 6.93118 23.0612 7.51539 24.4009C7.80902 25.0707 8.12712 25.7253 8.56145 26.3156L8.55839 26.3186Z" fill="#383331"/>
<path d="M8.55836 26.3186C8.12097 25.7283 7.80286 25.0737 7.51229 24.4039C6.92808 23.0672 6.58857 21.6664 6.48152 20.2135C6.31941 17.999 6.68645 15.8702 7.60099 13.8423C8.17296 12.5729 8.92234 11.4259 9.86441 10.4043C12.0024 8.08282 14.6329 6.69418 17.7558 6.25679C20.2578 5.9081 22.6619 6.27208 24.9651 7.31203C25.4086 7.5139 25.8307 7.75248 26.2558 7.988C26.3292 8.02776 26.3904 8.09199 26.4577 8.14399C26.7789 8.73126 27.1123 9.30934 27.3722 9.93025C27.5374 10.3279 27.7179 10.7255 27.8005 11.1537C27.7148 11.0711 27.6292 10.9916 27.5435 10.909C26.6749 10.0557 25.6991 9.34605 24.6072 8.80466C22.4447 7.73413 20.1599 7.35485 17.7711 7.70966C14.5503 8.18987 11.9688 9.76814 10.0571 12.3986C8.39013 14.6957 7.70193 17.2833 7.92215 20.1095C8.05673 21.8285 8.57059 23.4282 9.43008 24.9208C9.61666 25.245 9.79712 25.5754 10.0571 25.8476C10.0693 25.8598 10.0846 25.872 10.0969 25.8843L10.103 25.8996L10.0938 25.8843C10.0938 25.8843 10.0693 25.8568 10.0571 25.8445C10.0388 25.6977 9.95311 25.5754 9.89194 25.4469C8.75411 23.0703 8.45742 20.5836 8.99575 18.0113C9.54019 15.4114 10.8493 13.252 12.8925 11.5544C15.3211 9.53263 18.1351 8.66702 21.2763 8.9056C22.9586 9.03406 24.5369 9.52957 25.9989 10.3738C26.733 10.7989 27.4395 11.2669 28.039 11.8756C28.0482 11.9214 28.0543 11.9643 28.0666 12.0102C28.4152 13.4202 28.5101 14.8486 28.3816 16.2953C28.2837 17.4118 28.039 18.5006 27.6536 19.5559C27.0755 21.1433 26.2252 22.5717 25.0966 23.8227C23.9557 25.086 22.6252 26.1106 21.0806 26.86C18.7651 27.9856 16.3274 28.3771 13.7795 28.0896C11.9932 27.8877 10.3232 27.3219 8.7694 26.4134C8.70211 26.3737 8.62565 26.3492 8.55224 26.3186H8.55836Z" fill="#ADA7A6"/>
<path d="M27.8038 11.1476C27.7212 10.7194 27.5438 10.3248 27.3755 9.92414C27.1156 9.30629 26.7822 8.72514 26.461 8.13788C26.8494 8.30916 27.1798 8.57221 27.5101 8.82914C29.4157 10.3157 30.8349 12.1723 31.7219 14.4296C32.2021 15.6469 32.4896 16.9101 32.5814 18.2193C32.7282 20.2533 32.4438 22.2169 31.676 24.1041C31.0979 25.5295 30.2996 26.8172 29.2627 27.9581C27.0207 30.4234 24.2404 31.8701 20.9309 32.2157C17.2483 32.6011 13.9663 31.5704 11.1065 29.2213C10.1491 28.4352 9.32938 27.5084 8.64118 26.4716C8.60753 26.4226 8.58612 26.3676 8.55859 26.3156C8.632 26.3461 8.70847 26.3706 8.77576 26.4104C10.3265 27.3219 11.9996 27.8847 13.7859 28.0865C16.3337 28.3771 18.7715 27.9825 21.0869 26.8569C22.6285 26.1076 23.959 25.086 25.1029 23.8197C26.2316 22.5687 27.0819 21.1403 27.66 19.5528C28.0454 18.4945 28.2901 17.4087 28.388 16.2923C28.5164 14.8486 28.4216 13.4171 28.0729 12.0071C28.0607 11.9643 28.0546 11.9184 28.0454 11.8725C28.3237 12.0652 28.5317 12.3283 28.7733 12.5607C28.8957 12.6769 28.9752 12.8391 29.1343 12.9155C29.1496 12.9614 29.174 13.0012 29.2199 13.0256C29.223 13.0287 29.2291 13.0318 29.2322 13.0348C29.2291 13.0318 29.226 13.0256 29.223 13.0226C29.1985 12.9828 29.174 12.94 29.1496 12.9002C29.1067 12.8268 29.067 12.7504 29.0211 12.68C28.6663 12.1264 28.2381 11.6339 27.8038 11.1415V11.1476Z" fill="#96908F"/>
<path d="M27.8035 11.1477C28.2378 11.6401 28.666 12.1356 29.0208 12.6862C29.0667 12.7596 29.1065 12.833 29.1493 12.9064C29.1432 12.9125 29.137 12.9156 29.134 12.9217C28.9749 12.8422 28.8924 12.6831 28.7731 12.5669C28.5314 12.3344 28.3265 12.0683 28.0451 11.8787C27.4456 11.27 26.739 10.802 26.005 10.3769C24.5429 9.52963 22.9616 9.03412 21.2824 8.90872C18.1381 8.6732 15.3241 9.53575 12.8986 11.5575C10.8584 13.2551 9.54625 15.4145 9.00181 18.0144C8.46349 20.5867 8.75712 23.0704 9.898 25.45C9.95918 25.5785 10.0448 25.7008 10.0632 25.8476C9.80318 25.5754 9.62272 25.242 9.43614 24.9209C8.57666 23.4313 8.0628 21.8285 7.92822 20.1096C7.70799 17.2803 8.39314 14.6927 10.0632 12.3987C11.9718 9.7682 14.5564 8.18993 17.7771 7.70972C20.166 7.35491 22.4508 7.73113 24.6133 8.80472C25.7052 9.34611 26.6809 10.0527 27.5496 10.9091C27.6352 10.9917 27.7209 11.0712 27.8065 11.1538V11.1477H27.8035Z" fill="#5E5756"/>
<path d="M10.5864 25.1319L10.5964 25.1481L10.5898 25.1319H10.5864Z" fill="#B69942"/>
<path d="M10.5465 25.0891C10.5465 25.0891 10.574 25.1196 10.5863 25.1319C10.5863 25.1319 10.5557 25.1043 10.5435 25.0921V25.0891H10.5465Z" fill="#B69942"/>
<path d="M30.3331 16.6624C29.6449 17.1089 29.3512 17.8032 29.1157 18.5496C28.8374 19.4243 28.5621 20.2961 28.2318 21.1525C27.7546 22.3821 27.4151 23.6269 27.5711 24.9636C27.6384 25.5661 27.4763 25.8537 26.7789 25.8475C22.5732 25.82 18.3706 25.8261 14.1649 25.8445C13.5777 25.8445 13.3177 25.6732 13.3727 25.0584C13.6235 22.3331 12.137 20.0422 11.4672 17.5494C11.3815 17.2282 11.0696 17.167 10.8983 16.9529C10.5098 16.4697 10.4762 15.9772 10.9136 15.5245C11.299 15.1238 11.7822 15.0321 12.2502 15.3777C12.7396 15.7386 12.8742 16.2158 12.5683 16.7725C12.1646 17.5127 12.5224 18.4853 13.4339 19.1399C14.2506 19.7271 14.8164 19.2989 15.3242 18.6719C15.9298 17.9195 16.2785 17.0355 16.6394 16.1516C16.7648 15.8457 16.7159 15.6499 16.5323 15.393C16.1531 14.8577 16.1898 14.3194 16.7312 13.9065C17.1869 13.5578 17.6702 13.6067 18.0678 14.0135C18.5419 14.4999 18.5358 15.0321 18.0464 15.5001C17.8231 15.7142 17.6671 15.8702 17.82 16.2036C18.2666 17.164 18.6948 18.1366 19.4717 18.886C20.2242 19.6109 20.7778 19.6017 21.4568 18.8462C22.1542 18.0693 22.4753 17.0906 22.8607 16.1454C23.0106 15.7753 22.717 15.6591 22.5426 15.4542C22.145 14.9831 22.1358 14.4723 22.561 14.0258C22.9464 13.619 23.4296 13.5486 23.8976 13.8912C24.4421 14.2919 24.5736 14.8486 24.1362 15.3532C23.8089 15.7325 23.8915 16.0323 24.0444 16.384C24.4237 17.2588 24.7999 18.1397 25.4667 18.8432C26.21 19.6262 26.9379 19.6874 27.6445 18.8891C28.1981 18.2651 29.2381 17.7115 28.3113 16.5584C28.0024 16.173 28.2746 15.6652 28.7028 15.3777C29.4063 14.9036 29.8804 15.3349 30.3392 15.8151V16.6624H30.3331ZM23.4021 16.7174C23.0167 17.4362 22.6925 18.1825 22.2459 18.8493C21.1968 20.4092 19.9305 20.4429 18.7132 19.0053C18.1167 18.3018 17.7099 17.4668 17.2634 16.5828C15.1621 20.2961 15.0611 20.3664 12.8619 19.718C13.1495 20.5346 13.4614 21.3391 13.7153 22.1618C13.8529 22.6084 14.0824 22.7705 14.5473 22.7675C18.5052 22.7522 22.457 22.7583 26.4149 22.7583C26.6963 22.7583 27.0175 22.8011 27.1245 22.4463C27.3937 21.5287 27.8861 20.6723 27.9504 19.6415C25.9011 20.5346 25.4392 20.2288 23.4082 16.7174H23.4021ZM20.4536 25.1869C22.3591 25.1869 24.2677 25.1502 26.1733 25.2052C26.9135 25.2266 26.9624 24.8871 26.9379 24.3213C26.9165 23.8135 27.0052 23.3884 26.21 23.3975C22.3958 23.4373 18.5817 23.4373 14.7675 23.3975C14.0304 23.3884 14.0089 23.7187 13.9936 24.2815C13.9784 24.9116 14.0732 25.2297 14.8348 25.2052C16.7036 25.1471 18.5786 25.1869 20.4505 25.1869H20.4536Z" fill="#16120B"/>
<path d="M23.4052 16.7113C25.4331 20.2227 25.898 20.5285 27.9473 19.6354C27.8831 20.6662 27.3906 21.5257 27.1215 22.4402C27.0175 22.795 26.6933 22.7522 26.4119 22.7522C22.4539 22.7522 18.5021 22.7461 14.5442 22.7614C14.0793 22.7614 13.8499 22.6023 13.7123 22.1557C13.4584 21.333 13.1464 20.5285 12.8589 19.7119C15.0581 20.3603 15.159 20.2899 17.2603 16.5767C17.7069 17.4637 18.1137 18.2926 18.7101 18.9992C19.9275 20.4368 21.1938 20.4031 22.2429 18.8432C22.6925 18.1764 23.0167 17.427 23.3991 16.7113H23.4052Z" fill="#F5D336"/>
<path d="M20.4534 25.1807C18.5815 25.1807 16.7066 25.141 14.8377 25.1991C14.0792 25.2236 13.9843 24.9085 13.9966 24.2754C14.0088 23.7095 14.0302 23.3822 14.7704 23.3914C18.5846 23.4312 22.3987 23.4312 26.2129 23.3914C27.0082 23.3822 26.9195 23.8043 26.9409 24.3151C26.9653 24.881 26.9164 25.2205 26.1762 25.1991C24.2706 25.144 22.362 25.1807 20.4565 25.1807H20.4534Z" fill="#FBAC3A"/>
</svg>
