<svg width="40" height="38" viewBox="0 0 40 38" fill="none" xmlns="http://www.w3.org/2000/svg">
<path d="M19.394 34.0452C10.845 34.0452 3.95075 27.1265 3.98745 18.5225C4.0211 9.98876 10.9979 3.17404 19.4857 3.20463C27.9307 3.23522 34.8219 10.1448 34.8189 18.6326C34.8158 27.151 27.9154 34.0452 19.397 34.0452H19.394ZM8.42558 25.7256C8.45311 25.7776 8.47452 25.8327 8.50817 25.8816C9.19637 26.9185 10.0161 27.8422 10.9735 28.6314C13.8303 30.9804 17.1153 32.0112 20.7979 31.6258C24.1074 31.2802 26.8847 29.8304 29.1297 27.3681C30.1666 26.2303 30.9649 24.9395 31.543 23.5142C32.3107 21.6239 32.5952 19.6603 32.4484 17.6293C32.3566 16.3202 32.0691 15.057 31.5889 13.8396C30.7019 11.5854 29.2827 9.72878 27.3771 8.2392C27.0468 7.98228 26.7164 7.71923 26.328 7.54794C26.2607 7.49595 26.1995 7.43477 26.1261 7.39195C25.704 7.15643 25.2789 6.91786 24.8354 6.71599C22.5322 5.67604 20.125 5.31206 17.6261 5.66074C14.5062 6.09813 11.8727 7.48677 9.73469 9.8083C8.79262 10.8299 8.04325 11.98 7.47128 13.2462C6.55673 15.2741 6.18969 17.403 6.3518 19.6175C6.45886 21.0673 6.79837 22.4681 7.38258 23.8078C7.67621 24.4777 7.99431 25.1322 8.42864 25.7226L8.42558 25.7256Z" fill="#383331"/>
<path d="M8.42554 25.7256C7.98815 25.1353 7.67005 24.4807 7.37948 23.8109C6.79527 22.4742 6.45576 21.0734 6.34871 19.6205C6.1866 17.406 6.55364 15.2772 7.46818 13.2493C8.04015 11.9799 8.78952 10.8329 9.7316 9.81133C11.8696 7.4898 14.5001 6.10116 17.623 5.66377C20.125 5.31508 22.5291 5.67907 24.8323 6.71901C25.2758 6.92089 25.6979 7.15946 26.123 7.39498C26.1964 7.43474 26.2576 7.49898 26.3249 7.55097C26.646 8.13824 26.9794 8.71633 27.2394 9.33724C27.4046 9.73486 27.5851 10.1325 27.6676 10.5607C27.582 10.4781 27.4964 10.3986 27.4107 10.316C26.542 9.46264 25.5663 8.75303 24.4744 8.21165C22.3119 7.14111 20.0271 6.76184 17.6383 7.11664C14.4175 7.59685 11.836 9.17513 9.92429 11.8056C8.25732 14.1026 7.56911 16.6903 7.78934 19.5165C7.92392 21.2355 8.43778 22.8351 9.29726 24.3278C9.48384 24.652 9.6643 24.9823 9.92429 25.2546C9.93653 25.2668 9.95182 25.279 9.96405 25.2913L9.97017 25.3066L9.961 25.2913C9.961 25.2913 9.93653 25.2637 9.92429 25.2515C9.90594 25.1047 9.8203 24.9823 9.75912 24.8539C8.6213 22.4773 8.32461 19.9906 8.86293 17.4182C9.40738 14.8184 10.7165 12.659 12.7597 10.9614C15.1883 8.93961 18.0022 8.07401 21.1435 8.31258C22.8258 8.44105 24.404 8.93655 25.8661 9.78074C26.6002 10.2059 27.3067 10.6739 27.9062 11.2826C27.9154 11.3284 27.9215 11.3713 27.9337 11.4171C28.2824 12.8272 28.3773 14.2556 28.2488 15.7023C28.1509 16.8187 27.9062 17.9076 27.5208 18.9629C26.9427 20.5503 26.0924 21.9787 24.9638 23.2297C23.8229 24.493 22.4924 25.5176 20.9477 26.267C18.6323 27.3926 16.1946 27.7841 13.6467 27.4966C11.8604 27.2947 10.1904 26.7288 8.63659 25.8204C8.5693 25.7807 8.49283 25.7562 8.41943 25.7256H8.42554Z" fill="#ADA7A6"/>
<path d="M27.6709 10.5546C27.5884 10.1264 27.411 9.73181 27.2427 9.33112C26.9827 8.71327 26.6493 8.13213 26.3282 7.54486C26.7166 7.71615 27.047 7.97919 27.3773 8.23612C29.2829 9.72263 30.7021 11.5792 31.5891 13.8365C32.0693 15.0539 32.3568 16.3171 32.4486 17.6262C32.5954 19.6603 32.3109 21.6239 31.5432 23.5111C30.9651 24.9365 30.1668 26.2242 29.1299 27.365C26.8879 29.8303 24.1076 31.2771 20.7981 31.6227C17.1155 32.0081 13.8335 30.9773 10.9737 28.6283C10.0163 27.8422 9.19657 26.9154 8.50837 25.8785C8.47472 25.8296 8.45331 25.7745 8.42578 25.7225C8.49919 25.7531 8.57566 25.7776 8.64295 25.8174C10.1937 26.7288 11.8668 27.2916 13.6531 27.4935C16.2009 27.7841 18.6387 27.3895 20.9541 26.2639C22.4957 25.5146 23.8262 24.493 24.9701 23.2267C26.0988 21.9757 26.9491 20.5473 27.5272 18.9598C27.9126 17.9015 28.1573 16.8157 28.2551 15.6993C28.3836 14.2556 28.2888 12.8241 27.9401 11.4141C27.9279 11.3713 27.9217 11.3254 27.9126 11.2795C28.1909 11.4722 28.3989 11.7352 28.6405 11.9677C28.7629 12.0839 28.8424 12.246 29.0015 12.3225C29.0168 12.3684 29.0412 12.4081 29.0871 12.4326C29.0902 12.4357 29.0963 12.4387 29.0993 12.4418C29.0963 12.4387 29.0932 12.4326 29.0902 12.4296C29.0657 12.3898 29.0412 12.347 29.0168 12.3072C28.9739 12.2338 28.9342 12.1573 28.8883 12.087C28.5335 11.5334 28.1053 11.0409 27.6709 10.5485V10.5546Z" fill="#96908F"/>
<path d="M27.6707 10.5546C28.105 11.0471 28.5332 11.5426 28.888 12.0932C28.9339 12.1666 28.9736 12.24 29.0165 12.3134C29.0103 12.3195 29.0042 12.3226 29.0012 12.3287C28.8421 12.2492 28.7595 12.0901 28.6402 11.9739C28.3986 11.7414 28.1937 11.4753 27.9123 11.2857C27.3128 10.677 26.6062 10.209 25.8722 9.78386C24.4101 8.93661 22.8288 8.44111 21.1496 8.3157C18.0052 8.08018 15.1913 8.94273 12.7657 10.9645C10.7256 12.6621 9.41344 14.8215 8.869 17.4214C8.33067 19.9937 8.62431 22.4773 9.76519 24.857C9.82636 24.9855 9.91201 25.1078 9.93036 25.2546C9.67037 24.9824 9.48991 24.649 9.30333 24.3278C8.44384 22.8383 7.92999 21.2355 7.79541 19.5166C7.57518 16.6873 8.26032 14.0996 9.93036 11.8056C11.839 9.17519 14.4235 7.59691 17.6443 7.1167C20.0331 6.76189 22.318 7.13811 24.4805 8.21171C25.5724 8.75309 26.5481 9.45964 27.4168 10.3161C27.5024 10.3987 27.5881 10.4782 27.6737 10.5608V10.5546H27.6707Z" fill="#5E5756"/>
<path d="M10.4536 24.5389L10.4636 24.5551L10.457 24.5389H10.4536Z" fill="#B69942"/>
<path d="M10.4137 24.496C10.4137 24.496 10.4412 24.5266 10.4535 24.5389C10.4535 24.5389 10.4229 24.5113 10.4106 24.4991V24.496H10.4137Z" fill="#B69942"/>
<path d="M11.6304 21.0396C11.409 20.4139 11.2549 19.7689 11.0656 19.1303C10.7736 18.1291 10.4912 17.1279 10.2056 16.1234C10.196 16.0914 10.1799 16.0625 10.2088 16.0143C10.703 16.2743 11.2004 16.5342 11.6946 16.7941C12.2144 17.0669 12.7343 17.3429 13.2541 17.6188C13.2927 17.6413 13.3344 17.6702 13.3825 17.6413C13.4114 17.6862 13.4467 17.7215 13.498 17.744C14.3356 18.1804 15.1731 18.6201 16.0075 19.0629C16.1166 19.1207 16.1647 19.095 16.2193 18.9923C16.5979 18.2639 16.983 17.5386 17.3649 16.8134C17.3938 16.762 17.4194 16.7075 17.4098 16.6465C17.5157 16.6273 17.5221 16.5278 17.5606 16.4572C18.2217 15.196 18.8795 13.9349 19.5374 12.6738C19.5566 12.6385 19.5759 12.6064 19.6112 12.5454C19.7877 12.8759 19.9513 13.1808 20.1118 13.4889C20.6349 14.4901 21.1579 15.4913 21.681 16.4925C21.7131 16.5535 21.7195 16.6369 21.8126 16.6497C21.8029 16.7332 21.8479 16.8005 21.8832 16.8679C22.2554 17.5771 22.6341 18.2831 23.0031 18.9955C23.0673 19.1174 23.1283 19.111 23.2309 19.0565C23.8118 18.7484 24.399 18.4468 24.9798 18.1387C25.2719 17.9847 25.5639 17.821 25.8559 17.6638C26.1158 17.5322 26.379 17.4006 26.6389 17.2691C26.7031 17.237 26.7705 17.2113 26.8347 17.1824C26.8347 18.1259 26.8186 19.0661 26.8475 20.0096C26.8635 20.5358 26.4271 21.0525 25.8014 21.0493C21.0777 21.0364 16.3508 21.0429 11.6272 21.0429L11.6304 21.0396ZM20.5611 18.9153C20.5611 18.5366 20.4872 18.2478 20.3107 17.9943C19.9995 17.5482 19.4989 17.452 19.1427 17.7568C18.61 18.2189 18.5073 19.1078 18.918 19.6822C19.2839 20.1957 19.7941 20.2342 20.2241 19.7785C20.4712 19.5154 20.5418 19.188 20.5578 18.9121L20.5611 18.9153Z" fill="#F8CD69"/>
<path d="M11.6304 21.0397C16.354 21.0397 21.0809 21.0333 25.8045 21.0461C26.4303 21.0461 26.8667 20.5295 26.8507 20.0064C26.8218 19.0661 26.841 18.1227 26.8378 17.1793C27.5342 16.8102 28.2338 16.438 28.9301 16.0689C28.9526 16.0561 28.9782 16.0561 29.0039 16.0497C28.9911 16.3224 28.882 16.576 28.805 16.8391C28.2723 18.7196 27.7332 20.6001 27.194 22.4805C27.1812 22.5255 27.1652 22.5672 27.1523 22.6121C26.841 22.6121 26.5266 22.6121 26.2153 22.6121C21.5013 22.6121 16.7904 22.6121 12.0764 22.6121C11.9288 22.089 11.778 21.566 11.6304 21.0429V21.0397Z" fill="#F6C144"/>
<path d="M26.2152 22.6089C26.5265 22.6089 26.841 22.6089 27.1523 22.6089C27.1523 23.1897 27.1523 23.7737 27.1587 24.3546C27.1587 24.4701 27.1202 24.5086 27.0111 24.4925C26.979 24.4893 26.9469 24.4925 26.9116 24.4925C22.0435 24.4925 17.1787 24.4925 12.3106 24.4958C12.1245 24.4958 12.0411 24.4669 12.0603 24.2551C12.0828 24.0208 12.07 23.7834 12.07 23.5491C16.5176 23.5491 20.9653 23.5491 25.413 23.5491C25.4708 23.5491 25.5317 23.5491 25.5895 23.5491C25.8783 23.5427 26.0933 23.3726 26.1799 23.0934C26.2313 22.933 26.1928 22.7693 26.2056 22.6057L26.2152 22.6089Z" fill="#F2A23A"/>
<path d="M17.413 16.6434C17.4227 16.7043 17.397 16.7589 17.3681 16.8102C16.9862 17.5355 16.6012 18.2607 16.2225 18.9891C16.1679 19.0918 16.1198 19.1175 16.0107 19.0597C15.1764 18.6169 14.3388 18.1805 13.5013 17.7408C13.4531 17.7152 13.4178 17.6799 13.3857 17.6382C13.6746 16.0657 13.9666 14.4933 14.265 12.8632C14.4511 13.0814 14.602 13.2611 14.7528 13.444C15.6385 14.5094 16.5241 15.578 17.413 16.6434Z" fill="#F6C144"/>
<path d="M25.8589 17.6606C25.5669 17.8178 25.2781 17.9815 24.9829 18.1355C24.4021 18.4436 23.8148 18.7452 23.234 19.0533C23.1281 19.1078 23.0703 19.1143 23.0061 18.9923C22.6371 18.2799 22.2617 17.5739 21.8862 16.8647C21.8509 16.7974 21.8028 16.73 21.8156 16.6465C22.5665 15.7416 23.3206 14.8334 24.0747 13.9285C24.3571 13.5883 24.6427 13.2482 24.9572 12.8727C25.2653 14.4997 25.5637 16.0817 25.8589 17.6638V17.6606Z" fill="#F6C144"/>
<path d="M26.2153 22.6089C26.2024 22.7693 26.2409 22.933 26.1896 23.0966C26.1029 23.3758 25.8847 23.5459 25.5991 23.5523C25.5414 23.5523 25.4804 23.5523 25.4226 23.5523C20.9749 23.5523 16.5273 23.5523 12.0796 23.5523C12.0796 23.2378 12.0796 22.9233 12.0796 22.6057C16.7936 22.6057 21.5044 22.6057 26.2185 22.6057L26.2153 22.6089Z" fill="#F4B461"/>
<path d="M29.0071 16.0494C29.0071 16.0494 29.0134 16.0399 29.0165 16.0336C29.0134 16.0368 29.0071 16.0431 29.0039 16.0462V16.0494H29.0071Z" fill="#F6C144"/>
<path d="M20.5612 18.9153C20.5452 19.1913 20.4746 19.5186 20.2275 19.7817C19.7975 20.2374 19.2872 20.1957 18.9214 19.6855C18.5074 19.1078 18.6133 18.2222 19.146 17.7601C19.499 17.4552 19.9996 17.5515 20.3141 17.9975C20.4906 18.251 20.5644 18.5399 20.5644 18.9185L20.5612 18.9153Z" fill="#F2A23A"/>
</svg>
