<svg width="40" height="38" viewBox="0 0 40 38" fill="none" xmlns="http://www.w3.org/2000/svg">
<path d="M20.2612 34.6589C11.7122 34.6589 4.81793 27.7401 4.85464 19.1361C4.88828 10.6024 11.8651 3.78769 20.3529 3.81828C28.7979 3.84887 35.6891 10.7584 35.686 19.2462C35.683 27.7646 28.7826 34.6589 20.2642 34.6589H20.2612ZM9.29277 26.3393C9.3203 26.3913 9.34171 26.4463 9.37535 26.4953C10.0636 27.5322 10.8833 28.4559 11.8406 29.245C14.6974 31.5941 17.9825 32.6248 21.6651 32.2394C24.9746 31.8938 27.7518 30.444 29.9969 27.9818C31.0338 26.844 31.8321 25.5532 32.4102 24.1279C33.1779 22.2376 33.4624 20.2739 33.3156 18.243C33.2238 16.9339 32.9363 15.6706 32.4561 14.4533C31.5691 12.199 30.1498 10.3424 28.2443 8.85285C27.914 8.59592 27.5836 8.33288 27.1952 8.16159C27.1279 8.10959 27.0667 8.04842 26.9933 8.0056C26.5712 7.77008 26.146 7.53151 25.7025 7.32963C23.3994 6.28968 20.9922 5.9257 18.4933 6.27439C15.3734 6.71178 12.7399 8.10042 10.6019 10.4219C9.65981 11.4435 8.91044 12.5936 8.33846 13.8599C7.42392 15.8878 7.05688 18.0166 7.21899 20.2311C7.32604 21.6809 7.66556 23.0818 8.24976 24.4215C8.5434 25.0913 8.8615 25.7459 9.29583 26.3362L9.29277 26.3393Z" fill="#383331"/>
<path d="M9.29273 26.3393C8.85534 25.7489 8.53724 25.0944 8.24666 24.4245C7.66246 23.0879 7.32295 21.687 7.21589 20.2342C7.05378 18.0197 7.42082 15.8909 8.33537 13.863C8.90734 12.5936 9.65671 11.4466 10.5988 10.425C12.7368 8.10348 15.3673 6.71484 18.4902 6.27745C20.9921 5.92876 23.3963 6.29274 25.6994 7.33269C26.1429 7.53456 26.565 7.77314 26.9902 8.00866C27.0636 8.04842 27.1248 8.11265 27.1921 8.16465C27.5132 8.75192 27.8466 9.33 28.1066 9.95092C28.2718 10.3485 28.4522 10.7462 28.5348 11.1744C28.4492 11.0918 28.3635 11.0123 28.2779 10.9297C27.4092 10.0763 26.4335 9.36671 25.3416 8.82532C23.1791 7.75479 20.8943 7.37551 18.5054 7.73032C15.2847 8.21053 12.7031 9.78881 10.7915 12.4193C9.1245 14.7163 8.4363 17.304 8.65653 20.1302C8.79111 21.8491 9.30497 23.4488 10.1645 24.9415C10.351 25.2657 10.5315 25.596 10.7915 25.8682C10.8037 25.8805 10.819 25.8927 10.8312 25.9049L10.8374 25.9202L10.8282 25.9049C10.8282 25.9049 10.8037 25.8774 10.7915 25.8652C10.7731 25.7184 10.6875 25.596 10.6263 25.4676C9.48849 23.091 9.19179 20.6043 9.73012 18.0319C10.2746 15.4321 11.5837 13.2726 13.6269 11.5751C16.0555 9.55329 18.8694 8.68768 22.0107 8.92626C23.693 9.05472 25.2712 9.55023 26.7333 10.3944C27.4674 10.8196 28.1739 11.2876 28.7734 11.8962C28.7826 11.9421 28.7887 11.9849 28.8009 12.0308C29.1496 13.4409 29.2444 14.8693 29.116 16.316C29.0181 17.4324 28.7734 18.5213 28.388 19.5766C27.8099 21.164 26.9596 22.5924 25.831 23.8434C24.6901 25.1066 23.3596 26.1313 21.8149 26.8807C19.4995 28.0062 17.0618 28.3978 14.5139 28.1102C12.7276 27.9084 11.0576 27.3425 9.50378 26.4341C9.43649 26.3943 9.36002 26.3699 9.28661 26.3393H9.29273Z" fill="#ADA7A6"/>
<path d="M28.5381 11.1683C28.4555 10.7401 28.2781 10.3455 28.1099 9.9448C27.8499 9.32695 27.5165 8.7458 27.1954 8.15854C27.5838 8.32982 27.9142 8.59287 28.2445 8.8498C30.15 10.3363 31.5693 12.1929 32.4563 14.4502C32.9365 15.6676 33.224 16.9308 33.3158 18.2399C33.4626 20.2739 33.1781 22.2376 32.4104 24.1248C31.8323 25.5501 31.034 26.8378 29.9971 27.9787C27.7551 30.444 24.9748 31.8908 21.6653 32.2364C17.9827 32.6218 14.7007 31.591 11.8408 29.242C10.8835 28.4559 10.0638 27.5291 9.37555 26.4922C9.34191 26.4433 9.3205 26.3882 9.29297 26.3362C9.36638 26.3668 9.44284 26.3913 9.51013 26.431C11.0609 27.3425 12.734 27.9053 14.5202 28.1072C17.0681 28.3978 19.5059 28.0032 21.8213 26.8776C23.3629 26.1282 24.6934 25.1066 25.8373 23.8403C26.966 22.5893 27.8163 21.1609 28.3944 19.5735C28.7798 18.5152 29.0245 17.4294 29.1223 16.313C29.2508 14.8693 29.156 13.4378 28.8073 12.0278C28.7951 11.9849 28.7889 11.9391 28.7798 11.8932C29.0581 12.0859 29.2661 12.3489 29.5077 12.5814C29.6301 12.6976 29.7096 12.8597 29.8686 12.9362C29.8839 12.9821 29.9084 13.0218 29.9543 13.0463C29.9573 13.0494 29.9635 13.0524 29.9665 13.0555C29.9635 13.0524 29.9604 13.0463 29.9573 13.0432C29.9329 13.0035 29.9084 12.9607 29.8839 12.9209C29.8411 12.8475 29.8014 12.771 29.7555 12.7007C29.4007 12.147 28.9725 11.6546 28.5381 11.1622V11.1683Z" fill="#96908F"/>
<path d="M28.5378 11.1683C28.9722 11.6607 29.4004 12.1562 29.7552 12.7068C29.8011 12.7802 29.8408 12.8536 29.8837 12.927C29.8775 12.9331 29.8714 12.9362 29.8684 12.9423C29.7093 12.8628 29.6267 12.7037 29.5074 12.5875C29.2658 12.355 29.0609 12.0889 28.7795 11.8993C28.18 11.2906 27.4734 10.8226 26.7393 10.3975C25.2773 9.55023 23.696 9.05472 22.0168 8.92932C18.8724 8.6938 16.0585 9.55634 13.6329 11.5781C11.5928 13.2757 10.2806 15.4351 9.73619 18.035C9.19786 20.6073 9.49149 23.091 10.6324 25.4706C10.6936 25.5991 10.7792 25.7214 10.7975 25.8682C10.5376 25.596 10.3571 25.2626 10.1705 24.9415C9.31103 23.4519 8.79717 21.8491 8.66259 20.1302C8.44237 17.3009 9.12751 14.7133 10.7975 12.4193C12.7062 9.7888 15.2907 8.21053 18.5115 7.73032C20.9003 7.37551 23.1852 7.75173 25.3476 8.82532C26.4396 9.36671 27.4153 10.0733 28.284 10.9297C28.3696 11.0123 28.4553 11.0918 28.5409 11.1744V11.1683H28.5378Z" fill="#5E5756"/>
<path d="M11.3208 25.1525L11.3308 25.1687L11.3241 25.1525H11.3208Z" fill="#B69942"/>
<path d="M11.2809 25.1097C11.2809 25.1097 11.3084 25.1403 11.3207 25.1525C11.3207 25.1525 11.2901 25.125 11.2778 25.1127V25.1097H11.2809Z" fill="#B69942"/>
<path d="M21.788 15.7243C21.8177 15.769 21.8207 15.8255 21.8326 15.8732C21.8743 16.0311 21.9399 16.18 22.0024 16.3289C22.0501 16.4451 22.1067 16.5613 22.1811 16.6625C22.2794 16.7936 22.3747 16.9306 22.4849 17.0527C22.6428 17.2314 22.8185 17.3863 23.0092 17.5263C23.1194 17.6067 23.2385 17.6752 23.3606 17.7378C23.4887 17.8033 23.6228 17.8569 23.7538 17.9135C23.8104 17.9374 23.87 17.9582 23.9355 17.9701C24.004 17.985 24.0725 18.0029 24.141 18.0237C24.1857 18.0386 24.2304 18.0446 24.2751 18.0416C24.5312 18.1042 24.7933 18.0893 25.0525 18.0773C25.1835 18.0714 25.3146 18.0416 25.4427 18.0178C25.5588 17.9939 25.672 17.9612 25.7852 17.9254C25.9192 17.8808 26.0473 17.8182 26.1754 17.7586C26.2707 17.714 26.363 17.6663 26.4494 17.6097C26.6669 17.4638 26.8664 17.297 27.0481 17.1093C27.06 17.0974 27.0749 17.0795 27.069 17.0557C27.2298 17.2016 27.3847 17.3595 27.5872 17.4489C27.6677 17.4846 27.7391 17.5323 27.8255 17.5531C27.9387 17.5799 28.0489 17.6157 28.1651 17.6395C28.3378 17.6752 28.5106 17.6633 28.6804 17.6544C28.8204 17.6455 28.8174 17.6306 28.8263 17.7676C28.8263 17.7676 28.8263 17.7735 28.8263 17.7765C28.8442 17.9433 28.7965 18.1042 28.7757 18.265C28.7578 18.4169 28.7399 18.5688 28.7042 18.7177C28.6625 18.8845 28.6536 19.0573 28.6029 19.2241C28.5791 19.3045 28.5642 19.3968 28.5523 19.4862C28.5434 19.5756 28.5106 19.6619 28.4897 19.7513C28.4749 19.8168 28.46 19.8853 28.4451 19.9509C28.4302 20.0223 28.4093 20.0998 28.3944 20.1713C28.3825 20.2338 28.3736 20.3053 28.3349 20.3649C28.317 20.3917 28.3259 20.4185 28.3229 20.4483C28.3051 20.4691 28.2842 20.49 28.2902 20.5227C28.2783 20.5376 28.2812 20.5555 28.2812 20.5734C28.2634 20.6061 28.2366 20.633 28.2455 20.6776C28.2425 20.7461 28.2038 20.8057 28.1859 20.8712C28.1591 20.9755 28.1234 21.0768 28.0876 21.178C28.0489 21.2912 28.0072 21.4044 27.9655 21.5146C27.9208 21.6278 27.8672 21.741 27.8196 21.8542C27.7421 22.0359 27.6528 22.2116 27.5604 22.3873C27.4919 22.5154 27.4234 22.6435 27.343 22.7656C27.3102 22.7656 27.2775 22.7597 27.2417 22.7597C24.981 22.7597 22.7173 22.7597 20.4565 22.7597C20.4565 20.6359 20.4565 18.5092 20.4565 16.3855C20.4565 16.3289 20.4565 16.2723 20.4565 16.2157C20.5965 16.2038 20.7365 16.2336 20.8735 16.1711C20.9599 16.1323 21.0642 16.1353 21.1565 16.0877C21.2548 16.037 21.3531 15.9923 21.4484 15.9358C21.5378 15.8851 21.6152 15.8226 21.6926 15.757C21.7224 15.7332 21.7552 15.7213 21.7909 15.7392L21.788 15.7243Z" fill="#FEBF2E"/>
<path d="M20.456 22.7447C22.7168 22.7447 24.9805 22.7447 27.2412 22.7447C27.274 22.7447 27.3067 22.7477 27.3425 22.7507C27.3306 22.8371 27.3335 22.9264 27.3335 23.0128C27.3335 23.4834 27.3335 23.954 27.3335 24.4217C27.3335 24.5319 27.3335 24.6421 27.2799 24.7434C27.2174 24.8655 27.125 24.9608 26.9999 25.0233C26.8748 25.0859 26.7408 25.0978 26.6008 25.0978C25.7072 25.0978 24.8137 25.0919 23.9201 25.0978C23.6997 25.0978 23.4822 25.1008 23.2618 25.1097C23.232 25.0829 23.1933 25.0948 23.1576 25.0948C22.3147 25.0948 21.4717 25.1008 20.6288 25.0948C19.5714 25.0859 18.514 25.0948 17.4566 25.0889C16.4915 25.0889 15.5295 25.0889 14.5644 25.0889C14.5316 25.0889 14.4989 25.0919 14.4631 25.0948C14.3768 25.0799 14.2874 25.0919 14.201 25.0859C14.1534 25.0859 14.1027 25.0859 14.061 25.0531C14.0938 25.0531 14.1295 25.0531 14.1623 25.0531C16.2175 25.0531 18.2757 25.0531 20.3309 25.0531C20.4123 25.0531 20.453 25.0114 20.453 24.928C20.453 24.1983 20.453 23.4715 20.453 22.7418L20.456 22.7447Z" fill="#FEA63B"/>
<path d="M28.8234 17.7676C28.8234 17.7676 28.8234 17.7616 28.8234 17.7586C28.8144 17.6216 28.8174 17.6365 28.6774 17.6455C28.5077 17.6544 28.3349 17.6663 28.1621 17.6306C28.046 17.6067 27.9358 17.574 27.8226 17.5442C27.7392 17.5233 27.6647 17.4757 27.5843 17.4399C27.3788 17.3506 27.2269 17.1927 27.066 17.0468C27.0094 16.9783 26.9528 16.9127 26.8962 16.8442C26.8903 16.7906 26.8605 16.7549 26.8188 16.7221C26.7801 16.6268 26.7265 16.5374 26.6937 16.4391C26.6431 16.2932 26.5924 16.1472 26.5835 15.9894C26.5835 15.8494 26.5835 15.7094 26.5835 15.5724C26.5984 15.3817 26.658 15.203 26.7324 15.0243C26.8456 14.7533 27.0184 14.5269 27.2388 14.3392C27.3669 14.232 27.5069 14.1427 27.6558 14.0652C27.6885 14.0712 27.7124 14.0563 27.7302 14.0295C27.7451 14.0295 27.76 14.0235 27.7779 14.0205C27.8136 14.0295 27.8315 14.0027 27.8553 13.9848C27.9268 13.9699 27.9983 13.9491 28.0698 13.9371C28.323 13.8895 28.5762 13.8895 28.8293 13.9371C29.0229 13.9729 29.2046 14.0444 29.3744 14.1427C29.6872 14.3214 29.9255 14.5716 30.0982 14.8843C30.125 14.929 30.1459 14.9796 30.1697 15.0243C30.1667 15.0601 30.1727 15.0898 30.2084 15.1047C30.2084 15.1196 30.2114 15.1345 30.2144 15.1494C30.2025 15.1822 30.2293 15.2001 30.2442 15.2209C30.2531 15.3162 30.2859 15.4086 30.3008 15.5068C30.3276 15.6885 30.3305 15.8673 30.3008 16.0489C30.2859 16.1383 30.262 16.2247 30.2442 16.3111C30.2233 16.4123 30.1756 16.5076 30.131 16.6C30.0416 16.7757 29.9374 16.9425 29.7884 17.0795C29.6216 17.2344 29.4548 17.3863 29.2404 17.4727C29.148 17.5084 29.0617 17.5561 28.9664 17.577C28.9098 17.5889 28.8502 17.6067 28.8561 17.6872C28.8561 17.714 28.8502 17.7438 28.8234 17.7616V17.7676Z" fill="#FEA63B"/>
<path d="M28.2454 20.662C28.2365 20.6206 28.2632 20.591 28.2809 20.5585C28.2957 20.6029 28.2927 20.6383 28.2454 20.662Z" fill="#772A0C"/>
<path d="M28.2896 20.5103C28.2837 20.4778 28.3044 20.4571 28.3221 20.4364C28.3221 20.4659 28.334 20.4985 28.2896 20.5103Z" fill="#772A0C"/>
<path d="M20.4533 16.1979C20.4533 16.2544 20.4533 16.311 20.4533 16.3676C20.4533 18.4914 20.4533 20.618 20.4533 22.7418C20.4116 22.7418 20.3699 22.7418 20.3282 22.7418C18.127 22.7418 15.9288 22.7418 13.7277 22.7418C13.68 22.7418 13.6353 22.7418 13.5877 22.7447C13.5221 22.715 13.5102 22.6465 13.4804 22.5958C13.3524 22.3814 13.2422 22.158 13.1349 21.9316C13.0515 21.7559 12.9622 21.5801 12.9086 21.3925C12.8549 21.2108 12.7835 21.035 12.7328 20.8534C12.6703 20.6359 12.6077 20.4215 12.5452 20.204C12.4767 19.9657 12.4231 19.7245 12.3694 19.4862C12.3486 19.3968 12.3307 19.3075 12.3188 19.2151C12.3069 19.1198 12.2771 19.0275 12.2563 18.9322C12.2384 18.8458 12.2324 18.7594 12.2146 18.673C12.1937 18.5688 12.1788 18.4616 12.1609 18.3543C12.1401 18.2143 12.1312 18.0744 12.0984 17.9373C12.0805 17.8688 12.0895 17.7944 12.0835 17.7199C12.0984 17.6037 12.0984 17.6037 12.2116 17.6365C12.2384 17.6454 12.2682 17.6454 12.295 17.6454C12.5243 17.6484 12.7507 17.6484 12.9741 17.5769C13.1617 17.5174 13.3345 17.4369 13.5013 17.3357C13.6264 17.2582 13.7217 17.151 13.8289 17.0587C14.0583 17.3267 14.3383 17.5382 14.6421 17.7139C14.8 17.8033 14.9668 17.8778 15.1455 17.9284C15.1782 17.9373 15.208 17.9612 15.2438 17.9612C15.2438 17.9761 15.2497 17.991 15.2616 17.991C15.345 17.9999 15.4195 18.0475 15.5059 18.0327C15.6459 18.0327 15.7829 18.0803 15.9259 18.0803C16.1135 18.0803 16.3041 18.0922 16.4888 18.0654C16.6496 18.0446 16.8135 18.0327 16.9624 17.9641C16.9832 17.9552 17.0071 17.9582 17.0309 17.9552C17.0369 17.9552 17.0458 17.9582 17.0547 17.9552C17.1739 17.9284 17.2811 17.8718 17.3943 17.8301C17.4002 17.8301 17.4002 17.8122 17.4032 17.8033C17.4032 17.8033 17.4062 17.8003 17.4092 17.7973C17.4479 17.8093 17.4717 17.7765 17.4956 17.7616C17.5611 17.7229 17.6385 17.708 17.6892 17.6454C17.6951 17.6454 17.6981 17.6454 17.7041 17.6454C17.7517 17.6305 17.7904 17.6037 17.8262 17.568C17.9513 17.4965 18.0615 17.4012 18.1687 17.3029C18.2998 17.1778 18.4338 17.0557 18.547 16.9127C18.6363 16.7995 18.7138 16.6774 18.7912 16.5523C18.8806 16.4034 18.9461 16.2425 19.0176 16.0847C19.0265 16.0668 19.0265 16.0459 19.0325 16.0251C19.0802 16.0191 19.0712 15.9864 19.0653 15.9566C19.0682 15.9387 19.0712 15.9208 19.0742 15.903C19.1189 15.8851 19.107 15.8464 19.104 15.8136C19.104 15.7898 19.107 15.7689 19.1099 15.7451C19.1695 15.6677 19.2142 15.7183 19.2529 15.766C19.2767 15.7987 19.3155 15.7987 19.3423 15.8226C19.4912 15.9596 19.6788 16.034 19.8635 16.1025C20.0512 16.171 20.2507 16.2038 20.4533 16.1889V16.1979Z" fill="#FEF67F"/>
<path d="M13.8319 17.0676C13.7217 17.1599 13.6263 17.2671 13.5042 17.3446C13.3374 17.4459 13.1647 17.5263 12.977 17.5859C12.7536 17.6603 12.5273 17.6573 12.2979 17.6544C12.2711 17.6544 12.2413 17.6544 12.2145 17.6454C12.1043 17.6097 12.1013 17.6097 12.0864 17.7288C12.0596 17.7199 12.0626 17.6961 12.0626 17.6782C12.0566 17.6216 12.0179 17.5978 11.9703 17.5888C11.6158 17.5054 11.3269 17.3118 11.0826 17.0497C10.9575 16.9157 10.8593 16.7608 10.7729 16.597C10.6895 16.4391 10.6597 16.2693 10.618 16.0995C10.5822 15.9596 10.5882 15.8166 10.5912 15.6766C10.5971 15.474 10.6537 15.2804 10.7282 15.0898C10.7967 14.9111 10.8861 14.7443 11.0112 14.6013C11.2286 14.3481 11.4877 14.1575 11.8005 14.0324C12.1103 13.9073 12.429 13.8984 12.7506 13.9311C12.9323 13.949 13.1081 14.0175 13.2779 14.1009C13.5072 14.2141 13.7068 14.3571 13.8736 14.5477C14.0225 14.7175 14.1416 14.9051 14.2191 15.1196C14.2489 15.203 14.2816 15.2864 14.2906 15.3758C14.2906 15.3996 14.2995 15.4234 14.3263 15.4323C14.3263 15.4502 14.3263 15.4711 14.3263 15.4889C14.3263 15.6855 14.3263 15.8821 14.3263 16.0787C14.2608 16.4004 14.1387 16.6953 13.9361 16.9574C13.9034 16.9991 13.8557 17.0259 13.8319 17.0735V17.0676Z" fill="#FEBF2E"/>
<path d="M21.7875 15.7243C21.7488 15.7064 21.719 15.7183 21.6892 15.7421C21.6118 15.8077 21.5343 15.8702 21.445 15.9209C21.3497 15.9774 21.2514 16.0221 21.1531 16.0728C21.0637 16.1204 20.9595 16.1174 20.8701 16.1562C20.7331 16.2157 20.5931 16.1859 20.4531 16.2008C20.4531 16.1591 20.4531 16.1174 20.4531 16.0757C20.4531 14.8694 20.4531 13.6661 20.4531 12.4598C20.6318 12.4449 20.8016 12.4776 20.9744 12.5283C21.1829 12.5878 21.3705 12.6802 21.5463 12.8023C21.7369 12.9304 21.8888 13.0972 22.0169 13.2818C22.1092 13.4159 22.1747 13.5678 22.2284 13.7227C22.3088 13.955 22.3535 14.1903 22.3386 14.4346C22.3326 14.5567 22.2969 14.6728 22.273 14.795C22.2522 14.8903 22.2194 14.9796 22.1837 15.069C22.136 15.1822 22.0764 15.2924 22.0079 15.3937C21.9454 15.489 21.8679 15.5694 21.7935 15.6528C21.7697 15.6796 21.7756 15.7004 21.7816 15.7272L21.7875 15.7243Z" fill="#FEA63B"/>
<path d="M20.4561 12.4597C20.4561 13.6661 20.4561 14.8694 20.4561 16.0757C20.4561 16.1174 20.4561 16.1591 20.4561 16.2008C20.2536 16.2157 20.054 16.183 19.8664 16.1145C19.6817 16.0489 19.4941 15.9715 19.3451 15.8345C19.3183 15.8106 19.2796 15.8077 19.2558 15.7779C19.22 15.7302 19.1724 15.6796 19.1128 15.757C19.1456 15.6736 19.092 15.6289 19.0413 15.5694C18.8835 15.3787 18.7524 15.1702 18.6779 14.929C18.6064 14.6967 18.5588 14.4613 18.5796 14.2171C18.6005 14.0056 18.6333 13.7941 18.7226 13.6005C18.8537 13.3176 19.0324 13.0733 19.2796 12.8767C19.4643 12.7278 19.6668 12.6176 19.8902 12.5491C20.0719 12.4925 20.2595 12.4449 20.4561 12.4657V12.4597Z" fill="#FEBF2E"/>
<path d="M17.4094 17.8152C17.4094 17.8152 17.4065 17.839 17.4005 17.842C17.2873 17.8837 17.1801 17.9403 17.0609 17.9671C17.055 17.9671 17.046 17.9671 17.0371 17.9671C17.1563 17.9075 17.2784 17.8509 17.4065 17.8182L17.4094 17.8152Z" fill="#FEF67F"/>
<path d="M15.5116 18.0416C15.4252 18.0565 15.3478 18.0088 15.2674 17.9999C15.2555 17.9999 15.2495 17.982 15.2495 17.9701C15.3389 17.988 15.4312 17.9999 15.5116 18.0416Z" fill="#FEF67F"/>
<path d="M19.1035 15.8225C19.1035 15.8551 19.1183 15.8935 19.074 15.9112C19.0592 15.8728 19.0828 15.8491 19.1035 15.8225Z" fill="#FEA63B"/>
<path d="M19.0619 15.9655C19.0678 15.9951 19.0797 16.0276 19.0294 16.0335C19.0265 16.004 19.0235 15.9744 19.0619 15.9655Z" fill="#FEA63B"/>
<path d="M13.5908 22.7507C13.6385 22.7507 13.6832 22.7477 13.7308 22.7477C15.932 22.7477 18.1302 22.7477 20.3313 22.7477C20.373 22.7477 20.4147 22.7477 20.4564 22.7477C20.4564 23.4775 20.4564 24.2042 20.4564 24.934C20.4564 25.0174 20.4157 25.0591 20.3343 25.0591C18.2791 25.0591 16.2209 25.0591 14.1657 25.0591C14.1329 25.0591 14.0972 25.0591 14.0644 25.0591C14.0495 25.0591 14.0316 25.0591 14.0168 25.0561C14.0048 25.0233 13.9751 25.0263 13.9453 25.0263C13.7963 24.9727 13.6951 24.8685 13.6325 24.7255C13.6117 24.6748 13.5908 24.6212 13.5908 24.5617C13.5908 23.957 13.5908 23.3553 13.5908 22.7507Z" fill="#FEBF2E"/>
<path d="M13.9448 25.0234C13.9714 25.0234 14.001 25.0204 14.0158 25.0529C13.9862 25.0559 13.9596 25.0559 13.9448 25.0234Z" fill="#FEA63B"/>
</svg>
