<svg width="40" height="38" viewBox="0 0 40 38" fill="none" xmlns="http://www.w3.org/2000/svg">
<path d="M19.5253 34.1692C10.9763 34.1692 4.08209 27.2505 4.1188 18.6464C4.15244 10.1127 11.1293 3.29801 19.6171 3.32859C28.0621 3.35918 34.9533 10.2687 34.9502 18.7565C34.9471 27.2749 28.0468 34.1692 19.5284 34.1692H19.5253ZM8.55693 25.8496C8.58446 25.9016 8.60587 25.9566 8.63951 26.0056C9.32771 27.0425 10.1474 27.9662 11.1048 28.7553C13.9616 31.1044 17.2466 32.1352 20.9293 31.7498C24.2387 31.4041 27.016 29.9543 29.2611 27.4921C30.298 26.3543 31.0963 25.0635 31.6744 23.6382C32.4421 21.7479 32.7265 19.7842 32.5797 17.7533C32.488 16.4442 32.2005 15.1809 31.7202 13.9636C30.8332 11.7094 29.414 9.85274 27.5085 8.36317C27.1781 8.10624 26.8478 7.84319 26.4593 7.67191C26.392 7.61991 26.3309 7.55874 26.2575 7.51591C25.8354 7.2804 25.4102 7.04182 24.9667 6.83995C22.6635 5.8 20.2563 5.43602 17.7574 5.78471C14.6376 6.2221 12.0041 7.61073 9.86604 9.93226C8.92397 10.9539 8.1746 12.1039 7.60262 13.3702C6.68808 15.3981 6.32104 17.5269 6.48315 19.7414C6.5902 21.1912 6.92972 22.5921 7.51392 23.9318C7.80756 24.6016 8.12566 25.2562 8.55999 25.8465L8.55693 25.8496Z" fill="#383331"/>
<path d="M8.55689 25.8496C8.1195 25.2593 7.8014 24.6047 7.51083 23.9349C6.92662 22.5982 6.58711 21.1973 6.48005 19.7445C6.31794 17.53 6.68498 15.4012 7.59953 13.3733C8.1715 12.1039 8.92087 10.9569 9.86294 9.93532C12.001 7.61379 14.6314 6.22516 17.7543 5.78777C20.2563 5.43908 22.6604 5.80306 24.9636 6.84301C25.4071 7.04488 25.8292 7.28346 26.2544 7.51897C26.3278 7.55874 26.3889 7.62297 26.4562 7.67497C26.7774 8.26223 27.1108 8.84032 27.3708 9.46123C27.5359 9.85886 27.7164 10.2565 27.799 10.6847C27.7133 10.6021 27.6277 10.5226 27.5421 10.44C26.6734 9.58664 25.6977 8.87702 24.6057 8.33564C22.4433 7.2651 20.1584 6.88583 17.7696 7.24063C14.5488 7.72085 11.9673 9.29912 10.0556 11.9296C8.38866 14.2266 7.70046 16.8143 7.92069 19.6405C8.05527 21.3595 8.56913 22.9591 9.42861 24.4518C9.61519 24.776 9.79565 25.1063 10.0556 25.3786C10.0679 25.3908 10.0832 25.403 10.0954 25.4153L10.1015 25.4305L10.0923 25.4153C10.0923 25.4153 10.0679 25.3877 10.0556 25.3755C10.0373 25.2287 9.95164 25.1063 9.89047 24.9779C8.75265 22.6013 8.45595 20.1146 8.99428 17.5422C9.53872 14.9424 10.8478 12.7829 12.891 11.0854C15.3196 9.0636 18.1336 8.198 21.2748 8.43658C22.9571 8.56504 24.5354 9.06054 25.9974 9.90474C26.7315 10.3299 27.4381 10.7979 28.0376 11.4065C28.0467 11.4524 28.0529 11.4952 28.0651 11.5411C28.4138 12.9512 28.5086 14.3796 28.3801 15.8263C28.2823 16.9427 28.0376 18.0316 27.6522 19.0869C27.0741 20.6743 26.2238 22.1027 25.0951 23.3537C23.9542 24.6169 22.6237 25.6416 21.0791 26.391C18.7637 27.5166 16.3259 27.9081 13.778 27.6206C11.9918 27.4187 10.3217 26.8528 8.76794 25.9444C8.70065 25.9046 8.62418 25.8802 8.55077 25.8496H8.55689Z" fill="#ADA7A6"/>
<path d="M27.8023 10.6786C27.7197 10.2504 27.5423 9.8558 27.3741 9.45512C27.1141 8.83727 26.7807 8.25612 26.4595 7.66885C26.848 7.84014 27.1783 8.10319 27.5087 8.36011C29.4142 9.84663 30.8334 11.7032 31.7204 13.9605C32.2007 15.1779 32.4882 16.4411 32.5799 17.7502C32.7267 19.7842 32.4423 21.7479 31.6746 23.6351C31.0965 25.0605 30.2982 26.3482 29.2613 27.489C27.0193 29.9543 24.2389 31.4011 20.9295 31.7467C17.2468 32.1321 13.9649 31.1013 11.105 28.7523C10.1476 27.9662 9.32791 27.0394 8.63971 26.0025C8.60607 25.9536 8.58466 25.8985 8.55713 25.8465C8.63054 25.8771 8.707 25.9016 8.77429 25.9414C10.325 26.8528 11.9981 27.4156 13.7844 27.6175C16.3323 27.9081 18.77 27.5135 21.0854 26.3879C22.627 25.6385 23.9575 24.6169 25.1015 23.3507C26.2301 22.0997 27.0804 20.6713 27.6585 19.0838C28.0439 18.0255 28.2886 16.9397 28.3865 15.8233C28.515 14.3796 28.4201 12.9481 28.0714 11.5381C28.0592 11.4953 28.0531 11.4494 28.0439 11.4035C28.3223 11.5962 28.5303 11.8592 28.7719 12.0917C28.8942 12.2079 28.9738 12.37 29.1328 12.4465C29.1481 12.4924 29.1726 12.5321 29.2185 12.5566C29.2215 12.5597 29.2276 12.5627 29.2307 12.5658C29.2276 12.5627 29.2246 12.5566 29.2215 12.5536C29.197 12.5138 29.1726 12.471 29.1481 12.4312C29.1053 12.3578 29.0655 12.2813 29.0196 12.211C28.6648 11.6574 28.2366 11.1649 27.8023 10.6725V10.6786Z" fill="#96908F"/>
<path d="M27.802 10.6786C28.2363 11.171 28.6645 11.6665 29.0193 12.2171C29.0652 12.2905 29.105 12.3639 29.1478 12.4373C29.1417 12.4434 29.1356 12.4465 29.1325 12.4526C28.9735 12.3731 28.8909 12.214 28.7716 12.0978C28.53 11.8653 28.325 11.5992 28.0436 11.4096C27.4441 10.8009 26.7376 10.3329 26.0035 9.90779C24.5415 9.06054 22.9601 8.56504 21.2809 8.43963C18.1366 8.20411 15.3226 9.06666 12.8971 11.0884C10.857 12.786 9.54479 14.9454 9.00035 17.5453C8.46202 20.1176 8.75565 22.6013 9.89654 24.9809C9.95771 25.1094 10.0434 25.2317 10.0617 25.3786C9.80172 25.1063 9.62126 24.7729 9.43468 24.4518C8.57519 22.9622 8.06133 21.3595 7.92675 19.6405C7.70653 16.8112 8.39167 14.2236 10.0617 11.9296C11.9703 9.29912 14.5549 7.72084 17.7757 7.24063C20.1645 6.88583 22.4493 7.26204 24.6118 8.33564C25.7037 8.87702 26.6795 9.58357 27.5481 10.44C27.6338 10.5226 27.7194 10.6021 27.8051 10.6847V10.6786H27.802Z" fill="#5E5756"/>
<path d="M10.585 24.6628L10.595 24.679L10.5883 24.6628H10.585Z" fill="#B69942"/>
<path d="M10.5451 24.62C10.5451 24.62 10.5726 24.6506 10.5848 24.6628C10.5848 24.6628 10.5542 24.6353 10.542 24.6231V24.62H10.5451Z" fill="#B69942"/>
<path d="M19.5344 33.4507C27.5982 33.4507 34.1353 26.8685 34.1353 18.7488C34.1353 10.6292 27.5982 4.04694 19.5344 4.04694C11.4706 4.04694 4.93359 10.6292 4.93359 18.7488C4.93359 26.8685 11.4706 33.4507 19.5344 33.4507Z" stroke="#FBC300" stroke-opacity="0.88" stroke-width="3" stroke-miterlimit="10"/>
<path d="M21.0521 15.2346C21.0819 15.2793 21.0849 15.3359 21.0968 15.3835C21.1385 15.5414 21.204 15.6903 21.2666 15.8392C21.3142 15.9554 21.3708 16.0716 21.4453 16.1728C21.5436 16.3039 21.6389 16.4409 21.7491 16.563C21.907 16.7417 22.0827 16.8966 22.2733 17.0366C22.3835 17.117 22.5027 17.1856 22.6248 17.2481C22.7529 17.3136 22.8869 17.3672 23.018 17.4238C23.0746 17.4477 23.1341 17.4685 23.1997 17.4804C23.2682 17.4953 23.3367 17.5132 23.4052 17.534C23.4499 17.5489 23.4945 17.5549 23.5392 17.5519C23.7954 17.6145 24.0575 17.5996 24.3166 17.5877C24.4477 17.5817 24.5787 17.5519 24.7068 17.5281C24.823 17.5043 24.9362 17.4715 25.0494 17.4358C25.1834 17.3911 25.3115 17.3285 25.4396 17.269C25.5349 17.2243 25.6272 17.1766 25.7136 17.12C25.931 16.9741 26.1306 16.8073 26.3123 16.6196C26.3242 16.6077 26.3391 16.5898 26.3331 16.566C26.494 16.712 26.6489 16.8698 26.8514 16.9592C26.9318 16.9949 27.0033 17.0426 27.0897 17.0634C27.2029 17.0902 27.3131 17.126 27.4292 17.1498C27.602 17.1856 27.7748 17.1736 27.9445 17.1647C28.0845 17.1558 28.0815 17.1409 28.0905 17.2779C28.0905 17.2779 28.0905 17.2838 28.0905 17.2868C28.1084 17.4536 28.0607 17.6145 28.0398 17.7753C28.022 17.9272 28.0041 18.0791 27.9684 18.2281C27.9267 18.3949 27.9177 18.5676 27.8671 18.7344C27.8433 18.8148 27.8284 18.9072 27.8165 18.9965C27.8075 19.0859 27.7748 19.1723 27.7539 19.2616C27.739 19.3271 27.7241 19.3956 27.7092 19.4612C27.6943 19.5327 27.6735 19.6101 27.6586 19.6816C27.6467 19.7441 27.6377 19.8156 27.599 19.8752C27.5811 19.902 27.5901 19.9288 27.5871 19.9586C27.5692 19.9794 27.5484 20.0003 27.5543 20.0331C27.5424 20.048 27.5454 20.0658 27.5454 20.0837C27.5275 20.1165 27.5007 20.1433 27.5097 20.1879C27.5067 20.2565 27.468 20.316 27.4501 20.3816C27.4233 20.4858 27.3875 20.5871 27.3518 20.6883C27.3131 20.8015 27.2714 20.9147 27.2297 21.0249C27.185 21.1381 27.1314 21.2513 27.0837 21.3645C27.0063 21.5462 26.9169 21.7219 26.8246 21.8976C26.7561 22.0257 26.6876 22.1538 26.6072 22.2759C26.5744 22.2759 26.5416 22.27 26.5059 22.27C24.2451 22.27 21.9814 22.27 19.7207 22.27C19.7207 20.1462 19.7207 18.0196 19.7207 15.8958C19.7207 15.8392 19.7207 15.7826 19.7207 15.7261C19.8607 15.7141 20.0007 15.7439 20.1377 15.6814C20.2241 15.6427 20.3283 15.6456 20.4207 15.598C20.519 15.5473 20.6173 15.5027 20.7126 15.4461C20.8019 15.3954 20.8794 15.3329 20.9568 15.2674C20.9866 15.2435 21.0194 15.2316 21.0551 15.2495L21.0521 15.2346Z" fill="#FEBF2E"/>
<path d="M19.7202 22.2551C21.9809 22.2551 24.2446 22.2551 26.5054 22.2551C26.5381 22.2551 26.5709 22.258 26.6066 22.261C26.5947 22.3474 26.5977 22.4367 26.5977 22.5231C26.5977 22.9937 26.5977 23.4644 26.5977 23.932C26.5977 24.0422 26.5977 24.1524 26.5441 24.2537C26.4815 24.3758 26.3892 24.4711 26.2641 24.5337C26.139 24.5962 26.005 24.6081 25.865 24.6081C24.9714 24.6081 24.0778 24.6022 23.1843 24.6081C22.9638 24.6081 22.7464 24.6111 22.526 24.62C22.4962 24.5932 22.4575 24.6051 22.4217 24.6051C21.5788 24.6051 20.7359 24.6111 19.8929 24.6051C18.8355 24.5962 17.7782 24.6051 16.7208 24.5992C15.7557 24.5992 14.7936 24.5992 13.8286 24.5992C13.7958 24.5992 13.763 24.6022 13.7273 24.6051C13.6409 24.5903 13.5516 24.6022 13.4652 24.5962C13.4175 24.5962 13.3669 24.5962 13.3252 24.5634C13.358 24.5634 13.3937 24.5634 13.4265 24.5634C15.4817 24.5634 17.5399 24.5634 19.5951 24.5634C19.6765 24.5634 19.7172 24.5217 19.7172 24.4383C19.7172 23.7086 19.7172 22.9818 19.7172 22.2521L19.7202 22.2551Z" fill="#FEA63B"/>
<path d="M28.0875 17.2779C28.0875 17.2779 28.0875 17.2719 28.0875 17.269C28.0786 17.1319 28.0816 17.1468 27.9416 17.1558C27.7718 17.1647 27.5991 17.1766 27.4263 17.1409C27.3101 17.1171 27.1999 17.0843 27.0867 17.0545C27.0033 17.0337 26.9289 16.986 26.8485 16.9503C26.6429 16.8609 26.491 16.703 26.3302 16.5571C26.2736 16.4886 26.217 16.423 26.1604 16.3545C26.1544 16.3009 26.1247 16.2652 26.083 16.2324C26.0442 16.1371 25.9906 16.0477 25.9579 15.9495C25.9072 15.8035 25.8566 15.6576 25.8477 15.4997C25.8477 15.3597 25.8477 15.2197 25.8477 15.0827C25.8625 14.8921 25.9221 14.7133 25.9966 14.5346C26.1098 14.2636 26.2825 14.0372 26.5029 13.8496C26.631 13.7423 26.771 13.653 26.9199 13.5755C26.9527 13.5815 26.9765 13.5666 26.9944 13.5398C27.0093 13.5398 27.0242 13.5338 27.0421 13.5309C27.0778 13.5398 27.0957 13.513 27.1195 13.4951C27.191 13.4802 27.2625 13.4594 27.334 13.4475C27.5871 13.3998 27.8403 13.3998 28.0935 13.4475C28.2871 13.4832 28.4688 13.5547 28.6386 13.653C28.9513 13.8317 29.1896 14.0819 29.3624 14.3946C29.3892 14.4393 29.41 14.49 29.4339 14.5346C29.4309 14.5704 29.4368 14.6002 29.4726 14.6151C29.4726 14.6299 29.4756 14.6448 29.4785 14.6597C29.4666 14.6925 29.4934 14.7104 29.5083 14.7312C29.5173 14.8265 29.55 14.9189 29.5649 15.0172C29.5917 15.1989 29.5947 15.3776 29.5649 15.5593C29.55 15.6486 29.5262 15.735 29.5083 15.8214C29.4875 15.9226 29.4398 16.018 29.3951 16.1103C29.3058 16.286 29.2015 16.4528 29.0526 16.5898C28.8858 16.7447 28.719 16.8966 28.5045 16.983C28.4122 17.0188 28.3258 17.0664 28.2305 17.0873C28.1739 17.0992 28.1143 17.1171 28.1203 17.1975C28.1203 17.2243 28.1143 17.2541 28.0875 17.2719V17.2779Z" fill="#FEA63B"/>
<path d="M27.5096 20.1723C27.5007 20.1309 27.5273 20.1013 27.5451 20.0688C27.5598 20.1132 27.5569 20.1486 27.5096 20.1723Z" fill="#772A0C"/>
<path d="M27.5538 20.0206C27.5479 19.9881 27.5685 19.9674 27.5863 19.9467C27.5863 19.9763 27.5981 20.0088 27.5538 20.0206Z" fill="#772A0C"/>
<path d="M19.7174 15.7082C19.7174 15.7648 19.7174 15.8214 19.7174 15.8779C19.7174 18.0017 19.7174 20.1284 19.7174 22.2521C19.6757 22.2521 19.634 22.2521 19.5923 22.2521C17.3912 22.2521 15.193 22.2521 12.9918 22.2521C12.9442 22.2521 12.8995 22.2521 12.8518 22.2551C12.7863 22.2253 12.7744 22.1568 12.7446 22.1061C12.6165 21.8917 12.5063 21.6683 12.3991 21.4419C12.3157 21.2662 12.2263 21.0904 12.1727 20.9028C12.1191 20.7211 12.0476 20.5454 11.997 20.3637C11.9344 20.1462 11.8719 19.9318 11.8093 19.7143C11.7408 19.4761 11.6872 19.2348 11.6336 18.9965C11.6127 18.9072 11.5949 18.8178 11.583 18.7255C11.571 18.6301 11.5413 18.5378 11.5204 18.4425C11.5025 18.3561 11.4966 18.2697 11.4787 18.1834C11.4579 18.0791 11.443 17.9719 11.4251 17.8647C11.4042 17.7247 11.3953 17.5847 11.3625 17.4477C11.3447 17.3791 11.3536 17.3047 11.3477 17.2302C11.3625 17.1141 11.3625 17.1141 11.4757 17.1468C11.5025 17.1558 11.5323 17.1558 11.5591 17.1558C11.7885 17.1587 12.0149 17.1587 12.2382 17.0872C12.4259 17.0277 12.5987 16.9473 12.7655 16.846C12.8906 16.7685 12.9859 16.6613 13.0931 16.569C13.3224 16.837 13.6024 17.0485 13.9062 17.2243C14.0641 17.3136 14.2309 17.3881 14.4096 17.4387C14.4424 17.4477 14.4722 17.4715 14.5079 17.4715C14.5079 17.4864 14.5139 17.5013 14.5258 17.5013C14.6092 17.5102 14.6837 17.5579 14.77 17.543C14.91 17.543 15.047 17.5906 15.19 17.5906C15.3777 17.5906 15.5683 17.6025 15.753 17.5757C15.9138 17.5549 16.0776 17.543 16.2266 17.4745C16.2474 17.4655 16.2712 17.4685 16.2951 17.4655C16.301 17.4655 16.31 17.4685 16.3189 17.4655C16.438 17.4387 16.5453 17.3821 16.6584 17.3404C16.6644 17.3404 16.6644 17.3226 16.6674 17.3136C16.6674 17.3136 16.6704 17.3106 16.6733 17.3077C16.7121 17.3196 16.7359 17.2868 16.7597 17.2719C16.8252 17.2332 16.9027 17.2183 16.9533 17.1558C16.9593 17.1558 16.9623 17.1558 16.9682 17.1558C17.0159 17.1409 17.0546 17.1141 17.0903 17.0783C17.2154 17.0068 17.3256 16.9115 17.4329 16.8132C17.5639 16.6881 17.698 16.566 17.8112 16.423C17.9005 16.3098 17.978 16.1877 18.0554 16.0626C18.1448 15.9137 18.2103 15.7528 18.2818 15.595C18.2907 15.5771 18.2907 15.5563 18.2967 15.5354C18.3443 15.5295 18.3354 15.4967 18.3294 15.4669C18.3324 15.449 18.3354 15.4312 18.3384 15.4133C18.383 15.3954 18.3711 15.3567 18.3681 15.3239C18.3681 15.3001 18.3711 15.2793 18.3741 15.2554C18.4337 15.178 18.4784 15.2286 18.5171 15.2763C18.5409 15.309 18.5796 15.309 18.6064 15.3329C18.7554 15.4699 18.943 15.5443 19.1277 15.6129C19.3153 15.6814 19.5149 15.7141 19.7174 15.6992V15.7082Z" fill="#FEF67F"/>
<path d="M13.096 16.5779C12.9858 16.6702 12.8905 16.7775 12.7684 16.8549C12.6016 16.9562 12.4288 17.0366 12.2412 17.0962C12.0178 17.1706 11.7914 17.1677 11.5621 17.1647C11.5353 17.1647 11.5055 17.1647 11.4787 17.1557C11.3685 17.12 11.3655 17.12 11.3506 17.2391C11.3238 17.2302 11.3268 17.2064 11.3268 17.1885C11.3208 17.1319 11.2821 17.1081 11.2344 17.0991C10.88 17.0157 10.5911 16.8221 10.3468 16.56C10.2217 16.426 10.1234 16.2711 10.037 16.1073C9.95364 15.9494 9.92385 15.7796 9.88215 15.6099C9.84641 15.4699 9.85237 15.3269 9.85534 15.1869C9.8613 14.9844 9.91789 14.7908 9.99236 14.6001C10.0609 14.4214 10.1502 14.2546 10.2753 14.1116C10.4928 13.8585 10.7519 13.6678 11.0646 13.5427C11.3744 13.4176 11.6931 13.4087 12.0148 13.4415C12.1965 13.4593 12.3722 13.5278 12.542 13.6112C12.7714 13.7244 12.9709 13.8674 13.1377 14.058C13.2867 14.2278 13.4058 14.4155 13.4832 14.6299C13.513 14.7133 13.5458 14.7967 13.5547 14.8861C13.5547 14.9099 13.5637 14.9337 13.5905 14.9427C13.5905 14.9605 13.5905 14.9814 13.5905 14.9993C13.5905 15.1958 13.5905 15.3924 13.5905 15.589C13.5249 15.9107 13.4028 16.2056 13.2003 16.4677C13.1675 16.5094 13.1199 16.5362 13.096 16.5839V16.5779Z" fill="#FEBF2E"/>
<path d="M21.0517 15.2346C21.013 15.2167 20.9832 15.2286 20.9534 15.2525C20.8759 15.318 20.7985 15.3805 20.7091 15.4312C20.6138 15.4878 20.5155 15.5324 20.4172 15.5831C20.3279 15.6307 20.2236 15.6278 20.1343 15.6665C19.9973 15.7261 19.8573 15.6963 19.7173 15.7112C19.7173 15.6695 19.7173 15.6278 19.7173 15.5861C19.7173 14.3797 19.7173 13.1764 19.7173 11.9701C19.896 11.9552 20.0658 11.9879 20.2385 12.0386C20.447 12.0982 20.6347 12.1905 20.8104 12.3126C21.001 12.4407 21.153 12.6075 21.281 12.7922C21.3734 12.9262 21.4389 13.0781 21.4925 13.233C21.5729 13.4653 21.6176 13.7006 21.6027 13.9449C21.5968 14.067 21.561 14.1832 21.5372 14.3053C21.5163 14.4006 21.4836 14.4899 21.4478 14.5793C21.4002 14.6925 21.3406 14.8027 21.2721 14.904C21.2095 14.9993 21.1321 15.0797 21.0576 15.1631C21.0338 15.1899 21.0398 15.2108 21.0457 15.2376L21.0517 15.2346Z" fill="#FEA63B"/>
<path d="M19.7203 11.9701C19.7203 13.1764 19.7203 14.3797 19.7203 15.586C19.7203 15.6277 19.7203 15.6694 19.7203 15.7111C19.5178 15.726 19.3182 15.6933 19.1305 15.6248C18.9459 15.5592 18.7582 15.4818 18.6093 15.3448C18.5825 15.321 18.5438 15.318 18.5199 15.2882C18.4842 15.2405 18.4365 15.1899 18.377 15.2673C18.4097 15.1839 18.3561 15.1393 18.3055 15.0797C18.1476 14.8891 18.0166 14.6806 17.9421 14.4393C17.8706 14.207 17.8229 13.9717 17.8438 13.7274C17.8646 13.5159 17.8974 13.3045 17.9868 13.1109C18.1178 12.8279 18.2965 12.5836 18.5438 12.3871C18.7284 12.2381 18.931 12.1279 19.1544 12.0594C19.3361 12.0028 19.5237 11.9552 19.7203 11.976V11.9701Z" fill="#FEBF2E"/>
<path d="M16.6736 17.3255C16.6736 17.3255 16.6706 17.3493 16.6647 17.3523C16.5515 17.394 16.4442 17.4506 16.3251 17.4774C16.3191 17.4774 16.3102 17.4774 16.3013 17.4774C16.4204 17.4178 16.5425 17.3612 16.6706 17.3285L16.6736 17.3255Z" fill="#FEF67F"/>
<path d="M14.7758 17.5519C14.6894 17.5668 14.612 17.5191 14.5315 17.5102C14.5196 17.5102 14.5137 17.4923 14.5137 17.4804C14.603 17.4983 14.6954 17.5102 14.7758 17.5519Z" fill="#FEF67F"/>
<path d="M18.3677 15.3329C18.3677 15.3654 18.3825 15.4038 18.3381 15.4216C18.3233 15.3831 18.347 15.3595 18.3677 15.3329Z" fill="#FEA63B"/>
<path d="M18.3261 15.4758C18.332 15.5054 18.3438 15.5379 18.2936 15.5438C18.2906 15.5143 18.2877 15.4847 18.3261 15.4758Z" fill="#FEA63B"/>
<path d="M12.855 22.261C12.9026 22.261 12.9473 22.258 12.995 22.258C15.1961 22.258 17.3943 22.258 19.5955 22.258C19.6372 22.258 19.6789 22.258 19.7206 22.258C19.7206 22.9878 19.7206 23.7145 19.7206 24.4443C19.7206 24.5277 19.6799 24.5694 19.5985 24.5694C17.5432 24.5694 15.4851 24.5694 13.4298 24.5694C13.3971 24.5694 13.3613 24.5694 13.3286 24.5694C13.3137 24.5694 13.2958 24.5694 13.2809 24.5664C13.269 24.5337 13.2392 24.5366 13.2094 24.5366C13.0605 24.483 12.9592 24.3788 12.8967 24.2358C12.8758 24.1852 12.855 24.1315 12.855 24.072C12.855 23.4673 12.855 22.8657 12.855 22.261Z" fill="#FEBF2E"/>
<path d="M13.209 24.5337C13.2356 24.5337 13.2652 24.5307 13.2799 24.5632C13.2504 24.5662 13.2238 24.5662 13.209 24.5337Z" fill="#FEA63B"/>
</svg>
