<svg width="40" height="38" viewBox="0 0 40 38" fill="none" xmlns="http://www.w3.org/2000/svg">
<path d="M19.5253 34.5555C10.9763 34.5555 4.08209 27.6368 4.1188 19.0328C4.15244 10.4991 11.1293 3.68436 19.6171 3.71495C28.0621 3.74553 34.9533 10.6551 34.9502 19.1429C34.9471 27.6613 28.0468 34.5555 19.5284 34.5555H19.5253ZM8.55693 26.2359C8.58446 26.2879 8.60587 26.343 8.63951 26.3919C9.32771 27.4288 10.1474 28.3525 11.1048 29.1417C13.9616 31.4907 17.2466 32.5215 20.9293 32.1361C24.2387 31.7905 27.016 30.3407 29.2611 27.8784C30.298 26.7406 31.0963 25.4499 31.6744 24.0245C32.4421 22.1343 32.7265 20.1706 32.5797 18.1396C32.488 16.8305 32.2005 15.5673 31.7202 14.3499C30.8332 12.0957 29.414 10.2391 27.5085 8.74952C27.1781 8.49259 26.8478 8.22954 26.4593 8.05826C26.392 8.00626 26.3309 7.94509 26.2575 7.90227C25.8354 7.66675 25.4102 7.42817 24.9667 7.2263C22.6635 6.18635 20.2563 5.82237 17.7574 6.17106C14.6376 6.60845 12.0041 7.99709 9.86604 10.3186C8.92397 11.3402 8.1746 12.4903 7.60262 13.7566C6.68808 15.7845 6.32104 17.9133 6.48315 20.1278C6.5902 21.5776 6.92972 22.9785 7.51392 24.3182C7.80756 24.988 8.12566 25.6426 8.55999 26.2329L8.55693 26.2359Z" fill="#383331"/>
<path d="M8.55689 26.2359C8.1195 25.6456 7.8014 24.9911 7.51083 24.3212C6.92662 22.9846 6.58711 21.5837 6.48005 20.1308C6.31794 17.9164 6.68498 15.7875 7.59953 13.7596C8.1715 12.4903 8.92087 11.3433 9.86294 10.3217C12.001 8.00015 14.6314 6.61151 17.7543 6.17412C20.2563 5.82543 22.6604 6.18941 24.9636 7.22936C25.4071 7.43123 25.8292 7.66981 26.2544 7.90533C26.3278 7.94509 26.3889 8.00932 26.4562 8.06132C26.7774 8.64858 27.1108 9.22667 27.3708 9.84758C27.5359 10.2452 27.7164 10.6428 27.799 11.0711C27.7133 10.9885 27.6277 10.9089 27.5421 10.8264C26.6734 9.97299 25.6977 9.26338 24.6057 8.72199C22.4433 7.65146 20.1584 7.27218 17.7696 7.62699C14.5488 8.1072 11.9673 9.68547 10.0556 12.3159C8.38866 14.613 7.70046 17.2006 7.92069 20.0268C8.05527 21.7458 8.56913 23.3455 9.42861 24.8381C9.61519 25.1623 9.79565 25.4927 10.0556 25.7649C10.0679 25.7771 10.0832 25.7894 10.0954 25.8016L10.1015 25.8169L10.0923 25.8016C10.0923 25.8016 10.0679 25.7741 10.0556 25.7618C10.0373 25.615 9.95164 25.4927 9.89047 25.3642C8.75265 22.9876 8.45595 20.5009 8.99428 17.9286C9.53872 15.3287 10.8478 13.1693 12.891 11.4717C15.3196 9.44996 18.1336 8.58435 21.2748 8.82293C22.9571 8.95139 24.5354 9.4469 25.9974 10.2911C26.7315 10.7162 27.4381 11.1842 28.0376 11.7929C28.0467 11.8388 28.0529 11.8816 28.0651 11.9275C28.4138 13.3375 28.5086 14.7659 28.3801 16.2127C28.2823 17.3291 28.0376 18.418 27.6522 19.4732C27.0741 21.0607 26.2238 22.4891 25.0951 23.7401C23.9542 25.0033 22.6237 26.028 21.0791 26.7773C18.7637 27.9029 16.3259 28.2944 13.778 28.0069C11.9918 27.805 10.3217 27.2392 8.76794 26.3308C8.70065 26.291 8.62418 26.2665 8.55077 26.2359H8.55689Z" fill="#ADA7A6"/>
<path d="M27.8023 11.0649C27.7197 10.6367 27.5423 10.2422 27.3741 9.84147C27.1141 9.22362 26.7807 8.64247 26.4595 8.05521C26.848 8.22649 27.1783 8.48954 27.5087 8.74647C29.4142 10.233 30.8334 12.0896 31.7204 14.3469C32.2007 15.5642 32.4882 16.8275 32.5799 18.1366C32.7267 20.1706 32.4423 22.1343 31.6746 24.0215C31.0965 25.4468 30.2982 26.7345 29.2613 27.8754C27.0193 30.3407 24.2389 31.7874 20.9295 32.1331C17.2468 32.5185 13.9649 31.4877 11.105 29.1386C10.1476 28.3525 9.32791 27.4258 8.63971 26.3889C8.60607 26.3399 8.58466 26.2849 8.55713 26.2329C8.63054 26.2635 8.707 26.2879 8.77429 26.3277C10.325 27.2392 11.9981 27.802 13.7844 28.0039C16.3323 28.2944 18.77 27.8999 21.0854 26.7743C22.627 26.0249 23.9575 25.0033 25.1015 23.737C26.2301 22.486 27.0804 21.0576 27.6585 19.4702C28.0439 18.4119 28.2886 17.326 28.3865 16.2096C28.515 14.7659 28.4201 13.3345 28.0714 11.9244C28.0592 11.8816 28.0531 11.8357 28.0439 11.7898C28.3223 11.9825 28.5303 12.2456 28.7719 12.478C28.8942 12.5943 28.9738 12.7564 29.1328 12.8329C29.1481 12.8787 29.1726 12.9185 29.2185 12.943C29.2215 12.946 29.2276 12.9491 29.2307 12.9521C29.2276 12.9491 29.2246 12.943 29.2215 12.9399C29.197 12.9001 29.1726 12.8573 29.1481 12.8176C29.1053 12.7441 29.0655 12.6677 29.0196 12.5973C28.6648 12.0437 28.2366 11.5513 27.8023 11.0588V11.0649Z" fill="#96908F"/>
<path d="M27.802 11.0649C28.2363 11.5574 28.6645 12.0529 29.0193 12.6034C29.0652 12.6769 29.105 12.7503 29.1478 12.8237C29.1417 12.8298 29.1356 12.8328 29.1325 12.839C28.9735 12.7594 28.8909 12.6004 28.7716 12.4842C28.53 12.2517 28.325 11.9856 28.0436 11.796C27.4441 11.1873 26.7376 10.7193 26.0035 10.2941C24.5415 9.44689 22.9601 8.95139 21.2809 8.82598C18.1366 8.59047 15.3226 9.45301 12.8971 11.4748C10.857 13.1724 9.54479 15.3318 9.00035 17.9316C8.46202 20.504 8.75565 22.9876 9.89654 25.3673C9.95771 25.4957 10.0434 25.6181 10.0617 25.7649C9.80172 25.4927 9.62126 25.1593 9.43468 24.8381C8.57519 23.3486 8.06133 21.7458 7.92675 20.0268C7.70653 17.1976 8.39167 14.6099 10.0617 12.3159C11.9703 9.68547 14.5549 8.1072 17.7757 7.62699C20.1645 7.27218 22.4493 7.6484 24.6118 8.72199C25.7037 9.26337 26.6795 9.96993 27.5481 10.8264C27.6338 10.9089 27.7194 10.9885 27.8051 11.071V11.0649H27.802Z" fill="#5E5756"/>
<path d="M10.585 25.0492L10.595 25.0654L10.5883 25.0492H10.585Z" fill="#B69942"/>
<path d="M10.5451 25.0063C10.5451 25.0063 10.5726 25.0369 10.5848 25.0492C10.5848 25.0492 10.5542 25.0216 10.542 25.0094V25.0063H10.5451Z" fill="#B69942"/>
<path d="M19.5344 33.8371C27.5982 33.8371 34.1353 27.2548 34.1353 19.1352C34.1353 11.0156 27.5982 4.43329 19.5344 4.43329C11.4706 4.43329 4.93359 11.0156 4.93359 19.1352C4.93359 27.2548 11.4706 33.8371 19.5344 33.8371Z" stroke="#FBC300" stroke-opacity="0.88" stroke-width="3" stroke-miterlimit="10"/>
<path d="M30.1516 16.4147C29.5613 17.2166 29.5017 18.2182 29.135 19.1065C28.9681 19.509 29.4093 19.7475 29.5673 20.0426C30.0145 20.8833 29.5226 21.6345 28.977 21.7567C28.0082 21.9713 27.9426 22.5318 28.0171 23.2115C28.1364 24.3085 27.6564 24.6662 26.6369 24.5321C25.6502 24.4009 24.6187 24.7914 23.6588 24.2966C23.8496 23.8554 24.2461 23.9418 24.6009 23.9359C25.3312 23.9269 26.0586 23.9359 26.789 23.918C27.0215 23.912 27.3643 24.0104 27.4001 23.6437C27.4448 23.1876 27.0692 23.2562 26.789 23.2532C25.5131 23.2443 24.2342 23.2204 22.9613 23.2532C22.0044 23.277 21.1488 23.0803 20.4721 22.3738C20.2038 22.0936 19.9802 21.9713 19.6702 22.3201C18.9219 23.1667 17.9322 23.283 16.874 23.2502C15.7441 23.2174 14.6143 23.2294 13.4815 23.2502C13.1953 23.2562 12.7094 23.0624 12.6915 23.5483C12.6707 24.1356 13.2102 23.921 13.5173 23.921C16.2509 23.9388 18.9875 23.9239 21.7212 23.9359C22.1355 23.9359 22.6185 23.7689 22.9046 24.2638C22.6125 24.6752 22.1743 24.5172 21.7957 24.5201C18.9905 24.5321 16.1823 24.4903 13.3802 24.547C12.3815 24.5678 11.9761 24.2578 12.0417 23.2443C12.0804 22.6063 12.2116 21.9087 11.1473 21.7537C10.6942 21.6881 10.0503 20.9339 10.4408 20.3824C11.2725 19.2109 10.6227 18.2093 10.3872 17.1212C10.2739 16.5935 9.50776 15.9049 10.3335 15.5144C11.037 15.1835 11.1682 16.1195 11.5259 16.513C11.7913 16.8022 11.9463 17.2494 12.4143 17.2315C12.9658 17.2136 13.0433 16.7068 13.2222 16.3222C13.252 16.2567 13.2609 16.1792 13.2997 16.1195C13.5858 15.6962 13.4845 14.9152 14.2059 14.9092C14.82 14.9062 14.8766 15.5889 15.1628 15.9824C15.2701 16.1285 15.3506 16.2924 15.446 16.4474C16.0393 17.3805 16.6385 17.3924 17.2585 16.4862C17.4553 16.197 17.5566 15.7886 18.0485 15.887C17.9889 16.7575 17.5894 17.4759 16.7547 17.6935C15.1479 18.1079 14.972 16.4951 14.2298 15.6634C13.7528 16.2656 13.7587 17.0407 13.2251 17.5266C12.5812 18.1168 11.8926 17.6548 11.1295 17.4819C11.2725 17.9588 11.3471 18.3106 11.4842 18.6355C12.0476 19.9621 11.8181 21.9624 13.085 22.5377C14.349 23.1131 16.084 22.663 17.6162 22.6451C18.3555 22.6361 18.9041 22.2486 19.4257 21.7567C19.7537 21.4467 19.7864 21.2499 19.5003 20.8862C18.9816 20.2304 18.5135 19.5358 18.0634 18.8323C17.6848 18.2331 17.804 17.6429 18.281 17.1391C18.7222 16.674 20.9908 16.5428 21.581 16.9572C22.0938 17.3179 22.371 17.8217 22.1951 18.4656C22.1296 18.7041 21.9805 18.9247 21.8404 19.1334C21.5572 19.5537 21.2501 19.9621 20.958 20.3795C20.2336 21.4109 20.3052 21.7507 21.4469 22.3559C21.7569 22.5199 22.1325 22.6391 22.4813 22.6451C23.5694 22.6659 24.6605 22.6212 25.7486 22.6003C26.3358 22.663 27.1735 23.0147 27.4209 22.4006C28.0499 20.8594 28.4494 19.2258 29.0039 17.4282C28.3063 17.6518 27.8681 17.9588 27.3583 17.8545C27.102 17.7233 26.9619 17.5415 27.1079 17.2434C28.0589 17.4789 28.4166 16.7783 28.834 16.1642C29.147 15.7052 29.4153 15.1268 30.1486 15.5412V16.4176L30.1516 16.4147ZM20.1144 20.4182C20.3588 20.1201 20.7374 19.8876 20.7195 19.4553C20.6987 19.0499 20.4155 18.57 20.0577 18.5789C19.6434 18.5878 19.3303 19.0887 19.3482 19.506C19.3631 19.8727 19.6702 20.2036 20.1144 20.4182ZM19.6434 17.7502C19.6642 17.4342 19.4913 17.3149 19.2439 17.3418C18.7848 17.3954 18.5165 17.6548 18.5225 18.1347C18.5225 18.3911 18.6 18.7786 18.8593 18.7071C19.2946 18.5908 19.4406 18.1019 19.6434 17.7502ZM21.6079 18.0155C21.581 17.6339 21.3157 17.3388 20.806 17.3209C20.5884 17.312 20.329 17.4282 20.4244 17.6995C20.5794 18.1407 20.8149 18.5998 21.2829 18.728C21.4857 18.7846 21.6109 18.412 21.6079 18.0125V18.0155Z" fill="#16140F"/>
<path d="M27.1107 17.2465C26.9617 17.5446 27.1018 17.7235 27.3612 17.8577C27.2658 18.2631 27.1733 18.6685 27.0809 19.0769C26.3774 18.898 25.9958 19.2886 25.7365 19.855C25.3311 20.7374 25.1045 21.6227 25.8259 22.4693C25.7812 22.5021 25.7544 22.5469 25.7544 22.6035C24.6663 22.6244 23.5752 22.6691 22.4871 22.6482C22.1383 22.6422 21.7627 22.523 21.4527 22.359C20.311 21.7539 20.2394 21.4111 20.9638 20.3826C21.2559 19.9682 21.563 19.5598 21.8462 19.1365C21.9863 18.9279 22.1383 18.7043 22.2009 18.4688C22.3768 17.8249 22.0996 17.3211 21.5868 16.9604C20.9966 16.546 18.728 16.6772 18.2868 17.1422C17.8098 17.643 17.6906 18.2362 18.0692 18.8354C18.5164 19.5419 18.9874 20.2336 19.5061 20.8894C19.7952 21.2561 19.7624 21.4498 19.4315 21.7599C18.9128 22.2547 18.3613 22.6422 17.622 22.6482C16.0928 22.6631 14.3578 23.1133 13.0908 22.5409C11.8239 21.9655 12.0534 19.9623 11.49 18.6387C11.3529 18.3167 11.2783 17.965 11.1353 17.485C11.8984 17.6579 12.584 18.12 13.2309 17.5297C13.7616 17.0438 13.7616 16.2687 14.2356 15.6666C14.9778 16.4983 15.1537 18.111 16.7605 17.6967C17.5952 17.482 17.9947 16.7636 18.0543 15.8902C18.1497 15.6517 18.2481 15.4132 18.3464 15.1777C19.3898 14.8766 19.2765 13.6365 20.138 13.0343C20.8565 14.2804 21.5541 15.5324 22.2904 16.7606C23.1191 18.1409 24.3115 18.1379 25.1522 16.7815C25.3877 16.4029 25.6262 16.0273 25.8676 15.6457C26.1836 15.9647 26.0972 16.5251 26.6517 16.5341C26.7202 16.8262 26.8752 17.0617 27.1137 17.2465H27.1107ZM23.4589 21.6615C24.401 21.7628 24.7647 21.0444 24.7766 20.4094C24.7885 19.7655 24.4278 19.0739 23.5096 19.0948C22.8121 19.1097 21.9684 19.8073 22.1205 20.4154C22.2844 21.0563 22.5318 21.7807 23.4589 21.6615ZM16.6413 19.1008C15.6754 19.0769 15.2968 19.7506 15.3207 20.4124C15.3475 21.1219 15.7619 21.7509 16.7277 21.6823C17.634 21.6168 17.9529 20.9788 17.9231 20.314C17.8933 19.6314 17.476 18.9994 16.6413 19.1008ZM14.6917 21.2561C14.6827 20.6241 14.5426 20.0308 14.1551 19.5151C13.9255 19.2081 13.6542 18.9547 13.2399 19.065C12.8315 19.1753 12.7093 19.5419 12.6526 19.9086C12.5572 20.5436 12.7122 21.1428 13.0133 21.6973C13.2369 22.1116 13.535 22.6333 14.0477 22.5111C14.6052 22.3799 14.7066 21.7956 14.6917 21.2531V21.2561Z" fill="#F3C65F"/>
<path d="M22.9046 24.2697C22.6184 23.7749 22.1355 23.9418 21.7211 23.9418C18.9875 23.9299 16.2509 23.9418 13.5173 23.9269C13.2132 23.9269 12.6706 24.1415 12.6915 23.5543C12.7094 23.0684 13.1953 23.2591 13.4815 23.2562C14.6113 23.2353 15.7411 23.2234 16.8739 23.2562C17.9292 23.289 18.9219 23.1727 19.6702 22.3261C19.9802 21.9773 20.2008 22.0995 20.4721 22.3797C21.1517 23.0862 22.0073 23.283 22.9612 23.2591C24.2371 23.2264 25.513 23.2532 26.7889 23.2591C27.0691 23.2591 27.4448 23.1936 27.4 23.6497C27.3643 24.0163 27.0214 23.918 26.7889 23.9239C26.0586 23.9418 25.3312 23.9329 24.6008 23.9418C24.2461 23.9448 23.8496 23.8583 23.6588 24.3025C23.4054 24.2936 23.155 24.2876 22.9016 24.2757L22.9046 24.2697Z" fill="#EDCF73"/>
<path d="M26.6485 16.5342C26.094 16.5253 26.1775 15.9649 25.8645 15.6459C25.62 16.0304 25.3815 16.4031 25.149 16.7817C24.3084 18.138 23.1159 18.138 22.2872 16.7608C21.5509 15.5326 20.8533 14.2835 20.1349 13.0345C19.2734 13.6366 19.3866 14.8768 18.3433 15.1779C18.3761 14.06 19.0855 13.2521 19.7175 12.4621C20.114 11.9673 20.4956 12.4621 20.7221 12.8437C21.4018 14.0033 22.0547 15.1779 22.7314 16.3375C23.3872 17.4613 24.0341 17.4554 24.7108 16.3375C24.8241 16.1497 24.9284 15.9589 25.0536 15.78C25.3219 15.3895 25.4531 14.6264 26.1 14.9781C26.6008 15.2494 26.9377 15.8516 26.6485 16.5372V16.5342Z" fill="#16140F"/>
<path d="M27.0781 19.074C27.1735 18.6686 27.2659 18.2632 27.3583 17.8548C27.871 17.9621 28.3093 17.6521 29.0038 17.4285C28.4494 19.2291 28.0499 20.8627 27.4209 22.4009C27.1705 23.012 26.3328 22.6603 25.7485 22.6006C25.7485 22.544 25.7724 22.4993 25.8201 22.4665C26.297 22.6901 26.5624 22.3472 26.8187 22.064C27.4925 21.3277 27.5849 20.1055 27.0751 19.074H27.0781Z" fill="#CA9254"/>
<path d="M20.114 20.4214C19.6699 20.2098 19.3628 19.8759 19.3479 19.5092C19.33 19.0919 19.64 18.5911 20.0574 18.5821C20.4151 18.5762 20.6983 19.0531 20.7192 19.4585C20.7401 19.8848 20.3585 20.1233 20.114 20.4214Z" fill="#CA646C"/>
<path d="M19.64 17.7562C19.4343 18.111 19.2912 18.5969 18.856 18.7131C18.5937 18.7847 18.5221 18.3971 18.5191 18.1408C18.5132 17.6578 18.7815 17.3985 19.2406 17.3478C19.491 17.321 19.6609 17.4372 19.64 17.7562Z" fill="#CA646C"/>
<path d="M21.6076 18.0187C21.6136 18.4151 21.4884 18.7878 21.2827 18.7341C20.8117 18.6059 20.5792 18.1468 20.4241 17.7056C20.3287 17.4344 20.5881 17.3181 20.8057 17.327C21.3155 17.3449 21.5838 17.6401 21.6076 18.0216V18.0187Z" fill="#CA646C"/>
<path d="M23.4591 21.6614C22.532 21.7836 22.2816 21.0592 22.1206 20.4153C21.9656 19.8071 22.8122 19.1096 23.5098 19.0947C24.428 19.0738 24.7887 19.7624 24.7767 20.4093C24.7648 21.0473 24.4011 21.7627 23.4591 21.6614Z" fill="#16140F"/>
<path d="M16.6415 19.0978C17.4821 18.9995 17.8935 19.6285 17.9233 20.3111C17.9532 20.9729 17.6372 21.6139 16.7279 21.6794C15.7621 21.748 15.3477 21.122 15.3209 20.4095C15.297 19.7477 15.6756 19.074 16.6415 19.0978Z" fill="#16140F"/>
<path d="M27.0779 19.0739C27.5876 20.1053 27.4922 21.3276 26.8215 22.0639C26.5651 22.3471 26.2998 22.6899 25.8228 22.4663C25.1014 21.6197 25.328 20.7343 25.7334 19.8519C25.9957 19.2826 26.3773 18.895 27.0779 19.0739ZM26.7171 19.5986C25.9033 20.6211 25.8467 20.9221 26.2402 21.7956C26.7529 21.1845 26.9765 20.5376 26.7171 19.5986Z" fill="#16140F"/>
<path d="M14.6916 21.2499C14.7065 21.7925 14.6022 22.3738 14.0477 22.5079C13.535 22.6272 13.2399 22.1115 13.0133 21.6941C12.7152 21.1396 12.5602 20.5375 12.6526 19.9055C12.7062 19.5388 12.8285 19.1721 13.2399 19.0618C13.6542 18.9486 13.9255 19.2049 14.155 19.512C14.5426 20.0277 14.6797 20.6209 14.6916 21.2529V21.2499ZM13.3352 19.4822C13.2041 20.5255 13.2458 21.2231 13.9255 21.873C14.3041 20.9846 14.0119 20.3496 13.3352 19.4822Z" fill="#16140F"/>
<path d="M26.7174 19.6017C26.9797 20.5407 26.7531 21.1876 26.2404 21.7987C25.8439 20.9252 25.9006 20.6242 26.7174 19.6017Z" fill="#CA646C"/>
<path d="M13.3357 19.4852C14.0124 20.3556 14.3075 20.9876 13.9259 21.876C13.2463 21.2261 13.2045 20.5285 13.3357 19.4852Z" fill="#CA646C"/>
</svg>
