<svg width="40" height="40" viewBox="0 0 32 32" fill="none" xmlns="http://www.w3.org/2000/svg">
<path d="M15.9382 31.7795C7.38918 31.7795 0.494936 24.8607 0.53164 16.2567C0.565285 7.72302 7.54211 0.908298 16.0299 0.938884C24.4749 0.969471 31.3661 7.87901 31.363 16.3668C31.36 24.8852 24.4596 31.7795 15.9412 31.7795H15.9382ZM4.96977 23.4599C4.9973 23.5119 5.01871 23.5669 5.05236 23.6159C5.74056 24.6528 6.56028 25.5765 7.51764 26.3656C10.3744 28.7147 13.6595 29.7454 17.3421 29.3601C20.6516 29.0144 23.4289 27.5646 25.6739 25.1024C26.7108 23.9646 27.5091 22.6738 28.0872 21.2485C28.8549 19.3582 29.1394 17.3945 28.9926 15.3636C28.9008 14.0545 28.6133 12.7912 28.1331 11.5739C27.2461 9.31964 25.8268 7.46303 23.9213 5.97346C23.591 5.71653 23.2606 5.45348 22.8722 5.2822C22.8049 5.2302 22.7437 5.16903 22.6703 5.1262C22.2482 4.89069 21.823 4.65211 21.3795 4.45024C19.0764 3.41029 16.6692 3.04631 14.1703 3.395C11.0504 3.83239 8.41689 5.22102 6.27888 7.54255C5.33681 8.56415 4.58744 9.71421 4.01547 10.9805C3.10092 13.0084 2.73388 15.1372 2.89599 17.3517C3.00305 18.8015 3.34256 20.2024 3.92676 21.5421C4.2204 22.2119 4.5385 22.8665 4.97283 23.4568L4.96977 23.4599Z" fill="orange"/>
<path d="M4.96973 23.4598C4.53234 22.8695 4.21424 22.215 3.92367 21.5451C3.33946 20.2085 2.99995 18.8076 2.89289 17.3547C2.73079 15.1403 3.09783 13.0114 4.01237 10.9835C4.58434 9.71418 5.33371 8.56718 6.27578 7.54558C8.4138 5.22405 11.0443 3.83542 14.1672 3.39803C16.6691 3.04934 19.0733 3.41332 21.3764 4.45327C21.8199 4.65514 22.242 4.89372 22.6672 5.12923C22.7406 5.169 22.8018 5.23323 22.8691 5.28523C23.1902 5.87249 23.5236 6.45058 23.7836 7.07149C23.9488 7.46912 24.1292 7.86674 24.2118 8.29496C24.1262 8.21237 24.0405 8.13285 23.9549 8.05026C23.0862 7.1969 22.1105 6.48728 21.0186 5.9459C18.8561 4.87536 16.5713 4.49609 14.1824 4.85089C10.9617 5.33111 8.38015 6.90938 6.46848 9.53984C4.80151 11.8369 4.1133 14.4245 4.33353 17.2507C4.46811 18.9697 4.98197 20.5694 5.84145 22.062C6.02803 22.3863 6.20849 22.7166 6.46848 22.9888C6.48072 23.001 6.49601 23.0133 6.50824 23.0255L6.51436 23.0408L6.50518 23.0255C6.50518 23.0255 6.48072 22.998 6.46848 22.9858C6.45013 22.8389 6.36449 22.7166 6.30331 22.5881C5.16549 20.2115 4.8688 17.7248 5.40712 15.1525C5.95157 12.5526 7.26068 10.3932 9.30387 8.69564C11.7325 6.67386 14.5464 5.80826 17.6877 6.04684C19.37 6.1753 20.9482 6.6708 22.4103 7.515C23.1444 7.94015 23.8509 8.40813 24.4504 9.0168C24.4596 9.06268 24.4657 9.10551 24.4779 9.15139C24.8266 10.5614 24.9214 11.9898 24.793 13.4366C24.6951 14.553 24.4504 15.6419 24.065 16.6971C23.4869 18.2846 22.6366 19.713 21.508 20.964C20.3671 22.2272 19.0366 23.2519 17.4919 24.0012C15.1765 25.1268 12.7388 25.5183 10.1909 25.2308C8.40462 25.0289 6.73459 24.4631 5.18078 23.5547C5.11349 23.5149 5.03702 23.4904 4.96362 23.4598H4.96973Z" fill="#ADA7A6"/>
<path d="M24.2149 8.28885C24.1323 7.86063 23.9549 7.46606 23.7867 7.06538C23.5267 6.44753 23.1933 5.86638 22.8721 5.27911C23.2606 5.4504 23.5909 5.71345 23.9212 5.97037C25.8268 7.45689 27.246 9.3135 28.133 11.5708C28.6133 12.7882 28.9008 14.0514 28.9925 15.3605C29.1393 17.3945 28.8549 19.3582 28.0872 21.2454C27.5091 22.6707 26.7108 23.9584 25.6739 25.0993C23.4319 27.5646 20.6515 29.0113 17.342 29.357C13.6594 29.7424 10.3775 28.7116 7.5176 26.3625C6.56024 25.5765 5.74051 24.6497 5.05231 23.6128C5.01867 23.5638 4.99725 23.5088 4.96973 23.4568C5.04313 23.4874 5.1196 23.5119 5.18689 23.5516C6.73764 24.4631 8.41073 25.0259 10.197 25.2278C12.7449 25.5183 15.1826 25.1238 17.498 23.9982C19.0396 23.2488 20.3701 22.2272 21.5141 20.9609C22.6427 19.7099 23.493 18.2815 24.0711 16.6941C24.4565 15.6358 24.7012 14.5499 24.7991 13.4335C24.9276 11.9898 24.8327 10.5584 24.484 9.14833C24.4718 9.10551 24.4657 9.05963 24.4565 9.01375C24.7349 9.20645 24.9428 9.46949 25.1845 9.70195C25.3068 9.81818 25.3864 9.98029 25.5454 10.0568C25.5607 10.1026 25.5852 10.1424 25.631 10.1669C25.6341 10.1699 25.6402 10.173 25.6433 10.176C25.6402 10.173 25.6372 10.1669 25.6341 10.1638C25.6096 10.124 25.5852 10.0812 25.5607 10.0415C25.5179 9.96806 25.4781 9.89159 25.4322 9.82124C25.0774 9.26762 24.6492 8.77517 24.2149 8.28273V8.28885Z" fill="#96908F"/>
<path d="M24.2148 8.2889C24.6492 8.78135 25.0774 9.27685 25.4322 9.82741C25.4781 9.90082 25.5178 9.97423 25.5607 10.0476C25.5545 10.0538 25.5484 10.0568 25.5454 10.0629C25.3863 9.9834 25.3037 9.82435 25.1844 9.70812C24.9428 9.47566 24.7379 9.20956 24.4565 9.01992C23.857 8.41125 23.1504 7.94327 22.4163 7.51811C20.9543 6.67086 19.373 6.17536 17.6938 6.04995C14.5494 5.81444 11.7355 6.67698 9.30994 8.69876C7.2698 10.3963 5.95763 12.5557 5.41319 15.1556C4.87486 17.728 5.16849 20.2116 6.30938 22.5912C6.37055 22.7197 6.45619 22.8421 6.47455 22.9889C6.21456 22.7167 6.0341 22.3833 5.84752 22.0621C4.98803 20.5725 4.47418 18.9698 4.33959 17.2508C4.11937 14.4215 4.80451 11.8339 6.47455 9.5399C8.38316 6.90944 10.9677 5.33117 14.1885 4.85095C16.5773 4.49615 18.8622 4.87236 21.0246 5.94596C22.1166 6.48734 23.0923 7.1939 23.961 8.05032C24.0466 8.13291 24.1323 8.21243 24.2179 8.29502V8.2889H24.2148Z" fill="#5E5756"/>
<path d="M6.99756 22.2731L7.00757 22.2894L7.0009 22.2731H6.99756Z" fill="#B69942"/>
<path d="M6.95789 22.2303C6.95789 22.2303 6.98542 22.2609 6.99766 22.2731C6.99766 22.2731 6.96707 22.2456 6.95483 22.2333V22.2303H6.95789Z" fill="#B69942"/>
</svg>
