<?xml version="1.0" encoding="UTF-8"?>
<svg id="Layer_2" data-name="Layer 2" xmlns="http://www.w3.org/2000/svg" xmlns:xlink="http://www.w3.org/1999/xlink" viewBox="0 0 188.45 122.71">
  <defs>
    <style>
      .cls-1 {
        fill: url(#linear-gradient-2);
      }

      .cls-2, .cls-3 {
        fill: none;
        stroke: #fff;
        stroke-miterlimit: 10;
      }

      .cls-4 {
        fill: #dedddc;
      }

      .cls-5 {
        fill: url(#linear-gradient);
        opacity: .53;
      }

      .cls-3 {
        stroke-width: .25px;
      }
    </style>
    <linearGradient id="linear-gradient" x1="0" y1="78.1" x2="188.45" y2="78.1" gradientUnits="userSpaceOnUse">
      <stop offset="0" stop-color="#191919"/>
      <stop offset="1" stop-color="#ff4c01"/>
    </linearGradient>
    <linearGradient id="linear-gradient-2" x1="1.13" y1="39.79" x2="187.94" y2="39.79" xlink:href="#linear-gradient"/>
  </defs>
  <g id="Layer_1-2" data-name="Layer 1">
    <g>
      <path class="cls-4" d="M161.37,59.2c-11.45,2.66-22.76,5.88-34.51,7.24-16.98,1.96-33.91,2.35-51,1-13.37-1.06-26.49-2.88-39.35-6.53-4.85-1.38-3.56,2.46-3.27,4.36,1.01,6.84,2.59,13.59,3.7,20.42,2.99,18.41,17.74,25.09,33.1,31.03,6.44,2.49,13.24,3.97,20.1,5.22-7.04,.61-13.91-.76-20.76-1.86-17.29-2.78-34.22-6.73-48.31-17.64-6.74-5.22-12.59-11.05-11.42-20.67,.56-4.64,.12-9.39,.09-14.09-.06-9.01,1.77-18.44-5.92-25.81-1.38-3.78-1.89-7.66-1.29-11.65,1.3-2.26,2.6-4.52,3.9-6.78,1.98-1.65,3.97-3.29,5.95-4.94C29.39,8.7,48.55,5.93,67.6,2.82c1.74-.28,3.91-.92,5.27,1.13-4.61,3.65-10.4,2.05-15.59,3.13-13.89,2.89-27.48,6.16-39.11,14.69-7.29,5.34-8.75,13.71-2.83,20.44,4.22,4.8,10.01,7.76,15.92,10.02,20.99,8.03,43.03,10.61,65.39,10.06,7.01-.17,13.72-1.35,19.94,2.78,1.34,.89,2.9,.31,4.47,.13,13.81-1.62,27.36-4.38,40.72-8.11-.13,.7-.27,1.4-.4,2.1Z"/>
      <path class="cls-5" d="M.71,33.49c-.83,.04-1.04,13.11,0,49.92,.09,.72,.26,1.76,.59,3,.76,2.84,4.01,12.63,23.91,22.36,3.49,1.71,12.8,6.01,31.79,9.67,11.57,2.23,30.53,5.75,55.27,3.6,3.14-.27,16.03-1.47,32.09-5.78,3.1-.83,11.42-3.15,21.39-7.77,9.92-4.6,13.81-7.93,16.57-11.57,2.96-3.91,4.1-7.39,4.38-8.32,1.26-4.19,.94-7.33,.74-11.21-.11-2.24,.02-7.69,.3-18.58,.36-14.32,1.6-18.93-.4-19.72-1.99-.79-4.35,3.35-11.49,8.27,0,0-4.54,3.13-13.67,6.9-22.1,9.13-55.49,10.24-55.49,10.24-27.82,.93-45-2.96-75.5-9.86,0,0-16.91-3.83-24.81-12.94-2.5-2.89-3.76-4.33-3.94-5.62-.04-.3-.17-1.58-1.14-2.28-.21-.15-.51-.31-.61-.31Z"/>
      <ellipse class="cls-1" cx="94.53" cy="39.79" rx="93.4" ry="39.29"/>
      <ellipse class="cls-2" cx="94.82" cy="39.79" rx="93.01" ry="39.29"/>
      <ellipse class="cls-3" cx="96.17" cy="37.94" rx="71.25" ry="23.03"/>
      <ellipse class="cls-3" cx="96.96" cy="37.56" rx="55.74" ry="15.92"/>
    </g>
  </g>
</svg>