<?xml version="1.0" encoding="UTF-8"?>
<svg id="Layer_2" data-name="Layer 2" xmlns="http://www.w3.org/2000/svg" viewBox="0 0 116.45 79.33">
  <defs>
    <style>
      .cls-1 {
        fill: #dedddc;
      }

      .cls-2 {
        fill: #8f8f8f;
      }

      .cls-3 {
        fill: #fefefe;
      }
    </style>
  </defs>
  <g id="Layer_1-2" data-name="Layer 1">
    <path class="cls-3" d="M116.42,50.6c.42,6.02-2.95,10.44-6.28,14.87-.62,.33-1.31,.61-1.12,1.54,0,0,.08-.14,.08-.14-26.4,14.63-54.25,15.08-82.69,8.02-9.45-2.34-18.27-6.29-24.09-14.87-1.26-1.86-2.11-3.67-2.09-5.96,.11-8.99,.13-17.97,.18-26.96,3.51,1.1,4.88,3.48,4.78,7.14-.17,5.83,.28,11.68-.13,17.49-.49,6.82,3.51,10.76,8.24,14.28,2.37,1.76,5.1,3.09,7.8,4.33,9.48,4.35,19.46,6.46,29.88,6.36-.38-.43-.83-.57-1.28-.65-16.42-3.03-25.71-10.6-27.92-24.47-.72-4.52-5.25-9.85,.38-14.43-.33-.37-.67-.73-1-1.1l-.02,.03c10.37,.98,20.38,4.39,30.95,4.19,3.82-.07-.46,1.72,.22,2.73,15.94,.67,31.63-1.27,46.98-5.94-2.8,12.12-6.89,23.87-10.46,36.02,4.51-1.19,8.44-3.27,12.23-5.6,6.92-4.25,10.46-10.27,10.11-18.6-.25-5.96-.02-11.94,0-17.91,.96-2.17,1.52-4.83,4.93-3.92,.11,7.85,.21,15.69,.32,23.54ZM25.08,38.58c7.93,2.62,16.1,3.74,24.47,3.44-8.16-1.1-16.29-2.36-24.47-3.44Z"/>
    <path class="cls-1" d="M99.29,37.05c-15.35,4.67-31.04,6.61-46.98,5.94-.68-1.01,3.59-2.81-.22-2.73-10.58,.2-20.59-3.21-30.95-4.19-.45-.72-1.06-1.06-1.91-.8-.11,.03-.17,.25-.25,.38,.73,.13,1.45,.27,2.18,.4,.33,.37,.67,.73,1,1.1-5.64,4.58-1.11,9.91-.38,14.43,2.22,13.88,11.5,21.44,27.92,24.47,.45,.08,.9,.22,1.28,.65-10.42,.1-20.4-2.01-29.88-6.36-2.7-1.24-5.44-2.57-7.8-4.33-4.72-3.52-8.73-7.46-8.24-14.28,.42-5.8-.04-11.66,.13-17.49,.11-3.67-1.27-6.04-4.78-7.14-.73-5.03-.94-9.94,3.15-13.87C21.96,.7,42.89-.23,64.07,.03c.86,.01,1.62,.27,2.12,1.05-1.01,1.2-2.41,.94-3.71,.95-8.3,.03-16.64-.48-24.85,1.05-9.45,1.76-19.06,3.27-26.82,9.66-6.4,5.27-6.09,11.36,.75,15.91,4.44,2.96,9.26,5.1,14.49,6.43,15.44,3.94,31.06,5.17,46.82,2.88,9.52-1.38,19.01-3.35,27.34-8.6,8.7-5.48,8.41-13.35-.58-18.5-5.97-3.43-12.52-5.13-19.09-6.99-3.49-.99-7.78,1.07-10.53-2.61,15.54-.34,30.05,3.05,43.06,11.88,3.17,3.25,4.37,6.96,2.48,11.29-.49,1.13,.78,1.68,.55,2.64-3.41-.92-3.98,1.74-4.93,3.92-4.2,1.56-8.24,3.42-11.88,6.08ZM10.68,31.12c-.35,.23-.59,.38-.82,.54,.31,.33,.56,.81,.95,.96,.48,.19,1-.15,.83-.71-.1-.34-.64-.54-.96-.79Zm4.99,2.55c-.02,.24-.04,.49-.06,.73,.09-.11,.25-.22,.26-.34,0-.12-.13-.26-.2-.39Z"/>
    <path class="cls-3" d="M70.01,1.24c2.75,3.69,7.04,1.63,10.53,2.61,6.58,1.86,13.13,3.57,19.09,6.99,8.98,5.16,9.28,13.02,.58,18.5-8.33,5.25-17.83,7.21-27.34,8.6-15.76,2.29-31.38,1.06-46.82-2.88-5.23-1.33-10.05-3.47-14.49-6.43-6.85-4.55-7.16-10.64-.75-15.91,7.76-6.39,17.37-7.9,26.82-9.66,8.22-1.53,16.55-1.02,24.85-1.05,1.31,0,2.7,.25,3.71-.95,1.27,.05,2.55,.11,3.82,.16Zm18.13,29.82c-3.56,0-6.83,1.08-9.95,2.75,3.46-.38,7.07-.16,9.92-2.79,.34-.26,1.35,.46,1.07-.72-.35,.25-.69,.5-1.04,.75ZM25.13,9.04c1.49-.11,3.03,.02,4.45-.35,14.43-3.84,28.97-4.46,43.66-1.71,3.95,.74,7.94,1.32,11.9,1.98-.39-.89-.91-1.35-1.5-1.52-11.95-3.31-24.22-4.12-36.44-3.11-7.42,.61-15.2,.89-22.04,4.75-.34,.26-1.34-.45-1.07,.71,.35-.25,.69-.5,1.04-.75Zm49.83,25.35c-16.78,1.81-33.44,1.14-49.9-3.05,16.3,6.02,32.97,6.32,49.9,3.05ZM21.53,10.58c-.25-.02-.51-.04-.76-.07,.12,.09,.23,.25,.36,.26,.13,.01,.27-.12,.4-.2Z"/>
    <path class="cls-2" d="M99.29,37.05c3.64-2.66,7.68-4.52,11.88-6.08-.02,5.97-.25,11.95,0,17.91,.35,8.32-3.19,14.35-10.11,18.6-3.79,2.33-7.72,4.42-12.23,5.6,3.57-12.16,7.66-23.9,10.46-36.02Z"/>
    <path class="cls-1" d="M25.08,38.58c8.18,1.08,16.31,2.34,24.47,3.44-8.37,.3-16.53-.81-24.47-3.44Z"/>
    <path class="cls-3" d="M10.68,31.12c.32,.25,.86,.45,.96,.79,.17,.56-.35,.9-.83,.71-.38-.15-.64-.63-.95-.96,.24-.15,.47-.31,.82-.54Z"/>
    <path class="cls-3" d="M21.16,36.03c-.73-.13-1.45-.27-2.18-.4,.08-.13,.14-.34,.25-.38,.84-.26,1.46,.08,1.91,.8,0,0,.02-.03,.02-.03Z"/>
    <path class="cls-3" d="M15.67,33.67c.07,.13,.21,.27,.2,.39,0,.12-.17,.23-.26,.34,.02-.24,.04-.49,.06-.73Z"/>
    <path class="cls-1" d="M74.96,34.39c-16.92,3.27-33.59,2.97-49.9-3.05,16.46,4.18,33.12,4.86,49.9,3.05Z"/>
    <path class="cls-1" d="M88.11,31.03c-2.85,2.63-6.47,2.41-9.92,2.79,3.12-1.67,6.39-2.76,9.95-2.75l-.03-.03Z"/>
    <path class="cls-1" d="M25.13,9.04c-.35,.25-.69,.5-1.04,.75-.27-1.17,.73-.45,1.07-.71,0,0-.03-.03-.03-.03Z"/>
    <path class="cls-1" d="M88.14,31.06c.35-.25,.69-.5,1.04-.75,.28,1.18-.72,.46-1.07,.72,0,0,.03,.03,.03,.03Z"/>
    <path class="cls-1" d="M21.53,10.59c-.14,.07-.28,.2-.4,.19-.13-.01-.24-.17-.36-.26,.25,.02,.51,.04,.76,.07Z"/>
  </g>
</svg>