<?xml version="1.0" encoding="UTF-8"?>
<svg id="Layer_1" data-name="Layer 1" xmlns="http://www.w3.org/2000/svg" viewBox="0 0 9.77 9.74">
  <defs>
    <style>
      .cls-1 {
        fill: #faa641;
      }

      .cls-2 {
        fill: #ffd249;
      }

      .cls-3 {
        fill: #febf2f;
      }

      .cls-4 {
        fill: #ce6741;
      }

      .cls-5 {
        fill: #fcf286;
      }

      .cls-6 {
        fill: #bf3b27;
      }

      .cls-7 {
        fill: none;
      }

      .cls-8 {
        fill: #ab2f24;
      }

      .cls-9 {
        fill: #db4827;
      }

      .cls-10 {
        fill: #fec030;
      }
    </style>
  </defs>
  <rect class="cls-7" x="-40.96" y="-40.51" width="95" height="95"/>
  <g>
    <g>
      <path class="cls-9" d="M4.89,.14c2.61,0,4.73,2.12,4.73,4.74,0,2.59-2.11,4.74-4.78,4.72C2.24,9.57,.15,7.46,.15,4.86,.16,2.25,2.28,.14,4.89,.14ZM1.53,7.07c.4,.61,.92,1.08,1.57,1.4,.74,.37,1.53,.5,2.35,.37,1.36-.21,2.37-.94,3.01-2.16,.36-.67,.48-1.4,.42-2.16-.04-.47-.16-.91-.35-1.34-.24-.53-.59-.99-1.03-1.37-.15-.13-.32-.26-.5-.36-.08-.06-.16-.1-.25-.15-.74-.39-1.53-.53-2.36-.43-.98,.13-1.81,.56-2.48,1.3-.28,.31-.5,.65-.67,1.02-.29,.65-.41,1.33-.34,2.05,.05,.55,.21,1.06,.48,1.54,.05,.09,.1,.19,.16,.27Z"/>
      <path class="cls-6" d="M1.53,7.07c-.07-.08-.11-.18-.16-.27-.26-.48-.42-1-.48-1.54-.07-.71,.05-1.39,.34-2.05,.17-.38,.4-.72,.67-1.02,.67-.74,1.5-1.17,2.48-1.3,.83-.11,1.62,.04,2.36,.43,.09,.04,.17,.09,.25,.15,.07,.14,.16,.27,.22,.41,.08,.18,.16,.35,.21,.54-.04-.04-.08-.08-.12-.12-.25-.24-.53-.44-.84-.6-.69-.35-1.42-.47-2.19-.34-1.14,.2-2,.81-2.55,1.82-.35,.63-.47,1.31-.4,2.03,.06,.59,.26,1.12,.58,1.61,.01,.02,.03,.04,.05,.06,0,0,0,0,0,0,0,0,0,0,0,0-.01-.03-.02-.05-.03-.08-.32-.65-.43-1.33-.33-2.05,.12-.9,.54-1.65,1.23-2.23,.75-.63,1.63-.9,2.61-.82,.54,.05,1.05,.22,1.51,.5,.19,.12,.37,.24,.53,.4,0,.01,0,.03,0,.04,.12,.47,.15,.95,.09,1.43-.06,.51-.21,.99-.46,1.44-.25,.45-.57,.85-.96,1.18-.4,.33-.84,.58-1.33,.73-.54,.17-1.09,.23-1.66,.17-.55-.06-1.07-.22-1.56-.5-.03-.02-.06-.04-.1-.04Z"/>
      <path class="cls-8" d="M7.43,2.41c-.05-.19-.13-.36-.21-.54-.07-.14-.15-.27-.22-.41,.18,.1,.34,.22,.5,.36,.44,.38,.79,.84,1.03,1.37,.2,.43,.32,.87,.35,1.34,.06,.76-.06,1.48-.42,2.16-.64,1.22-1.65,1.95-3.01,2.16-.82,.13-1.61,0-2.35-.37-.65-.32-1.18-.79-1.57-1.4,.04,0,.07,.02,.1,.04,.49,.27,1,.44,1.56,.5,.56,.06,1.12,0,1.66-.17,.49-.16,.93-.4,1.33-.73,.4-.33,.72-.72,.96-1.18,.25-.45,.39-.93,.46-1.44,.06-.48,.03-.96-.09-1.43,0-.01,0-.02,0-.04,.02,.01,.03,.03,.05,.04,.11,.09,.19,.2,.29,.29,0,0,.01,.01,.02,.02,0,0,0,0,0,0h0s0-.02-.01-.03c-.01-.02-.03-.05-.04-.07-.11-.16-.23-.31-.36-.46Z"/>
      <path class="cls-4" d="M7.43,2.41c.13,.15,.26,.3,.36,.46,.02,.02,.03,.05,.04,.07,0,0,0,0,0,0-.1-.1-.18-.21-.29-.29-.02-.01-.03-.03-.05-.04-.16-.16-.34-.29-.53-.4-.47-.29-.97-.46-1.51-.5-.98-.08-1.86,.19-2.61,.82-.69,.58-1.11,1.33-1.23,2.23-.1,.71,.01,1.4,.33,2.05,.01,.02,.02,.05,.03,.08h0s-.04-.04-.05-.06c-.33-.49-.52-1.03-.58-1.61-.07-.72,.05-1.4,.4-2.03,.56-1.01,1.41-1.63,2.55-1.82,.76-.13,1.49,0,2.19,.34,.31,.16,.59,.36,.84,.6,.04,.04,.08,.08,.12,.12Z"/>
      <path class="cls-4" d="M7.83,2.94v.03s.01,0,.01,0c0,0-.01-.01-.02-.02,0,0,0,0,0,0Z"/>
      <polygon class="cls-4" points="7.85 2.96 7.85 2.97 7.84 2.96 7.85 2.96"/>
    </g>
    <g>
      <path class="cls-5" d="M2.46,4.53s.02,.04,.04,.06c.11,.11,.24,.19,.39,.25,.07,.03,.15,.05,.23,.06,.11,.02,.22,.02,.32,0,.17-.02,.32-.08,.47-.17,.15-.1,.27-.22,.36-.38,.06-.11,.12-.22,.13-.34,.05,.04,.09,.08,.15,.11,.11,.06,.22,.09,.35,.09,0,.8,0,1.6,0,2.41,0,0,0,0,0,0-.82,0-1.65,0-2.47,0-.01,0-.02,0-.03,0,0,0-.02,0-.02,.01,0,.14,0,.29,0,.43,0,.07,0,.13,0,.2-.02,0-.01-.03-.01-.04,0-.19,0-.38,0-.57,0-.05-.03-.09-.05-.13-.08-.13-.14-.28-.19-.42-.02-.06-.05-.12-.07-.18-.01-.06-.04-.12-.05-.18-.02-.06-.03-.13-.05-.19-.01-.05-.02-.09-.03-.14-.02-.11-.05-.23-.06-.34-.02-.11-.03-.22-.05-.34,.09,.02,.18,.02,.28,0,.12-.02,.23-.07,.32-.16,.02-.02,.04-.05,.06-.06Z"/>
      <path class="cls-3" d="M4.88,6.64c0-.8,0-1.6,0-2.41,0,0,0,0,0,0,.05,0,.1,0,.15-.01,.11-.03,.21-.08,.3-.15,.01,0,.02-.02,.04-.02,.04,.16,.1,.3,.2,.43,.12,.16,.28,.28,.47,.36,.08,.03,.17,.06,.26,.07,.1,.02,.2,.02,.3,0,.19-.02,.36-.09,.52-.2,.07-.05,.13-.11,.19-.17,.02,0,.03,.02,.05,.04,.04,.04,.09,.07,.13,.09,.15,.08,.31,.1,.48,.07-.03,.19-.05,.39-.09,.58-.02,.1-.04,.2-.06,.29-.03,.11-.06,.22-.09,.33-.07,.2-.14,.4-.24,.58-.02,.04-.04,.07-.06,.1-.02,0-.03,0-.05,0-.83,0-1.66,0-2.48,0Z"/>
      <path class="cls-1" d="M4.88,6.64c.83,0,1.66,0,2.48,0,.02,0,.03,0,.05,0,0,.21,0,.42,0,.63,0,.1-.05,.17-.14,.21-.03,.01-.07,.02-.11,.02-.75,0-1.5,0-2.25,0-.77,0-1.54,0-2.31,0-.01,0-.03,0-.04,0,.02,0,.03,0,.05,0,.74,0,1.48,0,2.22,0,.03,0,.04,0,.04-.04,0-.26,0-.53,0-.79,0,0,0,0,0-.01h0Z"/>
      <path class="cls-10" d="M4.88,6.65c0,.26,0,.53,0,.79,0,.03-.01,.04-.04,.04-.74,0-1.48,0-2.22,0-.02,0-.03,0-.05,0-.12,0-.21-.08-.21-.2,0-.07,0-.13,0-.2,0-.14,0-.29,0-.43,.02,0,.03,0,.05,0,.82,0,1.65,0,2.47,0Z"/>
      <path class="cls-10" d="M2.46,4.53s-.04,.04-.06,.06c-.09,.08-.2,.13-.32,.16-.09,.02-.19,.01-.28,0-.15-.04-.28-.11-.37-.23-.07-.08-.11-.16-.14-.26-.02-.07-.03-.14-.03-.21,0-.13,.04-.25,.12-.36,.09-.14,.22-.24,.39-.28,.11-.03,.23-.03,.34,0,.17,.03,.3,.12,.4,.26,.06,.08,.1,.16,.12,.26,.02,.09,.02,.19,0,.28-.02,.12-.07,.23-.15,.33,0,0,0,0-.01,.01Z"/>
      <path class="cls-1" d="M7.97,4.75c-.17,.03-.33,.02-.48-.07-.05-.03-.09-.05-.13-.09-.01-.01-.02-.03-.05-.04-.05-.06-.09-.12-.13-.19-.04-.1-.06-.2-.06-.31,0-.13,.04-.25,.11-.35,.09-.13,.21-.22,.36-.27,.11-.04,.22-.04,.34-.02,.15,.02,.27,.09,.37,.2,.14,.15,.21,.33,.19,.54-.02,.23-.13,.41-.33,.53-.06,.04-.13,.07-.21,.08Z"/>
      <path class="cls-1" d="M5.37,4.04s-.03,.01-.04,.02c-.09,.07-.19,.12-.3,.15-.05,.01-.1,0-.15,.01,0-.46,0-.91,0-1.37,.1-.01,.2,.02,.29,.06,.16,.08,.28,.2,.35,.37,.04,.1,.06,.21,.05,.32-.02,.15-.07,.29-.18,.4-.01,.01-.02,.02-.02,.04Z"/>
      <path class="cls-10" d="M4.88,2.85c0,.46,0,.91,0,1.37,0,0,0,0,0,0-.12,0-.24-.03-.35-.09-.05-.03-.1-.07-.15-.11-.07-.07-.12-.15-.15-.24-.02-.05-.03-.09-.04-.14,0-.04-.02-.07-.01-.11,.02-.25,.12-.45,.35-.59,.1-.06,.2-.09,.31-.1,.01,0,.03,0,.04,0Z"/>
      <path class="cls-2" d="M4.88,6.65c-.82,0-1.65,0-2.47,0-.02,0-.03,0-.05,0,0-.01,0-.01,.02-.01,.01,0,.02,0,.03,0,.82,0,1.65,0,2.47,0,0,0,0,0,0,.01Z"/>
    </g>
  </g>
</svg>