<svg width="116" height="98" viewBox="0 0 116 98" fill="none" xmlns="http://www.w3.org/2000/svg">
<g clip-path="url(#clip0_910_4620)">
<path d="M0 16.4148C2.18845 16.3966 4.3769 16.3331 6.56233 16.3785C7.37354 16.3966 7.72163 16.1484 7.97286 15.3675C9.51356 10.5668 11.142 5.7964 12.6736 0.99271C12.9794 0.0331821 13.273 -0.190809 14.29 0.148204C30.3144 5.47858 46.357 10.7605 62.3905 16.0667C63.011 16.2725 63.6225 16.3663 64.2702 16.3663C81.1059 16.3603 97.9445 16.3694 114.78 16.3361C115.761 16.3361 116.006 16.5449 116.003 17.5499C115.97 38.3871 115.97 59.2243 116.003 80.0584C116.003 81.0482 115.785 81.3297 114.786 81.2783C112.979 81.1844 111.163 81.2964 109.353 81.2298C108.569 81.2026 108.26 81.4569 108.021 82.1954C106.468 87.0324 104.834 91.8422 103.293 96.6822C102.993 97.6205 102.682 97.7749 101.74 97.4601C85.7128 92.1358 69.6672 86.8569 53.6307 81.5507C52.9738 81.3328 52.323 81.245 51.639 81.245C34.764 81.251 17.889 81.251 1.01704 81.245C0.678026 81.245 0.34204 81.2087 0.0030269 81.1905V16.4148H0ZM57.9834 23.1527C45.8303 23.1527 33.6773 23.1617 21.5243 23.1345C20.7524 23.1345 20.4619 23.3282 20.2439 24.1031C18.4066 30.5625 14.2386 34.7457 7.77006 36.583C7.06479 36.7828 6.7621 36.9947 6.76816 37.8241C6.81356 45.1461 6.8075 52.4652 6.77421 59.7873C6.77118 60.5167 6.95885 60.7982 7.67017 60.995C14.1992 62.8051 18.3945 67.0064 20.247 73.5082C20.4709 74.2922 20.7706 74.4708 21.5334 74.4708C45.8394 74.4496 70.1424 74.4496 94.4485 74.4708C95.2203 74.4708 95.5048 74.274 95.7258 73.4991C97.5873 67.0034 101.777 62.8021 108.312 61.001C108.932 60.8285 109.202 60.6136 109.199 59.8932C109.165 52.4955 109.165 45.1007 109.199 37.703C109.202 36.9765 108.923 36.7707 108.309 36.6012C101.825 34.8062 97.6267 30.6594 95.7621 24.203C95.5139 23.3464 95.19 23.1254 94.3274 23.1284C82.2137 23.1617 70.097 23.1496 57.9834 23.1496V23.1527ZM41.1417 16.3573C40.7936 16.1454 40.6786 16.0455 40.5484 16.0031C33.0841 13.5392 25.6137 11.0935 18.1554 8.6084C17.4773 8.38441 17.3351 8.6084 17.1535 9.18653C16.5057 11.269 15.8489 13.3546 15.0921 15.3977C14.7471 16.333 15.1042 16.3663 15.8579 16.3663C24.2001 16.3482 32.5392 16.3542 41.1447 16.3542L41.1417 16.3573ZM75.049 81.251C75.2004 81.5416 75.4153 81.584 75.6272 81.6536C83.0189 84.0842 90.4136 86.5118 97.7932 88.9727C98.4288 89.1845 98.6226 89.0725 98.8132 88.449C99.4519 86.3635 100.121 84.284 100.865 82.2378C101.171 81.3963 100.999 81.2329 100.148 81.2359C93.5464 81.2631 86.9448 81.251 80.3431 81.251C78.5905 81.251 76.8379 81.251 75.046 81.251H75.049ZM109.177 29.8209C109.177 27.7021 109.174 25.7104 109.18 23.7187C109.18 23.3857 109.162 23.1466 108.714 23.1496C106.832 23.1678 104.946 23.1617 103.063 23.1527C102.639 23.1527 102.527 23.301 102.694 23.6975C103.953 26.6487 106.066 28.6768 109.177 29.8209ZM6.7954 67.7843C6.7954 69.8759 6.81961 71.798 6.78026 73.7171C6.76816 74.3134 6.94674 74.4799 7.53699 74.4677C9.26838 74.4284 11.0028 74.4405 12.7342 74.4617C13.3093 74.4677 13.4727 74.3497 13.2124 73.7594C11.9442 70.896 9.85862 68.9346 6.7954 67.7843ZM109.177 67.7631C106.153 68.9436 104.053 70.8476 102.797 73.6777C102.548 74.2377 102.539 74.4768 103.26 74.4647C104.991 74.4314 106.726 74.4254 108.46 74.4708C109.09 74.4859 109.199 74.2528 109.189 73.6959C109.159 71.7768 109.177 69.8547 109.177 67.7662V67.7631ZM6.7954 29.827C9.84046 28.6768 11.9109 26.7426 13.1791 23.9245C13.4394 23.3464 13.4062 23.1315 12.7039 23.1466C10.9725 23.1799 9.23811 23.1739 7.50672 23.1466C7.00425 23.1406 6.76816 23.2132 6.78026 23.8095C6.81961 25.7679 6.7954 27.7263 6.7954 29.827Z" fill="url(#paint0_linear_910_4620)"/>
<path d="M57.9924 31.3074C67.7027 31.3104 75.5151 39.1531 75.4818 48.8664C75.4455 58.5313 67.6421 66.3044 57.9803 66.3014C48.273 66.2984 40.4575 58.4496 40.4908 48.7423C40.5241 39.0774 48.3245 31.3074 57.9924 31.3104V31.3074ZM57.9924 38.1088C52.0596 38.1058 47.2983 42.8641 47.2953 48.7998C47.2953 54.7326 52.0566 59.4969 57.9894 59.4969C63.9251 59.4969 68.6834 54.7386 68.6864 48.8059C68.6864 42.8671 63.9342 38.1149 57.9954 38.1088H57.9924Z" fill="url(#paint1_linear_910_4620)"/>
<path d="M92.0996 52.2019C90.4045 52.2019 88.7095 52.1747 87.0174 52.217C86.3666 52.2322 86.0851 52.1141 86.1093 51.3695C86.1699 49.6412 86.1487 47.9067 86.1154 46.1754C86.1033 45.6033 86.2365 45.3884 86.857 45.3944C90.3954 45.4217 93.9339 45.4277 97.4723 45.3944C98.1564 45.3884 98.2745 45.6396 98.2593 46.245C98.223 47.9007 98.2079 49.5594 98.2654 51.2121C98.2926 51.981 98.1171 52.2594 97.2907 52.2261C95.5624 52.1595 93.8279 52.2049 92.0966 52.2049L92.0996 52.2019Z" fill="url(#paint2_linear_910_4620)"/>
<path d="M24.188 45.4066C25.9224 45.4066 27.6598 45.4338 29.3942 45.3915C29.9996 45.3763 30.151 45.567 30.1389 46.1482C30.1025 47.922 30.0995 49.6957 30.1389 51.4665C30.154 52.0688 29.9663 52.2171 29.3821 52.2141C25.874 52.1869 22.3627 52.1838 18.8546 52.2141C18.2098 52.2202 18.0282 52.0385 18.0464 51.3999C18.0918 49.6654 18.0918 47.928 18.0464 46.1936C18.0282 45.5398 18.2371 45.3763 18.8667 45.3884C20.6404 45.4278 22.4142 45.4036 24.188 45.4036V45.4066Z" fill="url(#paint3_linear_910_4620)"/>
<path d="M94 0C86.85 0 81 5.85 81 13C81 20.15 86.85 26 94 26C101.15 26 107 20.15 107 13C107 5.85 101.15 0 94 0ZM91.4 19.5L84.9 13L86.733 11.167L91.4 15.821L101.267 5.954L103.1 7.8L91.4 19.5Z" fill="#82FF80"/>
</g>
<defs>
<linearGradient id="paint0_linear_910_4620" x1="58.0015" y1="-0.000488281" x2="58.0015" y2="97.6083" gradientUnits="userSpaceOnUse">
<stop offset="0.0708366" stop-color="#FF7941"/>
<stop offset="1" stop-color="#822600"/>
</linearGradient>
<linearGradient id="paint1_linear_910_4620" x1="57.9863" y1="31.3074" x2="57.9863" y2="66.3014" gradientUnits="userSpaceOnUse">
<stop stop-color="#FF4C01"/>
<stop offset="1" stop-color="#9F3A0F"/>
</linearGradient>
<linearGradient id="paint2_linear_910_4620" x1="92.188" y1="45.3943" x2="92.188" y2="52.2288" gradientUnits="userSpaceOnUse">
<stop stop-color="#D65E2C"/>
<stop offset="1" stop-color="#A03A10"/>
</linearGradient>
<linearGradient id="paint3_linear_910_4620" x1="24.0924" y1="45.3878" x2="24.0924" y2="52.2142" gradientUnits="userSpaceOnUse">
<stop stop-color="#FF4C01"/>
<stop offset="1" stop-color="#C15021"/>
</linearGradient>
<clipPath id="clip0_910_4620">
<rect width="116" height="97.6055" fill="white"/>
</clipPath>
</defs>
</svg>
