<svg width="25" height="25" viewBox="0 0 25 25" fill="none" xmlns="http://www.w3.org/2000/svg">
<g clip-path="url(#clip0_36_569)">
<g opacity="0.85">
<path d="M12.5 25C19.4036 25 25 19.4036 25 12.5C25 5.59644 19.4036 0 12.5 0C5.59644 0 0 5.59644 0 12.5C0 19.4036 5.59644 25 12.5 25Z" fill="#FF4C00"/>
<path d="M12.5 23.1077C18.3585 23.1077 23.1077 18.3585 23.1077 12.5C23.1077 6.64155 18.3585 1.89233 12.5 1.89233C6.64155 1.89233 1.89233 6.64155 1.89233 12.5C1.89233 18.3585 6.64155 23.1077 12.5 23.1077Z" fill="#DE3B00"/>
<path d="M18.0484 3.44641C19.105 5.09556 19.7171 7.05777 19.7171 9.15974C19.7171 15.0184 14.9681 19.7674 9.10944 19.7674C7.07455 19.7674 5.17384 19.1944 3.55823 18.2021C5.44217 21.1454 8.74327 23.0965 12.4972 23.0965C18.3559 23.0965 23.1049 18.3475 23.1049 12.4888C23.1049 8.66499 21.0811 5.31358 18.0456 3.44641H18.0484Z" fill="#C52F05"/>
<path d="M3.74837 13.4699C3.74837 8.29884 7.94112 4.10609 13.1122 4.10609C16.1338 4.10609 18.8227 5.54001 20.5362 7.76217C18.9205 4.95582 15.8878 3.06628 12.4162 3.06628C7.24512 3.06628 3.05237 7.25904 3.05237 12.4301C3.05237 14.5796 3.77632 16.5586 4.99501 18.1378C4.20398 16.7626 3.75116 15.1694 3.75116 13.4699H3.74837Z" fill="#ED7447"/>
</g>
</g>
<defs>
<clipPath id="clip0_36_569">
<rect width="25" height="25" fill="white"/>
</clipPath>
</defs>
</svg>
