<svg width="25" height="25" viewBox="0 0 25 25" fill="none" xmlns="http://www.w3.org/2000/svg">
<g clip-path="url(#clip0_202_1427)">
<g opacity="0.85">
<path d="M12.5 25C19.4036 25 25 19.4036 25 12.5C25 5.59644 19.4036 0 12.5 0C5.59644 0 0 5.59644 0 12.5C0 19.4036 5.59644 25 12.5 25Z" fill="white"/>
<path d="M12.5 23.1077C18.3585 23.1077 23.1077 18.3585 23.1077 12.5C23.1077 6.64155 18.3585 1.89233 12.5 1.89233C6.64155 1.89233 1.89233 6.64155 1.89233 12.5C1.89233 18.3585 6.64155 23.1077 12.5 23.1077Z" fill="#C52F05"/>
<path d="M18.0484 3.44641C19.105 5.09556 19.7171 7.05777 19.7171 9.15974C19.7171 15.0184 14.9681 19.7674 9.10944 19.7674C7.07455 19.7674 5.17384 19.1944 3.55823 18.2021C5.44217 21.1454 8.74327 23.0965 12.4972 23.0965C18.3559 23.0965 23.1049 18.3475 23.1049 12.4888C23.1049 8.66499 21.0811 5.31358 18.0456 3.44641H18.0484Z" fill="#C52F05"/>
<path d="M3.7483 13.4699C3.7483 8.29884 7.94106 4.10609 13.1121 4.10609C16.1337 4.10609 18.8227 5.54001 20.5361 7.76217C18.9205 4.95582 15.8877 3.06628 12.4161 3.06628C7.24506 3.06628 3.05231 7.25904 3.05231 12.4301C3.05231 14.5796 3.77626 16.5586 4.99495 18.1378C4.20392 16.7626 3.7511 15.1694 3.7511 13.4699H3.7483Z" fill="#ED7447"/>
</g>
</g>
<path d="M6.93917 8.98507L9.47779 10.5827L12.008 7.23914C12.0639 7.16518 12.1377 7.10489 12.2233 7.0633C12.3088 7.0217 12.4037 7 12.5 7C12.5962 7 12.6911 7.0217 12.7767 7.0633C12.8622 7.10489 12.9361 7.16518 12.992 7.23914L15.5221 10.5827L18.0608 8.98507C18.1568 8.92473 18.2692 8.89162 18.3846 8.88964C18.5 8.88766 18.6135 8.9169 18.7119 8.9739C18.8102 9.03091 18.8892 9.11329 18.9395 9.21132C18.9898 9.30935 19.0094 9.41893 18.9958 9.52711L18.0027 17.4962C17.9854 17.635 17.9147 17.7629 17.8041 17.8558C17.6935 17.9487 17.5506 18 17.4025 18H7.59739C7.44935 18 7.30646 17.9487 7.19582 17.8558C7.08519 17.7629 7.01451 17.635 6.99719 17.4962L6.00411 9.52654C5.99069 9.41841 6.01032 9.30891 6.06069 9.21097C6.11106 9.11303 6.19007 9.03074 6.28838 8.97381C6.38669 8.91688 6.5002 8.88769 6.61551 8.88969C6.73083 8.89168 6.84313 8.92478 6.93917 8.98507V8.98507ZM12.5 14.5766C12.8206 14.5766 13.1281 14.4564 13.3548 14.2424C13.5815 14.0284 13.7088 13.7381 13.7088 13.4355C13.7088 13.1328 13.5815 12.8426 13.3548 12.6286C13.1281 12.4146 12.8206 12.2943 12.5 12.2943C12.1793 12.2943 11.8719 12.4146 11.6452 12.6286C11.4185 12.8426 11.2911 13.1328 11.2911 13.4355C11.2911 13.7381 11.4185 14.0284 11.6452 14.2424C11.8719 14.4564 12.1793 14.5766 12.5 14.5766Z" fill="black"/>
<defs>
<clipPath id="clip0_202_1427">
<rect width="25" height="25" fill="white"/>
</clipPath>
</defs>
</svg>
