<svg width="45" height="56" viewBox="0 0 53 48" fill="none" xmlns="http://www.w3.org/2000/svg">
<path d="M43.9304 30.5916C40.5761 32.0418 37.2192 33.4812 33.8755 34.9506C33.3993 35.1581 33.1136 35.0434 32.8464 34.6474C32.2486 33.768 31.9867 32.8503 32.3253 31.7633C32.902 29.917 33.8834 28.3001 34.8913 26.6914C35.0421 26.4511 35.2881 26.3746 35.5209 26.2736C38.4784 25.0008 41.4332 23.7253 44.3934 22.4581C44.5971 22.3707 44.7849 22.2532 45.0415 22.3133C46.7451 22.723 48.4646 23.0671 50.0756 23.8155C51.1602 24.318 51.8004 25.151 51.9829 26.3637C52.0569 26.858 51.9564 27.1885 51.4326 27.3933C50.0544 27.9368 48.7026 28.5404 47.3376 29.1222C47.3218 28.2728 47.8482 27.6118 48.0863 26.8498C48.2741 26.2517 48.1418 25.8311 47.5546 25.5935C47.1313 25.4214 46.6842 25.2849 46.3033 25.0391C45.4277 24.471 44.687 25.3012 43.8643 25.2521C43.7744 25.2466 43.6447 25.517 43.576 25.6809C43.2426 26.4729 42.9146 27.2677 42.5998 28.0707C42.5046 28.3138 42.4199 28.6497 42.6236 28.8163C43.2162 29.2943 43.2532 30.1901 43.9252 30.5916H43.9304Z" fill="#FF4C01"/>
<path d="M43.6024 19.3445C40.338 20.7483 37.1133 22.1385 33.849 23.5423C33.849 20.0601 32.7458 16.8864 31.484 13.7619C31.3015 13.3085 31.3729 13.1529 31.8015 12.9726C33.804 12.1369 35.7986 11.282 37.7826 10.3971C38.2482 10.1895 38.4175 10.2797 38.6 10.7549C39.5285 13.1747 40.6792 15.4744 42.1712 17.5829C42.5998 18.1892 43.105 18.7354 43.605 19.3472L43.6024 19.3445Z" fill="#FF4C01"/>
<path d="M33.6109 8.78571C32.1824 9.40022 30.746 9.99562 29.3307 10.6402C28.8731 10.8478 28.5398 10.8396 28.1826 10.4572C26.8441 9.02878 25.9579 7.2972 25.0717 5.56563C24.958 5.34167 24.958 5.1696 25.2304 5.08494C25.2542 5.07674 25.278 5.06309 25.2992 5.05489C25.8627 4.81455 26.4499 4.33932 26.9843 4.39668C27.6165 4.46496 27.5663 5.36352 27.8255 5.89337C27.9948 6.2375 28.1271 6.29486 28.4525 6.13918C29.0265 5.86333 29.6164 5.60933 30.2116 5.38264C30.5396 5.25973 30.5502 5.10406 30.4523 4.7927C30.2751 4.2328 29.6138 3.48992 29.9471 3.18403C30.5608 2.62413 31.4787 2.41929 32.275 2.07516C32.4522 1.99869 32.558 2.1134 32.6189 2.27727C32.6559 2.37559 32.6956 2.47118 32.7353 2.56951C33.1409 3.54181 33.8111 3.82768 34.7457 3.4271C34.9336 3.3479 35.1161 3.24138 35.3092 3.18949C35.8251 3.05566 35.8965 2.81258 35.6796 2.30185C35.0685 0.85978 35.0923 0.848856 36.5023 0.239799C37.3911 -0.145299 37.3779 -0.139837 37.6371 0.805156C38.0762 2.39198 38.526 3.97061 38.645 5.62844C38.6926 6.30578 38.5312 6.72638 37.8382 6.98858C36.407 7.52936 35.0156 8.17938 33.6082 8.78571H33.6109Z" fill="#FF4C01"/>
<path d="M46.5863 30.1052C48.4539 29.2832 50.3189 28.4501 52.1918 27.639C52.832 27.3604 52.6971 28.0377 52.877 28.2999C53.1309 28.6741 52.9722 28.8871 52.578 29.0537C50.4115 29.966 48.2555 30.9 46.0969 31.8286C42.203 33.5029 38.3037 35.1689 34.4177 36.8704C33.8649 37.1135 33.6585 37.0343 33.4151 36.4607C33.1585 35.8599 33.3834 35.7124 33.8543 35.513C37.4017 34.0027 40.9412 32.4677 44.4833 30.9437C44.6473 30.8727 44.8219 30.8345 44.9912 30.7826C45.3271 31.0721 45.7134 31.378 46.1393 31.1622C46.499 30.9792 46.7424 30.5969 46.589 30.108L46.5863 30.1052Z" fill="#FF4C01"/>
<path d="M38.9994 21.9773C40.621 21.2809 42.2373 20.579 43.8615 19.888C44.5705 19.5876 45.1895 19.7787 45.417 20.3468C45.6392 20.904 45.3191 21.4994 44.6102 21.8053C41.3723 23.2037 38.1317 24.5993 34.8912 25.9895C34.1346 26.3145 33.5209 26.1124 33.2934 25.4869C33.0844 24.9134 33.3913 24.3945 34.1399 24.0694C35.7588 23.3703 37.3804 22.6738 38.9994 21.9773Z" fill="#FF4C01"/>
<path d="M34.5606 11.23C33.1294 11.8445 31.701 12.4672 30.2672 13.0736C29.4842 13.4068 28.8863 13.2292 28.6429 12.6202C28.4022 12.0193 28.7197 11.4676 29.5053 11.1289C32.3835 9.88625 35.2616 8.64629 38.1397 7.40906C38.9651 7.05401 39.4889 7.1851 39.764 7.80782C40.0523 8.45784 39.7719 8.98223 38.9175 9.35367C37.4652 9.98458 36.0102 10.6073 34.5553 11.2327L34.5606 11.23Z" fill="#FF4C01"/>
<path d="M46.044 29.6793C45.4885 29.9115 44.9303 30.1464 44.3748 30.3785C43.5203 30.1245 43.4251 29.2205 42.9754 28.6196C42.822 28.4148 42.8881 28.169 42.986 27.945C43.232 27.3742 43.4674 26.7979 43.732 26.2326C44.0283 25.5989 45.3642 25.0472 45.999 25.2903C46.4752 25.4733 46.9487 25.6672 47.409 25.8857C47.9592 26.1479 48.0307 26.7597 47.4884 27.0164C46.3429 27.5572 46.372 28.7043 46.044 29.6766V29.6793ZM45.4488 28.7944C46.1101 28.5186 46.3588 27.9942 46.1234 27.366C45.9303 26.8471 45.1472 26.5221 44.6578 26.7542C44.2134 26.9645 43.941 27.6801 44.1235 28.1553C44.3642 28.7835 44.8774 29.032 45.4488 28.7944Z" fill="#FF4C01"/>
<path d="M46.0441 29.6792C46.3748 28.7097 46.343 27.5598 47.4885 27.019C48.0308 26.7623 47.9593 26.1505 47.4091 25.8883C46.9488 25.6671 46.4753 25.4732 45.9991 25.2929C45.3616 25.0499 44.0283 25.6016 43.7321 26.2352C43.4675 26.7978 43.2321 27.3741 42.9861 27.9477C42.8882 28.1716 42.8221 28.4202 42.9755 28.6223C43.4252 29.2231 43.5178 30.1271 44.3749 30.3811C44.2267 30.4522 44.0786 30.5232 43.9305 30.5914C43.2585 30.19 43.2215 29.2941 42.629 28.8162C42.4226 28.6496 42.5099 28.3136 42.6051 28.0706C42.9173 27.2703 43.2453 26.4728 43.5813 25.6808C43.6501 25.5196 43.7797 25.2465 43.8696 25.252C44.6923 25.3011 45.4304 24.4708 46.3086 25.0389C46.6896 25.2847 47.1366 25.4213 47.5599 25.5934C48.1471 25.8337 48.2794 26.2543 48.0916 26.8497C47.8535 27.6117 47.3271 28.2727 47.343 29.1221C46.9118 29.3078 46.4806 29.4908 46.0494 29.6765L46.0441 29.6792Z" fill="#FF4C01"/>
<path d="M46.5864 30.1055C46.7398 30.5944 46.4964 30.9795 46.1367 31.1597C45.7108 31.3755 45.3245 31.0696 44.9886 30.7801C45.4727 30.4359 46.0044 30.2093 46.5837 30.1055H46.5864Z" fill="#FF4C01"/>
<path d="M49.9962 22.2258C49.9618 22.2832 49.9274 22.3433 49.8903 22.4006C49.8718 22.387 49.8533 22.3733 49.8322 22.3597C49.8851 22.316 49.9406 22.2695 49.9935 22.2258H49.9962Z" fill="#EFEFEF"/>
<path d="M45.4488 28.7944C44.8774 29.032 44.3642 28.7862 44.1235 28.1553C43.941 27.6801 44.2134 26.9645 44.6578 26.7542C45.1472 26.522 45.9303 26.8471 46.1234 27.366C46.3588 27.9942 46.1101 28.5186 45.4488 28.7944Z" fill="#FF4C01"/>
<path d="M14.3297 37.5958C11.608 36.3976 8.89108 35.1912 6.16415 34.0114C5.7768 33.8423 5.68324 33.5939 5.76333 33.184C5.93864 32.271 6.32445 31.5438 7.14511 31.0866C8.53987 30.311 10.0283 29.9286 11.5269 29.5677C11.7509 29.5139 11.9332 29.6201 12.1223 29.703C14.5186 30.7631 16.915 31.8198 19.3097 32.8849C19.4746 32.958 19.648 33.0029 19.7569 33.1996C20.474 34.5127 21.2381 35.7953 21.7067 37.2589C22.023 38.2434 21.8983 39.1542 21.2969 40.0133C21.0515 40.3633 20.8033 40.5038 20.3909 40.3034C19.3029 39.7789 18.195 39.3078 17.0923 38.8151C17.5763 38.2831 18.255 38.2048 18.8307 37.8847C19.2831 37.6341 19.4531 37.2932 19.2618 36.7813C19.1244 36.4119 18.9531 36.0494 18.8823 35.6611C18.7212 34.7664 17.8242 34.8154 17.3916 34.2726C17.3443 34.2133 17.1147 34.2987 16.9811 34.3566C16.3346 34.6358 15.6895 34.92 15.047 35.2174C14.8525 35.3075 14.6101 35.4612 14.6276 35.6905C14.6823 36.3534 14.1832 36.9271 14.3268 37.5925L14.3297 37.5958Z" fill="#FF4C01"/>
<path d="M20.6733 30.4784C18.0289 29.3078 15.4147 28.1534 12.7702 26.9828C14.7913 24.8424 16.0149 22.2046 17.121 19.498C17.2818 19.1057 17.4122 19.0545 17.757 19.2106C19.3644 19.9444 20.9785 20.6615 22.6041 21.3535C22.9856 21.5159 23.0282 21.6768 22.8547 22.0826C21.9707 24.1484 21.281 26.2787 20.8935 28.5041C20.7818 29.1437 20.748 29.7942 20.6732 30.4817L20.6733 30.4784Z" fill="#FF4C01"/>
<path d="M21.2012 17.7643C20.0439 17.2521 18.8932 16.7233 17.7259 16.2378C17.3489 16.0803 17.1668 15.8677 17.1886 15.4102C17.2674 13.6984 17.7756 12.082 18.2839 10.4656C18.3501 10.2571 18.4499 10.1514 18.6518 10.2691C18.6699 10.2788 18.6912 10.2853 18.7078 10.2934C19.1631 10.4967 19.7681 10.5704 20.0343 10.9386C20.349 11.3744 19.7993 11.8954 19.6371 12.3825C19.5323 12.6995 19.5732 12.8172 19.8459 12.9242C20.3277 13.1122 20.8058 13.3236 21.271 13.555C21.5261 13.6838 21.6224 13.5947 21.7483 13.3424C21.9739 12.8878 22.0343 12.0192 22.3987 12.0389C23.0676 12.077 23.701 12.5229 24.347 12.8074C24.4908 12.8708 24.4835 13.0073 24.4225 13.1459C24.3862 13.2294 24.3529 13.3129 24.3181 13.398C23.9812 14.2483 24.1909 14.8415 24.9472 15.1775C25.0985 15.2459 25.2626 15.2941 25.401 15.3825C25.7678 15.6216 25.9489 15.5167 26.1237 15.0676C26.6181 13.8006 26.6378 13.8087 27.7816 14.3127C28.5033 14.6297 28.4927 14.6248 28.0896 15.3671C27.4147 16.616 26.7506 17.8665 25.8552 18.9596C25.4887 19.4056 25.1542 19.5636 24.6136 19.293C23.4976 18.7339 22.3404 18.2666 21.1997 17.7626L21.2012 17.7643Z" fill="#FF4C01"/>
<path d="M16.1005 38.9514C17.6244 39.6095 19.1532 40.2592 20.6737 40.9274C21.1942 41.1549 20.7255 41.4872 20.6742 41.7604C20.5993 42.1486 20.3867 42.1807 20.0691 42.0375C18.3254 41.2486 16.5748 40.4797 14.826 39.7058C11.6718 38.3091 8.51938 36.9042 5.35377 35.5293C4.90281 35.3343 4.83312 35.157 5.02959 34.6529C5.23449 34.1237 5.44611 34.1732 5.82575 34.3439C8.69062 35.6254 11.5653 36.8869 14.4351 38.1567C14.5683 38.2152 14.6883 38.3004 14.8133 38.374C14.8336 38.7612 14.8726 39.1898 15.2365 39.3225C15.5444 39.4342 15.9027 39.3508 16.1004 38.9547L16.1005 38.9514Z" fill="#FF4C01"/>
<path d="M16.5653 29.2296C17.8784 29.8117 19.1918 30.3871 20.5032 30.9742C21.0749 31.2312 21.3109 31.7343 21.1087 32.2252C20.9099 32.7061 20.3849 32.8727 19.81 32.619C17.1836 31.4615 14.5573 30.3007 11.9342 29.1365C11.3215 28.865 11.0948 28.3584 11.3303 27.8323C11.546 27.3496 12.0192 27.2218 12.6274 27.4883C13.9406 28.0671 15.2537 28.6492 16.5653 29.2296Z" fill="#FF4C01"/>
<path d="M20.3148 19.8584C19.156 19.3446 17.9939 18.8375 16.8384 18.317C16.2061 18.034 15.9741 17.5525 16.1911 17.0265C16.4049 16.5072 16.903 16.3659 17.54 16.6471C19.8744 17.6762 22.2072 18.707 24.5384 19.7394C25.2071 20.0353 25.4246 20.4422 25.2174 20.9963C25.0017 21.5755 24.5402 21.7231 23.8457 21.4192C22.6656 20.9023 21.4887 20.3787 20.3102 19.8568L20.3148 19.8584Z" fill="#FF4C01"/>
<path d="M16.0438 38.3519C15.5977 38.1486 15.1485 37.9452 14.7024 37.7419C14.3709 37.0535 14.8422 36.4385 14.9388 35.789C14.9717 35.5676 15.1515 35.4577 15.3363 35.381C15.8055 35.1834 16.2719 34.9758 16.7483 34.7931C17.2821 34.5882 18.3511 35.0813 18.5658 35.6262C18.7265 36.0353 18.8794 36.4495 19.0106 36.8705C19.1668 37.3744 18.8518 37.7949 18.3988 37.6149C17.4429 37.2338 16.7935 37.957 16.0454 38.3503L16.0438 38.3519ZM16.2237 37.4373C16.7545 37.6797 17.1982 37.5123 17.4308 36.9795C17.6238 36.5402 17.3735 35.8527 16.9645 35.6905C16.5933 35.5429 16.0253 35.813 15.8518 36.2188C15.6222 36.7549 15.7656 37.2274 16.2237 37.4373Z" fill="#FF4C01"/>
<path d="M16.0438 38.3515C16.7919 37.9616 17.4414 37.2351 18.3973 37.6162C18.8503 37.7962 19.1653 37.3757 19.0091 36.8718C18.8795 36.4491 18.7266 36.0349 18.5643 35.6275C18.3481 35.0809 17.2806 34.5895 16.7468 34.7944C16.272 34.9754 15.8056 35.183 15.3348 35.3823C15.15 35.4589 14.9686 35.5705 14.9373 35.7903C14.8407 36.4398 14.3679 37.0531 14.7009 37.7432C14.5766 37.6945 14.4524 37.6459 14.3297 37.5956C14.1861 36.9302 14.6853 36.3565 14.6306 35.6936C14.6116 35.4627 14.8555 35.3106 15.05 35.2205C15.6894 34.9231 16.3361 34.6372 16.984 34.3597C17.1161 34.3035 17.3473 34.2164 17.3945 34.2757C17.8271 34.8185 18.7227 34.7679 18.8852 35.6642C18.9561 36.0526 19.1274 36.415 19.2648 36.7844C19.4544 37.298 19.2845 37.6389 18.8336 37.8879C18.2579 38.2079 17.5793 38.2862 17.0952 38.8182C16.7458 38.6638 16.3979 38.5076 16.0484 38.3532L16.0438 38.3515Z" fill="#FF4C01"/>
<path d="M16.1006 38.9516C15.9028 39.3477 15.5429 39.4328 15.2367 39.3195C14.8727 39.1868 14.8338 38.7582 14.8135 38.3709C15.2846 38.461 15.7141 38.6529 16.0991 38.95L16.1006 38.9516Z" fill="#FF4C01"/>
<path d="M22.5848 36.2323C22.5322 36.2461 22.4781 36.2616 22.424 36.2738C22.4216 36.2539 22.4191 36.234 22.4152 36.2124C22.4702 36.2185 22.5283 36.2245 22.5833 36.2306L22.5848 36.2323Z" fill="#EFEFEF"/>
<path d="M16.2237 37.4369C15.7656 37.227 15.6206 36.7562 15.8518 36.2185C16.0253 35.8127 16.5933 35.5426 16.9645 35.6902C17.3735 35.8523 17.6238 36.5399 17.4308 36.9791C17.1982 37.5119 16.7545 37.6793 16.2237 37.4369Z" fill="#FF4C01"/>
</svg>
