<svg width="73" height="102" viewBox="0 0 73 102" fill="none" xmlns="http://www.w3.org/2000/svg">
<path d="M0.454351 0.57108C0.136769 0.561893 -0.180402 0.603149 -0.4883 0.693697C-4.65459 1.9321 -7.23143 5.54894 -7.83187 9.78968C-8.43211 14.0304 -7.39104 18.8144 -5.25442 23.4853C-1.04645 32.6841 7.60882 41.626 18.7088 43.69C17.5681 42.1084 16.4619 40.3372 15.3997 38.424C7.46811 35.4657 1.16215 28.4585 -2.0198 21.5027C-3.89168 17.4107 -4.63182 13.3853 -4.21986 10.475C-3.80771 7.56469 -2.57856 5.6885 0.421817 4.79653C0.435034 4.79253 0.435644 4.78852 0.440524 4.78405C0.461874 4.76522 0.427308 4.7504 0.440524 4.78405C0.44927 4.80376 0.461455 4.82115 0.47631 4.83512C0.583466 4.95115 0.819739 5.3623 0.925065 6.04481C1.13572 7.41078 0.84109 9.7146 -0.729046 12.0886L2.17719 14.6637C4.29551 11.4607 4.95268 8.05375 4.52772 5.30041C4.31544 3.92362 3.8372 2.67274 2.97669 1.741C2.33132 1.04225 1.40147 0.595556 0.454351 0.57108ZM64.5456 0.57108C63.5985 0.595556 62.6689 1.04248 62.0233 1.74123C61.1628 2.67321 60.6846 3.92385 60.4721 5.30064C60.0473 8.05398 60.7045 11.4607 62.8226 14.664L65.7291 12.0888C64.1589 9.71484 63.8643 7.41101 64.0749 6.04505C64.1803 5.36254 64.4165 4.95139 64.5237 4.83536C64.5385 4.82131 64.5507 4.80394 64.5595 4.78429C64.5727 4.75063 64.5381 4.76546 64.5595 4.78429C64.5644 4.78876 64.565 4.79276 64.5782 4.79676C67.5786 5.68873 68.8077 7.56446 69.2199 10.475C69.6318 13.3853 68.8917 17.4107 67.0198 21.5027C63.8379 28.4585 57.5319 35.466 49.6003 38.424C48.5383 40.3372 47.4317 42.1084 46.2912 43.69C57.3912 41.626 66.0465 32.6841 70.2544 23.4853C72.391 18.8144 73.4321 14.0304 72.8319 9.78968C72.2314 5.5487 69.6546 1.9321 65.4883 0.693697C65.1804 0.603149 64.8632 0.561893 64.5456 0.57108ZM8.39206 2.38632C8.82841 10.9843 11.7999 21.9367 15.8212 30.8221C17.9983 35.6331 20.4727 39.8439 22.8893 42.7507C25.3061 45.6577 27.62 47.1023 29.2467 47.1023H35.7533C37.38 47.1023 39.6939 45.6577 42.1107 42.7507C44.5273 39.8439 47.0017 35.6331 49.1788 30.8221C53.2001 21.9365 56.1714 10.9845 56.6079 2.38632H8.39206ZM27.8233 51.3388V55.1044H37.1767V51.3388H27.8233ZM29.1338 59.3406C28.634 65.4519 26.532 72.961 24.165 77.2271H40.835C38.4682 72.961 36.366 65.4519 35.8662 59.3406H29.1338ZM21.3167 81.4634V84.7583H43.6833V81.4634H21.3167ZM14.8101 88.9946V111.117H50.19V88.9946H14.8101ZM19.4867 94.4076H45.5133V105.704H19.4867V94.4076Z" fill="#FF4C01"/>
</svg>
