<svg width="63" height="70" viewBox="0 0 63 70" fill="none" xmlns="http://www.w3.org/2000/svg">
<path d="M11.8811 31.3305C9.62914 35.8964 9.10962 41.0031 13.1435 46.7412L8.81672 52.0818C3.41667 49.8162 0.214167 53.7691 0.214167 53.7691L10.7997 63.9238L16.6169 43.3471L33.2769 40.6454L36.3728 21.1949L30.8765 15.9222C32.5799 13.8196 32.0441 9.56888 30.212 7.81133L22.0693 0L6.73819 18.9234C5.03473 21.026 5.36694 25.0815 7.40261 27.0343L11.8811 31.3305ZM14.8809 26.7348L10.8095 22.8291L22.7338 8.11088L26.8051 12.0165L14.8809 26.7348ZM35.4949 53.9834L39.9734 58.2797C42.0091 60.2325 45.7482 60.0827 47.4517 57.9801L62.7828 39.0567L54.6401 31.2453C52.808 29.4878 48.8653 29.4423 47.1619 31.5449L42.8869 27.4439L38.3661 45.5275L20.6882 47.2528L10.7997 63.9238L16.4996 69.3918C16.4996 69.3918 19.7021 65.4389 16.9594 59.8932L21.201 54.6577C26.918 58.2736 31.9883 56.972 35.4949 53.9834ZM43.3803 54.0744L39.309 50.1688L51.2332 35.4505L55.3046 39.3562L43.3803 54.0744Z" fill="url(#paint0_linear_111_972)"/>
<defs>
<linearGradient id="paint0_linear_111_972" x1="42.4261" y1="19.5283" x2="5.09088" y2="58.4473" gradientUnits="userSpaceOnUse">
<stop stop-color="#FF6727"/>
<stop offset="1" stop-color="#8C2C03"/>
</linearGradient>
</defs>
</svg>
