<svg width="25" height="25" viewBox="0 0 25 25" fill="none" xmlns="http://www.w3.org/2000/svg">
<g clip-path="url(#clip0_205_1429)">
<g opacity="0.69">
<path d="M12.5 25C19.4036 25 25 19.4036 25 12.5C25 5.59644 19.4036 0 12.5 0C5.59644 0 0 5.59644 0 12.5C0 19.4036 5.59644 25 12.5 25Z" fill="white"/>
<path d="M12.5 23.1097C18.3596 23.1097 23.1097 18.3596 23.1097 12.5C23.1097 6.6404 18.3596 1.89026 12.5 1.89026C6.6404 1.89026 1.89026 6.6404 1.89026 12.5C1.89026 18.3596 6.6404 23.1097 12.5 23.1097Z" fill="#FFC501"/>
<path d="M18.0497 3.44482C19.1063 5.09296 19.7199 7.05477 19.7199 9.15966C19.7199 15.0176 14.9708 19.7694 9.11017 19.7694C7.07407 19.7694 5.17555 19.1971 3.56042 18.2038C5.44519 21.1479 8.74422 23.0987 12.5 23.0987C18.3579 23.0987 23.1097 18.3496 23.1097 12.489C23.1097 8.66439 21.0846 5.31308 18.0525 3.44758L18.0497 3.44482Z" fill="#F5B611"/>
<path d="M3.75026 13.4713C3.75026 8.29851 7.94353 4.10525 13.1163 4.10525C16.1402 4.10525 18.8284 5.53877 20.5398 7.76197C18.922 4.95546 15.8926 3.06519 12.4202 3.06519C7.2474 3.06519 3.05414 7.25845 3.05414 12.4312C3.05414 14.5802 3.77778 16.5585 4.99669 18.1406C4.20426 16.7676 3.75302 15.1717 3.75302 13.4741L3.75026 13.4713Z" fill="#FFD453"/>
</g>
</g>
<path d="M13 3C7.47 3 3 7.5 3 13C3 18.5 7.5 23 13 23C18.5 23 23 18.5 23 13C23 7.5 18.5 3 13 3ZM13 21C8.58 21 5 17.42 5 13C5 8.58 8.58 5 13 5C17.42 5 21 8.58 21 13C21 17.42 17.42 21 13 21ZM9 15L8 9L11 11L13 8L15 11L18 9L17 15H9ZM9.56 17C9.22 17 9 16.78 9 16.44V16H17V16.44C17 16.78 16.78 17 16.44 17H9.56Z" fill="#181920"/>
<defs>
<clipPath id="clip0_205_1429">
<rect width="25" height="25" fill="white"/>
</clipPath>
</defs>
</svg>
