<?xml version="1.0" encoding="UTF-8"?>
<svg id="Layer_1" data-name="Layer 1" xmlns="http://www.w3.org/2000/svg" viewBox="0 0 214.69 213.83">
  <defs>
    <style>
      .cls-1 {
        fill: #b08516;
      }

      .cls-2 {
        fill: #b69942;
      }

      .cls-3 {
        fill: #feb746;
      }

      .cls-4 {
        fill: #feb745;
      }

      .cls-5 {
        fill: #b68f0b;
      }

      .cls-6 {
        fill: #5e5f64;
      }

      .cls-7 {
        fill: #b69618;
      }
    </style>
  </defs>
  <g>
    <path class="cls-6" d="M161.18,210.92c.54-.39,1.17-.23,1.75-.24,1.81-.02,3.62-.01,5.43,0,.43,0,.89-.1,1.27,.24h-8.45Z"/>
    <path class="cls-7" d="M108.85,208.26c-52.32,0-94.52-42.34-94.3-95,.21-52.21,42.91-93.92,94.86-93.74,51.69,.18,93.86,42.48,93.84,94.42-.02,52.13-42.25,94.32-94.39,94.32Zm-67.13-50.92c.17,.32,.3,.66,.5,.96,4.21,6.34,9.22,12,15.08,16.82,17.49,14.37,37.58,20.69,60.12,18.32,20.26-2.12,37.26-10.98,50.99-26.06,6.35-6.97,11.23-14.86,14.77-23.58,4.69-11.56,6.44-23.58,5.54-36.01-.57-8.01-2.33-15.74-5.26-23.19-5.42-13.79-14.11-25.16-25.77-34.27-2.02-1.58-4.04-3.19-6.42-4.24-.41-.32-.79-.7-1.24-.95-2.59-1.45-5.18-2.91-7.9-4.14-14.1-6.37-28.82-8.6-44.13-6.46-19.1,2.68-35.21,11.18-48.3,25.39-5.77,6.26-10.36,13.29-13.86,21.05-5.6,12.42-7.85,25.44-6.85,39,.66,8.88,2.74,17.45,6.31,25.64,1.79,4.1,3.75,8.1,6.41,11.71Z"/>
    <path class="cls-5" d="M41.72,157.35c-2.67-3.61-4.63-7.61-6.41-11.71-3.57-8.18-5.66-16.75-6.31-25.64-1-13.56,1.25-26.58,6.85-39,3.5-7.76,8.09-14.79,13.86-21.05,13.08-14.2,29.19-22.71,48.3-25.39,15.31-2.14,30.03,.09,44.13,6.46,2.72,1.23,5.3,2.69,7.9,4.14,.45,.25,.83,.63,1.24,.95,1.96,3.59,4.01,7.14,5.59,10.93,1.02,2.44,2.11,4.86,2.62,7.48-.52-.5-1.05-.99-1.57-1.5-5.31-5.23-11.29-9.56-17.97-12.87-13.24-6.56-27.22-8.88-41.84-6.7-19.72,2.94-35.52,12.59-47.21,28.69-10.2,14.05-14.41,29.89-13.06,47.2,.82,10.52,3.96,20.32,9.22,29.44,1.14,1.98,2.24,4,3.83,5.68,.08,.08,.17,.15,.25,.23l.04,.1s-.05-.09-.05-.09c-.08-.08-.15-.17-.23-.25-.12-.9-.64-1.64-1.02-2.44-6.97-14.55-8.78-29.76-5.48-45.5,3.33-15.91,11.35-29.13,23.84-39.52,14.87-12.37,32.09-17.67,51.32-16.21,10.29,.78,19.96,3.81,28.91,8.99,4.5,2.6,8.82,5.46,12.49,9.19,.05,.28,.1,.55,.17,.83,2.13,8.63,2.71,17.38,1.93,26.22-.6,6.84-2.1,13.49-4.45,19.96-3.53,9.72-8.74,18.46-15.65,26.12-6.99,7.74-15.13,14-24.57,18.58-14.18,6.88-29.09,9.29-44.69,7.52-10.93-1.24-21.16-4.7-30.66-10.26-.41-.24-.88-.39-1.32-.58Z"/>
    <path class="cls-1" d="M159.49,64.51c-.51-2.62-1.6-5.04-2.62-7.48-1.59-3.78-3.63-7.34-5.59-10.93,2.38,1.04,4.4,2.66,6.42,4.24,11.66,9.1,20.35,20.47,25.77,34.27,2.93,7.45,4.69,15.18,5.26,23.19,.89,12.44-.85,24.46-5.54,36.01-3.54,8.72-8.42,16.61-14.77,23.58-13.73,15.08-30.73,23.94-50.99,26.06-22.54,2.36-42.63-3.95-60.12-18.32-5.86-4.82-10.87-10.48-15.08-16.82-.2-.3-.34-.64-.5-.96,.44,.19,.91,.34,1.32,.58,9.5,5.57,19.73,9.02,30.66,10.26,15.6,1.77,30.51-.63,44.69-7.52,9.44-4.58,17.58-10.84,24.57-18.58,6.91-7.66,12.12-16.39,15.65-26.12,2.35-6.47,3.85-13.12,4.45-19.96,.78-8.83,.2-17.59-1.93-26.22-.07-.27-.11-.55-.17-.83,1.71,1.17,2.98,2.79,4.45,4.21,.74,.72,1.23,1.7,2.21,2.18,.1,.29,.25,.53,.53,.68,.02,.02,.05,.03,.07,.05-.02-.02-.04-.05-.05-.07-.15-.25-.3-.5-.45-.75-.26-.45-.51-.91-.79-1.35-2.18-3.38-4.8-6.41-7.45-9.42Z"/>
    <path class="cls-2" d="M159.49,64.51c2.65,3.01,5.28,6.04,7.45,9.42,.28,.44,.53,.9,.79,1.35-.03,.03-.07,.06-.1,.09-.98-.48-1.47-1.46-2.21-2.18-1.47-1.42-2.74-3.05-4.45-4.21-3.67-3.73-8-6.59-12.49-9.19-8.95-5.18-18.62-8.22-28.91-8.99-19.24-1.45-36.46,3.84-51.32,16.21-12.49,10.39-20.51,23.61-23.84,39.52-3.29,15.74-1.49,30.95,5.48,45.5,.38,.79,.9,1.53,1.02,2.44h-.01c-1.59-1.67-2.69-3.7-3.83-5.67-5.26-9.12-8.4-18.92-9.22-29.44-1.35-17.31,2.85-33.15,13.06-47.2,11.69-16.1,27.49-25.75,47.21-28.69,14.62-2.18,28.6,.14,41.84,6.7,6.68,3.31,12.65,7.63,17.97,12.87,.52,.51,1.05,1,1.57,1.5Z"/>
    <polygon class="cls-2" points="54.13 150.09 54.19 150.19 54.14 150.09 54.13 150.09"/>
    <path class="cls-2" d="M53.88,149.82c.08,.09,.17,.18,.25,.27,0,0,0,0,0,0-.09-.08-.18-.17-.27-.25,0,0,.01-.01,.01-.01Z"/>
    <path class="cls-2" d="M180.28,64.17c.16,.27,.33,.54,.49,.81l-.02,.02c-.3-.16-.47-.43-.58-.74,.04-.03,.07-.06,.11-.09Z"/>
    <path class="cls-2" d="M180.77,64.98s.04,.05,.06,.08c-.03-.02-.05-.04-.08-.06,0,0,.02-.02,.02-.02Z"/>
  </g>
  <path class="cls-4" d="M115.79,123.76c-11.68,0-23.36-.11-35.04,.07-3.52,.06-5.31-.67-5.79-4.6-1.15-9.41-2.84-18.75-4.17-28.15-.28-2.02-1.2-4.55,1.33-5.89,2.24-1.19,3.69,.86,5.18,1.93,4.5,3.22,8.88,6.62,13.3,9.97,3.33,2.53,6.06,2.22,8.42-1.44,3.86-5.99,7.83-11.91,11.85-17.79,3.22-4.7,5.75-4.74,8.94-.13,3.83,5.53,7.48,11.18,11.26,16.75,3.69,5.44,5.01,5.65,10.4,1.63,4.28-3.2,8.49-6.49,12.77-9.69,1.24-.93,2.56-2.14,4.27-1.37,2.05,.93,1.88,2.86,1.61,4.64-1.54,10.36-3.24,20.69-4.64,31.07-.44,3.25-2.47,2.99-4.66,2.99-11.68,0-23.36,0-35.04,0Z"/>
  <path class="cls-3" d="M115.9,130.66c11.08,0,22.16,.08,33.24-.05,3.69-.04,6.5-.12,6.14,5.1-.32,4.6-.49,8.3-6.57,8.14-7.91-.21-15.83-.05-23.74-.05-14.24,0-28.49-.02-42.73,.02-2.48,0-5.04-.07-6.04-2.7-1.15-3-1.04-6.37-.15-9.34,.58-1.91,3.14-1.08,4.84-1.09,11.67-.06,23.35-.03,35.02-.03Z"/>
</svg>