<?xml version="1.0" encoding="UTF-8"?>
<svg id="Layer_1" data-name="Layer 1" xmlns="http://www.w3.org/2000/svg" viewBox="0 0 214.69 213.83">
  <defs>
    <style>
      .cls-1 {
        fill: #dc4405;
      }

      .cls-2 {
        fill: #bf3605;
      }

      .cls-3 {
        fill: #cc6540;
      }

      .cls-4 {
        fill: #feb746;
      }

      .cls-5 {
        fill: #feb745;
      }

      .cls-6 {
        fill: #aa2c09;
      }

      .cls-7 {
        fill: none;
        stroke: #fff;
        stroke-miterlimit: 10;
        stroke-width: 14px;
      }
    </style>
  </defs>
  <g>
    <path class="cls-1" d="M106.02,15.05c52.45,0,95.04,42.69,94.97,95.18-.07,52.45-42.61,94.91-95.08,94.91-52.63,0-95.11-42.62-95.07-95.38,.04-52.22,42.74-94.72,95.18-94.71ZM38.48,154.03h-.02c.35,.61,.66,1.26,1.07,1.84,4.26,6.18,9.24,11.72,15.09,16.44,17.85,14.4,38.23,20.48,60.97,17.82,20.82-2.44,38.18-11.87,51.74-27.85,14.63-17.23,20.82-37.33,18.87-59.81-1.36-15.65-7.07-29.68-16.75-42.07-5.76-7.37-12.55-13.61-20.53-18.53-.61-.37-1.22-.73-1.82-1.1-15.54-9.29-32.41-12.7-50.28-10.76-18.25,1.98-33.99,9.64-47.21,22.35-4.91,4.73-9.12,10.07-12.65,15.93-6.92,11.46-10.82,23.87-11.56,37.22-.6,10.84,.83,21.46,4.54,31.7,2.11,5.83,4.74,11.41,8.26,16.54,.1,.1,.19,.2,.29,.29Z"/>
    <path class="cls-2" d="M38.19,153.73c-3.52-5.13-6.15-10.71-8.26-16.54-3.71-10.24-5.14-20.86-4.54-31.7,.74-13.35,4.64-25.76,11.56-37.22,3.53-5.85,7.74-11.2,12.65-15.93,13.22-12.71,28.96-20.37,47.21-22.35,17.87-1.94,34.74,1.47,50.28,10.76,.61,.36,1.22,.73,1.82,1.1,.07,1.67,1.3,2.79,2.01,4.15,2.42,4.64,4.71,9.31,5.98,14.42-1.63-1.53-3.19-3.13-4.88-4.59-22.88-19.66-54.81-23.36-81.05-8.53-23.68,13.38-36,34.14-36.79,61.43-.43,14.7,3.79,28.15,11.9,40.39,.26,.4,.45,.9,1.01,1.11,.13-.56-.18-.9-.35-1.27-6.23-12.73-8.56-26.15-6.8-40.19,2.29-18.29,10.5-33.54,24.54-45.47,15.42-13.1,33.39-18.55,53.5-16.58,15.55,1.52,29.09,7.72,40.63,18.27,.06,.57,.06,1.14,.18,1.7,1.57,7.37,2.35,14.78,1.89,22.35-.47,7.7-1.79,15.2-4.41,22.44-6.25,17.29-17.05,31.05-32.51,41.03-15.42,9.96-32.38,14.08-50.65,12.56-10.53-.88-20.54-3.74-29.93-8.68-1.55-.81-3.01-1.83-4.7-2.37,0,0,.02,0,.02,0-.1-.1-.19-.2-.29-.29Z"/>
    <path class="cls-6" d="M38.46,154.02c1.69,.53,3.15,1.55,4.7,2.37,9.39,4.94,19.4,7.8,29.93,8.68,18.27,1.53,35.23-2.59,50.65-12.56,15.45-9.98,26.26-23.74,32.51-41.03,2.61-7.24,3.94-14.74,4.41-22.44,.46-7.57-.32-14.98-1.89-22.35-.12-.55-.12-1.13-.18-1.7,2.42,1.96,4.36,4.41,6.55,6.59,.15,.07,.16,0,.12-.12-.25-.89-.86-1.57-1.36-2.31-2.09-3.11-4.54-5.93-7.01-8.73-1.27-5.11-3.56-9.78-5.98-14.42-.71-1.36-1.94-2.48-2.01-4.15,7.97,4.92,14.77,11.16,20.53,18.53,9.68,12.39,15.39,26.42,16.75,42.07,1.95,22.48-4.24,42.58-18.87,59.81-13.57,15.98-30.92,25.41-51.74,27.85-22.74,2.66-43.12-3.42-60.97-17.82-5.85-4.72-10.83-10.26-15.09-16.44-.4-.58-.71-1.23-1.07-1.84Z"/>
    <path class="cls-6" d="M38.19,153.73c.1,.1,.19,.2,.29,.29-.1-.1-.19-.2-.29-.29Z"/>
    <path class="cls-3" d="M165.15,71.58c-2.2-2.18-4.13-4.63-6.55-6.59-11.54-10.55-25.08-16.75-40.63-18.27-20.11-1.97-38.08,3.48-53.5,16.58-14.03,11.92-22.24,27.17-24.54,45.47-1.76,14.04,.57,27.46,6.8,40.19,.18,.37,.49,.71,.35,1.27-.56-.2-.75-.71-1.01-1.11-8.1-12.24-12.32-25.69-11.9-40.39,.79-27.29,13.12-48.05,36.79-61.43,26.24-14.83,58.18-11.13,81.05,8.53,1.69,1.45,3.26,3.05,4.88,4.59,2.47,2.8,4.92,5.62,7.01,8.73,.5,.74,1.1,1.43,1.36,2.31-.04,.04-.08,.08-.12,.12Z"/>
    <path class="cls-3" d="M165.28,71.46c.04,.12,.02,.19-.12,.12,.04-.04,.08-.08,.12-.12Z"/>
  </g>
  <circle class="cls-7" cx="105.92" cy="110.1" r="94.35"/>
  <path class="cls-5" d="M107.1,117.07c-11.68,0-23.36-.11-35.04,.07-3.52,.06-5.31-.67-5.79-4.6-1.15-9.41-2.84-18.75-4.17-28.15-.28-2.02-1.2-4.55,1.33-5.89,2.24-1.19,3.69,.86,5.18,1.93,4.5,3.22,8.88,6.62,13.3,9.97,3.33,2.53,6.06,2.22,8.42-1.44,3.86-5.99,7.83-11.91,11.85-17.79,3.22-4.7,5.75-4.74,8.94-.13,3.83,5.53,7.48,11.18,11.26,16.75,3.69,5.44,5.01,5.65,10.4,1.63,4.28-3.2,8.49-6.49,12.77-9.69,1.24-.93,2.56-2.14,4.27-1.37,2.05,.93,1.88,2.86,1.61,4.64-1.54,10.36-3.24,20.69-4.64,31.07-.44,3.25-2.47,2.99-4.66,2.99-11.68,0-23.36,0-35.04,0Z"/>
  <path class="cls-4" d="M107.22,123.97c11.08,0,22.16,.08,33.24-.05,3.69-.04,6.5-.12,6.14,5.1-.32,4.6-.49,8.3-6.57,8.14-7.91-.21-15.83-.05-23.74-.05-14.24,0-28.49-.02-42.73,.02-2.48,0-5.04-.07-6.04-2.7-1.15-3-1.04-6.37-.15-9.34,.58-1.91,3.14-1.08,4.84-1.09,11.67-.06,23.35-.03,35.02-.03Z"/>
</svg>