<?xml version="1.0" encoding="UTF-8"?>
<svg id="Layer_1" data-name="Layer 1" xmlns="http://www.w3.org/2000/svg" viewBox="0 0 214.69 213.83">
  <defs>
    <style>
      .cls-1 {
        fill: #dc4405;
      }

      .cls-2 {
        fill: #ca646c;
      }

      .cls-3 {
        fill: #f3c65f;
      }

      .cls-4 {
        fill: #edcf73;
      }

      .cls-5 {
        fill: #bf3605;
      }

      .cls-6 {
        fill: #cc6540;
      }

      .cls-7 {
        fill: #ca9254;
      }

      .cls-8 {
        fill: #16140f;
      }

      .cls-9 {
        fill: #aa2c09;
      }
    </style>
  </defs>
  <g>
    <path class="cls-1" d="M107.14,19.14c52.45,0,95.04,42.69,94.97,95.18-.07,52.45-42.61,94.91-95.08,94.91-52.63,0-95.11-42.62-95.07-95.38,.04-52.22,42.74-94.72,95.18-94.71ZM39.6,158.11h-.02c.35,.61,.66,1.26,1.07,1.84,4.26,6.18,9.24,11.72,15.09,16.44,17.85,14.4,38.23,20.48,60.97,17.82,20.82-2.44,38.18-11.87,51.74-27.85,14.63-17.23,20.82-37.33,18.87-59.81-1.36-15.65-7.07-29.68-16.75-42.07-5.76-7.37-12.55-13.61-20.53-18.53-.61-.37-1.22-.73-1.82-1.1-15.54-9.29-32.41-12.7-50.28-10.76-18.25,1.98-33.99,9.64-47.21,22.35-4.91,4.73-9.12,10.07-12.65,15.93-6.92,11.46-10.82,23.87-11.56,37.22-.6,10.84,.83,21.46,4.54,31.7,2.11,5.83,4.74,11.41,8.26,16.54,.1,.1,.19,.2,.29,.29Z"/>
    <path class="cls-5" d="M39.31,157.82c-3.52-5.13-6.15-10.71-8.26-16.54-3.71-10.24-5.14-20.86-4.54-31.7,.74-13.35,4.64-25.76,11.56-37.22,3.53-5.85,7.74-11.2,12.65-15.93,13.22-12.71,28.96-20.37,47.21-22.35,17.87-1.94,34.74,1.47,50.28,10.76,.61,.36,1.22,.73,1.82,1.1,.07,1.67,1.3,2.79,2.01,4.15,2.42,4.64,4.71,9.31,5.98,14.42-1.63-1.53-3.19-3.13-4.88-4.59-22.88-19.66-54.81-23.36-81.05-8.53-23.68,13.38-36,34.14-36.79,61.43-.43,14.7,3.79,28.15,11.9,40.39,.26,.4,.45,.9,1.01,1.11,.13-.56-.18-.9-.35-1.27-6.23-12.73-8.56-26.15-6.8-40.19,2.29-18.29,10.5-33.54,24.54-45.47,15.42-13.1,33.39-18.55,53.5-16.58,15.55,1.52,29.09,7.72,40.63,18.27,.06,.57,.06,1.14,.18,1.7,1.57,7.37,2.35,14.78,1.89,22.35-.47,7.7-1.79,15.2-4.41,22.44-6.25,17.29-17.05,31.05-32.51,41.03-15.42,9.96-32.38,14.08-50.65,12.56-10.53-.88-20.54-3.74-29.93-8.68-1.55-.81-3.01-1.83-4.7-2.37,0,0,.02,0,.02,0-.1-.1-.19-.2-.29-.29Z"/>
    <path class="cls-9" d="M39.58,158.11c1.69,.53,3.15,1.55,4.7,2.37,9.39,4.94,19.4,7.8,29.93,8.68,18.27,1.53,35.23-2.59,50.65-12.56,15.45-9.98,26.26-23.74,32.51-41.03,2.61-7.24,3.94-14.74,4.41-22.44,.46-7.57-.32-14.98-1.89-22.35-.12-.55-.12-1.13-.18-1.7,2.42,1.96,4.36,4.41,6.55,6.59,.15,.07,.16,0,.12-.12-.25-.89-.86-1.57-1.36-2.31-2.09-3.11-4.54-5.93-7.01-8.73-1.27-5.11-3.56-9.78-5.98-14.42-.71-1.36-1.94-2.48-2.01-4.15,7.97,4.92,14.77,11.16,20.53,18.53,9.68,12.39,15.39,26.42,16.75,42.07,1.95,22.48-4.24,42.58-18.87,59.81-13.57,15.98-30.92,25.41-51.74,27.85-22.74,2.66-43.12-3.42-60.97-17.82-5.85-4.72-10.83-10.26-15.09-16.44-.4-.58-.71-1.23-1.07-1.84Z"/>
    <path class="cls-9" d="M39.31,157.82c.1,.1,.19,.2,.29,.29-.1-.1-.19-.2-.29-.29Z"/>
    <path class="cls-6" d="M166.27,75.67c-2.2-2.18-4.13-4.63-6.55-6.59-11.54-10.55-25.08-16.75-40.63-18.27-20.11-1.97-38.08,3.48-53.5,16.58-14.03,11.92-22.24,27.17-24.54,45.47-1.76,14.04,.57,27.46,6.8,40.19,.18,.37,.49,.71,.35,1.27-.56-.2-.75-.71-1.01-1.11-8.1-12.24-12.32-25.69-11.9-40.39,.79-27.29,13.12-48.05,36.79-61.43,26.24-14.83,58.18-11.13,81.05,8.53,1.69,1.45,3.26,3.05,4.88,4.59,2.47,2.8,4.92,5.62,7.01,8.73,.5,.74,1.1,1.43,1.36,2.31-.04,.04-.08,.08-.12,.12Z"/>
    <path class="cls-6" d="M166.4,75.55c.04,.12,.02,.19-.12,.12,.04-.04,.08-.08,.12-.12Z"/>
  </g>
  <g>
    <path class="cls-8" d="M160.66,99.62c-2.94,3.99-3.24,8.98-5.06,13.4-.83,2.01,1.37,3.19,2.16,4.66,2.23,4.19-.22,7.93-2.94,8.53-4.83,1.07-5.15,3.86-4.78,7.25,.59,5.47-1.79,7.25-6.88,6.57-4.92-.66-10.05,1.29-14.83-1.18,.95-2.2,2.93-1.76,4.69-1.79,3.63-.05,7.26,0,10.9-.09,1.16-.03,2.86,.46,3.04-1.37,.22-2.27-1.65-1.93-3.04-1.94-6.36-.04-12.72-.17-19.07,0-4.77,.12-9.02-.86-12.4-4.38-1.34-1.39-2.45-2-3.99-.26-3.73,4.22-8.66,4.79-13.92,4.63-5.62-.17-11.26-.1-16.89,0-1.43,.03-3.85-.93-3.94,1.49-.11,2.93,2.58,1.85,4.11,1.86,13.62,.09,27.24,.02,40.86,.08,2.06,0,4.47-.83,5.89,1.64-1.46,2.05-3.64,1.26-5.52,1.27-13.97,.06-27.95-.15-41.91,.13-4.97,.1-7-1.44-6.67-6.49,.2-3.18,.84-6.65-4.45-7.42-2.25-.33-5.47-4.09-3.52-6.83,4.14-5.83,.91-10.82-.26-16.24-.57-2.63-4.38-6.06-.26-8,3.51-1.65,4.15,3.02,5.94,4.98,1.32,1.44,2.09,3.66,4.42,3.58,2.75-.09,3.13-2.61,4.03-4.53,.15-.33,.19-.72,.38-1.01,1.42-2.11,.92-6,4.51-6.03,3.06-.02,3.34,3.39,4.76,5.35,.53,.73,.93,1.55,1.41,2.32,2.96,4.65,5.94,4.71,9.02,.19,.98-1.44,1.49-3.48,3.94-2.99-.3,4.33-2.28,7.92-6.45,8.99-8,2.06-8.88-5.97-12.57-10.11-2.37,3-2.35,6.86-5,9.28-3.21,2.94-6.64,.64-10.43-.22,.72,2.38,1.08,4.13,1.77,5.74,2.81,6.6,1.66,16.57,7.97,19.43,6.3,2.86,14.94,.62,22.56,.54,3.68-.04,6.42-1.97,9.01-4.43,1.64-1.55,1.8-2.52,.37-4.34-2.58-3.26-4.92-6.72-7.15-10.23-1.89-2.98-1.29-5.93,1.08-8.43,2.19-2.31,13.49-2.97,16.43-.9,2.55,1.8,3.93,4.31,3.06,7.51-.32,1.19-1.07,2.29-1.77,3.33-1.41,2.1-2.94,4.13-4.39,6.21-3.61,5.14-3.25,6.83,2.43,9.85,1.55,.82,3.42,1.41,5.15,1.44,5.42,.1,10.85-.12,16.27-.22,2.92,.31,7.09,2.06,8.33-.99,3.13-7.67,5.12-15.81,7.88-24.77-3.48,1.11-5.65,2.65-8.2,2.12-1.28-.66-1.98-1.56-1.24-3.04,4.73,1.18,6.52-2.31,8.6-5.38,1.56-2.29,2.9-5.17,6.55-3.11v4.36Zm-49.99,19.95c1.22-1.48,3.11-2.65,3.01-4.79-.1-2.02-1.51-4.41-3.29-4.37-2.07,.04-3.62,2.54-3.53,4.62,.08,1.82,1.6,3.48,3.81,4.54Zm-2.35-13.28c.1-1.58-.76-2.17-1.99-2.03-2.28,.26-3.62,1.56-3.6,3.95,.01,1.28,.38,3.2,1.68,2.85,2.17-.58,2.89-3.01,3.91-4.77Zm9.78,1.32c-.13-1.9-1.46-3.37-4-3.46-1.08-.04-2.37,.54-1.9,1.89,.77,2.19,1.94,4.48,4.28,5.12,1.01,.28,1.64-1.58,1.62-3.56Z"/>
    <path class="cls-3" d="M145.51,103.75c-.74,1.48-.04,2.38,1.24,3.04-.47,2.02-.94,4.04-1.4,6.07-3.5-.89-5.4,1.05-6.7,3.88-2.02,4.4-3.14,8.8,.45,13.02-.23,.16-.35,.38-.36,.67-5.42,.1-10.85,.32-16.27,.22-1.73-.03-3.61-.62-5.15-1.44-5.68-3.02-6.04-4.72-2.43-9.85,1.46-2.07,2.98-4.1,4.39-6.21,.7-1.04,1.45-2.15,1.77-3.33,.87-3.2-.51-5.72-3.06-7.51-2.94-2.07-14.24-1.41-16.43,.9-2.37,2.5-2.97,5.45-1.08,8.43,2.22,3.52,4.57,6.97,7.15,10.23,1.44,1.82,1.27,2.79-.37,4.34-2.59,2.46-5.33,4.4-9.01,4.43-7.61,.08-16.26,2.32-22.56-.54-6.31-2.87-5.16-12.84-7.97-19.43-.69-1.61-1.05-3.36-1.77-5.74,3.8,.86,7.22,3.16,10.43,.22,2.65-2.42,2.64-6.28,5-9.28,3.7,4.14,4.57,12.17,12.57,10.11,4.16-1.07,6.15-4.65,6.45-8.99,.48-1.19,.97-2.37,1.45-3.55,5.19-1.5,4.63-7.68,8.92-10.68,3.58,6.21,7.05,12.44,10.72,18.56,4.12,6.87,10.06,6.86,14.25,.11,1.17-1.88,2.36-3.75,3.57-5.66,1.57,1.59,1.15,4.38,3.9,4.43,.34,1.46,1.12,2.63,2.3,3.55Zm-18.19,21.98c4.69,.5,6.5-3.07,6.56-6.24,.06-3.21-1.73-6.65-6.31-6.54-3.48,.08-7.68,3.55-6.92,6.58,.81,3.19,2.05,6.8,6.67,6.2Zm-33.95-12.76c-4.81-.12-6.69,3.24-6.57,6.53,.13,3.54,2.2,6.66,7.01,6.32,4.52-.32,6.1-3.51,5.95-6.81-.15-3.4-2.22-6.54-6.39-6.04Zm-9.71,10.73c-.05-3.14-.74-6.1-2.67-8.67-1.14-1.53-2.5-2.79-4.56-2.24-2.04,.55-2.65,2.38-2.92,4.2-.47,3.16,.3,6.15,1.79,8.91,1.12,2.07,2.6,4.66,5.15,4.05,2.77-.66,3.28-3.56,3.21-6.26Z"/>
    <path class="cls-4" d="M124.56,138.73c-1.42-2.47-3.83-1.63-5.89-1.64-13.62-.06-27.24,0-40.86-.08-1.52,0-4.22,1.07-4.11-1.86,.09-2.42,2.51-1.47,3.94-1.49,5.63-.11,11.26-.17,16.89,0,5.26,.16,10.2-.41,13.92-4.63,1.54-1.74,2.65-1.13,3.99,.26,3.38,3.52,7.64,4.5,12.4,4.38,6.35-.16,12.71-.03,19.07,0,1.39,0,3.26-.33,3.04,1.94-.18,1.83-1.88,1.34-3.04,1.37-3.63,.09-7.26,.04-10.9,.09-1.76,.02-3.74-.42-4.69,1.79-1.26-.04-2.51-.08-3.77-.13Z"/>
    <path class="cls-8" d="M143.21,100.21c-2.76-.05-2.34-2.84-3.9-4.43-1.21,1.91-2.4,3.77-3.57,5.66-4.19,6.75-10.13,6.76-14.25-.11-3.66-6.12-7.14-12.34-10.72-18.56-4.29,3-3.73,9.18-8.92,10.68,.17-5.56,3.7-9.59,6.85-13.53,1.97-2.47,3.88,0,5,1.9,3.39,5.77,6.64,11.62,10.01,17.4,3.26,5.59,6.49,5.57,9.86,0,.56-.93,1.09-1.89,1.7-2.78,1.33-1.94,1.99-5.74,5.21-4,2.5,1.35,4.17,4.35,2.73,7.76Z"/>
    <path class="cls-7" d="M145.34,112.86c.47-2.02,.94-4.04,1.4-6.07,2.56,.53,4.73-1.01,8.2-2.12-2.76,8.96-4.75,17.1-7.88,24.77-1.24,3.04-5.42,1.29-8.33,.99,0-.28,.12-.51,.35-.67,2.37,1.11,3.69-.6,4.97-2.01,3.35-3.67,3.82-9.75,1.28-14.89Z"/>
    <path class="cls-2" d="M110.67,119.57c-2.21-1.06-3.74-2.72-3.81-4.54-.09-2.08,1.46-4.58,3.53-4.62,1.78-.03,3.19,2.35,3.29,4.37,.1,2.13-1.79,3.31-3.01,4.79Z"/>
    <path class="cls-2" d="M108.31,106.29c-1.02,1.76-1.74,4.19-3.91,4.77-1.3,.35-1.67-1.57-1.68-2.85-.03-2.4,1.31-3.7,3.6-3.95,1.24-.14,2.1,.45,1.99,2.03Z"/>
    <path class="cls-2" d="M118.1,107.6c.03,1.97-.6,3.83-1.62,3.56-2.34-.64-3.5-2.93-4.28-5.12-.48-1.35,.82-1.93,1.9-1.89,2.54,.09,3.87,1.56,4,3.46Z"/>
    <path class="cls-8" d="M127.32,125.74c-4.62,.61-5.86-3-6.67-6.2-.77-3.03,3.44-6.51,6.92-6.58,4.58-.1,6.37,3.33,6.31,6.54-.06,3.17-1.87,6.74-6.56,6.24Z"/>
    <path class="cls-8" d="M93.37,112.97c4.18-.49,6.24,2.64,6.39,6.04,.15,3.3-1.43,6.49-5.95,6.81-4.81,.34-6.88-2.78-7.01-6.32-.12-3.29,1.76-6.65,6.57-6.53Z"/>
    <path class="cls-8" d="M145.34,112.86c2.54,5.14,2.07,11.22-1.28,14.89-1.28,1.41-2.6,3.12-4.97,2.01-3.59-4.22-2.47-8.62-.45-13.02,1.3-2.83,3.2-4.76,6.7-3.88Zm-1.79,2.62c-4.06,5.09-4.34,6.59-2.37,10.94,2.55-3.05,3.67-6.27,2.37-10.94Z"/>
    <path class="cls-8" d="M83.66,123.7c.07,2.7-.44,5.6-3.21,6.26-2.55,.6-4.03-1.98-5.15-4.05-1.49-2.76-2.25-5.76-1.79-8.91,.27-1.82,.88-3.65,2.92-4.2,2.06-.56,3.42,.71,4.56,2.24,1.93,2.57,2.62,5.53,2.67,8.67Zm-6.75-8.79c-.65,5.2-.45,8.67,2.94,11.91,1.89-4.43,.43-7.58-2.94-11.91Z"/>
    <path class="cls-2" d="M143.55,115.48c1.3,4.68,.18,7.9-2.37,10.94-1.97-4.35-1.69-5.85,2.37-10.94Z"/>
    <path class="cls-2" d="M76.91,114.91c3.37,4.33,4.84,7.48,2.94,11.91-3.39-3.24-3.59-6.71-2.94-11.91Z"/>
  </g>
</svg>