<?xml version="1.0" encoding="UTF-8"?>
<svg id="Layer_1" data-name="Layer 1" xmlns="http://www.w3.org/2000/svg" viewBox="0 0 214.69 213.83">
  <defs>
    <style>
      .cls-1 {
        fill: #ca646c;
      }

      .cls-2 {
        fill: #b08516;
      }

      .cls-3 {
        fill: #f3c65f;
      }

      .cls-4 {
        fill: #edcf73;
      }

      .cls-5 {
        fill: #b69942;
      }

      .cls-6 {
        fill: #ca9254;
      }

      .cls-7 {
        fill: #16140f;
      }

      .cls-8 {
        fill: #b68f0b;
      }

      .cls-9 {
        fill: #5e5f64;
      }

      .cls-10 {
        fill: #b69618;
      }
    </style>
  </defs>
  <g>
    <path class="cls-9" d="M161.83,208.96c.54-.39,1.17-.23,1.75-.24,1.81-.02,3.62-.01,5.43,0,.43,0,.89-.1,1.27,.24h-8.45Z"/>
    <path class="cls-10" d="M109.5,206.3c-52.32,0-94.52-42.34-94.3-95,.21-52.21,42.91-93.92,94.86-93.74,51.69,.18,93.86,42.48,93.84,94.42-.02,52.13-42.25,94.32-94.39,94.32Zm-67.13-50.92c.17,.32,.3,.66,.5,.96,4.21,6.34,9.22,12,15.08,16.82,17.49,14.37,37.58,20.69,60.12,18.32,20.26-2.12,37.26-10.98,50.99-26.06,6.35-6.97,11.23-14.86,14.77-23.58,4.69-11.56,6.44-23.58,5.54-36.01-.57-8.01-2.33-15.74-5.26-23.19-5.42-13.79-14.11-25.16-25.77-34.27-2.02-1.58-4.04-3.19-6.42-4.24-.41-.32-.79-.7-1.24-.95-2.59-1.45-5.18-2.91-7.9-4.14-14.1-6.37-28.82-8.6-44.13-6.46-19.1,2.68-35.21,11.18-48.3,25.39-5.77,6.26-10.36,13.29-13.86,21.05-5.6,12.42-7.85,25.44-6.85,39,.66,8.88,2.74,17.45,6.31,25.64,1.79,4.1,3.75,8.1,6.41,11.71Z"/>
    <path class="cls-8" d="M42.37,155.38c-2.67-3.61-4.63-7.61-6.41-11.71-3.57-8.18-5.66-16.75-6.31-25.64-1-13.56,1.25-26.58,6.85-39,3.5-7.76,8.09-14.79,13.86-21.05,13.08-14.2,29.19-22.71,48.3-25.39,15.31-2.14,30.03,.09,44.13,6.46,2.72,1.23,5.3,2.69,7.9,4.14,.45,.25,.83,.63,1.24,.95,1.96,3.59,4.01,7.14,5.59,10.93,1.02,2.44,2.11,4.86,2.62,7.48-.52-.5-1.05-.99-1.57-1.5-5.31-5.23-11.29-9.56-17.97-12.87-13.24-6.56-27.22-8.88-41.84-6.7-19.72,2.94-35.52,12.59-47.21,28.69-10.2,14.05-14.41,29.89-13.06,47.2,.82,10.52,3.96,20.32,9.22,29.44,1.14,1.98,2.24,4,3.83,5.68,.08,.08,.17,.15,.25,.23l.04,.1s-.05-.09-.05-.09c-.08-.08-.15-.17-.23-.25-.12-.9-.64-1.64-1.02-2.44-6.97-14.55-8.78-29.76-5.48-45.5,3.33-15.91,11.35-29.13,23.84-39.52,14.87-12.37,32.09-17.67,51.32-16.21,10.29,.78,19.96,3.81,28.91,8.99,4.5,2.6,8.82,5.46,12.49,9.19,.05,.28,.1,.55,.17,.83,2.13,8.63,2.71,17.38,1.93,26.22-.6,6.84-2.1,13.49-4.45,19.96-3.53,9.72-8.74,18.46-15.65,26.12-6.99,7.74-15.13,14-24.57,18.58-14.18,6.88-29.09,9.29-44.69,7.52-10.93-1.24-21.16-4.7-30.66-10.26-.41-.24-.88-.39-1.32-.58Z"/>
    <path class="cls-2" d="M160.14,62.55c-.51-2.62-1.6-5.04-2.62-7.48-1.59-3.78-3.63-7.34-5.59-10.93,2.38,1.04,4.4,2.66,6.42,4.24,11.66,9.1,20.35,20.47,25.77,34.27,2.93,7.45,4.69,15.18,5.26,23.19,.89,12.44-.85,24.46-5.54,36.01-3.54,8.72-8.42,16.61-14.77,23.58-13.73,15.08-30.73,23.94-50.99,26.06-22.54,2.36-42.63-3.95-60.12-18.32-5.86-4.82-10.87-10.48-15.08-16.82-.2-.3-.34-.64-.5-.96,.44,.19,.91,.34,1.32,.58,9.5,5.57,19.73,9.02,30.66,10.26,15.6,1.77,30.51-.63,44.69-7.52,9.44-4.58,17.58-10.84,24.57-18.58,6.91-7.66,12.12-16.39,15.65-26.12,2.35-6.47,3.85-13.12,4.45-19.96,.78-8.83,.2-17.59-1.93-26.22-.07-.27-.11-.55-.17-.83,1.71,1.17,2.98,2.79,4.45,4.21,.74,.72,1.23,1.7,2.21,2.18,.1,.29,.25,.53,.53,.68,.02,.02,.05,.03,.07,.05-.02-.02-.04-.05-.05-.07-.15-.25-.3-.5-.45-.75-.26-.45-.51-.91-.79-1.35-2.18-3.38-4.8-6.41-7.45-9.42Z"/>
    <path class="cls-5" d="M160.14,62.55c2.65,3.01,5.28,6.04,7.45,9.42,.28,.44,.53,.9,.79,1.35-.03,.03-.07,.06-.1,.09-.98-.48-1.47-1.46-2.21-2.18-1.47-1.42-2.74-3.05-4.45-4.21-3.67-3.73-8-6.59-12.49-9.19-8.95-5.18-18.62-8.22-28.91-8.99-19.24-1.45-36.46,3.84-51.32,16.21-12.49,10.39-20.51,23.61-23.84,39.52-3.29,15.74-1.49,30.95,5.48,45.5,.38,.79,.9,1.53,1.02,2.44h-.01c-1.59-1.67-2.69-3.7-3.83-5.67-5.26-9.12-8.4-18.92-9.22-29.44-1.35-17.31,2.85-33.15,13.06-47.2,11.69-16.1,27.49-25.75,47.21-28.69,14.62-2.18,28.6,.14,41.84,6.7,6.68,3.31,12.65,7.63,17.97,12.87,.52,.51,1.05,1,1.57,1.5Z"/>
    <polygon class="cls-5" points="54.79 148.13 54.84 148.23 54.8 148.12 54.79 148.13"/>
    <path class="cls-5" d="M54.54,147.86c.08,.09,.17,.18,.25,.27,0,0,0,0,0,0-.09-.08-.18-.17-.27-.25,0,0,.01-.01,.01-.01Z"/>
    <path class="cls-5" d="M180.93,62.2c.16,.27,.33,.54,.49,.81l-.02,.02c-.3-.16-.47-.43-.58-.74,.04-.03,.07-.06,.11-.09Z"/>
    <path class="cls-5" d="M181.42,63.01s.04,.05,.06,.08c-.03-.02-.05-.04-.08-.06,0,0,.02-.02,.02-.02Z"/>
  </g>
  <g>
    <path class="cls-7" d="M159.74,95.87c-2.94,3.99-3.24,8.98-5.06,13.4-.83,2.01,1.37,3.19,2.16,4.66,2.23,4.19-.22,7.93-2.94,8.53-4.83,1.07-5.15,3.86-4.78,7.25,.59,5.47-1.79,7.25-6.88,6.57-4.92-.66-10.05,1.29-14.83-1.18,.95-2.2,2.93-1.76,4.69-1.79,3.63-.05,7.26,0,10.9-.09,1.16-.03,2.86,.46,3.04-1.37,.22-2.27-1.65-1.93-3.04-1.94-6.36-.04-12.72-.17-19.07,0-4.77,.12-9.02-.86-12.4-4.38-1.34-1.39-2.45-2-3.99-.26-3.73,4.22-8.66,4.79-13.92,4.63-5.62-.17-11.26-.1-16.89,0-1.43,.03-3.85-.93-3.94,1.49-.11,2.93,2.58,1.85,4.11,1.86,13.62,.09,27.24,.02,40.86,.08,2.06,0,4.47-.83,5.89,1.64-1.46,2.05-3.64,1.26-5.52,1.27-13.97,.06-27.95-.15-41.91,.13-4.97,.1-7-1.44-6.67-6.49,.2-3.18,.84-6.65-4.45-7.42-2.25-.33-5.47-4.09-3.52-6.83,4.14-5.83,.91-10.82-.26-16.24-.57-2.63-4.38-6.06-.26-8,3.51-1.65,4.15,3.02,5.94,4.98,1.32,1.44,2.09,3.66,4.42,3.58,2.75-.09,3.13-2.61,4.03-4.53,.15-.33,.19-.72,.38-1.01,1.42-2.11,.92-6,4.51-6.03,3.06-.02,3.34,3.39,4.76,5.35,.53,.73,.93,1.55,1.41,2.32,2.96,4.65,5.94,4.71,9.02,.19,.98-1.44,1.49-3.48,3.94-2.99-.3,4.33-2.28,7.92-6.45,8.99-8,2.06-8.88-5.97-12.57-10.11-2.37,3-2.35,6.86-5,9.28-3.21,2.94-6.64,.64-10.43-.22,.72,2.38,1.08,4.13,1.77,5.74,2.81,6.6,1.66,16.57,7.97,19.43,6.3,2.86,14.94,.62,22.56,.54,3.68-.04,6.42-1.97,9.01-4.43,1.64-1.55,1.8-2.52,.37-4.34-2.58-3.26-4.92-6.72-7.15-10.23-1.89-2.98-1.29-5.93,1.08-8.43,2.19-2.31,13.49-2.97,16.43-.9,2.55,1.8,3.93,4.31,3.06,7.51-.32,1.19-1.07,2.29-1.77,3.33-1.41,2.1-2.94,4.13-4.39,6.21-3.61,5.14-3.25,6.83,2.43,9.85,1.55,.82,3.42,1.41,5.15,1.44,5.42,.1,10.85-.12,16.27-.22,2.92,.31,7.09,2.06,8.33-.99,3.13-7.67,5.12-15.81,7.88-24.77-3.48,1.11-5.65,2.65-8.2,2.12-1.28-.66-1.98-1.56-1.24-3.04,4.73,1.18,6.52-2.31,8.6-5.38,1.56-2.29,2.9-5.17,6.55-3.11v4.36Zm-49.99,19.95c1.22-1.48,3.11-2.65,3.01-4.79-.1-2.02-1.51-4.41-3.29-4.37-2.07,.04-3.62,2.54-3.53,4.62,.08,1.82,1.6,3.48,3.81,4.54Zm-2.35-13.28c.1-1.58-.76-2.17-1.99-2.03-2.28,.26-3.62,1.56-3.6,3.95,.01,1.28,.38,3.2,1.68,2.85,2.17-.58,2.89-3.01,3.91-4.77Zm9.78,1.32c-.13-1.9-1.46-3.37-4-3.46-1.08-.04-2.37,.54-1.9,1.89,.77,2.19,1.94,4.48,4.28,5.12,1.01,.28,1.64-1.58,1.62-3.56Z"/>
    <path class="cls-3" d="M144.59,100.01c-.74,1.48-.04,2.38,1.24,3.04-.47,2.02-.94,4.04-1.4,6.07-3.5-.89-5.4,1.05-6.7,3.88-2.02,4.4-3.14,8.8,.45,13.02-.23,.16-.35,.38-.36,.67-5.42,.1-10.85,.32-16.27,.22-1.73-.03-3.61-.62-5.15-1.44-5.68-3.02-6.04-4.72-2.43-9.85,1.46-2.07,2.98-4.1,4.39-6.21,.7-1.04,1.45-2.15,1.77-3.33,.87-3.2-.51-5.72-3.06-7.51-2.94-2.07-14.24-1.41-16.43,.9-2.37,2.5-2.97,5.45-1.08,8.43,2.22,3.52,4.57,6.97,7.15,10.23,1.44,1.82,1.27,2.79-.37,4.34-2.59,2.46-5.33,4.4-9.01,4.43-7.61,.08-16.26,2.32-22.56-.54-6.31-2.87-5.16-12.84-7.97-19.43-.69-1.61-1.05-3.36-1.77-5.74,3.8,.86,7.22,3.16,10.43,.22,2.65-2.42,2.64-6.28,5-9.28,3.7,4.14,4.57,12.17,12.57,10.11,4.16-1.07,6.15-4.65,6.45-8.99,.48-1.19,.97-2.37,1.45-3.55,5.19-1.5,4.63-7.68,8.92-10.68,3.58,6.21,7.05,12.44,10.72,18.56,4.12,6.87,10.06,6.86,14.25,.11,1.17-1.88,2.36-3.75,3.57-5.66,1.57,1.59,1.15,4.38,3.9,4.43,.34,1.46,1.12,2.63,2.3,3.55Zm-18.19,21.98c4.69,.5,6.5-3.07,6.56-6.24,.06-3.21-1.73-6.65-6.31-6.54-3.48,.08-7.68,3.55-6.92,6.58,.81,3.19,2.05,6.8,6.67,6.2Zm-33.95-12.76c-4.81-.12-6.69,3.24-6.57,6.53,.13,3.54,2.2,6.66,7.01,6.32,4.52-.32,6.1-3.51,5.95-6.81-.15-3.4-2.22-6.54-6.39-6.04Zm-9.71,10.73c-.05-3.14-.74-6.1-2.67-8.67-1.14-1.53-2.5-2.79-4.56-2.24-2.04,.55-2.65,2.38-2.92,4.2-.47,3.16,.3,6.15,1.79,8.91,1.12,2.07,2.6,4.66,5.15,4.05,2.77-.66,3.28-3.56,3.21-6.26Z"/>
    <path class="cls-4" d="M123.64,134.98c-1.42-2.47-3.83-1.63-5.89-1.64-13.62-.06-27.24,0-40.86-.08-1.52,0-4.22,1.07-4.11-1.86,.09-2.42,2.51-1.47,3.94-1.49,5.63-.11,11.26-.17,16.89,0,5.26,.16,10.2-.41,13.92-4.63,1.54-1.74,2.65-1.13,3.99,.26,3.38,3.52,7.64,4.5,12.4,4.38,6.35-.16,12.71-.03,19.07,0,1.39,0,3.26-.33,3.04,1.94-.18,1.83-1.88,1.34-3.04,1.37-3.63,.09-7.26,.04-10.9,.09-1.76,.02-3.74-.42-4.69,1.79-1.26-.04-2.51-.08-3.77-.13Z"/>
    <path class="cls-7" d="M142.29,96.46c-2.76-.05-2.34-2.84-3.9-4.43-1.21,1.91-2.4,3.77-3.57,5.66-4.19,6.75-10.13,6.76-14.25-.11-3.66-6.12-7.14-12.34-10.72-18.56-4.29,3-3.73,9.18-8.92,10.68,.17-5.56,3.7-9.59,6.85-13.53,1.97-2.47,3.88,0,5,1.9,3.39,5.77,6.64,11.62,10.01,17.4,3.26,5.59,6.49,5.57,9.86,0,.56-.93,1.09-1.89,1.7-2.78,1.33-1.94,1.99-5.74,5.21-4,2.5,1.35,4.17,4.35,2.73,7.76Z"/>
    <path class="cls-6" d="M144.43,109.11c.47-2.02,.94-4.04,1.4-6.07,2.56,.53,4.73-1.01,8.2-2.12-2.76,8.96-4.75,17.1-7.88,24.77-1.24,3.04-5.42,1.29-8.33,.99,0-.28,.12-.51,.35-.67,2.37,1.11,3.69-.6,4.97-2.01,3.35-3.67,3.82-9.75,1.28-14.89Z"/>
    <path class="cls-1" d="M109.75,115.82c-2.21-1.06-3.74-2.72-3.81-4.54-.09-2.08,1.46-4.58,3.53-4.62,1.78-.03,3.19,2.35,3.29,4.37,.1,2.13-1.79,3.31-3.01,4.79Z"/>
    <path class="cls-1" d="M107.39,102.54c-1.02,1.76-1.74,4.19-3.91,4.77-1.3,.35-1.67-1.57-1.68-2.85-.03-2.4,1.31-3.7,3.6-3.95,1.24-.14,2.1,.45,1.99,2.03Z"/>
    <path class="cls-1" d="M117.18,103.85c.03,1.97-.6,3.83-1.62,3.56-2.34-.64-3.5-2.93-4.28-5.12-.48-1.35,.82-1.93,1.9-1.89,2.54,.09,3.87,1.56,4,3.46Z"/>
    <path class="cls-7" d="M126.4,121.99c-4.62,.61-5.86-3-6.67-6.2-.77-3.03,3.44-6.51,6.92-6.58,4.58-.1,6.37,3.33,6.31,6.54-.06,3.17-1.87,6.74-6.56,6.24Z"/>
    <path class="cls-7" d="M92.45,109.22c4.18-.49,6.24,2.64,6.39,6.04,.15,3.3-1.43,6.49-5.95,6.81-4.81,.34-6.88-2.78-7.01-6.32-.12-3.29,1.76-6.65,6.57-6.53Z"/>
    <path class="cls-7" d="M144.43,109.11c2.54,5.14,2.07,11.22-1.28,14.89-1.28,1.41-2.6,3.12-4.97,2.01-3.59-4.22-2.47-8.62-.45-13.02,1.3-2.83,3.2-4.76,6.7-3.88Zm-1.79,2.62c-4.06,5.09-4.34,6.59-2.37,10.94,2.55-3.05,3.67-6.27,2.37-10.94Z"/>
    <path class="cls-7" d="M82.74,119.95c.07,2.7-.44,5.6-3.21,6.26-2.55,.6-4.03-1.98-5.15-4.05-1.49-2.76-2.25-5.76-1.79-8.91,.27-1.82,.88-3.65,2.92-4.2,2.06-.56,3.42,.71,4.56,2.24,1.93,2.57,2.62,5.53,2.67,8.67Zm-6.75-8.79c-.65,5.2-.45,8.67,2.94,11.91,1.89-4.43,.43-7.58-2.94-11.91Z"/>
    <path class="cls-1" d="M142.63,111.73c1.3,4.68,.18,7.9-2.37,10.94-1.97-4.35-1.69-5.85,2.37-10.94Z"/>
    <path class="cls-1" d="M75.99,111.16c3.37,4.33,4.84,7.48,2.94,11.91-3.39-3.24-3.59-6.71-2.94-11.91Z"/>
  </g>
</svg>