<?xml version="1.0" encoding="UTF-8"?>
<svg id="Layer_1" data-name="Layer 1" xmlns="http://www.w3.org/2000/svg" viewBox="0 0 214.69 213.83">
  <defs>
    <style>
      .cls-1 {
        fill: #b08516;
      }

      .cls-2 {
        fill: #b69942;
      }

      .cls-3 {
        fill: #16120b;
      }

      .cls-4 {
        fill: #f5d336;
      }

      .cls-5 {
        fill: #b68f0b;
      }

      .cls-6 {
        fill: #fbac3a;
      }

      .cls-7 {
        fill: #5e5f64;
      }

      .cls-8 {
        fill: #b69618;
      }
    </style>
  </defs>
  <g>
    <path class="cls-7" d="M168.12,210.28c.54-.39,1.17-.23,1.75-.24,1.81-.02,3.62-.01,5.43,0,.43,0,.89-.1,1.27,.24h-8.45Z"/>
    <path class="cls-8" d="M115.79,207.62c-52.32,0-94.52-42.34-94.3-95,.21-52.21,42.91-93.92,94.86-93.74,51.69,.18,93.86,42.48,93.84,94.42-.02,52.13-42.25,94.32-94.39,94.32Zm-67.13-50.92c.17,.32,.3,.66,.5,.96,4.21,6.34,9.22,12,15.08,16.82,17.49,14.37,37.58,20.69,60.12,18.32,20.26-2.12,37.26-10.98,50.99-26.06,6.35-6.97,11.23-14.86,14.77-23.58,4.69-11.56,6.44-23.58,5.54-36.01-.57-8.01-2.33-15.74-5.26-23.19-5.42-13.79-14.11-25.16-25.77-34.27-2.02-1.58-4.04-3.19-6.42-4.24-.41-.32-.79-.7-1.24-.95-2.59-1.45-5.18-2.91-7.9-4.14-14.1-6.37-28.82-8.6-44.13-6.46-19.1,2.68-35.21,11.18-48.3,25.39-5.77,6.26-10.36,13.29-13.86,21.05-5.6,12.42-7.85,25.44-6.85,39,.66,8.88,2.74,17.45,6.31,25.64,1.79,4.1,3.75,8.1,6.41,11.71Z"/>
    <path class="cls-5" d="M48.66,156.71c-2.67-3.61-4.63-7.61-6.41-11.71-3.57-8.18-5.66-16.75-6.31-25.64-1-13.56,1.25-26.58,6.85-39,3.5-7.76,8.09-14.79,13.86-21.05,13.08-14.2,29.19-22.71,48.3-25.39,15.31-2.14,30.03,.09,44.13,6.46,2.72,1.23,5.3,2.69,7.9,4.14,.45,.25,.83,.63,1.24,.95,1.96,3.59,4.01,7.14,5.59,10.93,1.02,2.44,2.11,4.86,2.62,7.48-.52-.5-1.05-.99-1.57-1.5-5.31-5.23-11.29-9.56-17.97-12.87-13.24-6.56-27.22-8.88-41.84-6.7-19.72,2.94-35.52,12.59-47.21,28.69-10.2,14.05-14.41,29.89-13.06,47.2,.82,10.52,3.96,20.32,9.22,29.44,1.14,1.98,2.24,4,3.83,5.68,.08,.08,.17,.15,.25,.23l.04,.1s-.05-.09-.05-.09c-.08-.08-.15-.17-.23-.25-.12-.9-.64-1.64-1.02-2.44-6.97-14.55-8.78-29.76-5.48-45.5,3.33-15.91,11.35-29.13,23.84-39.52,14.87-12.37,32.09-17.67,51.32-16.21,10.29,.78,19.96,3.81,28.91,8.99,4.5,2.6,8.82,5.46,12.49,9.19,.05,.28,.1,.55,.17,.83,2.13,8.63,2.71,17.38,1.93,26.22-.6,6.84-2.1,13.49-4.45,19.96-3.53,9.72-8.74,18.46-15.65,26.12-6.99,7.74-15.13,14-24.57,18.58-14.18,6.88-29.09,9.29-44.69,7.52-10.93-1.24-21.16-4.7-30.66-10.26-.41-.24-.88-.39-1.32-.58Z"/>
    <path class="cls-1" d="M166.43,63.87c-.51-2.62-1.6-5.04-2.62-7.48-1.59-3.78-3.63-7.34-5.59-10.93,2.38,1.04,4.4,2.66,6.42,4.24,11.66,9.1,20.35,20.47,25.77,34.27,2.93,7.45,4.69,15.18,5.26,23.19,.89,12.44-.85,24.46-5.54,36.01-3.54,8.72-8.42,16.61-14.77,23.58-13.73,15.08-30.73,23.94-50.99,26.06-22.54,2.36-42.63-3.95-60.12-18.32-5.86-4.82-10.87-10.48-15.08-16.82-.2-.3-.34-.64-.5-.96,.44,.19,.91,.34,1.32,.58,9.5,5.57,19.73,9.02,30.66,10.26,15.6,1.77,30.51-.63,44.69-7.52,9.44-4.58,17.58-10.84,24.57-18.58,6.91-7.66,12.12-16.39,15.65-26.12,2.35-6.47,3.85-13.12,4.45-19.96,.78-8.83,.2-17.59-1.93-26.22-.07-.27-.11-.55-.17-.83,1.71,1.17,2.98,2.79,4.45,4.21,.74,.72,1.23,1.7,2.21,2.18,.1,.29,.25,.53,.53,.68,.02,.02,.05,.03,.07,.05-.02-.02-.04-.05-.05-.07-.15-.25-.3-.5-.45-.75-.26-.45-.51-.91-.79-1.35-2.18-3.38-4.8-6.41-7.45-9.42Z"/>
    <path class="cls-2" d="M166.43,63.87c2.65,3.01,5.28,6.04,7.45,9.42,.28,.44,.53,.9,.79,1.35-.03,.03-.07,.06-.1,.09-.98-.48-1.47-1.46-2.21-2.18-1.47-1.42-2.74-3.05-4.45-4.21-3.67-3.73-8-6.59-12.49-9.19-8.95-5.18-18.62-8.22-28.91-8.99-19.24-1.45-36.46,3.84-51.32,16.21-12.49,10.39-20.51,23.61-23.84,39.52-3.29,15.74-1.49,30.95,5.48,45.5,.38,.79,.9,1.53,1.02,2.44h-.01c-1.59-1.67-2.69-3.7-3.83-5.67-5.26-9.12-8.4-18.92-9.22-29.44-1.35-17.31,2.85-33.15,13.06-47.2,11.69-16.1,27.49-25.75,47.21-28.69,14.62-2.18,28.6,.14,41.84,6.7,6.68,3.31,12.65,7.63,17.97,12.87,.52,.51,1.05,1,1.57,1.5Z"/>
    <polygon class="cls-2" points="61.07 149.45 61.13 149.55 61.08 149.44 61.07 149.45"/>
    <path class="cls-2" d="M60.82,149.18c.08,.09,.17,.18,.25,.27,0,0,0,0,0,0-.09-.08-.18-.17-.27-.25,0,0,.01-.01,.01-.01Z"/>
    <path class="cls-2" d="M187.22,63.53c.16,.27,.33,.54,.49,.81l-.02,.02c-.3-.16-.47-.43-.58-.74,.04-.03,.07-.06,.11-.09Z"/>
    <path class="cls-2" d="M187.71,64.33s.04,.05,.06,.08c-.03-.02-.05-.04-.08-.06,0,0,.02-.02,.02-.02Z"/>
  </g>
  <g>
    <path class="cls-3" d="M163.15,98.84c-3.21,2.08-4.58,5.32-5.67,8.79-1.29,4.07-2.58,8.14-4.12,12.12-2.22,5.73-3.8,11.53-3.08,17.75,.32,2.81-.44,4.14-3.69,4.12-19.59-.13-39.17-.1-58.76-.02-2.74,.01-3.95-.8-3.69-3.66,1.17-12.7-5.76-23.36-8.88-34.98-.4-1.49-1.85-1.78-2.65-2.78-1.81-2.25-1.96-4.55,.07-6.65,1.8-1.87,4.04-2.29,6.23-.68,2.28,1.68,2.9,3.9,1.48,6.5-1.88,3.45-.21,7.98,4.03,11.03,3.8,2.73,6.44,.74,8.8-2.18,2.82-3.5,4.45-7.62,6.13-11.74,.58-1.43,.36-2.33-.5-3.54-1.77-2.49-1.6-5,.92-6.93,2.13-1.63,4.37-1.4,6.23,.5,2.21,2.27,2.18,4.74-.1,6.92-1.04,1-1.77,1.72-1.05,3.27,2.08,4.48,4.07,9.01,7.7,12.5,3.51,3.38,6.08,3.33,9.24-.19,3.25-3.62,4.74-8.18,6.54-12.58,.7-1.72-.67-2.26-1.48-3.22-1.85-2.2-1.89-4.57,.08-6.66,1.79-1.9,4.04-2.22,6.23-.62,2.54,1.86,3.15,4.46,1.11,6.81-1.53,1.76-1.14,3.17-.43,4.8,1.76,4.07,3.52,8.18,6.62,11.45,3.46,3.65,6.85,3.93,10.15,.21,2.58-2.9,7.43-5.49,3.11-10.85-1.44-1.79-.17-4.16,1.82-5.5,3.27-2.21,5.49-.2,7.62,2.04v3.95Zm-32.28,.23c-1.79,3.35-3.3,6.83-5.39,9.93-4.89,7.26-10.79,7.42-16.46,.72-2.78-3.28-4.68-7.16-6.76-11.28-9.79,17.3-10.26,17.63-20.5,14.6,1.34,3.8,2.79,7.55,3.97,11.38,.64,2.08,1.71,2.83,3.88,2.82,18.43-.07,36.85-.04,55.28-.04,1.31,0,2.81,.2,3.3-1.45,1.26-4.27,3.55-8.26,3.85-13.06-9.55,4.16-11.7,2.73-21.16-13.62Zm-13.74,39.45c8.88,0,17.77-.17,26.65,.09,3.45,.1,3.68-1.48,3.56-4.12-.1-2.37,.31-4.34-3.39-4.3-17.77,.19-35.54,.18-53.3,0-3.44-.04-3.54,1.5-3.6,4.12-.07,2.94,.37,4.41,3.92,4.3,8.71-.27,17.44-.09,26.16-.09Z"/>
    <path class="cls-4" d="M130.87,99.07c9.45,16.35,11.61,17.78,21.16,13.62-.3,4.8-2.59,8.8-3.85,13.06-.49,1.65-1.99,1.45-3.3,1.45-18.43,0-36.85-.03-55.28,.04-2.17,0-3.24-.74-3.88-2.82-1.18-3.83-2.63-7.58-3.97-11.38,10.24,3.02,10.71,2.69,20.5-14.6,2.08,4.13,3.98,8,6.76,11.28,5.67,6.7,11.57,6.54,16.46-.72,2.09-3.1,3.6-6.59,5.39-9.93Z"/>
    <path class="cls-6" d="M117.13,138.52c-8.72,0-17.45-.18-26.16,.09-3.54,.11-3.98-1.36-3.92-4.3,.06-2.63,.16-4.16,3.6-4.12,17.77,.18,35.54,.19,53.3,0,3.7-.04,3.29,1.93,3.39,4.3,.11,2.64-.12,4.22-3.56,4.12-8.88-.26-17.77-.09-26.65-.09Z"/>
  </g>
</svg>