<?xml version="1.0" encoding="UTF-8"?>
<svg id="Layer_1" data-name="Layer 1" xmlns="http://www.w3.org/2000/svg" viewBox="0 0 214.69 213.83">
  <defs>
    <style>
      .cls-1 {
        fill: #dc4405;
      }

      .cls-2 {
        fill: #bf3605;
      }

      .cls-3 {
        fill: #cc6540;
      }

      .cls-4 {
        fill: #16120b;
      }

      .cls-5 {
        fill: #f5d336;
      }

      .cls-6 {
        fill: #fbac3a;
      }

      .cls-7 {
        fill: #aa2c09;
      }

      .cls-8 {
        fill: none;
        stroke: #fff;
        stroke-miterlimit: 10;
        stroke-width: 14px;
      }
    </style>
  </defs>
  <g>
    <path class="cls-1" d="M106.02,21.91c52.45,0,95.04,42.69,94.97,95.18-.07,52.45-42.61,94.91-95.08,94.91-52.63,0-95.11-42.62-95.07-95.38,.04-52.22,42.74-94.72,95.18-94.71ZM38.48,160.88h-.02c.35,.61,.66,1.26,1.07,1.84,4.26,6.18,9.24,11.72,15.09,16.44,17.85,14.4,38.23,20.48,60.97,17.82,20.82-2.44,38.18-11.87,51.74-27.85,14.63-17.23,20.82-37.33,18.87-59.81-1.36-15.65-7.07-29.68-16.75-42.07-5.76-7.37-12.55-13.61-20.53-18.53-.61-.37-1.22-.73-1.82-1.1-15.54-9.29-32.41-12.7-50.28-10.76-18.25,1.98-33.99,9.64-47.21,22.35-4.91,4.73-9.12,10.07-12.65,15.93-6.92,11.46-10.82,23.87-11.56,37.22-.6,10.84,.83,21.46,4.54,31.7,2.11,5.83,4.74,11.41,8.26,16.54,.1,.1,.19,.2,.29,.29Z"/>
    <path class="cls-2" d="M38.19,160.59c-3.52-5.13-6.15-10.71-8.26-16.54-3.71-10.24-5.14-20.86-4.54-31.7,.74-13.35,4.64-25.76,11.56-37.22,3.53-5.85,7.74-11.2,12.65-15.93,13.22-12.71,28.96-20.37,47.21-22.35,17.87-1.94,34.74,1.47,50.28,10.76,.61,.36,1.22,.73,1.82,1.1,.07,1.67,1.3,2.79,2.01,4.15,2.42,4.64,4.71,9.31,5.98,14.42-1.63-1.53-3.19-3.13-4.88-4.59-22.88-19.66-54.81-23.36-81.05-8.53-23.68,13.38-36,34.14-36.79,61.43-.43,14.7,3.79,28.15,11.9,40.39,.26,.4,.45,.9,1.01,1.11,.13-.56-.18-.9-.35-1.27-6.23-12.73-8.56-26.15-6.8-40.19,2.29-18.29,10.5-33.54,24.54-45.47,15.42-13.1,33.39-18.55,53.5-16.58,15.55,1.52,29.09,7.72,40.63,18.27,.06,.57,.06,1.14,.18,1.7,1.57,7.37,2.35,14.78,1.89,22.35-.47,7.7-1.79,15.2-4.41,22.44-6.25,17.29-17.05,31.05-32.51,41.03-15.42,9.96-32.38,14.08-50.65,12.56-10.53-.88-20.54-3.74-29.93-8.68-1.55-.81-3.01-1.83-4.7-2.37,0,0,.02,0,.02,0-.1-.1-.19-.2-.29-.29Z"/>
    <path class="cls-7" d="M38.46,160.88c1.69,.53,3.15,1.55,4.7,2.37,9.39,4.94,19.4,7.8,29.93,8.68,18.27,1.53,35.23-2.59,50.65-12.56,15.45-9.98,26.26-23.74,32.51-41.03,2.61-7.24,3.94-14.74,4.41-22.44,.46-7.57-.32-14.98-1.89-22.35-.12-.55-.12-1.13-.18-1.7,2.42,1.96,4.36,4.41,6.55,6.59,.15,.07,.16,0,.12-.12-.25-.89-.86-1.57-1.36-2.31-2.09-3.11-4.54-5.93-7.01-8.73-1.27-5.11-3.56-9.78-5.98-14.42-.71-1.36-1.94-2.48-2.01-4.15,7.97,4.92,14.77,11.16,20.53,18.53,9.68,12.39,15.39,26.42,16.75,42.07,1.95,22.48-4.24,42.58-18.87,59.81-13.57,15.98-30.92,25.41-51.74,27.85-22.74,2.66-43.12-3.42-60.97-17.82-5.85-4.72-10.83-10.26-15.09-16.44-.4-.58-.71-1.23-1.07-1.84Z"/>
    <path class="cls-7" d="M38.19,160.59c.1,.1,.19,.2,.29,.29-.1-.1-.19-.2-.29-.29Z"/>
    <path class="cls-3" d="M165.15,78.44c-2.2-2.18-4.13-4.63-6.55-6.59-11.54-10.55-25.08-16.75-40.63-18.27-20.11-1.97-38.08,3.48-53.5,16.58-14.03,11.92-22.24,27.17-24.54,45.47-1.76,14.04,.57,27.46,6.8,40.19,.18,.37,.49,.71,.35,1.27-.56-.2-.75-.71-1.01-1.11-8.1-12.24-12.32-25.69-11.9-40.39,.79-27.29,13.12-48.05,36.79-61.43,26.24-14.83,58.18-11.13,81.05,8.53,1.69,1.45,3.26,3.05,4.88,4.59,2.47,2.8,4.92,5.62,7.01,8.73,.5,.74,1.1,1.43,1.36,2.31-.04,.04-.08,.08-.12,.12Z"/>
    <path class="cls-3" d="M165.28,78.32c.04,.12,.02,.19-.12,.12,.04-.04,.08-.08,.12-.12Z"/>
  </g>
  <circle class="cls-8" cx="105.92" cy="116.95" r="94.35"/>
  <g>
    <path class="cls-4" d="M157.88,94.03c-3.21,2.08-4.58,5.32-5.67,8.79-1.29,4.07-2.58,8.14-4.12,12.12-2.22,5.73-3.8,11.53-3.08,17.75,.32,2.81-.44,4.14-3.69,4.12-19.59-.13-39.17-.1-58.76-.02-2.74,.01-3.95-.8-3.69-3.66,1.17-12.7-5.76-23.36-8.88-34.98-.4-1.49-1.85-1.78-2.65-2.78-1.81-2.25-1.96-4.55,.07-6.65,1.8-1.87,4.04-2.29,6.23-.68,2.28,1.68,2.9,3.9,1.48,6.5-1.88,3.45-.21,7.98,4.03,11.03,3.8,2.73,6.44,.74,8.8-2.18,2.82-3.5,4.45-7.62,6.13-11.74,.58-1.43,.36-2.33-.5-3.54-1.77-2.49-1.6-5,.92-6.93,2.13-1.63,4.37-1.4,6.23,.5,2.21,2.27,2.18,4.74-.1,6.92-1.04,1-1.77,1.72-1.05,3.27,2.08,4.48,4.07,9.01,7.7,12.5,3.51,3.38,6.08,3.33,9.24-.19,3.25-3.62,4.74-8.18,6.54-12.58,.7-1.72-.67-2.26-1.48-3.22-1.85-2.2-1.89-4.57,.08-6.66,1.79-1.9,4.04-2.22,6.23-.62,2.54,1.86,3.15,4.46,1.11,6.81-1.53,1.76-1.14,3.17-.43,4.8,1.76,4.07,3.52,8.18,6.62,11.45,3.46,3.65,6.85,3.93,10.15,.21,2.58-2.9,7.43-5.49,3.11-10.85-1.44-1.79-.17-4.16,1.82-5.5,3.27-2.21,5.49-.2,7.62,2.04v3.95Zm-32.28,.23c-1.79,3.35-3.3,6.83-5.39,9.93-4.89,7.26-10.79,7.42-16.46,.72-2.78-3.28-4.68-7.16-6.76-11.28-9.79,17.3-10.26,17.63-20.5,14.6,1.34,3.8,2.79,7.55,3.97,11.38,.64,2.08,1.71,2.83,3.88,2.82,18.43-.07,36.85-.04,55.28-.04,1.31,0,2.81,.2,3.3-1.45,1.26-4.27,3.55-8.26,3.85-13.06-9.55,4.16-11.7,2.73-21.16-13.62Zm-13.74,39.45c8.88,0,17.77-.17,26.65,.09,3.45,.1,3.68-1.48,3.56-4.12-.1-2.37,.31-4.34-3.39-4.3-17.77,.19-35.54,.18-53.3,0-3.44-.04-3.54,1.5-3.6,4.12-.07,2.94,.37,4.41,3.92,4.3,8.71-.27,17.44-.09,26.16-.09Z"/>
    <path class="cls-5" d="M125.6,94.26c9.45,16.35,11.61,17.78,21.16,13.62-.3,4.8-2.59,8.8-3.85,13.06-.49,1.65-1.99,1.45-3.3,1.45-18.43,0-36.85-.03-55.28,.04-2.17,0-3.24-.74-3.88-2.82-1.18-3.83-2.63-7.58-3.97-11.38,10.24,3.02,10.71,2.69,20.5-14.6,2.08,4.13,3.98,8,6.76,11.28,5.67,6.7,11.57,6.54,16.46-.72,2.09-3.1,3.6-6.59,5.39-9.93Z"/>
    <path class="cls-6" d="M111.86,133.71c-8.72,0-17.45-.18-26.16,.09-3.54,.11-3.98-1.36-3.92-4.3,.06-2.63,.16-4.16,3.6-4.12,17.77,.18,35.54,.19,53.3,0,3.7-.04,3.29,1.93,3.39,4.3,.11,2.64-.12,4.22-3.56,4.12-8.88-.26-17.77-.09-26.65-.09Z"/>
  </g>
</svg>