<?xml version="1.0" encoding="UTF-8"?>
<svg id="Layer_2" data-name="Layer 2" xmlns="http://www.w3.org/2000/svg" viewBox="0 0 107.89 107.89">
  <defs>
    <style>
      .cls-1 {
        fill: #442b1f;
      }

      .cls-2 {
        fill: none;
        stroke: #fff;
        stroke-miterlimit: 10;
        stroke-width: 7px;
      }

      .cls-3 {
        fill: #513227;
      }

      .cls-4 {
        fill: #b69942;
      }

      .cls-5 {
        fill: #16120b;
      }

      .cls-6 {
        fill: #4c3b34;
      }

      .cls-7 {
        fill: #f5d336;
      }

      .cls-8 {
        fill: #4c352f;
      }

      .cls-9 {
        fill: #fbac3a;
      }
    </style>
  </defs>
  <g id="Layer_1-2" data-name="Layer 1">
    <g>
      <path class="cls-1" d="M53.92,105.04c-27.95,0-50.49-22.62-50.37-50.75C3.66,26.39,26.47,4.11,54.22,4.21c27.61,.1,50.14,22.69,50.13,50.44-.01,27.85-22.57,50.39-50.42,50.39h0Zm-35.86-27.2c.09,.17,.16,.35,.27,.51,2.25,3.39,4.93,6.41,8.06,8.99,9.34,7.68,20.08,11.05,32.12,9.79,10.82-1.13,19.9-5.87,27.24-13.92,3.39-3.72,6-7.94,7.89-12.6,2.51-6.18,3.44-12.6,2.96-19.24-.3-4.28-1.24-8.41-2.81-12.39-2.9-7.37-7.54-13.44-13.77-18.31-1.08-.84-2.16-1.7-3.43-2.26-.22-.17-.42-.37-.66-.51-1.38-.77-2.77-1.55-4.22-2.21-7.53-3.4-15.4-4.59-23.57-3.45-10.2,1.43-18.81,5.97-25.8,13.56-3.08,3.34-5.53,7.1-7.4,11.24-2.99,6.63-4.19,13.59-3.66,20.83,.35,4.74,1.46,9.32,3.37,13.7,.96,2.19,2,4.33,3.42,6.26h0Z"/>
      <path class="cls-6" d="M18.06,77.84c-1.43-1.93-2.47-4.07-3.42-6.26-1.91-4.37-3.02-8.95-3.37-13.7-.53-7.24,.67-14.2,3.66-20.83,1.87-4.15,4.32-7.9,7.4-11.24,6.99-7.59,15.59-12.13,25.8-13.56,8.18-1.14,16.04,.05,23.57,3.45,1.45,.66,2.83,1.44,4.22,2.21,.24,.13,.44,.34,.66,.51,1.05,1.92,2.14,3.81,2.99,5.84,.54,1.3,1.13,2.6,1.4,4-.28-.27-.56-.53-.84-.8-2.84-2.79-6.03-5.11-9.6-6.88-7.07-3.5-14.54-4.74-22.35-3.58-10.53,1.57-18.97,6.73-25.22,15.33-5.45,7.51-7.7,15.97-6.98,25.21,.44,5.62,2.12,10.85,4.93,15.73,.61,1.06,1.2,2.14,2.05,3.03,.04,.04,.09,.08,.13,.12l.02,.05-.03-.05s-.08-.09-.12-.13c-.06-.48-.34-.88-.54-1.3-3.72-7.77-4.69-15.9-2.93-24.31,1.78-8.5,6.06-15.56,12.74-21.11,7.94-6.61,17.14-9.44,27.41-8.66,5.5,.42,10.66,2.04,15.44,4.8,2.4,1.39,4.71,2.92,6.67,4.91,.03,.15,.05,.29,.09,.44,1.14,4.61,1.45,9.28,1.03,14.01-.32,3.65-1.12,7.21-2.38,10.66-1.89,5.19-4.67,9.86-8.36,13.95-3.73,4.13-8.08,7.48-13.13,9.93-7.57,3.68-15.54,4.96-23.87,4.02-5.84-.66-11.3-2.51-16.38-5.48-.22-.13-.47-.21-.71-.31Z"/>
      <path class="cls-8" d="M80.98,28.24c-.27-1.4-.85-2.69-1.4-4-.85-2.02-1.94-3.92-2.99-5.84,1.27,.56,2.35,1.42,3.43,2.26,6.23,4.86,10.87,10.93,13.77,18.31,1.57,3.98,2.51,8.11,2.81,12.39,.48,6.65-.45,13.07-2.96,19.24-1.89,4.66-4.5,8.87-7.89,12.6-7.33,8.06-16.42,12.79-27.24,13.92-12.04,1.26-22.77-2.11-32.12-9.79-3.13-2.57-5.81-5.6-8.06-8.99-.11-.16-.18-.34-.27-.51,.24,.1,.49,.18,.71,.31,5.07,2.98,10.54,4.82,16.38,5.48,8.33,.95,16.3-.34,23.87-4.02,5.04-2.45,9.39-5.79,13.13-9.93,3.69-4.09,6.47-8.76,8.36-13.95,1.26-3.46,2.06-7.01,2.38-10.66,.42-4.72,.11-9.4-1.03-14.01-.04-.14-.06-.29-.09-.44,.91,.63,1.59,1.49,2.38,2.25,.4,.38,.66,.91,1.18,1.16,.05,.15,.13,.28,.28,.36,.01,.01,.03,.02,.04,.03-.01-.01-.02-.03-.03-.04-.08-.13-.16-.27-.24-.4-.14-.24-.27-.49-.42-.72-1.16-1.81-2.56-3.42-3.98-5.03h0Z"/>
      <path class="cls-3" d="M80.98,28.24c1.42,1.61,2.82,3.23,3.98,5.03,.15,.24,.28,.48,.42,.72-.02,.02-.04,.03-.05,.05-.52-.26-.79-.78-1.18-1.16-.79-.76-1.46-1.63-2.38-2.25-1.96-1.99-4.27-3.52-6.67-4.91-4.78-2.77-9.95-4.39-15.44-4.8-10.28-.77-19.48,2.05-27.41,8.66-6.67,5.55-10.96,12.61-12.74,21.11-1.76,8.41-.8,16.53,2.93,24.31,.2,.42,.48,.82,.54,1.3h0c-.85-.89-1.44-1.98-2.05-3.03-2.81-4.87-4.49-10.11-4.93-15.73-.72-9.25,1.52-17.71,6.98-25.21,6.24-8.6,14.69-13.76,25.22-15.33,7.81-1.16,15.28,.07,22.35,3.58,3.57,1.77,6.76,4.08,9.6,6.88,.28,.27,.56,.53,.84,.8v-.02Z"/>
      <polygon class="cls-4" points="24.69 73.96 24.72 74.01 24.7 73.96 24.69 73.96"/>
      <path class="cls-4" d="M24.56,73.82s.09,.1,.13,.14h0s-.1-.09-.14-.13h0s0-.01,0-.01Z"/>
    </g>
    <g>
      <path class="cls-5" d="M86.23,44.48c-2.25,1.46-3.21,3.73-3.98,6.17-.91,2.86-1.81,5.71-2.89,8.51-1.56,4.02-2.67,8.09-2.16,12.46,.22,1.97-.31,2.91-2.59,2.89-13.75-.09-27.49-.07-41.24-.01-1.92,0-2.77-.56-2.59-2.57,.82-8.91-4.04-16.4-6.23-24.55-.28-1.05-1.3-1.25-1.86-1.95-1.27-1.58-1.38-3.19,.05-4.67,1.26-1.31,2.84-1.61,4.37-.48,1.6,1.18,2.04,2.74,1.04,4.56-1.32,2.42-.15,5.6,2.83,7.74,2.67,1.92,4.52,.52,6.18-1.53,1.98-2.46,3.12-5.35,4.3-8.24,.41-1,.25-1.64-.35-2.48-1.24-1.75-1.12-3.51,.65-4.86,1.49-1.14,3.07-.98,4.37,.35,1.55,1.59,1.53,3.33-.07,4.86-.73,.7-1.24,1.21-.74,2.3,1.46,3.14,2.86,6.32,5.4,8.77,2.46,2.37,4.27,2.34,6.49-.13,2.28-2.54,3.33-5.74,4.59-8.83,.49-1.21-.47-1.59-1.04-2.26-1.3-1.54-1.33-3.21,.06-4.67,1.26-1.33,2.84-1.56,4.37-.44,1.78,1.31,2.21,3.13,.78,4.78-1.07,1.24-.8,2.22-.3,3.37,1.24,2.86,2.47,5.74,4.65,8.04,2.43,2.56,4.81,2.76,7.12,.15,1.81-2.04,5.21-3.85,2.18-7.62-1.01-1.26-.12-2.92,1.28-3.86,2.3-1.55,3.85-.14,5.35,1.43v2.77h0Zm-22.66,.18c-1.26,2.35-2.32,4.79-3.78,6.97-3.43,5.1-7.57,5.21-11.55,.51-1.95-2.3-3.28-5.03-4.74-7.92-6.87,12.14-7.2,12.37-14.39,10.25,.94,2.67,1.96,5.3,2.79,7.99,.45,1.46,1.2,1.99,2.72,1.98,12.94-.05,25.86-.03,38.8-.03,.92,0,1.97,.14,2.32-1.02,.88-3,2.49-5.8,2.7-9.17-6.7,2.92-8.21,1.92-14.85-9.56h0Zm-9.64,27.69c6.23,0,12.47-.12,18.7,.06,2.42,.07,2.58-1.04,2.5-2.89-.07-1.66,.22-3.05-2.38-3.02-12.47,.13-24.94,.13-37.41,0-2.41-.03-2.48,1.05-2.53,2.89-.05,2.06,.26,3.1,2.75,3.02,6.11-.19,12.24-.06,18.36-.06Z"/>
      <path class="cls-7" d="M63.58,44.65c6.63,11.48,8.15,12.48,14.85,9.56-.21,3.37-1.82,6.18-2.7,9.17-.34,1.16-1.4,1.02-2.32,1.02-12.94,0-25.86-.02-38.8,.03-1.52,0-2.27-.52-2.72-1.98-.83-2.69-1.85-5.32-2.79-7.99,7.19,2.12,7.52,1.89,14.39-10.25,1.46,2.9,2.79,5.61,4.74,7.92,3.98,4.7,8.12,4.59,11.55-.51,1.47-2.18,2.53-4.63,3.78-6.97h0Z"/>
      <path class="cls-9" d="M53.93,72.33c-6.12,0-12.25-.13-18.36,.06-2.48,.08-2.79-.95-2.75-3.02,.04-1.85,.11-2.92,2.53-2.89,12.47,.13,24.94,.13,37.41,0,2.6-.03,2.31,1.35,2.38,3.02,.08,1.85-.08,2.96-2.5,2.89-6.23-.18-12.47-.06-18.7-.06h0Z"/>
    </g>
    <circle class="cls-2" cx="53.94" cy="53.94" r="50.44"/>
  </g>
</svg>