<?xml version="1.0" encoding="UTF-8"?>
<svg id="Layer_2" data-name="Layer 2" xmlns="http://www.w3.org/2000/svg" viewBox="0 0 107.89 107.89">
  <defs>
    <style>
      .cls-1 {
        fill: none;
        stroke: #fff;
        stroke-miterlimit: 10;
        stroke-width: 7px;
      }

      .cls-2 {
        fill: #4c4644;
      }

      .cls-3 {
        fill: #febf2e;
      }

      .cls-4 {
        fill: #b69942;
      }

      .cls-5 {
        fill: #5e5756;
      }

      .cls-6 {
        fill: #772a0c;
      }

      .cls-7 {
        fill: #383331;
      }

      .cls-8 {
        fill: #fef67f;
      }

      .cls-9 {
        fill: #fea63b;
      }
    </style>
  </defs>
  <g id="Layer_1-2" data-name="Layer 1">
    <path class="cls-7" d="M53.92,104.47c-27.95,0-50.49-22.62-50.37-50.75C3.66,25.83,26.47,3.55,54.22,3.64c27.61,.1,50.14,22.69,50.13,50.44-.01,27.85-22.57,50.39-50.42,50.39h0Zm-35.86-27.2c.09,.17,.16,.35,.27,.51,2.25,3.39,4.93,6.41,8.06,8.99,9.34,7.68,20.08,11.05,32.12,9.79,10.82-1.13,19.9-5.87,27.24-13.92,3.39-3.72,6-7.94,7.89-12.6,2.51-6.18,3.44-12.6,2.96-19.24-.3-4.28-1.24-8.41-2.81-12.39-2.9-7.37-7.54-13.44-13.77-18.31-1.08-.84-2.16-1.7-3.43-2.26-.22-.17-.42-.37-.66-.51-1.38-.77-2.77-1.55-4.22-2.21-7.53-3.4-15.4-4.59-23.57-3.45-10.2,1.43-18.81,5.97-25.8,13.56-3.08,3.34-5.53,7.1-7.4,11.24-2.99,6.63-4.19,13.59-3.66,20.83,.35,4.74,1.46,9.32,3.37,13.7,.96,2.19,2,4.33,3.42,6.26h0Z"/>
    <path class="cls-2" d="M18.06,77.27c-1.43-1.93-2.47-4.07-3.42-6.26-1.91-4.37-3.02-8.95-3.37-13.7-.53-7.24,.67-14.2,3.66-20.83,1.87-4.15,4.32-7.9,7.4-11.24,6.99-7.59,15.59-12.13,25.8-13.56,8.18-1.14,16.04,.05,23.57,3.45,1.45,.66,2.83,1.44,4.22,2.21,.24,.13,.44,.34,.66,.51,1.05,1.92,2.14,3.81,2.99,5.84,.54,1.3,1.13,2.6,1.4,4-.28-.27-.56-.53-.84-.8-2.84-2.79-6.03-5.11-9.6-6.88-7.07-3.5-14.54-4.74-22.35-3.58-10.53,1.57-18.97,6.73-25.22,15.33-5.45,7.51-7.7,15.97-6.98,25.21,.44,5.62,2.12,10.85,4.93,15.73,.61,1.06,1.2,2.14,2.05,3.03,.04,.04,.09,.08,.13,.12l.02,.05-.03-.05s-.08-.09-.12-.13c-.06-.48-.34-.88-.54-1.3-3.72-7.77-4.69-15.9-2.93-24.31,1.78-8.5,6.06-15.56,12.74-21.11,7.94-6.61,17.14-9.44,27.41-8.66,5.5,.42,10.66,2.04,15.44,4.8,2.4,1.39,4.71,2.92,6.67,4.91,.03,.15,.05,.29,.09,.44,1.14,4.61,1.45,9.28,1.03,14.01-.32,3.65-1.12,7.21-2.38,10.66-1.89,5.19-4.67,9.86-8.36,13.95-3.73,4.13-8.08,7.48-13.13,9.93-7.57,3.68-15.54,4.96-23.87,4.02-5.84-.66-11.3-2.51-16.38-5.48-.22-.13-.47-.21-.71-.31Z"/>
    <path class="cls-5" d="M80.98,27.67c-.27-1.4-.85-2.69-1.4-4-.85-2.02-1.94-3.92-2.99-5.84,1.27,.56,2.35,1.42,3.43,2.26,6.23,4.86,10.87,10.93,13.77,18.31,1.57,3.98,2.51,8.11,2.81,12.39,.48,6.65-.45,13.07-2.96,19.24-1.89,4.66-4.5,8.87-7.89,12.6-7.33,8.06-16.42,12.79-27.24,13.92-12.04,1.26-22.77-2.11-32.12-9.79-3.13-2.57-5.81-5.6-8.06-8.99-.11-.16-.18-.34-.27-.51,.24,.1,.49,.18,.71,.31,5.07,2.98,10.54,4.82,16.38,5.48,8.33,.95,16.3-.34,23.87-4.02,5.04-2.45,9.39-5.79,13.13-9.93,3.69-4.09,6.47-8.76,8.36-13.95,1.26-3.46,2.06-7.01,2.38-10.66,.42-4.72,.11-9.4-1.03-14.01-.04-.14-.06-.29-.09-.44,.91,.63,1.59,1.49,2.38,2.25,.4,.38,.66,.91,1.18,1.16,.05,.15,.13,.28,.28,.36,.01,.01,.03,.02,.04,.03-.01-.01-.02-.03-.03-.04-.08-.13-.16-.27-.24-.4-.14-.24-.27-.49-.42-.72-1.16-1.81-2.56-3.42-3.98-5.03h0Z"/>
    <path class="cls-5" d="M80.98,27.67c1.42,1.61,2.82,3.23,3.98,5.03,.15,.24,.28,.48,.42,.72-.02,.02-.04,.03-.05,.05-.52-.26-.79-.78-1.18-1.16-.79-.76-1.46-1.63-2.38-2.25-1.96-1.99-4.27-3.52-6.67-4.91-4.78-2.77-9.95-4.39-15.44-4.8-10.28-.77-19.48,2.05-27.41,8.66-6.67,5.55-10.96,12.61-12.74,21.11-1.76,8.41-.8,16.53,2.93,24.31,.2,.42,.48,.82,.54,1.3h0c-.85-.89-1.44-1.98-2.05-3.03-2.81-4.87-4.49-10.11-4.93-15.73-.72-9.25,1.52-17.71,6.98-25.21,6.24-8.6,14.69-13.76,25.22-15.33,7.81-1.16,15.28,.07,22.35,3.58,3.57,1.77,6.76,4.08,9.6,6.88,.28,.27,.56,.53,.84,.8v-.02Z"/>
    <polygon class="cls-4" points="24.69 73.4 24.72 73.44 24.7 73.39 24.69 73.4"/>
    <path class="cls-4" d="M24.56,73.25s.09,.1,.13,.14h0s-.1-.09-.14-.13h0s0-.01,0-.01Z"/>
    <g>
      <path class="cls-3" d="M60.84,43.79c.1,.15,.11,.34,.15,.5,.14,.53,.36,1.03,.57,1.53,.16,.39,.35,.78,.6,1.12,.33,.44,.65,.9,1.02,1.31,.53,.6,1.12,1.12,1.76,1.59,.37,.27,.77,.5,1.18,.71,.43,.22,.88,.4,1.32,.59,.19,.08,.39,.15,.61,.19,.23,.05,.46,.11,.69,.18,.15,.05,.3,.07,.45,.06,.86,.21,1.74,.16,2.61,.12,.44-.02,.88-.12,1.31-.2,.39-.08,.77-.19,1.15-.31,.45-.15,.88-.36,1.31-.56,.32-.15,.63-.31,.92-.5,.73-.49,1.4-1.05,2.01-1.68,.04-.04,.09-.1,.07-.18,.54,.49,1.06,1.02,1.74,1.32,.27,.12,.51,.28,.8,.35,.38,.09,.75,.21,1.14,.29,.58,.12,1.16,.08,1.73,.05,.47-.03,.46-.08,.49,.38,0,0,0,.02,0,.03,.06,.56-.1,1.1-.17,1.64-.06,.51-.12,1.02-.24,1.52-.14,.56-.17,1.14-.34,1.7-.08,.27-.13,.58-.17,.88-.03,.3-.14,.59-.21,.89-.05,.22-.1,.45-.15,.67-.05,.24-.12,.5-.17,.74-.04,.21-.07,.45-.2,.65-.06,.09-.03,.18-.04,.28-.06,.07-.13,.14-.11,.25-.04,.05-.03,.11-.03,.17-.06,.11-.15,.2-.12,.35-.01,.23-.14,.43-.2,.65-.09,.35-.21,.69-.33,1.03-.13,.38-.27,.76-.41,1.13-.15,.38-.33,.76-.49,1.14-.26,.61-.56,1.2-.87,1.79-.23,.43-.46,.86-.73,1.27-.11,0-.22-.02-.34-.02-7.59,0-15.19,0-22.78,0,0-7.13,0-14.27,0-21.4,0-.19,0-.38,0-.57,.47-.04,.94,.06,1.4-.15,.29-.13,.64-.12,.95-.28,.33-.17,.66-.32,.98-.51,.3-.17,.56-.38,.82-.6,.1-.08,.21-.12,.33-.06Z"/>
      <path class="cls-9" d="M56.37,67.36c7.59,0,15.19,0,22.78,0,.11,0,.22,.01,.34,.02-.04,.29-.03,.59-.03,.88,0,1.58,0,3.16,0,4.73,0,.37,0,.74-.18,1.08-.21,.41-.52,.73-.94,.94-.42,.21-.87,.25-1.34,.25-3,0-6-.02-9,0-.74,0-1.47,.01-2.21,.04-.1-.09-.23-.05-.35-.05-2.83,0-5.66,.02-8.49,0-3.55-.03-7.1,0-10.65-.02-3.24,0-6.47,0-9.71,0-.11,0-.22,.01-.34,.02-.29-.05-.59-.01-.88-.03-.16,0-.33,0-.47-.11,.11,0,.23,0,.34,0,6.9,0,13.81,0,20.71,0q.41,0,.41-.42c0-2.45,0-4.89,0-7.34h0Z"/>
      <path class="cls-9" d="M84.46,50.65s0-.02,0-.03c-.03-.46-.02-.41-.49-.38-.57,.03-1.15,.07-1.73-.05-.39-.08-.76-.19-1.14-.29-.28-.07-.53-.23-.8-.35-.69-.3-1.2-.83-1.74-1.32-.19-.23-.38-.45-.57-.68-.02-.18-.12-.3-.26-.41-.13-.32-.31-.62-.42-.95-.17-.49-.34-.98-.37-1.51,0-.47,0-.94,0-1.4,.05-.64,.25-1.24,.5-1.84,.38-.91,.96-1.67,1.7-2.3,.43-.36,.9-.66,1.4-.92,.11,.02,.19-.03,.25-.12,.05,0,.1-.02,.16-.03,.12,.03,.18-.06,.26-.12,.24-.05,.48-.12,.72-.16,.85-.16,1.7-.16,2.55,0,.65,.12,1.26,.36,1.83,.69,1.05,.6,1.85,1.44,2.43,2.49,.09,.15,.16,.32,.24,.47-.01,.12,.01,.22,.13,.27,0,.05,.01,.1,.02,.15-.04,.11,.05,.17,.1,.24,.03,.32,.14,.63,.19,.96,.09,.61,.1,1.21,0,1.82-.05,.3-.13,.59-.19,.88-.07,.34-.23,.66-.38,.97-.3,.59-.65,1.15-1.15,1.61-.56,.52-1.12,1.03-1.84,1.32-.31,.12-.6,.28-.92,.35-.19,.04-.39,.1-.37,.37,0,.09-.02,.19-.11,.25Z"/>
      <path class="cls-6" d="M82.53,60.37c-.03-.14,.06-.24,.12-.35,.05,.15,.04,.27-.12,.35Z"/>
      <path class="cls-6" d="M82.68,59.86c-.02-.11,.05-.18,.11-.25,0,.1,.04,.21-.11,.25Z"/>
      <path class="cls-8" d="M56.37,45.38c0,.19,0,.38,0,.57,0,7.13,0,14.27,0,21.4,0,0,0,0,0,0-.14,0-.28,0-.42,0-7.39,0-14.77,0-22.16,0-.16,0-.31,0-.47,.01-.22-.1-.26-.33-.36-.5-.43-.72-.8-1.47-1.16-2.23-.28-.59-.58-1.18-.76-1.81-.18-.61-.42-1.2-.59-1.81-.21-.73-.42-1.45-.63-2.18-.23-.8-.41-1.61-.59-2.41-.07-.3-.13-.6-.17-.91-.04-.32-.14-.63-.21-.95-.06-.29-.08-.58-.14-.87-.07-.35-.12-.71-.18-1.07-.07-.47-.1-.94-.21-1.4-.06-.23-.03-.48-.05-.73,.05-.39,.05-.39,.43-.28,.09,.03,.19,.03,.28,.03,.77,.01,1.53,.01,2.28-.23,.63-.2,1.21-.47,1.77-.81,.42-.26,.74-.62,1.1-.93,.77,.9,1.71,1.61,2.73,2.2,.53,.3,1.09,.55,1.69,.72,.11,.03,.21,.11,.33,.11,0,.05,.02,.1,.06,.1,.28,.03,.53,.19,.82,.14,.47,0,.93,.16,1.41,.16,.63,0,1.27,.04,1.89-.05,.54-.07,1.09-.11,1.59-.34,.07-.03,.15-.02,.23-.03,.02,0,.05,.01,.08,0,.4-.09,.76-.28,1.14-.42,.02,0,.02-.06,.03-.09,0,0,.01-.01,.02-.02,.13,.04,.21-.07,.29-.12,.22-.13,.48-.18,.65-.39,.02,0,.03,0,.05,0,.16-.05,.29-.14,.41-.26,.42-.24,.79-.56,1.15-.89,.44-.42,.89-.83,1.27-1.31,.3-.38,.56-.79,.82-1.21,.3-.5,.52-1.04,.76-1.57,.03-.06,.03-.13,.05-.2,.16-.02,.13-.13,.11-.23,.01-.06,.02-.12,.03-.18,.15-.06,.11-.19,.1-.3,0-.08,.01-.15,.02-.23,.2-.26,.35-.09,.48,.07,.08,.11,.21,.11,.3,.19,.5,.46,1.13,.71,1.75,.94,.63,.23,1.3,.34,1.98,.29h0Z"/>
      <path class="cls-3" d="M34.13,48.3c-.37,.31-.69,.67-1.1,.93-.56,.34-1.14,.61-1.77,.81-.75,.25-1.51,.24-2.28,.23-.09,0-.19,0-.28-.03-.37-.12-.38-.12-.43,.28-.09-.03-.08-.11-.08-.17-.02-.19-.15-.27-.31-.3-1.19-.28-2.16-.93-2.98-1.81-.42-.45-.75-.97-1.04-1.52-.28-.53-.38-1.1-.52-1.67-.12-.47-.1-.95-.09-1.42,.02-.68,.21-1.33,.46-1.97,.23-.6,.53-1.16,.95-1.64,.73-.85,1.6-1.49,2.65-1.91,1.04-.42,2.11-.45,3.19-.34,.61,.06,1.2,.29,1.77,.57,.77,.38,1.44,.86,2,1.5,.5,.57,.9,1.2,1.16,1.92,.1,.28,.21,.56,.24,.86,0,.08,.03,.16,.12,.19,0,.06,0,.13,0,.19,0,.66,0,1.32,0,1.98-.22,1.08-.63,2.07-1.31,2.95-.11,.14-.27,.23-.35,.39Z"/>
      <path class="cls-9" d="M60.84,43.79c-.13-.06-.23-.02-.33,.06-.26,.22-.52,.43-.82,.6-.32,.19-.65,.34-.98,.51-.3,.16-.65,.15-.95,.28-.46,.2-.93,.1-1.4,.15,0,0,0,0,0,0,0-.14,0-.28,0-.42,0-4.05,0-8.09,0-12.14,.6-.05,1.17,.06,1.75,.23,.7,.2,1.33,.51,1.92,.92,.64,.43,1.15,.99,1.58,1.61,.31,.45,.53,.96,.71,1.48,.27,.78,.42,1.57,.37,2.39-.02,.41-.14,.8-.22,1.21-.07,.32-.18,.62-.3,.92-.16,.38-.36,.75-.59,1.09-.21,.32-.47,.59-.72,.87-.08,.09-.06,.16-.04,.25Z"/>
      <path class="cls-3" d="M56.37,32.82c0,4.05,0,8.09,0,12.14,0,.14,0,.28,0,.42-.68,.05-1.35-.06-1.98-.29-.62-.22-1.25-.48-1.75-.94-.09-.08-.22-.09-.3-.19-.12-.16-.28-.33-.48-.07,.11-.28-.07-.43-.24-.63-.53-.64-.97-1.34-1.22-2.15-.24-.78-.4-1.57-.33-2.39,.07-.71,.18-1.42,.48-2.07,.44-.95,1.04-1.77,1.87-2.43,.62-.5,1.3-.87,2.05-1.1,.61-.19,1.24-.35,1.9-.28Z"/>
      <path class="cls-8" d="M46.15,50.81s-.01,.08-.03,.09c-.38,.14-.74,.33-1.14,.42-.02,0-.05,0-.08,0,.4-.2,.81-.39,1.24-.5Z"/>
      <path class="cls-8" d="M39.77,51.57c-.29,.05-.55-.11-.82-.14-.04,0-.06-.06-.06-.1,.3,.06,.61,.1,.88,.24Z"/>
      <path class="cls-9" d="M51.84,44.11c0,.11,.05,.24-.1,.3-.05-.13,.03-.21,.1-.3Z"/>
      <path class="cls-9" d="M51.7,44.59c.02,.1,.06,.21-.11,.23-.01-.1-.02-.2,.11-.23Z"/>
      <path class="cls-3" d="M33.33,67.38c.16,0,.31-.01,.47-.01,7.39,0,14.77,0,22.16,0,.14,0,.28,0,.42,0,0,2.45,0,4.89,0,7.34q0,.42-.41,.42c-6.9,0-13.81,0-20.71,0-.11,0-.23,0-.34,0-.05,0-.11,0-.16-.01-.04-.11-.14-.1-.24-.1-.5-.18-.84-.53-1.05-1.01-.07-.17-.14-.35-.14-.55,0-2.03,0-4.05,0-6.08Z"/>
      <path class="cls-9" d="M34.51,75.01c.09,0,.19-.01,.24,.1-.1,.01-.19,.01-.24-.1Z"/>
    </g>
    <circle class="cls-1" cx="53.94" cy="53.94" r="50.44"/>
  </g>
</svg>