<?xml version="1.0" encoding="UTF-8"?>
<svg id="Layer_2" data-name="Layer 2" xmlns="http://www.w3.org/2000/svg" viewBox="0 0 100.8 100.83">
  <defs>
    <style>
      .cls-1 {
        fill: #4c4644;
      }

      .cls-2 {
        fill: #f2a23a;
      }

      .cls-3 {
        fill: #b69942;
      }

      .cls-4 {
        fill: #5e5756;
      }

      .cls-5 {
        fill: #383331;
      }

      .cls-6 {
        fill: #f6c144;
      }

      .cls-7 {
        fill: #f4b461;
      }

      .cls-8 {
        fill: #f8cd69;
      }
    </style>
  </defs>
  <g id="Layer_1-2" data-name="Layer 1">
    <g>
      <path class="cls-5" d="M50.38,100.83C22.43,100.83-.12,78.21,0,50.08,.11,22.19,22.92-.1,50.67,0c27.61,.1,50.14,22.69,50.13,50.44-.01,27.85-22.57,50.39-50.42,50.39h0ZM14.51,73.63c.09,.17,.16,.35,.27,.51,2.25,3.39,4.93,6.41,8.06,8.99,9.34,7.68,20.08,11.05,32.12,9.79,10.82-1.13,19.9-5.87,27.24-13.92,3.39-3.72,6-7.94,7.89-12.6,2.51-6.18,3.44-12.6,2.96-19.24-.3-4.28-1.24-8.41-2.81-12.39-2.9-7.37-7.54-13.44-13.77-18.31-1.08-.84-2.16-1.7-3.43-2.26-.22-.17-.42-.37-.66-.51-1.38-.77-2.77-1.55-4.22-2.21-7.53-3.4-15.4-4.59-23.57-3.45-10.2,1.43-18.81,5.97-25.8,13.56-3.08,3.34-5.53,7.1-7.4,11.24-2.99,6.63-4.19,13.59-3.66,20.83,.35,4.74,1.46,9.32,3.37,13.7,.96,2.19,2,4.33,3.42,6.26h0Z"/>
      <path class="cls-1" d="M14.52,73.63c-1.43-1.93-2.47-4.07-3.42-6.26-1.91-4.37-3.02-8.95-3.37-13.7-.53-7.24,.67-14.2,3.66-20.83,1.87-4.15,4.32-7.9,7.4-11.24,6.99-7.59,15.59-12.13,25.8-13.56,8.18-1.14,16.04,.05,23.57,3.45,1.45,.66,2.83,1.44,4.22,2.21,.24,.13,.44,.34,.66,.51,1.05,1.92,2.14,3.81,2.99,5.84,.54,1.3,1.13,2.6,1.4,4-.28-.27-.56-.53-.84-.8-2.84-2.79-6.03-5.11-9.6-6.88-7.07-3.5-14.54-4.74-22.35-3.58-10.53,1.57-18.97,6.73-25.22,15.33-5.45,7.51-7.7,15.97-6.98,25.21,.44,5.62,2.12,10.85,4.93,15.73,.61,1.06,1.2,2.14,2.05,3.03,.04,.04,.09,.08,.13,.12l.02,.05-.03-.05s-.08-.09-.12-.13c-.06-.48-.34-.88-.54-1.3-3.72-7.77-4.69-15.9-2.93-24.31,1.78-8.5,6.06-15.56,12.74-21.11,7.94-6.61,17.14-9.44,27.41-8.66,5.5,.42,10.66,2.04,15.44,4.8,2.4,1.39,4.71,2.92,6.67,4.91,.03,.15,.05,.29,.09,.44,1.14,4.61,1.45,9.28,1.03,14.01-.32,3.65-1.12,7.21-2.38,10.66-1.89,5.19-4.67,9.86-8.36,13.95-3.73,4.13-8.08,7.48-13.13,9.93-7.57,3.68-15.54,4.96-23.87,4.02-5.84-.66-11.3-2.51-16.38-5.48-.22-.13-.47-.21-.71-.31Z"/>
      <path class="cls-4" d="M77.43,24.03c-.27-1.4-.85-2.69-1.4-4-.85-2.02-1.94-3.92-2.99-5.84,1.27,.56,2.35,1.42,3.43,2.26,6.23,4.86,10.87,10.93,13.77,18.31,1.57,3.98,2.51,8.11,2.81,12.39,.48,6.65-.45,13.07-2.96,19.24-1.89,4.66-4.5,8.87-7.89,12.6-7.33,8.06-16.42,12.79-27.24,13.92-12.04,1.26-22.77-2.11-32.12-9.79-3.13-2.57-5.81-5.6-8.06-8.99-.11-.16-.18-.34-.27-.51,.24,.1,.49,.18,.71,.31,5.07,2.98,10.54,4.82,16.38,5.48,8.33,.95,16.3-.34,23.87-4.02,5.04-2.45,9.39-5.79,13.13-9.93,3.69-4.09,6.47-8.76,8.36-13.95,1.26-3.46,2.06-7.01,2.38-10.66,.42-4.72,.11-9.4-1.03-14.01-.04-.14-.06-.29-.09-.44,.91,.63,1.59,1.49,2.38,2.25,.4,.38,.66,.91,1.18,1.16,.05,.15,.13,.28,.28,.36,.01,.01,.03,.02,.04,.03-.01-.01-.02-.03-.03-.04-.08-.13-.16-.27-.24-.4-.14-.24-.27-.49-.42-.72-1.16-1.81-2.56-3.42-3.98-5.03h0Z"/>
      <path class="cls-4" d="M77.43,24.03c1.42,1.61,2.82,3.23,3.98,5.03,.15,.24,.28,.48,.42,.72-.02,.02-.04,.03-.05,.05-.52-.26-.79-.78-1.18-1.16-.79-.76-1.46-1.63-2.38-2.25-1.96-1.99-4.27-3.52-6.67-4.91-4.78-2.77-9.95-4.39-15.44-4.8-10.28-.77-19.48,2.05-27.41,8.66-6.67,5.55-10.96,12.61-12.74,21.11-1.76,8.41-.8,16.53,2.93,24.31,.2,.42,.48,.82,.54,1.3h0c-.85-.89-1.44-1.98-2.05-3.03-2.81-4.87-4.49-10.11-4.93-15.73-.72-9.25,1.52-17.71,6.98-25.21,6.24-8.6,14.69-13.76,25.22-15.33,7.81-1.16,15.28,.07,22.35,3.58,3.57,1.77,6.76,4.08,9.6,6.88,.28,.27,.56,.53,.84,.8v-.02Z"/>
      <polygon class="cls-3" points="21.15 69.76 21.18 69.8 21.15 69.75 21.15 69.76"/>
      <path class="cls-3" d="M21.02,69.61s.09,.1,.13,.14h0s-.1-.09-.14-.13h0s0-.01,0-.01Z"/>
    </g>
    <g>
      <path class="cls-8" d="M22.43,54.69c-.76-2.14-1.29-4.35-1.93-6.53-1-3.42-1.96-6.85-2.94-10.28-.03-.11-.09-.21,.01-.38,1.69,.89,3.39,1.78,5.08,2.67,1.78,.94,3.56,1.88,5.34,2.82,.14,.07,.27,.17,.44,.07,.1,.15,.22,.27,.39,.36,2.87,1.5,5.73,2.99,8.59,4.51,.37,.19,.54,.11,.72-.24,1.3-2.49,2.61-4.97,3.92-7.46,.09-.18,.18-.36,.15-.57,.36-.06,.39-.41,.51-.65,2.26-4.31,4.51-8.62,6.77-12.94,.06-.12,.13-.23,.26-.44,.6,1.13,1.16,2.18,1.72,3.23,1.79,3.42,3.58,6.85,5.37,10.27,.11,.2,.14,.49,.45,.53-.04,.29,.12,.51,.25,.75,1.28,2.43,2.57,4.85,3.83,7.28,.22,.42,.42,.4,.78,.21,1.99-1.06,3.99-2.09,5.98-3.14,1-.53,2-1.08,2.99-1.63,.89-.45,1.79-.9,2.68-1.35,.22-.11,.44-.2,.67-.3,0,3.22-.06,6.45,.04,9.67,.05,1.8-1.44,3.56-3.58,3.56-16.16-.05-32.33-.02-48.49-.02Zm30.54-7.27c0-1.3-.25-2.28-.86-3.15-1.07-1.52-2.78-1.86-3.99-.81-1.82,1.58-2.18,4.62-.77,6.59,1.25,1.75,3,1.89,4.47,.33,.85-.9,1.09-2.02,1.15-2.96Z"/>
      <path class="cls-6" d="M22.43,54.69c16.16,0,32.33-.03,48.49,.02,2.14,0,3.63-1.76,3.58-3.56-.1-3.22-.04-6.45-.04-9.67,2.39-1.27,4.77-2.53,7.16-3.79,.08-.04,.17-.05,.25-.07h0c-.05,.94-.42,1.8-.68,2.7-1.82,6.44-3.67,12.87-5.51,19.3-.04,.15-.1,.3-.15,.45-1.07,0-2.14,0-3.21,0-16.12,0-32.24,0-48.36,0-.51-1.79-1.02-3.58-1.52-5.37Z"/>
      <path class="cls-2" d="M72.32,60.06c1.07,0,2.14,0,3.21,0,0,1.99,0,3.98,.03,5.97,0,.39-.13,.52-.5,.48-.11-.01-.22,0-.34,0-16.65,0-33.3,0-49.94,.01-.64,0-.92-.1-.85-.82,.08-.8,.03-1.61,.04-2.41,15.21,0,30.43,0,45.64,0,.2,0,.4,0,.6,0,.98-.03,1.73-.61,2.02-1.56,.17-.55,.05-1.11,.09-1.66Z"/>
      <path class="cls-6" d="M42.21,39.65c.03,.21-.06,.39-.15,.57-1.31,2.48-2.63,4.97-3.92,7.46-.19,.36-.35,.44-.72,.24-2.86-1.51-5.72-3.01-8.59-4.51-.17-.09-.29-.21-.39-.36,.99-5.38,1.98-10.76,3.01-16.34,.63,.75,1.15,1.37,1.67,1.98,3.03,3.65,6.06,7.29,9.09,10.94Z"/>
      <path class="cls-6" d="M71.1,43.13c-1,.54-1.99,1.1-2.99,1.63-1.99,1.05-3.99,2.08-5.98,3.14-.36,.19-.56,.21-.78-.21-1.26-2.44-2.55-4.85-3.83-7.28-.12-.23-.28-.46-.25-.75,2.57-3.1,5.15-6.2,7.72-9.29,.97-1.17,1.94-2.33,3.02-3.62,1.05,5.56,2.07,10.98,3.09,16.39Z"/>
      <path class="cls-7" d="M72.32,60.06c-.04,.55,.08,1.11-.09,1.66-.3,.95-1.04,1.53-2.02,1.56-.2,0-.4,0-.6,0-15.21,0-30.43,0-45.64,0,0-1.08,0-2.16,0-3.23,16.12,0,32.24,0,48.36,0Z"/>
      <path class="cls-6" d="M81.86,37.62s.02-.04,.03-.05c-.01,.01-.03,.03-.04,.04,0,0,0,.01,0,.01Z"/>
      <path class="cls-2" d="M52.97,47.42c-.05,.94-.3,2.07-1.15,2.96-1.47,1.55-3.22,1.42-4.47-.33-1.41-1.97-1.06-5.01,.77-6.59,1.21-1.05,2.92-.71,3.99,.81,.61,.87,.86,1.85,.86,3.15Z"/>
    </g>
  </g>
</svg>