<?xml version="1.0" encoding="UTF-8"?>
<svg id="Layer_2" data-name="Layer 2" xmlns="http://www.w3.org/2000/svg" viewBox="0 0 104.64 104.48">
  <defs>
    <style>
      .cls-1 {
        fill: #f8cd69;
      }

      .cls-1, .cls-2, .cls-3, .cls-4 {
        stroke: #000;
        stroke-miterlimit: 10;
      }

      .cls-2 {
        fill: #f6c144;
      }

      .cls-5 {
        fill: #e8b337;
      }

      .cls-6 {
        fill: #db982d;
      }

      .cls-7 {
        fill: #e38a33;
      }

      .cls-8 {
        fill: #efc43d;
      }

      .cls-9 {
        fill: #efc13c;
      }

      .cls-10 {
        fill: #dc9a2e;
      }

      .cls-3 {
        fill: #f4b461;
      }

      .cls-4 {
        fill: #f2a23a;
      }

      .cls-11 {
        fill: #f4d042;
      }

      .cls-12 {
        fill: #fadc46;
      }

      .cls-13 {
        fill: #de9e30;
      }

      .cls-14 {
        fill: #d78d29;
      }

      .cls-15 {
        fill: #8d6020;
      }

      .cls-16 {
        fill: #e7b036;
      }

      .cls-17 {
        fill: #ebb839;
      }

      .cls-18 {
        fill: #e2a632;
      }
    </style>
  </defs>
  <g id="Layer_1-2" data-name="Layer 1">
    <g>
      <path class="cls-7" d="M0,52.23c.02-4.02,.52-7.98,1.39-11.9,1.1-4.98,3.01-9.66,5.53-14.06,1.67-2.9,3.59-5.66,5.81-8.19,3.7-4.2,7.9-7.79,12.72-10.65,2.98-1.77,6.11-3.23,9.39-4.39,2.97-1.06,6.01-1.86,9.12-2.33C48.3,.04,52.68-.24,57.08,.24c1.7,.18,3.4,.37,5.06,.74,3.34,.74,6.6,1.7,9.79,2.97,2.11,.85,4.18,1.74,6.15,2.86,2.98,1.69,5.8,3.61,8.4,5.86,4.35,3.77,8.04,8.11,10.94,13.08,1.82,3.11,3.31,6.39,4.46,9.8,.87,2.58,1.52,5.21,1.98,7.89,.57,3.36,.85,6.74,.77,10.14-.06,2.66-.43,5.29-.85,7.91-.96,5.98-3.14,11.53-6.11,16.77-1.98,3.48-4.39,6.67-7.14,9.61-3.44,3.69-7.31,6.8-11.65,9.33-3.76,2.19-7.73,3.93-11.92,5.13-2.99,.86-6.02,1.48-9.11,1.83-3.66,.41-7.31,.41-10.98,0-1.41-.16-2.81-.34-4.2-.56-1.18-.19-2.37-.49-3.53-.82-4.43-1.25-8.7-2.89-12.7-5.2-2.9-1.68-5.67-3.56-8.22-5.76-4.4-3.79-8.11-8.16-11.04-13.17-1.82-3.11-3.31-6.39-4.46-9.81-.85-2.54-1.51-5.12-1.95-7.77C.31,58.16-.02,55.21,0,52.23Zm71.27,48.08c1.42-.42,2.77-1.01,4.04-1.77,.23-.07,.48-.12,.7-.23,1.99-1.03,3.91-2.2,5.78-3.43,.25-.17,.46-.36,.54-.66,1.19-.44,2.05-1.35,2.98-2.15,.75-.59,1.5-1.18,2.24-1.79,.2-.17,.4-.36,.46-.64,.22-.07,.39-.22,.55-.37,1.37-1.33,2.73-2.68,3.87-4.21,1.19-1.59,2.53-3.09,3.41-4.9,.81-1.02,1.56-2.09,1.9-3.37,.11-.11,.26-.2,.33-.34,.83-1.72,1.9-3.33,2.36-5.21,.07-.09,.16-.17,.2-.26,.72-1.77,1.37-3.57,1.78-5.44,.3-1.38,.89-2.7,.86-4.15,.34-1.06,.46-2.15,.54-3.25,.31-1.47,.29-2.96,.28-4.45,.14-.32,.14-.66,.13-.99-.05-1.43-.11-2.86-.17-4.29-.22-3.35-.81-6.64-1.71-9.87-.4-1.42-.78-2.86-1.46-4.19-.38-1.67-1.16-3.18-1.94-4.69-.49-1.33-1.2-2.52-2.02-3.67-.45-.75-.66-1.67-1.49-2.16-.12-.7-.5-1.23-1.08-1.62,0-.28-.09-.52-.27-.74-1.44-1.7-2.76-3.49-4.36-5.04-.87-.84-1.6-1.82-2.65-2.47-1.08-.91-1.97-2.05-3.27-2.7-1.24-1.22-2.72-2.11-4.19-3.01-.95-.59-1.85-1.29-2.93-1.63-1.54-.96-3.17-1.71-4.89-2.29-.71-.45-1.52-.63-2.3-.9-.67-.38-1.43-.5-2.17-.68-.8-.25-1.59-.57-2.43-.67-1-.26-1.98-.61-2.99-.78-3.21-.55-6.45-.86-9.71-.71-.78,0-1.56-.01-2.35-.01-1.07,0-2.15-.03-3.19,.26-.38,.03-.76,.06-1.13,.09-1.72,.15-3.38,.61-5.08,.89-.05,.04-.1,.08-.15,.11h-.01c-1.28,.23-2.53,.58-3.75,1.01-.6,.21-1.28,.27-1.78,.75-.46-.01-.88,.14-1.3,.31-2.46,1-4.84,2.17-7.15,3.48-.77,.43-1.68,.69-2.22,1.47-1.35,.67-2.59,1.49-3.64,2.58-.37,.18-.7,.41-1.01,.67-1.56,1.33-3.09,2.69-4.51,4.16-1.23,1.28-2.45,2.57-3.42,4.08-.91,.85-1.53,1.91-2.16,2.97-.74,1.02-1.52,2.01-1.89,3.25-.23,.07-.4,.22-.46,.45-.19,.65-.57,1.2-.9,1.78-.16,.28-.25,.57-.25,.89-.26,.16-.41,.41-.54,.68-.77,1.6-1.44,3.23-2.04,4.9-.27,.74-.64,1.45-.53,2.27,0,0,0,0,0,0-.05,.04-.09,.09-.14,.13-.12,.34-.26,.67-.34,1.02-.72,3.01-1.41,6.03-1.67,9.12-.05,1.53-.09,3.06-.14,4.59,.05,1.44,.03,2.88,.16,4.31,.53,5.93,2.07,11.59,4.51,17.02,.18,.41,.38,.82,.72,1.13,0,.28,.08,.53,.21,.77,.98,1.81,1.98,3.6,3.17,5.29,.8,1.52,2.01,2.76,3,4.14,.16,.22,.38,.38,.65,.46,.23,.54,.56,1.02,.98,1.43,1.17,1.17,2.33,2.35,3.51,3.51,.51,.5,1.07,.94,1.72,1.26,.8,.91,1.68,1.71,2.83,2.17,1,1.06,2.22,1.81,3.53,2.43,.2,.15,.38,.31,.59,.44,3.08,1.79,6.24,3.41,9.68,4.43,.98,.3,1.9,.83,2.97,.82,1.62,.61,3.28,1.01,5.01,1.08,.28,.38,.73,.32,1.11,.37,2.96,.36,5.92,.55,8.9,.43,1.72,.14,3.41-.2,5.11-.31,.42-.03,.86-.04,1.25-.24,1.22-.18,2.46-.26,3.63-.69,1.24-.22,2.45-.54,3.65-.93,1.35-.39,2.72-.72,3.95-1.45Z"/>
      <path class="cls-17" d="M34.76,3.68c.5-.47,1.17-.54,1.78-.75,1.22-.43,2.47-.79,3.75-1.02,.06,.28,.13,.54,.51,.47,1.8-.33,3.61-.67,5.41-.99,.33-.06,.45-.25,.45-.56,1.05-.29,2.12-.26,3.19-.26,.78,0,1.56,0,2.35,.01,.35,.88,1.14,.71,1.8,.65,1.49-.15,2.95,.14,4.42,.27,1.9,.16,3.77,.57,5.65,.9,.35,.06,.68,.1,.84-.32,.84,.1,1.63,.42,2.43,.67-.31,.46-.76,.42-1.2,.3-.64-.17-1.28-.19-1.93-.12-1.22,.13-2.45,.23-3.67,.37-1.42,.15-2.86,.17-4.27,.45-.31,.06-.71,.02-.8,.47-.71,.01-1.41,.02-2.12,.04-.38,0-.76,.02-1.01,.38-2.26-.03-4.49,.31-6.74,.43-.2-.34-.5-.4-.87-.34-2.18,.36-4.32,.84-6.44,1.45-1.32,.38-2.59,.91-3.9,1.3-.19-.1-.39-.15-.59-.09-1.1,.37-2.26,.37-3.39,.44-1.16,.07-2.31,.36-3.48,.17,.29-.4,.74-.57,1.15-.8,1.87-1.03,3.81-1.91,5.8-2.68,.41-.16,.78-.35,.91-.82Z"/>
      <path class="cls-12" d="M67.32,101.76c-1.19,.39-2.41,.72-3.65,.93-.18-.19-.41-.33-.65-.31-1.01,.09-2.04,.08-3,.49-.49,.04-.98,.09-1.47,.13-1.63,.14-3.25,.27-4.88,.41-3.3,.02-6.58-.33-9.85-.66-1.51-.41-3.02-.77-4.59-.86-.08-.2-.23-.31-.44-.37-.2-.06-.53-.03-.49-.34,.04-.26,.36-.22,.57-.24,1.96-.18,3.91-.35,5.87-.52,.44-.04,.91,.02,1.24-.38,1.4,.05,2.78,.34,4.18,.23,.18,.12,.37,.14,.58,.14,1.66,.06,3.31-.04,4.96-.18,1-.09,2.01-.08,2.99-.34,1.74-.09,3.42-.56,5.13-.83,.96,.12,1.91,0,2.86-.07,2.1-.18,4.19-.39,6.28-.59,.27-.02,.55-.02,.72,.25-.85,.41-1.7,.82-2.56,1.23-1.2,.2-2.24,.85-3.41,1.15-.32,.08-.38,.41-.4,.71Z"/>
      <path class="cls-11" d="M26.9,7.97c1.17,.2,2.33-.09,3.48-.17,1.13-.07,2.29-.07,3.39-.44,.19-.07,.4-.01,.59,.09-2.48,1.21-5.03,2.28-7.38,3.76-.66,.42-1.41,.59-2.17,.67-1.32,.15-2.64,.25-3.96,.36-.23,.02-.44,.03-.63,.18-1.06,.82-2.13,1.65-3.08,2.6-.16,.16-.36,.33-.24,.58,.14,.29,.42,.19,.66,.16,.76-.1,1.51-.23,2.28-.18,.22,.01,.49-.06,.6,.19,.11,.25-.13,.41-.28,.56-1.03,.97-2.06,1.94-3.09,2.91-.15-.26-.39-.24-.65-.22-.44,.04-.89,.09-1.34,.07-1.07-.05-2,.18-2.68,1.08-.23,.3-.53,.4-.89,.28,.96-1.51,2.18-2.8,3.42-4.08,1.42-1.47,2.95-2.83,4.51-4.16,.31-.26,.64-.5,1.01-.67,.44,.11,.81,.01,1.19-.27,.99-.74,2-1.44,3.01-2.15,.78-.32,1.44-.9,2.27-1.13Z"/>
      <path class="cls-11" d="M100.89,34.34c.69,1.33,1.06,2.77,1.46,4.19,.91,3.23,1.5,6.52,1.71,9.87-.21,0-.42,0-.63,0,.08-.24,.02-.48,0-.73-.07-.84-.33-1.66-.28-2.51-.13-.61-.25-1.23-.4-1.84-.1-.44-.36-.72-.85-.69-.45,.03-.89,.06-1.34,.12-.57,.07-.83,.43-.75,.99,.09,.57,.14,1.16,.37,1.7,.09,1.08,.18,2.16,.27,3.24-.08,1,.17,1.98,.14,2.98-.01,.13-.03,.25-.04,.38-.24-.03-.36-.21-.48-.38,0-.18,0-.36,0-.54v-.14c-.24-4.02-.85-7.98-1.87-11.87,.12-.05,.24-.1,.35-.15,.35,.23,.18,.89,.76,.92,.63,.03,1.25,.07,1.87-.1,.48-.13,.68-.45,.57-.9-.19-.76-.42-1.51-.66-2.25-.12-.36-.37-.62-.79-.63-.78-.02-1.57-.1-2.31,.25-.31-.59-.63-1.17-.94-1.76-.04-.27-.07-.53-.11-.8,.51-.04,1.02-.11,1.53-.13,.71-.03,1.45-.14,1.92,.62,.09,.15,.31,.16,.49,.16Z"/>
      <path class="cls-14" d="M2.73,37.6c-.11-.82,.26-1.53,.53-2.27,.61-1.66,1.28-3.3,2.04-4.9,.13-.27,.28-.51,.54-.68,.51-.02,.61-.46,.81-.8,.36-.58,.59-1.28,1.44-1.36,.92-.09,1.83-.16,2.76-.13-.09,.45-.4,.8-.6,1.2-.15,.3-.35,.62,.09,.87-.03,.11-.05,.22-.11,.32-1.03,1.69-1.77,3.52-2.47,5.36-.57,1.5-1.05,3.05-1.57,4.57-.15,0-.3-.02-.46-.03,.11-.48,.23-.97,.34-1.45,.47-.85,.66-1.78,.85-2.72,.4-.55,.61-1.2,.84-1.83,.18-.48-.03-.74-.55-.71-.56,.03-1.12,.08-1.67,.12-.33,.03-.64,.16-.8,.43-.37,.66-.79,1.31-.8,2.11-.32,.41-.39,.93-.6,1.39-.13,.28-.27,.5-.61,.51Z"/>
      <path class="cls-12" d="M71.8,4.33c1.72,.57,3.36,1.32,4.89,2.29,.02,.46,.32,.7,.67,.94,1.24,.85,2.68,1.39,3.76,2.48-.08,.24-.25,.38-.5,.39-1.5,.02-2.98,.51-4.49,.15-.05-.07-.09-.17-.16-.21-1.71-1.05-3.48-1.98-5.39-2.62-.09-.05-.18-.1-.27-.15,.43-.71,1.17-.56,1.81-.64,.71-.09,1.44,.06,2.15-.1,.2-.05,.5-.01,.52-.32,.01-.25-.21-.39-.41-.49-.57-.26-1.18-.46-1.73-.75-.38-.2-.96-.29-.85-.95Z"/>
      <path class="cls-8" d="M55.45,4.2c.1-.45,.49-.41,.8-.47,1.41-.28,2.85-.29,4.27-.45,1.22-.13,2.45-.23,3.67-.37,.65-.07,1.29-.05,1.93,.12,.45,.12,.89,.17,1.2-.3,.74,.18,1.49,.3,2.17,.68,0,.29,.09,.52,.32,.71,.43,.37,.24,.58-.21,.64-1,.13-2.02,.19-3.01,.35-.71,.12-1.5-.14-2.11,.46-.24-.03-.49-.05-.73-.11-2.73-.7-5.51-1.08-8.31-1.28Z"/>
      <path class="cls-14" d="M87.08,13.95c1.05,.64,1.78,1.63,2.65,2.47,1.61,1.55,2.93,3.34,4.36,5.04,.19,.22,.27,.46,.27,.74,.04,.2,.07,.4,.12,.59,.42,1.61,.42,1.62-1.26,1.8-.81,.09-1.5-.19-2.03-.83-.19-.22-.35-.47-.61-.62-.11-.7-.74-1.04-1.1-1.56-.42-.61-.37-.85,.37-.98,.5-.09,1.02-.1,1.53-.16,.65-.07,.73-.24,.4-.82-.34-.59-.8-1.07-1.34-1.48-.86-1.09-1.8-2.11-2.84-3.03-.36-.32-.58-.67-.52-1.16Z"/>
      <path class="cls-9" d="M.44,52.47c.05-1.53,.09-3.06,.14-4.59,.22-.09,.43-.19,.65-.28,0,.42,.02,.85,0,1.27-.01,.53,.22,.75,.76,.77,.74,.03,1.46-.15,2.19-.17,.05,.32,0,.69,.41,.83,0,.99-.01,1.99-.02,2.98,0,.04,0,.08,0,.11,0,.09,0,.19,.01,.28-.34,.1-.49,.34-.53,.68-.99,.09-1.97,.18-2.96,.27,.04-.8-.2-1.52-.67-2.16Z"/>
      <path class="cls-9" d="M81.12,10.03c-1.08-1.09-2.53-1.62-3.76-2.48-.35-.24-.65-.48-.67-.94,1.09,.34,1.98,1.04,2.93,1.63,1.46,.91,2.95,1.79,4.19,3.01-.2,.45,.06,.72,.37,.97,.71,.59,1.41,1.18,2.12,1.76,.14,.12,.31,.23,.26,.43-.06,.23-.29,.27-.49,.3-.6,.07-1.2,.13-1.81,.18-.34,.03-.68,.04-.85,.41-1.29-.7-2.29-1.79-3.46-2.64-.4-.29-.2-.55,.22-.6,.8-.11,1.6-.19,2.4-.28,.18-.02,.38-.02,.44-.23,.05-.19-.12-.28-.24-.37-.54-.4-1.01-.89-1.65-1.15Z"/>
      <path class="cls-16" d="M83.41,15.31c.17-.37,.51-.39,.85-.41,.6-.05,1.21-.11,1.81-.18,.2-.02,.43-.07,.49-.3,.05-.2-.12-.32-.26-.43-.71-.59-1.41-1.18-2.12-1.76-.31-.26-.57-.53-.37-.97,1.3,.65,2.19,1.78,3.27,2.7-.06,.49,.16,.84,.52,1.16,1.04,.92,1.98,1.94,2.84,3.03-.69,.42-1.45,.42-2.22,.41-.36,0-.74-.03-.9,.41-.73-.42-1.22-1.12-1.87-1.63-.59-.76-1.49-1.21-2.04-2.02Z"/>
      <path class="cls-9" d="M9.22,80.98c-1.19-1.68-2.19-3.48-3.17-5.29-.13-.24-.22-.49-.21-.77,.15-1-.44-1.82-.68-2.72,.51,.14,1.01,.14,1.53,.03,.53-.11,1.06-.21,1.6-.07,.81,1.24,1.41,2.59,2.02,3.94-.68,.16-1.37,.27-2.07,.28-.86,.01-.97,.23-.56,.97,.65,1.16,1.4,2.26,1.96,3.47-.14,.05-.28,.11-.42,.16Z"/>
      <path class="cls-11" d="M64.49,5.58c.6-.59,1.4-.34,2.11-.46,1-.17,2.01-.22,3.01-.35,.45-.06,.64-.28,.21-.64-.23-.19-.33-.42-.32-.71,.78,.28,1.59,.45,2.3,.9-.11,.66,.47,.75,.85,.95,.55,.3,1.15,.5,1.73,.75,.21,.09,.42,.23,.41,.49-.01,.31-.31,.28-.52,.32-.71,.16-1.44,.01-2.15,.1-.64,.08-1.39-.06-1.81,.64-1.79-.66-3.55-1.38-5.44-1.75-.16-.03-.28-.13-.38-.25Z"/>
      <path class="cls-8" d="M45.99,100.05c-.33,.4-.8,.34-1.24,.38-1.96,.17-3.91,.34-5.87,.52-.21,.02-.53-.02-.57,.24-.05,.3,.29,.28,.49,.34,.21,.06,.36,.17,.44,.37-.19,.06-.38,.11-.56,.17-1.07,.02-1.99-.51-2.97-.82,.22-.53-.23-.63-.54-.81-.47-.27-1.08-.25-1.48-.68,.17-.04,.34-.12,.52-.12,1.52-.02,3.02-.26,4.53-.42,.49-.05,1.04,.03,1.44-.39,.78,.18,1.56,.36,2.34,.55,1.15,.28,2.34,.33,3.48,.68Z"/>
      <path class="cls-5" d="M10.34,29.53c-.43-.25-.23-.57-.09-.87,.2-.4,.51-.74,.6-1.2,.51-.43,.71-1.08,1.06-1.62,.24-.38,.81-.74,.54-1.21-.27-.47-.87-.12-1.32-.13-1.29-.02-2.38,.33-2.93,1.64-.13,.3-.39,.49-.74,.5,.37-1.24,1.15-2.23,1.89-3.25,.36,.39,.56,.07,.71-.2,.39-.7,1-1.16,1.72-1.3,.98-.18,1.98-.38,2.99-.12-.03,.34-.63,.65-.07,1.03-.24,.57-.62,1.04-1,1.52-1.31,1.61-2.33,3.42-3.38,5.2Z"/>
      <path class="cls-18" d="M103.82,58.14c-.08,1.1-.2,2.2-.54,3.25-.18,0-.36,0-.54-.01-.77-.24-1.56-.15-2.34-.09-.45,.03-.71,.34-.83,.77-.16,.59-.32,1.17-.48,1.76-.14-.05-.28-.1-.42-.15,.44-1.74,.62-3.52,.99-5.27,.27-.02,.44-.15,.52-.41,1.04,.02,2.09,.09,3.1-.26,.18,.13,.36,.27,.53,.4Z"/>
      <path class="cls-16" d="M1.23,47.59c-.22,.09-.43,.19-.65,.28,.26-3.09,.96-6.11,1.67-9.12,.08-.35,.23-.68,.34-1.02,.05-.04,.09-.09,.14-.13,0,0,0,0,0,0,.34,0,.48-.23,.61-.51,.21-.46,.28-.98,.6-1.39,1,.04,1.97-.37,2.98-.13-.18,.94-.37,1.87-.85,2.72-.81-.09-1.6,.1-2.41,.15-.45,.03-.71,.29-.86,.72-.23,.68-.33,1.39-.48,2.09-.33,.87-.43,1.78-.55,2.7-.29,1.2-.47,2.41-.55,3.64Z"/>
      <path class="cls-11" d="M5.16,72.2c.24,.9,.82,1.72,.68,2.72-.34-.31-.54-.72-.72-1.13-2.44-5.42-3.98-11.09-4.51-17.02-.13-1.43-.11-2.87-.16-4.31,.47,.64,.72,1.36,.67,2.16,.21,.89,0,1.82,.26,2.7,.06,1.09,.09,2.19,.49,3.24,.17,2.04,.61,4.01,1.3,5.94,.13,.82,.39,1.59,.79,2.31,.18,1.21,.75,2.28,1.21,3.39Z"/>
      <path class="cls-13" d="M21.91,93.95c-1.15-.46-2.03-1.26-2.83-2.17-.14-.7-.64-1.15-1.14-1.6-.22-.19-.46-.36-.49-.68,1.18-.15,2.36-.3,3.55-.44,1.15,.72,2.18,1.6,3.25,2.44-.39,.13-.79,.13-1.19,.16-.67,.05-1.35,.02-1.99,.22-.51,.16-.53,.38-.16,.76,.34,.34,.85,.51,1.02,1.03,0,.1,0,.19-.01,.29Z"/>
      <path class="cls-9" d="M14.78,21.79c-1.01-.26-2.01-.06-2.99,.12-.73,.13-1.34,.6-1.72,1.3-.15,.27-.35,.59-.71,.2,.62-1.06,1.25-2.11,2.16-2.97,.36,.12,.67,.03,.89-.28,.68-.9,1.62-1.13,2.68-1.08,.44,.02,.89-.03,1.34-.07,.26-.02,.49-.04,.65,.22-.73,.88-1.34,1.87-2.29,2.56Z"/>
      <path class="cls-16" d="M96.93,25.97c.81,1.15,1.53,2.35,2.02,3.67-.03,.1-.09,.21-.1,.31-.15,1.05-.15,1.02-1.19,1.18-.56,.09-1.17,0-1.67,.37-.28-.21-.39-.52-.52-.83-.15-.37-.29-.74-.68-.93l-.28-1.08c.21-.19,.47-.24,.74-.27,.47-.06,.94-.11,1.4-.21,.65-.15,.73-.34,.45-.95-.19-.41-.42-.81-.16-1.28Z"/>
      <path class="cls-13" d="M7.45,26.65c.35-.01,.61-.2,.74-.5,.55-1.31,1.64-1.67,2.93-1.64,.45,0,1.05-.34,1.32,.13,.27,.46-.3,.83-.54,1.21-.34,.54-.55,1.19-1.06,1.62-.92-.03-1.84,.04-2.76,.13-.85,.09-1.09,.78-1.44,1.36-.21,.34-.3,.78-.81,.8,0-.32,.09-.61,.25-.89,.33-.58,.72-1.12,.9-1.78,.06-.22,.23-.38,.46-.45Z"/>
      <path class="cls-17" d="M97.76,76.79c-.35,1.29-1.09,2.35-1.9,3.37-.35-.14-.55,.06-.73,.3-.16,.22-.32,.44-.6,.51-.73-.3-1.45-.02-2.18,.04-.33,.03-.7,.19-.92-.17-.23-.38,.15-.6,.31-.87,.21-.34,.49-.64,.6-1.04,.22-.23,.45-.45,.67-.68,.77,.26,1.54,.1,2.31,.04,.87-.07,1.47-.45,1.78-1.28,.11-.3,.29-.55,.62-.65,.01,.14,.02,.28,.03,.42Z"/>
      <path class="cls-6" d="M94.5,28.68c.09,.36,.19,.72,.28,1.08-.1,0-.2,0-.3,0-.14-.2-.3-.39-.42-.6-1.18-2.09-2.49-4.09-3.91-6.02,.14,0,.29,0,.43,0,.25,.16,.42,.4,.61,.62,.53,.63,1.22,.91,2.03,.83,1.68-.18,1.68-.19,1.26-1.8-.05-.19-.08-.4-.12-.59,.58,.39,.96,.92,1.08,1.62,0,.46,.18,.87,.37,1.28,.36,.75,.18,1.05-.67,1.14-.4,.04-.8,.1-1.2,.14-.51,.05-.68,.27-.42,.76,.28,.54,.58,1.06,.97,1.53Z"/>
      <path class="cls-18" d="M85.31,92.07c-.93,.8-1.79,1.71-2.98,2.15,0-.09,0-.19,0-.28-.01-.41-.25-.55-.62-.53-.51,.02-1.03,.03-1.54,.07-.69,.05-1.38,.14-2.07,.19-.19,.01-.43,0-.49-.25-.05-.21,.14-.31,.28-.42,.65-.45,1.31-.86,2.02-1.22,.41,.41,.92,.27,1.39,.21,1.28-.16,2.57-.32,3.86-.35,.05,.14,.1,.29,.15,.43Z"/>
      <path class="cls-8" d="M95.98,31.52c.5-.38,1.11-.29,1.67-.37,1.04-.16,1.04-.13,1.19-1.18,.02-.11,.07-.21,.1-.31,.77,1.51,1.56,3.02,1.94,4.69-.18,0-.4,0-.49-.16-.47-.76-1.21-.65-1.92-.62-.51,.02-1.02,.08-1.53,.13-.49-.65-.72-1.41-.96-2.16Z"/>
      <path class="cls-18" d="M94.5,28.68c-.39-.47-.69-.99-.97-1.53-.26-.49-.09-.71,.42-.76,.4-.04,.8-.1,1.2-.14,.84-.09,1.02-.39,.67-1.14-.19-.41-.37-.82-.37-1.28,.83,.49,1.04,1.41,1.49,2.16-.26,.46-.03,.86,.16,1.28,.28,.61,.2,.8-.45,.95-.46,.1-.93,.15-1.4,.21-.27,.03-.53,.09-.74,.27Z"/>
      <path class="cls-13" d="M64.9,2.07c-.16,.43-.49,.39-.84,.32-1.88-.33-3.75-.74-5.65-.9-1.47-.13-2.92-.42-4.42-.27-.65,.07-1.44,.24-1.8-.65,3.27-.15,6.5,.16,9.71,.71,1.01,.17,2,.51,2.99,.78Z"/>
      <path class="cls-11" d="M94.52,80.98c.29-.07,.44-.29,.6-.51,.18-.25,.39-.45,.73-.3-.89,1.81-2.22,3.31-3.41,4.9-1.14,1.53-2.5,2.88-3.87,4.21-.16,.16-.33,.3-.55,.37-.05-.14-.1-.29-.15-.43,.87-.99,1.74-1.97,2.6-2.96,.86-.74,1.52-1.65,2.15-2.58,.76-.81,1.52-1.63,1.91-2.7Z"/>
      <path class="cls-11" d="M33.68,99.76c.4,.43,1.01,.41,1.48,.68,.31,.18,.76,.28,.54,.81-3.43-1.02-6.6-2.64-9.68-4.43-.21-.12-.4-.29-.59-.44,.05-.14,.09-.28,.14-.41,.6,.18,1.1,.61,1.73,.72,.9,.93,2.09,1.31,3.27,1.72,.92,.72,2.01,1.04,3.11,1.35Z"/>
      <path class="cls-10" d="M26.9,7.97c-.83,.23-1.49,.8-2.27,1.13-.18-.05-.37-.1-.55-.16,.54-.79,1.45-1.04,2.22-1.47,2.31-1.31,4.69-2.47,7.15-3.48,.42-.17,.84-.33,1.3-.31-.13,.47-.5,.66-.91,.82-1.99,.76-3.93,1.65-5.8,2.68-.41,.23-.86,.4-1.15,.8Z"/>
      <path class="cls-14" d="M102.74,61.38c.18,0,.36,0,.54,.01,.04,1.45-.56,2.77-.86,4.15-.4,1.87-1.06,3.67-1.78,5.44-.04,.1-.13,.18-.2,.26-.1-.09-.2-.18-.3-.27,.13-.58,.26-1.16,.38-1.75,.91-1.74,1.23-3.66,1.66-5.55,.3-.74,.35-1.54,.55-2.3Z"/>
      <path class="cls-10" d="M43.83,102.75c3.28,.33,6.55,.67,9.85,.66,0,.18,0,.35,0,.53-2.98,.12-5.94-.07-8.9-.43-.38-.05-.82,.01-1.11-.37,.05-.13,.1-.26,.15-.39Z"/>
      <path class="cls-6" d="M82.34,93.94c0,.09,0,.19,0,.28-.08,.3-.29,.49-.54,.66-1.87,1.23-3.79,2.4-5.78,3.43-.21,.11-.46,.15-.7,.23-.05-.14-.11-.28-.16-.42,.19-.17,.38-.34,.58-.51,1.18-.28,2.1-.98,2.97-1.77,.84-.13,1.44-.69,2.12-1.12,.48-.31,.87-.8,1.52-.78Z"/>
      <path class="cls-14" d="M17.45,89.5c.02,.33,.27,.49,.49,.68,.5,.45,1,.9,1.14,1.6-.65-.32-1.21-.76-1.72-1.26-1.18-1.16-2.35-2.34-3.51-3.51-.41-.42-.75-.89-.98-1.43,.09-.05,.18-.11,.28-.16,.62,.59,1.24,1.19,1.86,1.78,.71,.88,1.41,1.76,2.44,2.3Z"/>
      <path class="cls-16" d="M53.69,103.94c0-.18,0-.35,0-.53,1.63-.14,3.25-.27,4.88-.41,.49-.04,.98-.09,1.47-.13,0,.17,.01,.34,.02,.51-.39,.2-.83,.21-1.25,.24-1.7,.12-3.39,.45-5.11,.31Z"/>
      <path class="cls-12" d="M46.66,.82c0,.31-.12,.5-.45,.56-1.8,.33-3.61,.66-5.41,.99-.38,.07-.45-.19-.51-.47,0,0,.01,0,.01,0,.05-.04,.1-.08,.15-.11,1.7-.28,3.36-.74,5.08-.89,.38-.03,.75-.06,1.13-.09Z"/>
      <path class="cls-18" d="M13.15,85.42c-.09,.05-.18,.11-.28,.16-.27-.08-.49-.25-.65-.46-1-1.38-2.2-2.62-3-4.14,.14-.05,.28-.11,.42-.16,.58,.68,1.16,1.36,1.74,2.05,.42,.77,.95,1.45,1.6,2.04,.05,.17,.11,.34,.16,.52Z"/>
      <path class="cls-18" d="M100.15,70.97c.1,.09,.2,.18,.3,.27-.46,1.88-1.53,3.5-2.36,5.21-.06,.13-.22,.22-.33,.34,0-.14-.02-.28-.03-.42,.06-.31,.11-.61,.17-.92,.33-.33,.44-.77,.66-1.16,.6-1.07,.83-2.32,1.59-3.32Z"/>
      <path class="cls-9" d="M103.43,48.41c.21,0,.42,0,.63,0,.06,1.43,.12,2.86,.17,4.29,.01,.34,.01,.67-.13,.99-.18,0-.36,0-.53-.01-.01-.71-.02-1.43-.03-2.14,.11-1.05-.12-2.08-.13-3.12h.03Z"/>
      <path class="cls-16" d="M43.83,102.75c-.05,.13-.1,.26-.15,.39-1.73-.07-3.39-.47-5.01-1.08,.19-.06,.37-.11,.56-.17,1.57,.08,3.08,.45,4.59,.86Z"/>
      <path class="cls-16" d="M24.08,8.94c.18,.05,.37,.1,.55,.16-1,.71-2.02,1.41-3.01,2.15-.38,.28-.75,.38-1.19,.27,1.05-1.09,2.29-1.91,3.64-2.58Z"/>
      <path class="cls-16" d="M75.15,98.12c.05,.14,.11,.28,.16,.42-1.27,.76-2.62,1.35-4.04,1.77-.05-.14-.1-.28-.15-.41,.85-.41,1.7-.82,2.56-1.23,.46-.27,.96-.41,1.47-.55Z"/>
      <path class="cls-16" d="M25.57,95.97c-.05,.14-.09,.28-.14,.41-1.31-.61-2.52-1.37-3.53-2.43,0-.1,0-.19,.01-.29,.35,.02,.62,.21,.91,.39,.73,.46,1.47,.92,2.2,1.37,.18,.18,.36,.36,.54,.54Z"/>
      <path class="cls-16" d="M103.57,53.67c.18,0,.36,0,.53,.01,0,1.49,.02,2.98-.28,4.45-.18-.13-.36-.27-.53-.4,.12-1.35,.3-2.7,.28-4.06Z"/>
      <path class="cls-8" d="M71.13,99.9c.05,.14,.1,.28,.15,.41-1.23,.73-2.6,1.05-3.95,1.45,.02-.3,.08-.63,.4-.71,1.17-.3,2.21-.95,3.41-1.15Z"/>
      <path class="cls-17" d="M87.86,89.22c.05,.14,.1,.29,.15,.43-.06,.28-.26,.47-.46,.64-.74,.6-1.49,1.19-2.24,1.79-.05-.14-.1-.29-.15-.43,.42-.7,1.3-.97,1.65-1.74,.35-.23,.7-.46,1.05-.69Z"/>
      <path class="cls-11" d="M60.05,103.38c0-.17-.01-.34-.02-.51,.96-.4,1.99-.4,3-.49,.24-.02,.47,.12,.65,.31-1.17,.43-2.41,.52-3.63,.69Z"/>
      <path class="cls-14" d="M2.73,37.6s-.09,.09-.14,.13c.05-.04,.09-.09,.14-.13Z"/>
      <path class="cls-17" d="M40.44,1.8s-.1,.08-.15,.11c.05-.04,.1-.08,.15-.11Z"/>
      <path class="cls-15" d="M90.15,23.15c1.41,1.94,2.72,3.94,3.91,6.02,.12,.21,.28,.4,.42,.6,.68,1.6,1.35,3.2,2.18,4.72,.51,1.54,1.02,3.07,1.54,4.61,1.02,3.89,1.63,7.85,1.86,11.87,0,.05,0,.09,0,.14,0,.18,0,.36,0,.54-.1,2.25-.19,4.51-.41,6.75-.37,1.75-.55,3.53-.99,5.27-.33,1.07-.65,2.15-.98,3.22-.74,2.41-1.83,4.69-2.82,7-1.06,1.59-1.97,3.27-2.93,4.92-1.27,1.64-2.54,3.29-3.81,4.93-.11,.11-.23,.22-.34,.33-2.53,2.56-5.08,5.07-8.06,7.14-6.37,4.42-13.38,7.14-21.05,8.19-.24,.04-.48,.08-.73,.11-2.59,.28-5.18,.3-7.78,.28-2.74-.15-5.45-.51-8.14-1.08-1.92-.4-3.76-1.06-5.64-1.56-1.18-.48-2.36-.96-3.54-1.44-1.57-.81-3.15-1.63-4.72-2.44-2.37-1.3-4.47-2.99-6.55-4.69-1.33-1.09-2.57-2.31-3.84-3.47-.8-.89-1.6-1.79-2.4-2.68-.97-1.34-1.94-2.68-2.91-4.02-1.18-1.98-2.41-3.94-3.35-6.06-.23-.52-.35-1.12-.78-1.54-.41-1.12-.82-2.23-1.23-3.35-.32-1.28-.66-2.55-1.11-3.79-.69-3.3-1.21-6.62-1.35-9.99,0-.09,0-.19-.01-.28,0-.04,0-.08,0-.11,0-.99,.01-1.99,.02-2.98,.14-1.53,.28-3.07,.42-4.6,.38-1.98,.69-3.97,1.17-5.93,.52-1.52,1-3.07,1.57-4.57,.7-1.84,1.43-3.67,2.47-5.36,.06-.09,.07-.21,.11-.32,1.05-1.78,2.06-3.59,3.38-5.2,.38-.47,.76-.95,1-1.52,1.5-1.59,2.88-3.27,4.46-4.79,5.75-5.55,12.49-9.36,20.17-11.56,2.06-.59,4.16-.95,6.25-1.42,2.25-.12,4.48-.47,6.74-.43,2.25,.04,4.49,.18,6.72,.48,4,.53,7.8,1.73,11.55,3.15,1.87,.82,3.68,1.76,5.49,2.68,.96,.62,1.93,1.23,2.88,1.86,2.19,1.45,4.18,3.16,6.19,4.84,.89,.91,1.79,1.82,2.68,2.73,.66,1.03,1.48,1.92,2.31,2.8Zm6.93,14.72c-.07-.77-.38-1.47-.7-2.16-.16-.87-.7-1.6-.97-2.43-.52-1.45-1.35-2.74-2.14-4.06-.46-1.14-1.1-2.17-1.88-3.11-.33-.72-.77-1.35-1.34-1.9-.73-1.13-1.54-2.19-2.52-3.12-.54-.6-.96-1.3-1.63-1.77-.58-.69-1.18-1.36-1.94-1.86-.53-.66-1.18-1.17-1.89-1.63-1.13-1.06-2.38-1.97-3.73-2.73-.87-.74-1.88-1.25-2.88-1.78-1.02-.78-2.26-1.12-3.38-1.71-1.43-.73-2.89-1.38-4.46-1.76-.66-.38-1.42-.46-2.13-.71-2.03-.72-4.14-1.06-6.26-1.32-1.55-.44-3.14-.48-4.73-.52-.9,0-1.79-.02-2.69-.03-1.08,.02-2.17-.1-3.25,.14-1.19,0-2.37,.12-3.52,.43-1.37,.19-2.75,.32-4.05,.82-.97,.25-1.96,.47-2.92,.77-5.57,1.7-10.59,4.43-15.14,8.04-1.69,1.34-3.33,2.74-4.71,4.42-1.05,.98-2.03,2.02-2.78,3.25-.76,.71-1.34,1.56-1.88,2.43-.68,.93-1.31,1.89-1.8,2.94-.54,.7-1.01,1.44-1.2,2.33-.97,1.36-1.55,2.91-2.1,4.47-.98,2.16-1.63,4.42-2.06,6.75-.32,1.2-.65,2.4-.67,3.65-.2,1.02-.37,2.05-.31,3.1-.24,1.17-.15,2.34-.12,3.52-.03,1.09-.12,2.18,.07,3.27,.06,1.46,.16,2.91,.54,4.33,.03,.87,.24,1.71,.48,2.54,.05,.75,.22,1.48,.54,2.16,.36,1.74,.97,3.41,1.71,5.02,.28,1.05,.76,2.01,1.29,2.94,.55,1.28,1.17,2.53,1.99,3.67,.28,.71,.71,1.33,1.2,1.91,.36,.81,.93,1.49,1.49,2.16,.86,1.28,1.81,2.49,2.95,3.54,.35,.59,.84,1.05,1.38,1.46,.6,.71,1.21,1.41,2.03,1.88,1.17,1.29,2.56,2.31,4.02,3.25,.82,.74,1.76,1.29,2.72,1.8,.78,.61,1.65,1.05,2.55,1.45,.78,.48,1.59,.92,2.47,1.21,.94,.53,1.93,.94,2.97,1.23,1.14,.51,2.29,.98,3.53,1.17,1.04,.44,2.14,.64,3.24,.83,2.8,.67,5.64,1.03,8.53,1.04,1.62,.02,3.25,.14,4.86-.12,.56,.06,1.12-.06,1.67-.13,2.17-.28,4.35-.53,6.44-1.22,.09-.01,.18-.02,.27-.04,3.94-.89,7.61-2.46,11.13-4.42,4.12-2.29,7.85-5.09,10.98-8.63,1.81-1.82,3.42-3.79,4.8-5.95,1.12-1.35,1.99-2.85,2.71-4.44,1.44-2.42,2.52-5,3.25-7.72,.56-1.16,.84-2.4,1.04-3.66,.5-1.63,.73-3.32,.92-5,.14-1.53,.4-3.05,.28-4.59,.23-.99-.03-1.98-.01-2.97,.09-.91-.08-1.8-.14-2.7-.34-1.52-.19-3.12-.77-4.59-.06-1.03-.31-2.02-.69-2.97-.03-.78-.49-1.43-.67-2.16Z"/>
      <path class="cls-12" d="M45.58,5.04c-2.08,.47-4.19,.83-6.25,1.42-7.67,2.2-14.41,6.01-20.17,11.56-1.57,1.52-2.96,3.2-4.46,4.79-.56-.38,.04-.68,.07-1.03,.95-.69,1.56-1.68,2.29-2.56,1.03-.97,2.07-1.93,3.09-2.91,.16-.15,.4-.3,.28-.56-.11-.25-.39-.17-.6-.19-.77-.05-1.52,.08-2.28,.18-.24,.03-.52,.13-.66-.16-.12-.25,.09-.42,.24-.58,.95-.95,2.02-1.78,3.08-2.6,.19-.15,.4-.16,.63-.18,1.32-.11,2.64-.21,3.96-.36,.76-.08,1.51-.26,2.17-.67,2.35-1.48,4.89-2.56,7.38-3.76,1.31-.39,2.58-.91,3.9-1.3,2.12-.61,4.27-1.09,6.44-1.45,.37-.06,.67,0,.87,.34Z"/>
      <path class="cls-6" d="M70.59,8.24c-3.75-1.42-7.55-2.62-11.55-3.15-2.23-.3-4.47-.44-6.72-.48,.25-.36,.63-.37,1.01-.38,.71-.02,1.41-.02,2.12-.04,2.81,.19,5.58,.58,8.31,1.28,.24,.06,.49,.07,.73,.11,.1,.12,.22,.22,.38,.25,1.88,.37,3.65,1.09,5.44,1.75,.09,.05,.18,.1,.27,.15,0,.17,0,.34,0,.5Z"/>
      <path class="cls-5" d="M58.69,99.4c7.67-1.05,14.68-3.77,21.05-8.19,2.98-2.07,5.53-4.58,8.06-7.14,.11-.11,.23-.22,.34-.33,0,.16,0,.31,.01,.47-.33,.76-1.12,1.16-1.49,1.89-1.4,1.26-2.8,2.52-4.2,3.78-.89,.58-1.75,1.21-2.56,1.9-.7,.35-1.37,.77-2.02,1.22-.15,.1-.33,.2-.28,.42,.06,.26,.3,.26,.49,.25,.69-.05,1.38-.13,2.07-.19,.51-.04,1.03-.05,1.54-.07,.37-.01,.61,.13,.62,.53-.65-.03-1.04,.47-1.52,.78-.68,.43-1.28,.99-2.12,1.12-1.55-.1-3.08,.26-4.62,.27-2.17,0-4.06,1.02-6.08,1.55-.1,.03-.17,.13-.26,.2l-3.92,1.21c-1.71,.27-3.39,.74-5.13,.83,0-.17,0-.33,0-.5Z"/>
      <path class="cls-11" d="M63.82,99.08c1.31-.4,2.61-.81,3.92-1.21,.2,.11,.42,.14,.65,.12,1.29-.11,2.58-.24,3.88-.34,1.15-.09,2.3-.41,3.46-.05-.19,.17-.38,.34-.58,.51-.51,.14-1.01,.28-1.47,.55-.17-.28-.45-.28-.72-.25-2.09,.19-4.19,.41-6.28,.59-.95,.08-1.9,.2-2.86,.07Z"/>
      <path class="cls-14" d="M36.4,97.16c1.89,.5,3.73,1.16,5.64,1.56,2.69,.56,5.4,.93,8.14,1.07,0,.16,0,.32-.01,.48-1.4,.11-2.79-.18-4.18-.23-1.13-.35-2.33-.4-3.48-.68-.78-.19-1.56-.37-2.34-.55-1.22-.36-2.43-.73-3.65-1.09-.04-.19-.08-.38-.12-.56Z"/>
      <path class="cls-18" d="M50.17,100.28c0-.16,0-.32,.01-.48,2.6,.01,5.19,0,7.78-.28,.24-.03,.49-.07,.73-.11,0,.17,0,.33,0,.5-.98,.26-1.99,.25-2.99,.34-1.65,.14-3.3,.24-4.96,.18-.2,0-.4-.03-.58-.14Z"/>
      <path class="cls-14" d="M103.57,53.67c.02,1.36-.16,2.71-.28,4.06-1.01,.35-2.06,.28-3.1,.26,.23-1.98,.49-3.96,.37-5.96,.01-.13,.03-.25,.04-.38,.98-.03,1.97,.06,2.94-.13,.01,.71,.02,1.43,.03,2.14Z"/>
      <path class="cls-12" d="M98,36.24c.74-.35,1.53-.27,2.31-.25,.42,0,.67,.27,.79,.63,.24,.74,.47,1.49,.66,2.25,.11,.46-.09,.77-.57,.9-.62,.17-1.24,.13-1.87,.1-.58-.03-.41-.7-.76-.92-.04-.26-.05-.53-.12-.78-.18-.64-.47-1.24-.44-1.92Z"/>
      <path class="cls-16" d="M100.45,48.68c-.09-1.08-.18-2.16-.27-3.24,.99-.08,1.98-.09,2.96-.27-.05,.85,.22,1.67,.28,2.51,.02,.24,.08,.48,0,.73,0,0-.03,0-.03,0-1-.05-1.98,.04-2.95,.27Z"/>
      <path class="cls-18" d="M100.45,48.68c.97-.23,1.96-.33,2.95-.27,.01,1.04,.24,2.07,.13,3.12-.97,.19-1.96,.1-2.94,.13,.03-1-.22-1.98-.14-2.98Z"/>
      <path class="cls-8" d="M103.15,45.17c-.98,.19-1.97,.19-2.96,.27-.24-.54-.29-1.13-.37-1.7-.08-.56,.17-.91,.75-.99,.44-.06,.89-.09,1.34-.12,.49-.03,.75,.26,.85,.69,.15,.61,.27,1.23,.4,1.84Z"/>
      <path class="cls-5" d="M100.55,52.03c.12,2-.14,3.98-.37,5.96-.08,.26-.25,.39-.52,.41,.22-2.25,.3-4.5,.41-6.75,.13,.17,.25,.35,.48,.38Z"/>
      <path class="cls-18" d="M96.66,34.49c-.84-1.52-1.51-3.12-2.18-4.72,.1,0,.2,0,.3,0,.39,.19,.54,.56,.68,.93,.12,.31,.24,.62,.52,.83,.24,.76,.47,1.52,.96,2.16,.04,.27,.07,.53,.11,.8-.13,0-.26,0-.39,0Z"/>
      <path class="cls-17" d="M96.66,34.49c.13,0,.26,0,.39,0,.31,.59,.63,1.17,.94,1.76-.03,.68,.27,1.29,.44,1.92,.07,.25,.08,.52,.12,.78-.12,.05-.24,.1-.35,.15-.51-1.54-1.02-3.07-1.54-4.61Z"/>
      <path class="cls-5" d="M100.07,51.11s0-.09,0-.14c0,.05,0,.09,0,.14Z"/>
      <path class="cls-9" d="M2.33,41.25c.15-.7,.25-1.41,.48-2.09,.15-.43,.4-.7,.86-.72,.8-.05,1.6-.24,2.41-.15-.11,.48-.23,.97-.34,1.45-.18,.4-.12,.88-.42,1.24-1.01-.05-1.99,.17-2.99,.27Z"/>
      <path class="cls-13" d="M6.92,35.57c-1.01-.24-1.98,.17-2.98,.13,0-.8,.42-1.45,.8-2.11,.16-.28,.47-.41,.8-.43,.56-.05,1.12-.09,1.67-.12,.52-.03,.72,.24,.55,.71-.23,.63-.44,1.27-.84,1.83Z"/>
      <path class="cls-18" d="M5.32,40.98c.29-.36,.24-.84,.42-1.24,.15,0,.3,.02,.46,.03-.48,1.96-.79,3.95-1.17,5.93-.13-.05-.26-.09-.39-.14-.09-.59,.1-1.16,.15-1.74,.25-.93,.46-1.88,.53-2.85Z"/>
      <path class="cls-11" d="M85.16,17.61c-2.01-1.68-4.01-3.38-6.19-4.84-.95-.63-1.92-1.24-2.88-1.86,.02-.12,.03-.23,.05-.35,1.51,.36,2.99-.13,4.49-.15,.25,0,.42-.15,.5-.39,.64,.26,1.11,.75,1.65,1.15,.12,.09,.29,.18,.24,.37-.06,.22-.26,.21-.44,.23-.8,.09-1.6,.18-2.4,.28-.43,.06-.62,.31-.22,.6,1.18,.85,2.17,1.94,3.46,2.64,.55,.81,1.45,1.26,2.04,2.02-.1,.09-.19,.19-.29,.28Z"/>
      <path class="cls-17" d="M76.13,10.57c-.02,.12-.03,.23-.05,.35-1.82-.92-3.63-1.86-5.49-2.68,0-.17,0-.34,0-.5,1.91,.64,3.68,1.57,5.39,2.62,.07,.04,.11,.14,.16,.21Z"/>
      <path class="cls-13" d="M90.15,23.15c-.83-.88-1.65-1.78-2.31-2.8,.28-.22,.15-.42-.05-.6-.23-.22-.4-.47-.47-.78,.16-.44,.54-.42,.9-.41,.77,.02,1.53,.01,2.22-.41,.54,.41,1,.89,1.34,1.48,.33,.58,.25,.75-.4,.82-.51,.06-1.03,.07-1.53,.16-.74,.13-.79,.37-.37,.98,.36,.53,.99,.87,1.1,1.56-.14,0-.29,0-.43,0Z"/>
      <path class="cls-12" d="M4.78,43.82c-.05,.58-.23,1.15-.15,1.74-.38,1.27-.45,2.58-.44,3.9-.73,.02-1.45,.19-2.19,.17-.54-.02-.77-.24-.76-.77,.01-.42,0-.85,0-1.27,.08-1.23,.26-2.44,.55-3.64,.31-.03,.61-.09,.92-.08,.7,.01,1.38-.35,2.08-.04Z"/>
      <path class="cls-16" d="M1.38,57.33c-.26-.88-.05-1.81-.26-2.7,.99-.09,1.97-.18,2.96-.27-.03,.91,.11,1.81,.26,2.7-.99,.09-1.97,.18-2.96,.27Z"/>
      <path class="cls-11" d="M4.34,57.06c-.15-.89-.29-1.79-.26-2.7,.03-.34,.19-.58,.53-.68,.14,3.37,.66,6.69,1.35,9.99-.13,0-.26,0-.39,.01-.43-1.09-.59-2.24-.83-3.37-.09-1.09-.42-2.15-.4-3.25Z"/>
      <path class="cls-5" d="M4.19,49.47c0-1.32,.06-2.63,.44-3.9,.13,.05,.26,.09,.39,.14-.14,1.53-.28,3.07-.42,4.6-.41-.15-.36-.51-.41-.83Z"/>
      <path class="cls-11" d="M4.59,53.28s.01,.07,0,.11c0-.04-.01-.07,0-.11Z"/>
      <path class="cls-9" d="M87.32,18.96c.08,.31,.24,.57,.47,.78,.19,.19,.33,.38,.05,.6-.9-.91-1.79-1.82-2.69-2.73,.1-.09,.19-.19,.29-.28,.66,.51,1.15,1.21,1.87,1.63Z"/>
      <path class="cls-12" d="M11.38,82.86c-.58-.68-1.16-1.36-1.74-2.05-.56-1.21-1.31-2.31-1.96-3.47-.41-.74-.3-.95,.56-.97,.7,0,1.39-.12,2.07-.28,.54,.77,1.07,1.54,1.61,2.31,.75,1.46,1.87,2.67,2.77,4.03-1.06,.48-2.2,.32-3.31,.43Z"/>
      <path class="cls-18" d="M7.07,67.46c.41,1.12,.82,2.23,1.23,3.35-.27,.45-.04,.9,0,1.35-.54-.15-1.07-.04-1.6,.07-.52,.11-1.02,.11-1.53-.03-.46-1.11-1.03-2.18-1.21-3.39,.55,0,1.11,.02,1.66-.04,1.04-.11,1.14-.27,1.03-1.3,.14,0,.28,0,.42,0Z"/>
      <path class="cls-14" d="M8.29,72.16c-.03-.45-.26-.9,0-1.35,.44,.42,.55,1.02,.78,1.54,.94,2.12,2.17,4.07,3.35,6.06-.17,0-.34,0-.51,0-.54-.77-1.07-1.54-1.61-2.31-.61-1.35-1.2-2.7-2.02-3.94Z"/>
      <path class="cls-17" d="M36.52,97.72c1.22,.36,2.43,.73,3.65,1.09-.4,.42-.96,.34-1.44,.39-1.51,.16-3.01,.4-4.53,.42-.17,0-.34,.08-.52,.12-1.1-.31-2.19-.63-3.11-1.35,.15-.19,.36-.25,.59-.27,1.79-.14,3.57-.28,5.36-.42Z"/>
      <path class="cls-16" d="M102.74,61.38c-.2,.76-.26,1.56-.55,2.3-1.04-.05-2.06,.1-3.08,.27,0-.05-.01-.09-.02-.14,.16-.59,.32-1.17,.48-1.76,.12-.43,.38-.74,.83-.77,.78-.05,1.57-.14,2.34,.09Z"/>
      <path class="cls-14" d="M99.09,63.82s.01,.09,.02,.14c-.06,.24-.12,.48-.19,.72-.45,1.5-.9,3.01-1.35,4.51-.17,.34-.33,.69-.5,1.03-.63,1.29-1.04,2.69-1.9,3.86-.1-.06-.2-.12-.29-.19,.99-2.32,2.07-4.59,2.82-7,.33-1.07,.65-2.15,.98-3.22,.14,.05,.28,.1,.42,.15Z"/>
      <path class="cls-11" d="M4.78,43.82c-.7-.31-1.39,.06-2.08,.04-.31,0-.61,.05-.92,.08,.12-.91,.22-1.83,.55-2.7,.99-.11,1.98-.32,2.99-.27-.07,.97-.28,1.91-.53,2.85Z"/>
      <path class="cls-14" d="M4.74,60.31c.23,1.13,.39,2.29,.83,3.37-.1,.85,.42,1.6,.43,2.43-.93,.23-1.88,.31-2.83,.39-.69-1.92-1.13-3.9-1.3-5.94,.95-.16,1.9-.29,2.87-.25Z"/>
      <path class="cls-18" d="M4.74,60.31c-.97-.04-1.92,.09-2.87,.25-.4-1.04-.43-2.14-.49-3.24,.99-.09,1.98-.18,2.96-.27-.02,1.1,.31,2.16,.4,3.25Z"/>
      <path class="cls-13" d="M3.17,66.5c.95-.08,1.9-.16,2.83-.39,.38,.37,.41,.92,.65,1.36,.11,1.03,0,1.19-1.03,1.3-.55,.06-1.11,.03-1.66,.04-.4-.72-.66-1.49-.79-2.31Z"/>
      <path class="cls-14" d="M25.03,95.43c-.73-.46-1.47-.91-2.2-1.37-.28-.18-.56-.37-.91-.39-.17-.51-.68-.69-1.02-1.03-.37-.37-.34-.6,.16-.76,.64-.2,1.32-.17,1.99-.22,.4-.03,.8-.04,1.19-.16,1.25,.66,2.33,1.59,3.62,2.18,.39,.48,1.04,.56,1.49,.94-.16,.13-.33,.25-.54,.24-.96-.02-1.89,.29-2.85,.3-.34,0-.67,.03-.94,.27Z"/>
      <path class="cls-16" d="M17.45,89.5c-1.03-.54-1.73-1.42-2.44-2.3,1.27-.02,2.52-.35,3.8-.28,.16,.15,.33,.3,.48,.46,.54,.59,1.31,.95,1.7,1.68-1.18,.15-2.36,.3-3.55,.44Z"/>
      <path class="cls-11" d="M21,89.06c-.39-.73-1.16-1.09-1.7-1.68-.15-.16-.32-.31-.48-.46-.16-.18-.3-.38-.48-.54-.37-.34-.67-.71-.59-1.26,1.28,1.16,2.51,2.38,3.84,3.47,2.08,1.7,4.18,3.39,6.55,4.69-.04,.17-.13,.3-.27,.4-1.29-.59-2.37-1.53-3.62-2.18-1.06-.84-2.09-1.72-3.25-2.44Z"/>
      <path class="cls-18" d="M88.15,84.22c0-.16,0-.31-.01-.47,1.27-1.64,2.54-3.29,3.81-4.93,.13,.04,.26,.09,.39,.13-.12,.39-.39,.69-.6,1.04-.17,.27-.54,.5-.31,.87,.22,.35,.59,.19,.92,.17,.72-.06,1.45-.34,2.18-.04-.39,1.07-1.15,1.89-1.91,2.7-.1-.17-.25-.26-.44-.24-1.36,.17-2.78-.02-4.02,.77Z"/>
      <path class="cls-8" d="M97.9,75.45c-.06,.31-.11,.61-.17,.92-.33,.1-.51,.35-.62,.65-.31,.82-.91,1.21-1.78,1.28-.78,.06-1.54,.23-2.31-.04,.54-.95,1.07-1.89,1.61-2.84,.27,.16,.56,.15,.85,.14,.81-.03,1.62-.07,2.42-.11Z"/>
      <path class="cls-13" d="M94.62,75.42c-.54,.95-1.07,1.89-1.61,2.84-.22,.23-.45,.45-.67,.68-.13-.04-.26-.09-.39-.13,.96-1.65,1.87-3.33,2.93-4.92,.1,.06,.2,.12,.29,.19-.01,.52-.43,.87-.55,1.34Z"/>
      <path class="cls-13" d="M79.9,91.78c.81-.69,1.67-1.32,2.56-1.9,.49,.5,1.1,.25,1.66,.22,.9-.05,1.78-.22,2.69-.2-.35,.77-1.23,1.04-1.65,1.74-1.3,.03-2.58,.2-3.86,.35-.48,.06-.98,.2-1.39-.21Z"/>
      <path class="cls-14" d="M86.81,89.9c-.9-.02-1.79,.16-2.69,.2-.56,.03-1.16,.28-1.66-.22,1.4-1.26,2.8-2.52,4.2-3.78,.89,.06,1.77-.08,2.65-.19,.45-.06,.84-.01,1.15,.34-.87,.99-1.74,1.97-2.6,2.96-.35,.23-.7,.46-1.05,.69Z"/>
      <path class="cls-13" d="M90.46,86.26c-.31-.36-.71-.4-1.15-.34-.88,.12-1.76,.25-2.65,.19,.37-.73,1.16-1.13,1.49-1.89,1.24-.79,2.66-.6,4.02-.77,.2-.02,.34,.07,.44,.24-.63,.93-1.29,1.84-2.15,2.58Z"/>
      <path class="cls-18" d="M36.52,97.72c-1.79,.14-3.57,.28-5.36,.42-.23,.02-.44,.08-.59,.27-1.17-.41-2.37-.79-3.27-1.72,.17-.12,.36-.18,.57-.17,1.12,.05,2.21-.26,3.32-.28,.31,0,.56-.13,.73-.4,.32,0,.64,.03,.94-.12,1.18,.48,2.36,.96,3.54,1.44,.04,.19,.08,.38,.12,.56Z"/>
      <path class="cls-6" d="M31.92,95.84c-.17,.26-.42,.39-.73,.4-1.11,.03-2.2,.33-3.32,.28-.2,0-.4,.05-.57,.17-.63-.11-1.13-.54-1.73-.72-.18-.18-.36-.36-.54-.54,.27-.24,.6-.27,.94-.27,.96,0,1.89-.32,2.85-.3,.2,0,.38-.11,.54-.24,.85,.41,1.71,.81,2.56,1.22Z"/>
      <path class="cls-12" d="M94.62,75.42c.13-.47,.54-.82,.55-1.34,.86-1.18,1.27-2.57,1.9-3.86,.17-.34,.33-.69,.5-1.03,.36,.04,.71,0,1.06-.04,.63-.06,1.28-.25,1.9,.09-.13,.58-.26,1.16-.38,1.75-.76,1-.99,2.24-1.59,3.32-.22,.39-.33,.83-.66,1.16-.81,.04-1.62,.08-2.42,.11-.29,.01-.59,.02-.85-.14Z"/>
      <path class="cls-9" d="M100.53,69.23c-.62-.34-1.26-.15-1.9-.09-.36,.04-.71,.09-1.06,.04,.45-1.5,.9-3.01,1.35-4.51,.07-.24,.13-.48,.19-.72,1.02-.17,2.04-.32,3.08-.27-.43,1.89-.75,3.81-1.66,5.55Z"/>
      <path class="cls-8" d="M75.73,97.61c-1.16-.36-2.31-.04-3.46,.05-1.29,.1-2.59,.22-3.88,.34-.23,.02-.45-.01-.65-.12,.09-.07,.16-.18,.26-.2,2.02-.54,3.91-1.55,6.08-1.55,1.54,0,3.07-.37,4.62-.27-.87,.79-1.79,1.49-2.97,1.77Z"/>
      <path class="cls-9" d="M17.74,85.12c-.08,.55,.22,.92,.59,1.26,.18,.16,.32,.36,.48,.54-1.28-.07-2.53,.27-3.8,.28-.62-.59-1.24-1.19-1.87-1.78-.05-.17-.11-.34-.16-.52,.86,.01,1.71-.09,2.55-.22,.71-.11,.78-.4,.32-.93-.35-.4-.75-.78-.95-1.29,.15,0,.3-.02,.44-.02,.8,.89,1.6,1.79,2.4,2.68Z"/>
      <path class="cls-11" d="M14.9,82.46c.2,.51,.6,.89,.95,1.29,.46,.53,.39,.82-.32,.93-.84,.13-1.69,.24-2.55,.22-.65-.59-1.18-1.27-1.6-2.04,1.11-.11,2.25,.06,3.31-.43,.07,0,.14,.01,.21,.02Z"/>
      <path class="cls-14" d="M97.1,66.53c-.73,2.72-1.82,5.29-3.25,7.72-.26-.19-.51-.1-.75,.05-.31,.19-.62,.37-.93,.55-4.82,2.76-9.66,5.48-14.46,8.29-4.72,2.76-9.45,5.5-14.19,8.21-3.98,2.28-7.94,4.6-11.91,6.89-.38,.22-.64,.49-.62,.96-2.88,0-5.72-.36-8.53-1.04,.08-.2,.24-.32,.42-.42,2.65-1.56,5.37-3.01,8-4.62,2.41-1.48,4.91-2.84,7.36-4.26,2.82-1.64,5.62-3.31,8.45-4.94,4.33-2.49,8.67-4.95,13-7.44,2.1-1.21,4.16-2.51,6.28-3.68,1.93-1.07,3.83-2.18,5.74-3.28,1.19-.68,2.35-1.42,3.56-2.06,.6-.32,1.07-.94,1.84-.92Z"/>
      <path class="cls-10" d="M59.23,5.82c2.13,.26,4.23,.6,6.26,1.32-1.11,.81-2.35,1.41-3.53,2.1-3.42,1.99-6.84,3.99-10.25,5.98-1.48,.86-2.97,1.7-4.44,2.57-.38,.22-.83,.4-.89,.94-2.34,.56-4.69,1.07-6.92,2.02-4.53,1.93-8.57,4.54-11.93,8.18-.88,.96-1.58,2.08-2.61,2.9-.21-.16-.42-.11-.63,0-.94,.52-1.91,1-2.83,1.57-4.16,2.59-8.44,4.99-12.69,7.43-.77,.44-1.49,1.02-2.39,1.22,.42-2.33,1.08-4.59,2.06-6.75,.32-.03,.61-.17,.88-.33,1.68-.96,3.37-1.91,5.04-2.88,5.39-3.13,10.77-6.28,16.17-9.4,6.35-3.67,12.72-7.31,19.08-10.97,2.83-1.63,5.65-3.27,8.46-4.92,.43-.25,.96-.44,1.15-.98Z"/>
      <path class="cls-14" d="M59.23,5.82c-.2,.55-.72,.73-1.15,.98-2.81,1.65-5.64,3.29-8.46,4.92-6.36,3.66-12.73,7.3-19.08,10.97-5.4,3.12-10.78,6.27-16.17,9.4-1.67,.97-3.36,1.93-5.04,2.88-.27,.16-.56,.3-.88,.33,.55-1.56,1.13-3.11,2.1-4.47,.49-.02,.9-.27,1.31-.51,4.61-2.67,9.22-5.35,13.83-8.02,4.48-2.59,8.96-5.17,13.43-7.76,4.85-2.8,9.69-5.61,14.53-8.42,.34-.2,.73-.37,.85-.82,1.59,.04,3.19,.08,4.73,.52Z"/>
      <path class="cls-6" d="M97.1,66.53c-.77-.02-1.23,.6-1.84,.92-1.21,.63-2.37,1.37-3.56,2.06-1.91,1.1-3.81,2.21-5.74,3.28-2.13,1.18-4.18,2.47-6.28,3.68-4.33,2.49-8.67,4.95-13,7.44-2.83,1.63-5.63,3.3-8.45,4.94-2.45,1.42-4.94,2.78-7.36,4.26-2.63,1.61-5.35,3.06-8,4.62-.18,.11-.34,.23-.42,.42-1.1-.2-2.2-.39-3.24-.83,.26-.49,.79-.57,1.21-.81,5.76-3.34,11.52-6.66,17.27-9.99,.35-.2,.73-.37,.85-.82,.35-.09,.69-.19,1.04-.27,6.2-1.38,11.61-4.24,16.24-8.58,1.15-1.08,2.07-2.36,3.21-3.45,.62,.03,1.12-.31,1.62-.6,5.4-3.13,10.79-6.28,16.19-9.41,.4-.23,.78-.54,1.29-.53-.2,1.26-.49,2.5-1.04,3.66Z"/>
      <path class="cls-6" d="M50.98,99.19c-.02-.47,.25-.74,.62-.96,3.97-2.3,7.93-4.62,11.91-6.89,4.74-2.71,9.48-5.45,14.19-8.21,4.79-2.81,9.64-5.53,14.46-8.29,.31-.18,.62-.36,.93-.55,.25-.15,.49-.24,.75-.05-.72,1.59-1.6,3.09-2.71,4.44-.44,.03-.83,.18-1.21,.4-1.28,.74-2.57,1.49-3.85,2.23-2.6,1.51-5.17,3.07-7.8,4.54-4.04,2.25-8.02,4.6-12.03,6.92-2.84,1.64-5.68,3.29-8.5,4.96-.67,.4-1.41,.7-1.91,1.33-1.62,.25-3.24,.13-4.86,.12Z"/>
      <path class="cls-18" d="M55.85,99.07c.5-.64,1.25-.94,1.91-1.33,2.82-1.67,5.66-3.32,8.5-4.96,4-2.32,7.99-4.67,12.03-6.92,2.63-1.46,5.2-3.03,7.8-4.54,1.28-.74,2.56-1.49,3.85-2.23,.37-.22,.77-.37,1.21-.4-1.38,2.16-3,4.13-4.8,5.95-.73-.05-1.17,.52-1.74,.8-2.63,1.32-5.11,2.91-7.68,4.34-1.88,1.05-3.66,2.27-5.55,3.29-2.19,1.18-4.32,2.48-6.48,3.72-.4,.23-.76,.49-.92,.94-2.09,.69-4.27,.94-6.44,1.22-.55,.07-1.1,.19-1.67,.13Z"/>
      <path class="cls-18" d="M98.15,62.87c-.51-.02-.89,.29-1.29,.53-5.4,3.13-10.79,6.27-16.19,9.41-.5,.29-1,.62-1.62,.6,1.53-2.28,3.17-4.5,4.29-7.03,1.03-.06,1.79-.72,2.6-1.21,2.31-1.39,4.71-2.63,7-4.06,1.5-.94,3.17-1.57,4.6-2.63,.46-.34,.95-.6,1.54-.61-.2,1.69-.42,3.37-.92,5Z"/>
      <path class="cls-5" d="M67.62,7.86c1.57,.37,3.03,1.02,4.46,1.76-.15,.1-.29,.22-.44,.31-1.58,.89-3.11,1.87-4.73,2.7-1.13,.58-2.15,1.38-3.28,1.95-1.66,.84-3.16,1.94-4.84,2.74-.53,.25-1.14,.58-1.33,1.26-2.38-.21-4.76-.37-7.15-.32,.11-.68,.71-.9,1.2-1.18,2.38-1.37,4.8-2.68,7.16-4.08,2.96-1.76,5.92-3.51,8.96-5.14Z"/>
      <path class="cls-12" d="M24.98,90.45c-1.45-.94-2.85-1.96-4.02-3.25,.17-.28,.45-.42,.73-.58,3.18-1.86,6.36-3.72,9.53-5.59,.53-.31,1.05-.6,1.65-.74,1.59,.75,3.04,1.78,4.59,2.6,0,.38-.16,.62-.49,.81-2.7,1.54-5.37,3.11-8.08,4.63-1.29,.72-2.49,1.63-3.91,2.12Z"/>
      <path class="cls-16" d="M48.56,5.41c1.07-.23,2.16-.12,3.25-.14-.09,.32-.3,.54-.59,.71-4.24,2.46-8.48,4.93-12.73,7.38-5.41,3.13-10.83,6.25-16.25,9.38-3.23,1.87-6.46,3.75-9.69,5.62-.25,.14-.49,.36-.8,.14,.49-1.05,1.12-2.01,1.8-2.94,.36,.18,.66-.02,.95-.18,4.38-2.53,8.77-5.05,13.15-7.59,3.78-2.19,7.52-4.44,11.33-6.57,3.03-1.69,5.99-3.49,8.99-5.21,.25-.15,.52-.28,.6-.6Z"/>
      <path class="cls-16" d="M8.63,69.65c-.74-1.62-1.34-3.28-1.71-5.02,.34-.03,.65-.14,.95-.32,2.75-1.61,5.49-3.23,8.26-4.8,.84-.48,1.58-1.22,2.65-1.25,.3,1.75,.84,3.43,1.3,5.14-.09,.03-.18,.05-.25,.09-2.88,1.57-5.69,3.27-8.52,4.93-.85,.49-1.65,1.11-2.68,1.23Z"/>
      <path class="cls-12" d="M78.34,13.11c1.35,.76,2.6,1.67,3.73,2.73-.05,.42-.39,.58-.7,.76-3.12,1.82-6.31,3.54-9.39,5.44-.67,.41-1.33,.84-2.12,.99-1.47-.73-2.94-1.47-4.42-2.2,.04-.38,.35-.5,.62-.66,1.27-.77,2.55-1.52,3.85-2.24,2.83-1.57,5.62-3.21,8.43-4.83Z"/>
      <path class="cls-13" d="M11.75,28.51c.31,.22,.56,0,.8-.14,3.23-1.87,6.46-3.75,9.69-5.62,5.41-3.13,10.83-6.25,16.25-9.38,4.25-2.46,8.48-4.92,12.73-7.38,.28-.16,.5-.38,.59-.71,.9,0,1.79,.02,2.69,.03-.11,.45-.5,.62-.85,.82-4.84,2.81-9.69,5.62-14.53,8.42-4.48,2.59-8.96,5.17-13.43,7.76-4.61,2.67-9.22,5.35-13.83,8.02-.41,.23-.81,.49-1.31,.51,.2-.88,.66-1.62,1.2-2.33Z"/>
      <path class="cls-12" d="M98.44,43c.57,1.48,.43,3.08,.77,4.59-.12,.06-.25,.11-.36,.18-3.76,2.17-7.52,4.34-11.27,6.51-.39,.22-.77,.47-1.25,.47,0-1.66,0-3.33,.01-4.99,.44-.28,.86-.57,1.31-.83,2.7-1.58,5.4-3.17,8.11-4.72,.85-.48,1.64-1.13,2.68-1.22Z"/>
      <path class="cls-17" d="M99.07,57.86c-.59,.02-1.08,.27-1.54,.61-1.43,1.06-3.1,1.69-4.6,2.63-2.29,1.43-4.69,2.66-7,4.06-.81,.49-1.57,1.16-2.6,1.21,.77-1.71,1.32-3.5,1.9-5.27,.32,.01,.62-.06,.9-.22,3.13-1.82,6.25-3.67,9.41-5.44,1.27-.71,2.45-1.59,3.81-2.16,.11,1.54-.14,3.06-.28,4.59Z"/>
      <path class="cls-12" d="M5.9,59.92c-.38-1.42-.47-2.87-.54-4.33,.27-.2,.53-.42,.82-.59,1.99-1.14,3.98-2.27,5.97-3.4,1.33-.75,2.68-1.47,3.97-2.28,.75-.47,1.51-.88,2.33-1.18-.18,1.66-.15,3.33-.18,4.99-.12,.05-.25,.1-.37,.16-3.46,1.82-6.8,3.85-10.18,5.82-.57,.33-1.11,.79-1.83,.8Z"/>
      <path class="cls-5" d="M17.55,83.87c-1.13-1.06-2.08-2.26-2.95-3.54,.14-.3,.39-.48,.67-.64,1.91-1.09,3.79-2.23,5.72-3.27,1.62-.88,3.06-2.06,4.77-2.76,1.12,1.02,1.97,2.29,3.06,3.34-.21,.27-.5,.46-.79,.62-3.13,1.81-6.26,3.61-9.39,5.4-.41,.24-.84,.43-1.1,.86Z"/>
      <path class="cls-18" d="M58.55,85.7c-.11,.45-.5,.62-.85,.82-5.76,3.33-11.52,6.66-17.27,9.99-.42,.24-.95,.32-1.21,.81-1.24-.19-2.4-.66-3.53-1.17,.2-.35,.54-.54,.87-.73,4.74-2.71,9.48-5.42,14.22-8.13,.44-.25,.83-.54,1.01-1.04,2.27,.01,4.51-.26,6.76-.55Z"/>
      <path class="cls-10" d="M93.27,29.22c.79,1.31,1.62,2.61,2.14,4.06-.33,.02-.6,.17-.87,.33-1.55,.91-3.13,1.78-4.65,2.73-1.91,1.19-3.99,2.07-5.8,3.42-.65-1.39-1.3-2.79-1.95-4.18,.58-.5,1.29-.81,1.95-1.19,2.04-1.18,4.08-2.36,6.12-3.53,1.01-.57,1.93-1.32,3.07-1.64Z"/>
      <path class="cls-18" d="M6.38,42.06c.9-.2,1.62-.78,2.39-1.22,4.25-2.44,8.53-4.84,12.69-7.43,.91-.57,1.89-1.05,2.83-1.57,.21-.12,.42-.17,.63,0-.98,1.61-1.96,3.22-2.94,4.83-.37-.02-.71,.1-1.02,.29-2.97,1.72-5.94,3.45-8.92,5.17-2.1,1.21-4.21,2.4-6.32,3.6,.02-1.25,.35-2.45,.67-3.65Z"/>
      <path class="cls-9" d="M57.46,18.57c.19-.68,.8-1.01,1.33-1.26,1.68-.8,3.18-1.91,4.84-2.74,1.13-.57,2.15-1.37,3.28-1.95,1.62-.83,3.15-1.81,4.73-2.7,.16-.09,.29-.2,.44-.31,1.11,.59,2.35,.94,3.38,1.71-.59,.72-1.45,1.04-2.22,1.48-3.42,1.99-6.86,3.95-10.29,5.92-.37,.21-.75,.44-.77,.94-1.57-.37-3.14-.73-4.72-1.1Z"/>
      <path class="cls-18" d="M87.54,21.09c.98,.93,1.79,1.99,2.52,3.12-.22,.26-.47,.48-.76,.65-2.19,1.27-4.39,2.54-6.57,3.83-1.26,.74-2.58,1.36-3.78,2.19-1.03-.96-1.9-2.06-2.84-3.1,.78-.45,1.56-.88,2.33-1.34,3.02-1.8,6.14-3.44,9.1-5.35Z"/>
      <path class="cls-14" d="M11.91,76.26c-.81-1.14-1.43-2.39-1.99-3.67,.32-.02,.6-.17,.87-.33,2.69-1.54,5.39-3.07,8.06-4.64,.79-.46,1.64-.84,2.27-1.54,.67,1.27,1.34,2.54,2.01,3.81-.42,.21-.86,.39-1.27,.62-1.88,1.05-3.76,2.1-5.63,3.18-1.46,.84-2.89,1.71-4.34,2.57Z"/>
      <path class="cls-9" d="M48.56,5.41c-.08,.32-.34,.46-.6,.6-3,1.73-5.97,3.52-8.99,5.21-3.81,2.13-7.55,4.38-11.33,6.57-4.38,2.54-8.77,5.06-13.15,7.59-.29,.17-.58,.36-.95,.18,.54-.88,1.13-1.72,1.88-2.43,.49-.03,.9-.29,1.31-.52,6.47-3.74,12.93-7.48,19.39-11.22,2.63-1.52,5.26-3.04,7.88-4.57,.41-.24,.93-.4,1.04-.98,1.15-.31,2.33-.42,3.52-.43Z"/>
      <path class="cls-17" d="M5.71,45.71c2.11-1.2,4.22-2.39,6.32-3.6,2.98-1.71,5.95-3.44,8.92-5.17,.32-.18,.65-.3,1.02-.29-.76,1.33-1.13,2.83-1.83,4.18-.4-.02-.74,.1-1.08,.31-.66,.42-1.33,.84-2.01,1.23-2.96,1.71-5.91,3.43-8.88,5.1-.89,.5-1.69,1.23-2.78,1.32-.06-1.05,.11-2.08,.31-3.1Z"/>
      <path class="cls-16" d="M51.79,86.25c-.18,.5-.57,.79-1.01,1.04-4.74,2.71-9.48,5.42-14.22,8.13-.33,.19-.67,.38-.87,.73-1.04-.29-2.03-.7-2.97-1.23,.34-.6,.98-.77,1.52-1.07,4.03-2.33,7.99-4.77,12.1-6.98,.38-.21,.72-.46,.86-.9,1.54-.01,3.06,.18,4.59,.28Z"/>
      <path class="cls-8" d="M5.4,48.81c1.09-.09,1.88-.82,2.78-1.32,2.98-1.67,5.93-3.39,8.88-5.1,.68-.39,1.35-.81,2.01-1.23,.33-.21,.68-.33,1.08-.31-.37,1.31-.74,2.62-1.12,3.94-.65,.03-1.2,.36-1.74,.67-2.79,1.63-5.56,3.28-8.36,4.89-1.2,.69-2.33,1.52-3.65,1.99-.03-1.17-.13-2.35,.12-3.52Z"/>
      <path class="cls-11" d="M45.03,5.84c-.1,.58-.63,.74-1.04,.98-2.62,1.53-5.25,3.05-7.88,4.57-6.46,3.74-12.92,7.49-19.39,11.22-.41,.23-.81,.49-1.31,.52,.75-1.24,1.73-2.27,2.78-3.25,.28,0,.52-.12,.76-.25,3.53-2.03,7.06-4.05,10.59-6.08,1.66-.95,3.31-1.91,4.97-2.86,1.97-1.13,3.93-2.26,5.9-3.4,.26-.15,.49-.33,.56-.64,1.31-.49,2.69-.63,4.05-.82Z"/>
      <path class="cls-14" d="M93.27,29.22c-1.14,.32-2.06,1.07-3.07,1.64-2.05,1.16-4.09,2.34-6.12,3.53-.66,.38-1.36,.69-1.95,1.19-.8-.97-1.32-2.12-2.07-3.12,.3,0,.58-.08,.84-.23,3.5-2.04,7-4.08,10.5-6.12,.78,.94,1.42,1.97,1.88,3.11Z"/>
      <path class="cls-11" d="M62.18,19.67c.03-.5,.4-.73,.77-.94,3.43-1.97,6.87-3.93,10.29-5.92,.77-.45,1.63-.76,2.22-1.48,1,.53,2.01,1.04,2.88,1.78-2.81,1.61-5.6,3.26-8.43,4.83-1.3,.72-2.58,1.47-3.85,2.24-.27,.16-.58,.28-.62,.66-1.09-.39-2.18-.77-3.26-1.16Z"/>
      <path class="cls-8" d="M99.36,53.27c-1.36,.57-2.54,1.45-3.81,2.16-3.16,1.77-6.28,3.62-9.41,5.44-.28,.17-.58,.24-.9,.22,.26-1.17,.52-2.34,.77-3.5,.33,0,.61-.12,.89-.28,.7-.42,1.4-.81,2.1-1.22,2.71-1.57,5.41-3.14,8.12-4.69,.72-.41,1.38-.95,2.22-1.1-.02,.99,.25,1.98,.01,2.97Z"/>
      <path class="cls-11" d="M5.29,52.33c1.32-.47,2.45-1.3,3.65-1.99,2.8-1.6,5.57-3.26,8.36-4.89,.54-.31,1.09-.64,1.74-.67-.4,1.09-.22,2.27-.59,3.37-.82,.3-1.59,.71-2.33,1.18-1.29,.81-2.64,1.52-3.97,2.28-1.99,1.13-3.98,2.26-5.97,3.4-.29,.17-.55,.39-.82,.59-.19-1.09-.11-2.18-.07-3.27Z"/>
      <path class="cls-11" d="M24.98,90.45c1.42-.48,2.62-1.4,3.91-2.12,2.71-1.51,5.39-3.09,8.08-4.63,.33-.19,.5-.44,.49-.81,1.14,.46,2.28,.91,3.42,1.37-.27,.52-.82,.67-1.27,.95-2.47,1.55-5.01,2.96-7.54,4.41-1.48,.85-2.97,1.66-4.37,2.64-.97-.51-1.91-1.06-2.72-1.8Z"/>
      <path class="cls-16" d="M63.96,97.72c.17-.45,.53-.71,.92-.94,2.16-1.24,4.29-2.54,6.48-3.72,1.89-1.02,3.67-2.24,5.55-3.29,2.57-1.43,5.05-3.02,7.68-4.34,.57-.29,1.01-.86,1.74-.8-3.14,3.55-6.87,6.34-10.98,8.63-3.51,1.96-7.19,3.53-11.13,4.42-.09,.02-.18,.02-.27,.04Z"/>
      <path class="cls-8" d="M27.7,92.26c1.4-.98,2.89-1.79,4.37-2.64,2.53-1.45,5.07-2.86,7.54-4.41,.45-.28,1-.43,1.27-.95l3.09,.99c-.04,.35-.28,.55-.56,.71-2.61,1.53-5.24,3.04-7.83,4.61-1.76,1.07-3.66,1.91-5.33,3.13-.89-.4-1.77-.84-2.55-1.45Z"/>
      <path class="cls-13" d="M21.13,66.09c-.63,.7-1.48,1.08-2.27,1.54-2.68,1.56-5.37,3.09-8.06,4.64-.27,.16-.55,.31-.87,.33-.53-.94-1.02-1.89-1.29-2.94,1.03-.12,1.83-.74,2.68-1.23,2.84-1.65,5.64-3.36,8.52-4.93,.08-.04,.17-.06,.25-.09,.41,.87,.75,1.77,1.05,2.68Z"/>
      <path class="cls-12" d="M40.98,6.66c-.08,.31-.31,.49-.56,.64-1.97,1.13-3.93,2.26-5.9,3.4-1.66,.95-3.31,1.91-4.97,2.86-3.53,2.03-7.06,4.05-10.59,6.08-.24,.14-.48,.26-.76,.25,1.38-1.68,3.02-3.08,4.71-4.42,4.55-3.61,9.58-6.34,15.14-8.04,.96-.29,1.95-.51,2.92-.77Z"/>
      <path class="cls-11" d="M98.44,43c-1.04,.09-1.83,.73-2.68,1.22-2.72,1.55-5.41,3.14-8.11,4.72-.45,.26-.87,.55-1.31,.83-.12-1.04-.23-2.08-.35-3.12,.38-.24,.75-.49,1.14-.72,3.26-1.9,6.53-3.8,9.79-5.71,.27-.16,.54-.2,.84-.2,.38,.96,.63,1.94,.69,2.97Z"/>
      <path class="cls-17" d="M30.25,93.71c1.67-1.23,3.56-2.07,5.33-3.13,2.59-1.57,5.22-3.08,7.83-4.61,.28-.16,.52-.36,.56-.71,1.12,.05,2.14,.51,3.23,.71-.13,.45-.47,.7-.86,.9-4.1,2.2-8.07,4.65-12.1,6.98-.54,.31-1.18,.48-1.52,1.07-.88-.29-1.68-.73-2.47-1.21Z"/>
      <path class="cls-11" d="M32.87,80.3c-.6,.14-1.13,.43-1.65,.74-3.17,1.87-6.35,3.73-9.53,5.59-.27,.16-.55,.3-.73,.58-.82-.47-1.43-1.17-2.03-1.88,.19-.26,.47-.41,.73-.58,3.13-1.97,6.44-3.64,9.55-5.64,.43-.28,.89-.52,1.42-.59,.71,.64,1.69,.94,2.24,1.78Z"/>
      <path class="cls-11" d="M99.34,50.3c-.85,.15-1.51,.69-2.22,1.1-2.72,1.55-5.42,3.13-8.12,4.69-.7,.41-1.41,.8-2.1,1.22-.28,.17-.56,.29-.89,.28,0-.96,.17-1.9,.31-2.84,.47,0,.86-.25,1.25-.47,3.76-2.17,7.52-4.34,11.27-6.51,.12-.07,.24-.12,.36-.18,.06,.9,.23,1.79,.14,2.7Z"/>
      <path class="cls-18" d="M67.62,7.86c-3.03,1.63-6,3.38-8.96,5.14-2.36,1.4-4.78,2.71-7.16,4.08-.49,.28-1.09,.49-1.2,1.18-1.31,.16-2.62,.32-3.93,.48,.06-.54,.51-.72,.89-.94,1.47-.87,2.96-1.71,4.44-2.57,3.42-1.99,6.83-3.99,10.25-5.98,1.18-.69,2.42-1.29,3.53-2.1,.71,.24,1.47,.33,2.13,.71Z"/>
      <path class="cls-11" d="M5.9,59.92c.72-.01,1.26-.47,1.83-.8,3.38-1.97,6.72-4,10.18-5.82,.12-.06,.25-.11,.37-.16,.05,.9,.1,1.8,.15,2.7-.23,.02-.43,.11-.63,.23-2.38,1.37-4.75,2.75-7.15,4.08-1.41,.78-2.72,1.78-4.26,2.31-.24-.83-.45-1.67-.48-2.54Z"/>
      <path class="cls-8" d="M83.96,17.47c.76,.5,1.36,1.17,1.94,1.86-.38,.43-.89,.68-1.37,.96-3.09,1.84-6.27,3.53-9.32,5.44-.31,.19-.62,.36-.99,.39-.67-.44-1.3-.94-1.9-1.48,.61-.51,1.32-.85,2-1.24,2.97-1.72,5.95-3.45,8.92-5.17,.32-.18,.61-.38,.72-.76Z"/>
      <path class="cls-11" d="M83.96,17.47c-.1,.38-.4,.58-.72,.76-2.98,1.72-5.95,3.44-8.92,5.17-.68,.39-1.4,.73-2,1.24-.87-.46-1.66-1.03-2.46-1.61,.79-.16,1.46-.58,2.12-.99,3.08-1.9,6.26-3.62,9.39-5.44,.31-.18,.65-.34,.7-.76,.7,.46,1.36,.97,1.89,1.63Z"/>
      <path class="cls-18" d="M25.77,73.65c-1.71,.7-3.15,1.89-4.77,2.76-1.93,1.05-3.82,2.18-5.72,3.27-.28,.16-.53,.34-.67,.64-.57-.67-1.13-1.34-1.49-2.16,.16-.25,.4-.41,.66-.56,2.66-1.55,5.3-3.11,7.97-4.64,.81-.47,1.57-1.06,2.49-1.33,.6,.6,1.06,1.31,1.54,2Z"/>
      <path class="cls-16" d="M84.08,39.76c1.81-1.35,3.9-2.23,5.8-3.42,1.53-.95,3.1-1.82,4.65-2.73,.27-.16,.55-.31,.87-.33,.28,.83,.81,1.55,.97,2.43-.39-.02-.74,.11-1.08,.31-1.69,.98-3.39,1.93-5.07,2.92-1.77,1.05-3.62,1.97-5.34,3.12-.37-.73-.58-1.52-.82-2.3Z"/>
      <path class="cls-17" d="M74.22,26.12c.37-.03,.69-.2,.99-.39,3.05-1.91,6.23-3.6,9.32-5.44,.48-.29,.99-.53,1.37-.96,.68,.47,1.1,1.17,1.63,1.77-2.96,1.91-6.08,3.55-9.1,5.35-.77,.46-1.55,.9-2.33,1.34-.75-.42-1.32-1.04-1.89-1.67Z"/>
      <path class="cls-8" d="M97.75,40.03c-.3,0-.57,.05-.84,.2-3.26,1.9-6.53,3.8-9.79,5.71-.39,.23-.76,.48-1.14,.72-.24-.72-.33-1.47-.45-2.22,.22-.36,.57-.57,.92-.77,3.04-1.75,6.08-3.49,9.13-5.23,.47-.27,.93-.56,1.5-.56,.17,.74,.64,1.38,.67,2.16Z"/>
      <path class="cls-8" d="M6.38,62.46c1.55-.54,2.85-1.53,4.26-2.31,2.4-1.33,4.77-2.72,7.15-4.08,.2-.11,.4-.21,.63-.23,.12,.81,.23,1.62,.35,2.43-1.06,.03-1.8,.77-2.65,1.25-2.77,1.56-5.51,3.19-8.26,4.8-.3,.17-.61,.29-.95,.32-.32-.69-.49-1.41-.54-2.16Z"/>
      <path class="cls-17" d="M97.08,37.87c-.57,0-1.03,.29-1.5,.56-3.05,1.74-6.09,3.49-9.13,5.23-.35,.2-.7,.41-.92,.77-.32-.76-.48-1.56-.63-2.37,1.71-1.15,3.56-2.08,5.34-3.12,1.68-.99,3.39-1.94,5.07-2.92,.34-.2,.68-.33,1.08-.31,.31,.69,.63,1.39,.7,2.16Z"/>
      <path class="cls-6" d="M91.39,26.11c-3.5,2.04-7,4.08-10.5,6.12-.26,.15-.54,.23-.84,.23-.41-.5-.8-1.01-1.11-1.58,1.2-.83,2.53-1.45,3.78-2.19,2.18-1.29,4.38-2.56,6.57-3.83,.3-.17,.54-.39,.76-.65,.57,.55,1.01,1.18,1.34,1.9Z"/>
      <path class="cls-6" d="M24.23,71.65c-.92,.27-1.67,.86-2.49,1.33-2.67,1.52-5.32,3.09-7.97,4.64-.26,.15-.5,.3-.66,.56-.5-.57-.92-1.2-1.2-1.91,1.45-.86,2.88-1.73,4.34-2.57,1.87-1.07,3.75-2.13,5.63-3.18,.41-.23,.85-.42,1.27-.62,.4,.56,.83,1.11,1.09,1.75Z"/>
      <path class="cls-8" d="M30.63,78.51c-.53,.07-.99,.32-1.42,.59-3.12,2-6.42,3.67-9.55,5.64-.27,.17-.54,.32-.73,.58-.54-.42-1.03-.87-1.38-1.46,.26-.42,.68-.62,1.1-.86,3.14-1.79,6.27-3.59,9.39-5.4,.29-.17,.58-.35,.79-.62,.71,.38,1.26,.95,1.8,1.53Z"/>
      <path class="cls-5" d="M31.92,95.84c-.85-.41-1.71-.81-2.56-1.22-.45-.38-1.09-.47-1.49-.94,.14-.1,.23-.23,.27-.4,1.57,.81,3.15,1.63,4.72,2.44-.3,.15-.62,.11-.94,.12Z"/>
      <path class="cls-13" d="M14.9,82.46c-.07,0-.14-.01-.21-.02-.9-1.36-2.02-2.57-2.77-4.03,.17,0,.34,0,.51,0,.97,1.34,1.94,2.68,2.91,4.02-.15,0-.3,.02-.44,.02Z"/>
      <path class="cls-5" d="M6.65,67.47c-.24-.44-.27-.99-.65-1.36,0-.83-.53-1.58-.43-2.43,.13,0,.26,0,.39-.01,.46,1.24,.8,2.51,1.11,3.79-.14,0-.28,0-.42,0Z"/>
      <path class="cls-15" d="M30.63,78.51c-.55-.57-1.09-1.15-1.8-1.53-1.09-1.05-1.94-2.32-3.06-3.34-.48-.69-.93-1.4-1.54-2-.26-.65-.69-1.19-1.09-1.75-.67-1.27-1.34-2.54-2.01-3.81-.3-.91-.64-1.81-1.05-2.68-.46-1.71-1.01-3.39-1.3-5.14-.12-.81-.23-1.62-.35-2.43-.05-.9-.1-1.8-.15-2.7,.03-1.67,0-3.33,.18-4.99,.36-1.09,.18-2.28,.59-3.37,.37-1.31,.74-2.62,1.12-3.94,.69-1.36,1.07-2.86,1.83-4.18,.98-1.61,1.96-3.22,2.94-4.83,1.03-.82,1.73-1.95,2.61-2.9,3.36-3.63,7.4-6.25,11.93-8.18,2.23-.95,4.58-1.47,6.92-2.02,1.31-.16,2.62-.32,3.93-.48,2.39-.05,4.77,.11,7.15,.32,1.57,.37,3.14,.73,4.72,1.1,1.09,.39,2.18,.77,3.26,1.16,1.47,.73,2.94,1.47,4.42,2.2,.79,.58,1.59,1.14,2.46,1.61,.6,.54,1.23,1.04,1.9,1.48,.57,.62,1.14,1.24,1.89,1.67,.93,1.05,1.81,2.15,2.84,3.1,.31,.57,.71,1.07,1.11,1.58,.75,1,1.28,2.15,2.07,3.12,.65,1.39,1.3,2.79,1.95,4.18,.24,.78,.45,1.56,.82,2.3,.15,.81,.31,1.61,.63,2.37,.12,.75,.21,1.5,.45,2.22,.12,1.04,.23,2.08,.35,3.12,0,1.66,0,3.33-.01,4.99-.14,.94-.3,1.88-.31,2.84-.26,1.17-.52,2.34-.77,3.5-.59,1.77-1.13,3.56-1.9,5.27-1.12,2.53-2.76,4.75-4.29,7.03-1.14,1.08-2.06,2.37-3.21,3.45-4.63,4.35-10.05,7.2-16.24,8.58-.35,.08-.69,.18-1.04,.27-2.24,.29-4.49,.56-6.76,.55-1.53-.11-3.06-.3-4.59-.28-1.08-.2-2.11-.66-3.23-.71-1.03-.33-2.06-.66-3.09-.99-1.14-.46-2.28-.91-3.42-1.37-1.55-.82-3-1.85-4.59-2.6-.55-.85-1.53-1.15-2.24-1.78Zm54.93-26.25c-.02-18.39-14.84-33.21-33.22-33.21-18.41,0-33.26,14.89-33.26,33.33,0,18.09,15.07,33.06,33.24,33.04,18.32-.02,33.25-14.92,33.23-33.16Z"/>
      <path class="cls-13" d="M85.56,52.27c.02,18.24-14.92,33.14-33.23,33.16-18.17,.02-33.24-14.95-33.24-33.04,0-18.44,14.85-33.33,33.26-33.33,18.38,0,33.2,14.82,33.22,33.21Zm-60.38,16.26c-.11,.26,.03,.43,.27,.57,.26,.15,.52,.37,.54,.66,.05,1.27,1.24,1.75,1.84,2.64,.26,.39,.58,.9,1.03,1.12,.88,.41,1.36,1.17,1.83,1.92,.37,.58,.81,1.01,1.47,1.22,1.17,.38,1.79,1.54,2.9,2,.02,0,.03,.03,.04,.05,.28,.55,.75,.71,1.34,.87,.79,.22,1.53,.72,2.17,1.18,.68,.49,1.35,.76,2.12,.87,.41,.06,.72,.15,.93,.54,.21,.39,.58,.45,1,.36,.47-.1,.95-.13,1.32,.27,.33,.36,.67,.5,1.11,.15,.16-.13,.4-.11,.59-.04,.69,.25,1.35,.53,2.1,.68,.78,.16,1.55,.36,2.34,.3,.67-.05,1.29,.29,1.94,.15,1.64-.37,3.29-.43,4.95-.15,.35,.06,.62,0,.77-.37,.14-.37,.47-.47,.78-.33,.67,.3,1.2,.11,1.75-.28,.25-.18,.57-.28,.88-.34,1.15-.22,2.25-.64,3.42-.78,.23-.03,.46-.05,.63-.22,.48-.5,1.16-.65,1.74-.98,.37-.21,.63-.65,1.08-.66,.68-.02,1.1-.42,1.56-.83,.72-.64,1.33-1.46,2.4-1.61,.33-.05,.65-.27,.77-.61,.21-.63,.64-1.06,1.15-1.46,.37-.29,.68-.65,.96-1.04,.52-.69,1.55-.88,1.82-1.82,.01-.04,.12-.05,.17-.09,.66-.59,1.45-1.07,1.47-2.12,0-.37,.2-.66,.53-.89,.76-.52,1.33-1.29,1.71-2.08,.34-.69,.79-1.43,.62-2.3-.05-.22,.14-.35,.32-.47,.78-.49,1.41-2.03,1.19-2.93-.15-.63-.06-1.17,.48-1.57,.39-.29,.47-.69,.34-1.08-.36-1.09,.64-1.99,.38-3.05,0-.02,.02-.04,.03-.06,.12-.18,.14-.38,.05-.58-.2-.45-.08-.86,.04-1.31,.28-1.03,.61-2.03,.14-3.15-.35-.84-.71-1.78-.17-2.73,.1-.18-.03-.39-.08-.59-.2-.72-.56-1.4-.28-2.22,.12-.35,.01-1.01-.33-1.08-.81-.17-.58-.61-.48-1.09,.03-.16-.03-.36-.07-.53-.24-1-.7-1.9-1.29-2.73-.28-.4-.42-.82-.5-1.3-.2-1.17-.39-2.37-1.64-2.98-.12-.06-.26-.23-.27-.36-.06-.47-.1-.89-.74-.87-.18,0-.23-.24-.22-.44,0-.13,.08-.34-.04-.38-.59-.16-.53-.64-.59-1.07-.03-.21-.14-.39-.33-.48-1.67-.79-2.57-2.45-3.97-3.55-.1-.08-.13-.23-.19-.35-.07-.17-.15-.39-.33-.41-.9-.06-1.02-1.43-2.08-1.22-.05,.01-.18-.14-.21-.24-.22-.61-.72-.78-1.28-.81-.44-.02-.78-.18-1.03-.55-.12-.17-.28-.32-.48-.36-1.11-.21-1.82-1.13-2.78-1.59-.7-.34-1.47-.81-2.18-.76-.73,.05-1.12-.23-1.61-.57-.21-.15-.48-.26-.74-.31-1.13-.22-2.26-.39-3.41-.47-.27-.02-.53-.05-.79-.16-1.11-.48-2.36-.41-3.43-.23-.88,.15-1.65,.35-2.5,.04-.1-.04-.23-.03-.33,0-.96,.23-1.97,.36-2.86,.75-.89,.39-1.85-.14-2.68,.39-.74-.42-1.14,.11-1.51,.58-.33,.41-.68,.56-1.17,.37-.48-.18-.89-.03-1.35,.17-1.04,.44-1.58,1.69-2.86,1.74-.07,0-.15,.1-.21,.16-.29,.3-.65,.44-1.06,.56-.6,.17-1.33,.19-1.53,1.01-.02,.09-.15,.22-.23,.22-.74,.04-1.06,.59-1.41,1.12-.21,.32-.56,.42-.9,.56-.64,.28-1.34,.49-1.75,1.13-.46,.71-1,1.32-1.75,1.74-.34,.19-.62,.49-.74,.86-.46,1.4-2.04,2.12-2.22,3.69-.01,.11-.17,.21-.27,.29-.88,.67-1.26,1.68-1.5,2.65-.23,.94-.84,1.67-1.12,2.57-.14,.45-.57,.79-.32,1.34,.09,.2-.04,.34-.21,.44-.14,.08-.27,.18-.26,.36,.06,.77-.73,1.37-.43,2.2,.03,.07-.11,.19-.15,.29-.27,.69-.68,1.35-.46,2.15,.03,.13,.08,.33,.01,.39-.55,.57-.03,1.23-.17,1.78-.29,1.14-.11,2.18,.23,3.26,.14,.45-.11,1,0,1.47,.41,1.86,.03,3.83,.77,5.64,.02,.04,.03,.1,.01,.13-.24,.58,.14,.98,.49,1.29,.32,.28,.36,.54,.26,.88-.11,.4-.07,.76,.32,1.01,.5,.32,.67,.8,.7,1.38,.07,1.12,.43,2.11,1.44,2.76,.23,.15,.42,.35,.31,.71Z"/>
      <path class="cls-18" d="M25.17,68.52c.11-.36-.07-.56-.31-.71-1.01-.65-1.37-1.64-1.44-2.76-.03-.58-.2-1.06-.7-1.38-.39-.25-.43-.6-.32-1.01,.09-.35,.05-.6-.26-.88-.35-.31-.73-.71-.49-1.29,.02-.04,0-.09-.01-.13-.74-1.81-.35-3.78-.77-5.64-.1-.47,.15-1.02,0-1.47-.34-1.08-.52-2.11-.23-3.26,.14-.55-.38-1.21,.17-1.78,.06-.07,.02-.26-.01-.39-.22-.8,.19-1.46,.46-2.15,.04-.1,.17-.22,.15-.29-.3-.82,.48-1.43,.43-2.2-.01-.18,.12-.28,.26-.36,.17-.1,.3-.24,.21-.44-.25-.55,.18-.89,.32-1.34,.28-.9,.89-1.63,1.12-2.57,.24-.97,.62-1.98,1.5-2.65,.11-.08,.26-.18,.27-.29,.18-1.57,1.76-2.29,2.22-3.69,.12-.36,.4-.67,.74-.86,.75-.42,1.3-1.02,1.75-1.74,.41-.64,1.11-.85,1.75-1.13,.33-.15,.68-.25,.9-.56,.35-.52,.66-1.08,1.41-1.12,.08,0,.21-.13,.23-.22,.19-.82,.92-.84,1.53-1.01,.4-.11,.77-.25,1.06-.56,.06-.06,.14-.16,.21-.16,1.28-.04,1.81-1.3,2.86-1.74,.46-.19,.87-.35,1.35-.17,.5,.19,.85,.04,1.17-.37,.38-.47,.78-1,1.51-.58,.83-.53,1.79,0,2.68-.39,.89-.39,1.9-.52,2.86-.75,.11-.03,.23-.03,.33,0,.85,.3,1.63,.1,2.5-.04,1.07-.18,2.32-.25,3.43,.23,.26,.11,.52,.14,.79,.16,1.15,.07,2.28,.25,3.41,.47,.26,.05,.53,.16,.74,.31,.49,.34,.88,.63,1.61,.57,.71-.05,1.48,.43,2.18,.76,.96,.46,1.66,1.38,2.78,1.59,.2,.04,.36,.18,.48,.36,.25,.36,.58,.52,1.03,.55,.56,.03,1.07,.2,1.28,.81,.03,.1,.16,.25,.21,.24,1.06-.21,1.18,1.16,2.08,1.22,.17,.01,.25,.24,.33,.41,.05,.12,.09,.28,.19,.35,1.4,1.1,2.3,2.76,3.97,3.55,.19,.09,.3,.28,.33,.48,.06,.43,0,.91,.59,1.07,.12,.03,.05,.25,.04,.38-.01,.19,.04,.44,.22,.44,.64-.02,.69,.41,.74,.87,.02,.13,.15,.3,.27,.36,1.25,.61,1.44,1.81,1.64,2.98,.08,.48,.23,.9,.5,1.3,.59,.84,1.05,1.73,1.29,2.73,.04,.17,.1,.36,.07,.53-.1,.48-.33,.92,.48,1.09,.35,.07,.45,.73,.33,1.08-.27,.82,.08,1.5,.28,2.22,.05,.2,.18,.4,.08,.59-.54,.95-.18,1.89,.17,2.73,.47,1.12,.14,2.12-.14,3.15-.12,.45-.24,.86-.04,1.31,.09,.2,.07,.4-.05,.58-.01,.02-.04,.04-.03,.06,.26,1.06-.74,1.96-.38,3.05,.13,.4,.05,.8-.34,1.08-.54,.4-.63,.94-.48,1.57,.22,.9-.41,2.44-1.19,2.93-.18,.12-.37,.24-.32,.47,.18,.87-.28,1.61-.62,2.3-.39,.79-.95,1.55-1.71,2.08-.33,.23-.53,.51-.53,.89-.02,1.05-.81,1.54-1.47,2.12-.05,.04-.16,.05-.17,.09-.27,.95-1.3,1.13-1.82,1.82-.29,.38-.59,.75-.96,1.04-.5,.4-.94,.82-1.15,1.46-.11,.34-.44,.56-.77,.61-1.07,.15-1.68,.97-2.4,1.61-.46,.41-.88,.81-1.56,.83-.45,.01-.71,.45-1.08,.66-.58,.33-1.25,.49-1.74,.98-.16,.17-.4,.19-.63,.22-1.17,.14-2.27,.56-3.42,.78-.3,.06-.63,.16-.88,.34-.55,.39-1.08,.59-1.75,.28-.3-.14-.63-.04-.78,.33-.14,.37-.42,.43-.77,.37-1.66-.28-3.31-.23-4.95,.15-.65,.15-1.28-.2-1.94-.15-.79,.06-1.56-.15-2.34-.3-.75-.15-1.41-.43-2.1-.68-.19-.07-.43-.08-.59,.04-.44,.35-.78,.2-1.11-.15-.37-.4-.85-.37-1.32-.27-.41,.09-.79,.04-1-.36-.21-.39-.52-.49-.93-.54-.77-.11-1.43-.37-2.12-.87-.64-.46-1.38-.96-2.17-1.18-.58-.16-1.06-.32-1.34-.87,0-.02-.03-.04-.04-.05-1.11-.46-1.73-1.63-2.9-2-.65-.21-1.1-.64-1.47-1.22-.47-.75-.96-1.51-1.83-1.92-.46-.21-.77-.72-1.03-1.12-.59-.89-1.79-1.36-1.84-2.64-.01-.29-.28-.51-.54-.66-.24-.14-.38-.32-.27-.57Zm26.6,6.77c4.05-.01,5.38-.26,8.85-1.56,.27-.1,.56-.2,.84-.24,.63-.08,1.15-.37,1.65-.72,.28-.19,.59-.32,.88-.48,.86-.48,1.81-.9,2.49-1.59,.82-.83,1.78-1.52,2.49-2.47,1.07-1.43,2.59-2.46,3.43-4.12,.76-1.5,1.56-3.04,1.92-4.62,.38-1.69,1.04-3.34,1.02-5.17-.02-1.75,.19-3.5-.1-5.24-.31-1.86-.63-3.72-1.38-5.48-.31-.73-.93-1.24-1.13-2.05-.29-1.19-.92-2.28-1.82-3.1-1.04-.96-1.8-2.16-2.84-3.11-1.39-1.27-2.57-2.85-4.6-3.23-.17-.03-.32-.16-.48-.24-.76-.42-1.48-1.01-2.3-1.24-1.1-.31-2.2-.66-3.31-.93-2.56-.61-5.13-1-7.73-.22-.09,.03-.19,.06-.26,.04-1.18-.41-2.28,.21-3.33,.44-2.51,.55-4.67,2.02-6.9,3.27-1.21,.68-2.02,1.85-3.09,2.71-1.21,.97-2.09,2.26-3.05,3.47-.85,1.07-1.26,2.39-1.88,3.58-.48,.93-.99,1.97-1.12,3.08-.12,.93-.31,1.85-.46,2.76-.21,1.29-.16,2.55-.21,3.83-.04,.9-.2,1.82-.04,2.69,.21,1.18,.52,2.36,.83,3.53,.63,2.38,2.04,4.39,3.18,6.52,.62,1.15,1.62,1.94,2.55,2.83,1.31,1.26,2.56,2.54,4.11,3.56,1.77,1.18,3.8,1.71,5.66,2.64,.4,.2,.84,.35,1.28,.41,1.71,.24,3.42,.61,4.86,.44Z"/>
      <path class="cls-5" d="M51.77,75.3c-1.44,.17-3.14-.21-4.86-.44-.44-.06-.88-.21-1.28-.41-1.86-.93-3.89-1.46-5.66-2.64-1.54-1.02-2.79-2.3-4.11-3.56-.93-.89-1.93-1.68-2.55-2.83-1.15-2.13-2.55-4.15-3.18-6.52-.31-1.17-.61-2.35-.83-3.53-.16-.86,0-1.79,.04-2.69,.05-1.27,0-2.54,.21-3.83,.15-.92,.35-1.84,.46-2.76,.14-1.11,.64-2.14,1.12-3.08,.62-1.19,1.02-2.51,1.88-3.58,.96-1.21,1.84-2.5,3.05-3.47,1.07-.86,1.88-2.04,3.09-2.71,2.23-1.25,4.39-2.72,6.9-3.27,1.06-.23,2.16-.84,3.33-.44,.08,.03,.18-.01,.26-.04,2.6-.78,5.16-.39,7.73,.22,1.12,.27,2.21,.62,3.31,.93,.82,.23,1.54,.81,2.3,1.24,.16,.09,.31,.21,.48,.24,2.02,.38,3.2,1.96,4.6,3.23,1.04,.95,1.8,2.15,2.84,3.11,.9,.82,1.53,1.91,1.82,3.1,.2,.81,.82,1.32,1.13,2.05,.76,1.76,1.07,3.62,1.38,5.48,.29,1.74,.08,3.5,.1,5.24,.02,1.83-.64,3.47-1.02,5.17-.35,1.58-1.16,3.12-1.92,4.62-.85,1.67-2.36,2.69-3.43,4.12-.71,.95-1.67,1.63-2.49,2.47-.67,.68-1.63,1.1-2.49,1.59-.29,.16-.6,.29-.88,.48-.5,.35-1.03,.64-1.65,.72-.29,.04-.57,.14-.84,.24-3.47,1.3-4.8,1.55-8.85,1.56Zm1.09-10.35c6.96-.21,12.19-5.64,12.24-12.74,.05-7.1-5.67-12.73-12.88-12.71-7.12,.02-12.75,6.06-12.62,12.69,.14,7.08,5.38,12.99,13.26,12.75Z"/>
      <path class="cls-9" d="M52.87,64.95c-7.87,.23-13.12-5.67-13.26-12.75-.13-6.63,5.5-12.67,12.62-12.69,7.21-.02,12.94,5.6,12.88,12.71-.05,7.09-5.28,12.53-12.24,12.74Zm-4.59-12.58c-.01,1.92,2.09,4.13,3.91,4.15,2.58,.03,4.32-2.59,4.32-4.14,0-1.91-2.03-4.29-3.7-4.21-2.89,.13-4.34,1.44-4.53,4.2Z"/>
      <path class="cls-11" d="M48.28,52.37c.2-2.76,1.64-4.07,4.53-4.2,1.67-.08,3.71,2.3,3.7,4.21,0,1.55-1.75,4.17-4.32,4.14-1.83-.02-3.92-2.23-3.91-4.15Z"/>
    </g>
    <g>
      <path class="cls-1" d="M27.45,58.15c-.69-1.95-1.17-3.96-1.76-5.95-.91-3.12-1.79-6.24-2.68-9.37-.03-.1-.08-.19,.01-.34,1.54,.81,3.09,1.62,4.63,2.43,1.62,.85,3.24,1.71,4.86,2.57,.12,.07,.25,.16,.4,.07,.09,.14,.2,.25,.36,.32,2.61,1.36,5.22,2.73,7.82,4.11,.34,.18,.49,.1,.66-.22,1.18-2.27,2.38-4.53,3.57-6.79,.09-.16,.17-.33,.14-.52,.33-.06,.35-.37,.47-.59,2.06-3.93,4.11-7.86,6.16-11.79,.06-.11,.12-.21,.23-.4,.55,1.03,1.06,1.98,1.56,2.94,1.63,3.12,3.26,6.24,4.89,9.36,.1,.19,.12,.45,.41,.49-.03,.26,.11,.47,.22,.68,1.16,2.21,2.34,4.41,3.49,6.63,.2,.38,.39,.36,.71,.19,1.81-.96,3.64-1.9,5.45-2.86,.91-.48,1.82-.99,2.73-1.48,.81-.41,1.63-.82,2.44-1.23,.2-.1,.41-.18,.61-.27,0,2.94-.05,5.87,.04,8.81,.05,1.64-1.31,3.25-3.26,3.24-14.72-.04-29.45-.02-44.17-.02Zm27.83-6.62c0-1.18-.23-2.08-.78-2.87-.97-1.39-2.53-1.69-3.64-.74-1.66,1.44-1.98,4.21-.7,6,1.14,1.6,2.73,1.72,4.07,.3,.77-.82,.99-1.84,1.04-2.7Z"/>
      <path class="cls-2" d="M27.45,58.15c14.72,0,29.45-.02,44.17,.02,1.95,0,3.31-1.61,3.26-3.24-.09-2.93-.03-5.87-.04-8.81,2.17-1.15,4.35-2.31,6.52-3.46,.07-.04,.15-.04,.23-.06h0c-.04,.85-.38,1.64-.62,2.46-1.66,5.86-3.34,11.72-5.02,17.58-.04,.14-.09,.27-.13,.41-.97,0-1.95,0-2.92,0-14.69,0-29.37,0-44.06,0-.46-1.63-.93-3.26-1.39-4.89Z"/>
      <path class="cls-4" d="M72.9,63.05c.97,0,1.95,0,2.92,0,0,1.81,0,3.63,.02,5.44,0,.36-.12,.48-.46,.43-.1-.01-.2,0-.31,0-15.17,0-30.33,0-45.5,.01-.58,0-.84-.09-.78-.75,.07-.73,.03-1.47,.03-2.2,13.86,0,27.72,0,41.58,0,.18,0,.37,0,.55,0,.9-.02,1.57-.55,1.84-1.42,.16-.5,.04-1.01,.08-1.52Z"/>
      <path class="cls-2" d="M45.47,44.45c.03,.19-.05,.36-.14,.52-1.19,2.26-2.39,4.52-3.57,6.79-.17,.32-.32,.4-.66,.22-2.6-1.38-5.21-2.74-7.82-4.11-.15-.08-.26-.19-.36-.32,.9-4.9,1.81-9.8,2.74-14.88,.58,.68,1.05,1.24,1.52,1.81,2.76,3.32,5.52,6.65,8.29,9.97Z"/>
      <path class="cls-2" d="M71.79,47.62c-.91,.49-1.81,1-2.73,1.48-1.81,.96-3.64,1.9-5.45,2.86-.33,.17-.51,.19-.71-.19-1.15-2.22-2.32-4.42-3.49-6.63-.11-.21-.26-.42-.22-.68,2.34-2.82,4.69-5.65,7.04-8.47,.88-1.06,1.77-2.12,2.75-3.29,.96,5.07,1.89,10,2.81,14.93Z"/>
      <path class="cls-3" d="M72.9,63.05c-.04,.5,.08,1.01-.08,1.52-.27,.87-.95,1.4-1.84,1.42-.18,0-.37,0-.55,0-13.86,0-27.72,0-41.58,0,0-.98,0-1.96,0-2.95,14.69,0,29.37,0,44.06,0Z"/>
      <path class="cls-2" d="M81.6,42.6s.02-.03,.03-.05c-.01,.01-.03,.03-.04,.04,0,0,0,.01,0,.01Z"/>
      <path class="cls-4" d="M55.28,51.53c-.05,.86-.27,1.88-1.04,2.7-1.34,1.42-2.93,1.29-4.07-.3-1.29-1.8-.96-4.56,.7-6,1.1-.95,2.66-.65,3.64,.74,.55,.79,.78,1.69,.78,2.87Z"/>
    </g>
  </g>
</svg>