<?xml version="1.0" encoding="UTF-8"?>
<svg id="Layer_2" data-name="Layer 2" xmlns="http://www.w3.org/2000/svg" viewBox="0 0 107.89 107.89">
  <defs>
    <style>
      .cls-1 {
        fill: none;
        stroke: #fff;
        stroke-miterlimit: 10;
        stroke-width: 7px;
      }

      .cls-2 {
        fill: #ada7a6;
      }

      .cls-3 {
        fill: #ca646c;
      }

      .cls-4 {
        fill: #f3c65f;
      }

      .cls-5 {
        fill: #edcf73;
      }

      .cls-6 {
        fill: #b69942;
      }

      .cls-7 {
        fill: #5e5756;
      }

      .cls-8 {
        fill: #ca9254;
      }

      .cls-9 {
        fill: #383331;
      }

      .cls-10 {
        fill: #16140f;
      }

      .cls-11 {
        fill: #96908f;
      }
    </style>
  </defs>
  <g id="Layer_1-2" data-name="Layer 1">
    <g>
      <g>
        <path class="cls-9" d="M53.92,103.9c-27.95,0-50.49-22.62-50.37-50.75C3.66,25.25,26.47,2.97,54.22,3.07c27.61,.1,50.14,22.69,50.13,50.44-.01,27.85-22.57,50.39-50.42,50.39h0Zm-35.86-27.2c.09,.17,.16,.35,.27,.51,2.25,3.39,4.93,6.41,8.06,8.99,9.34,7.68,20.08,11.05,32.12,9.79,10.82-1.13,19.9-5.87,27.24-13.92,3.39-3.72,6-7.94,7.89-12.6,2.51-6.18,3.44-12.6,2.96-19.24-.3-4.28-1.24-8.41-2.81-12.39-2.9-7.37-7.54-13.44-13.77-18.31-1.08-.84-2.16-1.7-3.43-2.26-.22-.17-.42-.37-.66-.51-1.38-.77-2.77-1.55-4.22-2.21-7.53-3.4-15.4-4.59-23.57-3.45-10.2,1.43-18.81,5.97-25.8,13.56-3.08,3.34-5.53,7.1-7.4,11.24-2.99,6.63-4.19,13.59-3.66,20.83,.35,4.74,1.46,9.32,3.37,13.7,.96,2.19,2,4.33,3.42,6.26h0Z"/>
        <path class="cls-2" d="M18.06,76.7c-1.43-1.93-2.47-4.07-3.42-6.26-1.91-4.37-3.02-8.95-3.37-13.7-.53-7.24,.67-14.2,3.66-20.83,1.87-4.15,4.32-7.9,7.4-11.24,6.99-7.59,15.59-12.13,25.8-13.56,8.18-1.14,16.04,.05,23.57,3.45,1.45,.66,2.83,1.44,4.22,2.21,.24,.13,.44,.34,.66,.51,1.05,1.92,2.14,3.81,2.99,5.84,.54,1.3,1.13,2.6,1.4,4-.28-.27-.56-.53-.84-.8-2.84-2.79-6.03-5.11-9.6-6.88-7.07-3.5-14.54-4.74-22.35-3.58-10.53,1.57-18.97,6.73-25.22,15.33-5.45,7.51-7.7,15.97-6.98,25.21,.44,5.62,2.12,10.85,4.93,15.73,.61,1.06,1.2,2.14,2.05,3.03,.04,.04,.09,.08,.13,.12l.02,.05-.03-.05s-.08-.09-.12-.13c-.06-.48-.34-.88-.54-1.3-3.72-7.77-4.69-15.9-2.93-24.31,1.78-8.5,6.06-15.56,12.74-21.11,7.94-6.61,17.14-9.44,27.41-8.66,5.5,.42,10.66,2.04,15.44,4.8,2.4,1.39,4.71,2.92,6.67,4.91,.03,.15,.05,.29,.09,.44,1.14,4.61,1.45,9.28,1.03,14.01-.32,3.65-1.12,7.21-2.38,10.66-1.89,5.19-4.67,9.86-8.36,13.95-3.73,4.13-8.08,7.48-13.13,9.93-7.57,3.68-15.54,4.96-23.87,4.02-5.84-.66-11.3-2.51-16.38-5.48-.22-.13-.47-.21-.71-.31Z"/>
        <path class="cls-11" d="M80.98,27.1c-.27-1.4-.85-2.69-1.4-4-.85-2.02-1.94-3.92-2.99-5.84,1.27,.56,2.35,1.42,3.43,2.26,6.23,4.86,10.87,10.93,13.77,18.31,1.57,3.98,2.51,8.11,2.81,12.39,.48,6.65-.45,13.07-2.96,19.24-1.89,4.66-4.5,8.87-7.89,12.6-7.33,8.06-16.42,12.79-27.24,13.92-12.04,1.26-22.77-2.11-32.12-9.79-3.13-2.57-5.81-5.6-8.06-8.99-.11-.16-.18-.34-.27-.51,.24,.1,.49,.18,.71,.31,5.07,2.98,10.54,4.82,16.38,5.48,8.33,.95,16.3-.34,23.87-4.02,5.04-2.45,9.39-5.79,13.13-9.93,3.69-4.09,6.47-8.76,8.36-13.95,1.26-3.46,2.06-7.01,2.38-10.66,.42-4.72,.11-9.4-1.03-14.01-.04-.14-.06-.29-.09-.44,.91,.63,1.59,1.49,2.38,2.25,.4,.38,.66,.91,1.18,1.16,.05,.15,.13,.28,.28,.36,.01,.01,.03,.02,.04,.03-.01-.01-.02-.03-.03-.04-.08-.13-.16-.27-.24-.4-.14-.24-.27-.49-.42-.72-1.16-1.81-2.56-3.42-3.98-5.03h0Z"/>
        <path class="cls-7" d="M80.98,27.1c1.42,1.61,2.82,3.23,3.98,5.03,.15,.24,.28,.48,.42,.72-.02,.02-.04,.03-.05,.05-.52-.26-.79-.78-1.18-1.16-.79-.76-1.46-1.63-2.38-2.25-1.96-1.99-4.27-3.52-6.67-4.91-4.78-2.77-9.95-4.39-15.44-4.8-10.28-.77-19.48,2.05-27.41,8.66-6.67,5.55-10.96,12.61-12.74,21.11-1.76,8.41-.8,16.53,2.93,24.31,.2,.42,.48,.82,.54,1.3h0c-.85-.89-1.44-1.98-2.05-3.03-2.81-4.87-4.49-10.11-4.93-15.73-.72-9.25,1.52-17.71,6.98-25.21,6.24-8.6,14.69-13.76,25.22-15.33,7.81-1.16,15.28,.07,22.35,3.58,3.57,1.77,6.76,4.08,9.6,6.88,.28,.27,.56,.53,.84,.8v-.02Z"/>
        <polygon class="cls-6" points="24.69 72.82 24.72 72.87 24.7 72.82 24.69 72.82"/>
        <path class="cls-6" d="M24.56,72.68s.09,.1,.13,.14h0s-.1-.09-.14-.13h0s0-.01,0-.01Z"/>
      </g>
      <circle class="cls-1" cx="53.94" cy="53.94" r="50.44"/>
    </g>
    <g>
      <path class="cls-10" d="M91.26,43.36c-1.98,2.69-2.18,6.05-3.41,9.03-.56,1.35,.92,2.15,1.45,3.14,1.5,2.82-.15,5.34-1.98,5.75-3.25,.72-3.47,2.6-3.22,4.88,.4,3.68-1.21,4.88-4.63,4.43-3.31-.44-6.77,.87-9.99-.79,.64-1.48,1.97-1.19,3.16-1.21,2.45-.03,4.89,0,7.34-.06,.78-.02,1.93,.31,2.05-.92,.15-1.53-1.11-1.3-2.05-1.31-4.28-.03-8.57-.11-12.84,0-3.21,.08-6.08-.58-8.35-2.95-.9-.94-1.65-1.35-2.69-.18-2.51,2.84-5.83,3.23-9.38,3.12-3.79-.11-7.58-.07-11.38,0-.96,.02-2.59-.63-2.65,1-.07,1.97,1.74,1.25,2.77,1.25,9.17,.06,18.35,.01,27.52,.05,1.39,0,3.01-.56,3.97,1.1-.98,1.38-2.45,.85-3.72,.86-9.41,.04-18.83-.1-28.23,.09-3.35,.07-4.71-.97-4.49-4.37,.13-2.14,.57-4.48-3-5-1.52-.22-3.68-2.75-2.37-4.6,2.79-3.93,.61-7.29-.18-10.94-.38-1.77-2.95-4.08-.18-5.39,2.36-1.11,2.8,2.03,4,3.35,.89,.97,1.41,2.47,2.98,2.41,1.85-.06,2.11-1.76,2.71-3.05,.1-.22,.13-.48,.26-.68,.96-1.42,.62-4.04,3.04-4.06,2.06-.01,2.25,2.28,3.21,3.6,.36,.49,.63,1.04,.95,1.56,1.99,3.13,4,3.17,6.08,.13,.66-.97,1-2.34,2.65-2.01-.2,2.92-1.54,5.33-4.34,6.06-5.39,1.39-5.98-4.02-8.47-6.81-1.6,2.02-1.58,4.62-3.37,6.25-2.16,1.98-4.47,.43-7.03-.15,.48,1.6,.73,2.78,1.19,3.87,1.89,4.45,1.12,11.16,5.37,13.09,4.24,1.93,10.06,.42,15.2,.36,2.48-.03,4.32-1.33,6.07-2.98,1.1-1.04,1.21-1.7,.25-2.92-1.74-2.2-3.31-4.53-4.82-6.89-1.27-2.01-.87-3.99,.73-5.68,1.48-1.56,9.09-2,11.07-.61,1.72,1.21,2.65,2.9,2.06,5.06-.22,.8-.72,1.54-1.19,2.24-.95,1.41-1.98,2.78-2.96,4.18-2.43,3.46-2.19,4.6,1.64,6.63,1.04,.55,2.3,.95,3.47,.97,3.65,.07,7.31-.08,10.96-.15,1.97,.21,4.78,1.39,5.61-.67,2.11-5.17,3.45-10.65,5.31-16.68-2.34,.75-3.81,1.78-5.52,1.43-.86-.44-1.33-1.05-.84-2.05,3.19,.79,4.39-1.56,5.79-3.62,1.05-1.54,1.95-3.48,4.41-2.09v2.94h0Zm-33.67,13.43c.82-1,2.09-1.78,2.03-3.23-.07-1.36-1.02-2.97-2.22-2.94-1.39,.03-2.44,1.71-2.38,3.11,.05,1.23,1.08,2.34,2.57,3.06Zm-1.58-8.95c.07-1.06-.51-1.46-1.34-1.37-1.54,.18-2.44,1.05-2.42,2.66,0,.86,.26,2.16,1.13,1.92,1.46-.39,1.95-2.03,2.63-3.21Zm6.59,.89c-.09-1.28-.98-2.27-2.69-2.33-.73-.03-1.6,.36-1.28,1.27,.52,1.48,1.31,3.02,2.88,3.45,.68,.19,1.1-1.06,1.09-2.4h0Z"/>
      <path class="cls-4" d="M81.06,46.15c-.5,1-.03,1.6,.84,2.05-.32,1.36-.63,2.72-.94,4.09-2.36-.6-3.64,.71-4.51,2.61-1.36,2.96-2.12,5.93,.3,8.77-.15,.11-.24,.26-.24,.45-3.65,.07-7.31,.22-10.96,.15-1.17-.02-2.43-.42-3.47-.97-3.83-2.03-4.07-3.18-1.64-6.63,.98-1.39,2.01-2.76,2.96-4.18,.47-.7,.98-1.45,1.19-2.24,.59-2.16-.34-3.85-2.06-5.06-1.98-1.39-9.59-.95-11.07,.61-1.6,1.68-2,3.67-.73,5.68,1.5,2.37,3.08,4.69,4.82,6.89,.97,1.23,.86,1.88-.25,2.92-1.74,1.66-3.59,2.96-6.07,2.98-5.13,.05-10.95,1.56-15.2-.36-4.25-1.93-3.48-8.65-5.37-13.09-.46-1.08-.71-2.26-1.19-3.87,2.56,.58,4.86,2.13,7.03,.15,1.78-1.63,1.78-4.23,3.37-6.25,2.49,2.79,3.08,8.2,8.47,6.81,2.8-.72,4.14-3.13,4.34-6.06,.32-.8,.65-1.6,.98-2.39,3.5-1.01,3.12-5.17,6.01-7.19,2.41,4.18,4.75,8.38,7.22,12.5,2.78,4.63,6.78,4.62,9.6,.07,.79-1.27,1.59-2.53,2.4-3.81,1.06,1.07,.77,2.95,2.63,2.98,.23,.98,.75,1.77,1.55,2.39Zm-12.25,14.81c3.16,.34,4.38-2.07,4.42-4.2,.04-2.16-1.17-4.48-4.25-4.41-2.34,.05-5.17,2.39-4.66,4.43,.55,2.15,1.38,4.58,4.49,4.18Zm-22.87-8.59c-3.24-.08-4.51,2.18-4.43,4.4,.09,2.38,1.48,4.49,4.72,4.26,3.04-.22,4.11-2.36,4.01-4.59-.1-2.29-1.5-4.41-4.3-4.07Zm-6.54,7.23c-.03-2.12-.5-4.11-1.8-5.84-.77-1.03-1.68-1.88-3.07-1.51-1.37,.37-1.78,1.6-1.97,2.83-.32,2.13,.2,4.14,1.21,6,.75,1.39,1.75,3.14,3.47,2.73,1.87-.44,2.21-2.4,2.16-4.22h0Z"/>
      <path class="cls-5" d="M66.95,69.7c-.96-1.66-2.58-1.1-3.97-1.1-9.17-.04-18.35,0-27.52-.05-1.02,0-2.84,.72-2.77-1.25,.06-1.63,1.69-.99,2.65-1,3.79-.07,7.58-.11,11.38,0,3.54,.11,6.87-.28,9.38-3.12,1.04-1.17,1.78-.76,2.69,.18,2.28,2.37,5.15,3.03,8.35,2.95,4.28-.11,8.56-.02,12.84,0,.94,0,2.2-.22,2.05,1.31-.12,1.23-1.27,.9-2.05,.92-2.45,.06-4.89,.03-7.34,.06-1.19,.01-2.52-.28-3.16,1.21-.85-.03-1.69-.05-2.54-.09h0Z"/>
      <path class="cls-10" d="M79.51,43.75c-1.86-.03-1.58-1.91-2.63-2.98-.82,1.29-1.62,2.54-2.4,3.81-2.82,4.55-6.82,4.55-9.6-.07-2.47-4.12-4.81-8.31-7.22-12.5-2.89,2.02-2.51,6.18-6.01,7.19,.11-3.75,2.49-6.46,4.61-9.11,1.33-1.66,2.61,0,3.37,1.28,2.28,3.89,4.47,7.83,6.74,11.72,2.2,3.77,4.37,3.75,6.64,0,.38-.63,.73-1.27,1.15-1.87,.9-1.31,1.34-3.87,3.51-2.69,1.68,.91,2.81,2.93,1.84,5.23h0Z"/>
      <path class="cls-8" d="M80.95,52.28c.32-1.36,.63-2.72,.94-4.09,1.72,.36,3.19-.68,5.52-1.43-1.86,6.04-3.2,11.52-5.31,16.68-.84,2.05-3.65,.87-5.61,.67,0-.19,.08-.34,.24-.45,1.6,.75,2.49-.4,3.35-1.35,2.26-2.47,2.57-6.57,.86-10.03h0Z"/>
      <path class="cls-3" d="M57.59,56.8c-1.49-.71-2.52-1.83-2.57-3.06-.06-1.4,.98-3.08,2.38-3.11,1.2-.02,2.15,1.58,2.22,2.94,.07,1.43-1.21,2.23-2.03,3.23Z"/>
      <path class="cls-3" d="M56,47.85c-.69,1.19-1.17,2.82-2.63,3.21-.88,.24-1.12-1.06-1.13-1.92-.02-1.62,.88-2.49,2.42-2.66,.84-.09,1.41,.3,1.34,1.37Z"/>
      <path class="cls-3" d="M62.6,48.73c.02,1.33-.4,2.58-1.09,2.4-1.58-.43-2.36-1.97-2.88-3.45-.32-.91,.55-1.3,1.28-1.27,1.71,.06,2.61,1.05,2.69,2.33h0Z"/>
      <path class="cls-10" d="M68.81,60.95c-3.11,.41-3.95-2.02-4.49-4.18-.52-2.04,2.32-4.38,4.66-4.43,3.08-.07,4.29,2.24,4.25,4.41-.04,2.14-1.26,4.54-4.42,4.2Z"/>
      <path class="cls-10" d="M45.94,52.35c2.82-.33,4.2,1.78,4.3,4.07,.1,2.22-.96,4.37-4.01,4.59-3.24,.23-4.63-1.87-4.72-4.26-.08-2.22,1.19-4.48,4.43-4.4Z"/>
      <path class="cls-10" d="M80.95,52.28c1.71,3.46,1.39,7.56-.86,10.03-.86,.95-1.75,2.1-3.35,1.35-2.42-2.84-1.66-5.81-.3-8.77,.88-1.91,2.16-3.21,4.51-2.61Zm-1.21,1.76c-2.73,3.43-2.92,4.44-1.6,7.37,1.72-2.05,2.47-4.22,1.6-7.37Z"/>
      <path class="cls-10" d="M39.4,59.58c.05,1.82-.3,3.77-2.16,4.22-1.72,.4-2.71-1.33-3.47-2.73-1-1.86-1.52-3.88-1.21-6,.18-1.23,.59-2.46,1.97-2.83,1.39-.38,2.3,.48,3.07,1.51,1.3,1.73,1.76,3.72,1.8,5.84h0Zm-4.55-5.93c-.44,3.5-.3,5.84,1.98,8.02,1.27-2.98,.29-5.11-1.98-8.02Z"/>
      <path class="cls-3" d="M79.74,54.04c.88,3.15,.12,5.32-1.6,7.37-1.33-2.93-1.14-3.94,1.6-7.37Z"/>
      <path class="cls-3" d="M34.85,53.66c2.27,2.92,3.26,5.04,1.98,8.02-2.28-2.18-2.42-4.52-1.98-8.02Z"/>
    </g>
  </g>
</svg>