<?xml version="1.0" encoding="UTF-8"?>
<svg id="Layer_2" data-name="Layer 2" xmlns="http://www.w3.org/2000/svg" viewBox="0 0 107.89 107.89">
  <defs>
    <style>
      .cls-1 {
        fill: none;
        stroke: #fff;
        stroke-miterlimit: 10;
        stroke-width: 7px;
      }

      .cls-2 {
        fill: #c4b5a1;
      }

      .cls-3 {
        fill: #ca646c;
      }

      .cls-4 {
        fill: #f3c65f;
      }

      .cls-5 {
        fill: #edcf73;
      }

      .cls-6 {
        fill: #eedbb2;
      }

      .cls-7 {
        fill: #b69942;
      }

      .cls-8 {
        fill: #c1b08f;
      }

      .cls-9 {
        fill: #ca9254;
      }

      .cls-10 {
        fill: #16140f;
      }

      .cls-11 {
        fill: #d1c1ac;
      }
    </style>
  </defs>
  <g id="Layer_1-2" data-name="Layer 1">
    <g>
      <path class="cls-8" d="M53.68,104.74c-27.95,0-50.49-22.62-50.37-50.75C3.42,26.09,26.23,3.81,53.98,3.91c27.61,.1,50.14,22.69,50.13,50.44-.01,27.85-22.57,50.39-50.42,50.39h0Zm-35.86-27.2c.09,.17,.16,.35,.27,.51,2.25,3.39,4.93,6.41,8.06,8.99,9.34,7.68,20.08,11.05,32.12,9.79,10.82-1.13,19.9-5.87,27.24-13.92,3.39-3.72,6-7.94,7.89-12.6,2.51-6.18,3.44-12.6,2.96-19.24-.3-4.28-1.24-8.41-2.81-12.39-2.9-7.37-7.54-13.44-13.77-18.31-1.08-.84-2.16-1.7-3.43-2.26-.22-.17-.42-.37-.66-.51-1.38-.77-2.77-1.55-4.22-2.21-7.53-3.4-15.4-4.59-23.57-3.45-10.2,1.43-18.81,5.97-25.8,13.56-3.08,3.34-5.53,7.1-7.4,11.24-2.99,6.63-4.19,13.59-3.66,20.83,.35,4.74,1.46,9.32,3.37,13.7,.96,2.19,2,4.33,3.42,6.26h0Z"/>
      <path class="cls-6" d="M17.82,77.54c-1.43-1.93-2.47-4.07-3.42-6.26-1.91-4.37-3.02-8.95-3.37-13.7-.53-7.24,.67-14.2,3.66-20.83,1.87-4.15,4.32-7.9,7.4-11.24,6.99-7.59,15.59-12.13,25.8-13.56,8.18-1.14,16.04,.05,23.57,3.45,1.45,.66,2.83,1.44,4.22,2.21,.24,.13,.44,.34,.66,.51,1.05,1.92,2.14,3.81,2.99,5.84,.54,1.3,1.13,2.6,1.4,4-.28-.27-.56-.53-.84-.8-2.84-2.79-6.03-5.11-9.6-6.88-7.07-3.5-14.54-4.74-22.35-3.58-10.53,1.57-18.97,6.73-25.22,15.33-5.45,7.51-7.7,15.97-6.98,25.21,.44,5.62,2.12,10.85,4.93,15.73,.61,1.06,1.2,2.14,2.05,3.03,.04,.04,.09,.08,.13,.12l.02,.05-.03-.05s-.08-.09-.12-.13c-.06-.48-.34-.88-.54-1.3-3.72-7.77-4.69-15.9-2.93-24.31,1.78-8.5,6.06-15.56,12.74-21.11,7.94-6.61,17.14-9.44,27.41-8.66,5.5,.42,10.66,2.04,15.44,4.8,2.4,1.39,4.71,2.92,6.67,4.91,.03,.15,.05,.29,.09,.44,1.14,4.61,1.45,9.28,1.03,14.01-.32,3.65-1.12,7.21-2.38,10.66-1.89,5.19-4.67,9.86-8.36,13.95-3.73,4.13-8.08,7.48-13.13,9.93-7.57,3.68-15.54,4.96-23.87,4.02-5.84-.66-11.3-2.51-16.38-5.48-.22-.13-.47-.21-.71-.31Z"/>
      <path class="cls-11" d="M80.74,27.94c-.27-1.4-.85-2.69-1.4-4-.85-2.02-1.94-3.92-2.99-5.84,1.27,.56,2.35,1.42,3.43,2.26,6.23,4.86,10.87,10.93,13.77,18.31,1.57,3.98,2.51,8.11,2.81,12.39,.48,6.65-.45,13.07-2.96,19.24-1.89,4.66-4.5,8.87-7.89,12.6-7.33,8.06-16.42,12.79-27.24,13.92-12.04,1.26-22.77-2.11-32.12-9.79-3.13-2.57-5.81-5.6-8.06-8.99-.11-.16-.18-.34-.27-.51,.24,.1,.49,.18,.71,.31,5.07,2.98,10.54,4.82,16.38,5.48,8.33,.95,16.3-.34,23.87-4.02,5.04-2.45,9.39-5.79,13.13-9.93,3.69-4.09,6.47-8.76,8.36-13.95,1.26-3.46,2.06-7.01,2.38-10.66,.42-4.72,.11-9.4-1.03-14.01-.04-.14-.06-.29-.09-.44,.91,.63,1.59,1.49,2.38,2.25,.4,.38,.66,.91,1.18,1.16,.05,.15,.13,.28,.28,.36,.01,.01,.03,.02,.04,.03-.01-.01-.02-.03-.03-.04-.08-.13-.16-.27-.24-.4-.14-.24-.27-.49-.42-.72-1.16-1.81-2.56-3.42-3.98-5.03h0Z"/>
      <path class="cls-2" d="M80.74,27.94c1.42,1.61,2.82,3.23,3.98,5.03,.15,.24,.28,.48,.42,.72-.02,.02-.04,.03-.05,.05-.52-.26-.79-.78-1.18-1.16-.79-.76-1.46-1.63-2.38-2.25-1.96-1.99-4.27-3.52-6.67-4.91-4.78-2.77-9.95-4.39-15.44-4.8-10.28-.77-19.48,2.05-27.41,8.66-6.67,5.55-10.96,12.61-12.74,21.11-1.76,8.41-.8,16.53,2.93,24.31,.2,.42,.48,.82,.54,1.3h0c-.85-.89-1.44-1.98-2.05-3.03-2.81-4.87-4.49-10.11-4.93-15.73-.72-9.25,1.52-17.71,6.98-25.21,6.24-8.6,14.69-13.76,25.22-15.33,7.81-1.16,15.28,.07,22.35,3.58,3.57,1.77,6.76,4.08,9.6,6.88,.28,.27,.56,.53,.84,.8v-.02Z"/>
      <polygon class="cls-7" points="24.45 73.66 24.48 73.71 24.46 73.66 24.45 73.66"/>
      <path class="cls-7" d="M24.32,73.52s.09,.1,.13,.14h0s-.1-.09-.14-.13h0s0-.01,0-.01Z"/>
      <path class="cls-7" d="M91.84,27.76c.09,.14,.18,.29,.26,.43h-.01c-.16-.07-.25-.22-.31-.38,.02-.02,.04-.03,.06-.05Z"/>
      <path class="cls-7" d="M92.1,28.19s.02,.03,.03,.04c-.02-.01-.03-.02-.04-.03h.01Z"/>
    </g>
    <g>
      <path class="cls-10" d="M85.83,46.06c-1.74,2.36-1.92,5.32-3,7.94-.49,1.19,.81,1.89,1.28,2.76,1.32,2.48-.13,4.7-1.74,5.05-2.86,.63-3.05,2.29-2.83,4.3,.35,3.24-1.06,4.3-4.08,3.89-2.92-.39-5.96,.76-8.79-.7,.56-1.3,1.74-1.04,2.78-1.06,2.15-.03,4.3,0,6.46-.05,.69-.02,1.69,.27,1.8-.81,.13-1.35-.98-1.14-1.8-1.15-3.77-.02-7.54-.1-11.3,0-2.83,.07-5.35-.51-7.35-2.6-.79-.82-1.45-1.19-2.36-.15-2.21,2.5-5.13,2.84-8.25,2.74-3.33-.1-6.67-.06-10.01,0-.85,.02-2.28-.55-2.33,.88-.07,1.74,1.53,1.1,2.44,1.1,8.07,.05,16.14,.01,24.21,.05,1.22,0,2.65-.49,3.49,.97-.87,1.21-2.16,.75-3.27,.75-8.28,.04-16.56-.09-24.83,.08-2.95,.06-4.15-.85-3.95-3.85,.12-1.88,.5-3.94-2.64-4.4-1.33-.2-3.24-2.42-2.09-4.05,2.45-3.45,.54-6.41-.15-9.62-.34-1.56-2.6-3.59-.15-4.74,2.08-.98,2.46,1.79,3.52,2.95,.78,.85,1.24,2.17,2.62,2.12,1.63-.05,1.85-1.55,2.39-2.68,.09-.2,.11-.43,.23-.6,.84-1.25,.55-3.56,2.67-3.57,1.81-.01,1.98,2.01,2.82,3.17,.31,.43,.55,.92,.84,1.37,1.75,2.76,3.52,2.79,5.35,.11,.58-.85,.88-2.06,2.33-1.77-.18,2.57-1.35,4.69-3.82,5.33-4.74,1.22-5.26-3.54-7.45-5.99-1.4,1.78-1.39,4.07-2.96,5.5-1.9,1.74-3.93,.38-6.18-.13,.43,1.41,.64,2.45,1.05,3.4,1.67,3.91,.98,9.82,4.72,11.51,3.73,1.69,8.85,.37,13.37,.32,2.18-.02,3.8-1.17,5.34-2.63,.97-.92,1.07-1.49,.22-2.57-1.53-1.93-2.92-3.98-4.24-6.06-1.12-1.77-.76-3.51,.64-5,1.3-1.37,7.99-1.76,9.74-.53,1.51,1.07,2.33,2.55,1.81,4.45-.19,.71-.63,1.36-1.05,1.97-.84,1.24-1.74,2.45-2.6,3.68-2.14,3.05-1.93,4.05,1.44,5.84,.92,.49,2.03,.84,3.05,.85,3.21,.06,6.43-.07,9.64-.13,1.73,.18,4.2,1.22,4.94-.59,1.85-4.55,3.03-9.37,4.67-14.68-2.06,.66-3.35,1.57-4.86,1.26-.76-.39-1.17-.92-.73-1.8,2.8,.7,3.86-1.37,5.1-3.19,.92-1.36,1.72-3.06,3.88-1.84v2.58h0Zm-29.62,11.82c.72-.88,1.84-1.57,1.78-2.84-.06-1.2-.89-2.61-1.95-2.59-1.23,.02-2.15,1.51-2.09,2.74,.05,1.08,.95,2.06,2.26,2.69Zm-1.39-7.87c.06-.94-.45-1.29-1.18-1.2-1.35,.15-2.15,.92-2.13,2.34,0,.76,.23,1.9,1,1.69,1.29-.34,1.71-1.78,2.32-2.83Zm5.8,.78c-.08-1.13-.87-2-2.37-2.05-.64-.02-1.4,.32-1.13,1.12,.46,1.3,1.15,2.65,2.54,3.03,.6,.17,.97-.94,.96-2.11h0Z"/>
      <path class="cls-4" d="M76.85,48.52c-.44,.88-.02,1.41,.73,1.8-.28,1.2-.56,2.39-.83,3.6-2.07-.53-3.2,.62-3.97,2.3-1.2,2.61-1.86,5.21,.27,7.72-.14,.09-.21,.23-.21,.4-3.21,.06-6.43,.19-9.64,.13-1.03-.02-2.14-.37-3.05-.85-3.37-1.79-3.58-2.8-1.44-5.84,.87-1.23,1.77-2.43,2.6-3.68,.41-.62,.86-1.27,1.05-1.97,.52-1.9-.3-3.39-1.81-4.45-1.74-1.23-8.44-.84-9.74,.53-1.4,1.48-1.76,3.23-.64,5,1.32,2.09,2.71,4.13,4.24,6.06,.85,1.08,.75,1.65-.22,2.57-1.53,1.46-3.16,2.61-5.34,2.63-4.51,.05-9.64,1.37-13.37-.32-3.74-1.7-3.06-7.61-4.72-11.51-.41-.95-.62-1.99-1.05-3.4,2.25,.51,4.28,1.87,6.18,.13,1.57-1.43,1.56-3.72,2.96-5.5,2.19,2.45,2.71,7.21,7.45,5.99,2.47-.63,3.64-2.76,3.82-5.33,.28-.71,.57-1.4,.86-2.1,3.08-.89,2.74-4.55,5.29-6.33,2.12,3.68,4.18,7.37,6.35,11,2.44,4.07,5.96,4.07,8.44,.07,.69-1.11,1.4-2.22,2.12-3.35,.93,.94,.68,2.6,2.31,2.63,.2,.87,.66,1.56,1.36,2.1Zm-10.78,13.02c2.78,.3,3.85-1.82,3.89-3.7,.04-1.9-1.03-3.94-3.74-3.88-2.06,.05-4.55,2.1-4.1,3.9,.48,1.89,1.21,4.03,3.95,3.67Zm-20.12-7.56c-2.85-.07-3.96,1.92-3.89,3.87,.08,2.1,1.3,3.95,4.15,3.75,2.68-.19,3.61-2.08,3.53-4.04-.09-2.01-1.32-3.88-3.79-3.58Zm-5.75,6.36c-.03-1.86-.44-3.61-1.58-5.14-.68-.91-1.48-1.65-2.7-1.33-1.21,.33-1.57,1.41-1.73,2.49-.28,1.87,.18,3.64,1.06,5.28,.66,1.23,1.54,2.76,3.05,2.4,1.64-.39,1.94-2.11,1.9-3.71h0Z"/>
      <path class="cls-5" d="M64.44,69.24c-.84-1.46-2.27-.97-3.49-.97-8.07-.04-16.14,0-24.21-.05-.9,0-2.5,.63-2.44-1.1,.05-1.43,1.49-.87,2.33-.88,3.34-.07,6.67-.1,10.01,0,3.12,.09,6.04-.24,8.25-2.74,.91-1.03,1.57-.67,2.36,.15,2,2.09,4.53,2.67,7.35,2.6,3.76-.09,7.53-.02,11.3,0,.82,0,1.93-.2,1.8,1.15-.11,1.08-1.11,.79-1.8,.81-2.15,.05-4.3,.02-6.46,.05-1.04,.01-2.22-.25-2.78,1.06-.75-.02-1.49-.05-2.23-.08h0Z"/>
      <path class="cls-10" d="M75.49,46.41c-1.64-.03-1.39-1.68-2.31-2.63-.72,1.13-1.42,2.23-2.12,3.35-2.48,4-6,4.01-8.44-.07-2.17-3.63-4.23-7.31-6.35-11-2.54,1.78-2.21,5.44-5.29,6.33,.1-3.29,2.19-5.68,4.06-8.02,1.17-1.46,2.3,0,2.96,1.13,2.01,3.42,3.93,6.89,5.93,10.31,1.93,3.31,3.85,3.3,5.84,0,.33-.55,.65-1.12,1.01-1.65,.79-1.15,1.18-3.4,3.09-2.37,1.48,.8,2.47,2.58,1.62,4.6h0Z"/>
      <path class="cls-9" d="M76.76,53.91c.28-1.2,.56-2.39,.83-3.6,1.52,.31,2.8-.6,4.86-1.26-1.64,5.31-2.81,10.13-4.67,14.68-.73,1.8-3.21,.76-4.94,.59,0-.17,.07-.3,.21-.4,1.4,.66,2.19-.36,2.95-1.19,1.99-2.17,2.26-5.78,.76-8.82h0Z"/>
      <path class="cls-3" d="M56.2,57.89c-1.31-.63-2.22-1.61-2.26-2.69-.05-1.23,.87-2.71,2.09-2.74,1.05-.02,1.89,1.39,1.95,2.59,.06,1.26-1.06,1.96-1.78,2.84Z"/>
      <path class="cls-3" d="M54.81,50.02c-.6,1.04-1.03,2.48-2.32,2.83-.77,.21-.99-.93-1-1.69-.02-1.42,.78-2.19,2.13-2.34,.73-.08,1.24,.27,1.18,1.2Z"/>
      <path class="cls-3" d="M60.61,50.79c.02,1.17-.36,2.27-.96,2.11-1.39-.38-2.07-1.74-2.54-3.03-.28-.8,.49-1.14,1.13-1.12,1.51,.05,2.29,.92,2.37,2.05h0Z"/>
      <path class="cls-10" d="M66.07,61.54c-2.74,.36-3.47-1.78-3.95-3.67-.46-1.8,2.04-3.86,4.1-3.9,2.71-.06,3.77,1.97,3.74,3.88-.04,1.88-1.11,3.99-3.89,3.7Z"/>
      <path class="cls-10" d="M45.95,53.97c2.48-.29,3.7,1.56,3.79,3.58,.09,1.96-.85,3.85-3.53,4.04-2.85,.2-4.08-1.65-4.15-3.75-.07-1.95,1.04-3.94,3.89-3.87Z"/>
      <path class="cls-10" d="M76.76,53.91c1.51,3.05,1.23,6.65-.76,8.82-.76,.84-1.54,1.85-2.95,1.19-2.13-2.5-1.46-5.11-.27-7.72,.77-1.68,1.9-2.82,3.97-2.3Zm-1.06,1.55c-2.41,3.02-2.57,3.91-1.4,6.48,1.51-1.81,2.17-3.72,1.4-6.48Z"/>
      <path class="cls-10" d="M40.2,60.33c.04,1.6-.26,3.32-1.9,3.71-1.51,.36-2.39-1.17-3.05-2.4-.88-1.64-1.33-3.41-1.06-5.28,.16-1.08,.52-2.16,1.73-2.49,1.22-.33,2.03,.42,2.7,1.33,1.14,1.52,1.55,3.28,1.58,5.14h0Zm-4-5.21c-.39,3.08-.27,5.14,1.74,7.06,1.12-2.63,.25-4.49-1.74-7.06Z"/>
      <path class="cls-3" d="M75.69,55.46c.77,2.77,.11,4.68-1.4,6.48-1.17-2.58-1-3.47,1.4-6.48Z"/>
      <path class="cls-3" d="M36.2,55.12c2,2.57,2.87,4.43,1.74,7.06-2.01-1.92-2.13-3.98-1.74-7.06Z"/>
    </g>
    <circle class="cls-1" cx="53.94" cy="53.94" r="50.44"/>
  </g>
</svg>