<svg width="73" height="89" viewBox="0 0 73 89" fill="none" xmlns="http://www.w3.org/2000/svg">
<path d="M0.45435 0.00110191C0.136768 -0.00695942 -0.180403 0.029241 -0.488301 0.108692C-4.65459 1.19533 -7.23143 4.36893 -7.83187 8.08997C-8.43211 11.811 -7.39104 16.0087 -5.25442 20.1072C-1.04645 28.1787 7.60882 36.0248 18.7088 37.8358C17.5681 36.4481 16.4619 34.8939 15.3997 33.2152C7.46811 30.6194 1.16215 24.4709 -2.0198 18.3676C-3.89168 14.7771 -4.63182 11.245 -4.21986 8.69132C-3.80771 6.13766 -2.57856 4.49138 0.421816 3.70872C0.435032 3.70521 0.435643 3.7017 0.440523 3.69778C0.427306 3.66825 0.461873 3.68126 0.440523 3.69778C0.449269 3.71507 0.461454 3.73033 0.476309 3.74259C0.583465 3.8444 0.819737 4.20517 0.925064 4.80404C1.13572 6.0026 0.841088 8.02409 -0.729047 10.1071L2.17719 12.3667C4.29551 9.55617 4.95268 6.56678 4.52771 4.15086C4.31543 2.94279 3.8372 1.84521 2.97669 1.02765C2.33131 0.414528 1.40147 0.0223722 0.45435 0.00089552V0.00110191ZM64.5456 0.00110191C63.5985 0.0225786 62.6689 0.414735 62.0233 1.02785C61.1628 1.84562 60.6846 2.943 60.4721 4.15106C60.0473 6.56698 60.7045 9.55617 62.8226 12.3669L65.729 10.1073C64.1589 8.0243 63.8643 6.00281 64.0749 4.80424C64.1803 4.20537 64.4165 3.84461 64.5237 3.7428C64.5385 3.73047 64.5507 3.71523 64.5595 3.69799C64.5381 3.68147 64.5727 3.66846 64.5595 3.69799C64.5644 3.70191 64.565 3.70542 64.5782 3.70893C67.5786 4.49159 68.8077 6.13745 69.2199 8.69132C69.6318 11.245 68.8917 14.7771 67.0198 18.3676C63.8378 24.4709 57.5319 30.6196 49.6003 33.2152C48.5383 34.8939 47.4317 36.4481 46.2912 37.8358C57.3912 36.0248 66.0464 28.1787 70.2544 20.1072C72.391 16.0087 73.4321 11.811 72.8319 8.08997C72.2314 4.36872 69.6546 1.19533 65.4883 0.108692C65.1804 0.029241 64.8632 -0.00695942 64.5456 0.00110191ZM8.39205 1.59389C8.82841 9.1382 11.7999 18.7484 15.8212 26.5449C17.9983 30.7663 20.4727 34.4611 22.8893 37.0117C25.3061 39.5624 27.62 40.83 29.2467 40.83H35.7533C37.38 40.83 39.6939 39.5624 42.1107 37.0117C44.5273 34.4611 47.0017 30.7663 49.1788 26.5449C53.2001 18.7482 56.1714 9.1384 56.6079 1.59389H8.39205ZM27.8233 44.5473V47.8514H37.1767V44.5473H27.8233ZM29.1338 51.5685C28.634 56.9309 26.532 63.5197 24.165 67.263H40.835C38.4682 63.5197 36.366 56.9309 35.8662 51.5685H29.1338ZM21.3167 70.9802V73.8712H43.6833V70.9802H21.3167ZM14.81 77.5884V97H50.1899V77.5884H14.81ZM19.4867 82.338H45.5133V92.2503H19.4867V82.338Z" fill="#FF4C01"/>
</svg>
