<svg width="33" height="33" fill="none" xmlns="http://www.w3.org/2000/svg"><path d="M.908 16.909a17.13 17.13 0 0 1 .425-3.636c.336-1.521.92-2.951 1.69-4.296.51-.886 1.096-1.729 1.775-2.502 1.13-1.283 2.413-2.38 3.886-3.254a16.14 16.14 0 0 1 2.869-1.341 14.918 14.918 0 0 1 2.786-.712c1.326-.205 2.664-.29 4.009-.143.519.055 1.038.113 1.546.226 1.02.226 2.016.519 2.99.907.645.26 1.278.532 1.88.874.91.516 1.772 1.103 2.566 1.79a15.842 15.842 0 0 1 5.31 9.401c.174 1.027.26 2.06.235 3.098-.018.813-.131 1.616-.26 2.417-.293 1.827-.959 3.523-1.866 5.124a15.578 15.578 0 0 1-2.182 2.936 15.539 15.539 0 0 1-3.559 2.85 15.95 15.95 0 0 1-3.642 1.568 16.94 16.94 0 0 1-2.783.559 15.016 15.016 0 0 1-3.355 0c-.43-.05-.858-.104-1.283-.171a9.496 9.496 0 0 1-1.079-.25c-1.353-.383-2.658-.884-3.88-1.59a16.406 16.406 0 0 1-2.511-1.76 15.853 15.853 0 0 1-5.332-9.394c-.14-.89-.24-1.79-.235-2.701zm21.775 14.69a5.352 5.352 0 0 0 1.234-.541c.07-.022.147-.037.214-.07a19.734 19.734 0 0 0 1.766-1.049c.077-.052.14-.11.165-.201.364-.135.626-.413.91-.657.23-.18.459-.36.685-.547.061-.052.122-.11.14-.195a.453.453 0 0 0 .168-.114c.42-.406.835-.818 1.183-1.286.364-.486.773-.944 1.042-1.497.247-.311.476-.638.58-1.03.034-.033.08-.06.101-.103.254-.526.58-1.018.721-1.592.021-.028.049-.052.061-.08.22-.54.419-1.09.544-1.662.092-.421.272-.825.263-1.268.104-.323.14-.657.165-.992.094-.45.088-.905.085-1.36a.685.685 0 0 0 .04-.303c-.015-.436-.034-.873-.052-1.31a14.835 14.835 0 0 0-.522-3.016c-.123-.434-.239-.874-.446-1.28-.117-.51-.355-.972-.593-1.433a4.777 4.777 0 0 0-.617-1.121c-.138-.23-.202-.51-.456-.66a.728.728 0 0 0-.33-.495.344.344 0 0 0-.082-.226c-.44-.52-.843-1.066-1.332-1.54-.266-.257-.489-.556-.81-.755-.33-.278-.602-.626-.999-.825-.379-.372-.83-.644-1.28-.92-.29-.18-.565-.393-.895-.497a7.086 7.086 0 0 0-1.494-.7c-.217-.137-.464-.192-.703-.275-.205-.116-.437-.153-.663-.208-.244-.076-.486-.174-.742-.204-.306-.08-.605-.187-.914-.239-.98-.168-1.97-.262-2.966-.217-.239 0-.477-.003-.718-.003-.327 0-.657-.009-.975.08l-.345.027c-.526.046-1.033.187-1.552.272a.426.426 0 0 1-.046.034h-.003c-.391.07-.773.177-1.146.308-.183.065-.391.083-.544.23a.998.998 0 0 0-.397.094c-.752.306-1.479.663-2.184 1.064-.236.13-.514.21-.679.449a3.957 3.957 0 0 0-1.112.788 1.504 1.504 0 0 0-.308.205 19.39 19.39 0 0 0-1.378 1.27c-.376.392-.749.786-1.045 1.247-.278.26-.468.584-.66.908-.226.311-.465.614-.578.993a.194.194 0 0 0-.14.137c-.058.199-.174.367-.275.544a.537.537 0 0 0-.077.272.46.46 0 0 0-.165.207c-.235.49-.44.987-.623 1.498-.082.226-.195.443-.162.693-.015.012-.027.028-.042.04-.037.104-.08.205-.104.312-.22.92-.431 1.842-.51 2.786-.016.467-.028.935-.043 1.402.015.44.009.88.049 1.317a16.105 16.105 0 0 0 1.377 5.2.98.98 0 0 0 .22.345c0 .086.025.162.065.236.299.553.605 1.1.968 1.616.245.464.614.843.917 1.265a.373.373 0 0 0 .198.14c.07.165.171.312.3.437.357.358.712.718 1.072 1.072.156.153.327.288.526.386.244.277.513.522.864.663.306.323.678.553 1.079.742.06.046.116.095.18.134.941.547 1.906 1.042 2.957 1.354.3.091.581.253.908.25a4.885 4.885 0 0 0 1.53.33c.086.116.224.098.34.113.904.11 1.808.168 2.719.132.525.043 1.042-.061 1.561-.095.128-.01.263-.012.382-.073.373-.055.752-.08 1.109-.211a8.288 8.288 0 0 0 1.115-.284c.413-.12.831-.22 1.207-.443l-.003-.016z" fill="#E38A33"/><path d="M11.528 2.076c.153-.144.358-.165.544-.23a7.379 7.379 0 0 1 1.146-.311c.018.085.04.165.156.143.55-.1 1.103-.204 1.652-.302.101-.018.138-.076.138-.171.32-.089.648-.08.975-.08.238 0 .476 0 .718.004.107.268.348.216.55.198.455-.046.9.043 1.35.083.58.048 1.152.174 1.726.275.107.018.208.03.257-.098.257.03.498.128.742.205-.095.14-.232.128-.366.091a1.6 1.6 0 0 0-.59-.037c-.373.04-.749.07-1.121.114-.434.045-.874.051-1.305.137-.095.018-.217.006-.244.144-.217.003-.431.006-.648.012-.116 0-.232.006-.309.116-.69-.01-1.371.095-2.059.131-.061-.104-.153-.122-.266-.104-.666.11-1.32.257-1.967.443-.403.117-.792.278-1.192.398a.236.236 0 0 0-.18-.028c-.336.113-.69.113-1.036.135-.354.021-.706.11-1.063.052.089-.123.226-.175.351-.245a14.536 14.536 0 0 1 1.772-.819c.126-.049.239-.107.278-.25l-.009-.006z" fill="#EBB839"/><path d="M21.476 32.041c-.363.12-.736.22-1.115.285-.055-.058-.125-.101-.198-.095-.31.027-.624.024-.917.15-.15.012-.3.027-.45.04-.497.042-.992.082-1.49.125-1.008.006-2.01-.101-3.01-.202-.46-.125-.922-.235-1.402-.263-.024-.06-.07-.095-.134-.113-.062-.018-.162-.009-.15-.104.012-.08.11-.067.174-.073.599-.055 1.195-.107 1.793-.159.135-.012.278.006.38-.116.427.015.849.104 1.276.07a.3.3 0 0 0 .178.043c.507.018 1.01-.012 1.515-.055.306-.027.614-.024.914-.104.531-.027 1.044-.171 1.567-.253.293.036.584 0 .874-.022.641-.055 1.28-.119 1.918-.18.083-.006.168-.006.22.076l-.782.376c-.366.061-.684.26-1.042.351-.097.025-.116.126-.122.217l.003.007z" fill="#FADC46"/><path d="M9.127 3.386c.357.061.712-.027 1.063-.052.345-.021.7-.021 1.036-.134.058-.021.122-.003.18.027-.758.37-1.537.697-2.255 1.15-.201.128-.43.18-.663.204-.403.046-.806.076-1.21.11-.07.006-.134.01-.192.055-.324.25-.65.504-.941.794-.049.05-.11.101-.073.177.042.09.128.059.201.05.232-.031.462-.07.697-.056.067.003.15-.018.183.058.034.077-.04.126-.085.171l-.944.89c-.046-.08-.12-.074-.2-.068-.134.013-.271.028-.408.022-.327-.016-.612.055-.82.33-.07.091-.161.122-.271.085.293-.461.666-.855 1.045-1.246.434-.45.901-.865 1.378-1.271.094-.08.195-.153.308-.205a.408.408 0 0 0 .364-.082c.302-.227.61-.44.92-.657.238-.098.44-.275.693-.346l-.006-.006zM31.733 11.443c.21.406.323.846.445 1.28.279.987.459 1.992.523 3.016h-.193c.025-.074.007-.147 0-.223-.02-.257-.1-.508-.085-.767-.04-.187-.076-.376-.122-.562-.03-.135-.11-.22-.26-.211-.137.009-.272.018-.41.036-.174.022-.253.132-.229.303.028.174.043.354.113.52l.083.99c-.024.305.052.604.043.91-.003.04-.01.076-.012.116-.074-.01-.11-.064-.147-.116V16.527a18.644 18.644 0 0 0-.571-3.627c.036-.015.073-.03.106-.046.108.07.056.272.233.282.192.009.382.021.571-.031.147-.04.208-.138.174-.275a10.434 10.434 0 0 0-.201-.687c-.037-.11-.114-.19-.242-.193-.238-.006-.48-.03-.706.077-.094-.18-.192-.358-.287-.538l-.033-.245c.155-.012.311-.033.467-.04.217-.009.443-.042.587.19.027.046.094.049.15.049h.003z" fill="#F4D042"/><path d="M1.742 12.439c-.033-.25.08-.467.162-.694a17.76 17.76 0 0 1 .624-1.497.478.478 0 0 1 .165-.207c.155-.007.186-.14.247-.245.11-.177.18-.39.44-.415.281-.028.56-.05.843-.04-.027.137-.122.244-.183.367-.046.091-.107.189.027.265-.009.034-.015.068-.033.098-.315.517-.54 1.076-.755 1.638-.174.458-.32.932-.48 1.396-.045 0-.091-.006-.14-.01l.104-.442c.143-.26.202-.544.26-.831.122-.168.186-.367.256-.56.055-.146-.009-.225-.168-.216-.17.009-.342.024-.51.037-.1.009-.196.048-.244.13-.114.203-.242.401-.245.646-.098.125-.12.284-.183.424-.04.086-.083.153-.187.156z" fill="#D78D29"/><path d="M22.845 2.274a6.732 6.732 0 0 1 1.494.7c.006.14.098.214.205.287.378.26.818.425 1.148.758-.024.073-.076.116-.152.119-.459.006-.91.156-1.372.046-.015-.022-.028-.052-.05-.064-.521-.321-1.062-.605-1.646-.8l-.082-.047c.131-.217.357-.17.553-.195.217-.028.44.018.656-.03.062-.016.153-.004.16-.099.003-.076-.065-.119-.126-.15-.174-.079-.36-.14-.528-.228-.117-.062-.294-.09-.26-.29v-.007z" fill="#FADC46"/><path d="M17.85 2.234c.03-.137.15-.125.244-.143.43-.086.87-.089 1.305-.138.372-.04.748-.07 1.121-.113a1.6 1.6 0 0 1 .59.037c.137.037.272.052.366-.092.226.055.456.092.663.208a.26.26 0 0 0 .098.217c.131.113.073.177-.064.196-.306.04-.617.058-.92.107-.217.036-.458-.043-.644.14-.074-.01-.15-.015-.223-.034a14.293 14.293 0 0 0-2.54-.39l.004.005z" fill="#EFC43D"/><path d="M27.513 5.213c.321.196.544.498.81.755.492.474.895 1.02 1.332 1.54a.33.33 0 0 1 .082.226c.013.061.022.122.037.18.128.492.128.495-.385.55a.671.671 0 0 1-.62-.253c-.058-.068-.107-.144-.186-.19-.034-.214-.226-.318-.336-.477-.129-.186-.113-.26.113-.299.152-.027.311-.03.467-.049.199-.021.223-.073.122-.25a1.524 1.524 0 0 0-.41-.452 7.101 7.101 0 0 0-.867-.926c-.11-.098-.177-.205-.159-.355z" fill="#D78D29"/><path d="M1.043 16.982c.015-.467.027-.935.043-1.402.067-.028.13-.058.198-.086 0 .129.006.26 0 .388-.003.162.067.23.232.236.226.009.446-.046.67-.052.015.097 0 .21.125.253 0 .303-.003.608-.006.91v.034c0 .028 0 .058.003.086-.104.03-.15.104-.162.208l-.905.082a1.005 1.005 0 0 0-.204-.66l.006.003zM25.692 4.016c-.33-.333-.773-.495-1.148-.758-.107-.073-.199-.147-.205-.287.333.104.605.318.895.498.446.278.901.547 1.28.92-.06.137.018.22.113.296.217.18.431.36.648.537.043.037.095.07.08.132-.019.07-.09.082-.15.092-.184.02-.367.04-.553.055-.104.009-.208.012-.26.125-.394-.214-.7-.547-1.057-.807-.122-.088-.061-.168.067-.183.244-.034.489-.058.733-.086.055-.006.116-.006.135-.07.015-.058-.037-.085-.073-.113-.165-.122-.31-.272-.505-.351z" fill="#EFC13C"/><path d="M26.392 5.629c.052-.113.156-.12.26-.125.183-.016.37-.034.553-.055.06-.007.131-.022.15-.092.015-.061-.037-.098-.08-.131-.217-.18-.43-.361-.648-.538-.094-.08-.174-.162-.113-.297.398.2.67.544 1 .825-.019.15.048.257.158.355a7.1 7.1 0 0 1 .868.926c-.21.128-.443.128-.678.125-.11 0-.226-.01-.275.125-.223-.128-.373-.342-.572-.498-.18-.232-.455-.37-.623-.617v-.003z" fill="#E7B036"/><path d="M3.725 25.693c-.364-.514-.669-1.064-.968-1.617a.454.454 0 0 1-.065-.235c.046-.305-.134-.556-.207-.83a.967.967 0 0 0 .467.008c.162-.033.324-.064.489-.021.247.379.43.791.617 1.204a2.947 2.947 0 0 1-.632.085c-.263.003-.297.07-.171.297.198.354.427.69.598 1.06-.042.015-.085.033-.128.049z" fill="#EFC13C"/><path d="M20.612 2.656c.183-.18.427-.104.644-.14.306-.052.614-.068.92-.107.137-.019.195-.086.064-.196a.252.252 0 0 1-.098-.217c.239.086.486.138.703.275-.034.202.144.23.26.29.168.092.351.153.528.23.064.027.129.07.126.15-.004.094-.095.085-.16.097-.216.049-.44.003-.656.03-.196.025-.425-.018-.553.196-.547-.202-1.085-.422-1.662-.535a.2.2 0 0 1-.116-.076v.003z" fill="#F4D042"/><path d="M14.96 31.519c-.102.122-.245.104-.38.116-.598.052-1.194.104-1.793.159-.064.006-.162-.006-.174.073-.015.092.088.086.15.104.064.018.11.052.134.113-.058.019-.116.034-.171.052-.327.006-.608-.156-.907-.25.067-.162-.07-.193-.165-.248-.144-.082-.33-.076-.453-.208.052-.012.104-.036.16-.036.464-.006.922-.08 1.383-.128.15-.016.318.009.44-.12.239.055.477.11.715.168.352.086.715.101 1.063.208l-.003-.003z" fill="#EFC43D"/><path d="M4.067 9.973c-.131-.076-.07-.174-.027-.265.061-.123.156-.226.183-.367.156-.131.217-.33.324-.495.073-.116.248-.226.165-.37-.082-.143-.266-.036-.403-.04-.394-.005-.727.101-.895.502a.244.244 0 0 1-.227.152c.114-.378.352-.68.578-.993.11.12.171.022.217-.06a.77.77 0 0 1 .525-.398c.3-.055.605-.116.914-.036-.01.103-.193.198-.022.314-.073.174-.189.318-.305.465-.4.492-.712 1.045-1.033 1.588l.006.003z" fill="#E8B337"/><path d="M32.628 18.715c-.025.335-.061.672-.165.992-.055 0-.11 0-.165-.003-.235-.073-.477-.046-.715-.027-.137.009-.217.104-.254.235l-.146.538-.129-.046c.135-.532.19-1.075.303-1.61.082-.006.134-.046.159-.125.318.006.638.027.947-.08.055.04.11.083.162.122l.003.004z" fill="#E2A632"/><path d="M1.284 15.491c-.067.028-.131.058-.199.086.08-.944.294-1.867.51-2.787.025-.106.071-.207.105-.311.015-.012.027-.028.042-.04.104 0 .147-.07.187-.156.064-.14.085-.3.183-.425.306.013.602-.113.91-.04-.055.288-.113.572-.26.832-.247-.028-.488.03-.736.046-.137.009-.216.088-.262.22-.07.207-.101.424-.147.638-.1.266-.131.544-.168.825a6.52 6.52 0 0 0-.168 1.112h.003z" fill="#E7B036"/><path d="M2.485 23.01c.073.275.25.526.208.831a.98.98 0 0 1-.22-.345 16.085 16.085 0 0 1-1.378-5.2c-.04-.437-.034-.877-.05-1.317.145.196.22.416.206.66.064.272 0 .556.079.825.018.333.028.67.15.99.052.623.186 1.225.397 1.815.04.25.12.486.241.706.055.37.23.696.37 1.035h-.003z" fill="#F4D042"/><path d="M7.602 29.655c-.351-.14-.62-.385-.864-.663-.043-.213-.196-.351-.349-.489-.067-.058-.14-.11-.15-.207.361-.046.722-.092 1.085-.135.352.22.666.49.993.746-.119.04-.241.04-.363.049-.205.015-.413.006-.608.067-.156.049-.162.116-.05.232.105.104.26.156.313.315 0 .03 0 .058-.004.088l-.003-.003z" fill="#DE9E30"/><path d="M5.424 7.609c-.309-.08-.614-.019-.914.036a.749.749 0 0 0-.525.397c-.046.083-.107.18-.217.062.19-.324.382-.645.66-.908.11.037.204.01.272-.085.207-.275.495-.346.818-.33.135.006.272-.01.41-.022.08-.006.15-.012.198.067-.223.27-.409.572-.7.783h-.002z" fill="#EFC13C"/><path d="M30.523 8.886c.247.351.467.718.617 1.121-.01.03-.028.064-.03.095-.047.32-.047.311-.364.36-.171.028-.358 0-.51.113-.086-.064-.12-.159-.16-.253-.045-.113-.088-.226-.207-.284l-.086-.33c.064-.058.144-.074.226-.083.144-.018.288-.033.428-.064.199-.046.223-.104.137-.29-.058-.126-.128-.248-.048-.391l-.003.006z" fill="#E7B036"/><path d="M3.184 9.093a.244.244 0 0 0 .226-.152c.169-.4.502-.51.896-.501.137 0 .32-.104.403.04.082.14-.092.253-.165.37-.104.164-.168.363-.324.494a6.496 6.496 0 0 0-.843.04c-.26.027-.333.238-.44.415-.064.104-.092.239-.248.245 0-.098.028-.187.077-.272.1-.177.22-.342.275-.544a.2.2 0 0 1 .14-.138l.003.003z" fill="#DE9E30"/><path d="M30.776 24.413c-.107.394-.333.718-.58 1.03-.107-.044-.168.017-.223.09-.05.068-.098.135-.183.157-.224-.092-.444-.007-.667.012-.1.009-.213.058-.28-.052-.07-.116.045-.183.094-.266.064-.104.15-.195.183-.318.068-.07.138-.137.205-.207.235.079.47.03.706.012.266-.022.449-.138.544-.391.033-.092.088-.168.19-.199l.008.128.003.004z" fill="#EBB839"/><path d="m29.78 9.714.086.33h-.092c-.043-.061-.092-.12-.128-.184-.36-.638-.761-1.25-1.195-1.839h.131c.077.049.129.122.187.19a.686.686 0 0 0 .62.253c.513-.055.513-.058.385-.55-.015-.058-.024-.122-.037-.18.178.12.294.281.33.495 0 .14.055.266.113.39.11.23.055.322-.204.35-.122.011-.245.03-.367.042-.156.015-.208.083-.128.232.085.165.177.324.296.468l.003.003z" fill="#DB982D"/><path d="M26.973 29.08c-.285.245-.547.523-.911.658v-.086c-.003-.125-.076-.168-.19-.162-.155.006-.314.01-.47.022-.21.015-.422.043-.632.058-.058.003-.132 0-.15-.077-.015-.064.043-.094.085-.128.2-.137.4-.263.618-.373.125.126.28.083.424.064a11.72 11.72 0 0 1 1.18-.106c.015.042.03.088.046.13z" fill="#E2A632"/><path d="M30.233 10.581c.152-.116.339-.088.51-.113.318-.049.318-.04.364-.36.006-.034.02-.064.03-.095.235.462.477.923.593 1.433-.055 0-.122 0-.15-.049-.144-.232-.37-.198-.587-.19-.155.007-.311.025-.467.04-.15-.198-.22-.43-.293-.66v-.006z" fill="#EFC43D"/><path d="M29.78 9.714a2.571 2.571 0 0 1-.296-.468c-.08-.15-.027-.217.128-.232.123-.012.245-.03.367-.043.257-.027.312-.119.205-.348-.058-.125-.113-.25-.113-.391.253.15.317.43.455.66-.08.14-.01.263.049.39.085.187.06.245-.138.291-.14.03-.284.046-.427.064a.4.4 0 0 0-.227.083l-.003-.006z" fill="#E2A632"/><path d="M20.737 1.584c-.049.131-.15.119-.257.097-.574-.1-1.145-.226-1.726-.274-.449-.04-.892-.129-1.35-.083-.199.021-.44.073-.55-.199.999-.045 1.986.05 2.966.217.309.052.611.156.914.239l.003.003z" fill="#DE9E30"/><path d="M29.787 25.693c.088-.022.134-.089.183-.156.055-.076.12-.138.223-.092-.272.553-.678 1.011-1.042 1.497-.348.468-.764.88-1.182 1.287a.42.42 0 0 1-.168.113l-.046-.132c.266-.302.532-.602.794-.904.263-.226.465-.504.657-.788.232-.248.465-.498.584-.825h-.003zM11.198 31.43c.122.132.309.126.452.208.095.055.233.086.165.248-1.047-.312-2.016-.807-2.957-1.354-.064-.036-.122-.088-.18-.134.015-.043.027-.086.043-.125.183.055.336.186.528.22.275.284.639.4 1 .525.28.22.613.318.95.412z" fill="#F4D042"/><path d="M9.127 3.386c-.254.07-.456.245-.694.346-.055-.016-.113-.031-.168-.05.165-.24.443-.317.678-.448.706-.4 1.433-.755 2.185-1.064.128-.052.256-.1.397-.094-.04.143-.153.201-.278.25-.608.232-1.2.504-1.772.819-.125.07-.263.122-.351.244l.003-.003z" fill="#DC9A2E"/><path d="M32.298 19.704c.055 0 .11 0 .165.003.012.443-.171.847-.263 1.268-.122.572-.324 1.122-.544 1.662-.012.031-.04.055-.06.08l-.093-.083c.04-.177.08-.354.116-.534.279-.532.376-1.119.508-1.696.091-.226.107-.47.168-.703l.003.003z" fill="#D78D29"/><path d="M14.3 32.344c1.002.1 2 .205 3.009.202v.162c-.91.036-1.815-.022-2.72-.132-.116-.015-.25.003-.338-.113l.045-.12h.003z" fill="#DC9A2E"/><path d="M26.065 29.652v.086c-.024.091-.089.15-.165.201-.571.376-1.158.734-1.766 1.048-.064.034-.14.046-.214.07-.015-.042-.033-.085-.049-.128.058-.052.116-.103.178-.155.36-.086.641-.3.907-.541.257-.04.44-.211.648-.342.146-.095.265-.245.464-.239h-.003z" fill="#DB982D"/><path d="M6.24 28.296c.006.1.082.15.15.207.152.138.305.276.348.49a2.044 2.044 0 0 1-.526-.386c-.36-.354-.718-.715-1.072-1.072a1.427 1.427 0 0 1-.3-.437c.028-.015.055-.034.086-.049.19.18.379.364.568.544.217.269.431.538.746.703z" fill="#D78D29"/><path d="M17.312 32.708v-.162l1.491-.126c.15-.012.3-.027.45-.04 0 .053.002.104.005.156-.119.061-.253.065-.382.074-.52.036-1.035.137-1.56.095l-.004.003z" fill="#E7B036"/><path d="M15.164 1.202c0 .095-.037.153-.137.17-.55.102-1.103.203-1.653.303-.117.022-.138-.058-.156-.143h.003c.015-.012.03-.025.046-.034.519-.085 1.026-.226 1.552-.272l.345-.027v.003z" fill="#FADC46"/><path d="M4.926 27.05c-.027.014-.055.033-.085.048a.39.39 0 0 1-.2-.14c-.305-.422-.671-.8-.916-1.265l.129-.05c.177.209.354.416.531.627.129.235.29.443.49.623.014.052.033.104.048.16l.003-.004zM31.507 22.634l.091.083c-.14.574-.467 1.07-.72 1.592-.019.04-.068.067-.102.104 0-.043-.006-.086-.009-.129.019-.095.034-.186.052-.28.101-.102.135-.236.202-.355.183-.327.253-.71.486-1.015z" fill="#E2A632"/><path d="M32.509 15.742h.192c.018.437.037.873.052 1.31a.682.682 0 0 1-.04.303c-.055 0-.11 0-.162-.003l-.009-.654c.034-.32-.037-.636-.04-.953h.01l-.003-.003z" fill="#EFC13C"/><path d="m14.3 32.344-.046.12a4.886 4.886 0 0 1-1.531-.33c.058-.02.113-.035.171-.053.48.025.941.138 1.402.263h.003zM8.265 3.683c.055.015.113.03.168.049-.305.216-.617.43-.92.656a.408.408 0 0 1-.363.083c.32-.333.7-.584 1.112-.788h.003zM23.869 30.93c.015.042.033.085.048.128-.388.232-.8.412-1.234.54a5.267 5.267 0 0 0-.046-.125l.782-.376c.14-.082.294-.125.45-.168zM8.72 30.273c-.015.042-.027.085-.042.125-.4-.187-.77-.419-1.079-.743 0-.03 0-.058.003-.088.107.006.19.064.278.119.223.14.45.28.672.418l.165.165.003.004zM32.551 17.349c.055 0 .11 0 .162.003 0 .455.006.91-.085 1.36-.055-.04-.11-.083-.162-.123.036-.412.091-.825.085-1.24z" fill="#E7B036"/><path d="M22.64 31.473c.015.043.03.086.046.126-.376.223-.794.32-1.207.442.006-.091.025-.192.123-.216.357-.092.675-.29 1.041-.352h-.003z" fill="#EFC43D"/><path d="m27.752 28.21.046.132c-.019.085-.08.143-.141.195-.226.183-.455.364-.684.547l-.046-.131c.128-.214.397-.297.504-.532l.32-.21z" fill="#EBB839"/><path d="M19.255 32.536c0-.052-.003-.104-.006-.155.293-.123.608-.123.916-.15.074-.006.144.037.199.095-.358.131-.736.158-1.11.21z" fill="#F4D042"/><path d="M1.743 12.439s-.028.028-.044.04c.016-.012.028-.028.044-.04z" fill="#D78D29"/><path d="M13.264 1.501s-.03.025-.046.034c.015-.012.03-.025.046-.034z" fill="#EBB839"/><path d="M28.451 8.024c.431.593.831 1.204 1.195 1.84.037.064.085.122.128.183.208.489.413.977.666 1.442.156.47.312.938.47 1.408.312 1.189.499 2.399.569 3.627V16.732c-.03.687-.058 1.378-.125 2.062-.113.535-.168 1.078-.303 1.61-.1.327-.198.657-.3.984-.225.736-.558 1.433-.86 2.138-.325.486-.603 1-.896 1.504-.388.5-.776 1.005-1.164 1.506l-.104.1c-.773.783-1.552 1.55-2.462 2.182a14.592 14.592 0 0 1-6.432 2.502 4.675 4.675 0 0 1-.223.034c-.791.086-1.582.092-2.377.086a16.252 16.252 0 0 1-2.487-.33c-.586-.123-1.148-.324-1.723-.477l-1.081-.44-1.442-.745c-.725-.398-1.366-.914-2.002-1.433-.406-.333-.785-.706-1.173-1.06l-.733-.82-.89-1.228c-.36-.605-.736-1.203-1.023-1.851-.07-.159-.107-.342-.238-.47l-.376-1.024c-.098-.391-.201-.78-.339-1.158-.21-1.008-.37-2.023-.412-3.052 0-.028 0-.058-.003-.086v-.033c0-.303.003-.608.006-.91l.128-1.406c.116-.605.21-1.213.357-1.812.16-.464.306-.938.48-1.396.214-.562.437-1.121.755-1.638.018-.027.021-.064.033-.098.321-.543.63-1.096 1.033-1.588a1.97 1.97 0 0 0 .306-.465c.458-.486.88-.999 1.362-1.463 1.757-1.696 3.816-2.86 6.163-3.532.629-.18 1.27-.29 1.91-.434.687-.037 1.368-.143 2.058-.131.688.012 1.372.055 2.053.146 1.223.162 2.384.529 3.53.963.57.25 1.124.538 1.677.819.293.189.59.375.88.568.669.443 1.277.965 1.89 1.479l.82.834c.201.314.452.586.705.855h-.006zm2.117 4.498c-.02-.236-.116-.45-.213-.66-.05-.266-.214-.49-.297-.743-.159-.443-.412-.837-.654-1.24a3.585 3.585 0 0 0-.574-.95c-.1-.22-.235-.413-.41-.581a5.134 5.134 0 0 0-.77-.953c-.164-.184-.292-.397-.497-.541-.177-.21-.36-.416-.593-.568a2.375 2.375 0 0 0-.577-.498 5.868 5.868 0 0 0-1.14-.834c-.266-.226-.574-.382-.88-.544-.312-.239-.69-.342-1.033-.523-.436-.223-.883-.421-1.362-.537-.202-.116-.434-.14-.651-.217-.62-.22-1.265-.324-1.913-.404-.473-.134-.959-.146-1.445-.158-.275 0-.547-.007-.822-.01-.33.006-.663-.03-.992.043-.364 0-.725.037-1.076.132-.418.058-.84.097-1.237.25-.297.076-.6.144-.893.235-1.701.52-3.235 1.354-4.625 2.457-.516.41-1.018.837-1.44 1.35-.32.3-.62.617-.849.993-.232.217-.409.477-.574.743a5.4 5.4 0 0 0-.55.898c-.165.214-.308.44-.366.712-.297.415-.474.889-.642 1.365-.3.66-.498 1.35-.63 2.063-.097.366-.198.733-.204 1.115-.061.311-.113.626-.095.947-.073.357-.046.715-.037 1.075-.009.333-.036.666.022 1 .018.445.049.889.165 1.322.009.266.073.523.146.776.016.23.068.453.165.66.11.532.297 1.042.523 1.534.085.32.232.614.394.898.168.391.358.773.608 1.122.086.216.217.406.367.583.11.248.284.455.455.66.263.391.553.76.901 1.082.107.18.257.32.422.446.183.217.37.43.62.574.358.394.782.706 1.228.993.25.226.538.394.831.55.239.186.504.32.78.443a3.6 3.6 0 0 0 .754.37c.287.162.59.287.907.375.349.156.7.3 1.079.358.318.134.654.196.99.254.855.204 1.723.314 2.606.317.495.006.993.043 1.485-.036.17.018.342-.019.51-.04.663-.086 1.33-.162 1.968-.373.027-.003.055-.006.082-.012 1.204-.272 2.325-.752 3.4-1.35 1.26-.7 2.399-1.556 3.355-2.637a10.887 10.887 0 0 0 1.467-1.818c.342-.412.608-.87.828-1.357.44-.739.77-1.527.993-2.358.17-.355.256-.733.317-1.118.153-.498.224-1.015.282-1.528.042-.468.122-.932.085-1.402.07-.303-.01-.605-.003-.908.027-.278-.024-.55-.043-.825-.104-.464-.058-.953-.235-1.402a2.888 2.888 0 0 0-.21-.908c-.01-.238-.15-.436-.206-.66l.003-.002z" fill="#8D6020"/><path d="M14.834 2.491c-.636.144-1.28.254-1.91.434-2.343.672-4.402 1.836-6.162 3.532-.48.464-.904.977-1.363 1.463-.17-.116.013-.207.022-.314.29-.211.476-.514.7-.783.314-.296.632-.59.943-.889.05-.045.123-.091.086-.17-.034-.077-.12-.053-.183-.059-.236-.015-.465.025-.697.055-.073.01-.159.04-.202-.049-.036-.076.028-.128.074-.177.29-.29.617-.544.94-.794.059-.046.123-.05.193-.055.404-.034.807-.064 1.21-.11.232-.025.462-.08.663-.205.718-.452 1.494-.782 2.255-1.149.4-.119.788-.278 1.191-.397a17.426 17.426 0 0 1 1.968-.443c.113-.018.205 0 .266.104l.006.006z" fill="#FADC46"/><path d="M22.475 3.469c-1.146-.434-2.306-.8-3.529-.963a17.74 17.74 0 0 0-2.053-.146c.077-.11.193-.113.309-.116.217-.006.43-.006.648-.013.858.058 1.704.178 2.538.391.074.019.15.022.223.034.031.037.068.067.117.076.574.114 1.115.333 1.662.535l.082.046v.153l.003.003z" fill="#DB982D"/><path d="M18.84 31.32a14.592 14.592 0 0 0 6.43-2.502c.911-.632 1.69-1.4 2.463-2.181l.104-.101c0 .049 0 .095.003.143-.1.233-.342.355-.455.578l-1.283 1.155c-.272.177-.535.37-.782.58a5.107 5.107 0 0 0-.618.373c-.045.03-.1.061-.085.128.018.08.091.08.15.077.21-.015.421-.04.632-.058.156-.012.315-.015.47-.022.114-.003.187.04.19.162-.199-.009-.318.144-.465.239-.207.131-.39.302-.647.342-.474-.03-.941.08-1.412.082-.663 0-1.24.312-1.857.474-.03.009-.052.04-.08.06l-1.197.37c-.523.083-1.036.227-1.568.254v-.153h.006z" fill="#E8B337"/><path d="M20.407 31.223c.4-.122.797-.248 1.197-.37a.342.342 0 0 0 .199.037c.394-.034.788-.074 1.185-.104.352-.028.703-.126 1.058-.016a8.745 8.745 0 0 1-.178.156 1.811 1.811 0 0 0-.449.168c-.052-.085-.137-.085-.22-.076-.638.058-1.28.125-1.919.18-.29.025-.58.061-.873.022v.003z" fill="#F4D042"/><path d="M12.03 30.636c.577.153 1.139.355 1.723.477.821.17 1.65.284 2.486.327 0 .048 0 .097-.003.146-.427.034-.852-.055-1.277-.07-.345-.107-.712-.122-1.063-.208-.238-.058-.477-.113-.715-.168-.373-.11-.742-.223-1.115-.333l-.037-.17z" fill="#D78D29"/><path d="M16.236 31.59c0-.05 0-.098.003-.147.795.003 1.586 0 2.377-.086.074-.009.15-.021.224-.034v.153c-.3.08-.608.077-.914.104-.504.043-1.008.074-1.515.055a.331.331 0 0 1-.178-.043l.003-.003z" fill="#E2A632"/><path d="M32.551 17.349c.007.415-.048.828-.085 1.24-.309.107-.63.086-.947.08.07-.605.15-1.21.113-1.821.003-.04.009-.077.012-.116.3-.01.602.018.898-.04l.01.654v.003z" fill="#D78D29"/><path d="M30.85 12.024c.226-.107.467-.083.705-.077.129 0 .205.083.242.193.073.226.143.455.202.687.033.14-.028.235-.175.275-.189.052-.378.04-.57.03-.178-.009-.126-.213-.233-.28-.012-.08-.015-.162-.037-.239-.055-.195-.143-.379-.134-.586v-.003z" fill="#FADC46"/><path d="m31.598 15.824-.082-.99c.302-.024.605-.027.904-.082-.015.26.067.51.086.767.006.073.024.146 0 .223h-.01a3.196 3.196 0 0 0-.9.082h.002z" fill="#E7B036"/><path d="M31.598 15.824c.297-.07.599-.1.901-.082.003.317.074.632.04.953-.296.058-.599.03-.898.04.009-.306-.067-.605-.043-.91z" fill="#E2A632"/><path d="M32.423 14.752c-.3.058-.602.058-.904.082-.073-.165-.089-.345-.113-.52-.025-.17.052-.277.229-.302.134-.018.272-.027.41-.036.15-.01.228.08.26.21.045.187.081.376.121.563l-.003.003z" fill="#EFC43D"/><path d="M31.629 16.848c.037.61-.043 1.216-.113 1.82-.025.08-.077.12-.16.126.068-.688.093-1.375.126-2.062.04.052.077.107.147.116z" fill="#E8B337"/><path d="M30.44 11.489c-.256-.465-.46-.953-.666-1.442h.092c.12.058.165.17.208.284.036.095.073.19.159.254.073.232.143.464.293.66.012.082.021.161.034.244h-.12z" fill="#E2A632"/><path d="M30.44 11.489h.12c.094.18.192.357.287.537-.01.208.082.395.134.587.022.077.025.159.037.238l-.107.046c-.156-.47-.312-.938-.47-1.408z" fill="#EBB839"/><path d="M1.62 13.554c.046-.214.076-.43.147-.638.046-.132.122-.214.263-.22.244-.016.488-.074.736-.046l-.104.443c-.055.122-.037.269-.128.379-.309-.016-.608.052-.914.082z" fill="#EFC13C"/><path d="M3.023 11.819c-.31-.074-.605.052-.91.04 0-.245.127-.444.243-.645.05-.086.144-.126.245-.132.171-.015.342-.027.51-.036.159-.01.22.073.168.217-.07.192-.134.388-.256.559v-.003z" fill="#DE9E30"/><path d="M2.534 13.472c.088-.11.073-.257.128-.38.046 0 .092.007.14.01-.146.599-.24 1.207-.357 1.812l-.12-.043c-.027-.18.031-.354.047-.532.076-.284.14-.574.162-.87v.003z" fill="#E2A632"/><path d="M26.927 6.332c-.614-.514-1.226-1.033-1.892-1.48-.29-.192-.586-.378-.88-.567.007-.037.01-.07.016-.107.461.11.913-.04 1.372-.046.076 0 .128-.046.152-.12.196.08.34.23.505.352.036.027.088.055.073.113-.018.067-.08.064-.135.07-.244.028-.489.055-.733.086-.131.018-.19.095-.067.183.36.26.663.593 1.057.807.168.247.443.385.623.617-.03.027-.058.058-.088.085l-.003.007z" fill="#F4D042"/><path d="m24.168 4.18-.016.108c-.556-.281-1.109-.569-1.677-.82v-.152c.584.196 1.124.48 1.647.8.021.013.034.043.049.065h-.003z" fill="#EBB839"/><path d="M28.451 8.024c-.253-.269-.504-.544-.706-.855.086-.067.046-.129-.015-.184a.47.47 0 0 1-.143-.238c.049-.134.165-.128.275-.125.235.006.467.003.678-.125.165.125.305.272.41.452.1.177.076.229-.123.25-.156.019-.315.022-.467.05-.226.039-.242.112-.113.299.11.162.302.265.336.476h-.132z" fill="#DE9E30"/><path d="M2.369 14.34c-.016.177-.07.35-.046.531-.116.388-.138.788-.135 1.192-.223.006-.443.058-.669.052-.165-.007-.235-.074-.232-.236.003-.128 0-.26 0-.388.024-.376.08-.745.168-1.112.095-.01.186-.027.281-.024.214.003.422-.107.636-.013l-.003-.003z" fill="#FADC46"/><path d="M1.33 18.467c-.08-.269-.015-.553-.08-.825l.905-.082c-.01.278.033.553.08.825l-.905.082z" fill="#E7B036"/><path d="M2.234 18.384a4.148 4.148 0 0 1-.08-.824c.01-.104.059-.178.163-.208.043 1.03.201 2.044.412 3.052-.04 0-.08 0-.119.003-.131-.333-.18-.684-.254-1.03-.027-.332-.128-.656-.122-.992z" fill="#F4D042"/><path d="M2.188 16.066c0-.404.019-.804.135-1.192.04.015.08.027.12.043l-.13 1.405c-.125-.046-.11-.156-.125-.253v-.003z" fill="#E8B337"/><path d="M2.31 17.23s.004.021 0 .033c0-.012-.002-.021 0-.033z" fill="#F4D042"/><path d="M27.587 6.744a.479.479 0 0 0 .143.238c.058.058.101.116.015.184l-.821-.834.088-.086c.202.156.351.37.572.498h.003z" fill="#EFC13C"/><path d="M4.385 26.267c-.177-.208-.354-.415-.532-.626-.17-.37-.4-.706-.598-1.06-.126-.226-.092-.29.17-.297.215 0 .425-.036.633-.085l.492.705c.23.447.571.816.846 1.232-.324.146-.672.098-1.011.131z" fill="#FADC46"/><path d="m3.068 21.562.376 1.023c-.082.138-.012.275 0 .413-.165-.046-.327-.012-.489.021a.969.969 0 0 1-.467-.009c-.14-.339-.315-.666-.37-1.036.168 0 .34.006.507-.012.318-.033.349-.082.315-.397h.128v-.003z" fill="#E2A632"/><path d="M3.441 22.998c-.009-.138-.08-.275 0-.413.135.129.168.312.239.471.287.648.663 1.243 1.023 1.851h-.156l-.492-.705c-.186-.413-.366-.825-.617-1.204h.003z" fill="#D78D29"/><path d="M12.066 30.807c.373.11.742.223 1.115.333-.122.128-.293.104-.44.12-.461.048-.92.121-1.384.128-.052 0-.104.024-.159.036-.336-.094-.669-.192-.95-.412.046-.058.11-.076.18-.083l1.638-.128v.006z" fill="#EBB839"/><path d="M32.298 19.704c-.061.233-.08.477-.168.703-.318-.015-.63.03-.941.083 0-.016-.003-.028-.006-.043l.146-.538c.037-.131.117-.226.254-.235.238-.015.48-.043.715.027v.003z" fill="#E7B036"/><path d="m31.183 20.45.006.043c-.018.073-.037.146-.058.22l-.413 1.377c-.052.104-.1.211-.152.315-.193.394-.318.822-.58 1.18a.872.872 0 0 1-.09-.059c.303-.708.633-1.402.862-2.138.1-.327.199-.657.3-.984l.128.046h-.003z" fill="#D78D29"/><path d="M2.369 14.34c-.214-.095-.425.018-.636.012-.094 0-.186.015-.28.024.036-.278.066-.559.167-.825.303-.034.605-.098.914-.082a4.702 4.702 0 0 1-.162.87h-.003z" fill="#F4D042"/><path d="M2.357 19.377c.07.346.119.7.253 1.03-.03.26.129.489.132.742-.285.07-.575.095-.865.12a7.086 7.086 0 0 1-.397-1.815c.29-.05.58-.089.877-.077z" fill="#D78D29"/><path d="M2.356 19.378a4.217 4.217 0 0 0-.876.076c-.123-.318-.132-.654-.15-.99l.904-.082c-.006.335.095.66.122.992v.004z" fill="#E2A632"/><path d="M1.877 21.269c.29-.025.58-.05.864-.12.116.113.126.282.199.416.034.315 0 .364-.315.397-.168.018-.339.01-.507.012a2.125 2.125 0 0 1-.241-.705z" fill="#DE9E30"/><path d="M8.555 30.108c-.223-.141-.449-.279-.672-.42-.085-.054-.171-.112-.278-.118-.052-.156-.208-.211-.312-.315-.113-.113-.103-.183.05-.232.195-.061.403-.052.607-.067.123-.01.245-.012.364-.05.382.202.712.487 1.106.667.12.146.318.17.455.287-.049.04-.1.076-.165.073-.293-.006-.577.089-.87.092-.104 0-.205.01-.288.083h.003z" fill="#D78D29"/><path d="M6.24 28.296c-.315-.165-.529-.434-.746-.703.388-.006.77-.107 1.161-.085.049.045.101.091.147.14.165.18.4.29.52.513-.361.046-.722.092-1.085.135h.003z" fill="#E7B036"/><path d="M7.324 28.161c-.12-.223-.354-.333-.52-.513-.045-.049-.097-.095-.146-.14-.049-.055-.092-.117-.147-.165-.113-.104-.204-.217-.18-.385.391.354.767.727 1.173 1.06.636.52 1.277 1.035 2.002 1.433a.201.201 0 0 1-.083.122c-.394-.18-.724-.468-1.106-.666-.324-.257-.639-.526-.993-.746z" fill="#F4D042"/><path d="M27.84 26.683c0-.05 0-.095-.003-.144l1.164-1.506c.04.012.08.027.12.04-.037.119-.12.21-.184.317-.052.083-.165.153-.095.266.068.107.18.058.281.052.22-.018.443-.104.666-.012-.119.327-.35.577-.583.825-.03-.052-.076-.08-.134-.074-.416.052-.85-.006-1.229.236h-.003z" fill="#E2A632"/><path d="M30.82 24.003c-.02.095-.035.186-.053.281-.1.03-.156.107-.19.199-.094.25-.277.37-.543.39-.238.02-.47.071-.706-.011l.492-.868c.082.049.171.046.26.043.247-.01.495-.022.74-.034z" fill="#EFC43D"/><path d="m29.817 23.994-.492.868c-.067.07-.137.137-.205.207-.04-.012-.08-.027-.119-.04.293-.503.572-1.017.895-1.503.031.019.061.037.089.059-.003.158-.131.265-.168.409zM25.32 28.992c.247-.21.51-.403.782-.58.15.153.336.076.507.067.275-.015.544-.067.822-.061-.107.235-.376.318-.504.532-.397.009-.788.06-1.18.107-.146.018-.299.06-.424-.065h-.003z" fill="#DE9E30"/><path d="M27.43 28.418c-.274-.006-.546.049-.821.061-.171.01-.354.086-.507-.067l1.283-1.155c.272.018.54-.024.81-.058.137-.018.256-.003.351.104-.266.302-.532.602-.794.904l-.321.21z" fill="#D78D29"/><path d="M28.546 27.306c-.095-.11-.217-.122-.351-.104-.27.037-.538.076-.81.058.113-.223.354-.345.455-.577.38-.242.813-.184 1.229-.236.06-.006.103.022.134.074-.193.284-.394.562-.657.788v-.003z" fill="#DE9E30"/><path d="m12.066 30.807-1.638.129c-.07.006-.134.024-.18.082-.357-.125-.724-.241-.999-.526a.272.272 0 0 1 .174-.051c.342.015.675-.08 1.014-.086a.25.25 0 0 0 .224-.122c.097 0 .195.009.287-.037l1.081.44.037.171z" fill="#E2A632"/><path d="M10.66 30.233a.263.263 0 0 1-.223.122c-.339.01-.672.1-1.014.085a.298.298 0 0 0-.174.052c-.193-.033-.345-.165-.529-.22l-.165-.164c.083-.074.184-.083.288-.083.293 0 .577-.098.87-.092.061 0 .116-.033.165-.073.26.125.523.248.783.373z" fill="#DB982D"/><path d="M29.817 23.994c.04-.144.165-.25.168-.41.263-.36.388-.785.58-1.179.052-.104.101-.21.153-.315.11.013.217 0 .324-.012.192-.018.391-.076.58.028-.04.177-.079.354-.116.534-.232.306-.302.685-.485 1.015-.068.119-.101.253-.202.354-.247.012-.495.025-.74.034-.088.003-.18.006-.26-.043l-.002-.006z" fill="#FADC46"/><path d="M31.623 22.103c-.19-.104-.385-.046-.58-.028-.11.012-.218.028-.325.012l.413-1.378c.021-.073.04-.146.058-.22.311-.051.623-.097.94-.082-.13.578-.228 1.164-.506 1.696z" fill="#EFC13C"/><path d="M24.046 30.774c-.355-.11-.706-.013-1.058.015-.394.03-.79.067-1.185.104a.342.342 0 0 1-.198-.037c.027-.021.048-.055.079-.061.617-.165 1.194-.474 1.857-.474.471 0 .939-.113 1.412-.082-.266.241-.547.455-.907.54v-.005z" fill="#EFC43D"/><path d="M6.328 26.957c-.024.169.068.282.18.386.056.048.098.11.147.165-.39-.022-.773.082-1.16.085-.19-.18-.38-.363-.572-.544-.015-.052-.034-.104-.049-.159a4.73 4.73 0 0 0 .78-.067c.216-.034.237-.122.097-.284-.107-.122-.23-.238-.29-.394.045 0 .091-.006.134-.006l.733.819z" fill="#EFC13C"/><path d="M5.46 26.145c.062.156.184.272.29.394.141.162.12.25-.097.284-.257.04-.516.073-.78.067a2.36 2.36 0 0 1-.488-.623c.34-.034.687.018 1.011-.131a.45.45 0 0 1 .064.006v.003z" fill="#F4D042"/><path d="M30.575 21.278a9.471 9.471 0 0 1-.993 2.359c-.08-.059-.156-.031-.23.015-.094.058-.189.113-.284.168-1.472.843-2.95 1.674-4.417 2.533-1.442.843-2.888 1.68-4.336 2.508-1.216.697-2.426 1.405-3.639 2.105-.116.067-.195.15-.189.293-.88 0-1.748-.11-2.606-.317a.262.262 0 0 1 .128-.129c.81-.476 1.64-.92 2.444-1.411.737-.452 1.5-.868 2.249-1.302.862-.5 1.717-1.011 2.582-1.51 1.323-.76 2.649-1.511 3.972-2.272.641-.37 1.27-.767 1.918-1.125.59-.326 1.17-.666 1.754-1.002.363-.207.718-.433 1.088-.629.183-.098.327-.287.562-.281l-.003-.003z" fill="#D78D29"/><path d="M19.004 2.73c.651.079 1.293.183 1.913.403-.34.247-.718.43-1.079.641-1.044.608-2.09 1.22-3.131 1.827-.452.263-.908.52-1.357.786-.116.067-.253.122-.272.287-.714.17-1.432.327-2.114.617-1.384.59-2.618 1.387-3.645 2.5-.269.292-.482.635-.797.885-.064-.049-.128-.034-.193 0-.287.159-.583.306-.864.48-1.271.791-2.579 1.524-3.877 2.27-.236.134-.456.312-.73.373a8.7 8.7 0 0 1 .629-2.063.654.654 0 0 0 .269-.1c.513-.294 1.03-.584 1.54-.88 1.646-.957 3.29-1.92 4.94-2.872 1.94-1.122 3.886-2.234 5.83-3.352.864-.498 1.726-.999 2.584-1.503.131-.077.293-.135.351-.3h.003z" fill="#DC9A2E"/><path d="M19.005 2.73c-.062.167-.22.222-.352.299-.858.504-1.723 1.005-2.585 1.503-1.943 1.118-3.889 2.23-5.829 3.352-1.65.953-3.294 1.915-4.94 2.871-.51.297-1.027.59-1.54.88a.655.655 0 0 1-.269.101c.168-.476.345-.95.642-1.365.15-.007.275-.083.4-.156 1.408-.816 2.817-1.635 4.225-2.45 1.369-.792 2.738-1.58 4.103-2.371 1.482-.856 2.961-1.714 4.44-2.573.104-.061.223-.113.26-.25.485.012.974.024 1.445.158z" fill="#D78D29"/><path d="M30.575 21.278c-.235-.006-.376.183-.562.281-.37.192-.725.418-1.088.63-.584.335-1.164.674-1.754 1.002-.65.36-1.277.754-1.918 1.124-1.323.76-2.65 1.512-3.972 2.273-.865.498-1.72 1.008-2.582 1.51-.748.433-1.51.849-2.249 1.3-.803.493-1.634.936-2.444 1.412-.055.034-.104.07-.128.129-.336-.061-.672-.12-.99-.254.08-.15.241-.174.37-.247 1.76-1.02 3.52-2.035 5.276-3.053.107-.06.223-.113.26-.25.107-.028.21-.058.317-.083a10.446 10.446 0 0 0 4.962-2.621c.352-.33.633-.721.98-1.054.19.009.343-.095.496-.183 1.65-.957 3.297-1.92 4.946-2.875.122-.07.239-.165.395-.162-.062.385-.15.763-.318 1.118l.003.003zM16.484 31.256c-.006-.143.076-.226.19-.293 1.212-.703 2.422-1.412 3.638-2.105a468.483 468.483 0 0 0 4.335-2.509c1.464-.858 2.946-1.689 4.418-2.532.095-.055.19-.11.284-.168.077-.046.15-.074.23-.016-.22.486-.49.945-.828 1.357a.841.841 0 0 0-.37.122l-1.176.682c-.795.46-1.58.937-2.383 1.387-1.235.687-2.45 1.405-3.676 2.114-.868.5-1.735 1.005-2.597 1.515-.205.122-.43.214-.583.407-.495.076-.99.04-1.485.036l.003.003z" fill="#DB982D"/><path d="M17.972 31.22c.152-.196.382-.288.583-.407.862-.51 1.73-1.014 2.597-1.515 1.222-.709 2.441-1.427 3.676-2.114.803-.446 1.588-.926 2.383-1.387.39-.227.782-.456 1.176-.682a.83.83 0 0 1 .37-.122 11.05 11.05 0 0 1-1.467 1.818c-.223-.015-.357.159-.531.244-.804.404-1.562.89-2.347 1.326-.574.321-1.118.694-1.695 1.006-.67.36-1.32.757-1.98 1.136-.122.07-.232.15-.281.287-.639.211-1.305.287-1.968.373-.168.021-.336.058-.51.04l-.006-.003zM30.896 20.16c-.156-.006-.272.088-.395.162-1.65.956-3.296 1.915-4.946 2.875-.153.088-.305.189-.495.183.468-.697.969-1.375 1.31-2.148.315-.018.548-.22.795-.37.706-.424 1.44-.803 2.139-1.24.458-.287.968-.48 1.405-.804.14-.104.29-.183.47-.186-.06.516-.128 1.03-.28 1.528h-.003z" fill="#E2A632"/><path d="M21.568 3.353c.48.113.925.311 1.362.537-.046.031-.088.068-.134.095-.483.272-.95.571-1.445.825-.345.177-.657.422-1.002.596-.508.256-.966.593-1.48.837-.161.076-.347.177-.405.385a20.065 20.065 0 0 0-2.185-.098c.034-.208.217-.275.367-.36.727-.419 1.466-.82 2.187-1.247a71.275 71.275 0 0 1 2.738-1.57h-.003z" fill="#E8B337"/><path d="M8.54 28.586c-.443-.287-.87-.599-1.228-.993.052-.085.138-.128.223-.177.972-.568 1.943-1.137 2.912-1.708.162-.095.32-.183.504-.226.486.229.929.544 1.402.794 0 .116-.048.19-.15.248-.824.47-1.64.95-2.468 1.414-.394.22-.76.498-1.195.648z" fill="#FADC46"/><path d="M15.745 2.604c.327-.07.66-.037.993-.043a.362.362 0 0 1-.18.217c-1.296.752-2.591 1.507-3.89 2.255-1.653.956-3.309 1.91-4.965 2.866-.987.571-1.973 1.146-2.96 1.717-.077.043-.15.11-.245.043.15-.321.342-.614.55-.899.11.055.202-.006.29-.055 1.339-.773 2.68-1.542 4.018-2.318 1.155-.67 2.298-1.357 3.462-2.008.925-.516 1.83-1.066 2.746-1.592.077-.045.16-.085.184-.183h-.003zM3.545 22.231a7.388 7.388 0 0 1-.523-1.534.67.67 0 0 0 .29-.097c.84-.492 1.678-.987 2.524-1.467.257-.147.483-.373.81-.382.092.535.257 1.048.397 1.57-.027.01-.055.016-.076.028-.88.48-1.739 1-2.603 1.506-.26.15-.504.34-.82.376z" fill="#E7B036"/><path d="M24.843 4.957c.412.232.794.51 1.14.834-.016.128-.12.177-.214.232-.954.556-1.928 1.082-2.87 1.662-.204.125-.406.257-.647.303-.45-.224-.898-.45-1.35-.673.012-.116.107-.152.189-.201.388-.236.78-.465 1.176-.685.865-.48 1.717-.98 2.576-1.475v.003z" fill="#FADC46"/><path d="M4.498 9.662c.095.067.171 0 .245-.043.986-.571 1.973-1.146 2.96-1.717 1.653-.956 3.309-1.91 4.965-2.866 1.298-.751 2.59-1.503 3.89-2.255a.355.355 0 0 0 .18-.217c.274 0 .546.007.821.01-.033.137-.152.189-.26.25-1.478.859-2.96 1.717-4.439 2.573l-4.103 2.37c-1.408.816-2.817 1.635-4.225 2.45-.125.071-.248.15-.4.157.06-.27.201-.495.366-.712z" fill="#DE9E30"/><path d="M30.984 14.089c.174.452.131.94.235 1.402-.036.018-.076.034-.11.055-1.148.663-2.297 1.326-3.443 1.99-.12.066-.235.143-.382.143 0-.507 0-1.018.003-1.525.135-.085.263-.174.4-.253.825-.483 1.65-.969 2.478-1.442.26-.147.501-.346.82-.373v.003z" fill="#FADC46"/><path d="M31.177 18.629a.829.829 0 0 0-.47.186c-.438.324-.948.517-1.406.804-.7.437-1.433.813-2.139 1.24-.247.15-.48.355-.794.37.235-.522.403-1.07.58-1.61a.512.512 0 0 0 .275-.067c.956-.556 1.91-1.122 2.875-1.662.388-.217.749-.486 1.164-.66.034.47-.043.935-.085 1.402v-.003z" fill="#EBB839"/><path d="M2.71 19.258c-.115-.433-.143-.877-.164-1.323.082-.06.162-.128.25-.18.608-.348 1.216-.693 1.824-1.039.407-.229.82-.449 1.213-.696.23-.144.462-.27.712-.36-.055.506-.046 1.017-.055 1.524-.036.015-.076.03-.113.049-1.057.556-2.077 1.176-3.11 1.778-.174.1-.34.241-.56.244l.004.003z" fill="#FADC46"/><path d="M6.27 26.576a6.365 6.365 0 0 1-.901-1.082.452.452 0 0 1 .205-.195c.583-.334 1.158-.682 1.747-1 .495-.268.935-.629 1.458-.843.342.312.601.7.934 1.02a.763.763 0 0 1-.24.19c-.957.553-1.913 1.103-2.87 1.65-.125.073-.256.131-.336.263l.003-.003z" fill="#E8B337"/><path d="M18.797 27.135c-.034.137-.153.19-.26.25-1.76 1.018-3.52 2.035-5.276 3.052-.129.074-.29.098-.37.248-.379-.058-.733-.202-1.079-.357.062-.107.165-.165.266-.223l4.345-2.484c.134-.077.254-.165.309-.318.693.003 1.377-.08 2.065-.168z" fill="#E2A632"/><path d="M29.404 9.879c.242.4.495.797.654 1.24a.588.588 0 0 0-.266.101c-.473.278-.956.544-1.42.834-.584.364-1.22.633-1.772 1.045l-.596-1.277c.177-.153.394-.248.596-.364.623-.36 1.246-.72 1.87-1.078.308-.174.59-.404.938-.501h-.004z" fill="#DC9A2E"/><path d="M2.858 13.802c.275-.061.495-.239.73-.373 1.298-.746 2.606-1.479 3.877-2.27.278-.174.577-.321.865-.48.064-.037.128-.052.192 0l-.898 1.476a.537.537 0 0 0-.312.088c-.907.526-1.815 1.054-2.725 1.58-.642.37-1.286.733-1.931 1.1.006-.382.107-.749.205-1.115l-.003-.006z" fill="#E2A632"/><path d="M18.464 6.625c.058-.208.244-.309.406-.385.514-.244.972-.584 1.479-.837.345-.174.657-.419 1.002-.596.495-.254.963-.553 1.445-.825.05-.027.089-.061.135-.095.339.18.718.288 1.032.523-.18.22-.443.318-.678.452-1.045.608-2.096 1.207-3.144 1.809-.113.064-.229.134-.235.287-.48-.113-.96-.223-1.442-.336v.003z" fill="#EFC13C"/><path d="M27.654 7.395c.3.284.547.608.77.953a.9.9 0 0 1-.232.199c-.67.388-1.342.776-2.008 1.17-.385.226-.788.415-1.155.669-.314-.293-.58-.63-.867-.947.238-.138.476-.27.712-.41.922-.55 1.875-1.05 2.78-1.634z" fill="#E2A632"/><path d="M4.547 24.25a6.211 6.211 0 0 1-.608-1.12.601.601 0 0 0 .266-.101c.822-.471 1.647-.939 2.462-1.418.242-.14.501-.257.694-.47l.614 1.163c-.128.065-.263.12-.388.19-.574.32-1.149.641-1.72.971-.446.257-.883.523-1.326.786h.006z" fill="#D78D29"/><path d="M15.744 2.604c-.024.098-.104.14-.183.183-.916.529-1.824 1.076-2.747 1.592-1.164.651-2.306 1.338-3.461 2.008-1.338.776-2.68 1.546-4.018 2.318-.088.052-.177.11-.29.055.165-.268.345-.525.574-.742.15-.01.275-.089.4-.159 1.977-1.142 3.951-2.285 5.925-3.428.803-.464 1.607-.929 2.407-1.396.125-.073.284-.122.318-.3a4.248 4.248 0 0 1 1.075-.13z" fill="#EFC13C"/><path d="M2.653 14.917c.644-.367 1.29-.73 1.93-1.1.911-.523 1.819-1.051 2.726-1.58a.594.594 0 0 1 .312-.088c-.233.406-.346.864-.56 1.277a.554.554 0 0 0-.33.095c-.201.128-.406.256-.614.375-.904.523-1.805 1.048-2.713 1.558-.272.153-.516.376-.849.404-.018-.321.034-.636.095-.947l.003.006z" fill="#EBB839"/><path d="M16.731 27.303c-.055.152-.174.241-.308.317l-4.345 2.484c-.1.059-.204.117-.266.224a4.065 4.065 0 0 1-.907-.376c.104-.184.3-.236.464-.327 1.232-.712 2.442-1.458 3.697-2.133.116-.064.22-.14.263-.275.47-.003.935.055 1.402.086z" fill="#E7B036"/><path d="M2.558 15.864c.333-.028.574-.25.85-.403.91-.51 1.811-1.036 2.712-1.559.208-.119.413-.247.615-.375.1-.064.207-.101.33-.095l-.343 1.204c-.198.009-.366.11-.531.204-.853.498-1.699 1.003-2.554 1.494-.367.211-.712.465-1.116.608-.009-.357-.04-.718.037-1.075v-.003z" fill="#EFC43D"/><path d="M14.666 2.736c-.03.177-.192.226-.318.299-.8.467-1.604.932-2.407 1.396C9.967 5.574 7.993 6.72 6.017 7.86c-.126.07-.248.15-.4.16.229-.38.528-.694.849-.994a.487.487 0 0 0 .232-.076L9.934 5.09c.507-.29 1.01-.583 1.518-.874.602-.345 1.2-.69 1.803-1.038.079-.046.15-.101.17-.196.4-.15.822-.192 1.238-.25l.003.003z" fill="#F4D042"/><path d="M29.405 9.879c-.349.097-.63.327-.938.5-.627.355-1.25.716-1.87 1.08-.202.115-.416.21-.596.363-.244-.296-.403-.648-.632-.953a.507.507 0 0 0 .256-.07l3.208-1.87c.239.287.434.601.575.95h-.003z" fill="#D78D29"/><path d="M19.906 6.961c.009-.153.122-.223.235-.287 1.048-.602 2.099-1.201 3.144-1.809.235-.137.498-.232.678-.452.306.162.614.318.88.544-.858.492-1.71.996-2.576 1.475-.397.22-.788.45-1.176.685-.082.049-.177.085-.19.201-.332-.119-.665-.235-.995-.354v-.003z" fill="#F4D042"/><path d="M31.265 17.227c-.415.174-.776.443-1.164.66-.965.54-1.919 1.105-2.875 1.662a.462.462 0 0 1-.275.067c.08-.358.159-.715.235-1.07.101 0 .187-.036.272-.085.214-.128.428-.248.642-.373.828-.48 1.653-.96 2.48-1.433.22-.125.422-.29.68-.336-.007.303.075.605.002.908h.003z" fill="#EFC43D"/><path d="M2.524 16.94c.404-.144.749-.398 1.116-.609.855-.488 1.701-.996 2.554-1.494.165-.094.333-.195.531-.204-.122.333-.067.693-.18 1.03-.25.091-.486.216-.712.36-.394.247-.806.464-1.213.696-.608.346-1.216.69-1.824 1.04-.088.051-.168.118-.25.18-.058-.334-.034-.667-.022-1zM8.54 28.586c.434-.147.8-.428 1.195-.648.828-.461 1.647-.944 2.469-1.414.1-.058.152-.135.15-.248.348.14.696.278 1.044.419-.082.159-.25.204-.388.29-.755.474-1.53.904-2.303 1.347-.453.26-.908.508-1.336.807-.296-.156-.583-.324-.83-.55v-.003z" fill="#F4D042"/><path d="M20.45 30.807c.052-.137.162-.217.28-.287.66-.379 1.311-.776 1.98-1.137.578-.311 1.122-.684 1.696-1.005.785-.437 1.543-.922 2.347-1.326.174-.088.308-.262.531-.244-.96 1.084-2.099 1.937-3.354 2.637-1.073.598-2.197 1.078-3.401 1.35-.027.006-.055.006-.082.012h.003z" fill="#E7B036"/><path d="M9.371 29.139c.428-.3.883-.547 1.335-.807.774-.443 1.55-.873 2.304-1.347.138-.085.306-.131.388-.29l.944.302c-.012.107-.085.168-.17.217-.798.468-1.602.929-2.393 1.409-.538.327-1.118.583-1.629.956a3.711 3.711 0 0 1-.779-.443v.003z" fill="#EFC43D"/><path d="M7.364 21.143c-.192.214-.452.33-.693.47-.82.477-1.641.945-2.463 1.419a.603.603 0 0 1-.266.1c-.162-.287-.311-.577-.394-.898.315-.037.56-.226.819-.376.868-.504 1.723-1.026 2.603-1.506.024-.012.052-.018.076-.027.126.265.23.54.321.818h-.003z" fill="#DE9E30"/><path d="M13.429 2.986c-.025.095-.095.15-.171.196-.602.345-1.201.69-1.803 1.038-.507.29-1.011.584-1.518.874L6.7 6.952a.43.43 0 0 1-.232.076c.422-.513.923-.94 1.439-1.35 1.39-1.103 2.927-1.937 4.626-2.457.293-.088.595-.156.892-.235h.003z" fill="#FADC46"/><path d="M30.984 14.089c-.318.027-.559.223-.819.373-.83.473-1.652.959-2.477 1.442-.138.08-.266.168-.4.253-.037-.318-.07-.635-.108-.953.117-.073.23-.15.349-.22.996-.58 1.995-1.161 2.99-1.745a.476.476 0 0 1 .257-.06c.116.293.193.592.211.907l-.003.003z" fill="#F4D042"/><path d="M10.15 29.582c.51-.376 1.088-.632 1.629-.956.791-.48 1.595-.941 2.392-1.409.086-.049.159-.11.171-.217.342.016.654.156.987.217-.04.138-.144.214-.263.275-1.252.672-2.465 1.42-3.697 2.133-.165.095-.36.146-.464.327a3.676 3.676 0 0 1-.755-.37z" fill="#EBB839"/><path d="M10.95 25.485a1.785 1.785 0 0 0-.503.226c-.969.571-1.94 1.14-2.912 1.708-.082.049-.168.092-.223.177-.25-.143-.437-.357-.62-.574.058-.08.143-.125.223-.177.956-.602 1.968-1.113 2.918-1.724a1.05 1.05 0 0 1 .434-.18c.216.196.516.287.684.544zM31.26 16.32c-.26.045-.462.21-.68.335-.83.474-1.655.956-2.48 1.433-.214.125-.43.245-.642.373a.485.485 0 0 1-.271.085c0-.293.051-.58.094-.867.144 0 .263-.077.382-.144 1.149-.663 2.298-1.326 3.443-1.989.037-.021.074-.037.11-.055.019.275.07.547.043.825v.003z" fill="#F4D042"/><path d="M21.568 3.353a73.7 73.7 0 0 0-2.738 1.57c-.72.428-1.46.828-2.187 1.247-.15.085-.333.15-.367.36l-1.2.147c.018-.165.155-.22.271-.287.45-.266.905-.523 1.357-.786 1.045-.608 2.087-1.219 3.131-1.827.361-.21.74-.394 1.079-.641.217.073.45.1.65.217h.004z" fill="#E2A632"/><path d="M2.71 19.258c.22-.003.386-.143.56-.244 1.032-.602 2.053-1.222 3.11-1.778.037-.019.076-.034.113-.05l.046.826a.446.446 0 0 0-.193.07c-.727.419-1.45.84-2.184 1.247-.43.238-.831.543-1.302.705a3.196 3.196 0 0 1-.146-.776H2.71z" fill="#F4D042"/><path d="M26.56 6.289c.232.153.416.357.593.568-.116.131-.272.208-.419.293-.944.563-1.916 1.079-2.847 1.662a.685.685 0 0 1-.303.12 4.852 4.852 0 0 1-.58-.453c.186-.155.403-.26.61-.378l2.726-1.58c.098-.055.186-.116.22-.232z" fill="#EFC43D"/><path d="M26.56 6.289c-.03.116-.122.177-.22.232a796.62 796.62 0 0 0-2.725 1.58c-.208.119-.428.223-.611.378a6.352 6.352 0 0 1-.752-.491c.242-.05.446-.178.648-.303.94-.58 1.913-1.106 2.869-1.662.095-.055.198-.104.214-.232.213.14.415.296.577.498z" fill="#F4D042"/><path d="M8.782 23.453c-.523.214-.963.578-1.458.843-.59.321-1.167.666-1.747 1a.453.453 0 0 0-.205.195c-.174-.205-.345-.41-.455-.66a.549.549 0 0 1 .201-.171c.813-.474 1.62-.95 2.435-1.418.248-.143.48-.323.761-.406.184.183.324.4.47.611l-.002.006z" fill="#E2A632"/><path d="M26.597 13.099c.553-.412 1.191-.681 1.772-1.045.467-.29.947-.556 1.42-.834a.603.603 0 0 1 .266-.1c.086.253.248.473.297.742a.584.584 0 0 0-.33.094c-.517.3-1.036.59-1.55.892-.54.321-1.105.602-1.63.954-.114-.223-.178-.465-.251-.703h.006z" fill="#E7B036"/><path d="M23.584 8.932a.67.67 0 0 0 .303-.12c.932-.583 1.903-1.1 2.847-1.662.147-.088.303-.162.419-.293.208.144.336.358.498.54-.904.584-1.858 1.085-2.78 1.635-.236.141-.474.275-.712.41-.23-.128-.404-.318-.578-.51h.003z" fill="#EBB839"/><path d="M30.773 13.181a.506.506 0 0 0-.256.062c-.996.58-1.995 1.16-2.991 1.744-.12.07-.233.147-.349.22-.073-.22-.1-.449-.137-.678.067-.11.174-.174.28-.235.93-.535 1.858-1.067 2.79-1.598.144-.083.285-.171.459-.171.052.226.195.421.204.66v-.004zM2.858 20.034c.473-.165.87-.467 1.301-.705.733-.407 1.457-.832 2.185-1.247a.49.49 0 0 1 .192-.07c.037.247.07.495.107.742-.324.01-.55.235-.81.382-.846.477-1.683.975-2.523 1.467a.713.713 0 0 1-.29.097c-.098-.21-.15-.43-.166-.66l.004-.006z" fill="#EFC43D"/><path d="M30.569 12.521c-.175 0-.315.09-.459.172-.932.531-1.86 1.066-2.79 1.598-.106.06-.213.125-.28.235a3.471 3.471 0 0 1-.193-.724c.523-.352 1.088-.636 1.632-.954.513-.302 1.035-.592 1.549-.892a.577.577 0 0 1 .33-.094c.094.21.192.424.213.66h-.003z" fill="#EBB839"/><path d="m28.83 8.929-3.208 1.87a.506.506 0 0 1-.256.07 3.109 3.109 0 0 1-.34-.483c.367-.254.773-.443 1.155-.67.666-.393 1.338-.781 2.008-1.17a.852.852 0 0 0 .232-.198c.174.168.308.36.41.58zM8.311 22.842c-.28.083-.51.263-.76.407-.816.464-1.626.944-2.436 1.417a.522.522 0 0 0-.201.171 2.002 2.002 0 0 1-.367-.583c.443-.263.88-.529 1.326-.786.571-.326 1.146-.65 1.72-.971.125-.07.26-.128.388-.19.122.172.254.34.333.535h-.003z" fill="#DB982D"/><path d="M10.266 24.938a1.093 1.093 0 0 0-.434.18c-.953.611-1.961 1.122-2.917 1.724-.083.051-.165.097-.223.177a1.628 1.628 0 0 1-.422-.446c.08-.129.208-.19.336-.263.96-.547 1.916-1.097 2.869-1.65a.809.809 0 0 0 .241-.19c.217.117.385.29.55.468z" fill="#EFC43D"/><path d="m10.66 30.233-.782-.373c-.137-.116-.333-.143-.455-.287.043-.03.07-.07.083-.122l1.442.745c-.092.046-.19.034-.287.037z" fill="#E8B337"/><path d="M5.46 26.145a.45.45 0 0 1-.063-.006c-.275-.416-.618-.785-.847-1.232h.156l.89 1.229c-.047 0-.092.006-.135.006v.003z" fill="#DE9E30"/><path d="M2.94 21.565c-.073-.134-.082-.303-.199-.416 0-.253-.162-.482-.131-.742.04 0 .08 0 .12-.003.14.379.244.767.338 1.158H2.94v.003z" fill="#E8B337"/><path d="M10.266 24.938c-.168-.174-.333-.351-.55-.467-.333-.321-.592-.71-.934-1.02-.147-.212-.285-.429-.471-.612-.08-.198-.21-.363-.333-.535l-.614-1.164a7.22 7.22 0 0 0-.32-.819c-.141-.522-.31-1.035-.398-1.57-.037-.247-.07-.495-.107-.742l-.046-.825c.01-.51 0-1.018.055-1.525.11-.333.055-.696.18-1.03.113-.4.227-.8.343-1.203.21-.416.327-.874.559-1.277l.898-1.476c.315-.25.529-.596.797-.886 1.027-1.109 2.261-1.91 3.645-2.5.682-.29 1.4-.448 2.114-.616.4-.05.801-.098 1.201-.147.73-.015 1.458.034 2.185.098.48.113.96.223 1.442.336.333.119.666.235.996.354.449.223.898.45 1.35.672.242.178.486.349.752.492.183.165.376.318.58.453.175.189.349.378.578.51.284.32.553.657.867.947.095.174.217.327.34.483.229.305.39.656.632.953l.596 1.277c.073.238.137.476.25.703.046.247.095.492.193.724.037.229.064.458.137.678.037.318.07.635.107.953 0 .507 0 1.018-.003 1.525-.043.287-.091.574-.095.867l-.235 1.07c-.18.54-.345 1.087-.58 1.61-.342.773-.843 1.451-1.311 2.148-.348.33-.63.724-.98 1.054a10.433 10.433 0 0 1-4.962 2.621c-.107.025-.211.055-.318.083-.685.088-1.372.17-2.066.168-.467-.034-.934-.092-1.402-.086-.33-.06-.644-.201-.987-.217l-.944-.302-1.045-.419c-.473-.25-.916-.565-1.402-.794-.168-.26-.468-.351-.684-.544l-.01-.003zm16.783-8.02a10.136 10.136 0 0 0-10.15-10.146c-5.624 0-10.161 4.549-10.161 10.183 0 5.527 4.604 10.1 10.155 10.094 5.597-.006 10.159-4.558 10.153-10.131h.003z" fill="#8D6020"/><path d="M27.049 16.921c.006 5.573-4.558 10.125-10.153 10.131-5.551.006-10.155-4.567-10.155-10.094 0-5.634 4.537-10.183 10.162-10.183A10.136 10.136 0 0 1 27.051 16.92h-.003zM8.601 21.889c-.033.08.01.131.083.174.08.046.159.113.165.202.015.388.379.534.562.806.08.12.177.275.315.342.269.126.415.358.559.587.113.177.247.309.449.373.357.116.547.47.886.61.006 0 .01.01.012.016.086.168.23.217.41.266.24.067.467.22.663.36.207.15.412.233.647.266.125.019.22.046.284.165.065.12.178.138.306.11.143-.03.29-.04.403.083.101.11.205.152.34.046.048-.04.122-.034.18-.013.21.077.412.162.641.208.239.049.474.11.715.092.205-.015.394.088.593.046a3.878 3.878 0 0 1 1.512-.046c.107.018.19 0 .235-.113.043-.113.144-.144.239-.101.204.091.366.034.534-.086a.685.685 0 0 1 .27-.104c.35-.067.687-.195 1.044-.238.07-.009.14-.015.193-.067.146-.153.354-.199.531-.3.113-.064.193-.198.33-.201.208-.006.336-.128.477-.254.22-.195.406-.446.733-.492a.295.295 0 0 0 .235-.186c.065-.193.196-.324.352-.446.113-.089.207-.199.293-.318.159-.21.474-.269.556-.556.003-.012.037-.015.052-.027.202-.18.443-.327.45-.648 0-.113.06-.202.161-.272.232-.159.407-.394.523-.635.103-.211.24-.437.189-.703-.015-.067.043-.107.098-.144.238-.15.43-.62.363-.895-.046-.192-.018-.357.147-.48a.278.278 0 0 0 .104-.33c-.11-.333.195-.608.116-.931 0-.007.006-.013.01-.019a.176.176 0 0 0 .014-.177c-.06-.138-.024-.263.013-.4.085-.315.186-.62.042-.963-.107-.256-.216-.543-.052-.834.031-.055-.009-.119-.024-.18-.061-.22-.171-.428-.085-.678.036-.107.002-.309-.101-.33-.248-.052-.178-.187-.147-.333.01-.05-.01-.11-.021-.162a2.408 2.408 0 0 0-.395-.834.93.93 0 0 1-.152-.397c-.061-.358-.12-.724-.501-.91-.037-.02-.08-.071-.083-.11-.018-.144-.03-.273-.226-.267-.055 0-.07-.073-.067-.134 0-.04.024-.104-.012-.116-.18-.05-.162-.196-.18-.327a.185.185 0 0 0-.101-.147c-.51-.241-.786-.748-1.213-1.084-.03-.025-.04-.07-.058-.107-.022-.052-.046-.12-.101-.126-.275-.018-.312-.436-.636-.372-.015.003-.055-.043-.064-.074-.067-.186-.22-.238-.391-.247a.372.372 0 0 1-.315-.168c-.036-.052-.085-.098-.146-.11-.34-.064-.556-.345-.85-.486-.213-.104-.449-.247-.666-.232-.223.015-.342-.07-.492-.174a.594.594 0 0 0-.226-.095 8.54 8.54 0 0 0-1.041-.144.739.739 0 0 1-.242-.048c-.339-.147-.72-.126-1.048-.07-.269.045-.504.106-.764.011a.162.162 0 0 0-.1 0c-.294.07-.602.11-.874.23-.272.119-.566-.043-.82.119-.225-.129-.347.033-.46.177-.101.125-.208.171-.358.113-.147-.055-.272-.01-.412.052-.318.134-.483.516-.874.532-.022 0-.046.03-.064.048a.692.692 0 0 1-.324.172c-.184.051-.407.058-.468.308-.006.028-.046.067-.07.067-.226.013-.324.18-.43.343-.065.097-.172.128-.276.17-.195.086-.41.15-.534.346-.14.217-.306.403-.535.531a.477.477 0 0 0-.226.263c-.14.428-.623.648-.678 1.128-.003.033-.052.064-.083.088-.269.205-.385.514-.458.81-.07.287-.257.51-.342.785-.043.137-.174.241-.098.41.027.06-.012.103-.064.134-.043.024-.083.055-.08.11.019.235-.223.418-.131.672.01.021-.034.058-.046.089-.082.21-.208.412-.14.657.009.04.024.1.003.119-.168.174-.01.376-.052.543-.089.349-.034.666.07.997.043.137-.034.305 0 .449.125.568.01 1.17.235 1.723.006.012.01.03.003.04-.073.177.043.299.15.394.098.085.11.165.08.269-.034.122-.022.232.097.308.153.098.205.244.214.422.021.342.131.644.44.843.07.046.128.107.095.217H8.6z" fill="#DE9E30"/><path d="M8.598 21.886c.034-.11-.021-.171-.094-.217-.309-.199-.419-.501-.44-.843-.01-.178-.062-.324-.214-.422-.12-.076-.132-.183-.098-.308.027-.108.015-.184-.08-.27-.106-.094-.223-.216-.15-.393.007-.013 0-.028-.002-.04-.226-.553-.107-1.155-.235-1.723-.031-.144.045-.312 0-.45-.104-.33-.16-.644-.07-.995.042-.169-.117-.37.051-.544.019-.022.006-.08-.003-.12-.067-.244.058-.446.14-.656.013-.031.053-.068.046-.089-.091-.25.147-.437.132-.672-.003-.055.037-.086.08-.11.051-.03.091-.074.063-.135-.076-.168.055-.271.098-.409.086-.275.272-.498.342-.785.074-.296.19-.605.459-.81.033-.024.08-.055.082-.088.055-.48.538-.7.678-1.128a.488.488 0 0 1 .227-.263c.229-.128.397-.311.534-.531.126-.196.34-.26.535-.345.1-.046.208-.077.275-.172.107-.158.201-.33.43-.342.025 0 .065-.04.07-.067.059-.25.282-.257.468-.309a.654.654 0 0 0 .324-.17c.019-.019.043-.05.064-.05.391-.012.553-.397.874-.531.14-.058.266-.107.413-.052.152.058.26.012.357-.113.116-.144.238-.306.461-.177.254-.162.547 0 .82-.12.271-.119.58-.158.873-.229.034-.009.07-.009.1 0 .26.092.499.031.765-.012.327-.055.709-.076 1.048.07.08.034.159.043.241.05.351.02.697.076 1.042.143.08.015.162.049.226.095.15.104.269.192.492.174.217-.015.452.131.666.232.293.14.507.422.85.486.06.012.11.055.146.11.076.11.177.159.315.168.17.009.327.06.39.247.01.03.05.077.065.074.324-.065.36.354.635.372.052.003.077.074.101.126.015.036.028.085.058.107.428.336.703.843 1.213 1.084a.189.189 0 0 1 .1.147c.02.131 0 .278.181.327.037.009.015.076.012.116-.003.058.013.134.068.134.195-.006.21.126.226.266.006.04.046.092.082.11.382.186.44.553.501.91.025.147.07.276.153.398.18.256.32.528.394.834.012.052.03.11.022.162-.031.146-.101.28.146.333.107.021.138.223.101.33-.082.25.024.458.086.678.015.061.055.122.024.18-.165.29-.055.578.052.834.144.343.043.648-.043.963-.037.137-.073.262-.012.4a.176.176 0 0 1-.015.177c-.003.006-.013.012-.01.018.08.324-.226.6-.116.932.04.123.016.245-.104.33-.164.123-.192.288-.146.48.067.275-.125.745-.364.895-.055.037-.113.074-.097.144.054.266-.086.492-.19.703-.119.24-.29.473-.522.635-.101.07-.162.156-.162.272-.006.32-.248.47-.45.648-.015.012-.048.015-.051.027-.083.29-.398.345-.556.556-.089.116-.18.23-.294.318-.152.122-.287.25-.351.446a.29.29 0 0 1-.235.186c-.327.046-.514.297-.733.492-.141.126-.27.248-.477.254-.138.003-.217.137-.33.201-.177.101-.382.15-.532.3-.049.052-.122.058-.192.067-.358.043-.694.171-1.045.238a.704.704 0 0 0-.269.104c-.168.12-.33.18-.535.086-.091-.043-.192-.012-.238.1-.043.114-.128.132-.235.114a3.82 3.82 0 0 0-1.513.046c-.198.045-.39-.062-.592-.046-.242.018-.477-.046-.715-.092-.23-.046-.431-.131-.642-.208-.058-.021-.131-.024-.18.012-.135.107-.238.062-.34-.045-.112-.122-.259-.113-.402-.083-.126.028-.242.012-.306-.11-.064-.119-.159-.15-.284-.165a1.389 1.389 0 0 1-.648-.266c-.195-.14-.421-.293-.663-.36-.177-.049-.324-.098-.41-.266 0-.006-.008-.012-.011-.015-.34-.14-.529-.498-.886-.611-.2-.064-.337-.196-.45-.373-.143-.23-.293-.461-.559-.587-.14-.064-.235-.22-.314-.342-.18-.272-.547-.415-.563-.806-.003-.089-.085-.156-.165-.202-.073-.043-.116-.098-.082-.174h.018zm8.127 2.068c1.238-.003 1.644-.08 2.704-.476.083-.03.171-.062.257-.074a1.12 1.12 0 0 0 .504-.22c.085-.058.18-.098.269-.146.262-.147.553-.275.76-.486.251-.254.544-.465.761-.755.327-.437.792-.751 1.048-1.259.232-.458.477-.928.587-1.411.116-.516.318-1.02.312-1.58-.007-.534.058-1.069-.031-1.6-.095-.569-.193-1.137-.422-1.675-.094-.223-.284-.379-.345-.626a1.885 1.885 0 0 0-.556-.947c-.318-.294-.55-.66-.868-.95-.424-.389-.785-.871-1.405-.987-.052-.01-.098-.05-.147-.074-.232-.128-.452-.308-.702-.379-.337-.094-.673-.201-1.012-.284-.782-.186-1.567-.305-2.361-.067-.028.01-.058.018-.08.012-.36-.125-.696.064-1.017.135-.767.168-1.427.617-2.108.999-.37.208-.618.565-.944.828-.37.296-.64.69-.932 1.06-.26.327-.385.73-.575 1.094-.146.284-.302.602-.342.94-.037.285-.095.566-.14.844-.065.394-.05.78-.065 1.17-.012.275-.06.556-.012.822.064.36.159.721.254 1.079.192.727.623 1.34.971 1.992.19.35.495.592.78.864.4.385.781.776 1.255 1.088.54.36 1.161.522 1.73.806.122.062.256.107.39.126.523.073 1.045.186 1.485.134l-.003.003z" fill="#E2A632"/><path d="M16.725 23.957c-.44.052-.959-.064-1.485-.134a1.271 1.271 0 0 1-.39-.125c-.569-.285-1.19-.447-1.73-.807-.47-.312-.852-.703-1.256-1.088-.284-.272-.59-.513-.779-.864-.351-.651-.779-1.268-.971-1.992a14.86 14.86 0 0 1-.254-1.079c-.049-.263 0-.547.012-.822.016-.388 0-.776.065-1.17.045-.28.107-.562.14-.843.043-.34.196-.654.342-.941.19-.364.312-.767.575-1.094.293-.37.562-.764.931-1.06.327-.263.575-.623.945-.828.68-.382 1.34-.831 2.108-1 .324-.07.66-.256 1.017-.134.025.01.055-.003.08-.012.794-.238 1.576-.119 2.361.067.342.083.675.19 1.012.285.25.07.47.247.702.378.05.028.095.065.147.074.617.116.978.599 1.405.987.318.29.55.656.868.95.275.25.468.583.556.947.061.247.25.403.345.626.232.538.327 1.106.422 1.675.088.531.024 1.069.03 1.6.007.56-.195 1.06-.311 1.58-.107.483-.355.953-.587 1.412-.26.51-.72.821-1.048 1.258-.217.29-.51.498-.76.755-.205.208-.498.336-.761.486-.089.049-.183.088-.27.146a1.135 1.135 0 0 1-.503.22 1.234 1.234 0 0 0-.257.074c-1.06.397-1.466.473-2.704.476l.003-.003zm.333-3.162c2.127-.064 3.725-1.723 3.74-3.892.015-2.17-1.732-3.89-3.935-3.883-2.175.006-3.896 1.851-3.856 3.877.043 2.163 1.644 3.968 4.051 3.895v.003z" fill="#E8B337"/><path d="M17.061 20.795c-2.404.07-4.008-1.732-4.051-3.895-.04-2.026 1.68-3.871 3.856-3.877 2.203-.006 3.953 1.71 3.935 3.883-.015 2.166-1.613 3.828-3.74 3.892v-.003zm-1.402-3.843c-.003.586.638 1.261 1.194 1.267.789.01 1.32-.79 1.32-1.264 0-.584-.62-1.311-1.13-1.287-.883.04-1.326.44-1.384 1.284z" fill="#EFC13C"/><path d="M15.659 16.952c.061-.844.501-1.244 1.384-1.284.51-.024 1.134.703 1.13 1.287 0 .473-.534 1.274-1.32 1.265-.559-.007-1.197-.682-1.194-1.268z" fill="#F4D042"/><path d="M28.737 13.681c-.776.504-1.108 1.287-1.373 2.13-.315.986-.625 1.97-.998 2.936-.538 1.387-.921 2.792-.745 4.3.076.68-.107 1.004-.894.997-4.745-.03-9.487-.024-14.232-.003-.662 0-.955-.194-.893-.887.283-3.075-1.395-5.66-2.15-8.472-.097-.363-.449-.431-.642-.673-.438-.545-.476-1.1.017-1.612.435-.452.98-.555 1.508-.165.552.407.704.945.359 1.573-.456.835-.052 1.933.977 2.671.921.663 1.56.18 2.132-.528.684-.849 1.077-1.846 1.484-2.843.142-.345.086-.566-.12-.856-.428-.604-.387-1.211.224-1.677.514-.394 1.06-.338 1.508.12.535.55.528 1.15-.024 1.678-.252.241-.428.417-.256.793.504 1.084.987 2.181 1.864 3.027.849.818 1.473.807 2.24-.045.786-.877 1.149-1.98 1.583-3.047.17-.418-.162-.549-.358-.78-.45-.531-.46-1.108.02-1.612.435-.459.98-.538 1.508-.151.614.452.763 1.08.27 1.65-.37.427-.277.765-.104 1.162.428.987.852 1.98 1.605 2.775.838.883 1.66.952 2.457.051.624-.704 1.798-1.328.752-2.63-.349-.434-.041-1.007.442-1.331.793-.535 1.328-.049 1.846.493v.956h-.007zm-7.82.062c-.435.811-.8 1.653-1.304 2.405-1.184 1.76-2.613 1.798-3.986.177-.673-.794-1.132-1.736-1.636-2.734-2.37 4.19-2.484 4.27-4.966 3.537.325.922.677 1.83.963 2.758.155.504.414.687.939.683 4.465-.017 8.924-.01 13.39-.01.317 0 .68.048.8-.352.304-1.035.86-2.002.932-3.165-2.312 1.008-2.834.663-5.125-3.299h-.007zM17.59 23.3c2.15 0 4.304-.042 6.454.02.835.025.89-.358.863-.997-.025-.573.075-1.052-.822-1.042-4.303.045-8.607.045-12.91 0-.831-.01-.856.362-.873.997-.017.711.09 1.07.95 1.043 2.108-.066 4.223-.021 6.335-.021h.003z" fill="#935E02"/><path d="M20.92 13.736c2.289 3.962 2.813 4.307 5.125 3.3-.072 1.162-.628 2.132-.931 3.164-.118.4-.483.352-.801.352-4.465 0-8.924-.007-13.39.01-.524 0-.783-.18-.938-.683-.287-.928-.639-1.836-.963-2.757 2.481.731 2.595.652 4.966-3.538.504 1.001.963 1.936 1.636 2.734 1.373 1.621 2.802 1.583 3.985-.176.508-.753.873-1.598 1.305-2.406h.007zM17.59 23.292c-2.111 0-4.227-.045-6.335.02-.856.028-.963-.327-.95-1.042.015-.638.039-1.007.874-.997 4.303.045 8.606.045 12.91 0 .897-.01.797.466.821 1.042.028.639-.027 1.022-.863.998-2.15-.063-4.303-.021-6.453-.021h-.003z" fill="#590404"/></svg>