<svg width="33" height="32" fill="none" xmlns="http://www.w3.org/2000/svg"><path d="M.483 15.967a17.13 17.13 0 0 1 .424-3.635c.336-1.522.92-2.952 1.69-4.296.51-.886 1.097-1.73 1.775-2.502 1.13-1.283 2.414-2.38 3.886-3.254a16.14 16.14 0 0 1 2.87-1.341 14.917 14.917 0 0 1 2.786-.712c1.325-.205 2.664-.29 4.008-.144.52.055 1.039.113 1.546.226 1.02.226 2.017.52 2.991.908.645.26 1.277.531 1.88.874a15.83 15.83 0 0 1 2.566 1.79 15.841 15.841 0 0 1 5.31 9.4c.174 1.027.26 2.06.235 3.099-.019.813-.132 1.616-.26 2.417-.293 1.827-.96 3.522-1.867 5.123a15.585 15.585 0 0 1-2.181 2.936 15.54 15.54 0 0 1-3.56 2.85c-1.148.67-2.361 1.202-3.641 1.568a16.96 16.96 0 0 1-2.784.56 15.028 15.028 0 0 1-3.354 0 29.49 29.49 0 0 1-1.284-.172 9.496 9.496 0 0 1-1.078-.25c-1.354-.382-2.658-.883-3.88-1.589a16.412 16.412 0 0 1-2.512-1.76 15.855 15.855 0 0 1-5.331-9.395c-.14-.889-.241-1.79-.235-2.7zm21.774 14.69a5.353 5.353 0 0 0 1.235-.54c.07-.022.146-.037.214-.071a19.725 19.725 0 0 0 1.766-1.048c.076-.052.14-.11.165-.202.363-.134.626-.412.91-.656.23-.18.458-.36.684-.547.061-.052.123-.11.14-.196a.453.453 0 0 0 .169-.113c.419-.406.834-.819 1.182-1.286.364-.486.773-.944 1.042-1.497.248-.312.477-.639.58-1.03.034-.034.08-.061.101-.104.254-.525.581-1.017.722-1.591.02-.028.048-.052.06-.08.22-.54.42-1.09.544-1.662.092-.422.272-.825.263-1.268.104-.324.14-.657.165-.993.095-.449.089-.904.086-1.36a.687.687 0 0 0 .04-.302c-.016-.437-.034-.874-.052-1.31a14.843 14.843 0 0 0-.523-3.016c-.122-.434-.238-.874-.446-1.28-.116-.51-.354-.972-.593-1.433a4.777 4.777 0 0 0-.617-1.122c-.137-.229-.202-.51-.455-.66a.727.727 0 0 0-.33-.494.344.344 0 0 0-.082-.226c-.44-.52-.844-1.067-1.333-1.54-.265-.257-.488-.556-.81-.755-.33-.278-.601-.626-.998-.825-.38-.373-.831-.645-1.28-.92-.29-.18-.566-.394-.896-.498a7.085 7.085 0 0 0-1.494-.7c-.217-.137-.464-.192-.702-.274-.205-.116-.437-.153-.663-.208-.245-.076-.486-.174-.743-.205-.305-.08-.605-.186-.913-.238C18.414.24 17.424.144 16.428.19c-.238 0-.477-.003-.718-.003-.327 0-.657-.01-.975.08l-.345.027c-.525.046-1.033.186-1.552.272-.015.012-.03.024-.046.034h-.003c-.39.07-.773.177-1.146.308-.183.064-.39.083-.543.23a.997.997 0 0 0-.397.094c-.752.306-1.48.663-2.185 1.063-.235.132-.513.211-.678.45a3.957 3.957 0 0 0-1.112.788 1.505 1.505 0 0 0-.309.204 19.39 19.39 0 0 0-1.378 1.271c-.376.391-.748.785-1.045 1.247-.278.26-.467.583-.66.907-.226.312-.464.614-.577.993a.194.194 0 0 0-.14.138c-.059.198-.175.366-.276.544a.537.537 0 0 0-.076.271.46.46 0 0 0-.165.208c-.235.489-.44.987-.623 1.497-.083.226-.196.443-.162.694-.016.012-.028.027-.043.04-.037.103-.08.204-.104.311-.22.92-.43 1.842-.51 2.787l-.043 1.402c.015.44.01.88.049 1.317a16.104 16.104 0 0 0 1.378 5.2.98.98 0 0 0 .22.345c0 .085.024.162.064.235.3.553.605 1.1.969 1.617.244.464.614.843.916 1.264a.373.373 0 0 0 .199.14c.07.166.17.313.3.438.357.357.711.718 1.072 1.072.155.153.326.287.525.385.244.278.513.523.865.663.305.324.678.553 1.078.742.061.046.116.095.18.135.941.547 1.907 1.042 2.958 1.353.3.092.58.254.907.251a4.886 4.886 0 0 0 1.531.33c.086.116.223.098.34.113.904.11 1.808.168 2.718.131.526.043 1.042-.06 1.562-.094.128-.01.262-.013.381-.074.373-.055.752-.08 1.11-.21a8.292 8.292 0 0 0 1.115-.285c.412-.119.83-.22 1.207-.443l-.004-.015z" fill="#E38A33"/><path d="M11.103 1.134c.152-.143.357-.165.543-.229a7.382 7.382 0 0 1 1.146-.311c.019.085.04.164.156.143.55-.1 1.103-.205 1.653-.302.1-.019.137-.077.137-.171.321-.09.648-.08.975-.08.238 0 .477 0 .718.003.107.269.348.217.55.199.455-.046.901.043 1.35.082.58.05 1.152.174 1.727.275.107.019.207.03.256-.098.257.031.498.129.743.205-.095.14-.232.128-.367.092a1.6 1.6 0 0 0-.59-.037c-.372.04-.748.07-1.12.113-.435.046-.875.052-1.305.138-.095.018-.217.006-.245.143-.217.003-.43.006-.648.012-.116 0-.232.007-.308.117-.69-.01-1.372.094-2.06.131-.06-.104-.152-.122-.265-.104-.666.11-1.32.257-1.968.443-.403.116-.791.278-1.191.397a.236.236 0 0 0-.18-.027c-.337.113-.691.113-1.036.134-.355.022-.706.11-1.064.052.089-.122.227-.174.352-.244a14.54 14.54 0 0 1 1.772-.82c.125-.048.238-.106.278-.25l-.01-.006z" fill="#EBB839"/><path d="M21.05 31.1c-.363.12-.736.22-1.114.284-.055-.058-.126-.1-.2-.094-.308.027-.622.024-.916.15-.15.011-.299.027-.449.039-.498.043-.993.082-1.49.125-1.009.006-2.011-.1-3.01-.201-.462-.126-.923-.236-1.402-.263-.025-.061-.07-.095-.135-.113-.061-.018-.162-.01-.15-.104.013-.08.11-.067.175-.073.598-.055 1.194-.107 1.793-.16.134-.012.278.007.379-.115.428.015.85.104 1.277.07a.3.3 0 0 0 .177.043c.507.018 1.011-.013 1.515-.055.306-.028.615-.025.914-.104.532-.028 1.045-.171 1.567-.254.294.037.584 0 .874-.021.642-.055 1.28-.12 1.919-.18.082-.007.168-.007.22.076l-.782.376c-.367.06-.685.26-1.042.351-.098.024-.116.125-.122.217l.003.006z" fill="#FADC46"/><path d="M8.701 2.445c.358.061.712-.028 1.064-.052.345-.021.7-.021 1.035-.134.058-.022.122-.003.18.027-.757.37-1.536.697-2.254 1.149-.202.128-.431.18-.663.205-.404.045-.807.076-1.21.11-.07.006-.135.009-.193.055-.323.25-.65.504-.94.794-.05.049-.11.1-.074.177.043.089.128.058.202.049.232-.03.461-.07.696-.055.068.003.15-.018.184.058.033.076-.04.125-.086.171l-.944.89c-.046-.08-.12-.074-.199-.068-.134.012-.272.028-.409.021-.327-.015-.611.055-.819.33-.07.092-.162.123-.272.086.294-.461.666-.856 1.045-1.247.434-.449.901-.864 1.378-1.27a1.39 1.39 0 0 1 .309-.205.408.408 0 0 0 .363-.083c.303-.226.611-.44.92-.657.238-.097.44-.275.693-.345l-.006-.006zM31.307 10.502c.21.406.324.846.446 1.28.278.987.458 1.992.522 3.015h-.192c.024-.073.006-.146 0-.223-.021-.256-.1-.507-.086-.767-.04-.186-.076-.375-.122-.562-.03-.134-.11-.22-.26-.21-.137.009-.271.018-.409.036-.174.021-.253.132-.229.303.027.174.043.354.113.519l.082.99c-.024.305.052.605.043.91-.003.04-.009.077-.012.116-.073-.009-.11-.064-.147-.116V15.585a18.643 18.643 0 0 0-.57-3.626c.036-.015.072-.03.106-.046.107.07.055.272.232.281.193.01.382.022.571-.03.147-.04.208-.138.175-.275a10.496 10.496 0 0 0-.202-.688c-.037-.11-.113-.19-.241-.192-.239-.006-.48-.03-.706.076-.095-.18-.193-.357-.287-.538l-.034-.244c.156-.012.312-.034.468-.04.216-.009.443-.043.586.19.028.046.095.049.15.049h.003z" fill="#F4D042"/><path d="M1.317 11.498c-.034-.25.08-.468.162-.694.186-.507.39-1.008.623-1.497a.478.478 0 0 1 .165-.208c.156-.006.186-.14.248-.244.11-.177.18-.391.44-.416a6.47 6.47 0 0 1 .843-.04c-.028.138-.122.245-.184.367-.045.092-.107.19.028.266-.01.034-.015.067-.034.098-.314.516-.54 1.075-.754 1.637-.174.459-.321.932-.48 1.397-.046 0-.092-.006-.14-.01.033-.146.07-.296.103-.443.144-.26.202-.543.26-.83.122-.168.186-.367.257-.56.055-.146-.01-.226-.168-.216-.171.009-.343.024-.51.036-.101.01-.196.049-.245.132-.113.201-.241.4-.244.644-.098.125-.12.284-.184.425-.04.085-.082.153-.186.156z" fill="#D78D29"/><path d="M22.42 1.333a6.732 6.732 0 0 1 1.493.7c.006.14.098.213.205.287.379.26.819.424 1.149.757-.025.074-.076.116-.153.12-.458.006-.91.155-1.372.045-.015-.021-.027-.052-.049-.064-.522-.32-1.063-.605-1.646-.8l-.083-.046c.132-.217.358-.171.553-.196.217-.027.44.019.657-.03.061-.015.153-.003.159-.098.003-.076-.064-.12-.125-.15-.175-.08-.36-.14-.529-.229-.116-.06-.293-.088-.26-.29v-.006z" fill="#FADC46"/><path d="M17.424 1.293c.03-.137.15-.125.245-.143.43-.086.87-.089 1.304-.138.373-.04.749-.07 1.122-.113.198-.021.394-.015.59.037.137.036.271.052.366-.092.226.055.455.092.663.208a.26.26 0 0 0 .098.217c.13.113.073.177-.065.195-.305.04-.617.058-.92.107-.216.037-.458-.043-.644.14-.073-.008-.15-.015-.223-.033a14.29 14.29 0 0 0-2.539-.391l.003.006z" fill="#EFC43D"/><path d="M27.088 4.272c.32.196.544.498.81.755.491.473.895 1.02 1.331 1.54.059.067.083.14.083.226.012.06.021.122.037.18.128.492.128.495-.385.55a.672.672 0 0 1-.62-.254c-.059-.067-.108-.143-.187-.19-.034-.213-.226-.317-.336-.476-.128-.186-.113-.26.113-.3.153-.027.312-.03.467-.048.2-.022.224-.073.123-.25a1.524 1.524 0 0 0-.41-.453 7.115 7.115 0 0 0-.867-.926c-.11-.097-.178-.204-.16-.354z" fill="#D78D29"/><path d="M.617 16.04.66 14.64c.067-.028.131-.059.199-.086 0 .128.006.26 0 .388-.003.162.067.23.232.235.226.01.446-.046.669-.052.015.098 0 .211.125.254 0 .302-.003.608-.006.91v.034a.8.8 0 0 0 .003.085c-.104.031-.15.104-.162.208l-.904.083a1.005 1.005 0 0 0-.205-.66l.006.003zM25.267 3.074c-.33-.333-.773-.495-1.149-.757-.107-.074-.199-.147-.205-.288.333.104.605.318.895.498.447.278.902.547 1.28.92-.06.138.019.22.114.296.217.18.43.36.647.538.043.037.095.07.08.132-.018.07-.089.082-.15.091-.183.022-.366.04-.553.055-.104.01-.208.012-.26.125-.394-.213-.7-.546-1.057-.806-.122-.089-.06-.168.068-.183.244-.034.488-.059.733-.086.055-.006.116-.006.134-.07.015-.058-.036-.086-.073-.113-.165-.123-.309-.272-.504-.352z" fill="#EFC13C"/><path d="M25.967 4.688c.052-.114.155-.12.26-.126.183-.015.369-.033.552-.055.061-.006.132-.021.15-.091.015-.062-.037-.098-.08-.132-.216-.18-.43-.36-.647-.538-.095-.079-.174-.161-.113-.296.397.199.669.544.999.825-.018.15.049.257.159.354.317.282.605.593.867.926-.21.129-.443.129-.678.125-.11 0-.226-.009-.275.126-.223-.129-.373-.342-.571-.498-.18-.232-.455-.37-.623-.617v-.003z" fill="#E7B036"/><path d="M3.3 24.751c-.364-.513-.67-1.063-.969-1.616a.454.454 0 0 1-.064-.235c.046-.306-.135-.556-.208-.831a.968.968 0 0 0 .468.009c.161-.034.323-.064.488-.021.248.379.431.79.618 1.203a2.94 2.94 0 0 1-.633.086c-.263.003-.296.07-.171.296.199.355.428.69.599 1.06l-.128.05z" fill="#EFC13C"/><path d="M20.186 1.715c.183-.18.428-.104.645-.14.305-.053.614-.068.92-.108.137-.018.195-.085.063-.195a.253.253 0 0 1-.097-.217c.238.085.486.137.702.275-.033.201.144.229.26.29.168.092.352.153.529.23.064.027.128.07.125.149-.003.095-.095.085-.159.098-.217.049-.44.003-.657.03-.195.025-.424-.018-.553.196-.547-.202-1.084-.422-1.662-.535a.201.201 0 0 1-.116-.076v.003z" fill="#F4D042"/><path d="M14.534 30.578c-.101.122-.245.104-.379.116-.599.052-1.195.104-1.793.159-.065.006-.162-.006-.175.073-.015.092.089.086.15.104.064.018.11.052.135.113-.058.018-.117.034-.172.052-.327.006-.607-.156-.907-.25.067-.163-.07-.193-.165-.248-.143-.083-.33-.076-.452-.208.052-.012.104-.037.159-.037.464-.006.922-.079 1.384-.128.15-.015.317.01.44-.119.238.055.476.11.715.168.351.085.715.1 1.063.208l-.003-.003z" fill="#EFC43D"/><path d="M3.642 9.032c-.131-.076-.07-.174-.028-.266.061-.122.156-.226.184-.366.156-.132.217-.33.324-.495.073-.116.247-.226.165-.37-.083-.144-.266-.037-.404-.04-.394-.006-.727.101-.895.501a.244.244 0 0 1-.226.153c.113-.379.351-.681.577-.993.11.12.171.022.217-.061a.77.77 0 0 1 .526-.397c.3-.055.605-.116.913-.037-.009.104-.192.199-.021.315-.073.174-.19.318-.306.464-.4.492-.711 1.045-1.032 1.589l.006.003z" fill="#E8B337"/><path d="M32.202 17.773c-.024.336-.06.672-.165.993-.055 0-.11 0-.165-.003-.235-.073-.476-.046-.715-.028-.137.01-.216.104-.253.236l-.147.538-.128-.046c.134-.532.19-1.076.302-1.61.083-.007.135-.046.16-.126.317.006.638.028.946-.08.055.04.11.083.162.123l.003.003z" fill="#E2A632"/><path d="M.859 14.55c-.068.027-.132.058-.2.085.08-.944.294-1.866.511-2.786.025-.107.07-.208.104-.312.015-.012.028-.027.043-.04.104 0 .146-.07.186-.155.064-.14.086-.3.183-.425.306.012.602-.113.91-.04-.054.288-.112.572-.259.832-.247-.028-.489.03-.736.045-.138.01-.217.089-.263.22-.07.208-.1.425-.146.639-.101.266-.132.544-.169.825a6.518 6.518 0 0 0-.168 1.112H.86z" fill="#E7B036"/><path d="M2.06 22.069c.073.275.25.525.207.83a.98.98 0 0 1-.22-.344 16.083 16.083 0 0 1-1.378-5.2c-.04-.437-.033-.877-.049-1.317.144.195.22.415.205.66.064.272 0 .556.08.825.018.333.027.669.15.99.051.623.186 1.225.396 1.814.04.25.12.486.242.706.055.37.229.697.37 1.036h-.004z" fill="#F4D042"/><path d="M7.177 28.714c-.351-.14-.62-.385-.865-.663-.043-.214-.195-.351-.348-.489-.067-.058-.14-.11-.15-.208.36-.045.721-.091 1.085-.134.351.22.666.489.993.745-.12.04-.242.04-.364.05-.204.015-.412.005-.608.067-.156.048-.162.116-.049.232.104.104.26.156.312.314 0 .031 0 .058-.003.089l-.003-.003z" fill="#DE9E30"/><path d="M4.998 6.667c-.308-.08-.614-.018-.913.037a.749.749 0 0 0-.526.397c-.046.083-.107.18-.217.061.19-.324.382-.644.66-.907.11.037.205.009.272-.086.208-.275.495-.345.819-.33.134.006.272-.009.41-.021.079-.006.149-.012.198.067-.223.269-.41.571-.7.782h-.003z" fill="#EFC13C"/><path d="M30.097 7.944c.247.352.467.718.617 1.122-.009.03-.027.064-.03.094-.046.321-.046.312-.364.36-.171.028-.357 0-.51.114-.086-.064-.12-.159-.159-.254-.046-.113-.089-.226-.208-.284l-.085-.33c.064-.058.143-.073.226-.082.143-.019.287-.034.428-.064.198-.046.223-.104.137-.29-.058-.126-.128-.248-.049-.392l-.003.006z" fill="#E7B036"/><path d="M2.759 8.152A.244.244 0 0 0 2.985 8c.168-.4.501-.51.895-.5.138 0 .32-.105.403.039.083.14-.091.254-.165.37-.103.165-.168.363-.323.495a6.492 6.492 0 0 0-.844.04c-.26.027-.333.238-.44.415-.064.104-.091.238-.247.244 0-.097.027-.186.076-.272.101-.177.22-.342.275-.543a.2.2 0 0 1 .14-.138l.004.003z" fill="#DE9E30"/><path d="M30.35 23.471c-.106.394-.332.718-.58 1.03-.107-.043-.168.018-.223.091-.049.068-.098.135-.183.156-.223-.091-.443-.006-.666.012-.1.01-.214.058-.281-.052-.07-.116.046-.183.095-.265.064-.104.15-.196.183-.318.067-.07.137-.137.204-.208.236.08.471.03.706.012.266-.02.45-.137.544-.39.034-.092.089-.169.19-.2l.009.13.003.002z" fill="#EBB839"/><path d="M29.355 8.772c.027.11.058.22.085.33h-.091c-.043-.06-.092-.119-.129-.183-.36-.639-.76-1.25-1.194-1.84h.131c.076.05.128.123.186.19a.685.685 0 0 0 .62.254c.514-.055.514-.058.386-.55-.016-.058-.025-.122-.037-.18.177.119.293.28.33.495 0 .14.055.265.113.39.11.23.055.321-.205.349-.122.012-.244.03-.366.043-.156.015-.208.082-.129.232.086.165.178.324.297.467l.003.003z" fill="#DB982D"/><path d="M26.547 28.14c-.284.244-.547.522-.91.657v-.086c-.004-.125-.077-.168-.19-.162-.156.006-.315.01-.47.021-.211.016-.422.043-.633.058-.058.003-.131 0-.15-.076-.015-.064.043-.095.086-.128.198-.138.4-.263.617-.373.125.125.281.083.425.064.39-.049.785-.098 1.18-.107l.045.132z" fill="#E2A632"/><path d="M29.807 9.64c.153-.116.34-.089.51-.113.318-.049.318-.04.364-.36.006-.034.021-.065.03-.095.236.461.477.922.593 1.433-.055 0-.122 0-.15-.05-.143-.231-.37-.198-.586-.189-.156.007-.312.025-.468.04-.15-.198-.22-.43-.293-.66V9.64z" fill="#EFC43D"/><path d="M29.355 8.772a2.57 2.57 0 0 1-.296-.467c-.08-.15-.028-.217.128-.232.122-.013.244-.03.366-.043.257-.028.312-.12.205-.348-.058-.126-.113-.25-.113-.391.254.15.318.43.455.66-.079.14-.009.262.05.39.085.187.06.245-.138.29-.14.031-.284.047-.428.065a.4.4 0 0 0-.226.082l-.003-.006z" fill="#E2A632"/><path d="M20.311.642c-.048.132-.15.12-.256.098-.575-.1-1.146-.226-1.726-.275-.45-.04-.893-.128-1.35-.082-.2.021-.44.073-.55-.199.998-.046 1.985.049 2.966.217.308.052.61.156.913.238l.003.003z" fill="#DE9E30"/><path d="M29.361 24.751c.089-.021.134-.088.183-.155.055-.077.12-.138.223-.092-.271.553-.678 1.011-1.041 1.497-.349.467-.764.88-1.183 1.286a.42.42 0 0 1-.168.113l-.046-.131c.266-.303.532-.602.795-.904.263-.227.464-.505.657-.789.232-.247.464-.498.583-.825h-.003zM10.773 30.49c.122.13.308.124.452.207.095.055.232.085.165.247-1.048-.311-2.017-.806-2.958-1.353-.064-.037-.122-.089-.18-.135.015-.042.028-.085.043-.125.183.055.336.186.529.22.274.284.638.4.999.526.28.22.614.317.95.412z" fill="#F4D042"/><path d="M8.701 2.445c-.253.07-.455.244-.693.345-.055-.015-.113-.03-.168-.049.165-.241.443-.317.678-.449.706-.4 1.433-.754 2.184-1.063.129-.052.257-.1.398-.095-.04.144-.153.202-.278.25-.608.233-1.201.505-1.773.82-.125.07-.262.122-.35.244l.002-.003z" fill="#DC9A2E"/><path d="M31.872 18.763c.055 0 .11 0 .165.003.012.443-.17.846-.262 1.268-.123.571-.324 1.121-.544 1.662-.013.03-.04.055-.062.08l-.091-.083c.04-.177.08-.354.116-.535.278-.531.376-1.118.507-1.695.092-.226.107-.47.168-.703l.003.003z" fill="#D78D29"/><path d="M13.874 31.403c1.002.1 2.001.204 3.01.201v.162c-.911.037-1.816-.021-2.72-.131-.116-.016-.25.003-.339-.113l.046-.12h.003z" fill="#DC9A2E"/><path d="M25.64 28.71v.087c-.025.091-.09.15-.166.201-.57.376-1.157.733-1.765 1.048-.065.034-.141.046-.214.07l-.05-.128c.059-.052.117-.104.178-.156.36-.085.642-.3.907-.54.257-.04.44-.211.648-.343.147-.095.266-.244.464-.238h-.002z" fill="#DB982D"/><path d="M5.814 27.354c.006.101.083.15.15.208.153.138.305.275.348.489a2.044 2.044 0 0 1-.525-.385c-.36-.354-.718-.715-1.073-1.072a1.427 1.427 0 0 1-.3-.437c.028-.015.056-.034.086-.05l.569.545c.217.268.43.537.745.702z" fill="#D78D29"/><path d="M16.887 31.766v-.162c.497-.043.992-.082 1.49-.125.15-.012.3-.027.45-.04 0 .052.003.104.006.156-.12.061-.254.064-.382.073-.52.037-1.036.138-1.561.095l-.003.003z" fill="#E7B036"/><path d="M14.738.26c0 .095-.036.153-.137.172l-1.653.302c-.116.021-.137-.058-.156-.144h.003c.016-.012.03-.024.046-.033.52-.086 1.027-.226 1.552-.272l.345-.028V.26z" fill="#FADC46"/><path d="M4.5 26.108c-.027.015-.054.034-.085.049a.39.39 0 0 1-.199-.14c-.305-.422-.672-.801-.916-1.266.043-.015.085-.033.128-.049.177.208.355.416.532.627.128.235.29.443.489.623.015.052.033.104.048.159l.004-.003zM31.081 21.693l.092.082c-.14.575-.468 1.07-.721 1.592-.019.04-.067.067-.101.104 0-.043-.006-.085-.01-.128.02-.095.034-.186.053-.281.1-.101.134-.236.201-.355.184-.326.254-.709.486-1.014z" fill="#E2A632"/><path d="M32.083 14.8h.193c.018.437.036.874.051 1.311a.679.679 0 0 1-.04.303c-.054 0-.11 0-.161-.004l-.01-.653c.034-.321-.036-.636-.04-.954h.01l-.003-.003z" fill="#EFC13C"/><path d="m13.874 31.403-.046.119a4.885 4.885 0 0 1-1.53-.33l.17-.052c.48.024.941.137 1.403.263h.003zM7.84 2.741c.055.016.113.03.168.05-.306.216-.617.43-.92.656a.408.408 0 0 1-.363.083c.32-.333.7-.584 1.112-.789h.003zM23.443 29.988c.015.043.034.086.049.128-.388.233-.8.413-1.235.541a6.337 6.337 0 0 0-.045-.125l.782-.376c.14-.082.293-.125.449-.168zM8.295 29.331c-.015.043-.028.086-.043.125-.4-.186-.77-.418-1.078-.742 0-.03 0-.058.003-.089.107.006.19.064.278.12.223.14.449.28.672.418l.165.165.003.003zM32.126 16.407c.055 0 .11 0 .162.003 0 .456.006.911-.086 1.36-.055-.04-.11-.082-.162-.122.037-.413.092-.825.086-1.24z" fill="#E7B036"/><path d="M22.215 30.532c.015.043.03.085.046.125-.376.223-.795.32-1.207.443.006-.091.024-.192.122-.217.357-.091.675-.29 1.042-.351h-.003z" fill="#EFC43D"/><path d="M27.326 27.269c.015.043.03.089.046.131-.018.086-.08.144-.14.196-.227.183-.456.363-.685.547l-.046-.132c.128-.214.397-.296.504-.531l.321-.211z" fill="#EBB839"/><path d="M18.83 31.595c0-.052-.004-.104-.007-.156.293-.122.608-.122.917-.15.073-.006.143.037.198.095-.357.132-.736.16-1.109.211z" fill="#F4D042"/><path d="m1.317 11.498-.043.04c.015-.013.028-.028.043-.04z" fill="#D78D29"/><path d="M12.838.56s-.03.024-.046.034c.016-.013.031-.025.046-.034z" fill="#EBB839"/><path d="M28.026 7.083c.43.593.83 1.204 1.194 1.84.037.063.086.121.129.182.207.49.412.978.666 1.442.155.471.311.938.47 1.409.312 1.188.498 2.398.569 3.627V15.79c-.031.688-.059 1.378-.126 2.063-.113.534-.168 1.078-.302 1.61-.101.327-.199.657-.3.983-.226.737-.559 1.433-.861 2.14-.324.485-.602.998-.895 1.502-.389.501-.776 1.005-1.165 1.507l-.103.1c-.773.782-1.552 1.55-2.463 2.182a14.59 14.59 0 0 1-6.431 2.502 4.967 4.967 0 0 1-.223.034c-.791.085-1.583.091-2.377.085a16.263 16.263 0 0 1-2.487-.33c-.587-.122-1.149-.324-1.723-.476l-1.082-.44-1.442-.746c-.724-.397-1.366-.913-2.001-1.433-.407-.333-.785-.706-1.173-1.06l-.734-.819-.889-1.228c-.36-.605-.736-1.204-1.023-1.851-.07-.16-.107-.342-.239-.47L2.64 20.62c-.098-.391-.202-.78-.34-1.158-.21-1.009-.37-2.023-.412-3.053 0-.027 0-.058-.003-.085v-.034c0-.302.003-.608.006-.91l.128-1.405c.117-.606.211-1.214.358-1.812.159-.465.305-.938.48-1.397.213-.562.436-1.12.754-1.637.019-.028.022-.064.034-.098.32-.544.63-1.097 1.033-1.589a1.97 1.97 0 0 0 .305-.464c.458-.486.88-1 1.363-1.464 1.756-1.695 3.816-2.86 6.162-3.531.63-.18 1.271-.29 1.91-.434.687-.037 1.368-.144 2.059-.132a17.74 17.74 0 0 1 2.053.147c1.222.162 2.383.529 3.529.962.571.251 1.124.538 1.677.82.293.189.59.375.88.568.67.443 1.277.965 1.891 1.478l.82.834c.2.315.451.587.705.856h-.006zm2.117 4.497c-.021-.235-.116-.449-.214-.66-.049-.266-.214-.489-.296-.742-.16-.443-.413-.837-.654-1.24a3.588 3.588 0 0 0-.574-.95 1.89 1.89 0 0 0-.41-.581 5.135 5.135 0 0 0-.77-.954c-.165-.183-.293-.397-.498-.54-.177-.211-.36-.416-.593-.569a2.373 2.373 0 0 0-.577-.498 5.874 5.874 0 0 0-1.14-.834c-.265-.226-.574-.382-.88-.544-.311-.238-.69-.342-1.032-.522-.437-.223-.883-.422-1.363-.538-.201-.116-.434-.14-.65-.217-.62-.22-1.265-.323-1.913-.403-.474-.134-.96-.147-1.445-.159-.275 0-.547-.006-.822-.009-.33.006-.663-.03-.993.043-.364 0-.724.036-1.076.131-.418.058-.84.098-1.237.25-.296.077-.599.144-.892.236-1.702.52-3.236 1.353-4.626 2.456-.516.41-1.017.838-1.439 1.35-.32.3-.62.618-.85.994-.231.217-.408.476-.573.742-.208.284-.4.578-.55.898-.165.214-.309.44-.367.712-.296.416-.474.89-.642 1.366-.299.66-.498 1.35-.629 2.062-.098.367-.199.734-.205 1.116-.06.311-.113.626-.094.947-.074.357-.046.714-.037 1.075-.01.333-.037.666.021 1 .019.445.05.888.165 1.322.01.266.074.523.147.776.015.23.067.452.165.66.11.532.296 1.042.522 1.534.086.32.233.614.395.898.168.391.357.773.608 1.121.085.217.216.407.366.584.11.247.284.455.455.66.263.39.553.76.902 1.081.107.18.256.321.421.446.184.217.37.431.62.575.358.394.783.705 1.229.993.25.226.537.394.83.55.24.186.505.32.78.443.238.146.486.28.755.37.287.161.59.287.907.375.348.156.7.3 1.078.358.318.134.654.195.99.253.856.205 1.723.315 2.606.318.495.006.993.043 1.485-.037.171.019.343-.018.51-.04.663-.085 1.33-.161 1.968-.372a.757.757 0 0 0 .083-.012c1.203-.272 2.325-.752 3.4-1.35 1.259-.7 2.398-1.556 3.355-2.638a10.892 10.892 0 0 0 1.466-1.817c.342-.413.608-.871.828-1.357.44-.74.77-1.527.993-2.359.171-.354.257-.733.318-1.118.153-.498.223-1.014.281-1.527.043-.468.122-.932.085-1.403.07-.302-.009-.605-.002-.907.027-.278-.025-.55-.043-.825-.104-.465-.058-.953-.236-1.403a2.892 2.892 0 0 0-.21-.907c-.01-.238-.15-.437-.205-.66l.003-.003z" fill="#8D6020"/><path d="M14.408 1.55c-.635.143-1.28.253-1.91.434-2.342.672-4.402 1.836-6.162 3.531-.48.465-.904.978-1.362 1.464-.171-.116.012-.208.021-.315.29-.21.477-.513.7-.782.315-.296.632-.59.944-.889.049-.046.122-.092.085-.171-.033-.076-.119-.052-.183-.058-.235-.015-.464.024-.696.055-.074.009-.16.04-.202-.049-.037-.076.027-.128.073-.177.29-.29.617-.544.941-.795.058-.045.122-.048.193-.055.403-.033.806-.064 1.21-.11.232-.024.461-.079.663-.204.718-.452 1.494-.782 2.254-1.149.4-.12.789-.278 1.192-.397a17.43 17.43 0 0 1 1.967-.443c.114-.019.205 0 .266.104l.006.006z" fill="#FADC46"/><path d="M22.05 2.527c-1.146-.433-2.307-.8-3.53-.962a17.74 17.74 0 0 0-2.052-.147c.076-.11.192-.113.308-.116.217-.006.431-.006.648-.012.859.058 1.705.177 2.539.391.073.018.15.022.223.034.03.036.067.067.116.076.575.113 1.115.333 1.662.535l.083.046v.152l.003.003z" fill="#DB982D"/><path d="M18.414 30.38a14.59 14.59 0 0 0 6.431-2.503c.91-.633 1.69-1.4 2.463-2.182l.104-.1c0 .049 0 .094.003.143-.101.232-.343.355-.456.578l-1.283 1.155c-.272.177-.534.37-.782.58a5.087 5.087 0 0 0-.617.373c-.046.03-.101.06-.086.128.019.08.092.08.15.076.21-.015.422-.04.632-.058.156-.012.315-.015.471-.021.113-.003.186.04.19.162-.2-.01-.318.144-.465.238-.208.132-.391.303-.648.342-.473-.03-.94.08-1.411.083-.663 0-1.24.312-1.858.474-.03.009-.052.04-.08.06l-1.197.37c-.522.083-1.036.226-1.567.254v-.153h.006z" fill="#E8B337"/><path d="M19.981 30.281c.4-.122.798-.247 1.198-.37a.341.341 0 0 0 .198.037c.395-.033.789-.073 1.186-.104.351-.027.703-.125 1.057-.015-.058.052-.116.104-.177.156a1.81 1.81 0 0 0-.45.168c-.051-.085-.137-.085-.22-.076-.638.058-1.28.125-1.918.18-.29.024-.58.061-.874.021v.003z" fill="#F4D042"/><path d="M11.604 29.695c.577.152 1.14.354 1.723.476.822.171 1.65.285 2.487.327 0 .05 0 .098-.003.147-.428.034-.853-.055-1.277-.07-.346-.107-.712-.123-1.064-.208a59.576 59.576 0 0 0-.714-.168c-.373-.11-.743-.223-1.116-.333l-.036-.171z" fill="#D78D29"/><path d="M15.81 30.648c0-.049 0-.098.004-.147.794.003 1.586 0 2.377-.085.073-.01.15-.022.223-.034v.153c-.3.08-.608.076-.914.104-.504.043-1.008.073-1.515.055a.331.331 0 0 1-.177-.043l.003-.003z" fill="#E2A632"/><path d="M32.126 16.407c.006.416-.049.828-.086 1.24-.308.108-.629.086-.947.08.07-.605.15-1.21.113-1.82.003-.04.01-.077.012-.117.3-.009.602.019.899-.04l.009.654v.003z" fill="#D78D29"/><path d="M30.424 11.082c.226-.107.468-.082.706-.076.128 0 .205.082.241.192.074.226.144.455.202.688.034.14-.027.235-.174.275-.19.052-.379.04-.572.03-.177-.009-.125-.214-.232-.28-.012-.08-.015-.163-.036-.24-.055-.195-.144-.378-.135-.586v-.003z" fill="#FADC46"/><path d="m31.173 14.883-.083-.99c.303-.025.605-.027.905-.083-.016.26.067.51.085.767.006.074.025.147 0 .223h-.009a3.188 3.188 0 0 0-.901.083h.003z" fill="#E7B036"/><path d="M31.173 14.883c.296-.07.598-.1.9-.083.004.318.074.633.04.954-.296.058-.598.03-.898.04.01-.306-.067-.606-.042-.911z" fill="#E2A632"/><path d="M31.998 13.81c-.3.058-.602.058-.905.083-.073-.165-.088-.345-.113-.52-.024-.17.052-.277.23-.302.134-.018.271-.027.409-.037.15-.009.229.08.26.211.045.187.082.376.122.562l-.003.003z" fill="#EFC43D"/><path d="M31.203 15.906c.037.611-.043 1.216-.113 1.821-.024.08-.076.12-.159.126.068-.688.092-1.375.126-2.063.04.052.076.107.146.116z" fill="#E8B337"/><path d="M30.015 10.547c-.257-.464-.461-.953-.666-1.442h.091c.12.058.165.171.208.285.037.094.074.189.16.253.073.232.143.464.293.66.012.083.02.162.033.244h-.12z" fill="#E2A632"/><path d="M30.015 10.547h.119l.287.538c-.009.208.083.394.135.587.021.076.024.159.036.238-.036.015-.073.03-.107.046-.155-.47-.311-.938-.47-1.409z" fill="#EBB839"/><path d="M1.195 12.613c.045-.214.076-.43.146-.639.046-.131.122-.214.263-.22.244-.015.489-.073.736-.045-.033.146-.07.296-.104.443-.055.122-.036.268-.128.378-.308-.015-.608.052-.913.083z" fill="#EFC13C"/><path d="M2.597 10.877c-.309-.073-.605.052-.91.04 0-.244.128-.443.244-.644.049-.086.144-.126.244-.132.171-.015.343-.027.51-.037.16-.009.22.074.169.217-.07.193-.135.388-.257.56v-.004z" fill="#DE9E30"/><path d="M2.108 12.53c.089-.11.073-.256.128-.378.046 0 .092.006.141.009-.147.598-.241 1.206-.357 1.811l-.12-.042c-.027-.18.03-.355.046-.532.077-.284.14-.574.162-.87v.002z" fill="#E2A632"/><path d="M26.501 5.39c-.614-.513-1.225-1.032-1.891-1.479-.29-.192-.587-.378-.88-.568l.015-.107c.462.11.914-.04 1.372-.046.076 0 .128-.045.153-.119.195.08.339.23.504.352.037.027.088.055.073.113-.018.067-.08.064-.134.07a59.76 59.76 0 0 0-.733.086c-.132.018-.19.094-.068.183.36.26.663.593 1.058.806.168.248.443.385.623.618-.03.027-.058.058-.089.085l-.003.006z" fill="#F4D042"/><path d="m23.742 3.24-.015.106c-.556-.28-1.11-.568-1.677-.819v-.152c.583.195 1.124.48 1.646.8.022.012.034.043.05.064h-.004z" fill="#EBB839"/><path d="M28.026 7.083c-.254-.269-.504-.544-.706-.856.086-.067.046-.128-.015-.183a.471.471 0 0 1-.144-.238c.049-.135.165-.129.275-.125.235.006.468.003.678-.126.165.126.306.272.41.452.1.178.076.23-.122.25-.156.02-.315.022-.468.05-.226.04-.241.113-.113.3.11.161.302.265.336.476h-.131z" fill="#DE9E30"/><path d="M1.943 13.398c-.015.177-.07.351-.046.532-.116.388-.137.788-.134 1.191-.223.006-.443.058-.67.052-.164-.006-.235-.073-.232-.235.003-.128 0-.26 0-.388.025-.376.08-.746.168-1.112.095-.01.187-.028.282-.025.213.003.421-.107.635-.012l-.003-.003z" fill="#FADC46"/><path d="M.904 17.526c-.079-.27-.015-.553-.079-.825l.904-.083c-.009.278.034.553.08.825l-.905.083z" fill="#E7B036"/><path d="M1.809 17.443a4.148 4.148 0 0 1-.08-.825c.01-.104.058-.177.162-.207.043 1.03.202 2.043.413 3.052-.04 0-.08 0-.12.003-.13-.333-.18-.685-.253-1.03-.028-.333-.128-.657-.122-.993z" fill="#F4D042"/><path d="M1.763 15.124c0-.403.018-.803.134-1.191.04.015.08.027.12.043l-.129 1.405c-.125-.046-.11-.156-.125-.254v-.003z" fill="#E8B337"/><path d="M1.885 16.288s.003.022 0 .034c0-.012-.003-.021 0-.034z" fill="#F4D042"/><path d="M27.161 5.803a.48.48 0 0 0 .144.238c.058.058.1.116.015.183l-.822-.834c.03-.027.058-.058.089-.085.201.156.351.37.571.498h.003z" fill="#EFC13C"/><path d="M3.96 25.326c-.178-.208-.355-.416-.532-.627-.171-.37-.4-.705-.599-1.06-.125-.226-.092-.29.171-.296.214 0 .425-.037.633-.086l.491.706c.23.446.572.816.847 1.231-.324.147-.672.098-1.012.132z" fill="#FADC46"/><path d="m2.643 20.62.376 1.024c-.083.138-.013.275 0 .413-.165-.046-.327-.013-.49.021a.968.968 0 0 1-.467-.01c-.14-.338-.314-.665-.37-1.035.169 0 .34.006.508-.012.318-.034.348-.083.314-.397h.129v-.003z" fill="#E2A632"/><path d="M3.016 22.057c-.01-.138-.08-.275 0-.413.134.129.168.312.238.47.287.648.663 1.244 1.024 1.852h-.156c-.165-.235-.327-.47-.492-.706-.187-.412-.367-.825-.617-1.203h.003z" fill="#D78D29"/><path d="M11.64 29.866c.373.11.743.223 1.115.333-.122.128-.293.104-.44.119-.46.049-.919.122-1.383.128-.052 0-.104.025-.16.037-.335-.095-.668-.192-.95-.413.046-.058.11-.076.18-.082l1.638-.128v.006z" fill="#EBB839"/><path d="M31.872 18.763c-.06.232-.079.477-.168.703-.317-.015-.629.03-.94.082 0-.015-.004-.027-.007-.042l.147-.538c.037-.132.116-.226.254-.235.238-.016.48-.043.714.027v.003z" fill="#E7B036"/><path d="m30.757 19.509.006.042c-.018.074-.036.147-.058.22l-.412 1.378c-.052.104-.101.211-.153.315-.192.394-.318.822-.58 1.18a.884.884 0 0 1-.09-.059c.303-.709.633-1.402.863-2.139.1-.326.198-.656.299-.983l.128.046h-.003z" fill="#D78D29"/><path d="M1.943 13.398c-.214-.095-.424.018-.635.012-.095 0-.187.015-.281.025.036-.278.067-.56.168-.825.302-.034.605-.098.913-.083a4.702 4.702 0 0 1-.162.871h-.003z" fill="#F4D042"/><path d="M1.931 18.436c.07.345.12.7.254 1.03-.03.26.128.489.131.742-.284.07-.574.095-.865.12a7.086 7.086 0 0 1-.397-1.816c.29-.048.58-.088.877-.076z" fill="#D78D29"/><path d="M1.93 18.436a4.217 4.217 0 0 0-.876.076c-.122-.317-.131-.653-.15-.99l.905-.082c-.006.336.094.66.122.993v.003z" fill="#E2A632"/><path d="M1.451 20.327c.29-.024.58-.049.865-.119.116.113.125.281.198.416.034.314 0 .363-.314.397-.168.018-.34.009-.507.012a2.125 2.125 0 0 1-.242-.706z" fill="#DE9E30"/><path d="M8.13 29.166c-.223-.14-.45-.278-.672-.418-.086-.055-.171-.113-.278-.12-.052-.155-.208-.21-.312-.314-.113-.113-.104-.184.049-.232.195-.062.403-.052.608-.068.122-.009.244-.012.363-.049.382.202.712.486 1.106.666.12.147.318.172.456.288-.05.04-.101.076-.165.073-.294-.006-.578.089-.871.092-.104 0-.205.009-.287.082h.003z" fill="#D78D29"/><path d="M5.814 27.354c-.315-.165-.528-.433-.745-.702.388-.006.77-.107 1.16-.086.05.046.101.092.147.14.165.18.4.29.52.514-.36.046-.721.092-1.085.134h.003z" fill="#E7B036"/><path d="M6.899 27.22c-.12-.223-.355-.333-.52-.513-.046-.05-.098-.095-.146-.14-.05-.056-.092-.117-.147-.166-.113-.104-.205-.217-.18-.385.39.355.766.727 1.173 1.06.635.52 1.277 1.036 2.001 1.433a.202.202 0 0 1-.082.122c-.395-.18-.725-.467-1.106-.666-.324-.256-.64-.525-.993-.745z" fill="#F4D042"/><path d="M27.415 25.741c0-.049 0-.095-.003-.143l1.164-1.507c.04.013.08.028.119.04-.037.12-.12.21-.183.318-.052.082-.166.153-.095.266.067.107.18.058.28.052.22-.019.444-.104.667-.013-.12.327-.351.578-.584.825-.03-.052-.076-.08-.134-.073-.416.052-.85-.006-1.228.235h-.003z" fill="#E2A632"/><path d="M30.394 23.062c-.019.095-.034.186-.052.28-.101.031-.156.108-.19.2-.095.25-.278.37-.544.39-.238.019-.47.07-.705-.012l.492-.867c.082.049.17.045.26.042.247-.009.494-.021.739-.033z" fill="#EFC43D"/><path d="m29.391 23.053-.491.867c-.068.07-.138.138-.205.208-.04-.012-.08-.027-.12-.04.294-.504.572-1.017.896-1.503.03.018.061.037.088.058-.003.16-.13.266-.168.41zM24.894 28.051c.248-.21.51-.403.782-.58.15.152.337.076.508.067.275-.016.543-.067.822-.061-.108.235-.376.317-.505.531-.397.01-.788.061-1.179.107-.147.019-.3.061-.425-.064h-.003z" fill="#DE9E30"/><path d="M27.005 27.477c-.275-.006-.547.049-.822.06-.17.01-.354.086-.507-.066l1.284-1.155c.271.018.54-.025.81-.058.137-.019.256-.003.35.103-.265.303-.531.602-.794.905l-.32.21z" fill="#D78D29"/><path d="M28.12 26.364c-.094-.11-.216-.122-.35-.103-.27.036-.539.076-.81.058.113-.223.354-.346.455-.578.379-.241.812-.183 1.228-.235.061-.006.104.021.134.073-.192.284-.394.563-.657.788v-.003z" fill="#DE9E30"/><path d="m11.64 29.866-1.637.128c-.07.006-.135.025-.18.083-.358-.126-.725-.242-1-.526a.273.273 0 0 1 .175-.052c.342.016.675-.08 1.014-.085a.25.25 0 0 0 .223-.123c.098 0 .196.01.287-.036l1.082.44.036.17z" fill="#E2A632"/><path d="M10.235 29.291a.263.263 0 0 1-.223.123c-.34.009-.672.1-1.014.085a.3.3 0 0 0-.175.052c-.192-.034-.345-.165-.528-.22l-.165-.165c.082-.073.183-.082.287-.082.293 0 .578-.098.87-.092.062 0 .117-.034.166-.073.26.125.522.247.782.372z" fill="#DB982D"/><path d="M29.391 23.053c.04-.144.165-.25.168-.41.263-.36.388-.785.58-1.18.053-.103.102-.21.154-.314.11.012.217 0 .323-.012.193-.018.392-.076.581.027-.04.178-.08.355-.116.535-.232.306-.303.684-.486 1.014-.067.12-.1.254-.201.355-.248.012-.495.024-.74.034-.088.003-.18.006-.26-.043l-.003-.006z" fill="#FADC46"/><path d="M31.197 21.161c-.19-.104-.385-.045-.58-.027-.11.012-.217.027-.324.012l.412-1.378c.022-.073.04-.146.058-.22.312-.052.623-.098.941-.082-.131.577-.229 1.164-.507 1.695z" fill="#EFC13C"/><path d="M23.62 29.832c-.354-.11-.706-.012-1.057.015-.394.031-.791.068-1.185.104a.341.341 0 0 1-.199-.036c.027-.022.049-.055.08-.061.617-.165 1.194-.474 1.857-.474.47 0 .938-.113 1.412-.082-.266.24-.547.455-.908.54v-.006z" fill="#EFC43D"/><path d="M5.903 26.016c-.025.168.067.281.18.385.055.049.098.11.147.165-.391-.021-.773.083-1.161.086-.19-.18-.38-.364-.572-.544l-.049-.159a4.74 4.74 0 0 0 .78-.067c.216-.034.238-.122.097-.284-.107-.123-.229-.239-.29-.395.046 0 .092-.006.135-.006l.733.82z" fill="#EFC13C"/><path d="M5.035 25.203c.061.156.183.272.29.395.14.162.12.25-.098.284-.256.04-.516.073-.779.067a2.36 2.36 0 0 1-.489-.623c.34-.034.688.018 1.012-.132.021 0 .043.003.064.006v.003z" fill="#F4D042"/><path d="M30.15 20.337a9.472 9.472 0 0 1-.994 2.358c-.08-.058-.156-.03-.229.015-.095.058-.19.113-.284.168-1.473.844-2.951 1.675-4.418 2.533-1.442.843-2.887 1.68-4.335 2.509-1.216.696-2.426 1.405-3.64 2.105-.115.067-.195.15-.189.293-.88 0-1.747-.11-2.606-.318a.263.263 0 0 1 .129-.128c.81-.477 1.64-.92 2.444-1.412.736-.452 1.5-.867 2.248-1.301.862-.501 1.718-1.011 2.582-1.51 1.323-.76 2.65-1.512 3.972-2.273.642-.37 1.271-.766 1.919-1.124.59-.327 1.17-.666 1.753-1.002.364-.208.718-.434 1.088-.63.183-.097.327-.287.562-.28l-.003-.003z" fill="#D78D29"/><path d="M18.579 1.788c.65.08 1.292.183 1.912.403-.339.248-.718.431-1.078.642-1.045.608-2.09 1.219-3.132 1.827-.452.263-.907.52-1.356.785-.116.067-.254.122-.272.287-.715.172-1.433.327-2.114.618-1.384.59-2.619 1.387-3.645 2.499-.27.293-.483.635-.798.886-.064-.05-.128-.034-.192 0-.287.159-.584.305-.865.48-1.27.79-2.578 1.524-3.877 2.27-.235.134-.455.311-.73.372a8.7 8.7 0 0 1 .63-2.062.654.654 0 0 0 .268-.1c.513-.294 1.03-.584 1.54-.88 1.647-.957 3.29-1.92 4.94-2.873 1.94-1.121 3.887-2.233 5.83-3.351.864-.498 1.726-1 2.584-1.504.132-.076.294-.134.352-.299h.003z" fill="#DC9A2E"/><path d="M18.579 1.788c-.061.168-.22.223-.351.3-.859.504-1.724 1.005-2.585 1.503-1.943 1.118-3.89 2.23-5.83 3.351-1.65.954-3.293 1.916-4.94 2.872-.51.297-1.026.59-1.54.88a.653.653 0 0 1-.269.1c.168-.476.346-.95.642-1.365.15-.006.275-.082.4-.156 1.409-.815 2.817-1.634 4.226-2.45l4.103-2.37c1.482-.856 2.96-1.715 4.44-2.573.103-.061.222-.113.259-.25.486.011.974.024 1.445.158z" fill="#D78D29"/><path d="M30.15 20.337c-.236-.007-.377.183-.563.28-.37.193-.724.42-1.088.63-.583.336-1.164.675-1.753 1.002-.651.36-1.277.755-1.919 1.124-1.323.761-2.649 1.513-3.972 2.274-.864.498-1.72 1.008-2.582 1.509-.748.434-1.509.85-2.248 1.301-.804.492-1.635.935-2.444 1.412-.055.034-.104.07-.129.128-.336-.06-.672-.119-.99-.253.08-.15.242-.174.37-.248 1.76-1.02 3.52-2.035 5.276-3.052.107-.061.223-.113.26-.25.107-.028.211-.059.318-.083a10.446 10.446 0 0 0 4.962-2.622c.351-.33.632-.72.98-1.053.19.009.343-.095.495-.184 1.65-.956 3.297-1.918 4.947-2.875.122-.07.238-.165.394-.162-.061.385-.15.764-.318 1.119l.003.003zM16.058 30.315c-.006-.144.077-.226.19-.293 1.213-.703 2.422-1.412 3.639-2.105a473.435 473.435 0 0 0 4.335-2.509c1.463-.858 2.945-1.69 4.418-2.533.095-.055.19-.11.284-.168.076-.046.15-.073.229-.015-.22.486-.489.944-.828 1.357a.842.842 0 0 0-.37.122l-1.176.681c-.794.462-1.58.938-2.383 1.387-1.234.688-2.45 1.406-3.675 2.114-.868.502-1.736 1.006-2.597 1.516-.205.122-.431.214-.584.406-.495.077-.99.04-1.485.037l.003.003z" fill="#DB982D"/><path d="M17.546 30.278c.153-.195.382-.287.584-.406.861-.51 1.729-1.014 2.597-1.515 1.222-.71 2.44-1.427 3.675-2.115.804-.446 1.589-.925 2.383-1.387.391-.226.782-.455 1.177-.681a.828.828 0 0 1 .37-.122 11.05 11.05 0 0 1-1.467 1.817c-.223-.015-.358.16-.532.245-.803.403-1.561.889-2.346 1.326-.575.32-1.119.694-1.696 1.005-.67.36-1.32.758-1.98 1.137-.122.07-.232.15-.28.287-.64.21-1.305.287-1.968.373-.169.021-.337.058-.51.04l-.007-.004zM30.47 19.218c-.156-.006-.272.089-.394.162-1.65.957-3.297 1.916-4.947 2.875-.152.089-.305.19-.495.184.468-.697.969-1.375 1.311-2.148.315-.019.547-.22.795-.37.705-.425 1.439-.804 2.138-1.24.459-.288.969-.48 1.406-.804.14-.104.29-.183.47-.186-.06.516-.128 1.03-.28 1.527h-.004z" fill="#E2A632"/><path d="M21.142 2.411c.48.113.926.312 1.363.538-.046.03-.089.067-.135.095-.482.272-.95.571-1.445.825-.345.177-.657.421-1.002.595-.507.257-.965.593-1.479.838-.162.076-.348.177-.406.385a20.064 20.064 0 0 0-2.184-.098c.033-.208.216-.275.366-.36.727-.42 1.467-.82 2.188-1.247a71.261 71.261 0 0 1 2.737-1.57h-.003z" fill="#E8B337"/><path d="M8.115 27.645c-.443-.287-.87-.6-1.228-.993.052-.086.137-.129.223-.178.971-.568 1.943-1.136 2.911-1.707.162-.095.321-.184.504-.226.486.229.93.543 1.403.794 0 .116-.049.19-.15.247-.825.47-1.64.95-2.468 1.415-.395.22-.761.498-1.195.648z" fill="#FADC46"/><path d="M15.32 1.663c.326-.07.66-.037.992-.043a.362.362 0 0 1-.18.217c-1.296.752-2.591 1.506-3.89 2.255-1.652.956-3.308 1.91-4.964 2.866-.987.57-1.974 1.145-2.96 1.717-.077.042-.15.11-.245.042.15-.32.342-.614.55-.898.11.055.201-.006.29-.055 1.338-.773 2.68-1.543 4.018-2.319 1.155-.669 2.297-1.356 3.461-2.007.926-.516 1.83-1.066 2.747-1.592.076-.046.159-.085.183-.183h-.003zM3.12 21.29a7.386 7.386 0 0 1-.523-1.534.67.67 0 0 0 .29-.098c.84-.492 1.677-.987 2.524-1.466.256-.147.483-.373.81-.382.091.535.256 1.048.397 1.57-.028.01-.055.015-.077.028-.88.48-1.738.999-2.603 1.506-.26.15-.504.34-.819.376z" fill="#E7B036"/><path d="M24.417 4.015c.413.233.795.51 1.14.834-.015.129-.12.178-.214.233-.953.556-1.928 1.081-2.869 1.662-.204.125-.406.256-.648.302-.449-.223-.898-.449-1.35-.672.012-.116.107-.153.19-.202.387-.235.779-.464 1.176-.684.864-.48 1.717-.98 2.575-1.476v.003z" fill="#FADC46"/><path d="M4.073 8.72c.094.068.17 0 .244-.042l2.96-1.717c1.654-.957 3.31-1.91 4.965-2.866l3.89-2.255a.355.355 0 0 0 .18-.217c.275 0 .547.006.822.01-.034.137-.153.189-.26.25-1.479.858-2.96 1.717-4.44 2.572-1.368.792-2.737 1.58-4.102 2.371-1.409.816-2.817 1.635-4.226 2.45-.125.07-.247.15-.4.156.061-.269.202-.495.367-.712z" fill="#DE9E30"/><path d="M30.558 13.148c.175.452.132.94.236 1.402-.037.018-.077.034-.11.055-1.149.663-2.298 1.326-3.444 1.989-.119.067-.235.143-.381.143 0-.507 0-1.017.003-1.524.134-.086.262-.174.4-.254.825-.482 1.65-.968 2.478-1.442.26-.146.5-.345.819-.373v.004z" fill="#FADC46"/><path d="M30.751 17.688a.828.828 0 0 0-.47.186c-.437.324-.947.516-1.406.803-.7.437-1.433.813-2.139 1.241-.247.15-.48.354-.794.37.235-.523.403-1.07.58-1.61a.51.51 0 0 0 .276-.068c.956-.556 1.91-1.121 2.875-1.662.388-.217.748-.486 1.164-.66.033.47-.043.935-.086 1.403v-.003z" fill="#EBB839"/><path d="M2.285 18.317c-.116-.434-.143-.877-.165-1.323.083-.061.162-.128.25-.18.609-.349 1.217-.694 1.825-1.039.406-.23.819-.45 1.213-.697.229-.143.461-.268.712-.36-.055.507-.046 1.017-.055 1.524-.037.016-.077.031-.113.05-1.057.555-2.078 1.176-3.11 1.777-.175.101-.34.242-.56.245l.003.003z" fill="#FADC46"/><path d="M5.845 25.634a6.37 6.37 0 0 1-.902-1.081.453.453 0 0 1 .205-.196c.584-.333 1.158-.681 1.748-.999.495-.269.935-.63 1.457-.843.342.311.602.7.935 1.02a.764.764 0 0 1-.241.19c-.957.553-1.913 1.103-2.87 1.65-.125.073-.256.131-.335.262l.003-.003z" fill="#E8B337"/><path d="M18.371 26.193c-.033.138-.152.19-.26.251-1.76 1.017-3.52 2.035-5.276 3.052-.128.074-.29.098-.37.248-.378-.058-.733-.202-1.078-.358.061-.107.165-.165.266-.223l4.344-2.484c.135-.076.254-.165.309-.317.694.003 1.378-.08 2.065-.169z" fill="#E2A632"/><path d="M28.979 8.937c.241.4.495.798.654 1.24a.588.588 0 0 0-.266.102c-.474.278-.956.543-1.42.834-.584.363-1.22.632-1.773 1.045-.198-.425-.397-.853-.596-1.277.178-.153.395-.248.596-.364.623-.36 1.247-.721 1.87-1.079.308-.174.59-.403.938-.5h-.003z" fill="#DC9A2E"/><path d="M2.432 12.86c.275-.06.495-.238.73-.372 1.299-.746 2.606-1.48 3.877-2.27.278-.175.578-.321.865-.48.064-.037.128-.052.193 0l-.899 1.476a.537.537 0 0 0-.311.088c-.908.526-1.815 1.054-2.726 1.58-.641.37-1.286.733-1.93 1.1.006-.382.106-.749.204-1.116l-.003-.006z" fill="#E2A632"/><path d="M18.038 5.684c.058-.208.245-.309.407-.385.513-.245.971-.584 1.478-.838.346-.174.657-.418 1.003-.595.495-.254.962-.553 1.445-.825.049-.028.088-.061.134-.095.34.18.718.287 1.033.522-.18.22-.443.318-.678.453-1.045.608-2.096 1.206-3.144 1.808-.113.065-.23.135-.236.288-.48-.113-.959-.223-1.442-.337v.004z" fill="#EFC13C"/><path d="M27.228 6.453c.3.285.547.608.77.954a.902.902 0 0 1-.232.198c-.67.388-1.341.776-2.007 1.17-.385.227-.789.416-1.155.67-.315-.294-.58-.63-.868-.948.238-.137.477-.268.712-.409.923-.55 1.876-1.051 2.78-1.635z" fill="#E2A632"/><path d="M4.121 23.31a6.21 6.21 0 0 1-.608-1.122.602.602 0 0 0 .266-.1c.822-.471 1.647-.939 2.463-1.419.241-.14.5-.256.693-.47l.614 1.164c-.128.064-.262.12-.388.19-.574.32-1.148.641-1.72.971-.446.257-.883.523-1.326.785h.006z" fill="#D78D29"/><path d="M15.319 1.663c-.025.098-.104.14-.183.183-.917.529-1.824 1.076-2.747 1.592-1.164.65-2.307 1.338-3.462 2.007-1.338.776-2.68 1.546-4.017 2.32-.089.051-.178.11-.29.054.164-.269.345-.525.574-.742.15-.01.275-.089.4-.16a10057.399 10057.399 0 0 0 8.332-4.823c.125-.074.284-.123.317-.3a4.25 4.25 0 0 1 1.076-.131z" fill="#EFC13C"/><path d="M2.227 13.976c.645-.367 1.29-.73 1.931-1.1.91-.523 1.818-1.051 2.725-1.58a.595.595 0 0 1 .312-.089c-.232.407-.345.865-.559 1.277a.555.555 0 0 0-.33.095c-.202.128-.406.257-.614.376-.904.522-1.806 1.048-2.713 1.558-.272.153-.517.376-.85.403-.018-.32.034-.635.095-.947l.003.007z" fill="#EBB839"/><path d="M16.306 26.361c-.055.153-.174.242-.309.318l-4.344 2.484c-.101.058-.205.116-.266.223a4.065 4.065 0 0 1-.908-.376c.104-.183.3-.235.465-.327 1.231-.712 2.441-1.457 3.697-2.132.116-.064.22-.14.262-.275.471-.003.935.055 1.403.085z" fill="#E7B036"/><path d="M2.132 14.923c.334-.028.575-.25.85-.404.91-.51 1.812-1.035 2.713-1.558.208-.119.412-.247.614-.376a.55.55 0 0 1 .33-.094c-.113.4-.226.8-.342 1.203-.199.01-.367.11-.532.205-.852.498-1.699 1.002-2.554 1.494-.367.21-.712.464-1.115.608-.01-.357-.04-.718.036-1.075v-.003z" fill="#EFC43D"/><path d="M14.24 1.794c-.03.177-.192.226-.317.3-.8.467-1.604.931-2.408 1.396-1.973 1.143-3.947 2.288-5.924 3.428-.125.07-.247.15-.4.159.23-.38.528-.694.85-.993a.487.487 0 0 0 .231-.077L9.508 4.15c.507-.29 1.011-.584 1.518-.874.602-.345 1.201-.69 1.803-1.039.08-.046.15-.1.171-.195.4-.15.822-.193 1.238-.25l.003.002z" fill="#F4D042"/><path d="M28.98 8.937c-.35.098-.63.327-.939.501-.626.355-1.25.715-1.87 1.079-.201.116-.415.21-.595.364-.245-.297-.404-.648-.633-.954a.507.507 0 0 0 .257-.07l3.208-1.87c.238.287.434.602.574.95h-.003z" fill="#D78D29"/><path d="M19.48 6.02c.01-.153.122-.223.235-.288 1.048-.601 2.1-1.2 3.144-1.808.236-.138.498-.232.679-.452.305.161.614.317.88.543-.859.492-1.711.996-2.576 1.476-.397.22-.788.45-1.176.684-.083.05-.178.086-.19.202-.333-.12-.666-.235-.996-.354V6.02z" fill="#F4D042"/><path d="M30.84 16.285c-.416.174-.776.443-1.164.66-.966.54-1.92 1.106-2.875 1.662a.462.462 0 0 1-.275.067c.08-.357.159-.715.235-1.069.1 0 .186-.037.272-.085.214-.129.427-.248.641-.373.828-.48 1.653-.96 2.481-1.433.22-.125.422-.29.678-.336-.006.302.077.605.004.907h.003z" fill="#EFC43D"/><path d="M2.099 15.998c.403-.143.748-.397 1.115-.608.856-.489 1.702-.996 2.554-1.494.165-.095.333-.196.532-.205-.122.333-.067.694-.18 1.03-.25.092-.486.217-.712.36-.394.248-.807.465-1.213.697-.608.345-1.216.69-1.824 1.039-.089.052-.168.119-.25.18-.059-.333-.034-.666-.022-.999zM8.115 27.645c.434-.147.8-.428 1.194-.648.828-.461 1.647-.944 2.469-1.415.1-.058.153-.134.15-.247l1.045.418c-.083.16-.25.205-.388.29-.755.474-1.531.905-2.304 1.348-.452.26-.907.507-1.335.807-.297-.156-.584-.324-.831-.55v-.003z" fill="#F4D042"/><path d="M20.024 29.866c.052-.138.162-.217.281-.287.66-.38 1.31-.776 1.98-1.137.577-.312 1.121-.684 1.696-1.005.785-.437 1.542-.923 2.346-1.326.174-.089.309-.263.532-.245-.96 1.085-2.1 1.938-3.355 2.637-1.072.599-2.197 1.079-3.4 1.35-.028.007-.055.007-.083.013h.003z" fill="#E7B036"/><path d="M8.946 28.198c.428-.3.883-.547 1.335-.807.773-.443 1.549-.874 2.304-1.347.137-.086.305-.132.388-.29l.944.302c-.012.107-.086.168-.171.217-.798.467-1.601.929-2.393 1.408-.537.327-1.118.584-1.628.957a3.71 3.71 0 0 1-.78-.443v.003z" fill="#EFC43D"/><path d="M6.939 20.202c-.193.214-.453.33-.694.47-.819.477-1.64.945-2.463 1.418a.601.601 0 0 1-.265.101c-.162-.287-.312-.577-.394-.898.314-.037.559-.226.818-.376.868-.504 1.724-1.027 2.603-1.506.025-.013.052-.019.077-.028.125.266.229.541.32.819H6.94z" fill="#DE9E30"/><path d="M13.003 2.045c-.024.094-.094.15-.17.195-.603.345-1.201.69-1.803 1.039-.507.29-1.012.584-1.519.874-1.078.62-2.157 1.237-3.235 1.857a.43.43 0 0 1-.233.077c.422-.513.923-.941 1.44-1.35 1.39-1.104 2.926-1.938 4.625-2.457.293-.089.596-.156.892-.235h.003z" fill="#FADC46"/><path d="M30.559 13.148c-.318.027-.56.223-.82.372-.83.474-1.652.96-2.477 1.442-.137.08-.266.168-.4.254-.037-.318-.07-.636-.107-.953.116-.074.229-.15.348-.22.996-.58 1.995-1.161 2.991-1.745a.477.477 0 0 1 .257-.061c.116.293.192.593.21.907l-.002.004z" fill="#F4D042"/><path d="M9.725 28.64c.51-.375 1.088-.632 1.628-.956.792-.48 1.595-.94 2.393-1.408.085-.049.158-.11.17-.217.343.015.654.156.987.217-.04.137-.143.214-.262.275-1.253.672-2.466 1.42-3.697 2.132-.165.095-.36.147-.465.327a3.679 3.679 0 0 1-.754-.37z" fill="#EBB839"/><path d="M10.525 24.544a1.784 1.784 0 0 0-.504.226c-.968.571-1.94 1.14-2.911 1.708-.083.048-.168.091-.223.177-.251-.144-.437-.358-.62-.575.057-.08.143-.125.222-.177.957-.602 1.968-1.112 2.918-1.723a1.05 1.05 0 0 1 .434-.18c.217.195.516.287.684.544zM30.834 15.378c-.26.046-.462.21-.679.336-.83.473-1.656.956-2.48 1.433-.214.125-.431.244-.642.373a.485.485 0 0 1-.272.085c0-.293.052-.58.095-.868.143 0 .262-.076.382-.143 1.148-.663 2.297-1.326 3.443-1.99.037-.02.073-.036.11-.054.018.275.07.547.043.825v.003z" fill="#F4D042"/><path d="M21.142 2.411a73.701 73.701 0 0 0-2.737 1.57c-.721.428-1.46.829-2.188 1.247-.15.086-.333.15-.366.36-.4.05-.8.099-1.201.147.018-.165.156-.22.272-.287.449-.266.904-.522 1.356-.785 1.045-.608 2.087-1.219 3.132-1.827.36-.21.74-.394 1.078-.642.217.074.45.101.651.217h.003z" fill="#E2A632"/><path d="M2.285 18.317c.22-.003.385-.144.56-.244 1.032-.602 2.052-1.223 3.11-1.779.036-.018.076-.033.113-.049l.045.825a.445.445 0 0 0-.192.07c-.727.42-1.451.84-2.185 1.247-.43.239-.83.544-1.301.706a3.196 3.196 0 0 1-.147-.776h-.003z" fill="#F4D042"/><path d="M26.134 5.347c.233.153.416.358.593.569-.116.131-.272.207-.418.293-.945.562-1.916 1.079-2.848 1.662a.684.684 0 0 1-.302.12 4.852 4.852 0 0 1-.58-.453c.186-.156.402-.26.61-.379.908-.525 1.818-1.054 2.726-1.58.097-.054.186-.115.22-.232z" fill="#EFC43D"/><path d="M26.135 5.347c-.031.117-.123.178-.22.233-.91.525-1.818 1.05-2.726 1.58-.207.118-.427.222-.61.378a6.344 6.344 0 0 1-.752-.492c.241-.049.446-.177.647-.302.941-.58 1.913-1.106 2.87-1.662.094-.055.198-.104.213-.233.214.141.416.297.578.498z" fill="#F4D042"/><path d="M8.356 22.512c-.522.214-.962.577-1.457.843-.59.32-1.167.666-1.748 1a.452.452 0 0 0-.205.195c-.174-.205-.345-.41-.455-.66a.549.549 0 0 1 .202-.171c.813-.474 1.62-.95 2.435-1.418.247-.144.48-.324.76-.406.184.183.325.4.471.61l-.003.007z" fill="#E2A632"/><path d="M26.171 12.158c.553-.413 1.192-.682 1.772-1.045.468-.29.947-.556 1.42-.834a.601.601 0 0 1 .267-.101c.085.253.247.473.296.742a.584.584 0 0 0-.33.095c-.516.3-1.036.59-1.549.892-.54.32-1.106.602-1.631.953-.114-.223-.178-.464-.251-.702h.006z" fill="#E7B036"/><path d="M23.159 7.99a.67.67 0 0 0 .302-.119c.932-.583 1.904-1.1 2.848-1.662.146-.089.302-.162.418-.293.208.143.336.357.498.54-.904.584-1.857 1.085-2.78 1.635-.235.14-.474.275-.712.41-.229-.129-.403-.318-.577-.51h.003z" fill="#EBB839"/><path d="M30.348 12.24a.506.506 0 0 0-.257.061c-.996.58-1.995 1.161-2.991 1.745-.12.07-.232.146-.348.22-.074-.22-.101-.45-.138-.678.067-.11.174-.175.281-.236.93-.534 1.858-1.066 2.79-1.598.143-.082.284-.17.458-.17.052.225.196.42.205.66v-.004zM2.432 19.093c.474-.165.87-.468 1.302-.706.733-.406 1.457-.83 2.184-1.246a.488.488 0 0 1 .193-.07l.106.742c-.323.009-.55.235-.81.382-.845.476-1.683.974-2.523 1.466a.711.711 0 0 1-.29.098c-.098-.21-.15-.43-.165-.66l.003-.006z" fill="#EFC43D"/><path d="M30.143 11.58c-.174 0-.315.089-.458.171-.932.532-1.861 1.067-2.79 1.598-.107.061-.214.125-.28.235a3.47 3.47 0 0 1-.193-.724c.522-.351 1.087-.635 1.631-.953.513-.302 1.036-.593 1.55-.892a.577.577 0 0 1 .33-.095c.094.211.192.425.213.66h-.003z" fill="#EBB839"/><path d="m28.405 7.987-3.208 1.87a.506.506 0 0 1-.257.07 3.115 3.115 0 0 1-.34-.482c.367-.254.774-.443 1.156-.67.666-.394 1.338-.782 2.007-1.17a.852.852 0 0 0 .232-.198c.174.168.309.36.41.58zM7.886 21.9c-.281.083-.51.264-.761.407-.816.465-1.625.944-2.435 1.418a.521.521 0 0 0-.202.17 2.003 2.003 0 0 1-.366-.583c.443-.262.88-.528 1.326-.785.57-.327 1.145-.65 1.72-.972.125-.07.26-.128.388-.189.122.171.253.34.333.535h-.003z" fill="#DB982D"/><path d="M9.84 23.997a1.094 1.094 0 0 0-.433.18c-.953.611-1.962 1.121-2.918 1.723-.082.052-.165.098-.223.177a1.627 1.627 0 0 1-.422-.446c.08-.128.208-.19.337-.262.959-.547 1.915-1.097 2.868-1.65a.81.81 0 0 0 .242-.19c.217.116.385.29.55.468z" fill="#EFC43D"/><path d="M10.235 29.291c-.26-.125-.523-.247-.782-.372-.138-.116-.333-.144-.455-.288.042-.03.07-.07.082-.122l1.442.746c-.091.046-.19.033-.287.037z" fill="#E8B337"/><path d="M5.035 25.203c-.021 0-.043-.003-.064-.006-.275-.415-.617-.785-.846-1.23h.156l.889 1.227c-.046 0-.092.006-.135.006v.003z" fill="#DE9E30"/><path d="M2.514 20.624c-.073-.135-.082-.303-.198-.416 0-.253-.162-.483-.131-.742.04 0 .079 0 .119-.003.14.378.244.767.339 1.158h-.129v.003z" fill="#E8B337"/><path d="M9.84 23.997c-.167-.174-.332-.352-.55-.468-.332-.32-.592-.709-.934-1.02-.147-.211-.284-.428-.47-.611-.08-.199-.211-.364-.334-.535l-.614-1.164a7.219 7.219 0 0 0-.32-.819c-.141-.522-.309-1.035-.398-1.57-.036-.248-.07-.495-.107-.743l-.045-.825c.009-.51 0-1.017.055-1.524.11-.333.055-.697.18-1.03.113-.4.226-.8.342-1.204.21-.415.327-.873.56-1.277l.897-1.475c.315-.25.529-.596.798-.886 1.026-1.11 2.26-1.91 3.645-2.5.681-.29 1.4-.449 2.114-.617l1.2-.146c.73-.016 1.458.033 2.185.097.48.113.96.223 1.442.337.333.119.666.235.996.354.45.223.899.45 1.35.672.242.177.486.348.752.492.184.165.376.318.58.452.175.19.35.379.578.51.284.321.553.657.868.948.095.174.217.326.34.482.228.306.39.657.631.954.2.424.398.852.596 1.277.074.238.138.476.25.702.047.248.096.492.193.724.037.23.064.459.138.679.036.317.07.635.107.953 0 .507 0 1.017-.003 1.524-.043.288-.092.575-.095.868-.08.358-.159.715-.235 1.07-.18.54-.346 1.087-.58 1.61-.343.773-.844 1.45-1.312 2.147-.348.33-.629.725-.98 1.055a10.433 10.433 0 0 1-4.962 2.62c-.107.025-.21.056-.318.083-.684.089-1.371.171-2.065.168-.468-.033-.935-.091-1.402-.085-.33-.061-.645-.202-.987-.217-.315-.1-.63-.202-.944-.303-.349-.14-.697-.277-1.045-.418-.474-.25-.917-.565-1.403-.794-.168-.26-.467-.352-.684-.544l-.01-.003zm16.783-8.02A10.136 10.136 0 0 0 16.473 5.83c-5.624 0-10.16 4.55-10.16 10.183 0 5.527 4.603 10.101 10.155 10.095 5.597-.006 10.158-4.559 10.152-10.131h.003z" fill="#8D6020"/><path d="M26.623 15.98c.006 5.572-4.558 10.125-10.152 10.13-5.552.007-10.156-4.567-10.156-10.094 0-5.633 4.537-10.183 10.162-10.183a10.136 10.136 0 0 1 10.15 10.147h-.004zM8.176 20.948c-.034.079.009.13.082.174.08.046.16.113.165.201.016.388.38.535.562.807.08.12.178.275.315.342.269.125.416.358.56.587.112.177.247.308.448.372.358.117.547.471.886.611.006 0 .01.01.013.016.085.168.229.217.409.266.241.067.468.22.663.36.208.15.412.232.648.266.125.018.22.046.284.165.064.12.177.137.305.11.144-.03.29-.04.404.082.1.11.204.153.339.046.049-.04.122-.033.18-.012.21.076.413.162.642.208.238.049.473.11.715.091.204-.015.394.089.592.046a3.88 3.88 0 0 1 1.513-.046c.107.019.19 0 .235-.113.043-.113.143-.143.238-.1.205.091.367.033.535-.086a.686.686 0 0 1 .269-.104c.351-.067.687-.195 1.045-.238.07-.01.14-.015.192-.067.147-.153.355-.199.532-.3.113-.064.192-.198.33-.202.207-.006.336-.128.476-.253.22-.196.407-.446.734-.492a.295.295 0 0 0 .235-.186c.064-.193.195-.324.351-.446.113-.089.208-.199.293-.318.16-.211.474-.269.557-.556.003-.012.036-.015.052-.028.201-.18.442-.327.449-.647 0-.114.06-.202.162-.272.232-.16.406-.395.522-.636.104-.21.241-.437.19-.703-.016-.067.042-.107.097-.143.239-.15.431-.62.364-.895-.046-.193-.018-.358.146-.48a.278.278 0 0 0 .104-.33c-.11-.333.196-.608.116-.932 0-.006.006-.012.01-.018a.176.176 0 0 0 .015-.177c-.061-.138-.025-.263.012-.4.086-.315.187-.62.043-.963-.107-.257-.217-.544-.052-.834.03-.055-.01-.12-.024-.18-.062-.22-.172-.428-.086-.679.037-.107.003-.308-.1-.33-.248-.052-.178-.186-.148-.333.01-.049-.009-.11-.02-.162a2.41 2.41 0 0 0-.395-.834.93.93 0 0 1-.153-.397c-.06-.357-.119-.724-.5-.91-.038-.019-.08-.07-.083-.11-.019-.144-.03-.272-.226-.266-.055 0-.07-.073-.068-.134 0-.04.025-.104-.012-.117-.18-.048-.162-.195-.18-.326a.184.184 0 0 0-.101-.147c-.51-.241-.785-.749-1.213-1.085-.03-.024-.04-.07-.058-.107-.021-.052-.046-.119-.1-.125-.276-.018-.312-.437-.636-.373-.016.003-.055-.042-.064-.073-.068-.186-.22-.238-.392-.247a.372.372 0 0 1-.314-.169c-.037-.051-.086-.097-.147-.11-.339-.064-.556-.345-.85-.485-.213-.104-.448-.248-.665-.232-.223.015-.342-.07-.492-.175a.594.594 0 0 0-.226-.094 8.543 8.543 0 0 0-1.042-.144.738.738 0 0 1-.241-.049c-.34-.146-.722-.125-1.048-.07-.27.046-.505.107-.764.012a.162.162 0 0 0-.101 0c-.293.07-.602.11-.874.23-.272.118-.565-.044-.819.118-.226-.128-.348.034-.461.178-.1.125-.208.17-.357.113-.147-.055-.272-.01-.413.052-.318.134-.483.516-.874.531-.021 0-.046.03-.064.05a.692.692 0 0 1-.324.17c-.183.052-.406.058-.467.309-.006.027-.046.067-.07.067-.226.012-.324.18-.431.342-.064.098-.171.129-.275.171-.196.086-.41.15-.535.346-.14.216-.305.403-.535.531a.478.478 0 0 0-.226.263c-.14.428-.623.648-.678 1.127-.003.034-.052.064-.082.089-.27.205-.385.513-.459.81-.07.287-.256.51-.342.785-.043.137-.174.241-.098.41.028.06-.012.103-.064.133-.043.025-.082.055-.08.11.02.236-.222.42-.13.673.009.021-.034.058-.046.088-.083.211-.208.413-.141.657.01.04.024.101.003.12-.168.173-.01.375-.052.543-.088.348-.033.666.07.996.043.138-.033.306 0 .45.126.568.01 1.17.236 1.723.006.012.009.03.003.04-.074.176.042.299.15.393.097.086.11.165.079.27-.034.121-.022.231.098.308.152.098.204.244.214.421.02.343.13.645.44.844.07.045.128.106.094.216h-.018z" fill="#DE9E30"/><path d="M8.173 20.945c.033-.11-.022-.172-.095-.217-.309-.199-.419-.502-.44-.844-.01-.177-.061-.323-.214-.421-.119-.077-.131-.184-.098-.309.028-.107.016-.183-.079-.269-.107-.095-.223-.217-.15-.394.006-.012 0-.027-.003-.04-.226-.553-.107-1.154-.235-1.723-.03-.143.046-.311 0-.449-.104-.33-.159-.645-.07-.996.042-.168-.116-.37.052-.544.018-.021.006-.08-.003-.119-.068-.244.058-.446.14-.657.012-.03.052-.067.046-.088-.092-.25.147-.437.131-.672-.003-.055.037-.086.08-.11.052-.031.091-.074.064-.135-.076-.168.055-.272.098-.41.085-.274.272-.497.342-.784.073-.297.19-.605.458-.81.034-.025.08-.055.083-.089.055-.48.537-.7.678-1.127a.488.488 0 0 1 .226-.263c.23-.128.397-.312.535-.532.125-.195.339-.26.534-.345.101-.046.208-.076.275-.17.107-.16.202-.33.431-.343.025 0 .064-.04.07-.067.058-.25.281-.257.468-.309a.654.654 0 0 0 .324-.17c.018-.02.043-.05.064-.05.39-.012.553-.397.874-.531.14-.058.265-.107.412-.052.153.058.26.012.358-.113.116-.144.238-.306.46-.178.254-.162.548 0 .82-.119.272-.119.58-.159.873-.229.034-.01.07-.01.101 0 .26.092.498.03.764-.012.327-.055.709-.077 1.048.07a.74.74 0 0 0 .242.049c.35.021.696.076 1.041.144.08.015.162.048.226.094.15.104.27.193.492.174.217-.015.453.132.666.233.294.14.508.421.85.485.06.013.11.055.146.11.077.11.178.16.315.168.171.01.327.062.391.248.01.03.049.076.064.073.324-.064.36.355.636.373.052.003.076.073.1.125.016.037.028.086.059.107.427.336.702.843 1.213 1.085a.19.19 0 0 1 .1.146c.019.132 0 .278.18.327.037.01.016.077.013.117-.003.058.012.134.067.134.196-.006.21.125.226.266.006.04.046.091.083.11.382.186.44.553.5.91.025.147.071.275.154.397.18.257.32.529.394.834.012.052.03.11.021.162-.03.147-.1.281.147.333.107.022.137.223.1.33-.082.25.025.459.086.679.015.06.055.122.024.18-.165.29-.055.577.052.834.144.342.043.648-.042.962-.037.138-.074.263-.013.4a.176.176 0 0 1-.015.178c-.003.006-.012.012-.009.018.08.324-.226.599-.116.932.04.122.015.244-.104.33-.165.122-.192.287-.147.48.068.275-.125.745-.363.895-.055.037-.113.073-.098.143.055.266-.085.492-.19.703-.119.241-.29.474-.522.636-.1.07-.162.155-.162.271-.006.321-.247.471-.449.648-.015.012-.049.015-.052.028-.082.29-.397.345-.556.556a1.71 1.71 0 0 1-.293.318c-.153.122-.287.25-.352.446a.29.29 0 0 1-.235.186c-.327.046-.513.296-.733.492-.14.125-.269.247-.477.253-.137.003-.217.138-.33.202-.177.1-.382.15-.531.3-.05.052-.122.058-.193.067-.357.043-.693.17-1.045.238a.704.704 0 0 0-.268.104c-.169.12-.33.18-.535.085-.092-.042-.193-.012-.239.101-.042.113-.128.132-.235.113a3.822 3.822 0 0 0-1.512.046c-.199.046-.391-.06-.593-.046-.241.019-.476-.046-.715-.091-.229-.046-.43-.132-.641-.208-.058-.021-.132-.024-.18.012-.135.107-.239.061-.34-.046-.113-.122-.26-.113-.403-.082-.125.027-.241.012-.305-.11-.065-.12-.16-.15-.285-.165a1.39 1.39 0 0 1-.647-.266c-.196-.14-.422-.293-.663-.36-.178-.05-.324-.098-.41-.266 0-.006-.009-.012-.012-.015-.34-.141-.529-.499-.886-.612-.199-.064-.336-.195-.45-.372-.143-.23-.292-.462-.558-.587-.14-.064-.236-.22-.315-.342-.18-.272-.547-.416-.562-.807-.003-.088-.086-.155-.165-.201-.073-.043-.116-.098-.083-.174h.019zm8.127 2.068c1.237-.003 1.643-.08 2.704-.477.082-.03.17-.06.256-.073.193-.024.352-.113.504-.22.086-.058.18-.098.27-.147.262-.146.552-.275.76-.486.25-.253.544-.464.76-.754.328-.437.792-.752 1.049-1.259.232-.458.476-.929.586-1.411.116-.517.318-1.02.312-1.58-.006-.535.058-1.07-.03-1.6-.095-.57-.193-1.138-.422-1.675-.095-.223-.284-.379-.346-.627a1.885 1.885 0 0 0-.556-.947c-.317-.293-.55-.66-.867-.95-.425-.388-.785-.87-1.406-.987-.052-.009-.097-.049-.146-.073-.233-.128-.453-.309-.703-.379-.336-.095-.672-.202-1.011-.284-.782-.186-1.568-.306-2.362-.067-.027.009-.058.018-.08.012-.36-.125-.696.064-1.017.134-.767.168-1.427.618-2.108 1-.37.207-.617.565-.944.828-.37.296-.639.69-.932 1.06-.26.327-.385.73-.574 1.093-.147.285-.303.602-.342.941-.037.285-.095.566-.141.844-.064.394-.049.779-.064 1.17-.012.275-.061.556-.012.822.064.36.158.72.253 1.078.193.727.623 1.341.972 1.992.19.352.495.593.779.865.4.385.782.776 1.256 1.088.54.36 1.16.522 1.729.806.122.061.257.107.39.125.523.074 1.046.187 1.486.135l-.003.003z" fill="#E2A632"/><path d="M16.3 23.016c-.44.052-.96-.064-1.485-.134a1.272 1.272 0 0 1-.391-.126c-.568-.284-1.189-.446-1.73-.806-.47-.312-.852-.703-1.255-1.088-.284-.272-.59-.513-.78-.865-.35-.65-.778-1.268-.97-1.992a14.89 14.89 0 0 1-.254-1.078c-.05-.263 0-.547.012-.822.015-.388 0-.776.064-1.17.046-.281.107-.562.14-.844.043-.339.196-.653.343-.94.19-.364.311-.767.574-1.094.293-.37.562-.764.932-1.06.327-.263.574-.624.944-.828.681-.382 1.341-.831 2.108-1 .324-.07.66-.256 1.018-.134.024.01.055-.003.079-.012.794-.238 1.577-.12 2.362.067.342.083.675.19 1.011.284.25.07.47.248.703.38.049.027.094.063.146.072.617.117.978.6 1.406.987.317.29.55.657.867.95.275.251.468.584.557.948.06.247.25.403.345.626.232.538.327 1.106.421 1.674.089.532.025 1.07.03 1.601.007.56-.195 1.06-.31 1.58-.108.482-.355.953-.587 1.411-.26.51-.721.822-1.048 1.259-.217.29-.51.498-.761.755-.205.207-.498.336-.76.485-.09.05-.184.089-.27.147a1.134 1.134 0 0 1-.504.22 1.237 1.237 0 0 0-.256.073c-1.06.398-1.467.474-2.704.477l.003-.003zm.333-3.162c2.126-.064 3.724-1.723 3.74-3.893.015-2.169-1.733-3.889-3.936-3.883-2.175.006-3.895 1.852-3.856 3.877.043 2.163 1.644 3.969 4.052 3.896v.003z" fill="#E8B337"/><path d="M16.636 19.854c-2.405.07-4.009-1.732-4.052-3.896-.04-2.025 1.68-3.87 3.856-3.877 2.203-.006 3.954 1.711 3.935 3.883-.015 2.167-1.613 3.829-3.74 3.893v-.003zm-1.403-3.844c-.003.587.639 1.262 1.195 1.268.788.01 1.32-.791 1.32-1.265 0-.583-.62-1.31-1.13-1.286-.884.04-1.327.44-1.385 1.283z" fill="#EFC13C"/><path d="M15.233 16.01c.061-.843.502-1.243 1.384-1.283.51-.024 1.134.703 1.13 1.286 0 .474-.534 1.274-1.319 1.265-.56-.006-1.198-.681-1.195-1.268z" fill="#F4D042"/><path d="M27.605 11.764c-.657.893-.723 2.008-1.131 2.997-.186.448.305.713.48 1.042.499.935-.049 1.772-.656 1.908-1.079.239-1.152.863-1.069 1.62.133 1.22-.401 1.619-1.536 1.47-1.098-.147-2.247.288-3.315-.263.212-.491.654-.395 1.049-.401.813-.01 1.622 0 2.435-.02.259-.007.64.102.68-.306.05-.507-.368-.431-.68-.434-1.42-.01-2.844-.037-4.26 0-1.066.026-2.018-.193-2.771-.98-.3-.311-.548-.447-.893-.059-.833.942-1.935 1.072-3.113 1.035a79.634 79.634 0 0 0-3.776 0c-.319.007-.86-.209-.88.332-.023.654.578.415.92.415 3.043.02 6.089.003 9.132.017.461 0 .999-.186 1.317.364-.325.458-.813.283-1.234.286-3.123.013-6.249-.033-9.368.03-1.111.023-1.563-.322-1.49-1.45.043-.71.19-1.487-.995-1.66-.505-.073-1.221-.912-.787-1.526.926-1.304.203-2.42-.06-3.63-.126-.588-.978-1.354-.06-1.789.784-.368.93.674 1.328 1.112.295.322.468.82.989.8.614-.02.7-.585.9-1.013.032-.073.042-.159.086-.225.318-.472.205-1.34 1.008-1.348.684-.003.747.757 1.066 1.195.119.163.209.345.315.518.66 1.038 1.327 1.052 2.017.043.22-.322.332-.777.88-.667-.067.969-.511 1.769-1.44 2.01-1.789.462-1.985-1.333-2.811-2.259-.531.67-.524 1.533-1.118 2.074-.717.657-1.484.143-2.333-.05.16.531.242.923.395 1.284.627 1.477.371 3.704 1.782 4.344 1.407.64 3.338.14 5.044.12.823-.01 1.433-.442 2.014-.99.365-.344.401-.563.083-.968a27.935 27.935 0 0 1-1.6-2.287c-.421-.666-.288-1.324.243-1.884.49-.518 3.016-.664 3.673-.203.57.402.88.963.684 1.68-.073.265-.24.51-.395.743-.316.467-.657.922-.982 1.387-.807 1.148-.727 1.526.544 2.2.345.182.763.315 1.151.322 1.211.023 2.426-.027 3.637-.05.654.07 1.586.461 1.862-.222.7-1.716 1.145-3.535 1.762-5.536-.777.25-1.264.591-1.832.475-.285-.146-.441-.348-.279-.68 1.059.262 1.457-.518 1.922-1.201.348-.511.647-1.155 1.463-.694v.976l.003-.004zm-11.173 4.457c.273-.332.694-.59.674-1.072-.023-.451-.339-.986-.737-.976-.46.01-.81.568-.79 1.032.017.409.359.777.853 1.016zm-.524-2.97c.023-.352-.17-.485-.445-.455-.51.06-.81.349-.803.883 0 .285.087.717.375.637.485-.13.647-.674.873-1.065zm2.187.295c-.03-.425-.325-.753-.893-.773-.242-.01-.53.12-.425.421.173.492.435 1.003.956 1.145.226.063.365-.351.362-.796v.003z" fill="#16140F"/><path d="M24.22 12.69c-.165.332-.01.531.28.68-.107.452-.21.903-.313 1.358-.783-.2-1.208.235-1.496.866-.452.982-.704 1.968.1 2.91a.18.18 0 0 0-.08.15c-1.212.023-2.426.072-3.637.05-.389-.008-.807-.14-1.152-.323-1.27-.673-1.35-1.055-.544-2.2.325-.461.667-.916.982-1.387.156-.232.325-.481.395-.743.196-.717-.113-1.278-.683-1.68-.658-.46-3.183-.315-3.674.203-.53.558-.664 1.218-.242 1.885a26.622 26.622 0 0 0 1.6 2.286c.321.408.285.624-.084.97-.577.55-1.191.982-2.014.988-1.702.017-3.634.518-5.044-.12-1.41-.64-1.155-2.87-1.782-4.343-.152-.358-.235-.75-.395-1.284.85.192 1.613.707 2.333.05.59-.541.59-1.404 1.118-2.075.827.926 1.022 2.722 2.811 2.26.93-.239 1.374-1.038 1.44-2.01.106-.266.216-.532.325-.794 1.162-.335 1.036-1.715 1.995-2.386.8 1.387 1.576 2.781 2.396 4.148.922 1.537 2.25 1.533 3.185.024.262-.422.528-.84.797-1.265.351.355.255.98.872.99.077.324.25.587.515.792h-.004zm-4.065 4.915c1.049.113 1.454-.687 1.467-1.394.013-.717-.388-1.487-1.41-1.463-.777.016-1.716.793-1.546 1.47.182.713.457 1.52 1.49 1.387zm-7.589-2.85c-1.075-.027-1.496.723-1.47 1.46.03.79.491 1.49 1.566 1.413 1.01-.073 1.364-.783 1.331-1.523-.033-.76-.498-1.464-1.427-1.35zm-2.17 2.398c-.01-.703-.166-1.363-.597-1.937-.256-.342-.558-.624-1.019-.502-.455.123-.59.531-.654.94-.106.706.067 1.373.402 1.99.249.462.58 1.043 1.151.907.62-.146.734-.797.717-1.4v.002z" fill="#590404"/><path d="M19.538 20.508c-.318-.55-.856-.365-1.317-.365-3.043-.013-6.09 0-9.132-.017-.339 0-.943.24-.92-.414.02-.541.561-.329.88-.332a79.502 79.502 0 0 1 3.776 0c1.175.036 2.28-.093 3.113-1.035.345-.389.59-.253.893.06.756.786 1.709 1.005 2.77.978 1.42-.036 2.84-.006 4.261 0 .312 0 .73-.073.68.435-.04.408-.421.298-.68.305-.813.02-1.622.01-2.435.02-.395.003-.837-.093-1.05.402-.281-.01-.56-.017-.842-.03l.003-.007z" fill="#590404"/><path d="M23.706 11.897c-.617-.01-.524-.633-.873-.989-.272.428-.537.843-.796 1.265-.936 1.51-2.263 1.51-3.186-.024-.82-1.367-1.596-2.757-2.396-4.147-.959.67-.833 2.05-1.994 2.385.036-1.244.826-2.143 1.53-3.023.441-.55.866 0 1.118.425.757 1.291 1.483 2.598 2.237 3.89.73 1.25 1.45 1.244 2.203 0 .126-.21.242-.422.382-.621.298-.435.444-1.284 1.164-.893.558.302.933.972.61 1.736v-.004z" fill="#16140F"/><path d="M24.184 14.725c.106-.452.21-.903.312-1.358.57.12 1.059-.225 1.832-.474-.617 2.004-1.062 3.823-1.762 5.535-.279.68-1.211.289-1.862.222 0-.063.027-.113.08-.15.53.25.826-.132 1.111-.447.75-.82.853-2.18.286-3.328h.003z" fill="#590404"/><path d="M16.432 16.224c-.494-.235-.836-.607-.853-1.015-.02-.465.326-1.022.79-1.032.398-.007.714.524.737.976.023.474-.402.74-.674 1.071zM15.905 13.258c-.23.395-.389.935-.873 1.065-.292.08-.372-.352-.375-.637-.007-.538.292-.827.803-.883.279-.03.468.1.445.455zM18.095 13.55c.006.441-.133.856-.362.796-.524-.143-.783-.654-.956-1.145-.106-.302.183-.431.425-.421.567.02.866.348.893.773v-.003z" fill="#F5D336"/><path d="M20.155 17.605c-1.032.136-1.31-.67-1.49-1.387-.172-.677.77-1.454 1.547-1.47 1.022-.024 1.423.743 1.41 1.463-.013.71-.418 1.507-1.467 1.394zM12.566 14.751c.936-.11 1.394.59 1.427 1.35.034.737-.318 1.45-1.33 1.524-1.075.076-1.537-.62-1.567-1.414-.026-.737.395-1.486 1.47-1.46zM24.184 14.724c.567 1.149.461 2.51-.285 3.329-.286.315-.581.697-1.112.448-.803-.943-.55-1.928-.1-2.91.293-.634.717-1.066 1.497-.867zm-.402.585c-.905 1.138-.968 1.473-.53 2.445.57-.68.82-1.4.53-2.446zM10.396 17.147c.016.604-.1 1.25-.717 1.4-.57.133-.9-.441-1.151-.906-.332-.617-.505-1.287-.402-1.991.06-.408.196-.816.654-.94.461-.125.763.16 1.019.502.43.574.584 1.235.597 1.938v-.003zm-1.51-1.968c-.146 1.161-.1 1.938.657 2.661.421-.989.096-1.695-.657-2.661z" fill="#16140F"/><path d="M23.782 15.312c.293 1.045.04 1.765-.53 2.445-.442-.972-.379-1.307.53-2.445zM8.886 15.182c.754.97 1.082 1.673.657 2.662-.756-.724-.803-1.5-.657-2.662z" fill="#F5D336"/></svg>