<svg width="33" height="33" fill="none" xmlns="http://www.w3.org/2000/svg"><path d="M.067 16.216c.006-1.228.159-2.438.424-3.635.336-1.522.92-2.952 1.69-4.296.51-.886 1.097-1.73 1.775-2.502 1.13-1.284 2.414-2.38 3.886-3.254.91-.541 1.867-.987 2.87-1.341a14.918 14.918 0 0 1 2.786-.712c1.325-.205 2.664-.29 4.008-.144.52.055 1.039.113 1.546.226 1.02.226 2.017.52 2.991.908.645.26 1.277.531 1.88.873a15.83 15.83 0 0 1 2.566 1.79 15.841 15.841 0 0 1 5.31 9.402c.174 1.026.26 2.059.235 3.098-.019.813-.132 1.616-.26 2.416-.293 1.827-.96 3.523-1.867 5.124a15.583 15.583 0 0 1-2.181 2.936 15.538 15.538 0 0 1-3.56 2.85 15.95 15.95 0 0 1-3.641 1.568 16.95 16.95 0 0 1-2.784.56 15.016 15.016 0 0 1-3.354 0 29.49 29.49 0 0 1-1.284-.172 9.496 9.496 0 0 1-1.078-.25c-1.354-.382-2.658-.883-3.88-1.59a16.406 16.406 0 0 1-2.512-1.759 15.855 15.855 0 0 1-5.331-9.395c-.14-.889-.241-1.79-.235-2.7zm21.774 14.69a5.353 5.353 0 0 0 1.235-.54c.07-.022.146-.038.214-.071a19.75 19.75 0 0 0 1.766-1.048c.076-.052.14-.11.165-.202.363-.134.626-.412.91-.657.23-.18.458-.36.684-.547.061-.051.123-.11.14-.195a.454.454 0 0 0 .169-.113c.419-.406.834-.819 1.182-1.286.364-.486.773-.944 1.042-1.497.248-.312.477-.639.58-1.03.034-.034.08-.061.101-.104.254-.525.581-1.017.721-1.592.022-.027.05-.052.062-.08.22-.54.418-1.09.543-1.661.092-.422.272-.825.263-1.268.104-.324.14-.657.165-.993.095-.45.089-.904.086-1.36a.687.687 0 0 0 .04-.302c-.016-.437-.034-.874-.052-1.31a14.835 14.835 0 0 0-.523-3.016c-.122-.434-.238-.874-.446-1.28-.116-.51-.354-.972-.593-1.433a4.774 4.774 0 0 0-.617-1.122c-.137-.229-.201-.51-.455-.66a.728.728 0 0 0-.33-.495.344.344 0 0 0-.082-.226c-.44-.519-.844-1.066-1.333-1.54-.265-.256-.489-.556-.81-.754-.33-.278-.601-.626-.998-.825-.38-.373-.831-.645-1.28-.92-.29-.18-.566-.394-.896-.498a7.085 7.085 0 0 0-1.494-.7c-.217-.137-.464-.192-.702-.274-.205-.116-.437-.153-.663-.208-.245-.076-.486-.174-.743-.205-.305-.08-.605-.186-.913-.238-.981-.168-1.971-.263-2.967-.217-.238 0-.477-.003-.718-.003-.327 0-.657-.01-.975.08l-.345.027c-.525.046-1.033.186-1.552.272a.448.448 0 0 1-.046.033h-.003c-.39.07-.773.178-1.146.309-.183.064-.39.082-.543.23a.997.997 0 0 0-.397.094 18.72 18.72 0 0 0-2.185 1.063c-.235.131-.513.21-.678.45a3.957 3.957 0 0 0-1.112.787 1.504 1.504 0 0 0-.309.205c-.477.406-.944.822-1.378 1.271-.376.391-.748.785-1.045 1.247-.278.26-.467.583-.66.907-.226.312-.464.614-.577.993a.194.194 0 0 0-.14.138c-.059.198-.175.366-.276.543a.537.537 0 0 0-.076.272.46.46 0 0 0-.165.208c-.235.489-.44.987-.623 1.497-.083.226-.196.443-.162.694-.016.012-.028.027-.043.04-.037.103-.08.204-.104.311-.22.92-.43 1.842-.51 2.786L.2 16.296c.015.44.01.88.049 1.317a16.105 16.105 0 0 0 1.378 5.2.98.98 0 0 0 .22.345c0 .085.024.162.064.235.3.553.605 1.1.969 1.616.244.465.614.844.916 1.265a.373.373 0 0 0 .199.14c.07.166.17.312.3.438.357.357.711.718 1.072 1.072.155.153.326.287.525.385.244.278.513.522.865.663.305.324.678.553 1.078.742.061.046.116.095.18.135.941.547 1.907 1.042 2.958 1.353.3.092.58.254.907.25a4.886 4.886 0 0 0 1.531.33c.085.117.223.099.34.114.903.11 1.808.168 2.718.131.526.043 1.042-.06 1.562-.095.128-.009.262-.012.381-.073.373-.055.752-.08 1.11-.21a8.296 8.296 0 0 0 1.115-.285c.412-.119.83-.22 1.206-.443l-.003-.015z" fill="#E38A33"/><path d="M10.687 1.383c.152-.143.357-.165.543-.229a7.384 7.384 0 0 1 1.146-.312c.019.086.04.165.156.144.55-.1 1.103-.205 1.653-.303.1-.018.137-.076.137-.17.321-.09.648-.08.975-.08.238 0 .477 0 .718.003.107.269.348.217.55.199.455-.046.901.042 1.35.082.58.049 1.152.174 1.727.275.107.018.207.03.256-.098.257.03.498.129.743.205-.095.14-.232.128-.367.092a1.6 1.6 0 0 0-.59-.037c-.372.04-.748.07-1.12.113-.435.046-.875.052-1.305.138-.095.018-.217.006-.245.143-.217.003-.43.006-.648.012-.116 0-.232.006-.308.116-.69-.009-1.372.095-2.06.132-.06-.104-.152-.122-.265-.104-.666.11-1.32.257-1.968.443-.403.116-.791.278-1.191.397a.236.236 0 0 0-.18-.027c-.337.113-.691.113-1.036.134-.355.021-.706.11-1.064.052.089-.122.227-.174.352-.244a14.538 14.538 0 0 1 1.772-.82c.125-.048.238-.106.278-.25l-.01-.006z" fill="#EBB839"/><path d="M20.635 31.349c-.364.12-.737.22-1.116.284-.054-.058-.125-.1-.198-.095-.309.028-.623.025-.917.15-.15.012-.3.028-.449.04-.498.043-.993.082-1.49.125-1.009.006-2.011-.1-3.01-.202-.462-.125-.923-.235-1.402-.262-.025-.061-.07-.095-.135-.113-.061-.019-.162-.01-.15-.104.013-.08.11-.067.175-.074.598-.055 1.194-.107 1.793-.158.134-.013.278.006.379-.117.428.016.85.104 1.277.07a.3.3 0 0 0 .177.043c.507.019 1.011-.012 1.515-.055.306-.027.615-.024.914-.103.532-.028 1.045-.171 1.567-.254.294.037.584 0 .874-.021.642-.055 1.28-.12 1.919-.18.082-.007.168-.007.22.076l-.782.376c-.367.06-.685.26-1.042.35-.098.025-.116.126-.122.218l.003.006z" fill="#FADC46"/><path d="M8.285 2.694c.358.06.712-.028 1.064-.052.345-.022.7-.022 1.035-.135.058-.021.122-.003.18.028-.757.37-1.536.697-2.254 1.149-.202.128-.431.18-.663.204-.404.046-.807.077-1.21.11-.07.007-.135.01-.193.055-.323.25-.65.505-.94.795-.05.049-.11.1-.074.177.043.089.128.058.202.049.232-.03.461-.07.696-.055.067.003.15-.018.184.058.033.076-.04.125-.086.171l-.944.89c-.046-.08-.12-.074-.199-.068-.134.012-.272.027-.409.021-.327-.015-.611.055-.819.33-.07.092-.162.122-.272.086.294-.462.666-.856 1.045-1.247.434-.449.901-.864 1.378-1.27a1.39 1.39 0 0 1 .309-.205.408.408 0 0 0 .363-.083c.303-.226.611-.44.92-.657.238-.098.44-.275.693-.345l-.006-.006zM30.89 10.75c.212.407.325.847.447 1.28.278.987.458 1.993.522 3.016h-.192c.024-.073.006-.146 0-.223-.021-.257-.1-.507-.086-.767-.04-.186-.076-.376-.122-.562-.03-.134-.11-.22-.26-.21-.137.008-.271.018-.409.036-.174.021-.253.131-.23.302.028.175.044.355.114.52l.082.99c-.024.305.052.605.043.91-.003.04-.009.076-.012.116-.073-.009-.11-.064-.147-.116V15.834a18.644 18.644 0 0 0-.571-3.626c.037-.015.073-.03.107-.046.107.07.055.272.232.281.193.01.382.021.572-.03.146-.04.207-.138.174-.276a10.496 10.496 0 0 0-.202-.687c-.037-.11-.113-.19-.241-.192-.239-.006-.48-.03-.706.076-.095-.18-.193-.357-.287-.538l-.034-.244c.156-.012.312-.034.467-.04.218-.009.444-.043.587.19.028.045.095.049.15.049h.003z" fill="#F4D042"/><path d="M.9 11.746c-.033-.25.08-.467.163-.693.186-.507.39-1.008.623-1.497a.478.478 0 0 1 .165-.208c.156-.006.186-.14.248-.244.11-.178.18-.391.44-.416a6.47 6.47 0 0 1 .843-.04c-.028.138-.123.245-.184.367-.045.092-.107.19.028.266-.01.034-.015.067-.034.098-.314.516-.54 1.075-.754 1.637-.175.459-.321.932-.48 1.396-.046 0-.092-.006-.14-.009.033-.146.07-.296.103-.443.144-.26.202-.544.26-.83.122-.169.186-.367.257-.56.055-.146-.01-.226-.168-.217-.171.01-.343.025-.51.037-.101.01-.196.049-.245.131-.113.202-.241.4-.244.645-.098.125-.12.284-.184.425-.04.085-.082.152-.186.155z" fill="#D78D29"/><path d="M22.003 1.582a6.73 6.73 0 0 1 1.494.7c.006.14.098.213.205.287.379.26.819.424 1.149.757-.025.074-.077.116-.153.12-.458.005-.91.155-1.372.045-.015-.021-.027-.052-.049-.064-.522-.32-1.063-.605-1.646-.8l-.083-.046c.132-.217.358-.171.553-.196.217-.027.44.019.657-.03.061-.016.153-.003.159-.098.003-.077-.064-.12-.125-.15-.175-.08-.36-.14-.529-.229-.116-.061-.293-.089-.26-.29v-.006z" fill="#FADC46"/><path d="M17.008 1.542c.03-.138.15-.125.245-.144.43-.085.87-.088 1.304-.137.373-.04.749-.07 1.122-.113.198-.022.394-.015.59.036.137.037.271.052.366-.091.226.055.455.091.663.208a.26.26 0 0 0 .098.217c.13.113.073.177-.065.195-.305.04-.617.058-.92.107-.216.037-.458-.043-.644.14-.073-.009-.15-.015-.223-.033a14.288 14.288 0 0 0-2.539-.391l.003.006z" fill="#EFC43D"/><path d="M26.672 4.52c.32.196.543.499.81.755.491.474.895 1.02 1.331 1.54.059.068.083.14.083.226.012.061.021.123.037.18.128.493.128.496-.385.55a.671.671 0 0 1-.62-.253c-.059-.067-.108-.144-.187-.19-.034-.213-.226-.317-.336-.476-.128-.186-.113-.26.113-.3.153-.027.312-.03.467-.048.199-.022.224-.074.123-.25a1.526 1.526 0 0 0-.41-.453 7.115 7.115 0 0 0-.867-.926c-.11-.098-.178-.204-.16-.354z" fill="#D78D29"/><path d="m.201 16.29.043-1.403c.067-.027.131-.058.199-.085 0 .128.006.26 0 .388-.004.162.067.229.232.235.226.01.446-.046.669-.052.015.098 0 .21.125.254 0 .302-.003.608-.006.91v.034c0 .027 0 .058.003.085-.104.03-.15.104-.162.208l-.904.082a1.005 1.005 0 0 0-.205-.66l.006.004zM24.85 3.323c-.33-.333-.772-.495-1.148-.758-.107-.073-.199-.146-.205-.287.333.104.605.318.895.498.447.278.902.547 1.28.92-.06.137.019.22.114.296.217.18.43.36.647.538.043.037.095.07.08.131-.019.07-.089.083-.15.092-.183.021-.366.04-.553.055-.104.01-.208.012-.26.125-.394-.214-.7-.547-1.057-.806-.122-.089-.06-.168.068-.184.244-.033.488-.058.733-.085.055-.006.116-.006.134-.07.015-.058-.036-.086-.073-.113-.165-.123-.309-.272-.504-.352z" fill="#EFC13C"/><path d="M25.55 4.936c.052-.113.156-.119.26-.125.184-.015.37-.034.553-.055.061-.006.132-.021.15-.092.015-.06-.037-.097-.08-.13-.216-.181-.43-.361-.647-.539-.095-.08-.174-.162-.113-.296.397.199.669.544.999.825-.018.15.049.257.159.354.317.281.605.593.867.926-.21.128-.443.128-.678.125-.11 0-.226-.009-.275.126-.223-.129-.373-.343-.571-.498-.18-.233-.455-.37-.623-.618v-.003z" fill="#E7B036"/><path d="M2.884 25c-.364-.513-.67-1.063-.969-1.616a.454.454 0 0 1-.064-.235c.046-.306-.135-.556-.208-.831a.966.966 0 0 0 .468.009c.161-.034.323-.064.488-.022.248.38.431.792.618 1.204a2.947 2.947 0 0 1-.633.086c-.263.003-.296.07-.171.296.199.355.428.69.599 1.06l-.128.05z" fill="#EFC13C"/><path d="M19.77 1.964c.183-.18.428-.104.645-.141.305-.052.614-.067.92-.107.137-.018.195-.085.063-.195a.252.252 0 0 1-.097-.217c.238.085.486.137.702.275-.033.201.144.229.26.29.168.092.351.153.529.229.064.028.128.07.125.15-.003.094-.095.085-.159.097-.217.05-.44.004-.657.031-.195.024-.424-.018-.553.196-.547-.202-1.084-.422-1.662-.535a.201.201 0 0 1-.116-.076v.003z" fill="#F4D042"/><path d="M14.118 30.826c-.101.123-.245.104-.379.117-.599.052-1.195.104-1.794.159-.064.006-.161-.007-.174.073-.015.091.089.085.15.104.064.018.11.052.135.113-.058.018-.117.033-.172.052-.327.006-.608-.156-.907-.25.067-.163-.07-.193-.165-.248-.144-.083-.33-.077-.452-.208.052-.012.104-.037.159-.037.464-.006.922-.08 1.384-.128.15-.015.317.01.44-.12.238.056.476.11.715.169.351.085.715.1 1.063.208l-.003-.003z" fill="#EFC43D"/><path d="M3.226 9.28c-.132-.075-.07-.173-.028-.265.061-.122.156-.226.184-.367.155-.13.217-.33.324-.494.073-.117.247-.227.165-.37-.083-.144-.266-.037-.404-.04-.394-.006-.727.101-.895.501a.244.244 0 0 1-.226.153c.113-.379.351-.681.577-.993.11.12.171.021.217-.061a.77.77 0 0 1 .526-.397c.3-.055.605-.116.913-.037-.009.104-.192.199-.021.315-.073.174-.19.318-.306.464-.4.492-.711 1.045-1.032 1.589l.006.003z" fill="#E8B337"/><path d="M31.786 18.022c-.024.336-.06.672-.165.993-.055 0-.11 0-.165-.003-.235-.073-.476-.046-.715-.028-.137.01-.216.104-.253.236l-.147.537-.128-.046c.134-.531.19-1.075.302-1.61.083-.006.135-.046.16-.125.317.006.638.028.946-.08.055.04.11.083.162.123l.003.003z" fill="#E2A632"/><path d="M.442 14.799c-.067.027-.13.058-.198.085.08-.944.293-1.867.51-2.786.025-.107.07-.208.104-.312.015-.012.027-.027.043-.04.104 0 .146-.07.186-.155.064-.14.086-.3.183-.425.306.012.602-.113.91-.04-.054.288-.112.572-.259.831-.247-.027-.489.03-.736.046-.138.01-.217.089-.263.22-.07.208-.1.425-.146.639-.101.265-.132.543-.169.825a6.518 6.518 0 0 0-.168 1.112h.003z" fill="#E7B036"/><path d="M1.643 22.318c.074.275.25.525.208.83a.98.98 0 0 1-.22-.345 16.085 16.085 0 0 1-1.378-5.2c-.04-.437-.033-.876-.049-1.316.144.195.22.415.205.66.064.271 0 .556.08.825.018.333.027.669.15.99.051.623.186 1.224.396 1.814.04.25.12.486.242.706.055.37.229.697.37 1.036h-.004z" fill="#F4D042"/><path d="M6.76 28.963c-.35-.14-.62-.385-.864-.663-.043-.214-.195-.352-.348-.489-.067-.058-.14-.11-.15-.208.36-.046.721-.091 1.085-.134.351.22.666.489.993.745-.12.04-.242.04-.364.05-.205.015-.412.005-.608.066-.156.05-.162.117-.049.233.104.104.26.155.312.314 0 .03 0 .058-.003.089l-.003-.003z" fill="#DE9E30"/><path d="M4.582 6.916c-.308-.08-.614-.018-.913.037a.749.749 0 0 0-.526.397c-.046.083-.107.18-.217.061.19-.324.382-.645.66-.907.11.036.205.009.272-.086.208-.275.495-.345.819-.33.134.006.272-.009.41-.021.079-.006.149-.012.198.067-.223.269-.41.571-.7.782h-.003z" fill="#EFC13C"/><path d="M29.681 8.193c.247.352.467.718.617 1.122-.009.03-.027.064-.03.094-.046.321-.046.312-.364.36-.171.028-.357 0-.51.114-.086-.064-.12-.16-.159-.254-.046-.113-.089-.226-.208-.284l-.085-.33c.064-.058.143-.073.226-.082.143-.019.287-.034.428-.065.198-.045.223-.103.137-.29-.058-.125-.128-.247-.049-.39l-.003.005z" fill="#E7B036"/><path d="M2.343 8.401a.244.244 0 0 0 .226-.153c.168-.4.501-.51.895-.5.138 0 .32-.105.403.039.083.14-.091.253-.165.37-.103.165-.168.363-.323.494a6.492 6.492 0 0 0-.844.04c-.26.028-.333.239-.44.416-.064.104-.091.238-.247.244 0-.098.027-.186.076-.272.101-.177.22-.342.275-.544a.2.2 0 0 1 .14-.137l.004.003z" fill="#DE9E30"/><path d="M29.935 23.72c-.107.394-.333.718-.58 1.03-.108-.043-.169.018-.224.091-.049.067-.098.135-.183.156-.223-.092-.443-.006-.666.012-.101.01-.214.058-.281-.052-.07-.116.046-.183.095-.265.064-.104.15-.196.183-.318.067-.07.137-.138.204-.208.236.08.471.03.706.012.266-.021.45-.137.544-.39.034-.092.089-.169.19-.2l.009.129.003.003z" fill="#EBB839"/><path d="M28.939 9.021c.027.11.058.22.085.33h-.091c-.043-.061-.092-.119-.129-.183a18.2 18.2 0 0 0-1.194-1.84h.131c.076.05.128.123.186.19a.685.685 0 0 0 .62.254c.514-.055.514-.058.386-.55-.016-.058-.025-.123-.037-.18.177.119.293.28.33.494 0 .14.055.266.113.391.11.23.055.321-.205.349-.122.012-.244.03-.366.042-.156.016-.208.083-.129.233.086.165.177.324.297.467l.003.003z" fill="#DB982D"/><path d="M26.13 28.388c-.283.245-.546.523-.91.657v-.085c-.003-.126-.076-.168-.189-.162-.156.006-.315.009-.47.021-.211.015-.422.043-.633.058-.058.003-.131 0-.15-.076-.015-.064.043-.095.086-.128.198-.138.4-.263.617-.373.125.125.281.082.425.064.39-.049.785-.098 1.18-.107l.045.131z" fill="#E2A632"/><path d="M29.391 9.889c.153-.116.34-.089.51-.113.318-.049.318-.04.364-.36.006-.034.021-.065.03-.095.236.461.477.922.593 1.433-.055 0-.122 0-.15-.05-.143-.232-.37-.198-.586-.189-.156.006-.312.025-.468.04-.15-.199-.22-.43-.293-.66v-.006z" fill="#EFC43D"/><path d="M28.939 9.021a2.571 2.571 0 0 1-.297-.467c-.079-.15-.027-.217.129-.232.122-.013.244-.031.366-.043.257-.028.312-.12.205-.348-.058-.126-.113-.251-.113-.392.254.15.318.431.455.66-.08.14-.009.263.05.391.085.187.06.245-.138.29-.14.031-.284.047-.428.065a.4.4 0 0 0-.226.082l-.003-.006z" fill="#E2A632"/><path d="M19.895.891c-.049.132-.15.12-.256.098-.575-.1-1.146-.226-1.726-.275-.45-.04-.893-.128-1.35-.083-.2.022-.44.074-.55-.198.998-.046 1.985.049 2.966.217.308.052.61.156.913.238l.003.003z" fill="#DE9E30"/><path d="M28.945 25c.089-.021.134-.088.183-.156.055-.076.12-.137.223-.091-.271.553-.678 1.011-1.041 1.497-.349.467-.764.88-1.183 1.286a.42.42 0 0 1-.168.113l-.046-.131c.266-.303.532-.602.795-.905.262-.226.464-.504.657-.788.232-.247.464-.498.583-.825h-.003zM10.357 30.738c.122.131.308.125.452.208.095.055.232.085.165.247-1.048-.311-2.017-.806-2.958-1.353-.064-.037-.122-.089-.18-.135.015-.042.028-.085.043-.125.183.055.336.186.529.22.274.284.638.4.999.526.28.22.614.317.95.412z" fill="#F4D042"/><path d="M8.285 2.694c-.253.07-.455.244-.693.345-.055-.015-.113-.03-.168-.049.165-.241.443-.318.678-.449.706-.4 1.433-.755 2.184-1.063.129-.052.257-.101.398-.095-.04.144-.153.202-.278.25-.608.233-1.201.505-1.773.82-.125.07-.262.122-.35.244l.002-.003z" fill="#DC9A2E"/><path d="M31.456 19.012c.055 0 .11 0 .165.003.012.443-.17.846-.262 1.268-.123.571-.324 1.121-.544 1.662-.013.03-.04.055-.062.08l-.091-.083c.04-.177.08-.355.116-.535.278-.531.376-1.118.507-1.695.092-.227.107-.471.168-.703l.003.003z" fill="#D78D29"/><path d="M13.458 31.651c1.002.101 2.001.205 3.01.202v.162c-.911.037-1.816-.021-2.72-.131-.116-.016-.25.003-.34-.113l.047-.12h.003z" fill="#DC9A2E"/><path d="M25.224 28.96v.085c-.025.092-.09.15-.166.202a19.75 19.75 0 0 1-1.765 1.048c-.065.033-.141.046-.214.07l-.05-.128c.059-.052.117-.104.178-.156.36-.085.642-.3.907-.54.257-.04.44-.212.648-.343.147-.095.266-.244.465-.238h-.003z" fill="#DB982D"/><path d="M5.398 27.603c.006.101.083.15.15.208.153.137.305.275.348.489a2.044 2.044 0 0 1-.525-.385c-.36-.354-.718-.715-1.073-1.072a1.427 1.427 0 0 1-.3-.437c.028-.016.056-.034.086-.05.19.18.38.364.569.544.217.27.43.538.745.703z" fill="#D78D29"/><path d="M16.47 32.015v-.162c.498-.043.993-.082 1.491-.125.15-.012.3-.028.45-.04 0 .052.003.104.006.156-.12.061-.254.064-.382.073-.52.037-1.036.138-1.561.095l-.003.003z" fill="#E7B036"/><path d="M14.322.51c0 .094-.036.152-.137.17l-1.653.303c-.116.021-.137-.058-.156-.144h.003c.016-.012.03-.024.046-.033.52-.086 1.027-.226 1.552-.272l.345-.028V.51z" fill="#FADC46"/><path d="M4.085 26.357c-.028.015-.055.033-.086.049a.39.39 0 0 1-.199-.14c-.305-.423-.672-.801-.916-1.266.043-.015.085-.033.128-.049.177.208.355.416.532.627.128.235.29.443.489.623.015.052.033.104.048.159l.003-.003zM30.665 21.942l.092.082c-.14.575-.468 1.07-.721 1.592-.019.04-.067.067-.101.104 0-.043-.006-.085-.01-.128.02-.095.034-.187.053-.281.1-.101.134-.236.201-.355.184-.327.254-.709.486-1.014z" fill="#E2A632"/><path d="M31.667 15.05h.192c.019.436.037.873.052 1.31a.678.678 0 0 1-.04.302c-.054 0-.11 0-.161-.003l-.01-.653c.034-.321-.036-.636-.04-.954h.01l-.003-.003z" fill="#EFC13C"/><path d="m13.458 31.651-.046.12a4.886 4.886 0 0 1-1.53-.33c.057-.019.112-.034.17-.052.48.024.941.137 1.403.262h.003zM7.424 2.99c.055.015.113.03.168.05-.306.216-.617.43-.92.656a.408.408 0 0 1-.363.082c.32-.333.7-.583 1.112-.788h.003zM23.027 30.237c.015.043.034.085.049.128-.388.232-.8.413-1.235.54l-.045-.124.782-.376a1.81 1.81 0 0 1 .449-.168zM7.879 29.58c-.015.043-.028.086-.043.125-.4-.186-.77-.418-1.078-.742 0-.03 0-.058.003-.089.107.006.189.064.278.12.223.14.449.28.672.418l.165.165.003.003zM31.71 16.656c.055 0 .11 0 .162.003 0 .456.006.91-.086 1.36-.055-.04-.11-.083-.162-.122.037-.413.092-.825.086-1.24z" fill="#E7B036"/><path d="M21.799 30.78c.015.043.03.086.046.126-.376.223-.795.32-1.207.443.006-.092.024-.192.122-.217.357-.092.675-.29 1.042-.351h-.003z" fill="#EFC43D"/><path d="m26.91 27.518.046.131c-.018.086-.08.144-.14.196-.227.183-.456.363-.685.547-.015-.043-.03-.09-.046-.132.128-.214.397-.296.504-.532l.321-.21z" fill="#EBB839"/><path d="M18.413 31.844c0-.052-.003-.104-.006-.156.294-.122.608-.122.917-.15.073-.006.143.037.198.095-.357.132-.736.159-1.109.21z" fill="#F4D042"/><path d="M.901 11.746s-.028.028-.043.04c.015-.012.028-.027.043-.04z" fill="#D78D29"/><path d="M12.422.809s-.03.024-.046.034a.44.44 0 0 1 .046-.034z" fill="#EBB839"/><path d="M27.61 7.332c.43.592.83 1.203 1.194 1.839.037.064.086.122.129.183.207.49.412.978.666 1.442.155.47.311.938.47 1.409.312 1.188.498 2.398.569 3.626V16.04c-.031.688-.059 1.378-.126 2.062-.113.535-.168 1.079-.302 1.61-.101.327-.199.657-.3.984-.226.737-.559 1.433-.861 2.139-.324.486-.602 1-.895 1.503-.389.501-.776 1.005-1.165 1.506-.033.034-.07.068-.103.101-.773.782-1.552 1.55-2.463 2.182a14.592 14.592 0 0 1-6.431 2.502 4.68 4.68 0 0 1-.223.034c-.792.085-1.583.091-2.377.085a16.25 16.25 0 0 1-2.487-.33c-.587-.122-1.149-.324-1.723-.477L10.1 29.5l-1.442-.745c-.724-.397-1.366-.913-2.001-1.433-.407-.333-.785-.706-1.173-1.06l-.734-.819-.889-1.228c-.36-.605-.736-1.204-1.023-1.852-.07-.158-.107-.342-.239-.47l-.375-1.024c-.098-.39-.202-.779-.34-1.157-.21-1.009-.37-2.023-.412-3.053 0-.027 0-.058-.003-.085v-.034c0-.302.003-.608.006-.91l.128-1.406c.117-.605.211-1.213.358-1.812.159-.464.305-.937.48-1.396.213-.562.436-1.121.754-1.637.019-.028.022-.064.034-.098.32-.544.63-1.097 1.032-1.589.117-.143.233-.29.306-.464.458-.486.88-1 1.363-1.464 1.756-1.695 3.816-2.86 6.162-3.532.63-.18 1.271-.29 1.91-.433.687-.037 1.368-.144 2.059-.132a17.74 17.74 0 0 1 2.053.147c1.222.162 2.383.528 3.529.962.571.25 1.124.538 1.677.82.293.189.59.375.88.567.67.443 1.277.966 1.891 1.48l.82.833c.2.315.451.587.705.856h-.006zm2.117 4.497c-.021-.235-.116-.45-.214-.66-.049-.266-.214-.489-.296-.742-.16-.443-.413-.838-.654-1.24a3.585 3.585 0 0 0-.574-.951 1.89 1.89 0 0 0-.41-.58 5.139 5.139 0 0 0-.77-.954c-.165-.183-.293-.397-.498-.54-.177-.211-.36-.416-.593-.569a2.373 2.373 0 0 0-.577-.498 5.874 5.874 0 0 0-1.14-.834c-.265-.226-.574-.382-.88-.544-.311-.238-.69-.342-1.032-.522-.437-.223-.883-.422-1.363-.538-.201-.116-.434-.14-.65-.217-.62-.22-1.265-.324-1.913-.403-.474-.135-.96-.147-1.445-.159-.275 0-.547-.006-.822-.01-.33.007-.663-.03-.993.044-.364 0-.724.036-1.075.131-.42.058-.84.098-1.238.25-.296.077-.599.144-.892.236-1.702.52-3.236 1.353-4.626 2.456-.516.41-1.017.837-1.439 1.35-.32.3-.62.618-.85.994-.231.217-.408.476-.573.742a5.4 5.4 0 0 0-.55.898c-.165.214-.309.44-.367.712-.296.416-.474.89-.642 1.366-.299.66-.498 1.35-.629 2.062-.098.367-.199.733-.205 1.115-.06.312-.113.627-.094.947-.074.358-.046.715-.037 1.076-.01.333-.037.666.021.999.019.446.05.889.165 1.323.01.266.074.522.147.776.015.229.067.452.165.66.11.531.296 1.042.522 1.534.086.32.233.614.394.898.169.39.358.773.608 1.121.086.217.217.406.367.584.11.247.284.455.455.66.263.39.553.76.902 1.081.107.18.256.32.421.446.184.217.37.431.62.575.358.394.783.705 1.229.992.25.227.537.395.83.55.239.187.505.321.78.444.238.146.486.28.755.37.287.161.59.286.907.375.348.156.7.3 1.078.357.318.135.654.196.99.254a11.33 11.33 0 0 0 2.606.318c.495.006.993.043 1.485-.037.171.018.342-.018.51-.04.663-.085 1.33-.161 1.968-.372a.757.757 0 0 0 .083-.013c1.203-.271 2.325-.751 3.4-1.35 1.259-.7 2.398-1.555 3.355-2.637a10.887 10.887 0 0 0 1.466-1.817c.342-.413.608-.871.828-1.357.44-.74.77-1.528.993-2.359.171-.354.257-.733.318-1.118.153-.498.223-1.014.281-1.528.043-.467.122-.931.085-1.402.07-.302-.009-.605-.003-.907.028-.278-.024-.55-.042-.825-.104-.465-.058-.954-.235-1.403a2.891 2.891 0 0 0-.211-.907c-.01-.238-.15-.437-.205-.66l.003-.003z" fill="#8D6020"/><path d="M13.992 1.799c-.635.143-1.28.253-1.91.433C9.74 2.905 7.68 4.07 5.92 5.764c-.48.465-.904.978-1.362 1.464-.171-.116.012-.208.021-.315.29-.21.477-.513.7-.782.315-.296.632-.59.944-.89.049-.045.122-.09.085-.17-.033-.077-.119-.052-.183-.058-.235-.016-.464.024-.696.055-.074.009-.16.04-.202-.05-.037-.076.027-.128.073-.176.29-.29.617-.544.941-.795.058-.046.122-.049.193-.055.403-.033.806-.064 1.21-.11.232-.024.461-.08.663-.204.718-.453 1.494-.783 2.254-1.15.4-.118.789-.277 1.192-.396a17.426 17.426 0 0 1 1.967-.443c.114-.019.205 0 .266.103l.006.007z" fill="#FADC46"/><path d="M21.634 2.776c-1.146-.434-2.307-.8-3.53-.962a17.743 17.743 0 0 0-2.052-.147c.076-.11.192-.113.308-.116.217-.006.431-.006.648-.012.859.058 1.705.177 2.539.391.073.018.15.021.223.034a.2.2 0 0 0 .116.076c.575.113 1.115.333 1.662.535l.083.045v.153l.003.003z" fill="#DB982D"/><path d="M17.998 30.628a14.592 14.592 0 0 0 6.431-2.502c.91-.633 1.69-1.4 2.463-2.182l.104-.1c0 .048 0 .094.003.143-.101.232-.343.354-.456.578l-1.283 1.154c-.272.177-.535.37-.782.58a5.1 5.1 0 0 0-.617.374c-.046.03-.101.06-.086.128.019.08.092.08.15.076.21-.015.422-.04.632-.058.156-.012.315-.015.47-.021.114-.003.187.04.19.162-.198-.01-.317.143-.464.238-.208.131-.391.302-.648.342-.473-.03-.94.08-1.411.083-.663 0-1.24.311-1.858.473-.03.01-.052.04-.08.061l-1.197.37c-.522.083-1.036.226-1.567.254v-.153h.006z" fill="#E8B337"/><path d="M19.565 30.53c.4-.122.798-.247 1.198-.37a.342.342 0 0 0 .198.037c.395-.033.789-.073 1.186-.104.351-.027.703-.125 1.057-.015a9.026 9.026 0 0 1-.177.156 1.81 1.81 0 0 0-.45.168c-.051-.086-.137-.086-.22-.076-.638.058-1.28.125-1.918.18-.29.024-.58.06-.874.021v.003z" fill="#F4D042"/><path d="M11.188 29.944c.577.152 1.14.354 1.723.476.822.171 1.65.284 2.487.327 0 .049 0 .098-.003.147-.428.033-.853-.055-1.277-.07-.345-.107-.712-.123-1.063-.208-.239-.058-.477-.113-.715-.168-.373-.11-.743-.223-1.116-.333a13.646 13.646 0 0 0-.036-.171z" fill="#D78D29"/><path d="M15.395 30.897c0-.05 0-.098.003-.147.794.003 1.586 0 2.377-.085.073-.01.15-.022.223-.034v.153c-.3.08-.608.076-.914.104-.504.042-1.008.073-1.515.055a.331.331 0 0 1-.177-.043l.003-.003z" fill="#E2A632"/><path d="M31.71 16.656c.006.416-.049.828-.086 1.24-.308.108-.629.086-.947.08.07-.605.15-1.21.113-1.82.003-.04.01-.077.012-.117.3-.01.602.018.899-.04l.009.654v.003z" fill="#D78D29"/><path d="M30.008 11.331c.226-.107.468-.082.706-.076.128 0 .205.082.241.192.074.226.144.455.202.688.034.14-.027.235-.174.274-.19.052-.379.04-.572.031-.177-.01-.125-.214-.232-.281-.012-.08-.015-.162-.036-.238-.055-.196-.144-.38-.135-.587v-.003z" fill="#FADC46"/><path d="m30.757 15.132-.083-.99c.303-.025.605-.028.905-.083-.016.26.067.51.085.767.006.073.025.147 0 .223h-.009a3.191 3.191 0 0 0-.901.083h.003z" fill="#E7B036"/><path d="M30.757 15.132c.296-.07.598-.101.9-.083.004.318.074.633.04.954-.296.058-.598.03-.898.04.01-.306-.067-.606-.042-.911z" fill="#E2A632"/><path d="M31.582 14.06c-.3.057-.602.057-.905.082-.073-.165-.088-.345-.113-.52-.024-.17.052-.278.23-.302.134-.018.271-.027.409-.037.15-.009.229.08.26.211.045.187.082.376.122.562l-.003.003z" fill="#EFC43D"/><path d="M30.787 16.155c.037.611-.043 1.216-.113 1.821-.024.08-.076.12-.159.125.068-.687.092-1.374.126-2.062.04.052.076.107.146.116z" fill="#E8B337"/><path d="M29.599 10.796c-.257-.464-.461-.953-.666-1.442h.091c.12.058.165.171.208.284.037.095.074.19.16.254.073.232.143.464.293.66.012.082.02.162.033.244h-.12z" fill="#E2A632"/><path d="M29.599 10.796h.119l.287.538c-.009.208.083.394.135.587.021.076.024.159.036.238-.036.015-.073.03-.107.046-.155-.47-.311-.938-.47-1.409z" fill="#EBB839"/><path d="M.779 12.862c.045-.214.076-.431.146-.639.046-.131.122-.214.263-.22.244-.015.489-.073.736-.046-.033.147-.07.297-.104.443-.055.123-.036.27-.128.38-.308-.016-.608.051-.913.082z" fill="#EFC13C"/><path d="M2.181 11.126c-.309-.073-.605.052-.91.04 0-.244.128-.443.244-.645.049-.085.144-.125.244-.131.171-.015.343-.027.51-.037.16-.009.22.074.169.217-.07.193-.135.388-.257.56v-.004z" fill="#DE9E30"/><path d="M1.692 12.78c.089-.11.073-.257.128-.38.046 0 .092.006.141.01-.147.598-.241 1.206-.358 1.811-.04-.015-.079-.027-.119-.043-.027-.18.03-.354.046-.531.077-.284.14-.575.162-.87v.002z" fill="#E2A632"/><path d="M26.085 5.64c-.614-.514-1.225-1.034-1.891-1.48-.29-.192-.587-.379-.88-.568l.015-.107c.462.11.914-.04 1.372-.046.076 0 .128-.046.153-.119.195.08.339.23.504.351.037.028.088.055.073.114-.018.067-.08.064-.134.07-.245.027-.489.055-.733.085-.132.019-.19.095-.068.184.36.26.663.592 1.058.806.168.248.443.385.623.617-.03.028-.058.058-.089.086l-.003.006z" fill="#F4D042"/><path d="m23.326 3.488-.015.107c-.556-.281-1.11-.568-1.677-.819v-.152c.583.195 1.124.48 1.646.8.022.012.034.043.05.064h-.004z" fill="#EBB839"/><path d="M27.61 7.332c-.254-.27-.504-.544-.706-.856.085-.067.046-.128-.015-.183a.47.47 0 0 1-.144-.238c.049-.135.165-.129.275-.126.235.006.468.003.678-.125.165.125.306.272.41.452.1.177.076.23-.123.25-.155.02-.314.022-.467.05-.226.04-.241.113-.113.3.11.161.302.265.336.476h-.131z" fill="#DE9E30"/><path d="M1.527 13.647c-.015.177-.07.351-.046.531-.116.388-.137.789-.134 1.192-.223.006-.443.058-.67.052-.164-.006-.235-.073-.232-.235.003-.129 0-.26 0-.388.025-.376.08-.746.168-1.112.095-.01.187-.028.282-.025.213.003.421-.107.635-.012l-.003-.003z" fill="#FADC46"/><path d="M.488 17.774c-.08-.268-.015-.553-.08-.824l.905-.083c-.009.278.034.553.08.825l-.905.082z" fill="#E7B036"/><path d="M1.393 17.692a4.148 4.148 0 0 1-.08-.825c.01-.104.058-.177.162-.208.043 1.03.202 2.044.413 3.053-.04 0-.08 0-.12.003-.13-.333-.18-.685-.253-1.03-.028-.333-.128-.657-.122-.993z" fill="#F4D042"/><path d="M1.347 15.373c0-.403.018-.803.134-1.191l.12.042-.129 1.406c-.125-.046-.11-.156-.125-.254v-.003z" fill="#E8B337"/><path d="M1.47 16.537s.002.022 0 .034c0-.012-.004-.022 0-.034z" fill="#F4D042"/><path d="M26.745 6.052a.48.48 0 0 0 .144.238c.058.058.1.116.015.183l-.822-.834c.03-.027.058-.058.089-.085.201.155.351.37.571.498h.003z" fill="#EFC13C"/><path d="M3.543 25.575c-.177-.208-.354-.416-.531-.627-.171-.37-.4-.706-.599-1.06-.125-.226-.092-.29.171-.296.214 0 .425-.037.633-.086.165.235.326.47.491.706.23.446.572.816.847 1.231-.324.147-.672.098-1.012.132z" fill="#FADC46"/><path d="m2.227 20.87.376 1.023c-.083.137-.013.275 0 .412-.165-.045-.327-.012-.49.022a.969.969 0 0 1-.467-.01c-.14-.338-.314-.665-.37-1.035.169 0 .34.006.508-.012.318-.034.348-.083.314-.398h.129v-.003z" fill="#E2A632"/><path d="M2.6 22.305c-.01-.137-.08-.274 0-.412.134.128.168.312.238.47.287.648.663 1.244 1.024 1.852h-.156c-.165-.235-.327-.47-.492-.706-.187-.412-.367-.825-.617-1.204H2.6z" fill="#D78D29"/><path d="M11.224 30.115c.373.11.743.223 1.115.333-.122.128-.293.104-.44.119-.46.049-.92.122-1.383.128-.052 0-.104.025-.16.037-.335-.095-.668-.193-.95-.413.046-.058.11-.076.18-.082l1.638-.128v.006z" fill="#EBB839"/><path d="M31.456 19.012c-.06.232-.079.476-.168.703-.317-.016-.629.03-.94.082 0-.015-.004-.027-.007-.043l.147-.537c.037-.132.116-.226.253-.236.239-.015.48-.043.715.028v.003z" fill="#E7B036"/><path d="m30.341 19.757.006.043a5.949 5.949 0 0 1-.058.22l-.412 1.378c-.052.104-.101.21-.153.315-.192.394-.318.822-.58 1.179-.031-.018-.062-.037-.09-.058.303-.709.633-1.402.863-2.139.1-.327.198-.657.299-.983l.128.045h-.003z" fill="#D78D29"/><path d="M1.527 13.647c-.214-.095-.425.018-.635.012-.095 0-.187.015-.281.024.036-.277.067-.559.168-.824.302-.034.605-.098.913-.083a4.7 4.7 0 0 1-.162.87h-.003z" fill="#F4D042"/><path d="M1.515 18.685c.07.345.12.7.254 1.03-.03.26.128.488.131.742-.284.07-.574.095-.865.12a7.086 7.086 0 0 1-.397-1.816c.29-.049.58-.088.877-.076z" fill="#D78D29"/><path d="M1.515 18.685a4.217 4.217 0 0 0-.877.076c-.122-.317-.131-.653-.15-.99l.905-.082c-.006.336.094.66.122.993v.003z" fill="#E2A632"/><path d="M1.035 20.576c.29-.024.58-.049.865-.119.116.113.125.281.198.415.034.315 0 .364-.314.398-.168.018-.34.009-.507.012a2.125 2.125 0 0 1-.242-.706z" fill="#DE9E30"/><path d="M7.714 29.415c-.223-.14-.45-.278-.672-.419-.086-.055-.172-.113-.278-.119-.052-.155-.208-.21-.312-.314-.113-.113-.104-.184.049-.233.195-.06.403-.051.608-.067.122-.009.244-.012.363-.049.382.202.712.486 1.106.666.12.147.318.171.456.288-.05.04-.101.076-.165.073-.294-.006-.578.088-.871.091-.104 0-.205.01-.287.083h.003z" fill="#D78D29"/><path d="M5.398 27.603c-.315-.165-.528-.434-.745-.703.388-.006.77-.106 1.16-.085.05.046.101.092.147.14.165.18.4.29.52.514-.36.046-.721.091-1.085.134h.003z" fill="#E7B036"/><path d="M6.483 27.469c-.12-.223-.355-.333-.52-.514-.046-.048-.098-.094-.147-.14-.048-.055-.091-.116-.146-.165-.113-.104-.205-.217-.18-.385.39.354.766.727 1.173 1.06.635.52 1.277 1.036 2.001 1.433a.201.201 0 0 1-.083.122c-.394-.18-.724-.467-1.106-.666-.323-.256-.638-.525-.992-.745z" fill="#F4D042"/><path d="M26.999 25.99c0-.049 0-.095-.003-.143l1.164-1.507c.04.012.08.028.119.04-.037.12-.12.21-.183.318-.052.082-.166.152-.095.265.067.107.18.059.28.052.22-.018.444-.103.667-.012-.12.327-.351.578-.584.825-.03-.052-.076-.08-.134-.073-.416.052-.85-.006-1.228.235h-.003z" fill="#E2A632"/><path d="m29.977 23.31-.051.282c-.101.03-.156.107-.19.198-.095.25-.278.37-.544.391-.238.019-.47.07-.705-.012l.492-.867c.082.048.17.045.26.042.247-.009.494-.021.738-.033z" fill="#EFC43D"/><path d="m28.975 23.302-.492.867c-.067.07-.137.138-.204.208-.04-.012-.08-.028-.12-.04.294-.504.572-1.017.896-1.503.03.018.061.037.088.058-.003.159-.13.266-.168.41zM24.478 28.3c.248-.211.51-.404.782-.58.15.152.336.076.508.067.275-.016.543-.068.821-.062-.106.236-.375.318-.504.532-.397.01-.788.061-1.179.107-.147.018-.3.061-.425-.064h-.003z" fill="#DE9E30"/><path d="M26.59 27.725c-.276-.006-.548.05-.823.061-.17.01-.354.086-.507-.067l1.284-1.155c.271.019.54-.024.81-.058.137-.018.256-.003.35.104-.265.303-.531.602-.794.905l-.32.21z" fill="#D78D29"/><path d="M27.704 26.613c-.094-.11-.216-.122-.35-.104-.27.037-.539.077-.81.058.113-.223.354-.345.455-.577.379-.241.812-.183 1.228-.235.061-.006.104.021.134.073-.192.284-.394.562-.657.788v-.003z" fill="#DE9E30"/><path d="m11.224 30.115-1.637.128c-.07.006-.135.024-.18.083-.358-.126-.725-.242-1-.526a.272.272 0 0 1 .175-.052c.342.015.675-.08 1.014-.085a.25.25 0 0 0 .223-.123c.098 0 .195.01.287-.036l1.082.44.036.17z" fill="#E2A632"/><path d="M9.819 29.54a.263.263 0 0 1-.223.123c-.34.009-.672.1-1.014.085a.298.298 0 0 0-.175.052c-.192-.034-.345-.165-.528-.22l-.165-.165c.082-.073.183-.082.287-.082.293 0 .578-.098.87-.092.062 0 .117-.034.166-.073.26.125.522.247.782.372z" fill="#DB982D"/><path d="M28.975 23.302c.04-.144.165-.251.168-.41.263-.36.388-.785.58-1.18.053-.103.102-.21.154-.314.11.012.217 0 .324-.012.192-.018.39-.077.58.027-.04.177-.08.355-.116.535-.232.305-.303.684-.486 1.014-.067.12-.1.254-.201.355-.248.012-.495.024-.74.033-.088.003-.18.006-.26-.042l-.003-.006z" fill="#FADC46"/><path d="M30.781 21.41c-.19-.104-.385-.046-.58-.027-.11.012-.217.027-.324.012l.412-1.378c.022-.073.04-.147.058-.22.312-.052.623-.098.941-.082-.131.577-.229 1.164-.507 1.695z" fill="#EFC13C"/><path d="M23.204 30.081c-.354-.11-.706-.012-1.057.015-.394.03-.791.067-1.185.104a.342.342 0 0 1-.2-.037c.028-.02.05-.055.08-.06.617-.166 1.195-.474 1.858-.474.47 0 .938-.113 1.412-.083-.266.242-.547.456-.908.541v-.006z" fill="#EFC43D"/><path d="M5.487 26.265c-.025.168.067.281.18.385.055.049.098.11.147.165-.391-.021-.773.082-1.161.085-.19-.18-.38-.363-.572-.543-.015-.052-.033-.104-.049-.16a4.73 4.73 0 0 0 .78-.066c.216-.034.238-.123.097-.285-.107-.122-.229-.238-.29-.394.046 0 .092-.006.135-.006.244.272.488.547.733.819z" fill="#EFC13C"/><path d="M4.619 25.452c.061.156.183.272.29.394.14.162.12.251-.098.285-.256.04-.516.073-.779.067a2.36 2.36 0 0 1-.489-.623c.34-.034.688.018 1.012-.132a.45.45 0 0 1 .064.006v.003z" fill="#F4D042"/><path d="M29.733 20.585a9.472 9.472 0 0 1-.993 2.359c-.08-.058-.156-.03-.229.015-.095.058-.19.113-.284.168-1.473.844-2.951 1.675-4.418 2.533-1.442.843-2.887 1.68-4.335 2.509-1.216.696-2.426 1.405-3.64 2.104-.115.068-.195.15-.189.294-.88 0-1.747-.11-2.606-.318a.262.262 0 0 1 .129-.128c.81-.477 1.64-.92 2.444-1.412.736-.452 1.5-.867 2.248-1.301.862-.501 1.718-1.012 2.582-1.51 1.323-.76 2.65-1.512 3.972-2.273.642-.37 1.271-.767 1.919-1.124.59-.327 1.17-.666 1.753-1.002.364-.208.718-.434 1.088-.63.183-.097.327-.287.562-.28l-.003-.004z" fill="#D78D29"/><path d="M18.163 2.037c.65.08 1.292.183 1.912.403-.339.248-.717.431-1.078.642-1.045.608-2.09 1.219-3.132 1.827-.452.263-.907.52-1.356.785-.116.067-.254.122-.272.287-.715.171-1.433.327-2.114.617-1.384.59-2.619 1.388-3.645 2.5-.27.293-.483.635-.798.886-.064-.05-.128-.034-.192 0-.287.159-.584.305-.865.48-1.27.79-2.578 1.524-3.877 2.27-.235.134-.455.311-.73.372a8.7 8.7 0 0 1 .63-2.062.654.654 0 0 0 .268-.101c.513-.293 1.03-.584 1.54-.88 1.647-.956 3.29-1.919 4.94-2.872 1.94-1.121 3.887-2.233 5.83-3.351.864-.498 1.726-1 2.584-1.504.132-.076.294-.134.352-.3h.003z" fill="#DC9A2E"/><path d="M18.163 2.037c-.061.168-.22.223-.351.3-.859.503-1.724 1.005-2.585 1.503-1.943 1.118-3.89 2.23-5.83 3.351-1.65.953-3.293 1.916-4.94 2.872-.51.296-1.026.59-1.54.88a.654.654 0 0 1-.269.1c.168-.476.346-.95.642-1.365.15-.006.275-.082.4-.156 1.409-.815 2.817-1.634 4.226-2.45l4.103-2.37c1.482-.856 2.96-1.715 4.44-2.573.103-.062.222-.113.259-.251.486.012.974.024 1.445.159z" fill="#D78D29"/><path d="M29.733 20.585c-.235-.006-.376.184-.562.281-.37.193-.724.419-1.088.63-.583.336-1.164.675-1.753 1.002-.651.36-1.277.755-1.919 1.124-1.323.761-2.649 1.513-3.972 2.273-.864.498-1.72 1.009-2.581 1.51-.75.433-1.51.849-2.25 1.301-.803.492-1.634.935-2.443 1.412-.055.033-.104.07-.129.128-.336-.061-.672-.12-.99-.253.08-.15.242-.175.37-.248 1.76-1.02 3.52-2.035 5.276-3.052.107-.061.224-.113.26-.25.107-.028.211-.059.318-.083a10.446 10.446 0 0 0 4.962-2.622c.351-.33.632-.72.98-1.054.19.01.343-.094.495-.183 1.65-.956 3.297-1.919 4.947-2.875.122-.07.238-.165.394-.162-.061.385-.15.764-.318 1.118l.003.003zM15.642 30.564c-.006-.144.077-.226.19-.294 1.213-.702 2.422-1.411 3.638-2.105a468.483 468.483 0 0 0 4.336-2.508c1.463-.858 2.945-1.69 4.418-2.533.094-.055.19-.11.284-.168.076-.046.15-.073.229-.015-.22.486-.489.944-.828 1.357a.84.84 0 0 0-.37.122l-1.176.681c-.794.461-1.58.938-2.383 1.387-1.234.688-2.45 1.405-3.675 2.114-.868.501-1.736 1.006-2.597 1.516-.205.122-.431.214-.584.406-.495.076-.99.04-1.485.037l.003.003z" fill="#DB982D"/><path d="M17.13 30.527c.153-.195.382-.287.584-.406.861-.51 1.729-1.015 2.597-1.516 1.222-.709 2.44-1.426 3.675-2.114.804-.446 1.589-.926 2.383-1.387.391-.226.782-.455 1.177-.681a.83.83 0 0 1 .37-.122 11.05 11.05 0 0 1-1.467 1.817c-.223-.015-.358.16-.532.245-.804.403-1.561.889-2.346 1.326-.575.32-1.119.693-1.696 1.005-.67.36-1.32.758-1.98 1.137-.122.07-.232.15-.281.287-.639.21-1.305.287-1.968.372-.168.022-.336.059-.51.04l-.006-.003zM30.054 19.467c-.156-.006-.272.089-.394.162-1.65.956-3.297 1.916-4.947 2.875-.152.089-.305.19-.495.183.468-.696.969-1.375 1.311-2.148.315-.018.547-.22.795-.37.705-.424 1.439-.803 2.138-1.24.459-.287.969-.48 1.406-.803.14-.104.29-.183.47-.187-.06.517-.128 1.03-.28 1.528h-.004z" fill="#E2A632"/><path d="M20.726 2.66c.48.113.926.312 1.363.538-.046.03-.089.067-.135.095-.482.272-.95.57-1.445.825-.345.177-.657.421-1.002.595-.507.257-.965.593-1.479.837-.162.077-.348.178-.406.385a20.064 20.064 0 0 0-2.184-.097c.033-.208.216-.275.366-.36.727-.42 1.467-.82 2.188-1.247a71.185 71.185 0 0 1 2.737-1.57h-.003z" fill="#E8B337"/><path d="M7.699 27.893c-.443-.287-.87-.598-1.228-.992.052-.086.137-.129.223-.178.971-.568 1.943-1.136 2.911-1.707.162-.095.321-.184.505-.227.485.23.928.544 1.402.795 0 .116-.049.19-.15.247-.825.47-1.64.95-2.468 1.415-.395.22-.761.498-1.195.648z" fill="#FADC46"/><path d="M14.903 1.912c.327-.07.66-.037.993-.043a.362.362 0 0 1-.18.217c-1.296.751-2.591 1.506-3.89 2.255-1.652.956-3.308 1.91-4.964 2.865l-2.96 1.717c-.077.043-.15.11-.245.043a5.4 5.4 0 0 1 .55-.898c.11.055.201-.006.29-.055 1.338-.773 2.68-1.543 4.018-2.319 1.154-.67 2.297-1.357 3.461-2.007.926-.517 1.83-1.067 2.747-1.592.076-.046.159-.086.183-.183h-.003zM2.703 21.539a7.386 7.386 0 0 1-.522-1.534.668.668 0 0 0 .29-.098c.84-.492 1.677-.987 2.524-1.466.256-.147.483-.373.81-.382.091.534.256 1.048.397 1.57-.028.01-.055.015-.077.028-.88.48-1.738.999-2.603 1.506-.26.15-.504.339-.819.376z" fill="#E7B036"/><path d="M24.001 4.264c.413.232.795.51 1.14.834-.015.129-.12.178-.214.233-.953.556-1.928 1.081-2.869 1.662-.204.125-.406.256-.648.302-.449-.223-.898-.45-1.35-.672.012-.116.107-.153.19-.202.387-.235.779-.464 1.176-.684.864-.48 1.717-.98 2.575-1.476v.003z" fill="#FADC46"/><path d="M3.657 8.97c.094.067.17 0 .244-.043l2.96-1.718c1.654-.956 3.31-1.91 4.965-2.865 1.299-.752 2.591-1.504 3.89-2.255a.355.355 0 0 0 .18-.217c.275 0 .547.006.822.01-.034.137-.153.189-.26.25-1.479.858-2.96 1.717-4.44 2.572-1.368.791-2.737 1.58-4.102 2.371-1.409.816-2.817 1.635-4.226 2.45-.125.07-.247.15-.4.156.061-.269.202-.495.367-.712z" fill="#DE9E30"/><path d="M30.142 13.396c.175.452.132.941.236 1.403-.037.018-.077.033-.11.055-1.149.663-2.298 1.326-3.444 1.989-.119.067-.235.143-.381.143 0-.507 0-1.017.003-1.524.134-.086.262-.175.4-.254.825-.483 1.65-.968 2.478-1.442.26-.147.5-.345.818-.373v.003z" fill="#FADC46"/><path d="M30.335 17.936a.829.829 0 0 0-.47.187c-.437.324-.948.516-1.406.803-.7.437-1.433.813-2.139 1.24-.247.15-.48.355-.794.37.235-.522.403-1.069.58-1.61a.512.512 0 0 0 .276-.067c.956-.556 1.91-1.121 2.875-1.662.388-.217.748-.486 1.164-.66.033.47-.043.935-.086 1.402v-.003z" fill="#EBB839"/><path d="M1.87 18.566c-.117-.434-.144-.877-.166-1.323.083-.061.162-.128.25-.18.609-.349 1.217-.694 1.825-1.04.406-.228.819-.448 1.213-.696.229-.143.461-.269.712-.36-.055.507-.046 1.017-.055 1.524-.037.016-.077.03-.113.05-1.057.555-2.078 1.175-3.11 1.777-.175.101-.34.242-.56.245l.003.003z" fill="#FADC46"/><path d="M5.429 25.883a6.366 6.366 0 0 1-.902-1.081.453.453 0 0 1 .205-.196c.584-.333 1.158-.681 1.748-.999.495-.269.935-.63 1.457-.843.342.311.602.7.935 1.02a.763.763 0 0 1-.241.19c-.957.553-1.913 1.103-2.87 1.65-.125.073-.256.13-.335.262l.003-.003z" fill="#E8B337"/><path d="M17.955 26.442c-.033.138-.152.19-.26.25l-5.276 3.053c-.128.073-.29.098-.37.247-.378-.058-.733-.201-1.078-.357.061-.107.165-.165.266-.223l4.344-2.484c.135-.076.254-.165.309-.318.693.003 1.378-.08 2.065-.168z" fill="#E2A632"/><path d="M28.563 9.186c.241.4.495.798.654 1.24a.589.589 0 0 0-.266.101c-.474.279-.956.544-1.42.835-.584.363-1.22.632-1.773 1.044l-.596-1.277c.178-.152.395-.247.596-.363.623-.36 1.247-.721 1.87-1.079.308-.174.59-.403.938-.5h-.003z" fill="#DC9A2E"/><path d="M2.016 13.11c.275-.062.495-.24.73-.374 1.299-.745 2.606-1.478 3.877-2.27.278-.174.578-.32.865-.48.064-.036.128-.051.193 0l-.899 1.476a.537.537 0 0 0-.311.089c-.908.525-1.815 1.054-2.726 1.58-.641.37-1.286.733-1.93 1.1.006-.383.106-.75.204-1.116l-.003-.006z" fill="#E2A632"/><path d="M17.622 5.932c.058-.207.245-.308.407-.385.513-.244.971-.583 1.478-.837.346-.174.657-.418 1.002-.595.495-.254.963-.553 1.446-.825.049-.028.088-.062.134-.095.34.18.718.287 1.033.522-.18.22-.443.318-.678.453-1.045.607-2.096 1.206-3.144 1.808-.113.064-.23.135-.236.287-.48-.113-.959-.223-1.442-.336v.003z" fill="#EFC13C"/><path d="M26.812 6.702c.3.284.547.608.77.954a.9.9 0 0 1-.232.198c-.67.388-1.341.776-2.007 1.17-.385.226-.789.416-1.155.67-.315-.294-.58-.63-.868-.948.238-.137.477-.269.712-.41.923-.55 1.876-1.05 2.78-1.634z" fill="#E2A632"/><path d="M3.705 23.558a6.211 6.211 0 0 1-.608-1.121.601.601 0 0 0 .266-.101c.822-.47 1.647-.938 2.463-1.418.241-.14.5-.256.693-.47l.614 1.164c-.128.064-.262.12-.388.19-.574.32-1.148.64-1.72.97-.446.258-.883.523-1.326.786h.006z" fill="#D78D29"/><path d="M14.903 1.912c-.025.097-.104.14-.184.183-.916.528-1.823 1.075-2.746 1.592-1.164.65-2.307 1.338-3.462 2.007-1.338.776-2.68 1.546-4.017 2.319-.089.052-.178.11-.29.055.164-.269.345-.526.574-.742.15-.01.275-.09.4-.16a10122.783 10122.783 0 0 0 8.332-4.824c.125-.073.284-.122.317-.299a4.25 4.25 0 0 1 1.076-.131z" fill="#EFC13C"/><path d="M1.811 14.224c.645-.366 1.29-.73 1.931-1.1.91-.522 1.818-1.05 2.725-1.58a.595.595 0 0 1 .312-.088c-.232.407-.345.865-.56 1.277a.555.555 0 0 0-.329.095c-.202.128-.406.257-.614.376-.904.522-1.806 1.048-2.713 1.558-.272.153-.517.376-.85.403-.018-.32.034-.635.095-.947l.003.006z" fill="#EBB839"/><path d="M15.89 26.61c-.055.153-.174.242-.309.318l-4.344 2.484c-.101.058-.205.116-.266.223a4.063 4.063 0 0 1-.908-.376c.104-.183.3-.235.465-.327 1.231-.712 2.441-1.457 3.697-2.132.116-.065.22-.14.263-.275.47-.003.934.055 1.402.085z" fill="#E7B036"/><path d="M1.716 15.171c.333-.027.575-.25.85-.403.91-.51 1.812-1.036 2.713-1.558.208-.12.412-.248.614-.376.1-.064.208-.1.33-.095-.113.4-.226.801-.342 1.204-.199.01-.367.11-.532.205-.852.498-1.699 1.002-2.554 1.494-.367.21-.712.464-1.115.608-.01-.357-.04-.718.036-1.075v-.004z" fill="#EFC43D"/><path d="M13.825 2.043c-.031.177-.193.226-.318.3-.8.467-1.604.931-2.408 1.396C9.126 4.88 7.152 6.027 5.175 7.167c-.125.07-.247.15-.4.159.229-.38.528-.694.85-.993a.487.487 0 0 0 .231-.077L9.092 4.4c.507-.29 1.011-.584 1.518-.874.602-.345 1.201-.69 1.803-1.039.08-.046.15-.1.171-.195.4-.15.822-.193 1.238-.251l.003.003z" fill="#F4D042"/><path d="M28.563 9.186c-.348.098-.63.327-.938.501-.626.355-1.25.715-1.87 1.079-.201.116-.415.21-.595.363-.245-.296-.404-.647-.633-.953a.505.505 0 0 0 .257-.07l3.208-1.87c.238.287.434.602.574.95h-.003z" fill="#D78D29"/><path d="M19.064 6.268c.01-.152.122-.223.235-.287 1.048-.602 2.1-1.2 3.144-1.808.236-.138.498-.233.679-.453.305.162.614.318.88.544-.859.492-1.711.996-2.576 1.476-.397.22-.788.449-1.176.684-.083.05-.178.086-.19.202-.333-.12-.666-.235-.996-.354v-.004z" fill="#F4D042"/><path d="M30.424 16.534c-.416.174-.776.443-1.164.66-.966.54-1.92 1.106-2.875 1.662a.461.461 0 0 1-.275.067c.08-.357.159-.715.235-1.07.1 0 .186-.036.272-.085.214-.128.427-.247.641-.372.828-.48 1.653-.96 2.481-1.433.22-.125.422-.29.678-.336-.006.302.077.605.004.907h.003z" fill="#EFC43D"/><path d="M1.683 16.247c.403-.144.748-.397 1.115-.608.856-.489 1.702-.996 2.554-1.494.165-.095.333-.196.532-.205-.122.333-.067.694-.18 1.03-.25.091-.486.217-.712.36-.394.248-.807.465-1.213.697-.608.345-1.216.69-1.824 1.039-.089.052-.168.119-.25.18-.059-.333-.034-.666-.022-1zM7.699 27.893c.434-.146.8-.427 1.194-.647.828-.462 1.647-.944 2.469-1.415.1-.058.153-.134.15-.247l1.045.418c-.083.16-.251.205-.388.29-.755.474-1.531.905-2.304 1.348-.452.26-.908.507-1.335.806-.297-.155-.584-.323-.831-.55v-.003z" fill="#F4D042"/><path d="M19.608 30.115c.052-.138.162-.217.281-.287.66-.38 1.31-.777 1.98-1.137.577-.312 1.121-.684 1.696-1.005.785-.437 1.543-.923 2.346-1.326.174-.089.309-.263.532-.245-.96 1.085-2.1 1.937-3.355 2.637-1.072.599-2.197 1.079-3.4 1.35-.028.006-.055.006-.083.013h.003z" fill="#E7B036"/><path d="M8.53 28.447c.428-.3.883-.547 1.335-.807.773-.443 1.549-.874 2.304-1.348.137-.085.305-.13.388-.29l.944.303c-.012.107-.086.168-.171.217-.798.467-1.601.929-2.393 1.408-.537.327-1.118.584-1.628.956a3.71 3.71 0 0 1-.78-.443v.003z" fill="#EFC43D"/><path d="M6.523 20.45c-.193.215-.453.33-.694.471-.819.477-1.64.945-2.463 1.418a.603.603 0 0 1-.265.1c-.162-.286-.312-.577-.394-.897.314-.037.559-.227.818-.376.868-.504 1.724-1.027 2.603-1.506.025-.013.052-.019.077-.028.125.266.229.54.32.819h-.002z" fill="#DE9E30"/><path d="M12.587 2.294c-.024.094-.094.15-.17.195-.603.345-1.201.69-1.803 1.039-.508.29-1.012.583-1.519.874-1.078.62-2.157 1.237-3.235 1.857a.43.43 0 0 1-.233.077c.422-.514.923-.941 1.44-1.35 1.39-1.104 2.926-1.938 4.625-2.457.293-.089.596-.156.892-.235h.003z" fill="#FADC46"/><path d="M30.143 13.396c-.318.028-.56.223-.82.373-.83.474-1.652.96-2.477 1.442-.137.08-.266.168-.4.254-.037-.318-.07-.636-.107-.954.116-.073.229-.15.348-.22.996-.58 1.995-1.16 2.991-1.744a.477.477 0 0 1 .257-.061c.116.293.192.593.21.907l-.002.003z" fill="#F4D042"/><path d="M9.309 28.89c.51-.376 1.088-.633 1.628-.957.792-.48 1.595-.94 2.393-1.408.085-.05.158-.11.17-.217.343.015.655.156.988.217-.04.137-.144.214-.263.275-1.253.672-2.466 1.42-3.697 2.132-.165.095-.36.147-.465.327a3.674 3.674 0 0 1-.754-.37z" fill="#EBB839"/><path d="M10.11 24.792a1.785 1.785 0 0 0-.505.226c-.968.572-1.94 1.14-2.911 1.708-.083.05-.168.092-.223.178-.251-.144-.437-.358-.62-.575.057-.08.143-.125.222-.177.957-.602 1.968-1.112 2.918-1.723a1.05 1.05 0 0 1 .434-.18c.217.195.516.287.684.543zM30.418 15.627c-.26.045-.462.21-.679.336-.83.473-1.656.956-2.48 1.433-.214.125-.431.244-.642.372a.486.486 0 0 1-.272.086c0-.293.052-.58.095-.868.143 0 .262-.076.382-.143 1.148-.663 2.297-1.326 3.443-1.99.037-.02.073-.036.11-.054.018.275.07.547.043.825v.003z" fill="#F4D042"/><path d="M20.726 2.66a73.62 73.62 0 0 0-2.737 1.57c-.721.428-1.46.829-2.188 1.247-.15.086-.333.15-.366.36-.4.05-.8.098-1.201.147.018-.165.156-.22.272-.287.449-.266.904-.522 1.356-.785 1.045-.608 2.087-1.22 3.132-1.827.36-.211.74-.394 1.079-.642.216.074.449.101.65.217h.003z" fill="#E2A632"/><path d="M1.87 18.566c.22-.003.384-.144.558-.245 1.033-.602 2.053-1.222 3.11-1.778.037-.018.077-.033.114-.049l.045.825a.445.445 0 0 0-.192.07c-.727.42-1.451.84-2.185 1.247-.43.238-.83.544-1.301.706a3.196 3.196 0 0 1-.147-.776H1.87z" fill="#F4D042"/><path d="M25.718 5.596c.233.153.416.358.593.569-.116.13-.272.207-.418.293-.945.562-1.916 1.078-2.848 1.662a.684.684 0 0 1-.302.119 4.852 4.852 0 0 1-.58-.452c.186-.156.402-.26.61-.379.908-.525 1.818-1.054 2.725-1.58.098-.055.187-.116.22-.232z" fill="#EFC43D"/><path d="M25.718 5.596c-.03.116-.122.177-.22.232-.91.526-1.817 1.051-2.725 1.58-.207.12-.427.223-.61.379a6.36 6.36 0 0 1-.752-.492c.241-.049.446-.177.647-.302.941-.581 1.913-1.106 2.87-1.663.094-.055.198-.103.213-.232.214.14.416.297.578.498z" fill="#F4D042"/><path d="M7.94 22.76c-.522.215-.962.578-1.457.844-.59.32-1.167.666-1.748.999a.453.453 0 0 0-.205.195c-.174-.204-.345-.409-.455-.66a.549.549 0 0 1 .202-.17c.813-.474 1.62-.95 2.435-1.418.247-.144.48-.324.76-.407.184.184.324.4.471.612l-.003.006z" fill="#E2A632"/><path d="M25.755 12.406c.553-.412 1.192-.68 1.772-1.045.468-.29.947-.556 1.42-.834a.601.601 0 0 1 .267-.1c.085.253.247.473.296.742a.584.584 0 0 0-.33.095c-.516.3-1.036.59-1.549.892-.54.32-1.106.602-1.631.953-.113-.223-.178-.464-.251-.703h.006z" fill="#E7B036"/><path d="M22.743 8.24a.671.671 0 0 0 .302-.12c.932-.584 1.904-1.1 2.848-1.662.146-.089.302-.162.418-.293.208.143.336.357.498.54-.904.584-1.857 1.085-2.78 1.635-.235.14-.474.275-.712.41-.229-.129-.403-.318-.577-.51h.003z" fill="#EBB839"/><path d="M29.932 12.489a.506.506 0 0 0-.257.061c-.996.58-1.995 1.161-2.991 1.745-.12.07-.232.146-.348.22-.074-.22-.101-.45-.138-.679.067-.11.174-.174.281-.235.93-.535 1.858-1.066 2.79-1.598.143-.082.284-.171.458-.171.052.226.196.422.205.66v-.003zM2.016 19.342c.474-.165.87-.468 1.302-.706.733-.406 1.457-.83 2.184-1.246a.488.488 0 0 1 .193-.07l.106.742c-.323.009-.55.235-.81.382-.845.476-1.683.974-2.523 1.466a.712.712 0 0 1-.29.098c-.098-.21-.15-.43-.165-.66l.003-.006z" fill="#EFC43D"/><path d="M29.727 11.829c-.174 0-.315.089-.458.171-.932.532-1.861 1.066-2.79 1.598-.107.061-.214.125-.28.235a3.465 3.465 0 0 1-.193-.724c.522-.351 1.087-.635 1.631-.953.513-.303 1.036-.593 1.55-.892a.577.577 0 0 1 .33-.095c.094.21.192.425.213.66h-.003z" fill="#EBB839"/><path d="m27.989 8.236-3.208 1.87a.506.506 0 0 1-.257.07 3.123 3.123 0 0 1-.34-.483c.367-.253.774-.443 1.156-.669.666-.394 1.338-.782 2.007-1.17a.852.852 0 0 0 .232-.198c.174.168.309.36.41.58zM7.47 22.15c-.281.082-.51.262-.761.406-.816.464-1.626.944-2.435 1.418a.522.522 0 0 0-.202.17 2.001 2.001 0 0 1-.366-.583c.443-.263.88-.528 1.326-.785.57-.327 1.145-.65 1.72-.972.125-.07.26-.128.388-.189.122.171.253.34.333.535H7.47z" fill="#DB982D"/><path d="M9.425 24.245a1.092 1.092 0 0 0-.434.18c-.953.612-1.962 1.122-2.918 1.724-.082.052-.165.098-.223.177a1.63 1.63 0 0 1-.422-.446c.08-.128.208-.19.337-.263.959-.547 1.915-1.097 2.868-1.65a.808.808 0 0 0 .242-.189c.217.116.385.29.55.468z" fill="#EFC43D"/><path d="M9.819 29.54c-.26-.125-.523-.247-.782-.372-.138-.116-.333-.144-.455-.288.042-.03.07-.07.082-.122l1.442.746c-.091.045-.19.033-.287.036z" fill="#E8B337"/><path d="M4.62 25.452a.45.45 0 0 1-.065-.006c-.275-.415-.617-.785-.846-1.231h.156l.889 1.228c-.046 0-.092.006-.135.006v.003z" fill="#DE9E30"/><path d="M2.098 20.872c-.073-.134-.082-.302-.198-.415 0-.254-.162-.483-.132-.742.04 0 .08 0 .12-.003.14.378.244.766.339 1.157h-.129v.003z" fill="#E8B337"/><path d="M9.425 24.245c-.168-.174-.333-.35-.55-.467-.333-.32-.593-.709-.935-1.02-.147-.211-.284-.428-.47-.611-.08-.199-.211-.364-.334-.535l-.614-1.164a7.213 7.213 0 0 0-.32-.819c-.141-.522-.309-1.036-.398-1.57-.036-.248-.07-.495-.107-.743l-.045-.825c.009-.51 0-1.017.055-1.524.11-.333.055-.697.18-1.03.113-.4.226-.8.342-1.204.21-.415.327-.873.56-1.277l.897-1.475c.315-.25.529-.596.798-.886 1.026-1.11 2.26-1.91 3.645-2.5.681-.29 1.399-.449 2.114-.617l1.2-.146c.73-.016 1.458.033 2.185.097.48.113.96.223 1.442.336.333.12.666.236.996.355.45.223.899.449 1.35.672.242.177.486.348.752.492.184.165.376.318.58.452.175.19.35.379.578.51.284.321.553.657.868.947.095.175.217.327.34.483.228.306.39.657.632.953l.595 1.277c.074.239.138.477.25.703.047.248.096.492.193.724.037.23.064.458.138.678.036.318.07.636.107.954 0 .507 0 1.017-.003 1.524-.043.287-.092.575-.095.868-.08.358-.159.715-.235 1.07-.18.54-.346 1.087-.58 1.61-.343.772-.844 1.45-1.312 2.147-.348.33-.629.724-.98 1.054a10.434 10.434 0 0 1-4.962 2.622c-.107.024-.21.055-.318.082-.684.089-1.371.171-2.065.168-.467-.033-.935-.091-1.402-.085-.33-.061-.645-.202-.987-.217l-.944-.303-1.045-.418c-.474-.25-.917-.565-1.403-.795-.168-.26-.467-.35-.684-.543l-.01-.003zm16.782-8.02A10.136 10.136 0 0 0 16.057 6.08c-5.624 0-10.161 4.55-10.161 10.183 0 5.527 4.604 10.1 10.156 10.095 5.597-.006 10.158-4.559 10.152-10.131h.003z" fill="#8D6020"/><path d="M26.207 16.229c.006 5.572-4.558 10.125-10.152 10.13-5.552.007-10.156-4.567-10.156-10.094 0-5.634 4.537-10.183 10.162-10.183a10.136 10.136 0 0 1 10.15 10.146h-.004zM7.76 21.195c-.034.08.009.132.082.174.08.046.16.113.165.202.016.388.38.535.562.807.08.119.178.275.315.342.269.125.416.357.56.587.112.177.247.308.448.372.358.116.547.47.886.611.006 0 .01.01.013.016.085.168.229.216.409.265.241.068.468.22.663.36.208.15.412.233.648.267.125.018.22.046.284.165.064.119.177.137.305.11.144-.03.29-.04.404.082.1.11.204.153.339.046.049-.04.122-.034.18-.012.21.076.412.162.642.208.238.048.473.11.715.091.204-.015.394.089.592.046a3.88 3.88 0 0 1 1.513-.046c.107.018.19 0 .235-.113.043-.113.143-.143.238-.1.205.091.367.033.535-.086a.686.686 0 0 1 .269-.104c.351-.067.687-.196 1.045-.238.07-.01.14-.016.192-.068.147-.152.355-.198.532-.299.113-.064.192-.199.33-.202.207-.006.336-.128.476-.253.22-.196.407-.446.734-.492a.295.295 0 0 0 .235-.187c.064-.192.195-.323.351-.446.113-.088.208-.198.294-.317.158-.211.473-.27.556-.556.003-.013.036-.016.051-.028.202-.18.444-.327.45-.648 0-.113.06-.201.162-.271.232-.16.406-.395.522-.636.104-.21.241-.437.19-.703-.016-.067.042-.107.097-.143.239-.15.431-.62.364-.895-.046-.193-.019-.358.146-.48a.278.278 0 0 0 .104-.33c-.11-.333.196-.608.116-.932 0-.006.006-.012.01-.018a.176.176 0 0 0 .015-.178c-.061-.137-.025-.262.012-.4.086-.314.186-.62.043-.962-.107-.257-.217-.544-.052-.834.03-.055-.01-.12-.024-.18-.062-.22-.172-.428-.086-.679.037-.107.003-.308-.1-.33-.248-.052-.178-.186-.148-.333.01-.049-.009-.11-.02-.162a2.41 2.41 0 0 0-.395-.834.93.93 0 0 1-.153-.397c-.06-.357-.119-.724-.5-.91-.038-.019-.08-.07-.083-.11-.019-.144-.03-.272-.227-.266-.055 0-.07-.074-.067-.135 0-.04.025-.104-.012-.116-.18-.049-.162-.195-.18-.327a.184.184 0 0 0-.101-.146c-.51-.242-.785-.749-1.213-1.085-.03-.024-.04-.07-.058-.107-.021-.052-.046-.119-.1-.125-.276-.018-.312-.437-.636-.373-.016.003-.055-.043-.064-.073-.068-.187-.22-.239-.392-.248a.371.371 0 0 1-.314-.168c-.037-.052-.086-.097-.147-.11-.339-.064-.556-.345-.85-.485-.213-.104-.448-.248-.665-.233-.223.016-.343-.07-.492-.174a.593.593 0 0 0-.226-.095 8.539 8.539 0 0 0-1.042-.143.74.74 0 0 1-.241-.049c-.34-.147-.721-.125-1.048-.07-.27.046-.504.107-.764.012a.162.162 0 0 0-.101 0c-.293.07-.602.11-.874.23-.272.118-.565-.044-.819.118-.226-.128-.348.034-.461.177-.1.126-.208.172-.357.113-.147-.055-.272-.009-.413.052-.318.135-.483.517-.874.532-.021 0-.046.03-.064.049a.692.692 0 0 1-.324.171c-.183.052-.406.058-.467.309-.006.027-.046.067-.07.067-.227.012-.324.18-.431.342-.064.098-.171.128-.275.171-.196.086-.41.15-.535.345-.14.217-.305.404-.535.532a.478.478 0 0 0-.226.263c-.14.427-.623.647-.678 1.127-.003.034-.052.064-.082.089-.27.204-.385.513-.459.81-.07.287-.256.51-.342.784-.043.138-.174.242-.098.41.028.061-.012.104-.064.134-.043.025-.082.055-.08.11.02.236-.222.419-.13.672.009.022-.034.059-.046.09-.083.21-.208.412-.141.656.01.04.024.1.003.12-.168.173-.01.375-.052.543-.088.348-.033.666.07.996.043.138-.033.306 0 .45.126.567.01 1.17.236 1.722.006.012.009.03.003.04-.074.177.042.3.15.394.097.086.11.165.079.269-.034.122-.022.232.098.309.152.097.204.244.213.421.022.342.132.645.44.843.07.046.129.107.095.217H7.76z" fill="#DE9E30"/><path d="M7.757 21.193c.033-.11-.022-.17-.095-.217-.309-.198-.419-.5-.44-.843-.01-.177-.061-.324-.214-.421-.119-.077-.131-.184-.098-.309.028-.107.016-.183-.079-.269-.107-.095-.223-.217-.15-.394.006-.012 0-.027-.003-.04-.226-.553-.107-1.155-.235-1.723-.03-.143.046-.311 0-.449-.104-.33-.159-.645-.07-.996.042-.168-.116-.37.052-.544.018-.021.006-.08-.003-.119-.068-.244.058-.446.14-.657.012-.03.052-.067.046-.088-.092-.251.147-.437.131-.673-.003-.055.037-.085.08-.11.052-.03.091-.073.064-.134-.076-.168.055-.272.098-.41.085-.274.272-.498.342-.785.073-.296.19-.605.458-.81.034-.024.08-.054.083-.088.055-.48.537-.7.678-1.127a.488.488 0 0 1 .226-.263c.23-.128.397-.312.535-.532.125-.195.339-.26.534-.345.101-.046.208-.076.275-.171.107-.159.202-.33.431-.342.025 0 .064-.04.07-.067.058-.25.282-.257.468-.309a.655.655 0 0 0 .324-.171c.018-.018.043-.049.064-.049.39-.012.553-.397.874-.532.14-.058.265-.107.412-.052.153.059.26.013.358-.113.116-.143.238-.305.46-.177.255-.162.548 0 .82-.119.272-.12.58-.159.873-.23.034-.008.07-.008.101 0 .26.093.498.032.764-.011.327-.055.709-.077 1.048.07.08.034.159.043.242.049.35.021.696.076 1.041.143.08.016.162.05.226.095.15.104.27.193.492.174.217-.015.453.132.666.233.294.14.508.421.85.485.06.013.11.055.146.11.077.11.178.16.315.168.171.01.327.061.391.248.01.03.049.076.064.073.324-.064.36.355.636.373.052.003.076.073.1.125.016.037.028.086.059.107.427.336.702.843 1.213 1.085a.19.19 0 0 1 .1.146c.019.132 0 .278.18.327.037.01.016.077.013.116-.003.058.012.135.067.135.196-.006.21.125.226.266.006.04.046.091.083.11.382.186.44.553.5.91.025.147.071.275.153.397.18.257.321.529.395.834.012.052.03.11.021.162-.03.147-.1.281.147.333.107.022.137.223.1.33-.082.25.025.458.086.678.015.062.055.123.024.18-.165.291-.055.578.052.835.144.342.043.648-.042.962-.037.138-.074.263-.013.4a.176.176 0 0 1-.015.178c-.003.006-.012.012-.009.018.08.324-.226.599-.116.932.04.122.015.244-.104.33-.165.122-.192.287-.147.48.068.274-.125.745-.363.895-.055.036-.113.073-.098.143.055.266-.085.492-.19.703-.119.241-.29.474-.522.636-.1.07-.162.155-.162.271-.006.321-.247.47-.449.648-.015.012-.049.015-.052.028-.082.29-.397.345-.556.556a1.71 1.71 0 0 1-.293.317c-.153.123-.287.251-.352.447a.29.29 0 0 1-.235.186c-.327.046-.513.296-.733.492-.14.125-.269.247-.477.253-.137.003-.217.138-.33.202-.177.1-.382.15-.531.3-.05.051-.123.057-.193.067-.357.042-.693.17-1.045.238a.706.706 0 0 0-.268.104c-.169.119-.33.18-.535.085-.092-.042-.193-.012-.239.101-.042.113-.128.132-.235.113a3.821 3.821 0 0 0-1.512.046c-.199.046-.391-.061-.593-.046-.241.019-.476-.046-.715-.091-.229-.046-.43-.132-.641-.208-.058-.022-.132-.025-.18.012-.135.107-.239.061-.34-.046-.113-.122-.26-.113-.403-.082-.125.027-.241.012-.306-.11-.064-.12-.158-.15-.284-.165a1.388 1.388 0 0 1-.647-.266c-.196-.14-.422-.293-.663-.36-.178-.05-.324-.098-.41-.266 0-.006-.009-.013-.012-.016-.34-.14-.529-.498-.886-.61-.199-.065-.336-.196-.45-.373-.143-.23-.292-.462-.558-.587-.14-.064-.236-.22-.315-.342-.18-.272-.547-.416-.562-.807-.003-.088-.086-.156-.165-.201-.073-.043-.116-.098-.083-.175h.019zm8.127 2.069c1.237-.003 1.643-.08 2.704-.477.082-.03.17-.061.256-.073.193-.025.352-.113.504-.22.086-.058.18-.098.27-.147.262-.146.552-.275.76-.486.25-.253.544-.464.76-.754.328-.437.792-.752 1.049-1.259.232-.458.476-.929.586-1.412.116-.516.318-1.02.312-1.58-.006-.534.058-1.068-.03-1.6-.095-.568-.193-1.137-.422-1.674-.095-.223-.284-.38-.345-.627a1.886 1.886 0 0 0-.557-.947c-.317-.293-.55-.66-.867-.95-.425-.388-.786-.87-1.406-.987-.052-.009-.097-.049-.146-.073-.233-.128-.453-.309-.703-.379-.336-.095-.672-.202-1.011-.284-.782-.186-1.568-.306-2.362-.067-.027.009-.058.018-.08.012-.36-.125-.696.064-1.017.134-.767.168-1.427.617-2.108 1-.37.207-.617.565-.944.827-.37.297-.639.69-.932 1.06-.26.327-.385.73-.574 1.094-.147.284-.303.602-.342.941-.037.284-.095.566-.141.844-.064.394-.049.779-.064 1.17-.012.275-.061.556-.012.822.064.36.158.72.253 1.078.193.727.623 1.341.972 1.992.19.352.495.593.779.865.4.385.782.776 1.255 1.087.541.36 1.162.523 1.73.807.122.061.257.107.39.125.523.074 1.046.187 1.486.135l-.003.003z" fill="#E2A632"/><path d="M15.884 23.265c-.44.052-.96-.064-1.485-.135a1.275 1.275 0 0 1-.391-.125c-.568-.284-1.189-.446-1.73-.806-.47-.312-.852-.703-1.255-1.088-.284-.272-.59-.513-.78-.865-.35-.65-.778-1.268-.97-1.992a14.912 14.912 0 0 1-.254-1.078c-.05-.263 0-.547.012-.822.015-.388 0-.776.064-1.17.046-.281.107-.563.14-.844.043-.339.196-.653.343-.94.19-.364.311-.768.574-1.094.293-.37.562-.764.932-1.06.327-.263.574-.624.944-.829.681-.381 1.341-.83 2.108-.999.324-.07.66-.256 1.018-.134.024.01.055-.003.079-.012.794-.239 1.576-.12 2.362.067.342.082.675.19 1.011.284.25.07.47.248.703.379.049.027.094.064.146.073.618.116.978.6 1.406.987.317.29.55.657.867.95.275.25.468.584.556.947.062.248.251.404.346.627.232.537.327 1.106.421 1.674.089.532.025 1.07.03 1.601.007.56-.195 1.06-.31 1.58-.108.482-.355.953-.587 1.411-.26.51-.721.822-1.048 1.259-.217.29-.51.498-.761.755-.205.207-.498.336-.76.485-.09.05-.184.089-.27.147a1.133 1.133 0 0 1-.504.22 1.235 1.235 0 0 0-.256.073c-1.06.397-1.467.474-2.704.477l.003-.003zm.333-3.162c2.126-.065 3.724-1.724 3.74-3.893.015-2.169-1.733-3.89-3.936-3.883-2.175.006-3.895 1.851-3.856 3.877.043 2.163 1.644 3.969 4.052 3.896v.003z" fill="#E8B337"/><path d="M16.22 20.103c-2.405.07-4.009-1.733-4.052-3.896-.04-2.025 1.68-3.87 3.856-3.877 2.203-.006 3.954 1.711 3.935 3.883-.015 2.166-1.613 3.828-3.74 3.893v-.003zm-1.403-3.844c-.003.587.639 1.262 1.195 1.268.788.01 1.32-.791 1.32-1.265 0-.583-.62-1.31-1.13-1.286-.884.04-1.327.44-1.385 1.283z" fill="#EFC13C"/><path d="M14.817 16.26c.062-.844.502-1.244 1.384-1.284.51-.025 1.134.703 1.13 1.286 0 .474-.534 1.274-1.319 1.265-.56-.006-1.198-.681-1.195-1.268z" fill="#F4D042"/></svg>