<svg width="38" height="38" fill="none" xmlns="http://www.w3.org/2000/svg"><path d="M3.011 18.978a17.13 17.13 0 0 1 .425-3.636c.336-1.521.92-2.951 1.69-4.295.51-.886 1.097-1.73 1.775-2.503 1.13-1.283 2.413-2.38 3.886-3.253.91-.541 1.867-.987 2.869-1.342a14.917 14.917 0 0 1 2.786-.712c1.326-.204 2.665-.29 4.009-.143.52.055 1.039.113 1.546.226 1.02.226 2.016.52 2.99.907.646.26 1.278.532 1.88.874a15.83 15.83 0 0 1 2.566 1.79 15.842 15.842 0 0 1 5.31 9.402c.174 1.026.26 2.059.236 3.098-.019.812-.132 1.616-.26 2.416-.293 1.827-.96 3.523-1.867 5.124a15.577 15.577 0 0 1-2.181 2.936 15.539 15.539 0 0 1-3.56 2.85 15.95 15.95 0 0 1-3.642 1.568 16.94 16.94 0 0 1-2.783.559 15.016 15.016 0 0 1-3.355 0c-.43-.049-.858-.104-1.283-.171a9.518 9.518 0 0 1-1.078-.25c-1.354-.383-2.658-.884-3.88-1.59a16.414 16.414 0 0 1-2.512-1.76 15.855 15.855 0 0 1-5.331-9.394c-.14-.89-.242-1.79-.236-2.7zm21.775 14.69a5.352 5.352 0 0 0 1.235-.541c.07-.021.146-.037.213-.07A19.749 19.749 0 0 0 28 32.009c.077-.052.14-.11.165-.202.364-.134.627-.412.91-.657.23-.18.46-.36.685-.547.061-.052.122-.11.14-.195a.454.454 0 0 0 .169-.113c.418-.407.834-.819 1.182-1.287.364-.485.773-.944 1.042-1.497.248-.311.477-.638.58-1.03.034-.033.08-.06.101-.103.254-.526.58-1.017.721-1.592.022-.027.05-.052.062-.08.22-.54.418-1.09.543-1.661.092-.422.272-.825.263-1.268.104-.324.14-.657.165-.993.095-.45.089-.905.086-1.36a.684.684 0 0 0 .04-.302c-.016-.437-.034-.874-.053-1.311a14.842 14.842 0 0 0-.522-3.015c-.122-.434-.238-.874-.446-1.28-.116-.51-.355-.972-.593-1.434a4.776 4.776 0 0 0-.617-1.12c-.137-.23-.202-.511-.455-.66a.728.728 0 0 0-.33-.496.344.344 0 0 0-.083-.226c-.44-.52-.843-1.066-1.332-1.54-.266-.256-.489-.556-.81-.754-.33-.278-.601-.627-.998-.825-.38-.373-.831-.645-1.28-.92-.29-.18-.566-.394-.896-.498a7.085 7.085 0 0 0-1.494-.7c-.217-.137-.464-.192-.703-.274-.204-.117-.437-.153-.663-.208-.244-.077-.485-.174-.742-.205-.305-.08-.605-.186-.913-.238-.981-.168-1.971-.263-2.967-.217-.239 0-.477-.003-.718-.003-.327 0-.657-.01-.975.08-.116.008-.232.018-.345.027-.526.046-1.033.186-1.552.272-.015.012-.03.024-.046.033h-.003c-.391.07-.773.177-1.146.309-.183.064-.39.082-.543.229a.997.997 0 0 0-.398.095c-.751.305-1.478.663-2.184 1.063-.236.131-.514.21-.679.449a3.958 3.958 0 0 0-1.112.788 1.504 1.504 0 0 0-.308.205A19.39 19.39 0 0 0 7.57 8.019c-.376.391-.749.785-1.045 1.246-.278.26-.467.584-.66.908-.226.312-.464.614-.577.993a.194.194 0 0 0-.14.137c-.059.199-.175.367-.276.544a.537.537 0 0 0-.076.272.46.46 0 0 0-.165.208c-.235.489-.44.987-.623 1.497-.083.226-.196.443-.162.694-.016.012-.028.027-.043.04-.037.103-.08.204-.104.31-.22.92-.43 1.843-.51 2.787-.016.468-.028.935-.043 1.403.015.44.01.88.049 1.316a16.105 16.105 0 0 0 1.378 5.2.98.98 0 0 0 .22.346c0 .085.024.162.064.235.3.553.605 1.1.968 1.616.245.464.614.843.917 1.265a.374.374 0 0 0 .199.14c.07.166.17.312.299.438.357.357.712.717 1.072 1.072.156.153.327.287.526.385.244.278.513.522.864.663.306.324.679.553 1.079.742.061.046.116.095.18.135.941.547 1.907 1.042 2.958 1.353.3.092.58.254.907.25a4.889 4.889 0 0 0 1.53.33c.086.117.224.098.34.114.904.11 1.809.168 2.72.131.525.043 1.041-.061 1.56-.095.129-.009.263-.012.382-.073.373-.055.752-.08 1.11-.21a8.288 8.288 0 0 0 1.114-.285c.413-.12.831-.22 1.207-.443l-.003-.015z" fill="#E38A33"/><path d="M13.632 4.145c.152-.144.357-.165.543-.23a7.378 7.378 0 0 1 1.146-.31c.018.085.04.164.156.143.55-.101 1.103-.205 1.653-.303.1-.018.137-.076.137-.17.321-.09.648-.08.975-.08.238 0 .476 0 .718.003.107.269.348.217.55.198.455-.045.901.043 1.35.083.58.049 1.152.174 1.727.275.106.018.207.03.256-.098.257.03.498.128.742.205-.094.14-.232.128-.366.091a1.6 1.6 0 0 0-.59-.036c-.373.04-.748.07-1.121.113-.434.046-.874.052-1.305.137-.094.019-.217.006-.244.144-.217.003-.43.006-.648.012-.116 0-.232.006-.308.116-.69-.009-1.372.095-2.06.132-.06-.104-.152-.123-.265-.104-.666.11-1.32.256-1.968.443-.403.116-.791.278-1.192.397a.236.236 0 0 0-.18-.028c-.336.114-.69.114-1.035.135-.355.021-.706.11-1.064.052.089-.122.226-.174.352-.245a14.534 14.534 0 0 1 1.772-.818c.125-.05.238-.107.278-.25l-.01-.007z" fill="#EBB839"/><path d="M23.58 34.11c-.364.12-.737.22-1.116.285-.055-.058-.125-.1-.198-.095-.309.028-.623.025-.917.15-.15.012-.3.027-.449.04-.498.042-.993.082-1.49.125-1.01.006-2.011-.1-3.01-.202-.462-.125-.923-.235-1.403-.262-.024-.062-.07-.095-.134-.114-.061-.018-.162-.009-.15-.103.012-.08.11-.068.174-.074.6-.055 1.195-.107 1.794-.159.134-.012.278.007.379-.116.427.016.849.104 1.277.07a.3.3 0 0 0 .177.043c.507.019 1.011-.012 1.515-.055.306-.027.614-.024.914-.104.531-.027 1.045-.17 1.567-.253.293.037.584 0 .874-.022.642-.055 1.28-.119 1.919-.18.082-.006.168-.006.22.077l-.782.375c-.367.061-.685.26-1.042.352-.098.024-.116.125-.123.217l.003.006z" fill="#FADC46"/><path d="M11.23 5.456c.358.06.712-.028 1.063-.052.346-.022.7-.022 1.036-.135.058-.021.122-.003.18.028-.757.37-1.537.696-2.255 1.149-.201.128-.43.18-.662.204-.404.046-.807.077-1.21.11-.07.006-.135.01-.193.055-.324.25-.65.504-.94.795-.05.048-.11.1-.074.177.043.088.128.058.201.049.233-.03.462-.07.697-.055.067.003.15-.019.183.058.034.076-.04.125-.085.17l-.944.89c-.046-.08-.12-.073-.199-.067-.134.012-.272.027-.41.021-.326-.015-.61.055-.818.33-.07.092-.162.122-.272.086.293-.462.666-.856 1.045-1.247.434-.45.901-.865 1.378-1.27a1.39 1.39 0 0 1 .308-.206.408.408 0 0 0 .364-.082c.303-.226.611-.44.92-.657.238-.098.44-.275.693-.345l-.006-.006zM33.836 13.512c.21.407.324.847.446 1.28.278.987.458 1.993.522 3.016h-.192c.024-.073.006-.147 0-.223-.022-.257-.101-.507-.086-.767-.04-.186-.076-.376-.122-.562-.03-.134-.11-.22-.26-.21-.137.008-.272.017-.41.036-.173.021-.253.131-.228.302.027.174.042.355.113.52l.082.99c-.024.305.052.605.043.91-.003.04-.01.076-.012.116-.074-.01-.11-.064-.147-.116V18.596a18.644 18.644 0 0 0-.571-3.626 3.54 3.54 0 0 0 .107-.046c.107.07.055.272.232.28.192.01.382.022.571-.03.147-.04.208-.137.175-.275a10.438 10.438 0 0 0-.202-.687c-.037-.11-.113-.19-.241-.192-.239-.007-.48-.031-.706.076-.095-.18-.193-.358-.288-.538-.012-.082-.02-.162-.033-.244.156-.012.312-.034.467-.04.217-.01.443-.043.587.19.028.045.095.048.15.048h.003z" fill="#F4D042"/><path d="M3.846 14.508c-.034-.25.08-.467.162-.693.186-.507.39-1.008.623-1.497a.477.477 0 0 1 .165-.208c.156-.006.186-.14.247-.244.11-.178.18-.391.44-.416.281-.027.56-.049.844-.04-.028.138-.123.245-.184.367-.046.092-.107.19.028.266-.01.033-.016.067-.034.098-.315.516-.54 1.075-.755 1.637-.174.458-.32.932-.48 1.396-.045 0-.09-.006-.14-.009l.104-.443c.144-.26.202-.544.26-.83.122-.169.186-.367.256-.56.055-.147-.009-.226-.168-.217-.17.01-.342.025-.51.037-.1.009-.195.049-.244.131-.113.202-.242.4-.245.645-.097.125-.119.284-.183.424-.04.086-.082.153-.186.156z" fill="#D78D29"/><path d="M24.948 4.344a6.732 6.732 0 0 1 1.494.7c.006.14.098.213.205.286.379.26.819.425 1.149.758-.025.073-.077.116-.153.12-.458.005-.91.155-1.372.045-.015-.021-.027-.052-.049-.064-.522-.32-1.063-.605-1.647-.8l-.082-.046c.131-.217.357-.172.553-.196.217-.027.44.018.657-.03.06-.016.153-.004.159-.098.003-.077-.064-.12-.126-.15-.174-.08-.36-.14-.528-.23-.116-.06-.293-.088-.26-.29v-.005z" fill="#FADC46"/><path d="M19.953 4.304c.03-.138.15-.125.244-.144.431-.085.871-.088 1.305-.137.373-.04.749-.07 1.121-.113a1.6 1.6 0 0 1 .59.036c.137.037.272.052.367-.091.226.055.455.091.663.207a.26.26 0 0 0 .097.217c.132.113.074.178-.064.196-.305.04-.617.058-.92.107-.216.037-.458-.043-.644.14-.073-.009-.15-.015-.223-.033a14.29 14.29 0 0 0-2.539-.391l.003.006z" fill="#EFC43D"/><path d="M29.616 7.283c.321.195.544.498.81.754.492.474.895 1.02 1.332 1.54.058.067.083.14.083.226.012.061.021.122.036.18.129.492.129.495-.385.55a.672.672 0 0 1-.62-.253c-.058-.067-.107-.144-.186-.19-.034-.213-.226-.317-.336-.476-.129-.187-.113-.26.113-.3.153-.027.311-.03.467-.048.199-.022.223-.074.122-.251a1.524 1.524 0 0 0-.409-.452 7.115 7.115 0 0 0-.868-.926c-.11-.098-.177-.205-.159-.354z" fill="#D78D29"/><path d="m3.146 19.052.043-1.403c.067-.027.131-.058.198-.085 0 .128.006.26 0 .388-.003.161.068.229.233.235.226.009.446-.046.669-.052.015.098 0 .21.125.253 0 .303-.003.608-.006.911v.034c0 .027 0 .058.003.085-.104.03-.15.104-.162.208l-.904.082a1.005 1.005 0 0 0-.205-.66l.006.004zM27.796 6.085c-.33-.333-.773-.495-1.15-.758-.106-.073-.198-.146-.204-.287.333.104.605.318.895.498.446.278.902.547 1.28.92-.06.137.019.22.113.296.217.18.431.36.648.538.043.036.095.07.08.131-.019.07-.089.083-.15.092-.183.021-.367.04-.553.055-.104.009-.208.012-.26.125-.394-.214-.7-.547-1.057-.806-.122-.09-.061-.169.067-.184.245-.033.49-.058.734-.085.055-.006.116-.006.134-.07.015-.059-.037-.086-.073-.114-.165-.122-.309-.272-.504-.351z" fill="#EFC13C"/><path d="M28.495 7.698c.052-.113.156-.119.26-.125.183-.015.37-.034.553-.055.061-.006.131-.021.15-.092.015-.06-.037-.097-.08-.131-.217-.18-.43-.36-.647-.538-.095-.08-.175-.162-.113-.296.397.198.669.544.999.825-.019.15.049.256.159.354.317.281.604.593.867.926-.21.128-.443.128-.678.125-.11 0-.226-.009-.275.125-.223-.128-.373-.342-.571-.498-.18-.232-.456-.37-.624-.617v-.003z" fill="#E7B036"/><path d="M5.828 27.762c-.363-.513-.669-1.063-.968-1.616a.454.454 0 0 1-.064-.235c.045-.306-.135-.556-.208-.832a.967.967 0 0 0 .467.01c.162-.034.324-.064.49-.022.247.38.43.792.616 1.204a2.94 2.94 0 0 1-.632.086c-.263.003-.296.07-.171.296.198.354.428.69.599 1.06-.043.015-.086.034-.129.049z" fill="#EFC13C"/><path d="M22.715 4.725c.183-.18.428-.103.645-.14.305-.052.614-.067.92-.107.137-.018.195-.086.063-.196a.253.253 0 0 1-.098-.216c.239.085.486.137.703.274-.033.202.144.23.26.29.168.092.351.154.529.23.064.027.128.07.125.15-.003.094-.095.085-.16.097-.216.05-.44.003-.656.03-.195.025-.425-.017-.553.196-.547-.201-1.085-.421-1.662-.534a.201.201 0 0 1-.116-.077v.003z" fill="#F4D042"/><path d="M17.063 33.588c-.101.123-.245.104-.38.117-.598.051-1.194.103-1.793.158-.064.007-.162-.006-.174.074-.015.091.089.085.15.104.064.018.11.052.134.113-.058.018-.116.033-.17.051-.328.007-.609-.155-.908-.25.067-.162-.07-.192-.165-.247-.144-.083-.33-.077-.452-.208.052-.012.104-.037.159-.037.464-.006.922-.08 1.384-.128.15-.016.317.009.44-.12.238.056.476.11.715.169.35.085.714.1 1.063.207l-.003-.003z" fill="#EFC43D"/><path d="M6.17 12.043c-.13-.077-.07-.174-.027-.266.061-.122.156-.226.184-.367.155-.131.216-.33.323-.495.074-.116.248-.226.165-.37-.082-.143-.265-.036-.403-.039-.394-.006-.727.1-.895.501a.244.244 0 0 1-.226.153c.113-.38.351-.681.577-.993.11.119.171.021.217-.061a.77.77 0 0 1 .526-.397c.3-.055.605-.117.913-.037-.009.104-.192.198-.021.315-.074.174-.19.317-.306.464-.4.492-.712 1.045-1.032 1.589l.006.003z" fill="#E8B337"/><path d="M34.731 20.784c-.024.336-.06.672-.165.993-.055 0-.11 0-.165-.003-.235-.074-.476-.046-.715-.028-.137.01-.217.104-.253.236l-.147.537-.128-.046c.134-.531.19-1.075.302-1.61.083-.006.135-.046.16-.125.317.006.638.027.946-.08.055.04.11.083.162.123l.003.003z" fill="#E2A632"/><path d="M3.387 17.56c-.067.028-.131.059-.198.086.08-.944.293-1.867.51-2.786.024-.107.07-.208.104-.312.015-.012.027-.027.043-.04.103 0 .146-.07.186-.155.064-.141.086-.3.183-.425.306.012.602-.113.91-.04-.054.287-.112.572-.259.831-.247-.027-.489.03-.736.046-.138.01-.217.089-.263.22-.07.208-.1.425-.147.639-.1.265-.131.543-.168.824a6.517 6.517 0 0 0-.168 1.113h.003z" fill="#E7B036"/><path d="M4.588 25.08c.074.275.25.525.208.83a.98.98 0 0 1-.22-.345 16.084 16.084 0 0 1-1.378-5.2c-.04-.437-.034-.877-.049-1.316.144.195.22.415.205.66.064.271 0 .556.08.824.018.333.027.67.149.99.052.623.186 1.225.397 1.815.04.25.12.486.242.706.055.37.229.696.37 1.035h-.004z" fill="#F4D042"/><path d="M9.706 31.725c-.352-.14-.62-.385-.865-.663-.043-.214-.196-.352-.348-.49-.067-.057-.14-.11-.15-.207.36-.046.721-.092 1.085-.134.351.22.666.488.993.745-.12.04-.242.04-.364.049-.205.015-.412.006-.608.067-.156.05-.162.116-.049.232.104.104.26.156.312.315 0 .03 0 .058-.003.089l-.003-.003z" fill="#DE9E30"/><path d="M7.527 9.678c-.309-.08-.614-.018-.913.037a.749.749 0 0 0-.526.397c-.046.082-.107.18-.217.06.19-.323.382-.644.66-.906.11.036.205.009.272-.086.208-.275.495-.345.819-.33.134.006.272-.01.41-.021.079-.007.149-.013.198.067-.223.269-.41.571-.7.782h-.003z" fill="#EFC13C"/><path d="M32.626 10.955c.247.351.467.718.617 1.121-.01.03-.028.065-.03.095-.046.32-.046.312-.364.36-.171.028-.358 0-.51.114-.086-.064-.12-.16-.16-.254-.045-.113-.088-.226-.207-.284l-.085-.33c.064-.058.143-.073.226-.082.143-.019.287-.034.427-.065.199-.046.223-.104.138-.29-.058-.125-.128-.247-.05-.391l-.002.006z" fill="#E7B036"/><path d="M5.288 11.163a.244.244 0 0 0 .226-.153c.168-.4.5-.51.895-.501.137 0 .32-.104.403.04.083.14-.091.253-.165.37-.104.164-.168.363-.324.494a6.487 6.487 0 0 0-.843.04c-.26.028-.333.238-.44.416-.064.104-.091.238-.247.244 0-.098.027-.186.076-.272.1-.177.22-.342.275-.544a.2.2 0 0 1 .14-.137l.004.003z" fill="#DE9E30"/><path d="M32.88 26.482c-.107.394-.333.718-.58 1.03-.108-.043-.169.018-.224.091-.049.067-.098.134-.183.156-.223-.092-.443-.006-.666.012-.101.01-.214.058-.281-.052-.07-.116.045-.183.094-.266.065-.104.15-.195.184-.317.067-.07.137-.138.204-.208.236.08.47.03.706.012.266-.021.45-.137.544-.39.034-.093.089-.169.19-.2l.008.129.004.003z" fill="#EBB839"/><path d="M31.884 11.783c.027.11.058.22.085.33h-.092c-.042-.061-.091-.12-.128-.183-.36-.639-.76-1.25-1.195-1.84h.132c.076.05.128.123.186.19a.686.686 0 0 0 .62.254c.514-.056.514-.059.385-.55-.015-.059-.024-.123-.036-.18.177.118.293.28.33.494 0 .14.055.266.113.391.11.23.055.321-.205.349-.122.012-.244.03-.367.042-.155.016-.207.083-.128.232.086.165.177.324.296.468l.004.003z" fill="#DB982D"/><path d="M29.076 31.15c-.284.245-.547.523-.91.657v-.085c-.004-.126-.077-.168-.19-.162-.156.006-.315.009-.47.021-.212.015-.422.043-.633.058-.058.003-.132 0-.15-.076-.015-.064.043-.095.086-.129.198-.137.4-.262.617-.372.125.125.281.082.425.064.39-.05.785-.098 1.179-.107.015.043.03.089.046.131z" fill="#E2A632"/><path d="M32.336 12.65c.153-.115.34-.088.51-.112.318-.05.318-.04.364-.36.006-.034.021-.065.03-.096.235.462.477.923.593 1.433-.055 0-.122 0-.15-.049-.143-.232-.37-.198-.586-.189-.156.006-.312.025-.468.04-.15-.199-.22-.431-.293-.66v-.006z" fill="#EFC43D"/><path d="M31.884 11.783a2.57 2.57 0 0 1-.297-.467c-.08-.15-.027-.217.129-.233.122-.012.244-.03.366-.042.257-.028.312-.12.205-.349-.058-.125-.113-.25-.113-.39.254.149.318.43.455.66-.08.14-.009.262.05.39.085.187.06.245-.138.29-.14.031-.284.046-.428.065a.4.4 0 0 0-.226.082l-.003-.006z" fill="#E2A632"/><path d="M22.84 3.653c-.049.131-.15.12-.256.098-.575-.101-1.146-.226-1.727-.275-.449-.04-.892-.128-1.35-.083-.199.022-.44.074-.55-.198 1-.046 1.986.049 2.967.217.308.052.61.156.913.238l.003.003z" fill="#DE9E30"/><path d="M31.89 27.762c.088-.021.134-.089.183-.156.055-.076.12-.137.223-.091-.272.552-.678 1.01-1.042 1.497-.348.467-.763.88-1.182 1.286a.42.42 0 0 1-.168.113l-.046-.132c.266-.302.532-.601.794-.904.263-.226.465-.504.657-.788.233-.247.465-.498.584-.825h-.003zM13.302 33.5c.122.131.308.125.452.208.095.055.232.085.165.247-1.048-.312-2.017-.807-2.958-1.353-.064-.037-.122-.089-.18-.135.015-.043.027-.085.043-.125.183.055.336.186.528.22.275.284.639.4 1 .525.28.22.614.318.95.413z" fill="#F4D042"/><path d="M11.23 5.456c-.254.07-.455.244-.694.345-.054-.015-.113-.03-.168-.049.165-.241.443-.318.679-.45.705-.4 1.433-.754 2.184-1.062.129-.052.257-.101.397-.095-.04.144-.152.202-.278.25-.608.233-1.2.505-1.772.82-.125.07-.262.121-.351.244l.003-.003z" fill="#DC9A2E"/><path d="M34.401 21.774c.055 0 .11 0 .165.003.012.443-.171.846-.263 1.268-.122.571-.324 1.121-.543 1.662-.013.03-.04.055-.062.08l-.091-.083c.04-.178.08-.355.116-.535.278-.532.376-1.118.507-1.696.092-.226.107-.47.168-.702l.003.003z" fill="#D78D29"/><path d="M16.403 34.413c1.002.101 2 .205 3.01.202v.162c-.911.036-1.816-.022-2.72-.132-.116-.015-.25.003-.34-.113l.047-.119h.003z" fill="#DC9A2E"/><path d="M28.168 31.722v.085c-.024.092-.088.15-.165.202-.571.376-1.158.733-1.766 1.048-.064.033-.14.046-.213.07l-.05-.128c.059-.052.117-.104.178-.156.36-.086.641-.3.907-.54.257-.04.44-.212.648-.343.147-.095.266-.245.464-.238h-.003z" fill="#DB982D"/><path d="M8.343 30.365c.006.1.082.15.15.208.152.137.305.275.348.489a2.044 2.044 0 0 1-.526-.385c-.36-.355-.718-.715-1.072-1.073a1.427 1.427 0 0 1-.3-.437l.086-.049c.19.18.379.364.568.544.217.27.431.538.746.703z" fill="#D78D29"/><path d="M19.415 34.777v-.162c.498-.043.993-.083 1.491-.125.15-.013.3-.028.45-.04 0 .052.002.104.005.156-.119.06-.253.064-.381.073-.52.037-1.036.138-1.562.095l-.003.003z" fill="#E7B036"/><path d="M17.267 3.271c0 .095-.036.153-.137.171l-1.653.303c-.116.021-.138-.058-.156-.144h.003c.015-.012.03-.024.046-.034.52-.085 1.027-.226 1.552-.271l.345-.028v.003z" fill="#FADC46"/><path d="M7.03 29.119c-.028.015-.056.033-.086.048a.39.39 0 0 1-.199-.14c-.305-.422-.672-.8-.916-1.265.042-.015.085-.034.128-.049l.532.627c.128.235.29.442.488.623.016.052.034.104.05.159l.002-.003zM33.61 24.704l.092.082c-.14.575-.468 1.07-.721 1.592-.019.04-.068.067-.101.104 0-.043-.006-.086-.01-.128.019-.095.034-.187.053-.281.1-.101.134-.236.201-.355.183-.327.254-.709.486-1.014z" fill="#E2A632"/><path d="M34.612 17.811h.192c.019.437.037.874.052 1.31a.678.678 0 0 1-.04.303c-.055 0-.11 0-.161-.003l-.01-.654c.034-.32-.036-.635-.04-.953h.01l-.003-.003z" fill="#EFC13C"/><path d="m16.403 34.413-.046.12a4.882 4.882 0 0 1-1.53-.33c.057-.019.112-.034.17-.053.48.025.941.138 1.403.263h.003zM10.369 5.752c.055.015.113.03.168.049-.306.217-.618.43-.92.657a.408.408 0 0 1-.364.082c.321-.333.7-.583 1.113-.788h.003zM25.972 32.999c.015.042.033.085.049.128a5.35 5.35 0 0 1-1.235.54c-.015-.042-.03-.085-.046-.125l.783-.375a1.81 1.81 0 0 1 .449-.168zM10.824 32.342c-.016.043-.028.085-.043.125-.4-.186-.77-.419-1.079-.742 0-.03 0-.058.003-.089.107.006.19.064.278.12.223.14.45.28.673.418l.165.165.003.003zM34.655 19.418c.055 0 .11 0 .162.003 0 .455.006.91-.086 1.36-.055-.04-.11-.083-.162-.122.037-.413.092-.825.086-1.24z" fill="#E7B036"/><path d="m24.744 33.542.045.126c-.376.223-.794.32-1.207.443.007-.092.025-.193.123-.217.357-.092.675-.29 1.042-.352h-.003z" fill="#EFC43D"/><path d="M29.855 30.28c.015.042.03.088.046.13-.019.087-.08.145-.14.197-.227.183-.456.363-.685.546l-.046-.131c.128-.214.397-.296.504-.532l.32-.21z" fill="#EBB839"/><path d="M21.358 34.606c0-.052-.003-.104-.006-.156.293-.122.608-.122.917-.15.073-.006.143.037.198.095-.357.131-.736.159-1.109.21z" fill="#F4D042"/><path d="M3.846 14.508s-.028.028-.043.04c.015-.012.027-.027.043-.04z" fill="#D78D29"/><path d="M15.367 3.57s-.03.025-.046.034a.44.44 0 0 1 .046-.033z" fill="#EBB839"/><path d="M30.555 10.094c.43.592.83 1.203 1.194 1.839.037.064.086.122.129.183.207.489.412.978.666 1.442.155.47.311.938.47 1.409.312 1.188.498 2.398.568 3.626V18.801c-.03.687-.058 1.378-.125 2.062-.113.535-.168 1.079-.303 1.61-.1.327-.198.657-.299.984-.226.736-.559 1.433-.861 2.139-.324.486-.602.999-.896 1.503l-1.164 1.506c-.033.034-.07.067-.104.101-.772.782-1.552 1.55-2.462 2.181a14.592 14.592 0 0 1-6.431 2.503c-.074.012-.147.024-.223.033-.792.086-1.583.092-2.377.086a16.265 16.265 0 0 1-2.487-.33c-.587-.122-1.15-.324-1.723-.477l-1.082-.44-1.442-.745c-.724-.397-1.366-.914-2.001-1.433-.407-.333-.786-.706-1.174-1.06-.244-.272-.488-.547-.733-.819l-.889-1.228c-.36-.605-.736-1.204-1.023-1.852-.07-.159-.107-.342-.239-.47l-.376-1.024c-.097-.39-.201-.779-.339-1.158-.21-1.008-.37-2.022-.412-3.052 0-.027 0-.058-.003-.085v-.034c0-.302.003-.608.006-.91l.128-1.406c.116-.605.211-1.213.358-1.812.159-.464.305-.938.48-1.396.213-.562.436-1.121.754-1.638.018-.027.021-.064.034-.097.32-.544.629-1.097 1.032-1.589a1.97 1.97 0 0 0 .306-.464c.458-.486.88-1 1.362-1.464 1.757-1.696 3.816-2.86 6.163-3.532.63-.18 1.27-.29 1.91-.434.687-.036 1.368-.143 2.059-.13a17.74 17.74 0 0 1 2.053.146c1.222.162 2.383.528 3.529.962.571.25 1.124.538 1.677.819.293.19.59.376.88.568.669.443 1.277.966 1.891 1.479l.819.834c.201.315.452.587.706.856h-.006zm2.117 4.497c-.022-.235-.116-.45-.214-.66-.049-.266-.214-.489-.296-.742-.16-.444-.413-.838-.654-1.241a3.586 3.586 0 0 0-.575-.95c-.1-.22-.235-.413-.409-.58a5.137 5.137 0 0 0-.77-.954c-.165-.183-.293-.397-.498-.54-.177-.211-.36-.416-.593-.569a2.373 2.373 0 0 0-.577-.498 5.874 5.874 0 0 0-1.14-.834c-.266-.226-.574-.382-.88-.544-.311-.238-.69-.342-1.032-.522-.437-.223-.883-.422-1.363-.538-.202-.116-.434-.14-.65-.217-.62-.22-1.266-.324-1.913-.403-.474-.135-.96-.147-1.445-.16-.275 0-.547-.005-.822-.008-.33.006-.663-.03-.993.042-.364 0-.724.037-1.076.132-.418.058-.84.098-1.237.25-.296.077-.599.144-.892.236-1.702.519-3.236 1.353-4.626 2.456-.516.41-1.017.837-1.439 1.35-.32.3-.62.618-.85.993-.231.217-.409.477-.574.743-.207.284-.4.577-.55.898-.165.214-.308.44-.366.712-.297.415-.474.89-.642 1.366-.3.66-.498 1.35-.63 2.062-.097.367-.198.733-.204 1.115-.061.312-.113.627-.095.947-.073.358-.045.715-.036 1.076-.01.333-.037.666.021.999.018.446.049.889.165 1.323.01.265.073.522.147.776.015.229.067.452.165.66.11.531.296 1.041.522 1.533.086.321.232.614.394.899.168.39.358.773.608 1.12.086.218.217.407.367.585.11.247.284.455.455.66.263.39.553.76.901 1.081.107.18.257.32.422.446.183.217.37.43.62.574.358.395.783.706 1.229.993.25.226.537.394.83.55.239.187.505.321.78.443.238.147.485.281.754.37.288.162.59.287.908.376.348.156.7.3 1.078.357.318.135.654.196.99.254.856.205 1.723.315 2.606.318.495.006.993.042 1.485-.037.171.018.342-.018.51-.04.663-.085 1.33-.162 1.968-.373.027-.003.055-.006.082-.012 1.204-.272 2.325-.751 3.4-1.35 1.26-.7 2.4-1.555 3.355-2.637a10.897 10.897 0 0 0 1.467-1.818c.342-.412.608-.87.828-1.356.44-.74.77-1.528.993-2.359.171-.354.257-.733.318-1.118.152-.498.223-1.014.28-1.528.044-.467.123-.932.086-1.402.07-.303-.009-.605-.003-.907.028-.279-.024-.55-.043-.825-.103-.465-.058-.954-.235-1.403a2.892 2.892 0 0 0-.21-.907c-.01-.239-.15-.437-.205-.66l.003-.003z" fill="#8D6020"/><path d="M16.937 4.56c-.635.144-1.28.254-1.91.434-2.343.672-4.402 1.836-6.162 3.532-.48.465-.904.978-1.362 1.464-.171-.116.012-.208.021-.315.29-.21.477-.513.7-.782.314-.297.632-.59.944-.89.049-.045.122-.091.085-.17-.033-.077-.119-.052-.183-.058-.235-.016-.464.024-.697.055-.073.009-.158.04-.201-.05-.037-.076.027-.128.073-.177.29-.29.617-.543.941-.794.058-.046.122-.049.193-.055.403-.034.806-.064 1.21-.11.232-.024.46-.08.662-.205.718-.452 1.494-.782 2.255-1.148.4-.12.788-.278 1.192-.398a17.43 17.43 0 0 1 1.967-.443c.113-.018.205 0 .266.104l.006.006z" fill="#FADC46"/><path d="M24.578 5.538c-1.145-.434-2.306-.8-3.528-.962a17.743 17.743 0 0 0-2.053-.147c.076-.11.192-.113.308-.116.217-.006.431-.006.648-.012.858.058 1.705.177 2.539.39.073.02.15.022.223.034.03.037.067.068.116.077.574.113 1.115.333 1.662.534l.083.046v.153l.002.003z" fill="#DB982D"/><path d="M20.943 33.39a14.592 14.592 0 0 0 6.43-2.503c.911-.632 1.69-1.399 2.463-2.18.034-.035.07-.068.104-.102 0 .05 0 .095.003.144-.1.232-.342.354-.455.577l-1.283 1.155c-.272.177-.535.37-.782.58a5.086 5.086 0 0 0-.617.373c-.046.031-.101.061-.086.129.018.08.092.08.15.076.21-.015.421-.04.632-.058.156-.012.315-.015.47-.021.114-.003.187.04.19.162-.198-.01-.318.143-.464.238-.208.131-.391.302-.648.342-.474-.03-.94.08-1.411.083-.663 0-1.24.311-1.858.473-.03.01-.052.04-.08.061l-1.197.37c-.523.082-1.036.226-1.568.253v-.152h.007z" fill="#E8B337"/><path d="M22.51 33.292c.4-.122.797-.247 1.198-.37a.342.342 0 0 0 .198.037c.394-.034.789-.073 1.186-.104.351-.027.702-.125 1.057-.015a9.411 9.411 0 0 1-.177.156 1.81 1.81 0 0 0-.45.168c-.051-.086-.137-.086-.22-.077-.638.058-1.28.126-1.918.18-.29.025-.58.062-.874.022v.003z" fill="#F4D042"/><path d="M14.133 32.705c.577.153 1.14.355 1.723.477.822.171 1.65.284 2.487.327 0 .049 0 .098-.003.147-.428.033-.853-.055-1.277-.07-.346-.108-.712-.123-1.064-.208a59.576 59.576 0 0 0-.715-.169c-.372-.11-.742-.223-1.115-.333l-.036-.17z" fill="#D78D29"/><path d="M18.34 33.659c0-.05 0-.098.003-.147.794.003 1.585 0 2.377-.086.073-.009.15-.02.223-.033v.153c-.3.08-.608.076-.914.104-.504.042-1.008.073-1.515.055a.331.331 0 0 1-.177-.043l.003-.003z" fill="#E2A632"/><path d="M34.655 19.418c.006.416-.05.828-.086 1.24-.308.107-.63.086-.947.08.07-.605.15-1.21.113-1.821.003-.04.01-.076.012-.116.3-.01.602.018.899-.04l.009.654v.003z" fill="#D78D29"/><path d="M32.953 14.093c.226-.107.467-.083.706-.077.128 0 .205.083.241.193.074.226.144.455.202.687.033.14-.028.236-.174.275-.19.052-.38.04-.572.03-.177-.008-.125-.213-.232-.28-.012-.08-.015-.162-.037-.239-.055-.195-.143-.378-.134-.586v-.003z" fill="#FADC46"/><path d="m33.702 17.894-.083-.99c.303-.025.605-.028.904-.083-.015.26.068.51.086.767.006.073.024.147 0 .223h-.01a3.188 3.188 0 0 0-.9.083h.003z" fill="#E7B036"/><path d="M33.701 17.894c.297-.07.6-.101.902-.083.003.318.073.633.04.953-.297.058-.6.03-.899.04.01-.305-.067-.605-.043-.91z" fill="#E2A632"/><path d="M34.526 16.821c-.299.058-.601.058-.904.083-.073-.165-.089-.346-.113-.52-.024-.17.052-.278.23-.302.134-.019.271-.028.409-.037.15-.01.229.08.26.21.045.187.082.377.121.563l-.003.003z" fill="#EFC43D"/><path d="M33.732 18.917c.037.611-.043 1.216-.113 1.821-.024.08-.076.12-.159.125.067-.687.092-1.375.126-2.062.04.052.076.107.146.116z" fill="#E8B337"/><path d="M32.544 13.558c-.257-.464-.462-.953-.666-1.442h.091c.12.058.165.171.208.284.037.095.073.19.159.254.073.232.144.464.293.66.013.082.022.162.034.244h-.12z" fill="#E2A632"/><path d="M32.544 13.558h.119l.287.538c-.01.208.082.394.134.586.022.077.025.16.037.239-.037.015-.073.03-.107.046-.156-.47-.311-.938-.47-1.409z" fill="#EBB839"/><path d="M3.723 15.623c.046-.213.077-.43.147-.638.046-.131.122-.214.263-.22.244-.015.489-.073.736-.046l-.104.443c-.055.122-.036.269-.128.379-.309-.015-.608.052-.914.082z" fill="#EFC13C"/><path d="M5.126 13.888c-.309-.073-.605.052-.91.04 0-.245.128-.443.244-.645.049-.085.143-.125.244-.131.171-.015.342-.028.51-.037.16-.01.22.073.168.217-.07.192-.134.388-.256.56v-.004z" fill="#DE9E30"/><path d="M4.637 15.541c.089-.11.073-.257.128-.379.046 0 .092.006.14.01-.146.598-.24 1.206-.357 1.811-.04-.015-.08-.027-.119-.043-.027-.18.03-.354.046-.531.076-.284.14-.575.162-.871v.003z" fill="#E2A632"/><path d="M29.03 8.4c-.614-.512-1.225-1.032-1.891-1.478-.29-.192-.587-.379-.88-.568l.015-.107c.461.11.914-.04 1.372-.046.076 0 .128-.046.153-.119.195.08.339.23.504.351.036.028.088.055.073.113-.018.068-.08.065-.134.07-.245.028-.49.056-.734.086-.131.019-.189.095-.067.184.36.26.663.592 1.057.806.168.248.443.385.624.617-.031.028-.058.058-.089.086l-.003.006z" fill="#F4D042"/><path d="m26.271 6.25-.015.107c-.556-.281-1.11-.568-1.678-.819v-.153c.584.196 1.125.48 1.647.8.021.013.034.044.049.065h-.003z" fill="#EBB839"/><path d="M30.555 10.094c-.254-.27-.505-.544-.706-.856.085-.067.046-.128-.015-.183a.471.471 0 0 1-.144-.239c.049-.134.165-.128.275-.125.235.006.467.003.678-.125.165.125.306.272.41.452.1.177.076.23-.123.25-.155.019-.314.022-.467.05-.226.04-.241.113-.113.299.11.162.302.266.336.476h-.131z" fill="#DE9E30"/><path d="M4.472 16.409c-.015.177-.07.351-.046.531-.116.388-.138.789-.134 1.192-.223.006-.443.058-.67.052-.165-.006-.235-.074-.232-.235.003-.129 0-.26 0-.388a6.52 6.52 0 0 1 .168-1.113c.095-.009.187-.027.281-.024.214.003.422-.107.636-.012l-.003-.003z" fill="#FADC46"/><path d="M3.433 20.536c-.08-.269-.015-.553-.08-.825l.905-.082c-.01.278.034.553.08.825l-.905.082z" fill="#E7B036"/><path d="M4.338 20.454a4.148 4.148 0 0 1-.08-.825c.01-.104.058-.177.162-.208.043 1.03.202 2.044.412 3.052-.04 0-.079 0-.119.004-.131-.334-.18-.685-.253-1.03-.028-.333-.129-.657-.122-.993z" fill="#F4D042"/><path d="M4.292 18.135c0-.403.018-.804.134-1.192.04.016.08.028.12.043l-.129 1.405c-.125-.045-.11-.155-.125-.253v-.003z" fill="#E8B337"/><path d="M4.414 19.299s.003.021 0 .034c0-.013-.003-.022 0-.034z" fill="#F4D042"/><path d="M29.69 8.813a.48.48 0 0 0 .143.239c.059.058.101.116.016.183l-.822-.834.088-.086c.202.156.352.37.572.498h.003z" fill="#EFC13C"/><path d="M6.488 28.336c-.177-.207-.354-.415-.531-.626-.171-.37-.4-.706-.6-1.06-.124-.226-.09-.29.172-.296.214 0 .425-.037.632-.086.165.235.327.47.492.706.23.446.572.816.847 1.231-.324.147-.673.098-1.012.131z" fill="#FADC46"/><path d="m5.172 23.631.375 1.024c-.082.137-.012.275 0 .412-.165-.046-.326-.012-.488.022a.967.967 0 0 1-.468-.01c-.14-.339-.315-.666-.37-1.035.168 0 .34.006.508-.012.317-.034.348-.083.314-.398h.129v-.003z" fill="#E2A632"/><path d="M5.545 25.067c-.01-.137-.08-.275 0-.412.134.128.168.311.238.47.287.648.663 1.244 1.023 1.852h-.155c-.165-.235-.327-.47-.492-.706-.187-.412-.367-.825-.618-1.204h.004z" fill="#D78D29"/><path d="m14.17 32.877 1.114.332c-.122.129-.293.104-.44.12-.46.048-.92.122-1.384.128-.052 0-.104.024-.159.037-.336-.095-.669-.193-.95-.413.046-.058.11-.076.18-.082l1.638-.129v.007z" fill="#EBB839"/><path d="M34.401 21.774c-.06.232-.08.476-.168.702-.317-.015-.63.031-.94.083 0-.015-.004-.028-.007-.043l.147-.538c.036-.131.116-.226.253-.235.239-.015.48-.043.715.028v.003z" fill="#E7B036"/><path d="m33.286 22.52.006.042a5.752 5.752 0 0 1-.058.22l-.412 1.378c-.052.104-.101.21-.153.314-.193.395-.318.822-.58 1.18-.031-.018-.062-.037-.09-.058.303-.709.633-1.402.862-2.139.101-.327.199-.657.3-.984l.128.046h-.003z" fill="#D78D29"/><path d="M4.472 16.409c-.214-.095-.425.018-.636.012-.094 0-.186.015-.28.024.036-.278.067-.559.167-.825.303-.033.605-.097.914-.082a4.702 4.702 0 0 1-.162.87h-.003z" fill="#F4D042"/><path d="M4.46 21.447c.07.345.119.7.253 1.03-.03.26.129.488.132.742-.284.07-.575.095-.865.119a7.087 7.087 0 0 1-.397-1.815c.29-.049.58-.088.877-.076z" fill="#D78D29"/><path d="M4.46 21.447a4.217 4.217 0 0 0-.877.076c-.122-.317-.132-.654-.15-.99l.904-.082c-.006.336.095.66.123.993v.003z" fill="#E2A632"/><path d="M3.98 23.338c.29-.024.58-.049.865-.12.116.114.125.282.198.416.034.315 0 .364-.314.398-.169.018-.34.009-.508.012a2.125 2.125 0 0 1-.241-.706z" fill="#DE9E30"/><path d="M10.659 32.177c-.224-.14-.45-.278-.673-.419-.085-.055-.17-.113-.278-.119-.052-.156-.207-.21-.311-.315-.113-.113-.104-.183.049-.232.195-.06.403-.052.608-.067.122-.01.244-.012.363-.049.382.202.712.486 1.106.666.12.147.318.171.455.287-.048.04-.1.077-.165.074-.293-.006-.577.088-.87.091-.104 0-.205.01-.287.083h.003z" fill="#D78D29"/><path d="M8.343 30.365c-.315-.165-.529-.434-.746-.703.388-.006.77-.107 1.161-.085.05.046.101.091.147.14.165.18.4.29.52.514-.361.045-.722.091-1.085.134h.003z" fill="#E7B036"/><path d="M9.427 30.23c-.119-.222-.354-.332-.519-.513-.046-.048-.098-.094-.147-.14-.049-.055-.091-.116-.146-.165-.113-.104-.205-.217-.18-.385.39.354.766.727 1.173 1.06.635.52 1.277 1.036 2 1.433a.201.201 0 0 1-.082.122c-.394-.18-.724-.467-1.106-.666-.323-.256-.638-.525-.993-.745z" fill="#F4D042"/><path d="M29.944 28.752c0-.049 0-.095-.004-.144.388-.5.776-1.005 1.165-1.506.04.012.079.028.119.04-.037.119-.12.21-.184.317-.052.083-.165.153-.094.266.067.107.18.058.28.052.22-.018.444-.104.667-.012-.12.327-.352.578-.584.825-.03-.052-.076-.08-.134-.073-.416.052-.85-.006-1.229.235h-.003z" fill="#E2A632"/><path d="M32.922 26.073c-.018.094-.033.186-.052.28-.1.031-.155.107-.189.2-.095.25-.278.369-.544.39-.238.018-.47.07-.706-.012l.492-.868c.083.05.171.046.26.043.248-.01.495-.021.74-.034z" fill="#EFC43D"/><path d="m31.92 26.063-.492.868c-.067.07-.137.137-.204.208-.04-.012-.08-.028-.12-.04.294-.504.572-1.017.896-1.503.03.018.06.037.088.058-.003.159-.131.266-.168.41zM27.423 31.062c.248-.211.51-.404.782-.58.15.152.336.076.507.066.275-.015.544-.067.822-.06-.107.235-.375.317-.504.53-.397.01-.788.062-1.18.108-.146.018-.299.06-.424-.064h-.003z" fill="#DE9E30"/><path d="M29.534 30.487c-.275-.006-.547.05-.822.061-.17.01-.354.086-.507-.067l1.283-1.155c.272.019.541-.024.81-.058.137-.018.257-.003.351.104-.265.303-.531.602-.794.904l-.32.211z" fill="#D78D29"/><path d="M30.65 29.375c-.095-.11-.218-.122-.352-.104-.269.037-.538.077-.81.058.113-.223.355-.345.456-.577.378-.241.812-.183 1.228-.235.06-.006.104.021.134.073-.192.284-.394.562-.657.788v-.003z" fill="#DE9E30"/><path d="m14.17 32.877-1.638.128c-.07.006-.135.024-.18.082-.358-.125-.725-.241-1-.525a.273.273 0 0 1 .174-.052c.343.015.676-.08 1.015-.086a.25.25 0 0 0 .223-.122c.098 0 .195.01.287-.036l1.082.44.036.17z" fill="#E2A632"/><path d="M12.764 32.302a.263.263 0 0 1-.223.122c-.34.01-.672.101-1.015.086a.3.3 0 0 0-.174.052c-.192-.034-.345-.165-.528-.22l-.165-.165c.082-.074.183-.083.287-.083.293 0 .577-.097.87-.091.062 0 .117-.034.166-.074.26.126.522.248.782.373z" fill="#DB982D"/><path d="M31.92 26.063c.04-.143.165-.25.168-.41.263-.36.388-.784.58-1.178.053-.104.102-.211.154-.315.11.012.216 0 .323-.012.193-.019.391-.077.58.027-.039.177-.079.355-.115.535-.233.305-.303.684-.486 1.014-.067.12-.1.254-.202.355-.247.012-.495.024-.74.033-.088.003-.18.006-.259-.043l-.003-.006z" fill="#FADC46"/><path d="M33.726 24.172c-.19-.104-.385-.046-.58-.027-.11.012-.218.027-.325.012l.413-1.378c.021-.073.04-.147.058-.22.312-.052.623-.098.941-.083-.131.578-.23 1.165-.507 1.696z" fill="#EFC13C"/><path d="M26.149 32.843c-.355-.11-.706-.012-1.057.015-.394.03-.791.067-1.186.104a.34.34 0 0 1-.198-.037c.027-.021.049-.055.08-.06.616-.166 1.194-.474 1.857-.474.47 0 .938-.113 1.411-.083-.265.242-.547.455-.907.541v-.006z" fill="#EFC43D"/><path d="M8.432 29.027c-.025.168.067.281.18.385.055.049.098.11.147.165-.392-.022-.773.082-1.161.085-.19-.18-.38-.363-.572-.543-.015-.052-.033-.104-.049-.16a4.73 4.73 0 0 0 .78-.067c.216-.033.238-.122.097-.284-.107-.122-.229-.238-.29-.394.046 0 .092-.006.134-.006l.734.819z" fill="#EFC13C"/><path d="M7.564 28.214c.06.156.183.272.29.394.14.162.12.25-.098.284-.256.04-.516.074-.779.068a2.362 2.362 0 0 1-.489-.624c.34-.033.688.019 1.012-.131.021 0 .042.003.064.006v.003z" fill="#F4D042"/><path d="M32.678 23.347a9.472 9.472 0 0 1-.993 2.359c-.08-.058-.156-.03-.23.015-.094.058-.188.113-.283.168-1.473.843-2.952 1.674-4.418 2.533-1.442.843-2.887 1.68-4.335 2.508-1.216.697-2.426 1.406-3.64 2.105-.115.068-.195.15-.189.294-.88 0-1.747-.11-2.606-.318a.263.263 0 0 1 .129-.128c.81-.477 1.64-.92 2.444-1.412.736-.452 1.5-.868 2.248-1.302.862-.5 1.717-1.01 2.582-1.509 1.323-.76 2.649-1.512 3.972-2.273.641-.37 1.27-.767 1.918-1.124.59-.327 1.17-.666 1.754-1.002.364-.208.718-.434 1.088-.63.183-.098.327-.287.562-.28l-.003-.004z" fill="#D78D29"/><path d="M21.108 4.799c.65.08 1.292.183 1.912.403-.339.248-.718.43-1.078.642-1.045.608-2.09 1.219-3.132 1.827-.452.262-.907.52-1.356.785-.117.067-.254.122-.272.287-.715.171-1.433.327-2.114.617-1.385.59-2.619 1.387-3.646 2.5-.268.293-.482.635-.797.886-.064-.05-.128-.034-.192 0-.287.158-.584.305-.865.48-1.271.79-2.579 1.524-3.877 2.27-.235.134-.455.31-.73.372.128-.712.33-1.402.63-2.062a.653.653 0 0 0 .268-.101c.513-.293 1.03-.584 1.54-.88 1.647-.956 3.29-1.919 4.94-2.872 1.94-1.121 3.886-2.233 5.83-3.352.864-.498 1.726-.999 2.584-1.503.132-.076.294-.134.352-.3h.003z" fill="#DC9A2E"/><path d="M21.108 4.799c-.061.168-.22.223-.352.3-.858.503-1.723 1.004-2.584 1.502-1.943 1.119-3.89 2.23-5.83 3.352-1.65.953-3.293 1.916-4.94 2.872-.51.296-1.027.59-1.54.88a.654.654 0 0 1-.269.1c.168-.476.346-.95.642-1.365.15-.006.275-.083.4-.156 1.409-.816 2.817-1.635 4.226-2.45 1.368-.792 2.737-1.58 4.103-2.371 1.481-.856 2.96-1.714 4.439-2.573.104-.06.223-.113.26-.25.485.012.974.024 1.445.159z" fill="#D78D29"/><path d="M32.678 23.347c-.235-.006-.376.183-.562.281-.37.193-.724.419-1.088.63-.583.336-1.164.675-1.753 1.002-.651.36-1.278.754-1.92 1.124-1.322.76-2.648 1.512-3.971 2.273-.865.498-1.72 1.009-2.582 1.51-.748.433-1.509.849-2.248 1.301-.804.492-1.635.935-2.445 1.412a.29.29 0 0 0-.128.128c-.336-.061-.672-.12-.99-.254.08-.15.242-.174.37-.247 1.76-1.02 3.52-2.035 5.276-3.052.107-.061.223-.113.26-.25.107-.028.21-.059.318-.083a10.446 10.446 0 0 0 4.962-2.622c.35-.33.632-.72.98-1.054.19.01.342-.095.495-.183 1.65-.956 3.297-1.919 4.947-2.875.122-.07.238-.165.394-.162-.061.385-.15.764-.318 1.118l.003.003zM18.587 33.326c-.006-.144.076-.227.19-.294 1.212-.702 2.422-1.411 3.638-2.105a469.792 469.792 0 0 0 4.336-2.508c1.463-.859 2.945-1.69 4.418-2.533.094-.055.189-.11.284-.168.076-.046.15-.073.229-.015-.22.486-.489.944-.828 1.356a.842.842 0 0 0-.37.122l-1.176.682c-.794.461-1.58.938-2.383 1.387-1.235.687-2.45 1.405-3.676 2.114-.867.501-1.735 1.005-2.597 1.515-.204.123-.43.214-.583.407-.495.076-.99.04-1.485.037l.003.003z" fill="#DB982D"/><path d="M20.075 33.289c.153-.196.382-.287.584-.406.861-.51 1.729-1.015 2.597-1.516 1.222-.709 2.44-1.427 3.675-2.114.803-.446 1.589-.926 2.383-1.387.391-.226.782-.455 1.176-.681a.828.828 0 0 1 .37-.123c-.422.66-.917 1.262-1.466 1.818-.224-.015-.358.16-.532.245-.804.403-1.561.889-2.347 1.326-.574.32-1.118.693-1.695 1.005-.67.36-1.32.758-1.98 1.136-.122.07-.232.15-.281.288-.639.21-1.305.287-1.968.372-.168.022-.336.058-.51.04l-.006-.003zM32.999 22.229c-.156-.006-.272.089-.394.162-1.65.956-3.297 1.916-4.947 2.875-.152.089-.305.19-.495.183.468-.696.969-1.375 1.311-2.148.315-.018.547-.22.794-.37.706-.424 1.44-.803 2.14-1.24.457-.287.968-.48 1.404-.803.141-.104.29-.184.471-.187-.061.517-.128 1.03-.281 1.528h-.003z" fill="#E2A632"/><path d="M23.671 5.422c.48.113.926.312 1.363.538-.046.03-.089.067-.135.094-.483.272-.95.572-1.445.825-.345.178-.657.422-1.002.596-.507.257-.966.593-1.479.837-.162.077-.348.178-.406.385a20.064 20.064 0 0 0-2.185-.098c.034-.207.217-.274.367-.36.727-.419 1.466-.819 2.188-1.247a71.248 71.248 0 0 1 2.737-1.57h-.003z" fill="#E8B337"/><path d="M10.644 30.655c-.443-.287-.871-.599-1.228-.993.051-.085.137-.128.223-.177.971-.568 1.943-1.136 2.911-1.708.162-.094.321-.183.504-.226.486.23.93.544 1.403.795 0 .116-.05.189-.15.247-.825.47-1.64.95-2.469 1.415-.394.22-.76.498-1.194.647z" fill="#FADC46"/><path d="M17.848 4.673c.327-.07.66-.036.993-.042a.362.362 0 0 1-.18.217c-1.296.751-2.591 1.506-3.89 2.254-1.653.957-3.309 1.91-4.964 2.866-.987.572-1.974 1.146-2.961 1.717-.076.043-.15.11-.244.043.15-.32.342-.614.55-.898.11.055.201-.006.29-.055 1.338-.773 2.68-1.543 4.017-2.32 1.155-.668 2.298-1.356 3.462-2.006.926-.517 1.83-1.067 2.747-1.592.076-.046.159-.086.183-.184h-.003zM5.648 24.3a7.386 7.386 0 0 1-.522-1.533.67.67 0 0 0 .29-.098c.84-.492 1.677-.987 2.524-1.467.256-.146.482-.372.81-.382.09.535.256 1.048.396 1.57-.027.01-.055.016-.076.028-.88.48-1.738 1-2.603 1.507-.26.15-.504.339-.819.375z" fill="#E7B036"/><path d="M26.946 7.026c.413.232.794.51 1.14.834-.015.128-.12.177-.214.232-.953.556-1.928 1.082-2.869 1.662-.205.126-.406.257-.648.303-.449-.223-.898-.45-1.35-.672.012-.116.107-.153.19-.202.387-.235.778-.464 1.176-.684.864-.48 1.717-.981 2.575-1.476v.003z" fill="#FADC46"/><path d="M6.601 11.731c.095.067.172 0 .245-.043.987-.571 1.974-1.145 2.96-1.717 1.653-.956 3.31-1.91 4.965-2.866 1.299-.751 2.591-1.503 3.89-2.254a.355.355 0 0 0 .18-.217c.275 0 .547.006.822.009-.034.137-.153.19-.26.25-1.479.859-2.96 1.718-4.44 2.573-1.368.791-2.737 1.58-4.102 2.37-1.409.817-2.817 1.635-4.226 2.451-.125.07-.247.15-.4.156.061-.269.202-.495.366-.712z" fill="#DE9E30"/><path d="M33.087 16.158c.174.452.132.941.236 1.402-.037.019-.077.034-.11.056-1.15.663-2.298 1.326-3.444 1.989-.119.067-.235.143-.381.143 0-.507 0-1.017.002-1.524.135-.086.263-.175.4-.254.826-.483 1.65-.969 2.479-1.442.26-.147.5-.345.818-.373v.003z" fill="#FADC46"/><path d="M33.28 20.698a.828.828 0 0 0-.47.187c-.438.323-.948.516-1.406.803-.7.437-1.433.813-2.139 1.24-.247.15-.48.355-.794.37.235-.522.403-1.069.58-1.61a.51.51 0 0 0 .275-.067c.957-.556 1.91-1.121 2.875-1.662.388-.217.749-.486 1.164-.66.034.47-.042.935-.085 1.402v-.003z" fill="#EBB839"/><path d="M4.814 21.328c-.116-.434-.143-.877-.165-1.323.083-.061.162-.129.25-.18.609-.349 1.217-.694 1.825-1.04.406-.228.818-.448 1.213-.696.229-.143.461-.269.711-.36-.054.507-.045 1.017-.054 1.524-.037.015-.077.03-.114.05-1.057.555-2.077 1.175-3.11 1.777-.174.101-.339.242-.559.245l.003.003z" fill="#FADC46"/><path d="M8.373 28.645a6.37 6.37 0 0 1-.9-1.082.453.453 0 0 1 .204-.195c.583-.333 1.158-.681 1.747-1 .495-.268.935-.629 1.458-.842.342.311.602.7.935 1.02a.763.763 0 0 1-.242.19c-.956.552-1.912 1.102-2.869 1.65-.125.073-.256.13-.336.262l.003-.003z" fill="#E8B337"/><path d="M20.9 29.204c-.034.138-.153.19-.26.25-1.76 1.018-3.52 2.035-5.276 3.053-.128.073-.29.098-.37.247-.379-.058-.733-.201-1.078-.357.06-.107.165-.165.266-.223l4.344-2.484c.135-.077.254-.165.309-.318.693.003 1.378-.08 2.065-.168z" fill="#E2A632"/><path d="M31.508 11.948c.241.4.495.797.653 1.24a.588.588 0 0 0-.265.101c-.474.278-.957.544-1.421.834-.584.364-1.219.633-1.772 1.045-.199-.424-.397-.852-.596-1.277.177-.153.394-.247.596-.363.623-.36 1.247-.721 1.87-1.079.308-.174.59-.403.938-.5h-.003z" fill="#DC9A2E"/><path d="M4.96 15.871c.276-.061.496-.238.731-.373 1.299-.745 2.606-1.478 3.877-2.27.278-.174.578-.32.865-.48.064-.036.128-.051.192 0l-.898 1.476a.537.537 0 0 0-.312.089c-.907.525-1.814 1.054-2.725 1.58-.641.369-1.286.733-1.93 1.1.005-.383.106-.75.204-1.116l-.003-.006z" fill="#E2A632"/><path d="M20.567 8.694c.058-.208.245-.308.407-.385.513-.244.971-.583 1.478-.837.345-.174.657-.418 1.002-.596.495-.253.963-.553 1.445-.825.05-.027.09-.06.135-.094.339.18.718.287 1.033.522-.18.22-.443.318-.679.452-1.045.608-2.096 1.207-3.144 1.81-.113.063-.229.133-.235.286-.48-.113-.96-.223-1.442-.336v.003z" fill="#EFC13C"/><path d="M29.757 9.464c.3.284.547.608.77.953a.904.904 0 0 1-.232.199c-.67.388-1.342.776-2.008 1.17-.384.226-.788.416-1.154.67-.315-.294-.58-.63-.868-.948.238-.137.476-.269.712-.41.922-.55 1.876-1.05 2.78-1.634z" fill="#E2A632"/><path d="M6.65 26.32a6.214 6.214 0 0 1-.608-1.121.603.603 0 0 0 .266-.101c.822-.47 1.647-.938 2.463-1.418.24-.14.5-.256.693-.47l.614 1.164c-.128.064-.263.119-.388.19-.574.32-1.149.64-1.72.97-.446.257-.883.523-1.326.786h.006z" fill="#D78D29"/><path d="M17.848 4.673c-.025.098-.104.141-.184.184-.916.528-1.824 1.075-2.746 1.592-1.164.65-2.307 1.338-3.462 2.007-1.338.776-2.68 1.546-4.018 2.319-.088.052-.177.11-.29.055.165-.269.345-.526.575-.743.15-.009.275-.088.4-.158a9804.345 9804.345 0 0 0 8.332-4.825c.125-.073.284-.122.317-.3a4.25 4.25 0 0 1 1.076-.13z" fill="#EFC13C"/><path d="M4.756 16.986c.645-.367 1.29-.73 1.931-1.1a485.17 485.17 0 0 0 2.725-1.58.594.594 0 0 1 .312-.088c-.232.406-.345.865-.56 1.277a.554.554 0 0 0-.33.095c-.2.128-.406.257-.613.376-.905.522-1.806 1.048-2.713 1.558-.272.153-.517.376-.85.403-.018-.32.034-.635.095-.947l.003.006z" fill="#EBB839"/><path d="M18.835 29.372c-.055.153-.175.241-.309.318l-4.345 2.484c-.1.058-.204.116-.265.223a4.065 4.065 0 0 1-.908-.376c.104-.183.3-.235.465-.327 1.231-.712 2.44-1.457 3.696-2.133.117-.064.22-.14.263-.274.47-.003.935.055 1.403.085z" fill="#E7B036"/><path d="M4.661 17.933c.333-.027.575-.25.85-.403.91-.51 1.811-1.036 2.713-1.558.207-.12.412-.248.614-.376a.55.55 0 0 1 .33-.095c-.113.4-.226.8-.342 1.204-.199.01-.367.11-.532.205-.852.498-1.699 1.002-2.554 1.494-.367.21-.712.464-1.115.608-.01-.358-.04-.718.036-1.076v-.003z" fill="#EFC43D"/><path d="M16.77 4.805c-.031.177-.193.226-.318.3-.8.467-1.604.931-2.408 1.396-1.974 1.142-3.947 2.288-5.924 3.428-.125.07-.248.15-.4.158.229-.378.528-.693.85-.993a.487.487 0 0 0 .231-.076c1.079-.62 2.157-1.237 3.236-1.858.507-.29 1.011-.583 1.518-.873.602-.346 1.201-.69 1.803-1.04.08-.045.15-.1.17-.195.401-.15.823-.192 1.238-.25l.003.003z" fill="#F4D042"/><path d="M31.508 11.948c-.348.098-.63.327-.938.501-.626.354-1.25.715-1.87 1.079-.201.116-.415.21-.596.363-.244-.296-.403-.648-.632-.953a.506.506 0 0 0 .257-.07l3.208-1.87c.238.287.433.602.574.95h-.003z" fill="#D78D29"/><path d="M22.009 9.03c.01-.152.122-.223.235-.287 1.048-.602 2.1-1.2 3.144-1.809.235-.137.498-.232.678-.452.306.162.614.318.88.544-.858.492-1.71.996-2.575 1.476-.397.22-.788.449-1.176.684-.083.049-.178.086-.19.202-.333-.12-.666-.236-.996-.355V9.03z" fill="#F4D042"/><path d="M33.368 19.296c-.415.174-.776.443-1.164.66-.965.54-1.918 1.106-2.875 1.662a.462.462 0 0 1-.275.067c.08-.357.16-.715.236-1.07.1 0 .186-.036.272-.085.213-.128.427-.247.641-.373.828-.48 1.653-.959 2.481-1.432.22-.126.422-.29.678-.337-.006.303.077.605.003.908h.003z" fill="#EFC43D"/><path d="M4.628 19.009c.403-.144.748-.397 1.115-.608.855-.49 1.702-.996 2.554-1.494.165-.095.333-.196.532-.205-.123.333-.068.694-.18 1.03-.251.091-.486.217-.712.36-.395.248-.807.465-1.213.697-.608.345-1.216.69-1.824 1.038-.089.052-.168.12-.25.18-.059-.332-.034-.665-.022-.998zM10.644 30.655c.433-.146.8-.427 1.194-.647.828-.462 1.647-.944 2.469-1.415.1-.058.153-.134.15-.247l1.044.418c-.082.159-.25.205-.388.29-.754.474-1.53.905-2.303 1.348-.453.26-.908.507-1.335.806-.297-.155-.584-.323-.831-.55v-.003z" fill="#F4D042"/><path d="M22.553 32.877c.052-.138.162-.217.28-.288.66-.379 1.312-.776 1.98-1.136.578-.312 1.122-.685 1.696-1.005.786-.437 1.543-.923 2.347-1.326.174-.089.308-.263.531-.245-.959 1.085-2.099 1.937-3.354 2.637-1.073.599-2.197 1.078-3.4 1.35-.028.006-.056.006-.083.013h.003z" fill="#E7B036"/><path d="M11.475 31.208c.427-.3.883-.547 1.335-.806.773-.443 1.549-.874 2.303-1.348.138-.085.306-.131.388-.29l.944.303c-.012.107-.085.168-.17.216-.798.468-1.601.93-2.393 1.409-.538.327-1.118.584-1.628.956a3.715 3.715 0 0 1-.78-.443v.003z" fill="#EFC43D"/><path d="M9.467 23.213c-.192.214-.452.33-.693.47-.819.477-1.64.944-2.463 1.418a.601.601 0 0 1-.266.1c-.161-.287-.311-.577-.394-.898.315-.036.56-.226.82-.375.867-.505 1.722-1.027 2.602-1.507.025-.012.052-.018.077-.027.125.266.229.54.32.819h-.003z" fill="#DE9E30"/><path d="M15.532 5.055c-.024.095-.095.15-.171.196-.602.345-1.2.69-1.803 1.039-.507.29-1.01.583-1.518.874L8.804 9.02a.43.43 0 0 1-.232.076c.422-.513.923-.94 1.44-1.35 1.39-1.103 2.926-1.937 4.625-2.456.293-.089.596-.156.892-.236h.003z" fill="#FADC46"/><path d="M33.087 16.158c-.317.028-.559.223-.818.373-.831.474-1.653.96-2.478 1.442-.138.08-.266.168-.4.254-.037-.318-.07-.636-.107-.954.116-.073.229-.15.348-.22.996-.58 1.995-1.16 2.991-1.744a.476.476 0 0 1 .257-.061c.116.293.192.592.21.907l-.003.003z" fill="#F4D042"/><path d="M12.254 31.651c.51-.375 1.087-.632 1.628-.956.791-.48 1.595-.941 2.392-1.408.086-.05.16-.11.171-.217.343.015.654.155.987.217-.04.137-.143.213-.262.275-1.253.672-2.466 1.42-3.697 2.132-.165.095-.36.147-.465.327a3.676 3.676 0 0 1-.754-.37z" fill="#EBB839"/><path d="M13.054 27.554a1.778 1.778 0 0 0-.504.226c-.968.572-1.94 1.14-2.912 1.708-.082.05-.168.092-.223.177-.25-.143-.437-.357-.62-.574.058-.08.144-.125.223-.177.956-.602 1.968-1.112 2.918-1.723a1.05 1.05 0 0 1 .434-.18c.217.195.516.287.684.543zM33.362 18.389c-.26.045-.46.21-.678.336-.83.473-1.656.956-2.48 1.432-.215.126-.431.245-.642.373a.485.485 0 0 1-.272.086c0-.293.052-.58.095-.868.143 0 .262-.076.381-.143 1.15-.663 2.298-1.326 3.444-1.99.036-.02.073-.036.11-.054.018.274.07.546.042.824v.003z" fill="#F4D042"/><path d="M23.671 5.422a73.715 73.715 0 0 0-2.737 1.57c-.721.428-1.46.828-2.188 1.247-.15.086-.333.15-.367.36l-1.2.147c.018-.165.155-.22.272-.287.449-.266.904-.522 1.356-.785 1.045-.608 2.087-1.22 3.132-1.827.36-.211.74-.394 1.078-.642.217.073.45.1.651.217h.003z" fill="#E2A632"/><path d="M4.814 21.328c.22-.003.385-.144.56-.245 1.032-.602 2.052-1.222 3.11-1.778.036-.018.076-.034.112-.049l.046.825a.445.445 0 0 0-.192.07c-.727.419-1.452.84-2.185 1.247-.43.238-.83.544-1.301.706a3.196 3.196 0 0 1-.147-.776h-.003z" fill="#F4D042"/><path d="M28.663 8.358c.232.153.416.358.593.568-.116.132-.272.208-.419.294-.944.562-1.915 1.078-2.847 1.662a.685.685 0 0 1-.303.119 4.847 4.847 0 0 1-.58-.452c.186-.156.403-.26.611-.38l2.725-1.579c.098-.055.187-.116.22-.232z" fill="#EFC43D"/><path d="M28.663 8.358c-.03.116-.122.177-.22.232a783.89 783.89 0 0 0-2.725 1.58c-.208.119-.428.223-.61.379a6.347 6.347 0 0 1-.753-.492c.242-.05.447-.177.648-.303.941-.58 1.913-1.106 2.87-1.662.094-.055.198-.104.213-.232.214.14.415.296.577.498z" fill="#F4D042"/><path d="M10.885 25.523c-.522.213-.962.577-1.457.843-.59.32-1.168.666-1.748.999a.453.453 0 0 0-.205.195c-.174-.204-.345-.409-.455-.66a.55.55 0 0 1 .202-.17c.812-.474 1.619-.95 2.435-1.418.247-.144.48-.324.76-.407.184.184.324.4.471.611l-.003.007z" fill="#E2A632"/><path d="M28.7 15.168c.553-.412 1.192-.681 1.772-1.045.467-.29.947-.556 1.42-.834a.601.601 0 0 1 .266-.1c.086.253.248.473.297.742a.584.584 0 0 0-.33.095c-.516.299-1.036.59-1.55.892-.54.32-1.105.602-1.63.953-.114-.223-.178-.464-.251-.703h.006z" fill="#E7B036"/><path d="M25.688 11a.67.67 0 0 0 .302-.118c.932-.584 1.904-1.1 2.848-1.662.146-.089.302-.162.418-.294.208.144.336.358.498.541-.904.584-1.857 1.085-2.78 1.635-.235.14-.474.275-.712.41-.23-.13-.403-.319-.577-.511h.003z" fill="#EBB839"/><path d="M32.877 15.25a.506.506 0 0 0-.257.062c-.996.58-1.995 1.16-2.991 1.744-.12.07-.232.147-.348.22-.074-.22-.101-.449-.138-.678.067-.11.174-.174.281-.235.929-.535 1.858-1.066 2.79-1.598.143-.083.284-.171.458-.171.052.226.195.421.205.66v-.003zM4.96 22.104c.474-.165.872-.468 1.302-.706.734-.407 1.458-.831 2.185-1.247a.487.487 0 0 1 .192-.07c.037.248.07.495.107.742-.324.01-.55.236-.81.382-.846.477-1.683.975-2.523 1.467a.712.712 0 0 1-.29.098c-.098-.211-.15-.431-.165-.66l.003-.006z" fill="#EFC43D"/><path d="M32.672 14.59c-.174 0-.315.09-.459.172-.931.532-1.86 1.066-2.789 1.598-.107.06-.214.125-.281.235a3.476 3.476 0 0 1-.193-.724c.523-.351 1.088-.636 1.632-.953.513-.303 1.036-.593 1.549-.892a.577.577 0 0 1 .33-.095c.095.21.192.425.214.66h-.003z" fill="#EBB839"/><path d="m30.933 10.998-3.208 1.87a.507.507 0 0 1-.256.07 3.122 3.122 0 0 1-.34-.483c.367-.253.774-.443 1.155-.669.667-.394 1.339-.782 2.008-1.17a.854.854 0 0 0 .232-.199c.174.168.309.36.41.58zM10.415 24.912c-.282.082-.51.262-.761.406-.816.464-1.626.944-2.435 1.417a.522.522 0 0 0-.202.172 2.002 2.002 0 0 1-.367-.584c.443-.263.88-.529 1.326-.785.572-.327 1.146-.651 1.72-.972.126-.07.26-.128.389-.19.122.172.253.34.332.535h-.002z" fill="#DB982D"/><path d="M12.37 27.007a1.092 1.092 0 0 0-.434.18c-.954.612-1.962 1.122-2.918 1.724-.083.052-.165.098-.223.177a1.627 1.627 0 0 1-.422-.446c.08-.128.208-.19.336-.263.96-.547 1.916-1.097 2.87-1.65a.808.808 0 0 0 .24-.19c.217.117.386.291.55.468z" fill="#EFC43D"/><path d="M12.764 32.302c-.26-.125-.523-.247-.782-.373-.138-.116-.333-.143-.456-.287.043-.03.07-.07.083-.122.48.247.962.498 1.442.746-.092.045-.19.033-.287.036z" fill="#E8B337"/><path d="M7.564 28.214c-.021 0-.043-.003-.064-.006-.275-.415-.617-.785-.846-1.231h.155l.89 1.228c-.046 0-.092.006-.135.006v.003z" fill="#DE9E30"/><path d="M5.043 23.634c-.073-.134-.082-.302-.198-.415 0-.254-.162-.483-.132-.743.04 0 .08 0 .12-.003.14.38.244.767.339 1.158h-.129v.003z" fill="#E8B337"/><path d="M12.37 27.007c-.168-.174-.333-.351-.55-.467-.333-.32-.593-.709-.935-1.02-.147-.211-.284-.428-.47-.612-.08-.198-.211-.363-.334-.534l-.614-1.164a7.211 7.211 0 0 0-.32-.82c-.141-.522-.31-1.035-.398-1.57-.036-.247-.07-.494-.107-.742l-.046-.825c.01-.51 0-1.017.055-1.524.11-.334.055-.697.18-1.03l.343-1.204c.21-.415.327-.874.559-1.277l.898-1.476c.315-.25.529-.595.798-.886 1.026-1.109 2.26-1.91 3.645-2.499.68-.29 1.399-.449 2.114-.617l1.2-.147c.73-.015 1.458.034 2.185.098.48.113.96.223 1.442.336.333.12.666.235.996.355.45.223.898.449 1.35.672.242.177.486.348.752.492.183.165.376.317.58.452.175.19.349.379.578.51.284.32.553.657.868.947.095.174.217.327.339.483.229.305.39.657.632.953l.596 1.277c.073.239.138.477.25.703.046.247.095.492.193.724.037.23.064.458.138.678.036.318.07.636.107.954 0 .507 0 1.017-.003 1.524-.043.287-.092.575-.095.868-.08.357-.16.715-.235 1.07-.18.54-.346 1.087-.581 1.61-.342.772-.843 1.45-1.31 2.147-.349.33-.63.724-.981 1.054a10.434 10.434 0 0 1-4.962 2.622c-.107.024-.211.055-.318.082-.684.089-1.372.171-2.065.168-.468-.034-.935-.091-1.403-.085-.33-.061-.644-.202-.986-.217l-.944-.303-1.045-.418c-.474-.25-.917-.566-1.403-.795-.168-.26-.467-.351-.684-.544l-.01-.003zm16.782-8.02a10.136 10.136 0 0 0-10.15-10.146c-5.624 0-10.161 4.55-10.161 10.183 0 5.527 4.604 10.1 10.156 10.095 5.597-.007 10.158-4.559 10.152-10.132h.003z" fill="#8D6020"/><path d="M29.152 18.99c.006 5.573-4.558 10.126-10.152 10.132-5.552.006-10.156-4.568-10.156-10.095 0-5.634 4.537-10.183 10.162-10.183a10.136 10.136 0 0 1 10.15 10.146h-.004zm-18.447 4.968c-.034.08.009.132.082.174.08.046.159.113.165.202.015.388.379.535.562.807.08.119.178.275.315.342.269.125.415.357.56.586.112.178.247.309.448.373.358.116.547.47.886.611.006 0 .01.01.012.015.086.168.23.217.41.266.241.067.467.22.663.36.208.15.412.233.648.267.125.018.22.045.284.165.064.119.177.137.305.11.144-.031.29-.04.403.082.101.11.205.153.34.046.049-.04.122-.034.18-.012.21.076.412.162.642.207.238.05.473.11.714.092.205-.015.395.089.593.046a3.878 3.878 0 0 1 1.512-.046c.107.018.19 0 .236-.113.043-.113.143-.144.238-.1.205.09.367.033.535-.086a.686.686 0 0 1 .269-.104c.35-.067.687-.196 1.044-.239.07-.009.141-.015.193-.067.147-.152.354-.198.532-.3.113-.063.192-.198.33-.2.207-.007.336-.13.476-.254.22-.196.407-.446.733-.492a.295.295 0 0 0 .236-.187c.064-.192.195-.323.351-.446.113-.088.208-.198.293-.317.16-.211.474-.27.556-.556.003-.013.037-.016.052-.028.202-.18.443-.327.45-.648 0-.113.06-.201.161-.272.233-.159.407-.394.523-.635.104-.21.241-.437.19-.703-.016-.067.042-.107.097-.143.238-.15.43-.62.364-.896-.046-.192-.019-.357.146-.48a.278.278 0 0 0 .104-.33c-.11-.332.196-.607.116-.931 0-.006.006-.012.01-.018a.176.176 0 0 0 .015-.178c-.061-.137-.025-.262.012-.4.085-.315.186-.62.043-.962-.107-.257-.217-.544-.052-.834.03-.055-.01-.12-.025-.18-.06-.22-.17-.428-.085-.679.036-.107.003-.309-.101-.33-.248-.052-.177-.186-.147-.333.01-.049-.009-.11-.021-.162a2.41 2.41 0 0 0-.394-.834.93.93 0 0 1-.153-.397c-.061-.357-.12-.724-.501-.91-.037-.019-.08-.07-.083-.11-.018-.144-.03-.273-.226-.266-.055 0-.07-.074-.067-.135 0-.04.025-.104-.012-.116-.18-.049-.162-.195-.18-.327a.184.184 0 0 0-.101-.146c-.51-.242-.785-.749-1.213-1.085-.03-.024-.04-.07-.058-.107-.021-.052-.046-.12-.101-.125-.275-.019-.312-.437-.636-.373-.015.003-.055-.043-.064-.073-.067-.187-.22-.239-.39-.248a.372.372 0 0 1-.315-.168c-.037-.052-.086-.098-.147-.11-.34-.064-.556-.345-.85-.486-.213-.103-.449-.247-.666-.232-.223.015-.342-.07-.491-.174a.595.595 0 0 0-.226-.095 8.543 8.543 0 0 0-1.042-.143.738.738 0 0 1-.242-.05c-.339-.146-.72-.124-1.048-.07-.269.046-.504.108-.763.013a.162.162 0 0 0-.101 0c-.294.07-.602.11-.874.229-.272.12-.565-.043-.819.12-.226-.13-.348.033-.461.176-.101.126-.208.171-.358.113-.146-.055-.272-.009-.412.052-.318.135-.483.517-.874.532-.021 0-.046.03-.064.049a.693.693 0 0 1-.324.17c-.183.053-.406.059-.467.31-.007.027-.046.067-.07.067-.227.012-.325.18-.431.342-.065.098-.171.128-.275.171-.196.085-.41.15-.535.345-.14.217-.306.403-.535.532a.477.477 0 0 0-.226.263c-.14.427-.623.647-.678 1.127-.003.034-.052.064-.083.089-.268.204-.384.513-.458.81-.07.286-.256.51-.342.784-.043.138-.174.242-.098.41.028.06-.012.104-.064.134-.043.025-.082.055-.08.11.019.235-.222.419-.13.672.008.022-.034.058-.047.089-.082.21-.207.412-.14.657.009.04.024.1.003.119-.168.174-.01.376-.052.544-.089.348-.034.666.07.996.043.137-.033.305 0 .449.125.568.01 1.17.235 1.723.007.012.01.03.004.04-.074.177.042.3.15.394.097.085.11.165.079.269-.034.122-.022.232.097.308.153.098.205.245.214.422.022.342.132.645.44.843.07.046.129.107.095.217h-.018z" fill="#DE9E30"/><path d="M10.701 23.955c.034-.11-.02-.17-.094-.217-.309-.198-.419-.5-.44-.843-.01-.177-.061-.324-.214-.422-.12-.076-.131-.183-.098-.308.028-.107.016-.183-.08-.27-.106-.094-.222-.216-.149-.393.006-.012 0-.028-.003-.04-.226-.553-.107-1.155-.235-1.723-.03-.144.046-.312 0-.45-.104-.33-.16-.644-.07-.995.042-.168-.117-.37.051-.544.019-.021.007-.08-.003-.12-.067-.244.058-.445.14-.656.013-.03.053-.067.047-.089-.092-.25.146-.437.131-.672-.003-.055.037-.085.08-.11.052-.03.091-.073.064-.134-.077-.168.055-.272.098-.41.085-.275.271-.498.342-.785.073-.296.19-.605.458-.81.034-.024.08-.055.082-.088.056-.48.538-.7.679-1.127a.488.488 0 0 1 .226-.263c.229-.129.397-.312.535-.532.125-.195.339-.26.534-.345.101-.046.208-.076.275-.171.107-.16.202-.33.43-.342.025 0 .065-.04.071-.068.058-.25.281-.256.468-.308a.654.654 0 0 0 .324-.171c.018-.019.042-.05.064-.05.39-.011.553-.396.873-.53.141-.059.266-.108.413-.053.153.058.26.013.357-.113.117-.143.239-.305.462-.177.253-.162.547 0 .819-.12.271-.118.58-.158.873-.228.034-.01.07-.01.101 0 .26.091.498.03.764-.012.327-.055.709-.077 1.048.07a.74.74 0 0 0 .241.049c.352.021.697.076 1.042.143.08.016.162.05.226.095.15.104.27.192.492.174.217-.015.452.132.666.232.293.14.507.422.85.486.06.012.11.055.146.11.077.11.177.159.315.168.171.01.327.061.39.248.01.03.05.076.065.073.324-.064.36.354.636.373.051.003.076.073.1.125.016.037.028.085.059.107.427.336.702.843 1.212 1.085a.19.19 0 0 1 .101.146c.018.132 0 .278.18.327.037.01.016.077.013.116-.003.058.012.135.067.135.195-.007.21.125.226.265.006.04.046.092.082.11.382.187.44.553.502.91a.97.97 0 0 0 .152.398c.18.257.321.529.394.834.013.052.031.11.022.162-.03.147-.101.281.146.333.107.021.138.223.101.33-.082.25.025.458.086.678.015.061.055.123.024.18-.165.29-.055.578.052.835.144.342.043.647-.043.962-.036.138-.073.263-.012.4a.176.176 0 0 1-.015.177c-.003.007-.012.013-.01.019.08.324-.225.599-.115.932.04.122.015.244-.104.33-.165.122-.193.287-.147.48.067.274-.125.745-.363.895-.055.036-.113.073-.098.143.055.266-.086.492-.19.703-.119.241-.29.473-.522.635-.1.07-.162.156-.162.272-.006.321-.248.47-.45.648-.014.012-.048.015-.051.027-.082.29-.397.346-.556.556-.089.117-.18.23-.293.318-.153.122-.288.25-.352.446a.291.291 0 0 1-.235.187c-.327.045-.513.296-.733.492-.14.125-.27.247-.477.253-.137.003-.217.138-.33.202-.177.1-.382.15-.532.3-.048.051-.122.057-.192.066-.357.043-.694.171-1.045.239a.706.706 0 0 0-.269.104c-.168.119-.33.18-.534.085-.092-.043-.193-.012-.239.101-.043.113-.128.131-.235.113a3.822 3.822 0 0 0-1.512.046c-.199.046-.391-.061-.593-.046-.241.018-.477-.046-.715-.092-.23-.046-.43-.131-.642-.207-.058-.022-.13-.025-.18.012-.134.107-.238.06-.339-.046-.113-.122-.26-.113-.403-.082-.126.027-.242.012-.306-.11-.064-.12-.159-.15-.284-.166a1.388 1.388 0 0 1-.648-.265c-.195-.14-.421-.294-.663-.36-.177-.05-.323-.099-.409-.267 0-.006-.01-.012-.012-.015-.34-.14-.529-.498-.886-.61-.199-.065-.336-.197-.45-.374-.143-.229-.293-.461-.559-.586-.14-.064-.235-.22-.314-.343-.18-.271-.547-.415-.562-.806-.003-.089-.086-.156-.165-.202-.074-.043-.116-.098-.083-.174h.018zm8.127 2.069c1.238-.004 1.644-.08 2.704-.477.083-.03.171-.061.257-.073.192-.025.351-.113.504-.22.086-.058.18-.098.269-.147.263-.147.553-.275.76-.486.251-.253.545-.464.762-.754.326-.437.79-.752 1.047-1.26.233-.457.477-.928.587-1.41.116-.517.318-1.021.312-1.58-.006-.535.058-1.07-.03-1.601-.096-.568-.193-1.137-.422-1.674-.095-.223-.285-.38-.346-.627a1.886 1.886 0 0 0-.556-.947c-.317-.293-.55-.66-.867-.95-.425-.388-.786-.87-1.406-.987-.052-.01-.098-.049-.146-.073-.233-.129-.453-.309-.703-.38-.336-.094-.672-.2-1.011-.283-.783-.187-1.568-.306-2.362-.068-.028.01-.058.019-.08.013-.36-.126-.696.064-1.017.134-.767.168-1.427.617-2.108 1-.37.207-.617.564-.944.827-.37.296-.639.69-.932 1.06-.26.327-.385.73-.575 1.094-.146.284-.302.602-.342.941-.036.284-.094.565-.14.843-.064.395-.05.78-.064 1.17-.013.275-.061.557-.013.822.065.36.16.721.254 1.079.192.727.623 1.341.972 1.992.189.351.495.593.779.865.4.384.782.776 1.255 1.087.541.36 1.161.523 1.73.807.122.06.256.107.39.125.523.073 1.046.187 1.486.134l-.004.004z" fill="#E2A632"/><path d="M18.829 26.027c-.44.052-.96-.065-1.485-.135a1.272 1.272 0 0 1-.391-.125c-.569-.284-1.189-.446-1.73-.807-.47-.311-.852-.702-1.255-1.087-.284-.272-.59-.514-.78-.865-.35-.65-.779-1.268-.971-1.992a14.96 14.96 0 0 1-.254-1.078c-.048-.263 0-.547.013-.822.015-.388 0-.776.064-1.17.046-.282.107-.563.14-.844.043-.339.196-.654.343-.94.189-.364.311-.768.574-1.095.293-.37.562-.763.932-1.06.327-.262.574-.623.944-.828.681-.382 1.341-.83 2.108-.999.324-.07.66-.256 1.017-.134.025.009.055-.003.08-.012.794-.239 1.576-.12 2.361.067.343.082.676.19 1.012.284.25.07.47.247.703.379.048.027.094.064.146.073.617.116.978.599 1.406.987.317.29.55.657.867.95.275.25.468.584.556.947.061.248.25.404.346.627.232.537.326 1.106.421 1.674.089.532.025 1.07.03 1.6.007.56-.195 1.061-.31 1.58-.108.483-.355.954-.588 1.412-.26.51-.72.822-1.047 1.259-.217.29-.51.498-.761.754-.205.208-.498.336-.761.486-.089.049-.183.089-.269.147a1.133 1.133 0 0 1-.504.22 1.236 1.236 0 0 0-.257.073c-1.06.397-1.466.474-2.703.477l.003-.003zm.333-3.163c2.126-.064 3.724-1.723 3.74-3.892.014-2.17-1.733-3.89-3.936-3.883-2.175.006-3.895 1.851-3.856 3.877.043 2.163 1.644 3.969 4.052 3.895v.003z" fill="#E8B337"/><path d="M19.165 22.864c-2.405.07-4.009-1.732-4.052-3.895-.04-2.026 1.68-3.871 3.856-3.877 2.203-.006 3.953 1.71 3.935 3.883-.015 2.166-1.613 3.828-3.74 3.892v-.003zm-1.403-3.843c-.003.587.639 1.262 1.195 1.268.788.009 1.32-.791 1.32-1.265 0-.584-.62-1.31-1.13-1.286-.884.04-1.327.44-1.385 1.283z" fill="#EFC13C"/><path d="M17.762 19.02c.061-.842.501-1.243 1.384-1.282.51-.025 1.134.702 1.13 1.286 0 .473-.534 1.274-1.32 1.265-.558-.006-1.197-.681-1.194-1.268z" fill="#F4D042"/><path d="M18.84 35.72c9.367 0 16.96-7.48 16.96-16.708 0-9.228-7.593-16.71-16.96-16.71-9.365 0-16.957 7.482-16.957 16.71 0 9.228 7.592 16.709 16.958 16.709z" stroke="#fff" stroke-width="3" stroke-miterlimit="10"/><path d="M29.387 15.453c-.777.503-1.108 1.287-1.374 2.129-.314.987-.624 1.97-.997 2.936-.538 1.388-.921 2.792-.745 4.3.075.68-.108 1.005-.894.998-4.745-.031-9.487-.024-14.232-.004-.662 0-.956-.193-.894-.887.283-3.074-1.394-5.66-2.15-8.472-.096-.362-.448-.431-.642-.673-.438-.545-.476-1.1.018-1.611.435-.452.98-.556 1.508-.166.552.407.704.946.359 1.574-.456.835-.052 1.932.976 2.67.922.663 1.56.18 2.133-.527.683-.85 1.077-1.846 1.484-2.844.141-.345.086-.566-.12-.856-.429-.604-.387-1.21.223-1.677.515-.393 1.06-.338 1.508.121.535.549.528 1.15-.024 1.677-.252.242-.428.418-.255.794.504 1.083.987 2.18 1.863 3.026.85.818 1.474.808 2.24-.044.787-.877 1.15-1.981 1.584-3.048.17-.417-.162-.548-.359-.78-.449-.531-.459-1.107.02-1.611.436-.46.98-.538 1.509-.152.614.452.763 1.08.27 1.65-.37.427-.277.766-.105 1.162.428.987.853 1.981 1.605 2.775.839.884 1.66.953 2.457.052.625-.704 1.798-1.329.753-2.63-.349-.435-.042-1.008.441-1.332.794-.535 1.329-.048 1.847.494v.956h-.007zm-7.82.062c-.435.81-.8 1.653-1.305 2.405-1.183 1.76-2.612 1.798-3.985.176-.673-.794-1.132-1.736-1.636-2.733-2.37 4.19-2.485 4.269-4.966 3.537.324.921.676 1.829.963 2.757.155.504.414.687.938.684 4.466-.018 8.924-.01 13.39-.01.317 0 .68.048.8-.353.304-1.035.86-2.001.932-3.164-2.312 1.007-2.833.662-5.124-3.3h-.007zM18.24 25.07c2.15 0 4.304-.041 6.453.021.835.024.89-.359.863-.997-.024-.573.076-1.053-.821-1.043-4.303.045-8.607.045-12.91 0-.832-.01-.856.363-.873.998-.017.71.09 1.07.949 1.042 2.108-.066 4.224-.02 6.336-.02h.003z" fill="#935E02"/><path d="M21.57 15.508c2.288 3.961 2.813 4.306 5.125 3.299-.072 1.163-.628 2.133-.932 3.164-.117.4-.483.352-.8.352-4.466 0-8.924-.007-13.39.01-.524 0-.783-.179-.939-.683-.286-.928-.638-1.835-.962-2.757 2.48.732 2.595.652 4.965-3.537.504 1 .963 1.936 1.636 2.733 1.374 1.622 2.802 1.584 3.986-.176.507-.752.873-1.598 1.305-2.405h.006zM18.24 25.063c-2.112 0-4.227-.044-6.336.021-.855.028-.962-.328-.949-1.042.014-.639.038-1.008.873-.997 4.304.044 8.607.044 12.91 0 .898-.01.798.465.822 1.042.027.638-.028 1.021-.863.997-2.15-.062-4.303-.02-6.453-.02h-.004z" fill="#590404"/></svg>