<svg width="38" height="37" fill="none" xmlns="http://www.w3.org/2000/svg"><path d="M3.011 18.284a17.13 17.13 0 0 1 .425-3.636c.336-1.522.92-2.951 1.69-4.296.51-.886 1.097-1.73 1.775-2.502 1.13-1.283 2.413-2.38 3.886-3.254.91-.54 1.867-.987 2.869-1.341a14.917 14.917 0 0 1 2.786-.712c1.326-.205 2.665-.29 4.009-.144.52.055 1.039.113 1.546.226 1.02.227 2.016.52 2.99.908.646.26 1.278.531 1.88.874a15.83 15.83 0 0 1 2.566 1.79 15.841 15.841 0 0 1 5.31 9.401c.174 1.027.26 2.06.236 3.098-.019.813-.132 1.616-.26 2.417-.293 1.827-.96 3.523-1.867 5.123a15.575 15.575 0 0 1-2.181 2.936 15.539 15.539 0 0 1-3.56 2.851 15.95 15.95 0 0 1-3.642 1.567 16.94 16.94 0 0 1-2.783.56 15.016 15.016 0 0 1-3.355 0 29.51 29.51 0 0 1-1.283-.172 9.496 9.496 0 0 1-1.078-.25c-1.354-.382-2.658-.883-3.88-1.589a16.414 16.414 0 0 1-2.512-1.76 15.855 15.855 0 0 1-5.331-9.395c-.14-.889-.242-1.79-.236-2.7zm21.775 14.69a5.357 5.357 0 0 0 1.235-.541c.07-.022.146-.037.213-.07A19.749 19.749 0 0 0 28 31.313c.077-.052.14-.11.165-.201.364-.135.627-.413.91-.657.23-.18.46-.36.685-.547.061-.052.122-.11.14-.196a.454.454 0 0 0 .169-.113c.418-.406.834-.819 1.182-1.286.364-.486.773-.944 1.042-1.497.248-.312.477-.639.58-1.03.034-.033.08-.06.101-.104.254-.525.58-1.017.721-1.591.022-.028.05-.052.062-.08.22-.54.418-1.09.543-1.662.092-.422.272-.825.263-1.268.104-.324.14-.657.165-.993.095-.449.089-.904.086-1.36a.685.685 0 0 0 .04-.302c-.016-.437-.034-.874-.053-1.31a14.842 14.842 0 0 0-.522-3.016c-.122-.434-.238-.874-.446-1.28-.116-.51-.355-.972-.593-1.433a4.779 4.779 0 0 0-.617-1.121c-.137-.23-.202-.51-.455-.66a.728.728 0 0 0-.33-.495.344.344 0 0 0-.083-.226c-.44-.52-.843-1.067-1.332-1.54-.266-.257-.489-.556-.81-.755-.33-.278-.601-.626-.998-.825-.38-.372-.831-.644-1.28-.92-.29-.18-.566-.393-.896-.497a7.086 7.086 0 0 0-1.494-.7c-.217-.138-.464-.192-.703-.275-.204-.116-.437-.153-.663-.208-.244-.076-.485-.174-.742-.204-.305-.08-.605-.187-.913-.239-.981-.168-1.971-.263-2.967-.217-.239 0-.477-.003-.718-.003-.327 0-.657-.009-.975.08l-.345.027c-.526.046-1.033.187-1.552.272-.015.012-.03.025-.046.034h-.003c-.391.07-.773.177-1.146.308-.183.064-.39.083-.543.23a.997.997 0 0 0-.398.094c-.751.306-1.478.663-2.184 1.063-.236.132-.514.211-.679.45a3.958 3.958 0 0 0-1.112.788 1.504 1.504 0 0 0-.308.204A19.39 19.39 0 0 0 7.57 7.324c-.376.392-.749.786-1.045 1.247-.278.26-.467.584-.66.907-.226.312-.464.614-.577.993a.194.194 0 0 0-.14.138c-.059.198-.175.367-.276.544a.537.537 0 0 0-.076.272.461.461 0 0 0-.165.207c-.235.49-.44.987-.623 1.497-.083.226-.196.443-.162.694-.016.012-.028.027-.043.04-.037.104-.08.204-.104.311-.22.92-.43 1.843-.51 2.787-.016.467-.028.935-.043 1.402.015.44.01.88.049 1.317a16.105 16.105 0 0 0 1.378 5.2.98.98 0 0 0 .22.345c0 .086.024.162.064.235.3.553.605 1.1.968 1.617.245.464.614.843.917 1.264a.373.373 0 0 0 .199.141c.07.165.17.312.299.437.357.357.712.718 1.072 1.072.156.153.327.288.526.385.244.278.513.523.864.663.306.324.679.553 1.079.743.061.046.116.094.18.134.941.547 1.907 1.042 2.958 1.354.3.091.58.253.907.25a4.886 4.886 0 0 0 1.53.33c.086.116.224.098.34.113.904.11 1.809.168 2.72.131.525.043 1.041-.06 1.56-.094.129-.01.263-.012.382-.074.373-.055.752-.079 1.11-.21a8.273 8.273 0 0 0 1.114-.285c.413-.119.831-.22 1.207-.442l-.003-.016z" fill="#E38A33"/><path d="M13.632 3.45c.152-.143.357-.165.543-.229a7.378 7.378 0 0 1 1.146-.311c.018.085.04.165.156.143.55-.1 1.103-.204 1.653-.302.1-.019.137-.077.137-.171.321-.089.648-.08.975-.08.238 0 .476 0 .718.003.107.27.348.217.55.199.455-.046.901.043 1.35.082.58.05 1.152.175 1.727.275.106.019.207.03.256-.097.257.03.498.128.742.204-.094.14-.232.129-.366.092a1.6 1.6 0 0 0-.59-.037c-.373.04-.748.07-1.121.113-.434.046-.874.052-1.305.138-.094.018-.217.006-.244.143-.217.003-.43.007-.648.013-.116 0-.232.006-.308.116-.69-.01-1.372.094-2.06.131-.06-.104-.152-.122-.265-.104-.666.11-1.32.257-1.968.443-.403.116-.791.278-1.192.397a.236.236 0 0 0-.18-.027c-.336.113-.69.113-1.035.134-.355.022-.706.11-1.064.052.089-.122.226-.174.352-.244a14.534 14.534 0 0 1 1.772-.819c.125-.049.238-.107.278-.25l-.01-.007z" fill="#EBB839"/><path d="M23.58 33.416c-.364.12-.737.22-1.116.284-.055-.058-.125-.1-.198-.094-.309.027-.623.024-.917.15-.15.012-.3.027-.449.04l-1.49.124c-1.01.006-2.011-.1-3.01-.201-.462-.126-.923-.236-1.403-.263-.024-.061-.07-.095-.134-.113-.061-.018-.162-.01-.15-.104.012-.08.11-.067.174-.073.6-.055 1.195-.107 1.794-.16.134-.011.278.007.379-.115.427.015.849.104 1.277.07a.3.3 0 0 0 .177.043c.507.018 1.011-.012 1.515-.055.306-.028.614-.025.914-.104.531-.027 1.045-.171 1.567-.254.293.037.584 0 .874-.021.642-.055 1.28-.12 1.919-.18.082-.006.168-.006.22.076l-.782.376c-.367.061-.685.26-1.042.351-.098.025-.116.126-.123.217l.003.006z" fill="#FADC46"/><path d="M11.23 4.761c.358.061.712-.027 1.063-.052.346-.021.7-.021 1.036-.134.058-.022.122-.003.18.027-.757.37-1.537.697-2.255 1.149-.201.128-.43.18-.662.205-.404.046-.807.076-1.21.11-.07.006-.135.009-.193.055-.324.25-.65.504-.94.794-.05.049-.11.1-.074.177.043.089.128.058.201.05.233-.031.462-.071.697-.056.067.003.15-.018.183.058.034.077-.04.125-.085.171l-.944.89c-.046-.08-.12-.074-.199-.068-.134.012-.272.028-.41.022-.326-.016-.61.055-.818.33-.07.091-.162.122-.272.085.293-.461.666-.855 1.045-1.246.434-.45.901-.865 1.378-1.271a1.39 1.39 0 0 1 .308-.205.408.408 0 0 0 .364-.083c.303-.226.611-.44.92-.657.238-.097.44-.274.693-.345l-.006-.006zM33.836 12.818c.21.406.324.846.446 1.28.278.987.458 1.992.522 3.015h-.192c.024-.073.006-.146 0-.223-.022-.256-.101-.507-.086-.766-.04-.187-.076-.376-.122-.563-.03-.134-.11-.22-.26-.21-.137.009-.272.018-.41.036-.173.022-.253.132-.228.303.027.174.042.354.113.52l.082.989c-.024.305.052.605.043.91-.003.04-.01.077-.012.117-.074-.01-.11-.065-.147-.116V17.902a18.644 18.644 0 0 0-.571-3.627 3.54 3.54 0 0 0 .107-.046c.107.07.055.272.232.281.192.01.382.022.571-.03.147-.04.208-.138.175-.275a10.438 10.438 0 0 0-.202-.688c-.037-.11-.113-.189-.241-.192-.239-.006-.48-.03-.706.076-.095-.18-.193-.357-.288-.537-.012-.083-.02-.162-.033-.245.156-.012.312-.033.467-.04.217-.009.443-.042.587.19.028.046.095.049.15.049h.003z" fill="#F4D042"/><path d="M3.846 13.814c-.034-.25.08-.468.162-.694.186-.507.39-1.008.623-1.497a.477.477 0 0 1 .165-.207c.156-.007.186-.141.247-.245.11-.177.18-.391.44-.415.281-.028.56-.05.844-.04-.028.137-.123.244-.184.366-.046.092-.107.19.028.266-.01.034-.016.067-.034.098-.315.516-.54 1.075-.755 1.638-.174.458-.32.931-.48 1.396-.045 0-.09-.006-.14-.01l.104-.442c.144-.26.202-.544.26-.831.122-.168.186-.367.256-.56.055-.146-.009-.226-.168-.216-.17.009-.342.024-.51.036-.1.01-.195.05-.244.132-.113.201-.242.4-.245.644-.097.126-.119.284-.183.425-.04.086-.082.153-.186.156z" fill="#D78D29"/><path d="M24.948 3.649a6.732 6.732 0 0 1 1.494.7c.006.14.098.214.205.287.379.26.819.425 1.149.758-.025.073-.077.116-.153.119-.458.006-.91.156-1.372.046-.015-.022-.027-.052-.049-.065-.522-.32-1.063-.605-1.647-.8l-.082-.046c.131-.217.357-.171.553-.195.217-.028.44.018.657-.031.06-.015.153-.003.159-.098.003-.076-.064-.119-.126-.15-.174-.079-.36-.14-.528-.229-.116-.06-.293-.088-.26-.29V3.65z" fill="#FADC46"/><path d="M19.953 3.61c.03-.138.15-.126.244-.144.431-.086.871-.089 1.305-.138.373-.04.749-.07 1.121-.113a1.6 1.6 0 0 1 .59.037c.137.036.272.052.367-.092.226.055.455.092.663.208a.26.26 0 0 0 .097.217c.132.113.074.177-.064.195-.305.04-.617.058-.92.107-.216.037-.458-.042-.644.14-.073-.008-.15-.014-.223-.033a14.29 14.29 0 0 0-2.539-.39l.003.005z" fill="#EFC43D"/><path d="M29.616 6.588c.321.196.544.498.81.755.492.473.895 1.02 1.332 1.54.058.067.083.14.083.226.012.06.021.122.036.18.129.492.129.495-.385.55a.672.672 0 0 1-.62-.254c-.058-.067-.107-.143-.186-.19-.034-.213-.226-.317-.336-.476-.129-.186-.113-.26.113-.3.153-.027.311-.03.467-.048.199-.021.223-.073.122-.25a1.524 1.524 0 0 0-.409-.453 7.115 7.115 0 0 0-.868-.925c-.11-.098-.177-.205-.159-.355z" fill="#D78D29"/><path d="m3.146 18.357.043-1.402c.067-.028.131-.058.198-.086 0 .128.006.26 0 .388-.003.162.068.23.233.235.226.01.446-.046.669-.052.015.098 0 .211.125.254 0 .303-.003.608-.006.91v.034c0 .028 0 .058.003.086-.104.03-.15.104-.162.207l-.904.083a1.005 1.005 0 0 0-.205-.66l.006.003zM27.796 5.39c-.33-.333-.773-.494-1.15-.757-.106-.074-.198-.147-.204-.287.333.103.605.317.895.498.446.278.902.546 1.28.92-.06.137.019.22.113.296.217.18.431.36.648.537.043.037.095.07.08.132-.019.07-.089.082-.15.091-.183.022-.367.04-.553.055-.104.01-.208.013-.26.126-.394-.214-.7-.547-1.057-.807-.122-.089-.061-.168.067-.183.245-.034.49-.058.734-.086.055-.006.116-.006.134-.07.015-.058-.037-.086-.073-.113-.165-.122-.309-.272-.504-.352z" fill="#EFC13C"/><path d="M28.495 7.004c.052-.113.156-.12.26-.126.183-.015.37-.033.553-.055.061-.006.131-.021.15-.091.015-.061-.037-.098-.08-.132-.217-.18-.43-.36-.647-.537-.095-.08-.175-.162-.113-.297.397.199.669.544.999.825-.019.15.049.257.159.355.317.28.604.592.867.925-.21.129-.443.129-.678.126-.11 0-.226-.01-.275.125-.223-.128-.373-.342-.571-.498-.18-.232-.456-.37-.624-.617v-.003z" fill="#E7B036"/><path d="M5.828 27.067c-.363-.513-.669-1.063-.968-1.616a.454.454 0 0 1-.064-.235c.045-.306-.135-.556-.208-.831a.967.967 0 0 0 .467.01c.162-.034.324-.065.49-.022.247.379.43.791.616 1.204a2.953 2.953 0 0 1-.632.085c-.263.003-.296.07-.171.297.198.354.428.69.599 1.06-.043.015-.086.033-.129.049z" fill="#EFC13C"/><path d="M22.715 4.03c.183-.18.428-.103.645-.14.305-.052.614-.067.92-.107.137-.018.195-.085.063-.195a.253.253 0 0 1-.098-.217c.239.086.486.137.703.275-.033.202.144.23.26.29.168.092.351.153.529.23.064.027.128.07.125.149-.003.095-.095.086-.16.098-.216.049-.44.003-.656.03-.195.025-.425-.018-.553.196-.547-.202-1.085-.422-1.662-.535a.201.201 0 0 1-.116-.076v.003z" fill="#F4D042"/><path d="M17.063 32.894c-.101.122-.245.104-.38.116-.598.052-1.194.104-1.793.159-.064.006-.162-.006-.174.073-.015.092.089.086.15.104.064.018.11.052.134.113-.058.018-.116.034-.17.052-.328.006-.609-.156-.908-.25.067-.162-.07-.193-.165-.248-.144-.082-.33-.076-.452-.208.052-.012.104-.036.159-.036.464-.006.922-.08 1.384-.129.15-.015.317.01.44-.119.238.055.476.11.715.168.35.086.714.101 1.063.208l-.003-.003z" fill="#EFC43D"/><path d="M6.17 11.348c-.13-.076-.07-.174-.027-.266.061-.122.156-.226.184-.366.155-.132.216-.33.323-.495.074-.116.248-.226.165-.37-.082-.143-.265-.036-.403-.04-.394-.006-.727.101-.895.502a.244.244 0 0 1-.226.152c.113-.379.351-.681.577-.993.11.12.171.022.217-.06a.77.77 0 0 1 .526-.398c.3-.055.605-.116.913-.037-.009.104-.192.199-.021.315-.074.174-.19.318-.306.464-.4.492-.712 1.045-1.032 1.59l.006.002z" fill="#E8B337"/><path d="M34.731 20.09c-.024.335-.06.671-.165.992-.055 0-.11 0-.165-.003-.235-.073-.476-.046-.715-.027-.137.009-.217.104-.253.235l-.147.538-.128-.046c.134-.532.19-1.076.302-1.61.083-.006.135-.046.16-.125.317.006.638.027.946-.08.055.04.11.083.162.122l.003.003z" fill="#E2A632"/><path d="M3.387 16.866c-.067.027-.131.058-.198.086.08-.945.293-1.867.51-2.787.024-.107.07-.207.104-.311.015-.013.027-.028.043-.04.103 0 .146-.07.186-.156.064-.14.086-.3.183-.425.306.013.602-.113.91-.04-.054.288-.112.572-.259.832-.247-.028-.489.03-.736.045-.138.01-.217.09-.263.22-.07.208-.1.425-.147.639-.1.266-.131.544-.168.825a6.52 6.52 0 0 0-.168 1.112h.003z" fill="#E7B036"/><path d="M4.588 24.385c.074.275.25.525.208.831a.98.98 0 0 1-.22-.345 16.085 16.085 0 0 1-1.378-5.2c-.04-.437-.034-.877-.049-1.317.144.195.22.416.205.66.064.272 0 .556.08.825.018.333.027.669.149.99.052.623.186 1.225.397 1.814.04.251.12.486.242.706.055.37.229.697.37 1.036h-.004z" fill="#F4D042"/><path d="M9.706 31.03c-.352-.14-.62-.385-.865-.663-.043-.214-.196-.351-.348-.489-.067-.058-.14-.11-.15-.207.36-.046.721-.092 1.085-.135.351.22.666.489.993.746-.12.04-.242.04-.364.049-.205.015-.412.006-.608.067-.156.049-.162.116-.049.232.104.104.26.156.312.315 0 .03 0 .058-.003.088l-.003-.003z" fill="#DE9E30"/><path d="M7.527 8.983c-.309-.079-.614-.018-.913.037a.749.749 0 0 0-.526.397c-.046.083-.107.18-.217.061.19-.323.382-.644.66-.907.11.037.205.01.272-.086.208-.274.495-.345.819-.33.134.007.272-.009.41-.02.079-.007.149-.013.198.066-.223.27-.41.572-.7.782h-.003z" fill="#EFC13C"/><path d="M32.626 10.26c.247.352.467.719.617 1.122-.01.03-.028.064-.03.095-.046.32-.046.311-.364.36-.171.028-.358 0-.51.113-.086-.064-.12-.159-.16-.253-.045-.113-.088-.226-.207-.285l-.085-.33c.064-.058.143-.073.226-.082.143-.018.287-.034.427-.064.199-.046.223-.104.138-.29-.058-.126-.128-.248-.05-.392l-.002.007z" fill="#E7B036"/><path d="M5.288 10.468a.244.244 0 0 0 .226-.152c.168-.4.5-.51.895-.502.137 0 .32-.103.403.04.083.14-.091.254-.165.37-.104.165-.168.363-.324.495a6.487 6.487 0 0 0-.843.04c-.26.027-.333.238-.44.415-.064.104-.091.238-.247.245 0-.098.027-.187.076-.273.1-.177.22-.342.275-.543a.2.2 0 0 1 .14-.138l.004.003z" fill="#DE9E30"/><path d="M32.88 25.787c-.107.394-.333.718-.58 1.03-.108-.043-.169.018-.224.092-.049.067-.098.134-.183.155-.223-.091-.443-.006-.666.013-.101.009-.214.058-.281-.052-.07-.116.045-.184.094-.266.065-.104.15-.196.184-.318.067-.07.137-.137.204-.208.236.08.47.03.706.013.266-.022.45-.138.544-.391.034-.092.089-.169.19-.2l.008.13.004.002z" fill="#EBB839"/><path d="M31.884 11.088c.027.11.058.22.085.33h-.092c-.042-.06-.091-.119-.128-.183-.36-.638-.76-1.25-1.195-1.84h.132c.076.05.128.123.186.19a.685.685 0 0 0 .62.254c.514-.055.514-.058.385-.55-.015-.058-.024-.122-.036-.18.177.119.293.28.33.495 0 .14.055.265.113.39.11.23.055.322-.205.349-.122.012-.244.03-.367.043-.155.015-.207.082-.128.232.086.165.177.324.296.467l.004.003z" fill="#DB982D"/><path d="M29.076 30.456c-.284.244-.547.522-.91.657v-.086c-.004-.125-.077-.168-.19-.162-.156.006-.315.01-.47.022-.212.015-.422.042-.633.058-.058.003-.132 0-.15-.077-.015-.064.043-.095.086-.128.198-.138.4-.263.617-.373.125.125.281.083.425.064a11.72 11.72 0 0 1 1.179-.107l.046.132z" fill="#E2A632"/><path d="M32.336 11.956c.153-.116.34-.088.51-.113.318-.049.318-.04.364-.36.006-.034.021-.065.03-.095.235.461.477.923.593 1.433-.055 0-.122 0-.15-.049-.143-.232-.37-.199-.586-.19-.156.007-.312.025-.468.04-.15-.198-.22-.43-.293-.66v-.006z" fill="#EFC43D"/><path d="M31.884 11.088a2.57 2.57 0 0 1-.297-.467c-.08-.15-.027-.217.129-.232.122-.012.244-.03.366-.043.257-.027.312-.119.205-.348-.058-.125-.113-.25-.113-.391.254.15.318.43.455.66-.08.14-.009.262.05.39.085.187.06.245-.138.291-.14.03-.284.046-.428.064a.4.4 0 0 0-.226.083l-.003-.007z" fill="#E2A632"/><path d="M22.84 2.959c-.049.13-.15.119-.256.097-.575-.1-1.146-.226-1.727-.275-.449-.04-.892-.128-1.35-.082-.199.021-.44.073-.55-.199 1-.046 1.986.05 2.967.217.308.052.61.156.913.238l.003.004z" fill="#DE9E30"/><path d="M31.89 27.067c.088-.02.134-.088.183-.155.055-.077.12-.138.223-.092-.272.553-.678 1.011-1.042 1.497-.348.468-.763.88-1.182 1.286a.42.42 0 0 1-.168.113l-.046-.131c.266-.303.532-.602.794-.904.263-.226.465-.505.657-.789.233-.247.465-.498.584-.825h-.003zM13.302 32.805c.122.132.308.126.452.208.095.055.232.086.165.248-1.048-.312-2.017-.807-2.958-1.354-.064-.037-.122-.089-.18-.134.015-.043.027-.086.043-.126.183.055.336.187.528.22.275.284.639.4 1 .526.28.22.614.318.95.412z" fill="#F4D042"/><path d="M11.23 4.761c-.254.07-.455.245-.694.345-.054-.015-.113-.03-.168-.049.165-.24.443-.317.679-.449.705-.4 1.433-.754 2.184-1.063.129-.052.257-.1.397-.095-.04.144-.152.202-.278.25-.608.233-1.2.505-1.772.82-.125.07-.262.122-.351.244l.003-.003z" fill="#DC9A2E"/><path d="M34.401 21.08c.055 0 .11 0 .165.002.012.443-.171.847-.263 1.268-.122.572-.324 1.121-.543 1.662-.013.03-.04.055-.062.08l-.091-.083c.04-.177.08-.354.116-.535.278-.531.376-1.118.507-1.695.092-.226.107-.47.168-.703l.003.003z" fill="#D78D29"/><path d="M16.403 33.719c1.002.1 2 .204 3.01.201v.162c-.911.037-1.816-.021-2.72-.131-.116-.015-.25.003-.34-.113l.047-.12h.003z" fill="#DC9A2E"/><path d="M28.168 31.027v.086c-.024.091-.088.15-.165.201-.571.376-1.158.733-1.766 1.048-.064.034-.14.046-.213.07l-.05-.128a9.37 9.37 0 0 1 .178-.156c.36-.085.641-.3.907-.54.257-.04.44-.211.648-.343.147-.094.266-.244.464-.238h-.003z" fill="#DB982D"/><path d="M8.343 29.67c.006.101.082.15.15.208.152.138.305.275.348.49a2.042 2.042 0 0 1-.526-.386c-.36-.354-.718-.715-1.072-1.072a1.427 1.427 0 0 1-.3-.437c.028-.015.056-.034.086-.049.19.18.379.364.568.544.217.269.431.538.746.703z" fill="#D78D29"/><path d="M19.415 34.082v-.162c.498-.042.993-.082 1.491-.125.15-.012.3-.027.45-.04 0 .052.002.104.005.156-.119.061-.253.064-.381.074-.52.036-1.036.137-1.562.094l-.003.003z" fill="#E7B036"/><path d="M17.267 2.577c0 .094-.036.152-.137.17-.55.102-1.103.202-1.653.303-.116.022-.138-.058-.156-.143h.003c.015-.013.03-.025.046-.034.52-.086 1.027-.226 1.552-.272l.345-.027v.003z" fill="#FADC46"/><path d="M7.03 28.424c-.028.015-.056.034-.086.049a.39.39 0 0 1-.199-.14c-.305-.422-.672-.801-.916-1.265l.128-.05.532.627c.128.235.29.443.488.623.016.052.034.104.05.16l.002-.004zM33.61 24.01l.092.082c-.14.574-.468 1.069-.721 1.591-.019.04-.068.068-.101.104 0-.042-.006-.085-.01-.128.019-.095.034-.186.053-.281.1-.1.134-.235.201-.355.183-.326.254-.708.486-1.014z" fill="#E2A632"/><path d="M34.612 17.116h.192c.019.437.037.874.052 1.311a.679.679 0 0 1-.04.303c-.055 0-.11 0-.161-.003l-.01-.654c.034-.321-.036-.636-.04-.953h.01l-.003-.004z" fill="#EFC13C"/><path d="m16.403 33.719-.046.119a4.888 4.888 0 0 1-1.53-.33l.17-.052c.48.024.941.137 1.403.263h.003zM10.369 5.058c.055.015.113.03.168.048-.306.217-.618.431-.92.657a.408.408 0 0 1-.364.083c.321-.333.7-.584 1.113-.788h.003zM25.972 32.304c.015.043.033.086.049.128-.388.233-.8.413-1.235.541-.015-.042-.03-.085-.046-.125l.783-.376c.14-.082.293-.125.449-.168zM10.824 31.647c-.016.043-.028.086-.043.126-.4-.187-.77-.419-1.079-.743 0-.03 0-.058.003-.088.107.006.19.064.278.119.223.14.45.28.673.418l.165.165.003.003zM34.655 18.724c.055 0 .11 0 .162.003 0 .455.006.91-.086 1.36-.055-.04-.11-.083-.162-.123.037-.412.092-.825.086-1.24z" fill="#E7B036"/><path d="m24.744 32.848.045.125c-.376.223-.794.321-1.207.443.007-.091.025-.192.123-.217.357-.091.675-.29 1.042-.351h-.003z" fill="#EFC43D"/><path d="M29.855 29.585c.015.043.03.089.046.131-.019.086-.08.144-.14.196-.227.183-.456.364-.685.547l-.046-.132c.128-.213.397-.296.504-.531l.32-.211z" fill="#EBB839"/><path d="M21.358 33.911c0-.052-.003-.104-.006-.156.293-.122.608-.122.917-.15.073-.005.143.037.198.095-.357.132-.736.16-1.109.211z" fill="#F4D042"/><path d="m3.846 13.814-.043.04c.015-.012.027-.028.043-.04z" fill="#D78D29"/><path d="M15.367 2.876s-.03.025-.046.034a.44.44 0 0 1 .046-.034z" fill="#EBB839"/><path d="M30.555 9.399c.43.593.83 1.204 1.194 1.84.037.063.086.121.129.183.207.488.412.977.666 1.442.155.47.311.938.47 1.408.312 1.189.498 2.399.568 3.627V18.106c-.03.688-.058 1.378-.125 2.063-.113.534-.168 1.078-.303 1.61-.1.327-.198.657-.299.984-.226.736-.559 1.433-.861 2.138-.324.486-.602 1-.896 1.503l-1.164 1.507-.104.1c-.772.783-1.552 1.55-2.462 2.182a14.592 14.592 0 0 1-6.431 2.502c-.074.013-.147.025-.223.034-.792.085-1.583.092-2.377.085a16.252 16.252 0 0 1-2.487-.33c-.587-.122-1.15-.323-1.723-.476l-1.082-.44-1.442-.746c-.724-.397-1.366-.913-2.001-1.432-.407-.334-.786-.706-1.174-1.06-.244-.273-.488-.548-.733-.82l-.889-1.228c-.36-.605-.736-1.204-1.023-1.851-.07-.16-.107-.342-.239-.47l-.376-1.024c-.097-.391-.201-.78-.339-1.158-.21-1.008-.37-2.023-.412-3.052 0-.028 0-.058-.003-.086v-.033c0-.303.003-.608.006-.911l.128-1.405c.116-.605.211-1.213.358-1.812.159-.465.305-.938.48-1.396.213-.563.436-1.122.754-1.638.018-.027.021-.064.034-.098.32-.544.629-1.097 1.032-1.589.116-.143.233-.29.306-.464.458-.486.88-.999 1.362-1.463 1.757-1.696 3.816-2.86 6.163-3.532.63-.18 1.27-.29 1.91-.434.687-.037 1.368-.144 2.059-.131a17.74 17.74 0 0 1 2.053.146c1.222.162 2.383.529 3.529.963.571.25 1.124.537 1.677.818.293.19.59.376.88.569.669.443 1.277.965 1.891 1.478.272.278.547.556.819.835.201.314.452.586.706.855h-.006zm2.117 4.497c-.022-.235-.116-.449-.214-.66-.049-.265-.214-.489-.296-.742-.16-.443-.413-.837-.654-1.24a3.588 3.588 0 0 0-.575-.95 1.89 1.89 0 0 0-.409-.581 5.138 5.138 0 0 0-.77-.953c-.165-.184-.293-.398-.498-.541-.177-.211-.36-.416-.593-.568a2.373 2.373 0 0 0-.577-.498 5.873 5.873 0 0 0-1.14-.835c-.266-.226-.574-.381-.88-.543-.311-.239-.69-.343-1.032-.523-.437-.223-.883-.421-1.363-.538-.202-.116-.434-.14-.65-.216-.62-.22-1.266-.324-1.913-.404-.474-.134-.96-.146-1.445-.159-.275 0-.547-.006-.822-.009-.33.006-.663-.03-.993.043-.364 0-.724.037-1.076.131-.418.058-.84.098-1.237.25-.296.077-.599.144-.892.236-1.702.52-3.236 1.354-4.626 2.457-.516.409-1.017.837-1.439 1.35-.32.3-.62.617-.85.993-.231.217-.409.477-.574.742-.207.284-.4.578-.55.899-.165.213-.308.44-.366.711-.297.416-.474.89-.642 1.366-.3.66-.498 1.35-.63 2.063-.097.366-.198.733-.204 1.115-.061.311-.113.626-.095.947-.073.357-.045.715-.036 1.075-.01.333-.037.666.021 1 .018.445.049.888.165 1.322.01.266.073.523.147.776.015.23.067.452.165.66.11.532.296 1.042.522 1.534.086.32.232.614.394.898.168.391.358.773.608 1.121.086.217.217.407.367.584.11.247.284.455.455.66.263.391.553.76.901 1.082.107.18.257.32.422.445.183.217.37.431.62.575.358.394.783.706 1.229.993.25.226.537.394.83.55.239.186.505.32.78.443.238.146.485.28.754.37.288.161.59.287.908.375.348.156.7.3 1.078.358.318.134.654.195.99.253.856.205 1.723.315 2.606.318.495.006.993.043 1.485-.037.171.019.342-.018.51-.04.663-.085 1.33-.161 1.968-.372.027-.003.055-.006.082-.012 1.204-.272 2.325-.752 3.4-1.35 1.26-.7 2.4-1.556 3.355-2.637a10.892 10.892 0 0 0 1.467-1.818c.342-.413.608-.871.828-1.357.44-.74.77-1.527.993-2.358.171-.355.257-.734.318-1.119.152-.498.223-1.014.28-1.527.044-.468.123-.932.086-1.403.07-.302-.009-.604-.003-.907.028-.278-.024-.55-.043-.825-.103-.464-.058-.953-.235-1.402a2.891 2.891 0 0 0-.21-.908c-.01-.238-.15-.437-.205-.66l.003-.003z" fill="#8D6020"/><path d="M16.937 3.866c-.635.143-1.28.253-1.91.434-2.343.672-4.402 1.836-6.162 3.532-.48.464-.904.977-1.362 1.463-.171-.116.012-.208.021-.315.29-.21.477-.513.7-.782.314-.296.632-.59.944-.889.049-.046.122-.092.085-.171-.033-.076-.119-.052-.183-.058-.235-.015-.464.024-.697.055-.073.01-.158.04-.201-.049-.037-.076.027-.128.073-.177.29-.29.617-.544.941-.794.058-.046.122-.05.193-.055.403-.034.806-.065 1.21-.11.232-.025.46-.08.662-.205.718-.452 1.494-.782 2.255-1.149.4-.12.788-.278 1.192-.397a17.43 17.43 0 0 1 1.967-.443c.113-.018.205 0 .266.104l.006.006z" fill="#FADC46"/><path d="M24.578 4.844c-1.145-.434-2.306-.8-3.528-.963a17.743 17.743 0 0 0-2.053-.146c.076-.11.192-.113.308-.117.217-.006.431-.006.648-.012.858.058 1.705.177 2.539.391.073.019.15.022.223.034.03.037.067.067.116.076.574.113 1.115.333 1.662.535l.083.046v.153l.002.003z" fill="#DB982D"/><path d="M20.943 32.695a14.592 14.592 0 0 0 6.43-2.502c.911-.632 1.69-1.4 2.463-2.181l.104-.101c0 .049 0 .094.003.143-.1.233-.342.355-.455.578l-1.283 1.155a7.6 7.6 0 0 0-.782.58 5.086 5.086 0 0 0-.617.373c-.046.03-.101.061-.086.128.018.08.092.08.15.077.21-.016.421-.04.632-.058.156-.013.315-.016.47-.022.114-.003.187.04.19.162-.198-.01-.318.144-.464.238-.208.132-.391.303-.648.343-.474-.031-.94.079-1.411.082-.663 0-1.24.312-1.858.474-.03.009-.052.04-.08.06l-1.197.37c-.523.083-1.036.227-1.568.254v-.153h.007z" fill="#E8B337"/><path d="M22.51 32.597c.4-.122.797-.247 1.198-.37a.342.342 0 0 0 .198.038c.394-.034.789-.074 1.186-.104.351-.028.702-.126 1.057-.016a9.068 9.068 0 0 1-.177.156 1.805 1.805 0 0 0-.45.168c-.051-.085-.137-.085-.22-.076-.638.058-1.28.125-1.918.18-.29.024-.58.061-.874.021v.003z" fill="#F4D042"/><path d="M14.133 32.01c.577.154 1.14.355 1.723.477.822.172 1.65.285 2.487.327 0 .05 0 .098-.003.147-.428.034-.853-.055-1.277-.07-.346-.107-.712-.122-1.064-.208a61.556 61.556 0 0 0-.715-.168c-.372-.11-.742-.223-1.115-.333a15.735 15.735 0 0 0-.036-.171z" fill="#D78D29"/><path d="M18.34 32.964c0-.049 0-.098.003-.146.794.003 1.585 0 2.377-.086.073-.01.15-.021.223-.034v.153c-.3.08-.608.077-.914.104-.504.043-1.008.073-1.515.055a.331.331 0 0 1-.177-.043l.003-.003z" fill="#E2A632"/><path d="M34.655 18.724c.006.415-.05.828-.086 1.24-.308.107-.63.086-.947.08.07-.605.15-1.21.113-1.822.003-.04.01-.076.012-.116.3-.009.602.019.899-.04l.009.655v.003z" fill="#D78D29"/><path d="M32.953 13.398c.226-.107.467-.082.706-.076.128 0 .205.082.241.192.074.227.144.456.202.688.033.14-.028.235-.174.275-.19.052-.38.04-.572.03-.177-.009-.125-.213-.232-.28-.012-.08-.015-.163-.037-.24-.055-.195-.143-.378-.134-.586v-.003z" fill="#FADC46"/><path d="m33.702 17.199-.083-.99c.303-.024.605-.027.904-.082-.015.26.068.51.086.767.006.073.024.146 0 .223h-.01a3.195 3.195 0 0 0-.9.082h.003z" fill="#E7B036"/><path d="M33.701 17.199c.297-.07.6-.1.902-.083.003.318.073.633.04.954-.297.058-.6.03-.899.04.01-.306-.067-.605-.043-.911z" fill="#E2A632"/><path d="M34.526 16.127c-.299.058-.601.058-.904.082-.073-.165-.089-.345-.113-.52-.024-.17.052-.277.23-.302.134-.018.271-.027.409-.036.15-.01.229.079.26.21.045.187.082.376.121.563l-.003.003z" fill="#EFC43D"/><path d="M33.732 18.223c.037.61-.043 1.216-.113 1.82-.024.08-.076.12-.159.126.067-.688.092-1.375.126-2.063.04.052.076.107.146.116z" fill="#E8B337"/><path d="M32.544 12.864c-.257-.465-.462-.954-.666-1.442h.091c.12.058.165.17.208.284.037.094.073.19.159.253.073.232.144.465.293.66.013.083.022.162.034.245h-.12z" fill="#E2A632"/><path d="M32.544 12.864h.119c.095.18.192.357.287.537-.01.208.082.395.134.587.022.076.025.159.037.238a3.54 3.54 0 0 0-.107.046c-.156-.47-.311-.938-.47-1.408z" fill="#EBB839"/><path d="M3.723 14.929c.046-.214.077-.43.147-.639.046-.13.122-.213.263-.22.244-.015.489-.073.736-.045l-.104.443c-.055.122-.036.268-.128.379-.309-.016-.608.052-.914.082z" fill="#EFC13C"/><path d="M5.126 13.194c-.309-.074-.605.051-.91.04 0-.245.128-.444.244-.645.049-.086.143-.126.244-.132.171-.015.342-.027.51-.036.16-.01.22.073.168.216-.07.193-.134.388-.256.56v-.003z" fill="#DE9E30"/><path d="M4.637 14.847c.089-.11.073-.257.128-.38.046 0 .092.007.14.01-.146.599-.24 1.207-.357 1.811-.04-.015-.08-.027-.119-.042-.027-.18.03-.355.046-.532.076-.284.14-.574.162-.87v.003z" fill="#E2A632"/><path d="M29.03 7.706c-.614-.513-1.225-1.032-1.891-1.478-.29-.193-.587-.38-.88-.569l.015-.107c.461.11.914-.04 1.372-.045.076 0 .128-.046.153-.12.195.08.339.23.504.352.036.027.088.055.073.113-.018.067-.08.064-.134.07-.245.028-.49.055-.734.086-.131.018-.189.094-.067.183.36.26.663.593 1.057.807.168.247.443.385.624.617-.031.027-.058.058-.089.085l-.003.006z" fill="#F4D042"/><path d="m26.271 5.555-.015.107c-.556-.28-1.11-.568-1.678-.818V4.69c.584.195 1.125.48 1.647.8.021.013.034.043.049.064h-.003z" fill="#EBB839"/><path d="M30.555 9.399c-.254-.269-.505-.544-.706-.855.085-.068.046-.129-.015-.184a.471.471 0 0 1-.144-.238c.049-.135.165-.128.275-.125.235.006.467.003.678-.126.165.126.306.272.41.453.1.177.076.229-.123.25-.155.018-.314.021-.467.049-.226.04-.241.113-.113.3.11.161.302.265.336.476h-.131z" fill="#DE9E30"/><path d="M4.472 15.714c-.015.177-.07.352-.046.532-.116.388-.138.788-.134 1.191-.223.006-.443.058-.67.052-.165-.006-.235-.073-.232-.235.003-.128 0-.26 0-.388a6.52 6.52 0 0 1 .168-1.112c.095-.01.187-.028.281-.024.214.002.422-.107.636-.013l-.003-.003z" fill="#FADC46"/><path d="M3.433 19.842c-.08-.269-.015-.553-.08-.825l.905-.083c-.01.278.034.553.08.825l-.905.083z" fill="#E7B036"/><path d="M4.338 19.76a4.15 4.15 0 0 1-.08-.826c.01-.103.058-.177.162-.207.043 1.03.202 2.044.412 3.052-.04 0-.079 0-.119.003-.131-.333-.18-.684-.253-1.03-.028-.333-.129-.657-.122-.993z" fill="#F4D042"/><path d="M4.292 17.44c0-.403.018-.803.134-1.191.04.015.08.027.12.043l-.129 1.405c-.125-.046-.11-.156-.125-.254v-.003z" fill="#E8B337"/><path d="M4.414 18.605s.003.02 0 .033c0-.012-.003-.021 0-.034z" fill="#F4D042"/><path d="M29.69 8.119a.48.48 0 0 0 .143.238c.059.058.101.116.016.183l-.822-.834c.03-.027.058-.058.088-.085.202.156.352.37.572.498h.003z" fill="#EFC13C"/><path d="m6.488 27.642-.531-.626c-.171-.37-.4-.706-.6-1.06-.124-.227-.09-.29.172-.297.214 0 .425-.037.632-.085l.492.705c.23.446.572.816.847 1.232-.324.146-.673.097-1.012.13z" fill="#FADC46"/><path d="m5.172 22.937.375 1.023c-.082.138-.012.275 0 .413-.165-.046-.326-.013-.488.021a.967.967 0 0 1-.468-.009c-.14-.34-.315-.666-.37-1.036.168 0 .34.006.508-.012.317-.034.348-.082.314-.397h.129v-.003z" fill="#E2A632"/><path d="M5.545 24.373c-.01-.138-.08-.275 0-.413.134.129.168.312.238.47.287.648.663 1.244 1.023 1.852h-.155c-.165-.235-.327-.47-.492-.706-.187-.412-.367-.824-.618-1.203h.004z" fill="#D78D29"/><path d="M14.17 32.182c.372.11.742.223 1.114.333-.122.128-.293.104-.44.12-.46.048-.92.121-1.384.128-.052 0-.104.024-.159.036-.336-.095-.669-.192-.95-.412.046-.058.11-.077.18-.083l1.638-.128v.006z" fill="#EBB839"/><path d="M34.401 21.08c-.06.231-.08.476-.168.702-.317-.015-.63.03-.94.082 0-.015-.004-.027-.007-.042l.147-.538c.036-.131.116-.226.253-.235.239-.016.48-.043.715.027v.003z" fill="#E7B036"/><path d="m33.286 21.825.006.042a5.708 5.708 0 0 1-.058.22l-.412 1.378c-.052.104-.101.211-.153.315-.193.394-.318.822-.58 1.18-.031-.019-.062-.037-.09-.059.303-.709.633-1.402.862-2.138.101-.327.199-.657.3-.984l.128.046h-.003z" fill="#D78D29"/><path d="M4.472 15.714c-.214-.095-.425.018-.636.012-.094 0-.186.016-.28.025.036-.278.067-.56.167-.825.303-.034.605-.098.914-.082a4.702 4.702 0 0 1-.162.87h-.003z" fill="#F4D042"/><path d="M4.46 20.752c.07.346.119.7.253 1.03-.03.26.129.489.132.742-.284.07-.575.095-.865.12a7.087 7.087 0 0 1-.397-1.815c.29-.05.58-.089.877-.077z" fill="#D78D29"/><path d="M4.46 20.752a4.217 4.217 0 0 0-.877.077c-.122-.318-.132-.654-.15-.99l.904-.083c-.006.336.095.66.123.993v.003z" fill="#E2A632"/><path d="M3.98 22.643c.29-.024.58-.048.865-.119.116.113.125.281.198.416.034.314 0 .363-.314.397-.169.018-.34.01-.508.012a2.125 2.125 0 0 1-.241-.706z" fill="#DE9E30"/><path d="M10.659 31.482c-.224-.14-.45-.278-.673-.418-.085-.055-.17-.113-.278-.12-.052-.155-.207-.21-.311-.314-.113-.113-.104-.183.049-.232.195-.061.403-.052.608-.067.122-.01.244-.013.363-.05.382.202.712.486 1.106.667.12.146.318.17.455.287-.048.04-.1.076-.165.073-.293-.006-.577.089-.87.092-.104 0-.205.009-.287.082h.003z" fill="#D78D29"/><path d="M8.343 29.67c-.315-.164-.529-.433-.746-.702.388-.006.77-.107 1.161-.086.05.046.101.092.147.14.165.181.4.291.52.514-.361.046-.722.092-1.085.135h.003z" fill="#E7B036"/><path d="M9.427 29.536c-.119-.223-.354-.333-.519-.513-.046-.049-.098-.095-.147-.14-.049-.056-.091-.117-.146-.166-.113-.104-.205-.217-.18-.385.39.355.766.727 1.173 1.06.635.52 1.277 1.036 2 1.433a.201.201 0 0 1-.082.123c-.394-.18-.724-.468-1.106-.666-.323-.257-.638-.526-.993-.746z" fill="#F4D042"/><path d="M29.944 28.057c0-.048 0-.094-.004-.143.388-.501.776-1.005 1.165-1.506.04.012.079.027.119.04-.037.118-.12.21-.184.317-.052.082-.165.153-.094.266.067.107.18.058.28.052.22-.019.444-.104.667-.012-.12.326-.352.577-.584.824-.03-.052-.076-.079-.134-.073-.416.052-.85-.006-1.229.235h-.003z" fill="#E2A632"/><path d="M32.922 25.378c-.018.095-.033.186-.052.281-.1.03-.155.107-.189.199-.095.25-.278.37-.544.39-.238.019-.47.071-.706-.012l.492-.867c.083.049.171.046.26.043.248-.01.495-.022.74-.034z" fill="#EFC43D"/><path d="m31.92 25.369-.492.867c-.067.07-.137.138-.204.208-.04-.012-.08-.027-.12-.04.294-.504.572-1.017.896-1.503.03.019.06.037.088.058-.003.16-.131.266-.168.41zM27.423 30.367c.248-.21.51-.403.782-.58.15.152.336.076.507.067.275-.015.544-.067.822-.061-.107.235-.375.317-.504.531-.397.01-.788.061-1.18.107-.146.019-.299.061-.424-.064h-.003z" fill="#DE9E30"/><path d="M29.534 29.793c-.275-.006-.547.049-.822.06-.17.01-.354.086-.507-.066l1.283-1.155c.272.018.541-.025.81-.058.137-.019.257-.003.351.104-.265.302-.531.601-.794.904l-.32.21z" fill="#D78D29"/><path d="M30.65 28.68c-.095-.11-.218-.122-.352-.103-.269.036-.538.076-.81.058.113-.223.355-.345.456-.578.378-.241.812-.183 1.228-.235.06-.006.104.021.134.073-.192.285-.394.563-.657.789v-.003z" fill="#DE9E30"/><path d="m14.17 32.182-1.638.128c-.07.006-.135.025-.18.083-.358-.125-.725-.242-1-.526a.272.272 0 0 1 .174-.052c.343.016.676-.08 1.015-.085a.25.25 0 0 0 .223-.122c.098 0 .195.009.287-.037l1.082.44.036.171z" fill="#E2A632"/><path d="M12.764 31.608a.263.263 0 0 1-.223.122c-.34.009-.672.1-1.015.085a.299.299 0 0 0-.174.052c-.192-.033-.345-.165-.528-.22l-.165-.165c.082-.073.183-.082.287-.082.293 0 .577-.098.87-.092.062 0 .117-.033.166-.073.26.125.522.247.782.373z" fill="#DB982D"/><path d="M31.92 25.369c.04-.144.165-.25.168-.41.263-.36.388-.785.58-1.179.053-.104.102-.21.154-.315.11.013.216 0 .323-.012.193-.018.391-.076.58.028-.039.177-.079.354-.115.534-.233.306-.303.685-.486 1.015-.067.119-.1.253-.202.354-.247.012-.495.024-.74.034-.088.003-.18.006-.259-.043l-.003-.006z" fill="#FADC46"/><path d="M33.726 23.477c-.19-.103-.385-.045-.58-.027-.11.012-.218.027-.325.012l.413-1.378c.021-.073.04-.146.058-.22.312-.052.623-.097.941-.082-.131.577-.23 1.164-.507 1.695z" fill="#EFC13C"/><path d="M26.149 32.148c-.355-.11-.706-.012-1.057.016-.394.03-.791.067-1.186.103a.342.342 0 0 1-.198-.036c.027-.022.049-.055.08-.061.616-.165 1.194-.474 1.857-.474.47 0 .938-.113 1.411-.082-.265.241-.547.455-.907.54v-.006z" fill="#EFC43D"/><path d="M8.432 28.332c-.025.168.067.281.18.385.055.05.098.11.147.165-.392-.021-.773.083-1.161.086-.19-.18-.38-.364-.572-.544l-.049-.159a4.73 4.73 0 0 0 .78-.067c.216-.034.238-.122.097-.284-.107-.122-.229-.239-.29-.394.046 0 .092-.006.134-.006.245.271.49.546.734.818z" fill="#EFC13C"/><path d="M7.564 27.52c.06.155.183.272.29.394.14.162.12.25-.098.284-.256.04-.516.073-.779.067a2.36 2.36 0 0 1-.489-.623c.34-.034.688.018 1.012-.131.021 0 .042.003.064.006v.003z" fill="#F4D042"/><path d="M32.678 22.653a9.471 9.471 0 0 1-.993 2.358c-.08-.058-.156-.03-.23.016-.094.058-.188.113-.283.168-1.473.843-2.952 1.674-4.418 2.532-1.442.844-2.887 1.68-4.335 2.509-1.216.696-2.426 1.405-3.64 2.105-.115.067-.195.15-.189.293-.88 0-1.747-.11-2.606-.318a.262.262 0 0 1 .129-.128c.81-.477 1.64-.92 2.444-1.411.736-.453 1.5-.868 2.248-1.302.862-.501 1.717-1.011 2.582-1.51 1.323-.76 2.649-1.512 3.972-2.272.641-.37 1.27-.767 1.918-1.125.59-.327 1.17-.666 1.754-1.002.364-.208.718-.434 1.088-.63.183-.097.327-.286.562-.28l-.003-.003z" fill="#D78D29"/><path d="M21.108 4.104c.65.08 1.292.184 1.912.404-.339.247-.718.43-1.078.641-1.045.608-2.09 1.22-3.132 1.827-.452.263-.907.52-1.356.785-.117.068-.254.123-.272.288-.715.17-1.433.326-2.114.617-1.385.59-2.619 1.387-3.646 2.499-.268.293-.482.635-.797.886-.064-.049-.128-.034-.192 0-.287.159-.584.306-.865.48-1.271.79-2.579 1.524-3.877 2.27-.235.134-.455.311-.73.372.128-.712.33-1.402.63-2.062a.653.653 0 0 0 .268-.1c.513-.294 1.03-.584 1.54-.88 1.647-.957 3.29-1.92 4.94-2.873 1.94-1.12 3.886-2.233 5.83-3.351.864-.498 1.726-1 2.584-1.503.132-.077.294-.135.352-.3h.003z" fill="#DC9A2E"/><path d="M21.108 4.104c-.061.168-.22.223-.352.3-.858.504-1.723 1.005-2.584 1.503-1.943 1.118-3.89 2.23-5.83 3.351-1.65.954-3.293 1.916-4.94 2.872-.51.297-1.027.59-1.54.88a.653.653 0 0 1-.269.101c.168-.477.346-.95.642-1.366.15-.006.275-.082.4-.155 1.409-.816 2.817-1.635 4.226-2.45 1.368-.792 2.737-1.58 4.103-2.372 1.481-.855 2.96-1.714 4.439-2.572.104-.061.223-.113.26-.25.485.012.974.024 1.445.158z" fill="#D78D29"/><path d="M32.678 22.653c-.235-.006-.376.183-.562.28-.37.193-.724.42-1.088.63-.583.336-1.164.675-1.753 1.002-.651.36-1.278.755-1.92 1.125-1.322.76-2.648 1.512-3.971 2.273-.865.498-1.72 1.008-2.582 1.509-.748.434-1.509.85-2.248 1.301-.804.492-1.635.935-2.445 1.412-.055.034-.103.07-.128.128-.336-.06-.672-.119-.99-.253.08-.15.242-.174.37-.248 1.76-1.02 3.52-2.035 5.276-3.052.107-.061.223-.113.26-.25.107-.028.21-.058.318-.083a10.446 10.446 0 0 0 4.962-2.621c.35-.33.632-.721.98-1.054.19.009.342-.095.495-.184 1.65-.956 3.297-1.918 4.947-2.875.122-.07.238-.165.394-.162-.061.385-.15.764-.318 1.119l.003.003zM18.587 32.631c-.006-.144.076-.226.19-.293 1.212-.703 2.422-1.412 3.638-2.105a472.087 472.087 0 0 0 4.336-2.509c1.463-.858 2.945-1.69 4.418-2.532.094-.055.189-.11.284-.169.076-.045.15-.073.229-.015-.22.486-.489.944-.828 1.357a.84.84 0 0 0-.37.122l-1.176.681c-.794.462-1.58.938-2.383 1.387-1.235.688-2.45 1.406-3.676 2.115-.867.5-1.735 1.005-2.597 1.515-.204.122-.43.214-.583.406-.495.077-.99.04-1.485.037l.003.003z" fill="#DB982D"/><path d="M20.075 32.594c.153-.195.382-.287.584-.406.861-.51 1.729-1.014 2.597-1.515 1.222-.71 2.44-1.427 3.675-2.115.803-.446 1.589-.925 2.383-1.387.391-.226.782-.455 1.176-.681a.83.83 0 0 1 .37-.122c-.422.66-.917 1.262-1.466 1.818-.224-.016-.358.159-.532.244-.804.403-1.561.89-2.347 1.326-.574.32-1.118.694-1.695 1.005-.67.36-1.32.758-1.98 1.137-.122.07-.232.15-.281.287-.639.21-1.305.287-1.968.373-.168.021-.336.058-.51.04l-.006-.004zM32.999 21.534c-.156-.006-.272.089-.394.162-1.65.957-3.297 1.916-4.947 2.875-.152.089-.305.19-.495.184.468-.697.969-1.375 1.311-2.148.315-.018.547-.22.794-.37.706-.424 1.44-.803 2.14-1.24.457-.288.968-.48 1.404-.804.141-.104.29-.183.471-.186-.061.516-.128 1.03-.281 1.527h-.003z" fill="#E2A632"/><path d="M23.671 4.727c.48.114.926.312 1.363.538-.046.03-.089.067-.135.095-.483.272-.95.571-1.445.825-.345.177-.657.421-1.002.596-.507.256-.966.592-1.479.837-.162.076-.348.177-.406.385a20.064 20.064 0 0 0-2.185-.098c.034-.208.217-.275.367-.36.727-.42 1.466-.82 2.188-1.247a71.248 71.248 0 0 1 2.737-1.57h-.003z" fill="#E8B337"/><path d="M10.644 29.96c-.443-.286-.871-.598-1.228-.992.051-.086.137-.128.223-.177.971-.569 1.943-1.137 2.911-1.708.162-.095.321-.183.504-.226.486.229.93.544 1.403.794 0 .116-.05.19-.15.247-.825.471-1.64.95-2.469 1.415-.394.22-.76.498-1.194.648z" fill="#FADC46"/><path d="M17.848 3.979c.327-.07.66-.037.993-.043a.362.362 0 0 1-.18.217c-1.296.752-2.591 1.506-3.89 2.255-1.653.956-3.309 1.91-4.964 2.866-.987.571-1.974 1.145-2.961 1.717-.076.043-.15.11-.244.043.15-.321.342-.615.55-.899.11.055.201-.006.29-.055 1.338-.773 2.68-1.543 4.017-2.319 1.155-.669 2.298-1.356 3.462-2.007.926-.516 1.83-1.066 2.747-1.592.076-.046.159-.085.183-.183h-.003zM5.648 23.606a7.386 7.386 0 0 1-.522-1.534.67.67 0 0 0 .29-.098c.84-.491 1.677-.986 2.524-1.466.256-.147.482-.373.81-.382.09.535.256 1.048.396 1.57-.027.01-.055.016-.076.028-.88.48-1.738.999-2.603 1.506-.26.15-.504.34-.819.376z" fill="#E7B036"/><path d="M26.946 6.332c.413.232.794.51 1.14.834-.015.128-.12.177-.214.232-.953.556-1.928 1.081-2.869 1.662-.205.125-.406.257-.648.302-.449-.223-.898-.449-1.35-.672.012-.116.107-.153.19-.201.387-.236.778-.465 1.176-.685.864-.48 1.717-.98 2.575-1.476v.004z" fill="#FADC46"/><path d="M6.601 11.037c.095.067.172 0 .245-.043l2.96-1.717c1.653-.957 3.31-1.91 4.965-2.866l3.89-2.255a.355.355 0 0 0 .18-.217c.275 0 .547.006.822.01-.034.137-.153.189-.26.25-1.479.858-2.96 1.717-4.44 2.572-1.368.792-2.737 1.58-4.102 2.371-1.409.816-2.817 1.635-4.226 2.45-.125.07-.247.15-.4.156.061-.268.202-.494.366-.711z" fill="#DE9E30"/><path d="M33.087 15.464c.174.452.132.94.236 1.402-.037.018-.077.034-.11.055-1.15.663-2.298 1.326-3.444 1.989-.119.067-.235.144-.381.144 0-.508 0-1.018.002-1.525.135-.085.263-.174.4-.254.826-.482 1.65-.968 2.479-1.442.26-.146.5-.345.818-.372v.003z" fill="#FADC46"/><path d="M33.28 20.004a.828.828 0 0 0-.47.186c-.438.324-.948.516-1.406.804-.7.437-1.433.812-2.139 1.24-.247.15-.48.354-.794.37.235-.523.403-1.07.58-1.61a.51.51 0 0 0 .275-.067c.957-.557 1.91-1.122 2.875-1.663.388-.216.749-.485 1.164-.66.034.471-.042.935-.085 1.403v-.003z" fill="#EBB839"/><path d="M4.814 20.633c-.116-.434-.143-.877-.165-1.323.083-.06.162-.128.25-.18.609-.348 1.217-.694 1.825-1.039.406-.229.818-.449 1.213-.696.229-.144.461-.27.711-.36-.054.506-.045 1.017-.054 1.524-.037.015-.077.03-.114.049-1.057.556-2.077 1.176-3.11 1.778-.174.1-.339.241-.559.244l.003.003z" fill="#FADC46"/><path d="M8.373 27.95a6.37 6.37 0 0 1-.9-1.081.453.453 0 0 1 .204-.196c.583-.333 1.158-.681 1.747-.999.495-.269.935-.63 1.458-.843.342.312.602.7.935 1.02a.763.763 0 0 1-.242.19c-.956.553-1.912 1.103-2.869 1.65-.125.073-.256.131-.336.262l.003-.002z" fill="#E8B337"/><path d="M20.9 28.51c-.034.137-.153.189-.26.25-1.76 1.017-3.52 2.035-5.276 3.052-.128.074-.29.098-.37.248-.379-.058-.733-.202-1.078-.358.06-.107.165-.165.266-.223l4.344-2.484c.135-.076.254-.165.309-.317.693.003 1.378-.08 2.065-.168z" fill="#E2A632"/><path d="M31.508 11.254c.241.4.495.797.653 1.24a.588.588 0 0 0-.265.1c-.474.279-.957.545-1.421.835-.584.364-1.219.632-1.772 1.045-.199-.425-.397-.853-.596-1.277.177-.153.394-.248.596-.364l1.87-1.078c.308-.175.59-.404.938-.502h-.003z" fill="#DC9A2E"/><path d="M4.96 15.176c.276-.06.496-.238.731-.372 1.299-.746 2.606-1.479 3.877-2.27.278-.175.578-.321.865-.48.064-.037.128-.052.192 0l-.898 1.476a.537.537 0 0 0-.312.088c-.907.526-1.814 1.054-2.725 1.58-.641.37-1.286.733-1.93 1.1.005-.382.106-.749.204-1.115l-.003-.007z" fill="#E2A632"/><path d="M20.567 8c.058-.208.245-.309.407-.385.513-.245.971-.584 1.478-.837.345-.175.657-.419 1.002-.596.495-.254.963-.553 1.445-.825.05-.028.09-.061.135-.095.339.18.718.287 1.033.523-.18.22-.443.317-.679.452-1.045.608-2.096 1.207-3.144 1.809-.113.064-.229.134-.235.287-.48-.113-.96-.223-1.442-.336V8z" fill="#EFC13C"/><path d="M29.757 8.77c.3.284.547.608.77.953a.902.902 0 0 1-.232.198c-.67.388-1.342.777-2.008 1.17-.384.227-.788.416-1.154.67-.315-.294-.58-.63-.868-.947.238-.138.476-.27.712-.41.922-.55 1.876-1.05 2.78-1.634z" fill="#E2A632"/><path d="M6.65 25.625a6.211 6.211 0 0 1-.608-1.12.601.601 0 0 0 .266-.102c.822-.47 1.647-.938 2.463-1.417.24-.14.5-.257.693-.47l.614 1.163c-.128.064-.263.12-.388.19-.574.32-1.149.641-1.72.971-.446.257-.883.523-1.326.785h.006z" fill="#D78D29"/><path d="M17.848 3.979c-.025.098-.104.14-.184.183-.916.529-1.824 1.076-2.746 1.592-1.164.65-2.307 1.338-3.462 2.007-1.338.776-2.68 1.546-4.018 2.32-.088.051-.177.11-.29.054.165-.269.345-.525.575-.742.15-.01.275-.089.4-.159a9804.345 9804.345 0 0 0 8.332-4.824c.125-.074.284-.122.317-.3a4.25 4.25 0 0 1 1.076-.131z" fill="#EFC13C"/><path d="M4.756 16.292c.645-.367 1.29-.73 1.931-1.1.91-.523 1.818-1.051 2.725-1.58a.594.594 0 0 1 .312-.088c-.232.406-.345.864-.56 1.277a.554.554 0 0 0-.33.094 15.78 15.78 0 0 1-.613.376c-.905.523-1.806 1.048-2.713 1.558-.272.153-.517.376-.85.404-.018-.321.034-.636.095-.948l.003.007z" fill="#EBB839"/><path d="M18.835 28.678c-.055.152-.175.24-.309.317l-4.345 2.484c-.1.058-.204.116-.265.223a4.065 4.065 0 0 1-.908-.376c.104-.183.3-.235.465-.326 1.231-.712 2.44-1.458 3.696-2.133.117-.064.22-.14.263-.275.47-.003.935.055 1.403.086z" fill="#E7B036"/><path d="M4.661 17.239c.333-.028.575-.25.85-.404.91-.51 1.811-1.035 2.713-1.558.207-.119.412-.247.614-.375.1-.065.208-.101.33-.095-.113.4-.226.8-.342 1.204-.199.009-.367.11-.532.204-.852.498-1.699 1.002-2.554 1.494-.367.211-.712.465-1.115.608-.01-.357-.04-.718.036-1.075v-.003z" fill="#EFC43D"/><path d="M16.77 4.11c-.031.178-.193.226-.318.3-.8.467-1.604.932-2.408 1.396-1.974 1.143-3.947 2.288-5.924 3.428-.125.07-.248.15-.4.159.229-.379.528-.694.85-.993a.487.487 0 0 0 .231-.076l3.236-1.858c.507-.29 1.011-.584 1.518-.874.602-.345 1.201-.69 1.803-1.039.08-.045.15-.1.17-.195.401-.15.823-.193 1.238-.25l.003.002z" fill="#F4D042"/><path d="M31.508 11.254c-.348.097-.63.326-.938.5-.626.355-1.25.716-1.87 1.08-.201.115-.415.21-.596.363-.244-.297-.403-.648-.632-.954a.506.506 0 0 0 .257-.07l3.208-1.87c.238.287.433.602.574.95h-.003z" fill="#D78D29"/><path d="M22.009 8.336c.01-.153.122-.223.235-.287 1.048-.602 2.1-1.201 3.144-1.81.235-.137.498-.231.678-.451.306.162.614.317.88.544-.858.491-1.71.996-2.575 1.475-.397.22-.788.45-1.176.685-.083.048-.178.085-.19.201-.333-.119-.666-.235-.996-.354v-.003z" fill="#F4D042"/><path d="M33.368 18.601c-.415.175-.776.443-1.164.66-.965.541-1.918 1.106-2.875 1.662a.462.462 0 0 1-.275.068c.08-.358.16-.715.236-1.07.1 0 .186-.036.272-.085.213-.129.427-.248.641-.373.828-.48 1.653-.96 2.481-1.433.22-.125.422-.29.678-.336-.006.302.077.605.003.907h.003z" fill="#EFC43D"/><path d="M4.628 18.314c.403-.143.748-.397 1.115-.608.855-.489 1.702-.996 2.554-1.494.165-.095.333-.195.532-.204-.123.332-.068.693-.18 1.03-.251.09-.486.216-.712.36-.395.247-.807.464-1.213.696-.608.345-1.216.69-1.824 1.039-.089.052-.168.12-.25.18-.059-.333-.034-.666-.022-.999zM10.644 29.96c.433-.146.8-.427 1.194-.647.828-.461 1.647-.944 2.469-1.415.1-.058.153-.134.15-.247.348.14.696.278 1.044.419-.082.159-.25.204-.388.29-.754.473-1.53.904-2.303 1.347-.453.26-.908.507-1.335.807-.297-.156-.584-.324-.831-.55v-.003z" fill="#F4D042"/><path d="M22.553 32.182c.052-.138.162-.217.28-.287.66-.38 1.312-.776 1.98-1.137.578-.311 1.122-.684 1.696-1.005.786-.437 1.543-.923 2.347-1.326.174-.088.308-.263.531-.244-.959 1.084-2.099 1.937-3.354 2.636-1.073.6-2.197 1.079-3.4 1.35-.028.007-.056.007-.083.013h.003z" fill="#E7B036"/><path d="M11.475 30.514c.427-.3.883-.547 1.335-.807.773-.443 1.549-.874 2.303-1.347.138-.086.306-.131.388-.29l.944.302c-.012.107-.085.168-.17.217-.798.468-1.601.929-2.393 1.409-.538.326-1.118.583-1.628.956a3.715 3.715 0 0 1-.78-.443v.003z" fill="#EFC43D"/><path d="M9.467 22.518c-.192.214-.452.33-.693.47-.819.477-1.64.945-2.463 1.418a.603.603 0 0 1-.266.101c-.161-.287-.311-.577-.394-.898.315-.037.56-.226.82-.376.867-.504 1.722-1.026 2.602-1.506.025-.012.052-.018.077-.028.125.266.229.541.32.82h-.003z" fill="#DE9E30"/><path d="M15.532 4.36c-.024.096-.095.15-.171.196-.602.346-1.2.69-1.803 1.04-.507.29-1.01.583-1.518.873-1.079.62-2.157 1.237-3.236 1.858a.43.43 0 0 1-.232.076c.422-.513.923-.941 1.44-1.35 1.39-1.103 2.926-1.937 4.625-2.457.293-.088.596-.156.892-.235h.003z" fill="#FADC46"/><path d="M33.087 15.464c-.317.027-.559.223-.818.372-.831.474-1.653.96-2.478 1.443-.138.079-.266.168-.4.253-.037-.318-.07-.635-.107-.953.116-.073.229-.15.348-.22.996-.58 1.995-1.161 2.991-1.745a.476.476 0 0 1 .257-.06c.116.293.192.592.21.907l-.003.003z" fill="#F4D042"/><path d="M12.254 30.957c.51-.376 1.087-.633 1.628-.957.791-.48 1.595-.94 2.392-1.408.086-.049.16-.11.171-.217.343.015.654.156.987.217-.04.138-.143.214-.262.275-1.253.672-2.466 1.42-3.697 2.133-.165.094-.36.146-.465.326a3.671 3.671 0 0 1-.754-.37z" fill="#EBB839"/><path d="M13.054 26.86a1.78 1.78 0 0 0-.504.226c-.968.571-1.94 1.14-2.912 1.708-.082.049-.168.091-.223.177-.25-.144-.437-.358-.62-.575.058-.079.144-.125.223-.177.956-.602 1.968-1.112 2.918-1.723.131-.085.272-.159.434-.18.217.196.516.287.684.544zM33.362 17.694c-.26.046-.46.21-.678.336-.83.474-1.656.956-2.48 1.433-.215.125-.431.244-.642.373a.485.485 0 0 1-.272.085c0-.293.052-.58.095-.867.143 0 .262-.077.381-.144 1.15-.663 2.298-1.326 3.444-1.989.036-.021.073-.037.11-.055.018.275.07.547.042.825v.003z" fill="#F4D042"/><path d="M23.671 4.727a73.715 73.715 0 0 0-2.737 1.57c-.721.429-1.46.829-2.188 1.247-.15.086-.333.15-.367.36l-1.2.148c.018-.165.155-.22.272-.288.449-.265.904-.522 1.356-.785 1.045-.608 2.087-1.219 3.132-1.827.36-.21.74-.394 1.078-.641.217.073.45.1.651.216h.003z" fill="#E2A632"/><path d="M4.814 20.633c.22-.003.385-.143.56-.244 1.032-.602 2.052-1.222 3.11-1.778.036-.019.076-.034.112-.05l.046.826a.445.445 0 0 0-.192.07c-.727.418-1.452.84-2.185 1.246-.43.239-.83.544-1.301.706a3.197 3.197 0 0 1-.147-.776h-.003z" fill="#F4D042"/><path d="M28.663 7.664c.232.152.416.357.593.568-.116.131-.272.208-.419.293-.944.562-1.915 1.079-2.847 1.662a.684.684 0 0 1-.303.12 4.856 4.856 0 0 1-.58-.453c.186-.156.403-.26.611-.379l2.725-1.58c.098-.054.187-.115.22-.231z" fill="#EFC43D"/><path d="M28.663 7.664c-.03.116-.122.177-.22.232a788.74 788.74 0 0 0-2.725 1.58c-.208.119-.428.222-.61.378a6.351 6.351 0 0 1-.753-.492c.242-.049.447-.177.648-.302.941-.58 1.913-1.106 2.87-1.662.094-.055.198-.104.213-.232.214.14.415.296.577.498z" fill="#F4D042"/><path d="M10.885 24.828c-.522.214-.962.578-1.457.843-.59.321-1.168.666-1.748 1a.453.453 0 0 0-.205.195c-.174-.205-.345-.41-.455-.66a.55.55 0 0 1 .202-.171c.812-.474 1.619-.95 2.435-1.418.247-.143.48-.324.76-.406.184.183.324.4.471.61l-.003.007z" fill="#E2A632"/><path d="M28.7 14.474c.553-.413 1.192-.682 1.772-1.045.467-.29.947-.556 1.42-.834a.601.601 0 0 1 .266-.101c.086.254.248.473.297.742a.584.584 0 0 0-.33.095c-.516.3-1.036.59-1.55.892-.54.321-1.105.602-1.63.954-.114-.224-.178-.465-.251-.703h.006z" fill="#E7B036"/><path d="M25.688 10.306a.67.67 0 0 0 .302-.119c.932-.583 1.904-1.1 2.848-1.662.146-.088.302-.162.418-.293.208.143.336.357.498.54-.904.584-1.857 1.085-2.78 1.635-.235.14-.474.275-.712.41-.23-.129-.403-.318-.577-.51h.003z" fill="#EBB839"/><path d="M32.877 14.556a.505.505 0 0 0-.257.061c-.996.58-1.995 1.161-2.991 1.745-.12.07-.232.147-.348.22-.074-.22-.101-.45-.138-.678.067-.11.174-.175.281-.236.929-.534 1.858-1.066 2.79-1.598.143-.082.284-.17.458-.17.052.226.195.421.205.66v-.004zM4.96 21.41c.474-.166.872-.468 1.302-.707.734-.406 1.458-.83 2.185-1.246a.488.488 0 0 1 .192-.07c.037.247.07.494.107.742-.324.01-.55.235-.81.382-.846.477-1.683.974-2.523 1.466a.712.712 0 0 1-.29.098c-.098-.21-.15-.43-.165-.66l.003-.006z" fill="#EFC43D"/><path d="M32.672 13.896c-.174 0-.315.089-.459.171-.931.532-1.86 1.067-2.789 1.598-.107.061-.214.126-.281.236a3.476 3.476 0 0 1-.193-.724c.523-.352 1.088-.636 1.632-.954.513-.302 1.036-.593 1.549-.892a.577.577 0 0 1 .33-.095c.095.211.192.425.214.66h-.003z" fill="#EBB839"/><path d="m30.933 10.303-3.208 1.87a.506.506 0 0 1-.256.07 3.12 3.12 0 0 1-.34-.482c.367-.254.774-.443 1.155-.67.667-.393 1.339-.782 2.008-1.17a.852.852 0 0 0 .232-.198c.174.168.309.36.41.58zM10.415 24.217c-.282.082-.51.263-.761.406-.816.465-1.626.944-2.435 1.418a.523.523 0 0 0-.202.171 2.002 2.002 0 0 1-.367-.584c.443-.262.88-.528 1.326-.785.572-.327 1.146-.65 1.72-.971.126-.07.26-.129.389-.19.122.171.253.34.332.535h-.002z" fill="#DB982D"/><path d="M12.37 26.313a1.09 1.09 0 0 0-.434.18c-.954.611-1.962 1.121-2.918 1.723-.083.052-.165.098-.223.177a1.627 1.627 0 0 1-.422-.446c.08-.128.208-.189.336-.262.96-.547 1.916-1.097 2.87-1.65a.808.808 0 0 0 .24-.19c.217.117.386.29.55.468z" fill="#EFC43D"/><path d="M12.764 31.608c-.26-.126-.523-.248-.782-.373-.138-.116-.333-.144-.456-.287.043-.03.07-.07.083-.122l1.442.745c-.092.046-.19.034-.287.037z" fill="#E8B337"/><path d="M7.564 27.52c-.021 0-.043-.003-.064-.006-.275-.416-.617-.786-.846-1.232h.155l.89 1.229c-.046 0-.092.006-.135.006v.003z" fill="#DE9E30"/><path d="M5.043 22.94c-.073-.135-.082-.303-.198-.416 0-.253-.162-.482-.132-.742.04 0 .08 0 .12-.003.14.379.244.767.339 1.158h-.129v.003z" fill="#E8B337"/><path d="M12.37 26.313c-.168-.174-.333-.351-.55-.468-.333-.32-.593-.708-.935-1.02-.147-.21-.284-.428-.47-.611-.08-.199-.211-.364-.334-.535l-.614-1.164a7.219 7.219 0 0 0-.32-.819c-.141-.522-.31-1.035-.398-1.57-.036-.248-.07-.495-.107-.742l-.046-.825c.01-.51 0-1.018.055-1.525.11-.333.055-.697.18-1.03.114-.4.227-.8.343-1.203.21-.416.327-.874.559-1.277l.898-1.476c.315-.25.529-.596.798-.886 1.026-1.11 2.26-1.91 3.645-2.5.68-.29 1.399-.448 2.114-.616l1.2-.147c.73-.015 1.458.033 2.185.098.48.113.96.223 1.442.336.333.119.666.235.996.354.45.223.898.45 1.35.672.242.177.486.349.752.492.183.165.376.318.58.452.175.19.349.38.578.51.284.321.553.657.868.948.095.174.217.327.339.482.229.306.39.657.632.954.199.424.398.852.596 1.277.073.238.138.476.25.703.046.247.095.491.193.724.037.229.064.458.138.678.036.318.07.635.107.953 0 .507 0 1.017-.003 1.525-.043.287-.092.574-.095.867-.08.358-.16.715-.235 1.07-.18.54-.346 1.087-.581 1.61-.342.773-.843 1.451-1.31 2.148-.349.33-.63.724-.981 1.054a10.434 10.434 0 0 1-4.962 2.621c-.107.024-.211.055-.318.083-.684.088-1.372.17-2.065.168-.468-.034-.935-.092-1.403-.086-.33-.061-.644-.202-.986-.217l-.944-.302c-.349-.14-.697-.278-1.045-.419-.474-.25-.917-.565-1.403-.794-.168-.26-.467-.352-.684-.544l-.01-.003zm16.782-8.02a10.136 10.136 0 0 0-10.15-10.147c-5.624 0-10.161 4.55-10.161 10.183 0 5.527 4.604 10.101 10.156 10.095 5.597-.006 10.158-4.558 10.152-10.131h.003z" fill="#8D6020"/><path d="M29.152 18.296C29.158 23.869 24.594 28.42 19 28.427c-5.552.006-10.156-4.568-10.156-10.095 0-5.633 4.537-10.183 10.162-10.183a10.136 10.136 0 0 1 10.15 10.147h-.004zm-18.447 4.968c-.034.08.009.131.082.174.08.046.159.113.165.202.015.387.379.534.562.806.08.12.178.275.315.342.269.125.415.358.56.587.112.177.247.308.448.373.358.116.547.47.886.61.006 0 .01.01.012.016.086.168.23.217.41.266.241.067.467.22.663.36.208.15.412.232.648.266.125.018.22.046.284.165.064.12.177.137.305.11.144-.03.29-.04.403.082.101.11.205.153.34.046.049-.04.122-.033.18-.012.21.076.412.162.642.208.238.049.473.11.714.091.205-.015.395.09.593.046a3.878 3.878 0 0 1 1.512-.046c.107.019.19 0 .236-.113.043-.113.143-.143.238-.1.205.091.367.033.535-.086a.688.688 0 0 1 .269-.104c.35-.067.687-.195 1.044-.238.07-.01.141-.015.193-.067.147-.153.354-.199.532-.3.113-.064.192-.198.33-.201.207-.006.336-.129.476-.254.22-.195.407-.446.733-.492a.295.295 0 0 0 .236-.186c.064-.193.195-.324.351-.446.113-.089.208-.199.293-.318.16-.21.474-.269.556-.556.003-.012.037-.015.052-.028.202-.18.443-.326.45-.647 0-.113.06-.202.161-.272.233-.16.407-.394.523-.636.104-.21.241-.437.19-.702-.016-.068.042-.107.097-.144.238-.15.43-.62.364-.895-.046-.193-.019-.358.146-.48a.278.278 0 0 0 .104-.33c-.11-.333.196-.608.116-.932 0-.006.006-.012.01-.018a.176.176 0 0 0 .015-.177c-.061-.138-.025-.263.012-.4.085-.315.186-.62.043-.963-.107-.256-.217-.544-.052-.834.03-.055-.01-.12-.025-.18-.06-.22-.17-.428-.085-.678.036-.107.003-.309-.101-.33-.248-.052-.177-.187-.147-.333.01-.05-.009-.11-.021-.162a2.41 2.41 0 0 0-.394-.834.93.93 0 0 1-.153-.398c-.061-.357-.12-.724-.501-.91-.037-.018-.08-.07-.083-.11-.018-.144-.03-.272-.226-.266-.055 0-.07-.073-.067-.134 0-.04.025-.104-.012-.116-.18-.05-.162-.196-.18-.327a.184.184 0 0 0-.101-.147c-.51-.241-.785-.748-1.213-1.085-.03-.024-.04-.07-.058-.106-.021-.053-.046-.12-.101-.126-.275-.018-.312-.437-.636-.373-.015.003-.055-.042-.064-.073-.067-.186-.22-.238-.39-.247a.372.372 0 0 1-.315-.168c-.037-.052-.086-.098-.147-.11-.34-.065-.556-.346-.85-.486-.213-.104-.449-.248-.666-.232-.223.015-.342-.07-.491-.175a.595.595 0 0 0-.226-.094 8.543 8.543 0 0 0-1.042-.144.738.738 0 0 1-.242-.049c-.339-.146-.72-.125-1.048-.07-.269.046-.504.107-.763.012a.162.162 0 0 0-.101 0c-.294.07-.602.11-.874.23-.272.119-.565-.043-.819.119-.226-.129-.348.033-.461.177-.101.125-.208.17-.358.113-.146-.055-.272-.01-.412.052-.318.134-.483.516-.874.531-.021 0-.046.03-.064.05a.692.692 0 0 1-.324.17c-.183.052-.406.058-.467.309-.007.027-.046.067-.07.067-.227.012-.325.18-.431.342-.065.098-.171.129-.275.171-.196.086-.41.15-.535.346-.14.217-.306.403-.535.531a.477.477 0 0 0-.226.263c-.14.428-.623.648-.678 1.127-.003.034-.052.065-.083.089-.268.205-.384.513-.458.81-.07.287-.256.51-.342.785-.043.137-.174.241-.098.41.028.06-.012.103-.064.134-.043.024-.082.055-.08.11.019.235-.222.418-.13.672.008.021-.034.058-.047.088-.082.211-.207.413-.14.657.009.04.024.101.003.12-.168.174-.01.375-.052.543-.089.349-.034.666.07.996.043.138-.033.306 0 .45.125.568.01 1.17.235 1.723.007.012.01.03.004.04-.074.177.042.299.15.393.097.086.11.165.079.27-.034.122-.022.232.097.308.153.098.205.244.214.421.022.343.132.645.44.844.07.046.129.107.095.217h-.018z" fill="#DE9E30"/><path d="M10.701 23.26c.034-.11-.02-.17-.094-.216-.309-.199-.419-.501-.44-.843-.01-.178-.061-.324-.214-.422-.12-.076-.131-.183-.098-.309.028-.107.016-.183-.08-.269-.106-.094-.222-.216-.149-.394.006-.012 0-.027-.003-.04-.226-.552-.107-1.154-.235-1.723-.03-.143.046-.311 0-.449-.104-.33-.16-.644-.07-.996.042-.168-.117-.37.051-.544.019-.02.007-.079-.003-.119-.067-.244.058-.446.14-.657.013-.03.053-.067.047-.088-.092-.25.146-.437.131-.672-.003-.055.037-.086.08-.11.052-.03.091-.074.064-.135-.077-.168.055-.272.098-.41.085-.274.271-.497.342-.784.073-.297.19-.605.458-.81.034-.024.08-.055.082-.089.056-.48.538-.7.679-1.127a.488.488 0 0 1 .226-.263c.229-.128.397-.311.535-.531.125-.196.339-.26.534-.346.101-.045.208-.076.275-.17.107-.16.202-.33.43-.343.025 0 .065-.04.071-.067.058-.25.281-.257.468-.309a.654.654 0 0 0 .324-.17c.018-.02.042-.05.064-.05.39-.012.553-.397.873-.531.141-.058.266-.107.413-.052.153.058.26.012.357-.113.117-.144.239-.306.462-.177.253-.162.547 0 .819-.12.271-.119.58-.158.873-.229.034-.009.07-.009.101 0 .26.092.498.03.764-.012.327-.055.709-.076 1.048.07a.74.74 0 0 0 .241.05c.352.02.697.076 1.042.143.08.015.162.049.226.095.15.103.27.192.492.174.217-.016.452.131.666.232.293.14.507.421.85.486.06.012.11.055.146.11.077.11.177.159.315.168.171.009.327.06.39.247.01.03.05.076.065.073.324-.064.36.355.636.373.051.003.076.074.1.126.016.036.028.085.059.106.427.337.702.844 1.212 1.085a.19.19 0 0 1 .101.147c.018.131 0 .278.18.327.037.009.016.076.013.116-.003.058.012.134.067.134.195-.006.21.125.226.266.006.04.046.092.082.11.382.186.44.553.502.91a.97.97 0 0 0 .152.398c.18.256.321.528.394.834.013.052.031.11.022.162-.03.146-.101.28.146.333.107.021.138.223.101.33-.082.25.025.458.086.678.015.06.055.122.024.18-.165.29-.055.578.052.834.144.342.043.648-.043.963-.036.137-.073.262-.012.4a.176.176 0 0 1-.015.177c-.003.006-.012.012-.01.018.08.324-.225.6-.115.932.04.122.015.245-.104.33-.165.122-.193.287-.147.48.067.275-.125.745-.363.895-.055.037-.113.073-.098.144.055.265-.086.491-.19.702-.119.242-.29.474-.522.636-.1.07-.162.156-.162.272-.006.32-.248.47-.45.647-.014.013-.048.016-.051.028-.082.29-.397.345-.556.556-.089.116-.18.23-.293.318-.153.122-.288.25-.352.446a.291.291 0 0 1-.235.186c-.327.046-.513.296-.733.492-.14.125-.27.248-.477.254-.137.003-.217.137-.33.201-.177.101-.382.15-.532.3-.048.052-.122.058-.192.067-.357.043-.694.171-1.045.238a.706.706 0 0 0-.269.104c-.168.12-.33.18-.534.086-.092-.043-.193-.012-.239.1-.043.113-.128.132-.235.113a3.822 3.822 0 0 0-1.512.046c-.199.046-.391-.06-.593-.046-.241.019-.477-.045-.715-.091-.23-.046-.43-.131-.642-.208-.058-.021-.13-.024-.18.012-.134.107-.238.061-.339-.046-.113-.122-.26-.113-.403-.082-.126.027-.242.012-.306-.11-.064-.12-.159-.15-.284-.165a1.39 1.39 0 0 1-.648-.266c-.195-.14-.421-.293-.663-.36-.177-.05-.323-.098-.409-.266 0-.006-.01-.012-.012-.015-.34-.14-.529-.498-.886-.611-.199-.065-.336-.196-.45-.373-.143-.23-.293-.462-.559-.587-.14-.064-.235-.22-.314-.342-.18-.272-.547-.416-.562-.806-.003-.09-.086-.156-.165-.202-.074-.043-.116-.098-.083-.174h.018zm8.127 2.07c1.238-.004 1.644-.08 2.704-.477.083-.031.171-.062.257-.074a1.12 1.12 0 0 0 .504-.22c.086-.058.18-.098.269-.146.263-.147.553-.276.76-.486.251-.254.545-.465.762-.755.326-.437.79-.752 1.047-1.259.233-.458.477-.928.587-1.411.116-.517.318-1.02.312-1.58-.006-.534.058-1.07-.03-1.6-.096-.569-.193-1.137-.422-1.675-.095-.223-.285-.379-.346-.626a1.886 1.886 0 0 0-.556-.948c-.317-.293-.55-.66-.867-.95-.425-.388-.786-.87-1.406-.986-.052-.01-.098-.05-.146-.074-.233-.128-.453-.308-.703-.379-.336-.094-.672-.201-1.011-.284-.783-.186-1.568-.305-2.362-.067-.028.01-.058.018-.08.012-.36-.125-.696.064-1.017.135-.767.168-1.427.617-2.108.999-.37.208-.617.565-.944.828-.37.296-.639.69-.932 1.06-.26.327-.385.73-.575 1.094-.146.284-.302.601-.342.94-.036.285-.094.566-.14.844-.064.394-.05.779-.064 1.17-.013.275-.061.556-.013.822.065.36.16.721.254 1.078.192.728.623 1.342.972 1.992.189.352.495.593.779.865.4.385.782.776 1.255 1.088.541.36 1.161.522 1.73.806.122.061.256.107.39.126.523.073 1.046.186 1.486.134l-.004.003z" fill="#E2A632"/><path d="M18.829 25.332c-.44.052-.96-.064-1.485-.134a1.274 1.274 0 0 1-.391-.126c-.569-.284-1.189-.446-1.73-.806-.47-.312-.852-.703-1.255-1.088-.284-.272-.59-.513-.78-.864-.35-.651-.779-1.268-.971-1.992a14.96 14.96 0 0 1-.254-1.079c-.048-.263 0-.547.013-.822.015-.388 0-.776.064-1.17.046-.281.107-.562.14-.843.043-.34.196-.654.343-.941.189-.364.311-.767.574-1.094.293-.37.562-.764.932-1.06.327-.263.574-.623.944-.828.681-.382 1.341-.831 2.108-1 .324-.07.66-.256 1.017-.134.025.01.055-.003.08-.012.794-.238 1.576-.12 2.361.067.343.083.676.19 1.012.284.25.07.47.248.703.38.048.027.094.063.146.073.617.116.978.598 1.406.986.317.29.55.657.867.95.275.251.468.584.556.948.061.247.25.403.346.626.232.538.326 1.106.421 1.674.089.532.025 1.07.03 1.601.007.56-.195 1.06-.31 1.58-.108.483-.355.953-.588 1.411-.26.51-.72.822-1.047 1.26-.217.29-.51.497-.761.754-.205.207-.498.336-.761.486-.089.049-.183.088-.269.146a1.133 1.133 0 0 1-.504.22 1.236 1.236 0 0 0-.257.073c-1.06.398-1.466.474-2.703.477l.003-.003zm.333-3.162c2.126-.064 3.724-1.723 3.74-3.893.014-2.169-1.733-3.889-3.936-3.883-2.175.006-3.895 1.852-3.856 3.877.043 2.163 1.644 3.97 4.052 3.896v.003z" fill="#E8B337"/><path d="M19.165 22.17c-2.405.07-4.009-1.732-4.052-3.896-.04-2.025 1.68-3.87 3.856-3.877 2.203-.006 3.953 1.711 3.935 3.884-.015 2.166-1.613 3.828-3.74 3.892v-.003zm-1.403-3.844c-.003.587.639 1.262 1.195 1.268.788.01 1.32-.79 1.32-1.265 0-.583-.62-1.31-1.13-1.286-.884.04-1.327.44-1.385 1.283z" fill="#EFC13C"/><path d="M17.762 18.326c.061-.843.501-1.243 1.384-1.283.51-.024 1.134.703 1.13 1.287 0 .473-.534 1.274-1.32 1.264-.558-.006-1.197-.681-1.194-1.268z" fill="#F4D042"/><path d="M18.84 35.026c9.367 0 16.96-7.48 16.96-16.709 0-9.228-7.593-16.709-16.96-16.709-9.365 0-16.957 7.481-16.957 16.71 0 9.227 7.592 16.708 16.958 16.708z" stroke="#fff" stroke-width="3" stroke-miterlimit="10"/><path d="M10.343 20.386c-.244-.69-.414-1.4-.622-2.104-.322-1.103-.633-2.206-.948-3.313-.01-.035-.028-.067.004-.12.544.287 1.092.573 1.637.86.572.3 1.145.604 1.718.908.042.025.088.056.141.025.032.05.07.088.127.113.923.48 1.846.965 2.765 1.453.12.063.173.035.233-.078.418-.802.842-1.601 1.262-2.4.032-.057.06-.117.05-.184.117-.022.124-.131.166-.209.729-1.39 1.453-2.779 2.178-4.168.021-.04.042-.074.081-.142.195.365.375.7.552 1.04l1.729 3.309c.035.067.042.159.145.173-.011.092.038.166.077.24.41.782.828 1.56 1.234 2.345.07.134.138.127.251.067.64-.34 1.287-.672 1.927-1.011.322-.17.643-.35.965-.524l.863-.434c.07-.036.145-.064.215-.096 0 1.04-.017 2.075.015 3.115a1.135 1.135 0 0 1-1.153 1.145c-5.204-.014-10.412-.007-15.616-.007l.004-.003zm9.839-2.34c0-.418-.081-.736-.276-1.015-.343-.492-.894-.598-1.287-.262-.587.509-.7 1.488-.247 2.121.403.566.965.608 1.439.106.272-.29.35-.65.367-.954l.004.003z" fill="#590404" stroke="#935E02" stroke-width=".5" stroke-miterlimit="10"/><path d="M10.343 20.386c5.204 0 10.412-.008 15.616.007.69 0 1.17-.57 1.152-1.146-.032-1.036-.01-2.075-.014-3.114l2.305-1.224c.025-.014.053-.014.082-.02-.015.3-.135.579-.22.869-.587 2.072-1.18 4.143-1.774 6.215-.014.05-.032.096-.046.145h-16.61c-.162-.576-.328-1.153-.491-1.729v-.003z" fill="#590404" stroke="#935E02" stroke-width=".5" stroke-miterlimit="10"/><path d="M26.411 22.114h1.033c0 .64 0 1.284.007 1.924 0 .127-.043.17-.163.152-.035-.004-.07 0-.11 0-5.363 0-10.722 0-16.086.003-.205 0-.296-.032-.275-.265.024-.258.01-.52.01-.778h14.895c.318-.007.555-.194.65-.502.057-.177.015-.357.029-.537l.01.003zM16.714 15.542c.01.067-.018.127-.05.184-.42.799-.845 1.598-1.262 2.4-.06.114-.113.142-.233.078-.92-.488-1.842-.968-2.765-1.453a.391.391 0 0 1-.127-.113c.318-1.732.64-3.465.969-5.26.205.24.37.438.537.64.976 1.173 1.952 2.35 2.93 3.524zM26.018 16.663c-.321.173-.64.353-.965.523-.64.34-1.287.672-1.927 1.011-.116.06-.18.067-.25-.067-.407-.785-.82-1.563-1.234-2.344-.04-.074-.092-.148-.078-.24.827-.997 1.658-1.998 2.489-2.995.31-.375.625-.75.972-1.163.34 1.793.668 3.535.993 5.278v-.003z" fill="#590404" stroke="#935E02" stroke-width=".5" stroke-miterlimit="10"/><path d="M26.411 22.114c-.014.177.028.357-.028.538a.675.675 0 0 1-.65.502H10.837V22.11h15.577l-.004.003z" fill="#590404" stroke="#935E02" stroke-width=".5" stroke-miterlimit="10"/><path d="M29.487 14.888s.007-.01.01-.018l-.014.014v.004h.004z" fill="#F6C144" stroke="#000" stroke-width=".5" stroke-miterlimit="10"/><path d="M20.182 18.045c-.018.304-.096.665-.368.955-.474.502-1.036.456-1.439-.106-.456-.637-.34-1.612.248-2.122.389-.335.94-.23 1.287.262.194.28.275.598.275 1.015l-.003-.004z" fill="#F2A23A" stroke="#000" stroke-width=".5" stroke-miterlimit="10"/></svg>