<svg width="38" height="38" fill="none" xmlns="http://www.w3.org/2000/svg"><path d="M3.011 18.997a17.13 17.13 0 0 1 .425-3.636c.336-1.521.92-2.951 1.69-4.295.51-.886 1.097-1.73 1.775-2.503 1.13-1.283 2.413-2.38 3.886-3.253.91-.541 1.867-.987 2.869-1.342a14.918 14.918 0 0 1 2.786-.712c1.326-.204 2.665-.29 4.009-.143.52.055 1.039.113 1.546.226 1.02.226 2.016.52 2.99.907.646.26 1.278.532 1.88.874a15.83 15.83 0 0 1 2.566 1.79 15.842 15.842 0 0 1 5.31 9.402c.174 1.026.26 2.059.236 3.098-.019.812-.132 1.616-.26 2.416-.293 1.827-.96 3.523-1.867 5.124a15.575 15.575 0 0 1-2.181 2.936 15.539 15.539 0 0 1-3.56 2.85 15.95 15.95 0 0 1-3.642 1.568 16.94 16.94 0 0 1-2.783.559 15.016 15.016 0 0 1-3.355 0 29.51 29.51 0 0 1-1.283-.171 9.496 9.496 0 0 1-1.078-.25c-1.354-.383-2.658-.884-3.88-1.59a16.414 16.414 0 0 1-2.512-1.76 15.855 15.855 0 0 1-5.331-9.394c-.14-.89-.242-1.79-.236-2.7zm21.775 14.69a5.357 5.357 0 0 0 1.235-.541c.07-.021.146-.037.213-.07A19.749 19.749 0 0 0 28 32.028c.077-.052.14-.11.165-.202.364-.134.627-.412.91-.657.23-.18.46-.36.685-.547.061-.052.122-.11.14-.195a.454.454 0 0 0 .169-.113c.418-.407.834-.819 1.182-1.287.364-.485.773-.944 1.042-1.497.248-.311.477-.638.58-1.03.034-.033.08-.06.101-.103.254-.526.58-1.017.721-1.592.022-.027.05-.052.062-.08.22-.54.418-1.09.543-1.661.092-.422.272-.825.263-1.268.104-.324.14-.657.165-.993.095-.45.089-.905.086-1.36a.685.685 0 0 0 .04-.302c-.016-.437-.034-.874-.053-1.311a14.842 14.842 0 0 0-.522-3.015c-.122-.434-.238-.874-.446-1.28-.116-.51-.355-.972-.593-1.434a4.779 4.779 0 0 0-.617-1.12c-.137-.23-.202-.511-.455-.66a.727.727 0 0 0-.33-.496.344.344 0 0 0-.083-.226c-.44-.52-.843-1.066-1.332-1.54-.266-.256-.489-.556-.81-.754-.33-.278-.601-.627-.998-.825-.38-.373-.831-.645-1.28-.92-.29-.18-.566-.394-.896-.498a7.086 7.086 0 0 0-1.494-.7c-.217-.137-.464-.192-.703-.274-.204-.117-.437-.153-.663-.208-.244-.077-.485-.174-.742-.205-.305-.08-.605-.186-.913-.238-.981-.168-1.971-.263-2.967-.217-.239 0-.477-.003-.718-.003-.327 0-.657-.01-.975.08-.116.008-.232.018-.345.027-.526.046-1.033.186-1.552.272-.015.012-.03.024-.046.033h-.003c-.391.07-.773.177-1.146.309-.183.064-.39.082-.543.229a.997.997 0 0 0-.398.095 18.72 18.72 0 0 0-2.184 1.063c-.236.131-.514.21-.679.449a3.958 3.958 0 0 0-1.112.788 1.504 1.504 0 0 0-.308.205 19.39 19.39 0 0 0-1.378 1.27c-.376.392-.749.786-1.045 1.247-.278.26-.467.584-.66.908-.226.312-.464.614-.577.993a.194.194 0 0 0-.14.137c-.059.199-.175.367-.276.544a.537.537 0 0 0-.076.272.461.461 0 0 0-.165.208c-.235.489-.44.987-.623 1.497-.083.226-.196.443-.162.694-.016.012-.028.027-.043.04-.037.103-.08.204-.104.31-.22.92-.43 1.843-.51 2.787-.016.468-.028.935-.043 1.403.015.44.01.88.049 1.316a16.105 16.105 0 0 0 1.378 5.2.98.98 0 0 0 .22.346c0 .085.024.162.064.235.3.553.605 1.1.968 1.616.245.465.614.843.917 1.265a.373.373 0 0 0 .199.14c.07.165.17.312.299.437.357.358.712.718 1.072 1.073.156.153.327.287.526.385.244.278.513.522.864.663.306.324.679.553 1.079.742.061.046.116.095.18.135.941.546 1.907 1.041 2.958 1.353.3.092.58.254.907.25a4.886 4.886 0 0 0 1.53.33c.086.117.224.098.34.114.904.11 1.809.168 2.72.131.525.043 1.041-.061 1.56-.095.129-.009.263-.012.382-.073.373-.055.752-.08 1.11-.21a8.273 8.273 0 0 0 1.114-.285c.413-.12.831-.22 1.207-.443l-.003-.015z" fill="#E38A33"/><path d="M13.632 4.164c.152-.144.357-.165.543-.23a7.378 7.378 0 0 1 1.146-.31c.018.085.04.164.156.143.55-.101 1.103-.205 1.653-.303.1-.018.137-.076.137-.17.321-.09.648-.08.975-.08.238 0 .476 0 .718.003.107.269.348.217.55.198.455-.045.901.043 1.35.083.58.049 1.152.174 1.727.275.106.018.207.03.256-.098.257.03.498.128.742.205-.094.14-.232.128-.366.091a1.6 1.6 0 0 0-.59-.036c-.373.04-.748.07-1.121.113-.434.046-.874.052-1.305.137-.094.019-.217.006-.244.144-.217.003-.43.006-.648.012-.116 0-.232.006-.308.116-.69-.009-1.372.095-2.06.132-.06-.104-.152-.123-.265-.104-.666.11-1.32.256-1.968.443-.403.116-.791.278-1.192.397a.236.236 0 0 0-.18-.028c-.336.113-.69.113-1.035.135-.355.021-.706.11-1.064.052.089-.122.226-.174.352-.245a14.534 14.534 0 0 1 1.772-.818c.125-.05.238-.107.278-.25l-.01-.007z" fill="#EBB839"/><path d="M23.58 34.13c-.364.119-.737.22-1.116.284-.055-.058-.125-.1-.198-.095-.309.028-.623.025-.917.15-.15.012-.3.027-.449.04-.498.042-.993.082-1.49.125-1.01.006-2.011-.1-3.01-.202-.462-.125-.923-.235-1.403-.263-.024-.06-.07-.094-.134-.112-.061-.019-.162-.01-.15-.104.012-.08.11-.068.174-.074.6-.055 1.195-.107 1.794-.159.134-.012.278.007.379-.116.427.016.849.104 1.277.07a.3.3 0 0 0 .177.043c.507.019 1.011-.012 1.515-.055.306-.027.614-.024.914-.103.531-.028 1.045-.172 1.567-.254.293.037.584 0 .874-.022.642-.055 1.28-.119 1.919-.18.082-.006.168-.006.22.077l-.782.375c-.367.062-.685.26-1.042.352-.098.024-.116.125-.123.217l.003.006z" fill="#FADC46"/><path d="M11.23 5.475c.358.06.712-.028 1.063-.052.346-.022.7-.022 1.036-.135.058-.021.122-.003.18.028-.757.37-1.537.696-2.255 1.149-.201.128-.43.18-.662.204-.404.046-.807.077-1.21.11-.07.006-.135.01-.193.055-.324.25-.65.504-.94.795-.05.048-.11.1-.074.177.043.088.128.058.201.049.233-.03.462-.07.697-.055.067.003.15-.019.183.058.034.076-.04.125-.085.17l-.944.89c-.046-.08-.12-.073-.199-.067-.134.012-.272.027-.41.021-.326-.015-.61.055-.818.33-.07.092-.162.122-.272.086.293-.462.666-.856 1.045-1.247.434-.45.901-.865 1.378-1.271a1.39 1.39 0 0 1 .308-.205.408.408 0 0 0 .364-.082c.303-.226.611-.44.92-.657.238-.098.44-.275.693-.345l-.006-.006zM33.836 13.531c.21.407.324.847.446 1.28.278.987.458 1.992.522 3.016h-.192c.024-.073.006-.147 0-.223-.022-.257-.101-.507-.086-.767-.04-.186-.076-.376-.122-.562-.03-.134-.11-.22-.26-.21-.137.008-.272.017-.41.036-.173.021-.253.131-.228.302.027.174.042.355.113.52l.082.99c-.024.305.052.604.043.91-.003.04-.01.076-.012.116-.074-.01-.11-.064-.147-.116V18.615a18.644 18.644 0 0 0-.571-3.626 3.54 3.54 0 0 0 .107-.046c.107.07.055.272.232.28.192.01.382.022.571-.03.147-.04.208-.137.175-.275a10.438 10.438 0 0 0-.202-.687c-.037-.11-.113-.19-.241-.193-.239-.006-.48-.03-.706.077-.095-.18-.193-.358-.288-.538-.012-.082-.02-.162-.033-.244.156-.013.312-.034.467-.04.217-.01.443-.043.587.19.028.045.095.048.15.048h.003z" fill="#F4D042"/><path d="M3.846 14.527c-.034-.25.08-.467.162-.693a17.76 17.76 0 0 1 .623-1.497.478.478 0 0 1 .165-.208c.156-.006.186-.14.247-.245.11-.177.18-.39.44-.415.281-.027.56-.049.844-.04-.028.138-.123.245-.184.367-.046.092-.107.19.028.266-.01.033-.016.067-.034.098-.315.516-.54 1.075-.755 1.637-.174.458-.32.932-.48 1.396-.045 0-.09-.006-.14-.009l.104-.443c.144-.26.202-.544.26-.83.122-.169.186-.367.256-.56.055-.147-.009-.226-.168-.217-.17.01-.342.024-.51.037-.1.009-.195.049-.244.131-.113.202-.242.4-.245.645-.097.125-.119.284-.183.425-.04.085-.082.152-.186.155z" fill="#D78D29"/><path d="M24.948 4.362a6.732 6.732 0 0 1 1.494.7c.006.14.098.214.205.287.379.26.819.425 1.149.758-.025.073-.077.116-.153.12-.458.005-.91.155-1.372.045-.015-.021-.027-.052-.049-.064-.522-.32-1.063-.605-1.647-.8l-.082-.046c.131-.217.357-.172.553-.196.217-.027.44.018.657-.03.06-.016.153-.004.159-.098.003-.077-.064-.12-.126-.15-.174-.08-.36-.14-.528-.23-.116-.06-.293-.088-.26-.29v-.006z" fill="#FADC46"/><path d="M19.953 4.323c.03-.138.15-.125.244-.144.431-.085.871-.088 1.305-.137.373-.04.749-.07 1.121-.113a1.6 1.6 0 0 1 .59.036c.137.037.272.052.367-.091.226.055.455.091.663.207a.26.26 0 0 0 .097.217c.132.113.074.178-.064.196-.305.04-.617.058-.92.107-.216.036-.458-.043-.644.14-.073-.009-.15-.015-.223-.033a14.29 14.29 0 0 0-2.539-.391l.003.006z" fill="#EFC43D"/><path d="M29.616 7.302c.321.195.544.498.81.754.492.474.895 1.02 1.332 1.54.058.067.083.14.083.226.012.061.021.122.036.18.129.492.129.495-.385.55a.671.671 0 0 1-.62-.253c-.058-.067-.107-.144-.186-.19-.034-.213-.226-.317-.336-.476-.129-.187-.113-.26.113-.3.153-.027.311-.03.467-.049.199-.02.223-.073.122-.25a1.524 1.524 0 0 0-.409-.452 7.115 7.115 0 0 0-.868-.926c-.11-.098-.177-.205-.159-.354z" fill="#D78D29"/><path d="m3.146 19.07.043-1.402c.067-.027.131-.058.198-.085 0 .128.006.26 0 .388-.003.162.068.229.233.235.226.009.446-.046.669-.052.015.098 0 .21.125.253 0 .303-.003.608-.006.911v.034c0 .027 0 .058.003.085-.104.03-.15.104-.162.208l-.904.082a1.005 1.005 0 0 0-.205-.66l.006.003zM27.796 6.104c-.33-.333-.773-.495-1.15-.758-.106-.073-.198-.146-.204-.287.333.104.605.318.895.498.446.278.902.547 1.28.92-.06.137.019.22.113.296.217.18.431.36.648.538.043.036.095.07.08.131-.019.07-.089.083-.15.092-.183.021-.367.04-.553.055-.104.009-.208.012-.26.125-.394-.214-.7-.547-1.057-.806-.122-.09-.061-.169.067-.184.245-.033.49-.058.734-.085.055-.006.116-.006.134-.07.015-.059-.037-.086-.073-.114-.165-.122-.309-.272-.504-.351z" fill="#EFC13C"/><path d="M28.495 7.717c.052-.113.156-.119.26-.125.183-.015.37-.034.553-.055.061-.006.131-.021.15-.092.015-.06-.037-.098-.08-.131-.217-.18-.43-.36-.647-.538-.095-.08-.175-.162-.113-.296.397.198.669.544.999.825-.019.15.049.256.159.354.317.281.604.593.867.926-.21.128-.443.128-.678.125-.11 0-.226-.009-.275.125-.223-.128-.373-.342-.571-.498-.18-.232-.456-.37-.624-.617v-.003z" fill="#E7B036"/><path d="M5.828 27.781c-.363-.513-.669-1.063-.968-1.616a.454.454 0 0 1-.064-.235c.045-.306-.135-.556-.208-.831a.967.967 0 0 0 .467.009c.162-.034.324-.064.49-.022.247.38.43.792.616 1.204a2.953 2.953 0 0 1-.632.086c-.263.003-.296.07-.171.296.198.354.428.69.599 1.06-.043.015-.086.034-.129.049z" fill="#EFC13C"/><path d="M22.715 4.744c.183-.18.428-.103.645-.14.305-.052.614-.067.92-.107.137-.018.195-.086.063-.196a.253.253 0 0 1-.098-.217c.239.086.486.138.703.275-.033.202.144.23.26.29.168.092.351.153.529.23.064.027.128.07.125.15-.003.094-.095.085-.16.097-.216.05-.44.003-.656.03-.195.025-.425-.017-.553.196-.547-.201-1.085-.421-1.662-.534a.201.201 0 0 1-.116-.077v.003z" fill="#F4D042"/><path d="M17.063 33.607c-.101.123-.245.104-.38.117-.598.051-1.194.103-1.793.158-.064.006-.162-.006-.174.074-.015.091.089.085.15.103.064.019.11.053.134.114-.058.018-.116.033-.17.051-.328.007-.609-.155-.908-.25.067-.162-.07-.192-.165-.247-.144-.083-.33-.077-.452-.208.052-.012.104-.037.159-.037.464-.006.922-.08 1.384-.128.15-.015.317.009.44-.12.238.056.476.11.715.169.35.085.714.1 1.063.207l-.003-.003z" fill="#EFC43D"/><path d="M6.17 12.062c-.13-.077-.07-.174-.027-.266.061-.122.156-.226.184-.367.155-.131.216-.33.323-.495.074-.116.248-.226.165-.37-.082-.143-.265-.036-.403-.039-.394-.006-.727.1-.895.501a.244.244 0 0 1-.226.153c.113-.38.351-.681.577-.993.11.119.171.021.217-.061a.77.77 0 0 1 .526-.397c.3-.055.605-.117.913-.037-.009.104-.192.198-.021.315-.074.174-.19.317-.306.464-.4.492-.712 1.045-1.032 1.589l.006.003z" fill="#E8B337"/><path d="M34.731 20.803c-.024.336-.06.672-.165.993-.055 0-.11 0-.165-.003-.235-.074-.476-.046-.715-.028-.137.01-.217.104-.253.235l-.147.538-.128-.046c.134-.531.19-1.075.302-1.61.083-.006.135-.046.16-.125.317.006.638.027.946-.08.055.04.11.083.162.123l.003.003z" fill="#E2A632"/><path d="M3.387 17.58c-.067.027-.131.058-.198.085.08-.944.293-1.867.51-2.786.024-.107.07-.208.104-.312.015-.012.027-.027.043-.04.103 0 .146-.07.186-.155.064-.141.086-.3.183-.425.306.012.602-.113.91-.04-.054.287-.112.572-.259.831-.247-.027-.489.03-.736.046-.138.01-.217.089-.263.22-.07.208-.1.425-.147.639-.1.265-.131.543-.168.824a6.52 6.52 0 0 0-.168 1.113h.003z" fill="#E7B036"/><path d="M4.588 25.099c.074.274.25.525.208.83a.98.98 0 0 1-.22-.345 16.085 16.085 0 0 1-1.378-5.2c-.04-.437-.034-.877-.049-1.317.144.196.22.416.205.66.064.272 0 .556.08.825.018.333.027.67.149.99.052.623.186 1.225.397 1.815.04.25.12.486.242.706.055.37.229.696.37 1.036h-.004z" fill="#F4D042"/><path d="M9.706 31.744c-.352-.14-.62-.385-.865-.663-.043-.214-.196-.352-.348-.49-.067-.057-.14-.11-.15-.207.36-.046.721-.092 1.085-.134.351.22.666.488.993.745-.12.04-.242.04-.364.049-.205.015-.412.006-.608.067-.156.05-.162.116-.049.232.104.104.26.156.312.315 0 .03 0 .058-.003.089l-.003-.003z" fill="#DE9E30"/><path d="M7.527 9.697c-.309-.08-.614-.018-.913.037a.749.749 0 0 0-.526.397c-.046.082-.107.18-.217.06.19-.323.382-.644.66-.906.11.036.205.009.272-.086.208-.275.495-.345.819-.33.134.006.272-.01.41-.021.079-.006.149-.013.198.067-.223.269-.41.571-.7.782h-.003z" fill="#EFC13C"/><path d="M32.626 10.974c.247.351.467.718.617 1.121-.01.03-.028.064-.03.095-.046.32-.046.312-.364.36-.171.028-.358 0-.51.114-.086-.064-.12-.16-.16-.254-.045-.113-.088-.226-.207-.284l-.085-.33c.064-.058.143-.073.226-.083.143-.018.287-.033.427-.064.199-.046.223-.104.138-.29-.058-.125-.128-.247-.05-.391l-.002.006z" fill="#E7B036"/><path d="M5.288 11.182a.244.244 0 0 0 .226-.153c.168-.4.5-.51.895-.501.137 0 .32-.104.403.04.083.14-.091.253-.165.37-.104.164-.168.363-.324.494a6.487 6.487 0 0 0-.843.04c-.26.027-.333.238-.44.415-.064.104-.091.239-.247.245 0-.098.027-.186.076-.272.1-.177.22-.342.275-.544a.2.2 0 0 1 .14-.137l.004.003z" fill="#DE9E30"/><path d="M32.88 26.5c-.107.395-.333.719-.58 1.03-.108-.042-.169.019-.224.092-.049.067-.098.134-.183.156-.223-.092-.443-.006-.666.012-.101.01-.214.058-.281-.052-.07-.116.045-.183.094-.266.065-.104.15-.195.184-.317.067-.07.137-.138.204-.208.236.08.47.03.706.012.266-.021.45-.137.544-.391.034-.092.089-.168.19-.199l.008.129.004.003z" fill="#EBB839"/><path d="M31.884 11.802c.027.11.058.22.085.33h-.092c-.042-.061-.091-.12-.128-.183-.36-.639-.76-1.25-1.195-1.84h.132c.076.05.128.123.186.19a.685.685 0 0 0 .62.253c.514-.055.514-.058.385-.55-.015-.058-.024-.122-.036-.18.177.12.293.281.33.495 0 .14.055.266.113.391.11.23.055.321-.205.348-.122.013-.244.031-.367.043-.155.016-.207.083-.128.232.086.165.177.324.296.468l.004.003z" fill="#DB982D"/><path d="M29.076 31.17c-.284.244-.547.522-.91.656v-.085c-.004-.126-.077-.168-.19-.162-.156.006-.315.009-.47.021-.212.015-.422.043-.633.058-.058.003-.132 0-.15-.076-.015-.064.043-.095.086-.129.198-.137.4-.262.617-.372.125.125.281.082.425.064.39-.049.785-.098 1.179-.107l.046.131z" fill="#E2A632"/><path d="M32.336 12.67c.153-.116.34-.089.51-.113.318-.05.318-.04.364-.36.006-.034.021-.065.03-.096.235.462.477.923.593 1.433-.055 0-.122 0-.15-.049-.143-.232-.37-.198-.586-.189-.156.006-.312.024-.468.04-.15-.199-.22-.431-.293-.66v-.006z" fill="#EFC43D"/><path d="M31.884 11.802a2.567 2.567 0 0 1-.297-.467c-.08-.15-.027-.217.129-.233.122-.012.244-.03.366-.042.257-.028.312-.12.205-.349-.058-.125-.113-.25-.113-.39.254.149.318.43.455.66-.08.14-.009.262.05.39.085.187.06.245-.138.29-.14.031-.284.046-.428.065a.4.4 0 0 0-.226.082l-.003-.006z" fill="#E2A632"/><path d="M22.84 3.672c-.049.131-.15.12-.256.098-.575-.101-1.146-.226-1.727-.275-.449-.04-.892-.129-1.35-.083-.199.022-.44.074-.55-.198 1-.046 1.986.049 2.967.217.308.052.61.155.913.238l.003.003z" fill="#DE9E30"/><path d="M31.89 27.781c.088-.021.134-.089.183-.156.055-.076.12-.137.223-.091-.272.553-.678 1.01-1.042 1.497-.348.467-.763.88-1.182 1.286a.42.42 0 0 1-.168.113c-.015-.043-.03-.089-.046-.131.266-.303.532-.602.794-.905.263-.226.465-.504.657-.788.233-.248.465-.498.584-.825h-.003zM13.302 33.519c.122.131.308.125.452.208.095.055.232.085.165.247-1.048-.312-2.017-.807-2.958-1.353-.064-.037-.122-.09-.18-.135.015-.043.027-.085.043-.125.183.055.336.186.528.22.275.284.639.4 1 .525.28.22.614.318.95.413z" fill="#F4D042"/><path d="M11.23 5.475c-.254.07-.455.244-.694.345-.054-.015-.113-.03-.168-.049.165-.241.443-.318.679-.45.705-.4 1.433-.754 2.184-1.062.129-.052.257-.101.397-.095-.04.144-.152.202-.278.25-.608.233-1.2.505-1.772.82-.125.07-.262.121-.351.244l.003-.003z" fill="#DC9A2E"/><path d="M34.401 21.793c.055 0 .11 0 .165.003.012.443-.171.846-.263 1.268-.122.571-.324 1.121-.543 1.662-.013.03-.04.055-.062.08l-.091-.083c.04-.177.08-.355.116-.535.278-.532.376-1.118.507-1.696.092-.226.107-.47.168-.702l.003.003z" fill="#D78D29"/><path d="M16.403 34.432c1.002.101 2 .205 3.01.202v.162c-.911.037-1.816-.022-2.72-.132-.116-.015-.25.003-.34-.113l.047-.119h.003z" fill="#DC9A2E"/><path d="M28.168 31.74v.086c-.024.092-.088.15-.165.202a19.71 19.71 0 0 1-1.766 1.048c-.064.033-.14.046-.213.07l-.05-.128c.059-.052.117-.104.178-.156.36-.086.641-.3.907-.54.257-.04.44-.212.648-.343.147-.095.266-.244.464-.238h-.003z" fill="#DB982D"/><path d="M8.343 30.384c.006.1.082.15.15.208.152.137.305.275.348.489a2.044 2.044 0 0 1-.526-.385c-.36-.355-.718-.715-1.072-1.073a1.427 1.427 0 0 1-.3-.437l.086-.049c.19.18.379.364.568.544.217.27.431.538.746.703z" fill="#D78D29"/><path d="M19.415 34.796v-.162c.498-.043.993-.083 1.491-.125.15-.013.3-.028.45-.04 0 .052.002.104.005.156-.119.06-.253.064-.381.073-.52.037-1.036.138-1.562.095l-.003.003z" fill="#E7B036"/><path d="M17.267 3.29c0 .095-.036.153-.137.171l-1.653.303c-.116.021-.138-.058-.156-.144h.003c.015-.012.03-.024.046-.034.52-.085 1.027-.226 1.552-.271l.345-.028v.003z" fill="#FADC46"/><path d="M7.03 29.137c-.028.016-.056.034-.086.05a.39.39 0 0 1-.199-.141c-.305-.422-.672-.8-.916-1.265.042-.015.085-.034.128-.049l.532.626c.128.236.29.444.488.624.016.052.034.104.05.159l.002-.003zM33.61 24.723l.092.082c-.14.575-.468 1.07-.721 1.592-.019.04-.068.067-.101.104 0-.043-.006-.086-.01-.129.019-.094.034-.186.053-.28.1-.101.134-.236.201-.355.183-.327.254-.709.486-1.014z" fill="#E2A632"/><path d="M34.612 17.83h.192c.019.437.037.874.052 1.31a.678.678 0 0 1-.04.303c-.055 0-.11 0-.161-.003l-.01-.654c.034-.32-.036-.635-.04-.953h.01l-.003-.003z" fill="#EFC13C"/><path d="m16.403 34.432-.046.12a4.885 4.885 0 0 1-1.53-.33c.057-.019.112-.034.17-.052.48.024.941.137 1.403.262h.003zM10.369 5.771c.055.015.113.03.168.049-.306.217-.618.43-.92.657a.408.408 0 0 1-.364.082c.321-.333.7-.583 1.113-.788h.003zM25.972 33.018c.015.042.033.085.049.128a5.35 5.35 0 0 1-1.235.54c-.015-.042-.03-.085-.046-.124.26-.126.52-.251.783-.376a1.81 1.81 0 0 1 .449-.168zM10.824 32.36c-.016.044-.028.086-.043.126-.4-.186-.77-.418-1.079-.742 0-.03 0-.058.003-.089.107.006.19.064.278.12.223.14.45.28.673.418l.165.165.003.003zM34.655 19.437c.055 0 .11 0 .162.003 0 .455.006.91-.086 1.36-.055-.04-.11-.083-.162-.123.037-.412.092-.824.086-1.24z" fill="#E7B036"/><path d="m24.744 33.562.045.125c-.376.223-.794.32-1.207.443.007-.092.025-.193.123-.217.357-.092.675-.29 1.042-.351h-.003z" fill="#EFC43D"/><path d="M29.855 30.299c.015.042.03.088.046.13-.019.086-.08.145-.14.196-.227.184-.456.364-.685.547l-.046-.131c.128-.214.397-.296.504-.532l.32-.21z" fill="#EBB839"/><path d="M21.358 34.625c0-.052-.003-.104-.006-.156.293-.122.608-.122.917-.15.073-.006.143.037.198.095-.357.131-.736.159-1.109.21z" fill="#F4D042"/><path d="M3.846 14.527s-.028.028-.043.04c.015-.012.027-.027.043-.04z" fill="#D78D29"/><path d="M15.367 3.59s-.03.024-.046.033a.44.44 0 0 1 .046-.033z" fill="#EBB839"/><path d="M30.555 10.113c.43.592.83 1.203 1.194 1.839.037.064.086.122.129.183.207.489.412.978.666 1.442.155.47.311.938.47 1.409.312 1.188.498 2.398.568 3.626V18.82c-.03.687-.058 1.378-.125 2.062-.113.535-.168 1.079-.303 1.61-.1.327-.198.657-.299.984-.226.736-.559 1.433-.861 2.139-.324.486-.602.999-.896 1.503l-1.164 1.506c-.033.034-.07.068-.104.101-.772.782-1.552 1.55-2.462 2.181a14.592 14.592 0 0 1-6.431 2.503c-.074.012-.147.024-.223.033-.792.086-1.583.092-2.377.086a16.252 16.252 0 0 1-2.487-.33c-.587-.122-1.15-.324-1.723-.477l-1.082-.44-1.442-.745c-.724-.397-1.366-.914-2.001-1.433-.407-.333-.786-.706-1.174-1.06-.244-.272-.488-.547-.733-.819l-.889-1.228c-.36-.605-.736-1.204-1.023-1.852-.07-.159-.107-.342-.239-.47l-.376-1.024c-.097-.39-.201-.779-.339-1.158-.21-1.008-.37-2.022-.412-3.052 0-.027 0-.058-.003-.085v-.034c0-.303.003-.608.006-.91l.128-1.406c.116-.605.211-1.213.358-1.812.159-.464.305-.938.48-1.396.213-.562.436-1.121.754-1.638.018-.027.021-.064.034-.097.32-.544.629-1.097 1.032-1.589a1.97 1.97 0 0 0 .306-.464c.458-.486.88-1 1.362-1.464 1.757-1.696 3.816-2.86 6.163-3.532.63-.18 1.27-.29 1.91-.434.687-.036 1.368-.143 2.059-.13a17.74 17.74 0 0 1 2.053.146c1.222.162 2.383.528 3.529.962.571.25 1.124.538 1.677.819.293.19.59.376.88.568.669.443 1.277.966 1.891 1.479l.819.834c.201.315.452.587.706.856h-.006zm2.117 4.497c-.022-.235-.116-.45-.214-.66-.049-.266-.214-.489-.296-.743-.16-.443-.413-.837-.654-1.24a3.588 3.588 0 0 0-.575-.95 1.89 1.89 0 0 0-.409-.58 5.14 5.14 0 0 0-.77-.954c-.165-.183-.293-.397-.498-.54-.177-.211-.36-.416-.593-.569a2.373 2.373 0 0 0-.577-.498 5.873 5.873 0 0 0-1.14-.834c-.266-.226-.574-.382-.88-.544-.311-.238-.69-.342-1.032-.522-.437-.223-.883-.422-1.363-.538-.202-.116-.434-.14-.65-.217-.62-.22-1.266-.324-1.913-.403-.474-.135-.96-.147-1.445-.16-.275 0-.547-.005-.822-.008-.33.006-.663-.03-.993.042-.364 0-.724.037-1.076.132-.418.058-.84.098-1.237.25-.296.077-.599.144-.892.236-1.702.519-3.236 1.353-4.626 2.456-.516.41-1.017.837-1.439 1.35-.32.3-.62.618-.85.993-.231.217-.409.477-.574.743-.207.284-.4.577-.55.898-.165.214-.308.44-.366.712-.297.415-.474.889-.642 1.366-.3.66-.498 1.35-.63 2.062-.097.367-.198.733-.204 1.115-.061.312-.113.626-.095.947-.073.358-.045.715-.036 1.076-.01.333-.037.666.021.999.018.446.049.889.165 1.323.01.265.073.522.147.776.015.229.067.452.165.66.11.531.296 1.041.522 1.533.086.321.232.614.394.899.168.39.358.773.608 1.12.086.218.217.407.367.584.11.248.284.456.455.66.263.392.553.761.901 1.082.107.18.257.32.422.446.183.217.37.43.62.574.358.394.783.706 1.229.993.25.227.537.395.83.55.239.187.505.321.78.443.238.147.485.281.754.37.288.162.59.287.908.376.348.156.7.3 1.078.357.318.135.654.196.99.254.856.205 1.723.315 2.606.318.495.006.993.042 1.485-.037.171.018.342-.018.51-.04.663-.085 1.33-.162 1.968-.373.027-.003.055-.006.082-.012 1.204-.272 2.325-.751 3.4-1.35 1.26-.7 2.4-1.555 3.355-2.637a10.897 10.897 0 0 0 1.467-1.818c.342-.412.608-.87.828-1.356.44-.74.77-1.528.993-2.359.171-.354.257-.733.318-1.118.152-.498.223-1.015.28-1.528.044-.467.123-.932.086-1.402.07-.303-.009-.605-.003-.908.028-.277-.024-.55-.043-.824-.103-.465-.058-.954-.235-1.403a2.891 2.891 0 0 0-.21-.907c-.01-.239-.15-.437-.205-.66l.003-.003z" fill="#8D6020"/><path d="M16.937 4.58c-.635.143-1.28.253-1.91.433-2.343.672-4.402 1.836-6.162 3.532-.48.464-.904.978-1.362 1.464-.171-.117.012-.208.021-.315.29-.211.477-.513.7-.782.314-.297.632-.59.944-.89.049-.045.122-.091.085-.17-.033-.077-.119-.052-.183-.059-.235-.015-.464.025-.697.055-.073.01-.158.04-.201-.048-.037-.077.027-.129.073-.178.29-.29.617-.543.941-.794.058-.046.122-.049.193-.055.403-.034.806-.064 1.21-.11.232-.024.46-.08.662-.205.718-.452 1.494-.782 2.255-1.148.4-.12.788-.278 1.192-.398a17.43 17.43 0 0 1 1.967-.443c.113-.018.205 0 .266.104l.006.006z" fill="#FADC46"/><path d="M24.578 5.557c-1.145-.434-2.306-.8-3.528-.962a17.74 17.74 0 0 0-2.053-.147c.076-.11.192-.113.308-.116.217-.006.431-.006.648-.012.858.058 1.705.177 2.539.39.073.02.15.022.223.034.03.037.067.068.116.077.574.113 1.115.333 1.662.534l.083.046v.153l.002.003z" fill="#DB982D"/><path d="M20.943 33.409a14.59 14.59 0 0 0 6.43-2.502c.911-.633 1.69-1.4 2.463-2.182l.104-.1c0 .048 0 .094.003.143-.1.232-.342.354-.455.577L28.205 30.5c-.272.177-.535.37-.782.58a5.086 5.086 0 0 0-.617.373c-.046.031-.101.062-.086.129.018.08.092.08.15.076.21-.015.421-.04.632-.058.156-.012.315-.015.47-.021.114-.003.187.04.19.162-.198-.01-.318.143-.464.238-.208.131-.391.302-.648.342-.474-.03-.94.08-1.411.083-.663 0-1.24.311-1.858.473-.03.01-.052.04-.08.061l-1.197.37c-.523.083-1.036.226-1.568.254v-.153h.007z" fill="#E8B337"/><path d="M22.51 33.311c.4-.122.797-.248 1.198-.37a.342.342 0 0 0 .198.037c.394-.034.789-.073 1.186-.104.351-.027.702-.125 1.057-.015-.058.052-.116.104-.177.156a1.81 1.81 0 0 0-.45.168c-.051-.086-.137-.086-.22-.077-.638.058-1.28.126-1.918.18-.29.025-.58.062-.874.022v.003z" fill="#F4D042"/><path d="M14.133 32.724c.577.153 1.14.355 1.723.477.822.171 1.65.284 2.487.327 0 .049 0 .098-.003.147-.428.033-.853-.055-1.277-.07-.346-.108-.712-.123-1.064-.208a61.556 61.556 0 0 0-.715-.169c-.372-.11-.742-.223-1.115-.333a15.735 15.735 0 0 0-.036-.17z" fill="#D78D29"/><path d="M18.34 33.678c0-.05 0-.098.003-.147.794.003 1.585 0 2.377-.085.073-.01.15-.022.223-.034v.153c-.3.08-.608.076-.914.104-.504.042-1.008.073-1.515.055a.331.331 0 0 1-.177-.043l.003-.003z" fill="#E2A632"/><path d="M34.655 19.437c.006.416-.05.828-.086 1.24-.308.108-.63.086-.947.08.07-.605.15-1.21.113-1.821.003-.04.01-.076.012-.116.3-.01.602.018.899-.04l.009.654v.003z" fill="#D78D29"/><path d="M32.953 14.112c.226-.107.467-.083.706-.077.128 0 .205.083.241.193.074.226.144.455.202.687.033.14-.028.236-.174.275-.19.052-.38.04-.572.03-.177-.008-.125-.213-.232-.28-.012-.08-.015-.162-.037-.239-.055-.195-.143-.378-.134-.586v-.003z" fill="#FADC46"/><path d="m33.702 17.913-.083-.99c.303-.025.605-.028.904-.083-.015.26.068.51.086.767.006.073.024.147 0 .223h-.01a3.192 3.192 0 0 0-.9.083h.003z" fill="#E7B036"/><path d="M33.701 17.913c.297-.07.6-.101.902-.083.003.318.073.633.04.953-.297.058-.6.03-.899.04.01-.306-.067-.605-.043-.91z" fill="#E2A632"/><path d="M34.526 16.84c-.299.058-.601.058-.904.083-.073-.165-.089-.346-.113-.52-.024-.17.052-.278.23-.302.134-.018.271-.028.409-.037.15-.009.229.08.26.21.045.187.082.377.121.563l-.003.003z" fill="#EFC43D"/><path d="M33.732 18.936c.037.611-.043 1.216-.113 1.821-.024.08-.076.12-.159.125.067-.687.092-1.375.126-2.062.04.052.076.107.146.116z" fill="#E8B337"/><path d="M32.544 13.577c-.257-.464-.462-.953-.666-1.442h.091c.12.058.165.171.208.284.037.095.073.19.159.254.073.232.144.464.293.66.013.082.022.162.034.244h-.12z" fill="#E2A632"/><path d="M32.544 13.577h.119l.287.538c-.01.208.082.394.134.586.022.077.025.16.037.239-.037.015-.073.03-.107.046-.156-.471-.311-.938-.47-1.409z" fill="#EBB839"/><path d="M3.723 15.643c.046-.214.077-.431.147-.639.046-.131.122-.214.263-.22.244-.015.489-.073.736-.046l-.104.443c-.055.122-.036.27-.128.379-.309-.015-.608.052-.914.082z" fill="#EFC13C"/><path d="M5.126 13.907c-.309-.073-.605.052-.91.04 0-.245.128-.443.244-.645.049-.085.143-.125.244-.131.171-.015.342-.028.51-.037.16-.01.22.073.168.217-.07.192-.134.388-.256.56v-.004z" fill="#DE9E30"/><path d="M4.637 15.56c.089-.11.073-.257.128-.379.046 0 .092.006.14.01-.146.598-.24 1.206-.357 1.811-.04-.015-.08-.027-.119-.043-.027-.18.03-.354.046-.531.076-.284.14-.575.162-.871v.003z" fill="#E2A632"/><path d="M29.03 8.42c-.614-.513-1.225-1.033-1.891-1.479-.29-.192-.587-.379-.88-.568l.015-.107c.461.11.914-.04 1.372-.046.076 0 .128-.046.153-.119.195.08.339.23.504.351.036.028.088.055.073.113-.018.068-.08.065-.134.07-.245.028-.49.056-.734.086-.131.018-.189.095-.067.183.36.26.663.593 1.057.807.168.248.443.385.624.617-.031.028-.058.058-.089.086l-.003.006z" fill="#F4D042"/><path d="m26.271 6.269-.015.107c-.556-.281-1.11-.568-1.678-.819v-.153c.584.196 1.125.48 1.647.8.021.013.034.044.049.065h-.003z" fill="#EBB839"/><path d="M30.555 10.113c-.254-.27-.505-.544-.706-.856.085-.067.046-.128-.015-.183a.471.471 0 0 1-.144-.239c.049-.134.165-.128.275-.125.235.006.467.003.678-.125.165.125.306.272.41.452.1.177.076.23-.123.25-.155.019-.314.022-.467.05-.226.04-.241.113-.113.299.11.162.302.266.336.477h-.131z" fill="#DE9E30"/><path d="M4.472 16.428c-.015.177-.07.351-.046.531-.116.388-.138.789-.134 1.192-.223.006-.443.058-.67.052-.165-.006-.235-.073-.232-.235.003-.129 0-.26 0-.389a6.52 6.52 0 0 1 .168-1.112c.095-.009.187-.027.281-.024.214.003.422-.107.636-.012l-.003-.003z" fill="#FADC46"/><path d="M3.433 20.555c-.08-.269-.015-.553-.08-.825l.905-.082c-.01.278.034.553.08.825l-.905.082z" fill="#E7B036"/><path d="M4.338 20.473a4.15 4.15 0 0 1-.08-.825c.01-.104.058-.177.162-.208.043 1.03.202 2.044.412 3.052-.04 0-.079 0-.119.003-.131-.333-.18-.684-.253-1.03-.028-.332-.129-.656-.122-.992z" fill="#F4D042"/><path d="M4.292 18.154c0-.403.018-.804.134-1.192.04.016.08.028.12.043l-.129 1.405c-.125-.045-.11-.155-.125-.253v-.003z" fill="#E8B337"/><path d="M4.414 19.318s.003.021 0 .034c0-.013-.003-.022 0-.034z" fill="#F4D042"/><path d="M29.69 8.832a.48.48 0 0 0 .143.239c.059.058.101.116.016.183l-.822-.834.088-.086c.202.156.352.37.572.498h.003z" fill="#EFC13C"/><path d="M6.488 28.355c-.177-.207-.354-.415-.531-.626-.171-.37-.4-.706-.6-1.06-.124-.226-.09-.29.172-.297.214 0 .425-.036.632-.085.165.235.327.47.492.706.23.446.572.816.847 1.231-.324.147-.673.098-1.012.131z" fill="#FADC46"/><path d="m5.172 23.65.375 1.024c-.082.137-.012.275 0 .412-.165-.045-.326-.012-.488.022a.967.967 0 0 1-.468-.01c-.14-.339-.315-.665-.37-1.035.168 0 .34.006.508-.012.317-.034.348-.083.314-.398h.129v-.003z" fill="#E2A632"/><path d="M5.545 25.086c-.01-.137-.08-.275 0-.412.134.128.168.311.238.47.287.648.663 1.244 1.023 1.852h-.155c-.165-.235-.327-.47-.492-.706-.187-.412-.367-.825-.618-1.204h.004z" fill="#D78D29"/><path d="M14.17 32.895c.372.11.742.223 1.114.333-.122.129-.293.104-.44.12-.46.049-.92.122-1.384.128-.052 0-.104.024-.159.037-.336-.095-.669-.193-.95-.413.046-.058.11-.076.18-.082l1.638-.129v.006z" fill="#EBB839"/><path d="M34.401 21.793c-.06.232-.08.476-.168.702-.317-.015-.63.031-.94.083 0-.015-.004-.028-.007-.043l.147-.538c.036-.131.116-.226.253-.235.239-.015.48-.043.715.028v.003z" fill="#E7B036"/><path d="m33.286 22.538.006.043a5.806 5.806 0 0 1-.058.22l-.412 1.378c-.052.104-.101.21-.153.315-.193.394-.318.821-.58 1.179a.873.873 0 0 1-.09-.058c.303-.709.633-1.402.862-2.139.101-.327.199-.657.3-.984l.128.046h-.003z" fill="#D78D29"/><path d="M4.472 16.428c-.214-.095-.425.018-.636.012-.094 0-.186.015-.28.024.036-.278.067-.559.167-.825.303-.033.605-.097.914-.082a4.702 4.702 0 0 1-.162.87h-.003z" fill="#F4D042"/><path d="M4.46 21.466c.07.345.119.7.253 1.03-.03.259.129.488.132.742-.284.07-.575.095-.865.119a7.086 7.086 0 0 1-.397-1.815c.29-.049.58-.089.877-.076z" fill="#D78D29"/><path d="M4.46 21.466a4.217 4.217 0 0 0-.877.076c-.122-.318-.132-.654-.15-.99l.904-.082c-.006.336.095.66.123.993v.003z" fill="#E2A632"/><path d="M3.98 23.357c.29-.024.58-.049.865-.12.116.114.125.282.198.416.034.315 0 .364-.314.398-.169.018-.34.009-.508.012a2.125 2.125 0 0 1-.241-.706z" fill="#DE9E30"/><path d="M10.659 32.196c-.224-.14-.45-.278-.673-.419-.085-.055-.17-.113-.278-.119-.052-.156-.207-.21-.311-.315-.113-.113-.104-.183.049-.232.195-.06.403-.052.608-.067.122-.01.244-.012.363-.049.382.202.712.486 1.106.666.12.147.318.171.455.287-.048.04-.1.077-.165.074-.293-.006-.577.088-.87.091-.104 0-.205.01-.287.083h.003z" fill="#D78D29"/><path d="M8.343 30.384c-.315-.165-.529-.434-.746-.703.388-.006.77-.107 1.161-.085.05.046.101.091.147.14.165.18.4.29.52.514-.361.046-.722.091-1.085.134h.003z" fill="#E7B036"/><path d="M9.427 30.25c-.119-.223-.354-.333-.519-.514-.046-.049-.098-.094-.147-.14-.049-.055-.091-.116-.146-.165-.113-.104-.205-.217-.18-.385.39.354.766.727 1.173 1.06.635.52 1.277 1.036 2 1.433a.201.201 0 0 1-.082.122c-.394-.18-.724-.467-1.106-.666-.323-.257-.638-.525-.993-.745z" fill="#F4D042"/><path d="M29.944 28.77c0-.048 0-.094-.004-.143.388-.5.776-1.005 1.165-1.506.04.012.079.028.119.04-.037.119-.12.21-.184.318-.052.082-.165.152-.094.265.067.107.18.058.28.052.22-.018.444-.104.667-.012-.12.327-.352.578-.584.825-.03-.052-.076-.08-.134-.073-.416.052-.85-.006-1.229.235h-.003z" fill="#E2A632"/><path d="M32.922 26.091c-.018.095-.033.187-.052.281-.1.031-.155.108-.189.2-.095.25-.278.369-.544.39-.238.018-.47.07-.706-.012l.492-.868c.083.05.171.046.26.043.248-.01.495-.021.74-.034z" fill="#EFC43D"/><path d="m31.92 26.082-.492.868c-.067.07-.137.137-.204.208-.04-.013-.08-.028-.12-.04.294-.504.572-1.017.896-1.503.03.018.06.037.088.058-.003.159-.131.266-.168.41zM27.423 31.08c.248-.21.51-.403.782-.58.15.153.336.077.507.067.275-.015.544-.067.822-.06-.107.234-.375.317-.504.53-.397.01-.788.062-1.18.108-.146.018-.299.06-.424-.064h-.003z" fill="#DE9E30"/><path d="M29.534 30.506c-.275-.006-.547.05-.822.061-.17.01-.354.086-.507-.067l1.283-1.155c.272.019.541-.024.81-.058.137-.018.257-.003.351.104-.265.303-.531.602-.794.905l-.32.21z" fill="#D78D29"/><path d="M30.65 29.394c-.095-.11-.218-.122-.352-.104-.269.037-.538.077-.81.058.113-.223.355-.345.456-.577.378-.242.812-.183 1.228-.235.06-.007.104.021.134.073-.192.284-.394.562-.657.788v-.003z" fill="#DE9E30"/><path d="m14.17 32.895-1.638.129c-.07.006-.135.024-.18.082-.358-.125-.725-.241-1-.525a.273.273 0 0 1 .174-.052c.343.015.676-.08 1.015-.086a.25.25 0 0 0 .223-.122c.098 0 .195.01.287-.037l1.082.44.036.172z" fill="#E2A632"/><path d="M12.764 32.321a.263.263 0 0 1-.223.122c-.34.01-.672.101-1.015.086a.299.299 0 0 0-.174.052c-.192-.034-.345-.165-.528-.22l-.165-.165c.082-.073.183-.083.287-.083.293 0 .577-.097.87-.091.062 0 .117-.034.166-.074.26.126.522.248.782.373z" fill="#DB982D"/><path d="M31.92 26.082c.04-.143.165-.25.168-.41.263-.36.388-.784.58-1.178.053-.104.102-.211.154-.315.11.012.216 0 .323-.012.193-.019.391-.077.58.027-.039.177-.079.355-.115.535-.233.305-.303.684-.486 1.014-.067.12-.1.254-.202.355-.247.012-.495.024-.74.033-.088.003-.18.006-.259-.043l-.003-.006z" fill="#FADC46"/><path d="M33.726 24.191c-.19-.104-.385-.046-.58-.027-.11.012-.218.027-.325.012l.413-1.378c.021-.073.04-.147.058-.22.312-.052.623-.098.941-.083-.131.578-.23 1.165-.507 1.696z" fill="#EFC13C"/><path d="M26.149 32.862c-.355-.11-.706-.012-1.057.015-.394.03-.791.067-1.186.104a.342.342 0 0 1-.198-.037c.027-.021.049-.055.08-.06.616-.166 1.194-.474 1.857-.474.47 0 .938-.113 1.411-.083-.265.242-.547.455-.907.541v-.006z" fill="#EFC43D"/><path d="M8.432 29.046c-.025.168.067.28.18.385.055.049.098.11.147.165-.392-.022-.773.082-1.161.085-.19-.18-.38-.363-.572-.544-.015-.051-.033-.103-.049-.158a4.73 4.73 0 0 0 .78-.068c.216-.033.238-.122.097-.284-.107-.122-.229-.238-.29-.394.046 0 .092-.006.134-.006l.734.819z" fill="#EFC13C"/><path d="M7.564 28.233c.06.156.183.272.29.394.14.162.12.25-.098.284-.256.04-.516.074-.779.068a2.36 2.36 0 0 1-.489-.624c.34-.033.688.019 1.012-.131.021 0 .042.003.064.006v.003z" fill="#F4D042"/><path d="M32.678 23.366a9.471 9.471 0 0 1-.993 2.359c-.08-.058-.156-.03-.23.015-.094.058-.188.113-.283.168-1.473.843-2.952 1.674-4.418 2.533-1.442.843-2.887 1.68-4.335 2.508-1.216.697-2.426 1.406-3.64 2.105-.115.068-.195.15-.189.294-.88 0-1.747-.11-2.606-.318a.262.262 0 0 1 .129-.128c.81-.477 1.64-.92 2.444-1.412.736-.452 1.5-.868 2.248-1.301.862-.502 1.717-1.012 2.582-1.51 1.323-.76 2.649-1.512 3.972-2.273.641-.37 1.27-.767 1.918-1.124.59-.327 1.17-.666 1.754-1.002.364-.208.718-.434 1.088-.63.183-.098.327-.287.562-.28l-.003-.004z" fill="#D78D29"/><path d="M21.108 4.818c.65.08 1.292.183 1.912.403-.339.248-.718.43-1.078.642-1.045.608-2.09 1.219-3.132 1.827-.452.262-.907.52-1.356.785-.117.067-.254.122-.272.287-.715.171-1.433.327-2.114.617-1.385.59-2.619 1.387-3.646 2.5-.268.293-.482.635-.797.886-.064-.05-.128-.034-.192 0-.287.158-.584.305-.865.48-1.271.79-2.579 1.524-3.877 2.27-.235.134-.455.31-.73.372.128-.712.33-1.402.63-2.062a.653.653 0 0 0 .268-.101c.513-.293 1.03-.584 1.54-.88 1.647-.956 3.29-1.919 4.94-2.872 1.94-1.121 3.886-2.233 5.83-3.352.864-.498 1.726-.999 2.584-1.503.132-.076.294-.134.352-.3h.003z" fill="#DC9A2E"/><path d="M21.108 4.818c-.061.168-.22.223-.352.3-.858.503-1.723 1.004-2.584 1.502-1.943 1.119-3.89 2.23-5.83 3.352-1.65.953-3.293 1.916-4.94 2.872-.51.296-1.027.59-1.54.88a.653.653 0 0 1-.269.1c.168-.476.346-.95.642-1.365.15-.006.275-.083.4-.156 1.409-.816 2.817-1.635 4.226-2.45 1.368-.792 2.737-1.58 4.103-2.371 1.481-.856 2.96-1.714 4.439-2.573.104-.06.223-.113.26-.25.485.012.974.024 1.445.159z" fill="#D78D29"/><path d="M32.678 23.366c-.235-.006-.376.183-.562.281-.37.193-.724.419-1.088.63-.583.336-1.164.675-1.753 1.002-.651.36-1.278.754-1.92 1.124-1.322.76-2.648 1.512-3.971 2.273-.865.498-1.72 1.008-2.582 1.51-.748.433-1.509.849-2.248 1.301-.804.492-1.635.935-2.445 1.412-.055.033-.103.07-.128.128-.336-.061-.672-.12-.99-.254.08-.15.242-.174.37-.247 1.76-1.02 3.52-2.035 5.276-3.052.107-.061.223-.113.26-.25.107-.028.21-.059.318-.083a10.446 10.446 0 0 0 4.962-2.622c.35-.33.632-.72.98-1.054.19.01.342-.095.495-.183 1.65-.956 3.297-1.919 4.947-2.875.122-.07.238-.165.394-.162-.061.385-.15.764-.318 1.118l.003.003zM18.587 33.345c-.006-.144.076-.227.19-.294 1.212-.702 2.422-1.411 3.638-2.105a472.087 472.087 0 0 0 4.336-2.508c1.463-.859 2.945-1.69 4.418-2.533.094-.055.189-.11.284-.168.076-.046.15-.073.229-.015-.22.485-.489.944-.828 1.356a.84.84 0 0 0-.37.123l-1.176.68c-.794.462-1.58.939-2.383 1.388-1.235.687-2.45 1.405-3.676 2.114-.867.501-1.735 1.005-2.597 1.515-.204.123-.43.214-.583.407-.495.076-.99.04-1.485.037l.003.003z" fill="#DB982D"/><path d="M20.075 33.308c.153-.196.382-.287.584-.406.861-.51 1.729-1.015 2.597-1.516 1.222-.709 2.44-1.427 3.675-2.114.803-.446 1.589-.926 2.383-1.387.391-.226.782-.455 1.176-.681a.828.828 0 0 1 .37-.123c-.422.66-.917 1.262-1.466 1.818-.224-.015-.358.16-.532.245-.804.403-1.561.889-2.347 1.326-.574.32-1.118.693-1.695 1.005-.67.36-1.32.758-1.98 1.136-.122.07-.232.15-.281.288-.639.21-1.305.287-1.968.372-.168.022-.336.058-.51.04l-.006-.003zM32.999 22.248c-.156-.006-.272.089-.394.162-1.65.956-3.297 1.916-4.947 2.875-.152.088-.305.19-.495.183.468-.696.969-1.375 1.311-2.148.315-.018.547-.22.794-.37.706-.424 1.44-.803 2.14-1.24.457-.287.968-.48 1.404-.803.141-.104.29-.184.471-.187-.061.517-.128 1.03-.281 1.528h-.003z" fill="#E2A632"/><path d="M23.671 5.441c.48.113.926.312 1.363.538-.046.03-.089.067-.135.094-.483.272-.95.572-1.445.825-.345.178-.657.422-1.002.596-.507.257-.966.593-1.479.837-.162.077-.348.177-.406.385a20.064 20.064 0 0 0-2.185-.098c.034-.207.217-.275.367-.36.727-.419 1.466-.819 2.188-1.247a71.248 71.248 0 0 1 2.737-1.57h-.003z" fill="#E8B337"/><path d="M10.644 30.674c-.443-.287-.871-.598-1.228-.993.051-.085.137-.128.223-.177.971-.568 1.943-1.136 2.911-1.708.162-.094.321-.183.504-.226.486.23.93.544 1.403.795 0 .116-.05.189-.15.247-.825.47-1.64.95-2.469 1.415-.394.22-.76.498-1.194.647z" fill="#FADC46"/><path d="M17.848 4.692c.327-.07.66-.036.993-.042a.362.362 0 0 1-.18.217c-1.296.751-2.591 1.506-3.89 2.254-1.653.957-3.309 1.91-4.964 2.866-.987.572-1.974 1.146-2.961 1.717-.076.043-.15.11-.244.043.15-.32.342-.614.55-.898.11.055.201-.006.29-.055 1.338-.773 2.68-1.543 4.017-2.32 1.155-.668 2.298-1.356 3.462-2.006.926-.517 1.83-1.067 2.747-1.592.076-.046.159-.086.183-.184h-.003zM5.648 24.32a7.386 7.386 0 0 1-.522-1.534.67.67 0 0 0 .29-.098c.84-.492 1.677-.987 2.524-1.467.256-.146.482-.372.81-.381.09.534.256 1.047.396 1.57-.027.009-.055.015-.076.027-.88.48-1.738 1-2.603 1.507-.26.15-.504.339-.819.375z" fill="#E7B036"/><path d="M26.946 7.045c.413.232.794.51 1.14.834-.015.128-.12.177-.214.232-.953.556-1.928 1.082-2.869 1.662-.205.126-.406.257-.648.303-.449-.223-.898-.45-1.35-.672.012-.116.107-.153.19-.202.387-.235.778-.464 1.176-.684.864-.48 1.717-.981 2.575-1.476v.003z" fill="#FADC46"/><path d="M6.601 11.75c.095.067.172 0 .245-.043.987-.571 1.974-1.145 2.96-1.717 1.653-.956 3.31-1.91 4.965-2.866 1.299-.751 2.591-1.503 3.89-2.254a.355.355 0 0 0 .18-.217c.275 0 .547.006.822.009-.034.137-.153.19-.26.25-1.479.859-2.96 1.718-4.44 2.573-1.368.791-2.737 1.58-4.102 2.37-1.409.817-2.817 1.635-4.226 2.451-.125.07-.247.15-.4.156.061-.269.202-.495.366-.712z" fill="#DE9E30"/><path d="M33.087 16.177c.174.452.132.941.236 1.402-.037.019-.077.034-.11.055-1.15.663-2.298 1.326-3.444 1.99-.119.067-.235.143-.381.143 0-.507 0-1.017.002-1.524.135-.086.263-.175.4-.254.826-.483 1.65-.969 2.479-1.442.26-.147.5-.345.818-.373v.003z" fill="#FADC46"/><path d="M33.28 20.717a.828.828 0 0 0-.47.187c-.438.323-.948.516-1.406.803-.7.437-1.433.813-2.139 1.24-.247.15-.48.355-.794.37.235-.522.403-1.069.58-1.61a.51.51 0 0 0 .275-.067c.957-.556 1.91-1.121 2.875-1.662.388-.217.749-.486 1.164-.66.034.47-.042.935-.085 1.402v-.003z" fill="#EBB839"/><path d="M4.814 21.347c-.116-.434-.143-.877-.165-1.323.083-.061.162-.129.25-.18.609-.349 1.217-.694 1.825-1.04.406-.228.818-.448 1.213-.696.229-.143.461-.269.711-.36-.054.507-.045 1.017-.054 1.524-.037.015-.077.03-.114.049-1.057.556-2.077 1.176-3.11 1.778-.174.101-.339.241-.559.245l.003.003z" fill="#FADC46"/><path d="M8.373 28.664a6.37 6.37 0 0 1-.9-1.082.453.453 0 0 1 .204-.195c.583-.333 1.158-.681 1.747-1 .495-.268.935-.629 1.458-.842.342.311.602.7.935 1.02a.763.763 0 0 1-.242.19c-.956.552-1.912 1.102-2.869 1.65-.125.073-.256.13-.336.262l.003-.003z" fill="#E8B337"/><path d="M20.9 29.223c-.034.138-.153.19-.26.25-1.76 1.018-3.52 2.035-5.276 3.053-.128.073-.29.098-.37.247-.379-.058-.733-.201-1.078-.357.06-.107.165-.165.266-.223l4.344-2.484c.135-.076.254-.165.309-.318.693.003 1.378-.08 2.065-.168z" fill="#E2A632"/><path d="M31.508 11.967c.241.4.495.797.653 1.24a.588.588 0 0 0-.265.101c-.474.278-.957.544-1.421.834-.584.364-1.219.633-1.772 1.045-.199-.424-.397-.852-.596-1.277.177-.153.394-.247.596-.363.623-.36 1.247-.721 1.87-1.079.308-.174.59-.403.938-.501h-.003z" fill="#DC9A2E"/><path d="M4.96 15.89c.276-.061.496-.238.731-.373 1.299-.745 2.606-1.478 3.877-2.27.278-.174.578-.32.865-.48.064-.036.128-.051.192 0l-.898 1.476a.537.537 0 0 0-.312.089c-.907.525-1.814 1.054-2.725 1.58-.641.369-1.286.733-1.93 1.1.005-.383.106-.75.204-1.116l-.003-.006z" fill="#E2A632"/><path d="M20.567 8.713c.058-.208.245-.308.407-.385.513-.244.971-.583 1.478-.837.345-.174.657-.418 1.002-.596.495-.253.963-.553 1.445-.825.05-.027.09-.06.135-.094.339.18.718.287 1.033.522-.18.22-.443.318-.679.452-1.045.608-2.096 1.207-3.144 1.809-.113.064-.229.134-.235.287-.48-.113-.96-.223-1.442-.336v.003z" fill="#EFC13C"/><path d="M29.757 9.483c.3.284.547.608.77.953a.9.9 0 0 1-.232.199c-.67.388-1.342.776-2.008 1.17-.384.226-.788.416-1.154.67-.315-.294-.58-.63-.868-.948.238-.137.476-.269.712-.41.922-.55 1.876-1.05 2.78-1.634z" fill="#E2A632"/><path d="M6.65 26.339a6.214 6.214 0 0 1-.608-1.121.602.602 0 0 0 .266-.101c.822-.47 1.647-.938 2.463-1.418.24-.14.5-.256.693-.47l.614 1.164c-.128.064-.263.119-.388.19-.574.32-1.149.64-1.72.97-.446.257-.883.523-1.326.786h.006z" fill="#D78D29"/><path d="M17.848 4.692c-.025.098-.104.141-.184.184-.916.528-1.824 1.075-2.746 1.592-1.164.65-2.307 1.338-3.462 2.007-1.338.776-2.68 1.546-4.018 2.319-.088.052-.177.11-.29.055.165-.27.345-.526.575-.743.15-.009.275-.088.4-.159a9751.352 9751.352 0 0 0 8.332-4.824c.125-.073.284-.122.317-.3a4.25 4.25 0 0 1 1.076-.13z" fill="#EFC13C"/><path d="M4.756 17.005c.645-.366 1.29-.73 1.931-1.1.91-.522 1.818-1.05 2.725-1.58a.594.594 0 0 1 .312-.088c-.232.406-.345.865-.56 1.277a.555.555 0 0 0-.33.095 15.78 15.78 0 0 1-.613.376c-.905.522-1.806 1.048-2.713 1.558-.272.153-.517.376-.85.403-.018-.32.034-.635.095-.947l.003.006z" fill="#EBB839"/><path d="M18.835 29.391c-.055.153-.175.241-.309.318l-4.345 2.484c-.1.058-.204.116-.265.223a4.065 4.065 0 0 1-.908-.376c.104-.183.3-.235.465-.327 1.231-.712 2.44-1.457 3.696-2.133.117-.064.22-.14.263-.274.47-.004.935.054 1.403.085z" fill="#E7B036"/><path d="M4.661 17.952c.333-.027.575-.25.85-.403.91-.51 1.811-1.036 2.713-1.558.207-.12.412-.248.614-.376a.55.55 0 0 1 .33-.095c-.113.4-.226.8-.342 1.204-.199.01-.367.11-.532.205-.852.498-1.699 1.002-2.554 1.494-.367.21-.712.464-1.115.608-.01-.358-.04-.718.036-1.076v-.003z" fill="#EFC43D"/><path d="M16.77 4.824c-.031.177-.193.226-.318.3-.8.467-1.604.931-2.408 1.396-1.974 1.142-3.947 2.288-5.924 3.428-.125.07-.248.15-.4.158.229-.378.528-.693.85-.993a.487.487 0 0 0 .231-.076c1.079-.62 2.157-1.237 3.236-1.858.507-.29 1.011-.583 1.518-.873.602-.346 1.201-.69 1.803-1.04.08-.045.15-.1.17-.195.401-.15.823-.192 1.238-.25l.003.003z" fill="#F4D042"/><path d="M31.508 11.967c-.348.098-.63.327-.938.501-.626.354-1.25.715-1.87 1.079-.201.116-.415.21-.596.363-.244-.296-.403-.648-.632-.953a.507.507 0 0 0 .257-.07l3.208-1.87c.238.287.433.602.574.95h-.003z" fill="#D78D29"/><path d="M22.009 9.05c.01-.153.122-.224.235-.288 1.048-.602 2.1-1.2 3.144-1.809.235-.137.498-.232.678-.452.306.162.614.318.88.544-.858.492-1.71.996-2.575 1.476-.397.22-.788.449-1.176.684-.083.049-.178.086-.19.202-.333-.12-.666-.235-.996-.355V9.05z" fill="#F4D042"/><path d="M33.368 19.315c-.415.174-.776.443-1.164.66-.965.54-1.918 1.106-2.875 1.662a.462.462 0 0 1-.275.067c.08-.357.16-.715.236-1.07.1 0 .186-.036.272-.085.213-.128.427-.247.641-.372.828-.48 1.653-.96 2.481-1.433.22-.126.422-.29.678-.337-.006.303.077.605.003.908h.003z" fill="#EFC43D"/><path d="M4.628 19.028c.403-.144.748-.397 1.115-.608.855-.49 1.702-.996 2.554-1.494.165-.095.333-.196.532-.205-.123.333-.068.694-.18 1.03-.251.091-.486.217-.712.36-.395.248-.807.465-1.213.697-.608.345-1.216.69-1.824 1.038-.089.052-.168.12-.25.18-.059-.332-.034-.665-.022-.998zM10.644 30.674c.433-.146.8-.427 1.194-.647.828-.462 1.647-.945 2.469-1.415.1-.058.153-.134.15-.247l1.044.418c-.082.159-.25.205-.388.29-.754.474-1.53.905-2.303 1.348-.453.26-.908.507-1.335.806-.297-.155-.584-.323-.831-.55v-.003z" fill="#F4D042"/><path d="M22.553 32.895c.052-.137.162-.217.28-.287.66-.379 1.312-.776 1.98-1.136.578-.312 1.122-.685 1.696-1.006.786-.436 1.543-.922 2.347-1.326.174-.088.308-.262.531-.244-.959 1.085-2.099 1.937-3.354 2.637-1.073.599-2.197 1.078-3.4 1.35-.028.006-.056.006-.083.012h.003z" fill="#E7B036"/><path d="M11.475 31.227c.427-.3.883-.547 1.335-.806.773-.443 1.549-.874 2.303-1.348.138-.085.306-.131.388-.29l.944.303c-.012.107-.085.168-.17.216-.798.468-1.601.93-2.393 1.409-.538.327-1.118.584-1.628.956a3.71 3.71 0 0 1-.78-.443v.003z" fill="#EFC43D"/><path d="M9.467 23.232c-.192.214-.452.33-.693.47-.819.477-1.64.944-2.463 1.418a.603.603 0 0 1-.266.1c-.161-.287-.311-.577-.394-.898.315-.036.56-.226.82-.375.867-.505 1.722-1.027 2.602-1.507.025-.012.052-.018.077-.027.125.266.229.54.32.819h-.003z" fill="#DE9E30"/><path d="M15.532 5.074c-.024.095-.095.15-.171.196-.602.345-1.2.69-1.803 1.039-.507.29-1.01.583-1.518.874L8.804 9.04a.43.43 0 0 1-.232.077c.422-.514.923-.942 1.44-1.35 1.39-1.104 2.926-1.938 4.625-2.457.293-.089.596-.156.892-.236h.003z" fill="#FADC46"/><path d="M33.087 16.177c-.317.028-.559.223-.818.373-.831.473-1.653.96-2.478 1.442-.138.08-.266.168-.4.253-.037-.317-.07-.635-.107-.953.116-.073.229-.15.348-.22.996-.58 1.995-1.16 2.991-1.744a.476.476 0 0 1 .257-.061c.116.293.192.592.21.907l-.003.003z" fill="#F4D042"/><path d="M12.254 31.67c.51-.376 1.087-.632 1.628-.956.791-.48 1.595-.941 2.392-1.409.086-.048.16-.11.171-.216.343.015.654.155.987.216-.04.138-.143.214-.262.276-1.253.672-2.466 1.42-3.697 2.132-.165.095-.36.147-.465.327a3.671 3.671 0 0 1-.754-.37z" fill="#EBB839"/><path d="M13.054 27.573a1.78 1.78 0 0 0-.504.226c-.968.572-1.94 1.14-2.912 1.708-.082.05-.168.092-.223.177-.25-.143-.437-.357-.62-.574.058-.08.144-.125.223-.177.956-.602 1.968-1.112 2.918-1.723.131-.086.272-.16.434-.18.217.195.516.287.684.543zM33.362 18.407c-.26.046-.46.211-.678.337-.83.473-1.656.956-2.48 1.433-.215.125-.431.244-.642.372a.485.485 0 0 1-.272.086c0-.294.052-.58.095-.868.143 0 .262-.076.381-.143 1.15-.663 2.298-1.326 3.444-1.99.036-.02.073-.036.11-.055.018.276.07.547.042.825v.003z" fill="#F4D042"/><path d="M23.671 5.441a73.715 73.715 0 0 0-2.737 1.57c-.721.428-1.46.828-2.188 1.247-.15.085-.333.15-.367.36l-1.2.147c.018-.165.155-.22.272-.287.449-.266.904-.523 1.356-.785 1.045-.608 2.087-1.22 3.132-1.827.36-.211.74-.394 1.078-.642.217.073.45.1.651.217h.003z" fill="#E2A632"/><path d="M4.814 21.347c.22-.003.385-.144.56-.245 1.032-.602 2.052-1.222 3.11-1.778.036-.018.076-.034.112-.049l.046.825a.445.445 0 0 0-.192.07c-.727.419-1.452.84-2.185 1.247-.43.238-.83.544-1.301.706a3.196 3.196 0 0 1-.147-.776h-.003z" fill="#F4D042"/><path d="M28.663 8.377c.232.153.416.358.593.568-.116.132-.272.208-.419.294-.944.562-1.915 1.078-2.847 1.662a.684.684 0 0 1-.303.119 4.857 4.857 0 0 1-.58-.452c.186-.156.403-.26.611-.38l2.725-1.579c.098-.055.187-.116.22-.232z" fill="#EFC43D"/><path d="M28.663 8.377c-.03.116-.122.177-.22.232a782.29 782.29 0 0 0-2.725 1.58c-.208.119-.428.223-.61.379a6.347 6.347 0 0 1-.753-.492c.242-.05.447-.177.648-.303.941-.58 1.913-1.106 2.87-1.662.094-.055.198-.104.213-.232.214.14.415.296.577.498z" fill="#F4D042"/><path d="M10.885 25.541c-.522.214-.962.578-1.457.844-.59.32-1.168.666-1.748.999a.453.453 0 0 0-.205.195c-.174-.204-.345-.41-.455-.66a.549.549 0 0 1 .202-.17c.812-.474 1.619-.95 2.435-1.418.247-.144.48-.324.76-.407.184.184.324.4.471.611l-.003.006z" fill="#E2A632"/><path d="M28.7 15.187c.553-.412 1.192-.681 1.772-1.045.467-.29.947-.556 1.42-.834a.601.601 0 0 1 .266-.1c.086.253.248.473.297.742a.584.584 0 0 0-.33.095c-.516.299-1.036.59-1.55.892-.54.32-1.105.602-1.63.953-.114-.223-.178-.464-.251-.703h.006z" fill="#E7B036"/><path d="M25.688 11.02a.67.67 0 0 0 .302-.12c.932-.583 1.904-1.1 2.848-1.661.146-.089.302-.162.418-.294.208.144.336.358.498.541-.904.584-1.857 1.085-2.78 1.635-.235.14-.474.275-.712.41-.23-.13-.403-.319-.577-.511h.003z" fill="#EBB839"/><path d="M32.877 15.27a.506.506 0 0 0-.257.06c-.996.581-1.995 1.162-2.991 1.745-.12.07-.232.147-.348.22-.074-.22-.101-.449-.138-.678.067-.11.174-.174.281-.235.929-.535 1.858-1.066 2.79-1.598.143-.083.284-.171.458-.171.052.226.195.421.205.66v-.003zM4.96 22.123c.474-.165.872-.468 1.302-.706.734-.406 1.458-.831 2.185-1.247a.488.488 0 0 1 .192-.07c.037.248.07.495.107.742-.324.01-.55.236-.81.382-.846.477-1.683.975-2.523 1.467a.71.71 0 0 1-.29.098c-.098-.211-.15-.431-.165-.66l.003-.006z" fill="#EFC43D"/><path d="M32.672 14.61c-.174 0-.315.088-.459.17l-2.789 1.599c-.107.06-.214.125-.281.235a3.476 3.476 0 0 1-.193-.724c.523-.351 1.088-.636 1.632-.953.513-.303 1.036-.593 1.549-.892a.577.577 0 0 1 .33-.095c.095.21.192.425.214.66h-.003z" fill="#EBB839"/><path d="m30.933 11.017-3.208 1.87a.507.507 0 0 1-.256.07 3.12 3.12 0 0 1-.34-.483c.367-.253.774-.443 1.155-.669.667-.394 1.339-.782 2.008-1.17a.85.85 0 0 0 .232-.199c.174.168.309.36.41.58zM10.415 24.93c-.282.083-.51.263-.761.407-.816.464-1.626.944-2.435 1.418a.521.521 0 0 0-.202.17 2.003 2.003 0 0 1-.367-.583c.443-.263.88-.529 1.326-.785.572-.327 1.146-.651 1.72-.972.126-.07.26-.128.389-.19.122.172.253.34.332.535h-.002z" fill="#DB982D"/><path d="M12.37 27.026a1.09 1.09 0 0 0-.434.18c-.954.612-1.962 1.122-2.918 1.724-.083.052-.165.098-.223.177a1.627 1.627 0 0 1-.422-.446c.08-.128.208-.19.336-.263.96-.547 1.916-1.097 2.87-1.65a.808.808 0 0 0 .24-.19c.217.117.386.291.55.468z" fill="#EFC43D"/><path d="M12.764 32.321c-.26-.125-.523-.247-.782-.373-.138-.116-.333-.143-.456-.287.043-.03.07-.07.083-.122l1.442.745c-.092.046-.19.034-.287.037z" fill="#E8B337"/><path d="M7.564 28.233c-.021 0-.043-.003-.064-.006-.275-.416-.617-.785-.846-1.231h.155l.89 1.228c-.046 0-.092.006-.135.006v.003z" fill="#DE9E30"/><path d="M5.043 23.653c-.073-.134-.082-.302-.198-.415 0-.254-.162-.483-.132-.743.04 0 .08 0 .12-.003.14.38.244.767.339 1.158h-.129v.003z" fill="#E8B337"/><path d="M12.37 27.026c-.168-.174-.333-.351-.55-.467-.333-.32-.593-.709-.935-1.02-.147-.211-.284-.428-.47-.612-.08-.198-.211-.363-.334-.534l-.614-1.164a7.219 7.219 0 0 0-.32-.82c-.141-.522-.31-1.035-.398-1.57-.036-.247-.07-.494-.107-.742l-.046-.825c.01-.51 0-1.017.055-1.524.11-.334.055-.697.18-1.03l.343-1.204c.21-.415.327-.874.559-1.277l.898-1.476c.315-.25.529-.595.798-.886 1.026-1.109 2.26-1.91 3.645-2.499.68-.29 1.399-.449 2.114-.617l1.2-.147c.73-.015 1.458.034 2.185.098.48.113.96.223 1.442.336.333.12.666.235.996.355.45.223.898.449 1.35.672.242.177.486.348.752.492.183.165.376.317.58.452.175.19.349.379.578.51.284.32.553.657.868.947.095.174.217.327.339.483.229.305.39.657.632.953l.596 1.277c.073.239.138.477.25.703.046.247.095.492.193.724.037.23.064.458.138.678.036.318.07.636.107.954 0 .507 0 1.017-.003 1.524-.043.287-.092.575-.095.868-.08.357-.16.715-.235 1.07-.18.54-.346 1.087-.581 1.61-.342.772-.843 1.45-1.31 2.147-.349.33-.63.724-.981 1.054a10.434 10.434 0 0 1-4.962 2.622c-.107.024-.211.055-.318.082-.684.089-1.372.171-2.065.168-.468-.033-.935-.091-1.403-.085-.33-.062-.644-.202-.986-.217l-.944-.303-1.045-.418c-.474-.25-.917-.566-1.403-.795-.168-.26-.467-.351-.684-.544l-.01-.003zm16.782-8.02A10.136 10.136 0 0 0 19.002 8.86c-5.624 0-10.161 4.55-10.161 10.183 0 5.527 4.604 10.1 10.156 10.095 5.597-.007 10.158-4.559 10.152-10.132h.003z" fill="#8D6020"/><path d="M29.152 19.01c.006 5.572-4.558 10.124-10.152 10.13-5.552.007-10.156-4.567-10.156-10.094 0-5.634 4.537-10.183 10.162-10.183a10.136 10.136 0 0 1 10.15 10.146h-.004zm-18.447 4.967c-.034.08.009.131.082.174.08.046.159.113.165.202.015.388.379.535.562.807.08.119.178.274.315.342.269.125.415.357.56.586.112.178.247.309.448.373.358.116.547.47.886.611.006 0 .01.01.012.015.086.169.23.217.41.266.241.067.467.22.663.36.208.15.412.233.648.267.125.018.22.045.284.165.064.119.177.137.305.11.144-.031.29-.04.403.082.101.11.205.153.34.046.049-.04.122-.034.18-.012.21.076.412.162.642.207.238.05.473.11.714.092.205-.015.395.089.593.046a3.878 3.878 0 0 1 1.512-.046c.107.018.19 0 .236-.113.043-.113.143-.144.238-.1.205.09.367.033.535-.086a.688.688 0 0 1 .269-.104c.35-.067.687-.196 1.044-.239.07-.009.141-.015.193-.067.147-.152.354-.198.532-.3.113-.063.192-.198.33-.2.207-.007.336-.13.476-.254.22-.196.407-.447.733-.492a.295.295 0 0 0 .236-.187c.064-.192.195-.324.351-.446.113-.088.208-.198.293-.317.16-.211.474-.27.556-.557.003-.012.037-.015.052-.027.202-.18.443-.327.45-.648 0-.113.06-.201.161-.272.233-.159.407-.394.523-.635.104-.211.241-.437.19-.703-.016-.067.042-.107.097-.143.238-.15.43-.62.364-.896-.046-.192-.019-.357.146-.48a.278.278 0 0 0 .104-.33c-.11-.332.196-.607.116-.931 0-.006.006-.012.01-.018a.176.176 0 0 0 .015-.178c-.061-.137-.025-.262.012-.4.085-.315.186-.62.043-.962-.107-.257-.217-.544-.052-.834.03-.055-.01-.12-.025-.18-.06-.22-.17-.428-.085-.679.036-.107.003-.308-.101-.33-.248-.052-.177-.186-.147-.333.01-.049-.009-.11-.021-.162a2.41 2.41 0 0 0-.394-.834.93.93 0 0 1-.153-.397c-.061-.358-.12-.724-.501-.91-.037-.019-.08-.07-.083-.11-.018-.144-.03-.273-.226-.266-.055 0-.07-.074-.067-.135 0-.04.025-.104-.012-.116-.18-.049-.162-.195-.18-.327a.184.184 0 0 0-.101-.146c-.51-.242-.785-.749-1.213-1.085-.03-.024-.04-.07-.058-.107-.021-.052-.046-.12-.101-.125-.275-.019-.312-.437-.636-.373-.015.003-.055-.043-.064-.073-.067-.187-.22-.239-.39-.248a.372.372 0 0 1-.315-.168c-.037-.052-.086-.098-.147-.11-.34-.064-.556-.345-.85-.486-.213-.104-.449-.247-.666-.232-.223.015-.342-.07-.491-.174a.595.595 0 0 0-.226-.095 8.543 8.543 0 0 0-1.042-.143.738.738 0 0 1-.242-.05c-.339-.146-.72-.124-1.048-.07-.269.046-.504.107-.763.013a.162.162 0 0 0-.101 0c-.294.07-.602.11-.874.229-.272.119-.565-.043-.819.119-.226-.128-.348.034-.461.177-.101.126-.208.171-.358.113-.146-.055-.272-.009-.412.052-.318.135-.483.517-.874.532-.021 0-.046.03-.064.049a.691.691 0 0 1-.324.17c-.183.053-.406.059-.467.31-.007.027-.046.067-.07.067-.227.012-.325.18-.431.342-.065.098-.171.128-.275.17-.196.086-.41.15-.535.346-.14.217-.306.403-.535.532a.477.477 0 0 0-.226.263c-.14.427-.623.647-.678 1.127-.003.034-.052.064-.083.088-.268.205-.384.514-.458.81-.07.287-.256.51-.342.785-.043.138-.174.242-.098.41.028.06-.012.104-.064.134-.043.025-.082.055-.08.11.019.235-.222.419-.13.672.008.022-.034.058-.047.089-.082.21-.207.412-.14.657.009.04.024.1.003.119-.168.174-.01.376-.052.544-.089.348-.034.666.07.996.043.137-.033.305 0 .449.125.568.01 1.17.235 1.723.007.012.01.03.004.04-.074.177.042.3.15.394.097.085.11.165.079.269-.034.122-.022.232.097.308.153.098.205.245.214.422.022.342.132.645.44.843.07.046.129.107.095.217h-.018z" fill="#DE9E30"/><path d="M10.701 23.974c.034-.11-.02-.17-.094-.217-.309-.198-.419-.5-.44-.843-.01-.177-.061-.324-.214-.422-.12-.076-.131-.183-.098-.308.028-.107.016-.184-.08-.27-.106-.094-.222-.216-.149-.393.006-.012 0-.028-.003-.04-.226-.553-.107-1.155-.235-1.723-.03-.144.046-.312 0-.45-.104-.33-.16-.644-.07-.995.042-.168-.117-.37.051-.544.019-.021.007-.08-.003-.12-.067-.244.058-.445.14-.656.013-.03.053-.067.047-.089-.092-.25.146-.437.131-.672-.003-.055.037-.085.08-.11.052-.03.091-.073.064-.134-.077-.168.055-.272.098-.41.085-.275.271-.498.342-.785.073-.296.19-.605.458-.81.034-.024.08-.055.082-.088.056-.48.538-.7.679-1.127a.488.488 0 0 1 .226-.263c.229-.129.397-.312.535-.532.125-.195.339-.26.534-.345.101-.046.208-.076.275-.171.107-.159.202-.33.43-.342.025 0 .065-.04.071-.068.058-.25.281-.256.468-.308a.654.654 0 0 0 .324-.171c.018-.019.042-.05.064-.05.39-.011.553-.396.873-.53.141-.059.266-.108.413-.053.153.058.26.013.357-.113.117-.143.239-.305.462-.177.253-.162.547 0 .819-.12.271-.118.58-.158.873-.228.034-.01.07-.01.101 0 .26.091.498.03.764-.012.327-.055.709-.077 1.048.07a.74.74 0 0 0 .241.049c.352.021.697.076 1.042.143.08.016.162.05.226.095.15.104.27.192.492.174.217-.015.452.132.666.232.293.14.507.422.85.486.06.012.11.055.146.11.077.11.177.159.315.168.171.01.327.061.39.248.01.03.05.076.065.073.324-.064.36.354.636.373.051.003.076.073.1.125.016.037.028.085.059.107.427.336.702.843 1.212 1.085a.19.19 0 0 1 .101.146c.018.132 0 .278.18.327.037.01.016.077.013.116-.003.058.012.135.067.135.195-.007.21.125.226.265.006.04.046.092.082.11.382.187.44.553.502.91a.97.97 0 0 0 .152.398c.18.257.321.529.394.834.013.052.031.11.022.162-.03.147-.101.281.146.333.107.021.138.223.101.33-.082.25.025.458.086.678.015.061.055.122.024.18-.165.29-.055.578.052.835.144.342.043.647-.043.962-.036.138-.073.263-.012.4a.176.176 0 0 1-.015.178c-.003.006-.012.012-.01.018.08.324-.225.599-.115.932.04.122.015.244-.104.33-.165.122-.193.287-.147.48.067.274-.125.745-.363.894-.055.037-.113.074-.098.144.055.266-.086.492-.19.703-.119.241-.29.473-.522.635-.1.07-.162.156-.162.272-.006.321-.248.47-.45.648-.014.012-.048.015-.051.027-.082.29-.397.346-.556.557-.089.116-.18.229-.293.317-.153.122-.288.25-.352.446a.291.291 0 0 1-.235.187c-.327.046-.513.296-.733.492-.14.125-.27.247-.477.253-.137.003-.217.138-.33.202-.177.1-.382.15-.532.3-.048.051-.122.057-.192.066-.357.043-.694.172-1.045.239a.704.704 0 0 0-.269.104c-.168.119-.33.18-.534.085-.092-.043-.193-.012-.239.101-.043.113-.128.131-.235.113a3.822 3.822 0 0 0-1.512.046c-.199.046-.391-.061-.593-.046-.241.018-.477-.046-.715-.092-.23-.045-.43-.131-.642-.207-.058-.022-.13-.025-.18.012-.134.107-.238.061-.339-.046-.113-.122-.26-.113-.403-.082-.126.027-.242.012-.306-.11-.064-.12-.159-.15-.284-.165a1.39 1.39 0 0 1-.648-.266c-.195-.14-.421-.294-.663-.36-.177-.05-.323-.098-.409-.267 0-.006-.01-.012-.012-.015-.34-.14-.529-.498-.886-.61-.199-.065-.336-.196-.45-.374-.143-.229-.293-.461-.559-.586-.14-.064-.235-.22-.314-.342-.18-.272-.547-.416-.562-.807-.003-.089-.086-.156-.165-.202-.074-.042-.116-.097-.083-.174h.018zm8.127 2.069c1.238-.003 1.644-.08 2.704-.477.083-.03.171-.061.257-.073a1.12 1.12 0 0 0 .504-.22c.086-.058.18-.098.269-.147.263-.147.553-.275.76-.486.251-.253.545-.464.762-.754.326-.437.79-.752 1.047-1.26.233-.457.477-.928.587-1.41.116-.517.318-1.021.312-1.58-.006-.535.058-1.07-.03-1.601-.096-.569-.193-1.137-.422-1.675-.095-.223-.285-.378-.346-.626a1.886 1.886 0 0 0-.556-.947c-.317-.293-.55-.66-.867-.95-.425-.388-.786-.87-1.406-.987-.052-.01-.098-.049-.146-.073-.233-.129-.453-.309-.703-.38-.336-.094-.672-.2-1.011-.283-.783-.187-1.568-.306-2.362-.068-.028.01-.058.019-.08.013-.36-.126-.696.064-1.017.134-.767.168-1.427.617-2.108 1-.37.207-.617.564-.944.827-.37.296-.639.69-.932 1.06-.26.327-.385.73-.575 1.094-.146.284-.302.602-.342.941-.036.284-.094.565-.14.843-.064.395-.05.78-.064 1.17-.013.276-.061.557-.013.822.065.36.16.722.254 1.079.192.727.623 1.341.972 1.992.189.351.495.593.779.865.4.384.782.776 1.255 1.087.541.36 1.161.523 1.73.807.122.06.256.107.39.125.523.073 1.046.186 1.486.134l-.004.004z" fill="#E2A632"/><path d="M18.829 26.046c-.44.052-.96-.064-1.485-.135a1.272 1.272 0 0 1-.391-.125c-.569-.284-1.189-.446-1.73-.807-.47-.311-.852-.702-1.255-1.087-.284-.272-.59-.514-.78-.865-.35-.65-.779-1.268-.971-1.992a14.948 14.948 0 0 1-.254-1.079c-.048-.262 0-.546.013-.821.015-.388 0-.776.064-1.17.046-.282.107-.563.14-.844.043-.339.196-.654.343-.94.189-.364.311-.768.574-1.095.293-.37.562-.763.932-1.06.327-.262.574-.623.944-.828.681-.382 1.341-.83 2.108-.999.324-.07.66-.256 1.017-.134.025.009.055-.003.08-.012.794-.239 1.576-.12 2.361.067.343.082.676.19 1.012.284.25.07.47.247.703.379.048.027.094.064.146.073.617.116.978.599 1.406.987.317.29.55.657.867.95.275.25.468.584.556.947.061.248.25.404.346.627.232.537.326 1.106.421 1.674.089.532.025 1.07.03 1.6.007.56-.195 1.061-.31 1.58-.108.483-.355.954-.588 1.412-.26.51-.72.822-1.047 1.259-.217.29-.51.498-.761.754-.205.208-.498.336-.761.486-.089.049-.183.089-.269.147a1.134 1.134 0 0 1-.504.22 1.237 1.237 0 0 0-.257.073c-1.06.397-1.466.474-2.703.477l.003-.003zm.333-3.163c2.126-.064 3.724-1.723 3.74-3.892.014-2.17-1.733-3.89-3.936-3.883-2.175.006-3.895 1.851-3.856 3.877.043 2.163 1.644 3.969 4.052 3.895v.003z" fill="#E8B337"/><path d="M19.165 22.884c-2.405.07-4.009-1.733-4.052-3.896-.04-2.026 1.68-3.871 3.856-3.877 2.203-.006 3.953 1.71 3.935 3.883-.015 2.166-1.613 3.828-3.74 3.893v-.003zm-1.403-3.844c-.003.587.639 1.262 1.195 1.268.788.01 1.32-.791 1.32-1.265 0-.584-.62-1.31-1.13-1.286-.884.04-1.327.44-1.385 1.283z" fill="#EFC13C"/><path d="M17.762 19.04c.061-.843.501-1.244 1.384-1.283.51-.025 1.134.702 1.13 1.286 0 .474-.534 1.274-1.32 1.265-.558-.006-1.197-.681-1.194-1.268z" fill="#F4D042"/><path d="M18.84 35.74c9.367 0 16.96-7.481 16.96-16.71 0-9.227-7.593-16.708-16.96-16.708-9.365 0-16.957 7.48-16.957 16.709 0 9.228 7.592 16.709 16.958 16.709z" stroke="#fff" stroke-width="3" stroke-miterlimit="10"/><path d="M19.119 21.672H26.41l.046.002a7.912 7.912 0 0 0 .471-.915l.067-.155a5.71 5.71 0 0 0 .223-.576c.04-.112.077-.218.104-.326V19.7a.908.908 0 0 1 .043-.116.264.264 0 0 0 .018-.058.22.22 0 0 1 .021-.12.345.345 0 0 1 .019-.033v-.005a.184.184 0 0 1 .009-.043.21.21 0 0 1 .036-.099v-.005c.001-.027.006-.068.034-.11m-8.382 2.561 8.89-4.293-.122-.03c-.021.087-.035.174-.048.255a2.734 2.734 0 0 1-.06.293 2.049 2.049 0 0 0-.06.306v.004a.775.775 0 0 1-.038.166c-.01.034-.02.072-.028.108l-.025.11-.024.109v.002a3.983 3.983 0 0 1-.028.117c-.01.04-.02.083-.028.124v.002l-.006.028a.375.375 0 0 1-.042.138m-8.381 2.561V14.767v6.905zm8.381-2.56.001-.002.104.07-.105-.068zm-.027.256.083-.016-.01.056-.073-.04zm0 0-.036-.02a.262.262 0 0 1-.006.01l.002.017.04-.007zm-4.701-2.683h-.002l.026-.123-.022.123h-.002zm0 0c.07.015.14.034.211.055m-.211-.055.211.055m0 0a.506.506 0 0 0 .173.026c.282.066.568.052.831.04l-1.004-.066zm3.805-.747-.05.114a1.854 1.854 0 0 1-.494-.354 4.179 4.179 0 0 1-.63.52h-.001a2.534 2.534 0 0 1-.315.171l-.053.025a3.621 3.621 0 0 1-.387.163h-.002c-.126.04-.254.077-.387.105h-.002l-.074.014c-.115.023-.243.048-.37.053l3.96-.587-.031.002c-.176.01-.354.019-.533-.018m-.631-.209.083.041c.057.03.114.058.177.073l.155.04c.071.02.143.04.216.055m-.631-.209-.05.115c.025.011.047.023.072.035l.05.026a.77.77 0 0 0 .159.06c.05.012.099.025.15.04l.031.008c.062.016.127.034.194.047l.026-.122m-.632-.209c-.177-.078-.321-.204-.462-.333a.218.218 0 0 1-.038.05l1.131.492m.598.144v.004l.125-.008h-.125v.004zm0-.005.017-.001a1.358 1.358 0 0 0 .04-.003h.006-.002a.082.082 0 0 1-.033-.014.093.093 0 0 1-.03-.034l-.003-.01.002.024.003.038z" fill="#590404" stroke="#000" stroke-width=".25"/><mask id="a" fill="#fff"><path d="M18.993 21.781h7.417c.036 0 .072.004.11.007-.012.094-.01.192-.01.286v1.54c0 .12 0 .241-.058.352a.68.68 0 0 1-.306.306.949.949 0 0 1-.436.081c-.977 0-1.954-.006-2.93 0-.241 0-.479.003-.72.013-.032-.029-.075-.016-.114-.016-.921 0-1.843.006-2.764 0-1.156-.01-2.311 0-3.467-.007h-3.162c-.035 0-.071.004-.11.007-.095-.016-.192-.003-.287-.01-.052 0-.107 0-.153-.036h6.854c.088 0 .133-.045.133-.136v-2.39l.003.003z"/></mask><path d="M18.993 21.781h7.417c.036 0 .072.004.11.007-.012.094-.01.192-.01.286v1.54c0 .12 0 .241-.058.352a.68.68 0 0 1-.306.306.949.949 0 0 1-.436.081c-.977 0-1.954-.006-2.93 0-.241 0-.479.003-.72.013-.032-.029-.075-.016-.114-.016-.921 0-1.843.006-2.764 0-1.156-.01-2.311 0-3.467-.007h-3.162c-.035 0-.071.004-.11.007-.095-.016-.192-.003-.287-.01-.052 0-.107 0-.153-.036h6.854c.088 0 .133-.045.133-.136v-2.39l.003.003z" fill="#590404"/><path d="m18.993 21.781-.176.177.073.073h.103v-.25zm7.527.007.248.034.036-.261-.263-.022-.02.249zm-.068 2.178-.22-.117-.002.003.222.114zm-3.672.387v.25h.001l-.001-.25zm-.72.013-.167.186.076.068.101-.004-.01-.25zm-2.878-.016-.002.25.002-.25zm-3.467-.007.001-.25h-.001v.25zm-3.272.007-.043.246.032.006.031-.003-.02-.249zm-.287-.01.017-.25h-.017v.25zm-.153-.036v-.25h-.723l.569.447.154-.197zm6.987-2.526.177-.177-.427-.427v.604h.25zm.003.253H26.41v-.5H18.993v.5zm7.417 0c.023 0 .047.002.09.006l.041-.498c-.035-.003-.083-.008-.131-.008v.5zm-.137-.277c-.016.116-.012.238-.012.32h.5c0-.107-.003-.18.007-.252l-.495-.068zm-.012.32V23.614h.5V22.074h-.5zm0 1.54c0 .13-.005.188-.03.235l.442.234c.092-.174.088-.359.088-.469h-.5zm-.031.238a.43.43 0 0 1-.196.196l.224.448a.929.929 0 0 0 .417-.416l-.445-.228zm-.196.196a.709.709 0 0 1-.324.055v.5c.164 0 .358-.013.548-.108l-.224-.447zm-.324.055c-.975 0-1.954-.006-2.932 0l.003.5c.976-.006 1.95 0 2.929 0v-.5zm-2.93 0c-.243 0-.485.003-.73.013l.02.5c.237-.01.471-.013.71-.013v-.5zm-.553.077a.328.328 0 0 0-.216-.083l-.054.002-.01.001v.5l.048-.002H22a.18.18 0 0 1-.107-.045l.334-.373zm-.28-.08c-.925 0-1.843.006-2.763 0l-.004.5c.923.006 1.847 0 2.766 0v-.5zm-2.763 0c-1.151-.01-2.322 0-3.468-.007l-.003.5c1.166.007 2.307-.003 3.467.007l.004-.5zm-3.47-.007H12.554v.5H15.715v-.5zm-3.16 0c-.05 0-.097.005-.132.008l.041.498c.043-.003.067-.006.09-.006v-.5zm-.069.01a1.035 1.035 0 0 0-.188-.012c-.056 0-.09.002-.124 0l-.034.499c.06.004.123.002.163.001.045 0 .075.001.098.005l.085-.492zm-.329-.013H12.12s.006 0 .013.003a.102.102 0 0 1 .025.015l-.31.393c.125.097.27.09.308.09v-.5zm-.153.464H12.114v-.5H12.003v.5zm.11 0H18.858v-.5H12.114v.5zm6.744 0a.382.382 0 0 0 .279-.11.389.389 0 0 0 .104-.276h-.5c0 .008-.002-.032.038-.072.04-.042.083-.042.079-.042v.5zm.383-.386V21.778h-.5V24.168h.5zm-.427-2.213.004.003.353-.354-.003-.003-.354.354z" fill="#000" mask="url(#a)"/><path d="M28.117 16.08a.337.337 0 0 1 .152-.07m-.152.07.432-.178a2.695 2.695 0 0 0-.15.064.746.746 0 0 1-.13.044m-.152.07a.25.25 0 0 0-.052-.003l-.059.003h.111zm.152-.07h.001l.026.122-.027-.122zm1.485-1.548-.123-.02a1.78 1.78 0 0 0 0-.554c-.007-.041-.016-.082-.027-.128l-.005-.019c-.01-.04-.02-.085-.026-.133a.178.178 0 0 1-.041-.115.185.185 0 0 1-.032-.051.214.214 0 0 1-.014-.07 2.395 2.395 0 0 1-.018-.037l-.007-.015a.887.887 0 0 0-.035-.066l-.002-.004a1.934 1.934 0 0 0-.744-.763 1.735 1.735 0 0 0-.557-.21 2.1 2.1 0 0 0-.784 0h-.003a1.675 1.675 0 0 0-.13.029l-.068.016a.276.276 0 0 1-.026.02.183.183 0 0 1-.105.03.194.194 0 0 1-.115.048c-.145.078-.28.165-.404.269a1.849 1.849 0 0 0-.519.701c-.079.19-.138.37-.153.556V14.395c.01.15.058.293.114.454v.001a1.238 1.238 0 0 0 .072.166c.016.034.034.07.05.107a.31.31 0 0 1 .098.155l.071.085.088.104.074.068c.15.138.281.26.452.334.032.014.065.031.094.046l.04.02c.04.019.074.033.107.041h.001c.035.01.069.02.102.028.09.024.174.047.263.066.162.033.325.024.505.015l.026-.001 1.72-1.334.024-.109c.014-.058.027-.117.037-.178zm0 0c.033-.198.03-.394 0-.592v.592zm-.297.547v.001l.112.055-.112-.057v.001zm-2.411 1.088z" fill="#590404" stroke="#000" stroke-width=".25"/><mask id="b" fill="#fff"><path d="M27.508 19.504c-.01-.045.019-.077.038-.113.016.049.013.087-.038.113z"/></mask><path d="M27.508 19.504c-.01-.045.019-.077.038-.113.016.049.013.087-.038.113z" fill="#772A0C"/><path d="m27.508 19.504-.245.052.068.316.288-.145-.111-.223zm.038-.113.237-.079-.181-.544-.276.504.22.12zm.206.06a.167.167 0 0 1-.01.099c-.001.004-.002.005.002-.003a1.209 1.209 0 0 0 .021-.036l-.439-.24v.002l-.002.003-.007.012a.514.514 0 0 0-.028.05.34.34 0 0 0-.026.218l.489-.105zm-.443.02c.002.007-.012-.03.002-.082a.188.188 0 0 1 .042-.075.154.154 0 0 1 .043-.034l.223.447a.326.326 0 0 0 .164-.415l-.474.159z" fill="#000" mask="url(#b)"/><mask id="c" fill="#fff"><path d="M27.556 19.338c-.006-.035.016-.058.035-.08 0 .032.013.067-.035.08z"/></mask><path d="M27.556 19.338c-.006-.035.016-.058.035-.08 0 .032.013.067-.035.08z" fill="#772A0C"/><path d="m27.556 19.338-.246.045.049.267.262-.07-.065-.242zm.035-.08h.25v-.676l-.44.513.19.163zm.211.036a.186.186 0 0 1-.029.136l.008-.01-.38-.325-.018.023a.315.315 0 0 0-.072.265l.491-.09zm-.46-.036v.028l.001.01c0 .005-.001-.013.003-.038a.214.214 0 0 1 .058-.11.197.197 0 0 1 .088-.051l.129.483a.288.288 0 0 0 .217-.227c.007-.04.005-.073.004-.085v-.01h-.5z" fill="#000" mask="url(#c)"/><mask id="d" fill="#fff"><path d="M18.99 14.625v7.153H11.64c-.052 0-.101 0-.153.003-.072-.032-.085-.107-.117-.163a8.516 8.516 0 0 1-.378-.726c-.091-.192-.189-.384-.247-.589-.059-.198-.137-.39-.192-.59l-.206-.709c-.074-.26-.133-.524-.192-.785a2.986 2.986 0 0 1-.055-.296c-.013-.104-.046-.205-.068-.31-.02-.094-.026-.188-.046-.282-.023-.114-.039-.232-.059-.349-.022-.153-.032-.306-.068-.456-.02-.074-.01-.156-.016-.237.016-.127.016-.127.14-.091.03.01.062.01.091.01.25.003.498.003.742-.075.205-.066.394-.153.577-.264.136-.085.24-.202.358-.303.25.293.556.524.889.716.172.098.354.18.55.235.036.01.068.035.107.035 0 .017.007.033.02.033.09.01.172.062.267.046.153 0 .302.052.459.052.205 0 .413.013.615-.017.176-.022.355-.035.518-.11.022-.01.048-.007.075-.01.006 0 .016.003.026 0 .13-.03.247-.091.37-.137.007 0 .007-.02.01-.03 0 0 .004-.002.007-.006.042.013.068-.022.095-.039.071-.042.156-.058.211-.127h.016a.323.323 0 0 0 .134-.084c.137-.078.257-.183.374-.29.144-.137.29-.27.414-.427.097-.123.182-.257.267-.394.097-.162.169-.338.247-.51.01-.02.01-.043.017-.066.052-.006.042-.042.035-.075l.01-.058c.049-.02.036-.062.033-.098 0-.026.003-.049.006-.075.065-.084.114-.03.156.023.026.036.069.036.098.062.163.15.368.231.57.306.205.075.423.11.644.094v.01z"/></mask><path d="M18.99 14.625v7.153H11.64c-.052 0-.101 0-.153.003-.072-.032-.085-.107-.117-.163a8.516 8.516 0 0 1-.378-.726c-.091-.192-.189-.384-.247-.589-.059-.198-.137-.39-.192-.59l-.206-.709c-.074-.26-.133-.524-.192-.785a2.986 2.986 0 0 1-.055-.296c-.013-.104-.046-.205-.068-.31-.02-.094-.026-.188-.046-.282-.023-.114-.039-.232-.059-.349-.022-.153-.032-.306-.068-.456-.02-.074-.01-.156-.016-.237.016-.127.016-.127.14-.091.03.01.062.01.091.01.25.003.498.003.742-.075.205-.066.394-.153.577-.264.136-.085.24-.202.358-.303.25.293.556.524.889.716.172.098.354.18.55.235.036.01.068.035.107.035 0 .017.007.033.02.033.09.01.172.062.267.046.153 0 .302.052.459.052.205 0 .413.013.615-.017.176-.022.355-.035.518-.11.022-.01.048-.007.075-.01.006 0 .016.003.026 0 .13-.03.247-.091.37-.137.007 0 .007-.02.01-.03 0 0 .004-.002.007-.006.042.013.068-.022.095-.039.071-.042.156-.058.211-.127h.016a.323.323 0 0 0 .134-.084c.137-.078.257-.183.374-.29.144-.137.29-.27.414-.427.097-.123.182-.257.267-.394.097-.162.169-.338.247-.51.01-.02.01-.043.017-.066.052-.006.042-.042.035-.075l.01-.058c.049-.02.036-.062.033-.098 0-.026.003-.049.006-.075.065-.084.114-.03.156.023.026.036.069.036.098.062.163.15.368.231.57.306.205.075.423.11.644.094v.01z" fill="#590404"/><path d="M18.99 21.778v.25h.25v-.25h-.25zm-7.504.003-.104.228.057.026.063-.004-.016-.25zm-.117-.163.215-.126v-.002l-.215.128zm-.378-.726.226-.107-.226.107zm-.247-.589.24-.069v-.002l-.24.071zm-.192-.59.24-.066v-.002l-.24.069zm-.206-.709-.24.07.24-.07zm-.192-.785.244-.055v-.001l-.244.056zm-.055-.296-.248.031v.001l.248-.032zm-.068-.31-.245.052v.002l.245-.053zm-.046-.282-.245.049v.001l.245-.05zm-.059-.349-.247.037v.004l.247-.04zm-.068-.456.243-.058-.001-.005-.242.063zm-.016-.237-.248-.032-.003.026.002.026.249-.02zm.14-.091.079-.238-.01-.003-.07.24zm.091.01.003-.25h-.003v.25zm.742-.075-.075-.239.075.239zm.577-.264.13.213h.001l-.131-.213zm.358-.303.19-.163-.163-.19-.19.164.163.189zm.889.716-.126.217h.002l.123-.217zm.55.235-.069.24h.003l.066-.24zm.107.035h.25v-.25h-.25v.25zm.02.033.026-.248-.013-.002h-.013v.25zm.267.046v-.25h-.022l-.02.003.042.247zm1.074.035-.032-.247h-.004l.036.247zm.518-.11-.099-.23-.006.003.105.227zm.075-.01v-.25h-.016l-.015.002.03.248zm.026 0-.055-.244-.012.003-.012.004.079.237zm.37-.137v-.25h-.044l-.042.016.087.234zm.01-.03-.176-.176-.042.042-.019.056.238.079zm.007-.006.074-.239-.144-.044-.107.107.177.176zm.095-.039-.128-.215-.005.003.133.212zm.211-.127v-.25h-.12l-.074.093.194.157zm.016 0v.25h.038l.037-.011-.075-.239zm.134-.084-.124-.217-.03.016-.023.024.177.177zm.374-.29.17.184.003-.003-.173-.181zm.414-.427.196.156-.196-.155zm.267-.394.212.132.002-.003-.214-.129zm.247-.51-.224-.113-.004.01.228.102zm.017-.066-.032-.248-.163.02-.046.16.24.068zm.035-.075-.246-.04-.008.045.01.044.244-.049zm.01-.058-.093-.232-.13.052-.024.139.247.04zm.033-.098h-.25v.023l.25-.023zm.006-.075-.198-.152-.042.054-.008.067.248.031zm.156.023.203-.147-.009-.01-.194.157zm.098.062.17-.184-.004-.003-.166.187zm.57.306-.087.234h.001l.086-.234zm.644.094h.25v-.269l-.268.02.018.25zm-.25.01V14.81h.5V14.625h-.5zm0 .186V21.778h.5V14.811h-.5zm.25 6.717H18.853v.5H18.99v-.5zm-.136 0H11.639v.5H18.854v-.5zm-7.215 0c-.051 0-.108 0-.169.004l.031.499c.044-.003.085-.003.138-.003v-.5zm-.05.026a.112.112 0 0 1 .034.024c.008.008.01.013.009.01a.663.663 0 0 0-.048-.096l-.43.253.002.005.007.016.03.063c.03.055.086.133.19.18l.206-.455zm-.006-.064a8.296 8.296 0 0 1-.366-.705l-.452.214c.118.25.243.503.39.748l.428-.257zm-.366-.705c-.096-.202-.181-.37-.233-.55l-.48.137c.065.23.175.445.261.628l.452-.215zm-.234-.553c-.03-.106-.067-.21-.1-.305a4.801 4.801 0 0 1-.09-.28l-.482.134c.03.108.065.212.1.31.034.099.066.19.093.283l.48-.142zm-.191-.587a217.756 217.756 0 0 0-.205-.71l-.48.138c.033.12.068.238.102.355l.102.355.48-.138zm-.205-.71c-.073-.252-.13-.508-.189-.77l-.488.11c.059.258.119.53.196.798l.48-.138zm-.19-.772a2.736 2.736 0 0 1-.05-.272l-.496.064c.015.112.036.219.06.321l.487-.113zm-.05-.27c-.014-.118-.057-.262-.072-.333l-.489.107c.03.138.053.196.065.287l.496-.062zm-.072-.33a1.985 1.985 0 0 1-.02-.125c-.006-.046-.013-.101-.025-.158l-.49.101c.008.038.013.077.02.125.007.046.014.102.026.159l.49-.102zm-.045-.281c-.022-.11-.036-.214-.057-.34l-.493.081c.018.108.036.238.06.357l.49-.098zm-.056-.337c-.019-.123-.034-.314-.073-.477l-.486.117c.033.137.037.252.064.434l.495-.074zm-.074-.482a.27.27 0 0 1-.005-.058c0-.026 0-.086-.004-.136l-.498.04c.002.03.001.053.002.106.001.044.004.108.021.175l.484-.127zm-.01-.142a1.39 1.39 0 0 1 .005-.037l.001-.009a.216.216 0 0 1-.229.15l.01.002.035.01.14-.48c-.026-.007-.065-.019-.1-.025a.3.3 0 0 0-.217.04.3.3 0 0 0-.125.185c-.008.034-.013.075-.016.1l.496.064zm-.187.114c.074.025.149.022.17.022v-.5h-.026.002l.012.003-.158.475zm.167.022c.247.004.533.006.822-.086l-.153-.477c-.2.065-.409.067-.663.063l-.006.5zm.82-.086c.226-.072.433-.168.631-.288l-.26-.428c-.166.101-.337.18-.521.24l.15.476zm.633-.29a1.52 1.52 0 0 0 .223-.172c.07-.064.11-.104.167-.154l-.327-.378c-.06.051-.13.12-.176.161-.054.05-.1.088-.15.118l.263.425zm.037-.352c.274.32.604.568.953.77l.25-.433a3.128 3.128 0 0 1-.823-.662l-.38.325zm.955.77c.187.106.387.196.606.258l.136-.48a2.25 2.25 0 0 1-.495-.212l-.247.435zm.608.259-.008-.003.008.004.017.008c.024.01.082.035.156.035v-.5a.15.15 0 0 1 .04.006l.006.002-.01-.005-.017-.008a.448.448 0 0 0-.06-.021l-.132.482zm-.077-.206c0 .037.007.088.034.14.03.055.105.143.236.143v-.5c.118 0 .183.08.206.122.02.04.024.075.024.095h-.5zm.243.282c.018.002.025.006.091.024.053.015.141.037.245.019l-.085-.493c.01-.001.01.003-.025-.007l-.028-.008a.672.672 0 0 0-.144-.032l-.054.497zm.294.047c.051 0 .106.008.186.022.073.013.17.03.273.03v-.5c-.054 0-.11-.01-.189-.023-.072-.012-.169-.03-.27-.03v.5zm.459.052c.183 0 .425.014.651-.02l-.072-.494c-.178.026-.353.014-.58.014v.5zm.647-.019c.154-.02.383-.036.59-.131l-.209-.454c-.119.054-.248.064-.445.09l.064.495zm.584-.129a.168.168 0 0 1-.035.011l-.011.002H15.236a.46.46 0 0 0 .045-.003l-.062-.497c.003 0 .004 0 0 0h-.024a.357.357 0 0 0-.119.028l.197.46zm-.023.011h-.02l-.005-.001h-.002l.016.001a.284.284 0 0 0 .116-.013l-.158-.474a.216.216 0 0 1 .087-.01h.003a.2.2 0 0 0-.037-.003v.5zm.08-.006a1.44 1.44 0 0 0 .228-.075c.072-.029.118-.05.175-.071l-.173-.47c-.066.025-.14.058-.19.078a.955.955 0 0 1-.15.05l.11.488zm.317-.13c.152 0 .217-.121.228-.145.016-.032.022-.062.023-.068l.003-.015v.001l-.001.005-.006.021-.475-.158c-.007.022-.01.041-.01.045l-.001.003a.23.23 0 0 1 .076-.129.247.247 0 0 1 .163-.06v.5zm.01-.28.176.177c.005-.005-.003.004 0 0l.002-.002.005-.005-.354-.353-.004.004-.002.002.177.177zm-.068.232a.308.308 0 0 0 .26-.035.442.442 0 0 0 .045-.033c.011-.009.005-.003-.004.002l-.265-.424c-.022.014-.041.03-.044.032-.008.007-.004.003.003-.001a.192.192 0 0 1 .152-.018l-.146.477zm.296-.062c.026-.016.026-.012.093-.044a.523.523 0 0 0 .185-.141l-.388-.315c.006-.008.01-.006-.014.006l-.051.022a.82.82 0 0 0-.08.041l.255.43zm.084-.093H15.986v-.5H15.97v.5zm.091-.011a.572.572 0 0 0 .236-.147l-.354-.353a.136.136 0 0 1-.021.018.041.041 0 0 1-.01.005l.149.477zm.183-.106c.163-.093.3-.214.42-.323l-.339-.368a1.898 1.898 0 0 1-.33.257l.249.434zm.423-.326c.137-.13.3-.279.437-.452l-.392-.31c-.11.138-.24.257-.39.4l.345.362zm.437-.453c.107-.136.199-.28.283-.417l-.425-.263c-.084.137-.162.26-.25.37l.392.31zm.285-.42c.107-.179.188-.376.26-.537l-.455-.206c-.083.185-.146.34-.234.486l.43.257zm.257-.528c.021-.043.029-.082.031-.097l.002-.011.001-.005-.001.005-.48-.137a.436.436 0 0 0-.01.039l-.002.011-.001.007.001-.007a.162.162 0 0 1 .012-.028l.447.223zm-.177.071a.307.307 0 0 0 .149-.058.28.28 0 0 0 .104-.16.314.314 0 0 0-.003-.154l-.49.098c.003.015.002.01.002.007 0-.004-.004-.03.004-.066a.22.22 0 0 1 .08-.124.194.194 0 0 1 .092-.039l.063.496zm.252-.281.005-.03.005-.03-.494-.081-.004.029-.005.03.493.082zm-.144.132a.3.3 0 0 0 .19-.24.358.358 0 0 0 0-.107l-.001-.006-.498.046.002.021v.008c.001.003 0-.011.002-.031a.2.2 0 0 1 .12-.155l.185.464zm.19-.33v-.012l.004-.032-.496-.062c-.003.02-.008.06-.008.106h.5zm-.046.078-.012.012a.17.17 0 0 1-.045.027.197.197 0 0 1-.18-.017.087.087 0 0 1-.012-.01s.003.002.013.016l.388-.316a.655.655 0 0 0-.053-.059.358.358 0 0 0-.121-.08.304.304 0 0 0-.225.003.365.365 0 0 0-.15.119l.397.305zm-.244.017a.356.356 0 0 0 .149.116l.009.004a.463.463 0 0 1 .005.002l.002.001a.142.142 0 0 1-.031-.021l.332-.374a.358.358 0 0 0-.103-.064l-.008-.003-.004-.002c-.009-.004.026.009.054.047l-.405.294zm.13.099c.204.187.454.283.653.356l.174-.469c-.205-.075-.366-.143-.488-.255l-.338.368zm.654.357c.235.085.488.128.749.109l-.037-.499a1.297 1.297 0 0 1-.54-.08l-.172.47zm.48-.14v.01h.5v-.01h-.5z" fill="#000" mask="url(#d)"/><path d="M11.666 15.486a3.554 3.554 0 0 0-.122.109l-.05.046c-.055.05-.108.095-.165.131a2.516 2.516 0 0 1-.548.251h-.002c-.221.074-.447.072-.701.07h-.002c-.015 0-.026 0-.036-.002a.079.079 0 0 1-.016-.002l-.004-.002c-.026-.008-.056-.018-.081-.023a.19.19 0 0 0-.09.002.275.275 0 0 0-.105-.043c-.357-.084-.651-.28-.905-.552a2.132 2.132 0 0 1-.32-.468 1.664 1.664 0 0 1-.133-.412l-.025-.103v-.001c-.032-.126-.03-.256-.026-.403l3.331 1.402zm0 0a.42.42 0 0 1 .072-.077c.015-.014.023-.021.03-.03.205-.266.331-.566.4-.897V13.848a.203.203 0 0 1-.039-.113c-.007-.07-.031-.137-.06-.22l-.01-.027.117-.041-.117.042c-.079-.217-.2-.41-.355-.585a1.925 1.925 0 0 0-.612-.459 1.584 1.584 0 0 0-.533-.173c-.342-.035-.668-.024-.98.102a2.07 2.07 0 0 0-.815.587v.001c-.125.142-.216.31-.287.497a1.798 1.798 0 0 0-.142.6l3.331 1.427zM19.152 14.498h-.037V10.66c.134.003.268.031.41.073.214.061.407.156.589.282l.001.001c.192.13.348.299.482.492.091.133.159.287.215.451.085.243.13.484.114.73v.002c-.004.082-.02.156-.04.242-.01.04-.02.084-.029.132a1.951 1.951 0 0 1-.27.61l-.002.002c-.051.077-.112.145-.18.22l-.043.048a.21.21 0 0 0-.03.042.268.268 0 0 0-.069.041l-.002.003a1.636 1.636 0 0 1-.248.182h-.002c-.068.041-.135.074-.207.11l-.106.053-.002.001a.45.45 0 0 1-.12.037l-.015.003a.815.815 0 0 0-.165.047.47.47 0 0 1-.18.032h-.064zM18.994 14.628c-.222.017-.44-.02-.645-.094-.202-.072-.407-.156-.57-.306l1.215.4zm0 0-.01-.124a1.362 1.362 0 0 1-.116.003V14.629h.126zm-.125-4.088v.006h.125a1.01 1.01 0 0 0-.125-.006zm-1.802 1.932v-.001l-.125-.011.125.012zm-.017.766.12-.037-.12.037zm.493.62-.096.08.096-.08zm-.018.13A.187.187 0 0 0 17.5 14c.031.04.049.082.025.143.053-.068.096-.045.132-.007.01-.057 0-.11-.023-.157a.18.18 0 0 0-.11.009zm.257.103-.007-.008-.003-.002.007.007-.098.078.1-.075z" fill="#590404" stroke="#000" stroke-width=".25"/><mask id="e" fill="#fff"><path d="M15.663 16.393s-.003.026-.01.03c-.123.045-.24.107-.37.136h-.027c.13-.065.264-.127.404-.163l.003-.003z"/></mask><path d="M15.663 16.393s-.003.026-.01.03c-.123.045-.24.107-.37.136h-.027c.13-.065.264-.127.404-.163l.003-.003z" fill="#FEF67F"/><path d="m15.663 16.393.248.03.09-.722-.514.515.176.177zm-.01.03.087.234.013-.005.012-.006-.112-.224zm-.37.136v.25h.027l.027-.006-.055-.244zm-.027 0-.111-.224.111.474v-.25zm.404-.163.062.242.066-.017.049-.048-.177-.177zm.003-.003-.248-.031v-.003l.001-.002.002-.008a.233.233 0 0 1 .033-.072.244.244 0 0 1 .09-.078l.224.447a.257.257 0 0 0 .123-.133.308.308 0 0 0 .023-.084v-.005l-.248-.031zm-.096-.205c-.066.024-.14.057-.19.077a.96.96 0 0 1-.15.05l.11.488c.086-.02.162-.048.228-.075.072-.029.118-.05.175-.071l-.173-.47zm-.285.12H15.256v.5H15.283v-.5zm.086.474c.128-.064.242-.115.354-.144l-.124-.484a2.3 2.3 0 0 0-.454.181l.224.447zm.469-.21.003-.002-.353-.354-.004.003.354.354z" fill="#000" mask="url(#e)"/><mask id="f" fill="#fff"><path d="M13.59 16.64c-.095.017-.18-.035-.268-.045-.013 0-.02-.02-.02-.033.098.02.2.033.287.078z"/></mask><path d="M13.59 16.64c-.095.017-.18-.035-.268-.045-.013 0-.02-.02-.02-.033.098.02.2.033.287.078z" fill="#FEF67F"/><path d="m13.59 16.64.042.247.732-.127-.66-.341-.115.221zm-.268-.045.028-.249-.014-.001h-.014v.25zm-.02-.033.05-.245-.3-.06v.305h.25zm.245-.168c.01-.002.009.002-.027-.007a2.406 2.406 0 0 1-.066-.02.683.683 0 0 0-.104-.02l-.055.496a.965.965 0 0 1 .092.025.553.553 0 0 0 .245.019l-.085-.493zm-.225-.05c.137 0 .198.104.21.128a.2.2 0 0 1 .02.09h-.5a.3.3 0 0 0 .032.133c.018.037.088.15.238.15v-.5zm-.068.463c.123.025.173.03.22.055l.23-.443c-.128-.067-.28-.088-.352-.102l-.098.49z" fill="#000" mask="url(#f)"/><mask id="g" fill="#fff"><path d="M17.515 14.215c0 .035.016.077-.032.096-.016-.042.01-.067.032-.096z"/></mask><path d="M17.515 14.215c0 .035.016.077-.032.096-.016-.042.01-.067.032-.096z" fill="#FEA63B"/><path d="M17.515 14.215h.25v-.729l-.447.575.197.154zm-.032.096-.233.09.09.236.236-.094-.093-.232zm-.218-.096.001.032.001.01v.005c.001.008 0-.004.002-.022a.2.2 0 0 1 .121-.161l.186.464a.298.298 0 0 0 .19-.245c.003-.035 0-.066 0-.076v-.007h-.5zm.451.006a.183.183 0 0 1-.005.144c-.007.014-.013.022-.012.02l.003-.004.01-.013-.394-.307-.007.009a.38.38 0 0 0-.052.081.313.313 0 0 0-.01.25l.467-.18z" fill="#000" mask="url(#g)"/><mask id="h" fill="#fff"><path d="M17.47 14.371c.006.032.019.067-.036.074-.003-.032-.006-.064.036-.074z"/></mask><path d="M17.47 14.371c.006.032.019.067-.036.074-.003-.032-.006-.064.036-.074z" fill="#FEA63B"/><path d="m17.47 14.371.245-.049-.05-.252-.252.057.057.244zm-.036.074-.248.025.025.253.253-.03-.03-.248zm-.21-.025.004.015c0 .003 0 .002 0 0 0-.003-.006-.03.002-.068a.223.223 0 0 1 .085-.133.192.192 0 0 1 .09-.037l.058.496a.308.308 0 0 0 .15-.057.278.278 0 0 0 .107-.168.315.315 0 0 0-.003-.137l-.002-.009-.49.098zm.46 0c-.002-.01-.002-.007-.001-.002 0 .005 0 .026-.009.054a.214.214 0 0 1-.148.143l-.113-.488a.286.286 0 0 0-.217.2c-.021.07-.01.141-.01.143l.497-.05z" fill="#000" mask="url(#h)"/><mask id="i" fill="#fff"><path d="M11.489 21.788c.052 0 .1-.003.153-.003h7.352v2.39c0 .09-.045.136-.134.136H12.007c-.017 0-.036 0-.052-.003-.013-.036-.046-.033-.079-.033a.578.578 0 0 1-.341-.329.469.469 0 0 1-.046-.179v-1.98z"/></mask><path d="M11.489 21.788c.052 0 .1-.003.153-.003h7.352v2.39c0 .09-.045.136-.134.136H12.007c-.017 0-.036 0-.052-.003-.013-.036-.046-.033-.079-.033a.578.578 0 0 1-.341-.329.469.469 0 0 1-.046-.179v-1.98z" fill="#590404"/><path d="M11.489 21.788v-.25h-.25v.25h.25zm7.505-.003h.25v-.25h-.25v.25zm-7.04 2.523-.234.085.048.132.138.028.049-.245zm-.078-.033-.084.235.04.015h.044v-.25zm-.341-.329-.232.095.003.006.229-.1zm-.046-1.908.085-.002.068-.002v-.5a2.574 2.574 0 0 0-.153.004v.5zm.153-.003H18.857v-.5H11.642v.5zm7.215 0H18.994v-.5H18.856v.5zm-.113-.25V24.173h.5V21.784h-.5zm0 2.39c0 .008-.003-.032.037-.073.041-.042.083-.041.079-.041v.5a.382.382 0 0 0 .279-.11.389.389 0 0 0 .105-.277h-.5zm.116-.114H12.117v.5H18.86v-.5zm-6.743 0H12.006v.5H12.118v-.5zm-.11 0h-.015.001l.01.002-.097.49c.045.009.09.008.1.008v-.5zm.183.161a.296.296 0 0 0-.303-.197h-.01v.5h.015s-.014 0-.033-.005a.205.205 0 0 1-.14-.127l.47-.17zm-.229-.182a.328.328 0 0 1-.197-.194l-.458.2c.092.212.25.38.486.464l.17-.47zm-.195-.189a.6.6 0 0 1-.027-.084h-.5c0 .12.042.221.064.274l.463-.19zm-.027-.084V21.788h-.5V23.767h.5z" fill="#000" mask="url(#i)"/><mask id="j" fill="#fff"><path d="M11.876 24.272c.029 0 .06-.003.077.032-.032.003-.061.003-.077-.032z"/></mask><path d="M11.876 24.272c.029 0 .06-.003.077.032-.032.003-.061.003-.077-.032z" fill="#FEA63B"/><path d="M11.876 24.272v-.25h-.388l.16.353.228-.103zm.077.032.025.249.347-.035-.144-.318-.228.104zm-.077.218H11.889a.2.2 0 0 1-.164-.114l.456-.208a.303.303 0 0 0-.274-.178h-.031v.5zm.052-.467h.005a.202.202 0 0 1 .17.113l-.455.207a.3.3 0 0 0 .188.166c.066.02.127.013.142.012l-.05-.498z" fill="#000" mask="url(#j)"/></svg>