<svg width="33" height="33" fill="none" xmlns="http://www.w3.org/2000/svg"><path d="M.908 16.284a17.13 17.13 0 0 1 .425-3.636c.336-1.522.92-2.951 1.69-4.296.51-.886 1.096-1.73 1.775-2.502 1.13-1.283 2.413-2.38 3.886-3.254a16.14 16.14 0 0 1 2.869-1.341 14.917 14.917 0 0 1 2.786-.712c1.326-.205 2.664-.29 4.009-.144.519.055 1.038.113 1.546.226 1.02.227 2.016.52 2.99.908.645.26 1.278.531 1.88.874.91.516 1.772 1.103 2.566 1.79a15.842 15.842 0 0 1 5.31 9.401c.174 1.027.26 2.06.235 3.098-.018.813-.131 1.616-.26 2.417-.293 1.827-.959 3.523-1.866 5.123a15.575 15.575 0 0 1-2.182 2.936 15.539 15.539 0 0 1-3.559 2.851 15.95 15.95 0 0 1-3.642 1.567 16.94 16.94 0 0 1-2.783.56 15.016 15.016 0 0 1-3.355 0c-.43-.05-.858-.104-1.283-.172a9.496 9.496 0 0 1-1.079-.25c-1.353-.382-2.658-.883-3.88-1.589a16.412 16.412 0 0 1-2.511-1.76 15.855 15.855 0 0 1-5.332-9.395c-.14-.889-.24-1.79-.235-2.7zm21.775 14.69a5.357 5.357 0 0 0 1.234-.541c.07-.022.147-.037.214-.07a19.733 19.733 0 0 0 1.766-1.049c.077-.052.14-.11.165-.201.364-.135.626-.413.91-.657.23-.18.459-.36.685-.547.061-.052.122-.11.14-.196a.454.454 0 0 0 .168-.113c.42-.406.835-.819 1.183-1.286.364-.486.773-.944 1.042-1.497.247-.312.476-.639.58-1.03.034-.033.08-.06.101-.104.254-.525.58-1.017.721-1.591.021-.028.049-.052.061-.08.22-.54.419-1.09.544-1.662.092-.422.272-.825.263-1.268.104-.324.14-.657.165-.993.094-.449.088-.904.085-1.36a.685.685 0 0 0 .04-.302c-.015-.437-.034-.874-.052-1.31a14.835 14.835 0 0 0-.522-3.016c-.123-.434-.239-.874-.446-1.28-.117-.51-.355-.972-.593-1.433a4.777 4.777 0 0 0-.617-1.121c-.138-.23-.202-.51-.456-.66a.728.728 0 0 0-.33-.495.344.344 0 0 0-.082-.226c-.44-.52-.843-1.067-1.332-1.54-.266-.257-.489-.556-.81-.755-.33-.278-.602-.626-.999-.825-.379-.372-.83-.644-1.28-.92-.29-.18-.565-.393-.895-.497a7.086 7.086 0 0 0-1.494-.7c-.217-.138-.464-.193-.703-.275-.205-.116-.437-.153-.663-.208-.244-.076-.486-.174-.742-.204-.306-.08-.605-.187-.914-.239-.98-.168-1.97-.263-2.966-.217-.239 0-.477-.003-.718-.003-.327 0-.657-.009-.975.08l-.345.027c-.526.046-1.033.187-1.552.272a.427.427 0 0 1-.046.034h-.003c-.391.07-.773.177-1.146.308-.183.064-.391.083-.544.23a.998.998 0 0 0-.397.094c-.752.306-1.479.663-2.184 1.063-.236.132-.514.211-.679.45a3.957 3.957 0 0 0-1.112.788 1.504 1.504 0 0 0-.308.204c-.477.407-.944.822-1.378 1.271-.376.392-.749.786-1.045 1.247-.278.26-.468.584-.66.907-.226.312-.465.614-.578.993a.194.194 0 0 0-.14.138c-.058.198-.174.366-.275.544a.537.537 0 0 0-.077.272.46.46 0 0 0-.165.207c-.235.49-.44.987-.623 1.497-.082.226-.195.443-.162.694-.015.012-.027.027-.042.04-.037.104-.08.204-.104.311-.22.92-.431 1.843-.51 2.787-.016.467-.028.935-.043 1.402.015.44.009.88.049 1.317a16.105 16.105 0 0 0 1.377 5.2.98.98 0 0 0 .22.345c0 .086.025.162.065.235.299.553.605 1.1.968 1.617.245.464.614.843.917 1.264a.373.373 0 0 0 .198.141c.07.165.171.312.3.437.357.357.712.718 1.072 1.072.156.153.327.288.526.385.244.278.513.523.864.663.306.324.678.553 1.079.743.06.046.116.094.18.134.941.547 1.906 1.042 2.957 1.354.3.091.581.253.908.25a4.885 4.885 0 0 0 1.53.33c.086.116.224.098.34.113.904.11 1.808.168 2.719.131.525.043 1.042-.06 1.561-.094.128-.01.263-.012.382-.073.373-.055.752-.08 1.109-.211a8.273 8.273 0 0 0 1.115-.285c.413-.119.831-.22 1.207-.443l-.003-.015z" fill="#E38A33"/><path d="M11.528 1.45c.153-.143.358-.165.544-.229A7.378 7.378 0 0 1 13.218.91c.018.085.04.165.156.143.55-.1 1.103-.204 1.652-.302.101-.019.138-.077.138-.171.32-.089.648-.08.975-.08.238 0 .476 0 .718.003.107.27.348.217.55.199.455-.046.9.043 1.35.082.58.05 1.152.175 1.726.275.107.019.208.03.257-.097.257.03.498.128.742.204-.095.14-.232.129-.366.092a1.6 1.6 0 0 0-.59-.037c-.373.04-.749.07-1.121.113-.434.046-.874.052-1.305.138-.095.018-.217.006-.244.143-.217.003-.431.007-.648.013-.116 0-.232.006-.309.116-.69-.01-1.371.094-2.059.131-.061-.104-.153-.122-.266-.104-.666.11-1.32.257-1.967.443-.403.116-.792.278-1.192.397a.236.236 0 0 0-.18-.027c-.336.113-.69.113-1.036.134-.354.022-.706.11-1.063.052.089-.122.226-.174.351-.244a14.538 14.538 0 0 1 1.772-.819c.126-.049.239-.107.278-.25l-.009-.007z" fill="#EBB839"/><path d="M21.476 31.416c-.363.12-.736.22-1.115.284-.055-.058-.125-.1-.198-.094-.31.027-.624.024-.917.15-.15.012-.3.027-.45.04l-1.49.124c-1.008.006-2.01-.1-3.01-.201-.46-.126-.922-.236-1.402-.263-.024-.061-.07-.095-.134-.113-.062-.018-.162-.01-.15-.104.012-.08.11-.067.174-.073.599-.055 1.195-.107 1.793-.16.135-.011.278.007.38-.115.427.015.849.104 1.276.07a.3.3 0 0 0 .178.043c.507.018 1.01-.012 1.515-.055.306-.028.614-.025.914-.104.531-.027 1.044-.171 1.567-.254.293.037.584 0 .874-.021.641-.055 1.28-.12 1.918-.18.083-.006.168-.006.22.076l-.782.376c-.366.061-.684.26-1.042.351-.097.025-.116.125-.122.217l.003.006z" fill="#FADC46"/><path d="M9.127 2.761c.357.061.712-.027 1.063-.052.345-.021.7-.021 1.036-.134.058-.022.122-.003.18.027-.758.37-1.537.697-2.255 1.149-.201.128-.43.18-.663.205-.403.046-.806.076-1.21.11-.07.006-.134.009-.192.055-.324.25-.65.504-.941.794-.049.049-.11.1-.073.177.042.089.128.058.201.05.232-.031.462-.071.697-.056.067.003.15-.018.183.058.034.077-.04.125-.085.171l-.944.89c-.046-.08-.12-.074-.2-.068-.134.012-.271.028-.408.022-.327-.016-.612.055-.82.33-.07.091-.161.122-.271.085.293-.461.666-.855 1.045-1.246.434-.45.901-.865 1.378-1.271a1.39 1.39 0 0 1 .308-.205.408.408 0 0 0 .364-.083c.302-.226.61-.44.92-.657.238-.097.44-.274.693-.345l-.006-.006zM31.733 10.818c.21.406.323.846.445 1.28.279.987.459 1.992.523 3.015h-.193c.025-.073.007-.146 0-.223-.02-.256-.1-.507-.085-.766-.04-.187-.076-.376-.122-.563-.03-.134-.11-.22-.26-.21-.137.009-.272.018-.41.036-.174.022-.253.132-.229.303.028.174.043.354.113.52l.083.989c-.024.306.052.605.043.91-.003.04-.01.077-.012.117-.074-.01-.11-.065-.147-.116V15.902a18.644 18.644 0 0 0-.571-3.627c.036-.015.073-.03.106-.046.108.07.056.272.233.281.192.01.382.022.571-.03.147-.04.208-.138.174-.275a10.437 10.437 0 0 0-.201-.688c-.037-.11-.114-.189-.242-.192-.238-.006-.48-.03-.706.076-.094-.18-.192-.357-.287-.537l-.033-.245c.155-.012.311-.033.467-.04.217-.009.443-.042.587.19.027.046.094.049.15.049h.003z" fill="#F4D042"/><path d="M1.742 11.814c-.033-.25.08-.468.162-.694.187-.507.391-1.008.624-1.497a.478.478 0 0 1 .165-.208c.155-.006.186-.14.247-.244.11-.177.18-.391.44-.415.281-.028.56-.05.843-.04-.027.137-.122.244-.183.366-.046.092-.107.19.027.266-.009.034-.015.067-.033.098-.315.516-.54 1.075-.755 1.638-.174.458-.32.931-.48 1.396-.045 0-.091-.006-.14-.01l.104-.442c.143-.26.202-.544.26-.831.122-.168.186-.367.256-.56.055-.146-.009-.226-.168-.216-.17.009-.342.024-.51.036-.1.01-.196.05-.244.132-.114.201-.242.4-.245.644-.098.126-.12.284-.183.425-.04.086-.083.153-.187.156z" fill="#D78D29"/><path d="M22.845 1.649a6.732 6.732 0 0 1 1.494.7c.006.14.098.214.205.287.378.26.818.425 1.148.758-.024.073-.076.116-.152.119-.459.006-.91.156-1.372.046-.015-.022-.028-.052-.05-.065-.521-.32-1.062-.605-1.646-.8l-.082-.046c.131-.217.357-.171.553-.195.217-.028.44.018.656-.031.062-.015.153-.003.16-.098.003-.076-.065-.119-.126-.15-.174-.079-.36-.14-.528-.229-.117-.06-.294-.088-.26-.29V1.65z" fill="#FADC46"/><path d="M17.85 1.61c.03-.138.15-.126.244-.144.43-.086.87-.089 1.305-.138.372-.04.748-.07 1.121-.113a1.6 1.6 0 0 1 .59.037c.137.036.272.052.366-.092.226.055.456.092.663.208a.26.26 0 0 0 .098.217c.131.113.073.177-.064.195-.306.04-.617.058-.92.107-.217.037-.458-.042-.644.14-.074-.008-.15-.014-.223-.033a14.29 14.29 0 0 0-2.54-.39l.004.005z" fill="#EFC43D"/><path d="M27.513 4.588c.321.196.544.498.81.755.492.473.895 1.02 1.332 1.54a.33.33 0 0 1 .082.226c.013.06.022.122.037.18.128.492.128.495-.385.55a.671.671 0 0 1-.62-.254c-.058-.067-.107-.143-.186-.19-.034-.213-.226-.317-.336-.476-.129-.186-.113-.26.113-.3.152-.027.311-.03.467-.048.199-.021.223-.073.122-.25a1.524 1.524 0 0 0-.41-.453 7.102 7.102 0 0 0-.867-.925c-.11-.098-.177-.205-.159-.355z" fill="#D78D29"/><path d="M1.043 16.357c.015-.467.027-.935.043-1.402.067-.028.13-.058.198-.086 0 .128.006.26 0 .388-.003.162.067.23.232.235.226.01.446-.046.67-.052.015.098 0 .211.125.254 0 .302-.003.608-.006.91v.034c0 .028 0 .058.003.086-.104.03-.15.104-.162.207l-.905.083a1.005 1.005 0 0 0-.204-.66l.006.003zM25.692 3.39c-.33-.333-.773-.494-1.148-.757-.107-.074-.199-.147-.205-.287.333.103.605.317.895.498.446.278.901.546 1.28.92-.06.137.018.22.113.296.217.18.431.36.648.537.043.037.095.07.08.132-.019.07-.09.082-.15.091-.184.022-.367.04-.553.055-.104.01-.208.013-.26.126-.394-.214-.7-.547-1.057-.807-.122-.089-.061-.168.067-.183.244-.034.489-.058.733-.086.055-.006.116-.006.135-.07.015-.058-.037-.086-.073-.113-.165-.122-.31-.272-.505-.352z" fill="#EFC13C"/><path d="M26.392 5.004c.052-.113.156-.12.26-.126.183-.015.37-.033.553-.055.06-.006.131-.021.15-.091.015-.061-.037-.098-.08-.132-.217-.18-.43-.36-.648-.537-.094-.08-.174-.162-.113-.297.398.199.67.544 1 .825-.019.15.048.257.158.355.318.28.605.592.868.925-.21.129-.443.129-.678.126-.11 0-.226-.01-.275.125-.223-.128-.373-.342-.572-.498-.18-.232-.455-.37-.623-.617v-.003z" fill="#E7B036"/><path d="M3.725 25.067c-.364-.513-.669-1.063-.968-1.616a.454.454 0 0 1-.065-.235c.046-.306-.134-.556-.207-.831a.967.967 0 0 0 .467.01c.162-.034.324-.065.489-.022.247.379.43.791.617 1.204a2.953 2.953 0 0 1-.632.085c-.263.003-.297.07-.171.297.198.354.427.69.598 1.06-.042.015-.085.033-.128.049z" fill="#EFC13C"/><path d="M20.612 2.03c.183-.18.427-.103.644-.14.306-.052.614-.067.92-.107.137-.018.195-.085.064-.195a.252.252 0 0 1-.098-.217c.239.086.486.137.703.275-.034.202.144.23.26.29.168.092.351.153.528.23.064.027.129.07.126.149-.004.095-.095.086-.16.098-.216.049-.44.003-.656.03-.196.025-.425-.018-.553.196-.547-.202-1.085-.422-1.662-.535a.2.2 0 0 1-.116-.076v.003z" fill="#F4D042"/><path d="M14.96 30.894c-.102.122-.245.104-.38.116-.598.052-1.194.104-1.793.159-.064.006-.162-.006-.174.073-.015.092.088.086.15.104.064.018.11.052.134.113-.058.018-.116.034-.171.052-.327.006-.608-.156-.907-.25.067-.162-.07-.193-.165-.248-.144-.083-.33-.076-.453-.208.052-.012.104-.036.16-.036.464-.006.922-.08 1.383-.129.15-.015.318.01.44-.119.239.055.477.11.715.168.352.086.715.101 1.063.208l-.003-.003z" fill="#EFC43D"/><path d="M4.067 9.348c-.131-.076-.07-.174-.027-.266.061-.122.156-.226.183-.366.156-.132.217-.33.324-.495.073-.116.248-.226.165-.37-.082-.143-.266-.036-.403-.04-.394-.006-.727.101-.895.502a.244.244 0 0 1-.227.152c.114-.379.352-.681.578-.993.11.12.171.022.217-.06a.77.77 0 0 1 .525-.398c.3-.055.605-.116.914-.037-.01.104-.193.199-.022.315-.073.174-.189.318-.305.464-.4.492-.712 1.045-1.033 1.59l.006.002z" fill="#E8B337"/><path d="M32.628 18.09c-.025.335-.061.671-.165.992-.055 0-.11 0-.165-.003-.235-.073-.477-.046-.715-.027-.137.009-.217.104-.254.235l-.146.538-.129-.046c.135-.532.19-1.076.303-1.61.082-.006.134-.046.159-.125.318.006.638.027.947-.08.055.04.11.083.162.122l.003.003z" fill="#E2A632"/><path d="M1.284 14.866c-.067.027-.131.058-.199.086.08-.944.294-1.867.51-2.787.025-.107.071-.207.105-.311.015-.013.027-.028.042-.04.104 0 .147-.07.187-.156.064-.14.085-.3.183-.425.306.013.602-.113.91-.04-.055.288-.113.572-.26.832-.247-.028-.488.03-.736.045-.137.01-.216.09-.262.22-.07.208-.101.425-.147.639-.1.266-.131.544-.168.825a6.52 6.52 0 0 0-.168 1.112h.003z" fill="#E7B036"/><path d="M2.485 22.385c.073.275.25.525.208.831a.98.98 0 0 1-.22-.345 16.085 16.085 0 0 1-1.378-5.2c-.04-.437-.034-.877-.05-1.317.145.195.22.416.206.66.064.272 0 .556.079.825.018.333.028.669.15.99.052.623.186 1.225.397 1.814.04.251.12.486.241.706.055.37.23.697.37 1.036h-.003z" fill="#F4D042"/><path d="M7.602 29.03c-.351-.14-.62-.385-.864-.663-.043-.214-.196-.351-.349-.489-.067-.058-.14-.11-.15-.207.361-.046.722-.092 1.085-.135.352.22.666.489.993.746-.119.04-.241.04-.363.049-.205.015-.413.006-.608.067-.156.049-.162.116-.05.232.105.104.26.156.313.315 0 .03 0 .058-.004.088l-.003-.003z" fill="#DE9E30"/><path d="M5.424 6.983c-.309-.079-.614-.018-.914.037a.749.749 0 0 0-.525.397c-.046.083-.107.18-.217.061.19-.323.382-.644.66-.907.11.037.204.01.272-.086.207-.274.495-.345.818-.33.135.007.272-.009.41-.02.08-.007.15-.013.198.066-.223.27-.409.572-.7.782h-.002z" fill="#EFC13C"/><path d="M30.523 8.26c.247.352.467.719.617 1.122-.01.03-.028.064-.03.095-.047.32-.047.311-.364.36-.171.028-.358 0-.51.113-.086-.064-.12-.159-.16-.253-.045-.113-.088-.227-.207-.285l-.086-.33c.064-.058.144-.073.226-.082.144-.018.288-.034.428-.064.199-.046.223-.104.137-.29-.058-.126-.128-.248-.048-.392l-.003.007z" fill="#E7B036"/><path d="M3.184 8.468a.244.244 0 0 0 .226-.152c.169-.4.502-.51.896-.502.137 0 .32-.103.403.04.082.14-.092.254-.165.37-.104.165-.168.363-.324.495a6.494 6.494 0 0 0-.843.04c-.26.027-.333.238-.44.415-.064.104-.092.238-.248.244 0-.097.028-.186.077-.271.1-.178.22-.343.275-.544a.2.2 0 0 1 .14-.138l.003.003z" fill="#DE9E30"/><path d="M30.776 23.787c-.107.394-.333.718-.58 1.03-.107-.043-.168.018-.223.092-.05.067-.098.134-.183.155-.224-.091-.444-.006-.667.013-.1.009-.213.058-.28-.052-.07-.116.045-.184.094-.266.064-.104.15-.196.183-.318.068-.07.138-.137.205-.208.235.08.47.03.706.013.266-.022.449-.138.544-.391.033-.092.088-.169.19-.2l.008.13.003.002z" fill="#EBB839"/><path d="m29.78 9.088.086.33h-.092c-.043-.06-.092-.119-.128-.183-.36-.638-.761-1.25-1.195-1.84h.131c.077.05.129.123.187.19a.686.686 0 0 0 .62.254c.513-.055.513-.058.385-.55-.015-.058-.024-.122-.037-.18.178.119.294.28.33.495 0 .14.055.265.113.39.11.23.055.322-.204.349-.122.012-.245.03-.367.043-.156.015-.208.082-.128.232.085.165.177.324.296.467l.003.003z" fill="#DB982D"/><path d="M26.973 28.456c-.285.244-.547.522-.911.657v-.086c-.003-.125-.076-.168-.19-.162-.155.006-.314.01-.47.022-.21.015-.422.042-.632.058-.058.003-.132 0-.15-.077-.015-.064.043-.095.085-.128.2-.138.4-.263.618-.373.125.125.28.083.424.064a11.72 11.72 0 0 1 1.18-.107l.046.132z" fill="#E2A632"/><path d="M30.233 9.956c.152-.116.339-.088.51-.113.318-.049.318-.04.364-.36.006-.034.02-.065.03-.095.235.461.477.923.593 1.433-.055 0-.122 0-.15-.049-.144-.232-.37-.199-.587-.19-.155.007-.311.025-.467.04-.15-.198-.22-.43-.293-.66v-.006z" fill="#EFC43D"/><path d="M29.78 9.089a2.57 2.57 0 0 1-.296-.468c-.08-.15-.027-.217.128-.232.123-.012.245-.03.367-.043.257-.027.312-.119.205-.348-.058-.125-.113-.25-.113-.391.253.15.317.43.455.66-.08.14-.01.262.049.39.085.187.06.245-.138.291-.14.03-.284.046-.427.064a.4.4 0 0 0-.227.083l-.003-.006z" fill="#E2A632"/><path d="M20.737.959c-.049.13-.15.119-.257.097-.574-.1-1.145-.226-1.726-.275-.449-.04-.892-.128-1.35-.082-.199.021-.44.073-.55-.199.999-.046 1.986.05 2.966.217.309.052.611.156.914.238l.003.004z" fill="#DE9E30"/><path d="M29.787 25.067c.088-.02.134-.088.183-.155.055-.077.12-.138.223-.092-.272.553-.678 1.011-1.042 1.497-.348.468-.764.88-1.182 1.286a.42.42 0 0 1-.168.113c-.016-.042-.03-.088-.046-.131.266-.303.532-.602.794-.904.263-.226.465-.505.657-.789.232-.247.465-.498.584-.825h-.003zM11.198 30.805c.122.132.309.125.452.208.095.055.233.086.165.247-1.047-.311-2.016-.806-2.957-1.353-.064-.037-.122-.089-.18-.134.015-.043.027-.086.043-.126.183.055.336.187.528.22.275.284.639.4 1 .526.28.22.613.318.95.412z" fill="#F4D042"/><path d="M9.127 2.761c-.254.07-.456.245-.694.345-.055-.015-.113-.03-.168-.049.165-.24.443-.317.678-.449.706-.4 1.433-.754 2.185-1.063.128-.052.256-.1.397-.095-.04.144-.153.202-.278.25-.608.233-1.2.505-1.772.82-.125.07-.263.122-.351.244l.003-.003z" fill="#DC9A2E"/><path d="M32.298 19.08c.055 0 .11 0 .165.002.012.443-.171.847-.263 1.268-.122.572-.324 1.121-.544 1.662-.012.03-.04.055-.06.08l-.093-.083c.04-.177.08-.354.116-.535.279-.531.376-1.118.508-1.695.091-.226.107-.47.168-.703l.003.003z" fill="#D78D29"/><path d="M14.3 31.719c1.002.1 2 .204 3.009.201v.162c-.91.037-1.815-.021-2.72-.131-.116-.015-.25.003-.338-.113l.045-.12h.003z" fill="#DC9A2E"/><path d="M26.065 29.027v.086c-.024.091-.089.15-.165.201-.571.376-1.158.733-1.766 1.048-.064.034-.14.046-.214.07-.015-.042-.033-.085-.049-.128a9.37 9.37 0 0 1 .178-.156c.36-.085.641-.3.907-.54.257-.04.44-.211.648-.343.146-.094.265-.244.464-.238h-.003z" fill="#DB982D"/><path d="M6.24 27.67c.006.101.082.15.15.208.152.138.305.275.348.49a2.042 2.042 0 0 1-.526-.386c-.36-.354-.718-.715-1.072-1.072a1.427 1.427 0 0 1-.3-.437c.028-.015.055-.034.086-.049.19.18.379.364.568.544.217.269.431.538.746.703z" fill="#D78D29"/><path d="M17.312 32.082v-.162c.498-.042.993-.082 1.491-.125.15-.012.3-.027.45-.04 0 .052.002.104.005.156-.119.061-.253.064-.382.074-.52.036-1.035.137-1.56.094l-.004.003z" fill="#E7B036"/><path d="M15.164.577c0 .094-.037.152-.137.17-.55.102-1.103.202-1.653.303-.117.022-.138-.058-.156-.143h.003c.015-.013.03-.025.046-.034.519-.086 1.026-.226 1.552-.272l.345-.027v.003z" fill="#FADC46"/><path d="M4.926 26.424c-.027.015-.055.034-.085.049a.39.39 0 0 1-.2-.14c-.305-.422-.671-.801-.916-1.265l.129-.05c.177.208.354.416.531.627.129.235.29.443.49.623.014.052.033.104.048.16l.003-.004zM31.507 22.01l.091.082c-.14.574-.467 1.069-.72 1.591-.019.04-.068.068-.102.104 0-.042-.006-.085-.009-.128.019-.095.034-.186.052-.281.101-.1.135-.235.202-.355.183-.326.253-.708.486-1.014z" fill="#E2A632"/><path d="M32.509 15.117h.192c.018.436.037.873.052 1.31a.682.682 0 0 1-.04.303c-.055 0-.11 0-.162-.003l-.009-.654c.034-.321-.037-.636-.04-.953h.01l-.003-.003z" fill="#EFC13C"/><path d="m14.3 31.719-.046.119a4.888 4.888 0 0 1-1.531-.33l.171-.052c.48.024.941.137 1.402.263h.003zM8.265 3.058c.055.015.113.03.168.048-.305.217-.617.431-.92.657a.408.408 0 0 1-.363.083c.32-.333.7-.584 1.112-.788h.003zM23.869 30.304l.048.129c-.388.232-.8.412-1.234.54a5.121 5.121 0 0 0-.046-.125l.782-.376c.14-.082.294-.125.45-.168zM8.72 29.647c-.015.043-.027.086-.042.126-.4-.187-.77-.419-1.079-.743 0-.03 0-.058.003-.088.107.006.19.064.278.119.223.14.45.28.672.418l.165.165.003.003zM32.551 16.724c.055 0 .11 0 .162.003 0 .455.006.91-.085 1.36-.055-.04-.11-.083-.162-.123.036-.412.091-.825.085-1.24z" fill="#E7B036"/><path d="M22.64 30.848c.015.043.03.086.046.125-.376.223-.794.321-1.207.443.006-.091.025-.192.123-.217.357-.091.675-.29 1.041-.351h-.003z" fill="#EFC43D"/><path d="M27.752 27.585c.015.043.03.089.046.131-.019.086-.08.144-.141.196-.226.183-.455.364-.684.547l-.046-.132c.128-.213.397-.296.504-.531l.32-.211z" fill="#EBB839"/><path d="M19.255 31.911c0-.052-.003-.104-.006-.156.293-.122.608-.122.916-.15.074-.005.144.037.199.095-.358.132-.736.16-1.11.211z" fill="#F4D042"/><path d="M1.743 11.814s-.028.027-.044.04c.016-.012.028-.028.044-.04z" fill="#D78D29"/><path d="M13.264.876s-.03.025-.046.034c.015-.012.03-.025.046-.034z" fill="#EBB839"/><path d="M28.451 7.399c.431.593.831 1.204 1.195 1.84.037.063.085.121.128.183.208.488.413.977.666 1.442.156.47.312.938.47 1.408.312 1.189.499 2.399.569 3.627V16.106c-.03.688-.058 1.378-.125 2.063-.113.534-.168 1.078-.303 1.61-.1.327-.198.657-.3.984-.225.736-.558 1.433-.86 2.138-.325.486-.603 1-.896 1.503l-1.164 1.507-.104.1c-.773.783-1.552 1.55-2.462 2.182a14.592 14.592 0 0 1-6.432 2.502 4.945 4.945 0 0 1-.223.034c-.791.085-1.582.091-2.377.085a16.252 16.252 0 0 1-2.487-.33c-.586-.122-1.148-.323-1.723-.476l-1.081-.44-1.442-.746c-.725-.397-1.366-.913-2.002-1.432-.406-.334-.785-.706-1.173-1.06l-.733-.82-.89-1.228c-.36-.605-.736-1.204-1.023-1.851-.07-.16-.107-.342-.238-.47l-.376-1.024c-.098-.391-.201-.78-.339-1.158-.21-1.008-.37-2.023-.412-3.052 0-.028 0-.058-.003-.086v-.033c0-.303.003-.609.006-.911l.128-1.405c.116-.605.21-1.213.357-1.812.16-.465.306-.938.48-1.396.214-.563.437-1.122.755-1.638.018-.027.021-.064.033-.098.321-.544.63-1.097 1.033-1.589.116-.143.232-.29.306-.464.458-.486.88-.999 1.362-1.463 1.757-1.696 3.816-2.86 6.163-3.532.629-.18 1.27-.29 1.91-.434.687-.037 1.368-.144 2.058-.131a17.74 17.74 0 0 1 2.053.146c1.223.162 2.384.529 3.53.963.57.25 1.124.537 1.677.818.293.19.59.376.88.569.669.443 1.277.965 1.89 1.478.273.278.548.556.82.835.201.314.452.586.705.855h-.006zm2.117 4.497c-.02-.235-.116-.449-.213-.66-.05-.265-.214-.489-.297-.742-.159-.443-.412-.837-.654-1.24a3.585 3.585 0 0 0-.574-.95c-.1-.22-.235-.413-.41-.581a5.134 5.134 0 0 0-.77-.953c-.164-.184-.292-.398-.497-.541-.177-.211-.36-.416-.593-.568a2.376 2.376 0 0 0-.577-.498 5.867 5.867 0 0 0-1.14-.835c-.266-.226-.574-.381-.88-.543-.312-.239-.69-.343-1.033-.523-.436-.223-.883-.421-1.362-.538-.202-.116-.434-.14-.651-.216-.62-.22-1.265-.324-1.913-.404-.473-.134-.959-.146-1.445-.159-.275 0-.547-.006-.822-.009-.33.006-.663-.03-.992.043-.364 0-.725.037-1.076.131-.418.058-.84.098-1.237.25-.297.077-.6.144-.893.236-1.701.52-3.235 1.354-4.625 2.457-.516.409-1.018.837-1.44 1.35-.32.3-.62.617-.849.993-.232.217-.409.477-.574.742-.208.284-.4.578-.55.899-.165.213-.308.44-.366.711-.297.416-.474.89-.642 1.366-.3.66-.498 1.35-.63 2.063-.097.366-.198.733-.204 1.115-.061.311-.113.626-.095.947-.073.357-.046.715-.037 1.075-.009.333-.036.666.022 1 .018.445.049.888.165 1.322.009.266.073.523.146.776.016.23.068.452.165.66.11.532.297 1.042.523 1.534.085.32.232.614.394.898.168.391.358.773.608 1.121.086.217.217.407.367.584.11.247.284.455.455.66.263.391.553.76.901 1.082.107.18.257.32.422.445.183.217.37.431.62.575.358.394.782.706 1.228.993.25.226.538.394.831.55.239.186.504.32.78.443a3.6 3.6 0 0 0 .754.37c.287.161.59.287.907.375.349.156.7.3 1.079.358.318.134.654.195.99.253.855.205 1.723.315 2.606.318.495.006.993.043 1.485-.037.17.019.342-.018.51-.04.663-.085 1.33-.161 1.968-.372.027-.003.055-.006.082-.012 1.204-.272 2.325-.752 3.4-1.35 1.26-.7 2.399-1.556 3.355-2.637a10.887 10.887 0 0 0 1.467-1.818c.342-.413.608-.871.828-1.357.44-.74.77-1.527.993-2.358.17-.355.256-.734.317-1.119.153-.498.224-1.014.282-1.527.042-.468.122-.932.085-1.403.07-.302-.01-.604-.003-.907.027-.278-.024-.55-.043-.825-.104-.464-.058-.953-.235-1.402a2.888 2.888 0 0 0-.21-.908c-.01-.238-.15-.437-.206-.66l.003-.003z" fill="#8D6020"/><path d="M14.834 1.866c-.636.143-1.28.253-1.91.434-2.343.672-4.402 1.836-6.162 3.532-.48.464-.904.977-1.363 1.463-.17-.116.013-.208.022-.315.29-.21.476-.513.7-.782.314-.296.632-.59.943-.889.05-.046.123-.092.086-.171-.034-.076-.12-.052-.183-.058-.236-.015-.465.024-.697.055-.073.01-.159.04-.202-.049-.036-.076.028-.128.074-.177.29-.29.617-.544.94-.794.059-.046.123-.05.193-.055.404-.034.807-.065 1.21-.11.232-.025.462-.08.663-.205.718-.452 1.494-.782 2.255-1.149.4-.12.788-.278 1.191-.397a17.426 17.426 0 0 1 1.968-.443c.113-.018.205 0 .266.104l.006.006z" fill="#FADC46"/><path d="M22.475 2.844c-1.146-.434-2.306-.8-3.529-.963a17.743 17.743 0 0 0-2.053-.146c.077-.11.193-.113.309-.117.217-.006.43-.006.648-.012.858.058 1.704.177 2.538.391.074.019.15.022.223.034.031.037.068.067.117.076.574.113 1.115.333 1.662.535l.082.046v.153l.003.003z" fill="#DB982D"/><path d="M18.84 30.695a14.592 14.592 0 0 0 6.43-2.502c.911-.632 1.69-1.4 2.463-2.181l.104-.101c0 .049 0 .094.003.143-.1.233-.342.355-.455.578l-1.283 1.155a7.61 7.61 0 0 0-.782.58 5.094 5.094 0 0 0-.618.373c-.045.03-.1.061-.085.128.018.08.091.08.15.077.21-.016.421-.04.632-.058.156-.013.315-.016.47-.022.114-.003.187.04.19.162-.199-.01-.318.144-.465.238-.207.132-.39.303-.647.343-.474-.031-.941.079-1.412.082-.663 0-1.24.312-1.857.474-.03.009-.052.04-.08.06l-1.197.37c-.523.083-1.036.226-1.568.254v-.153h.006z" fill="#E8B337"/><path d="M20.407 30.598c.4-.123.797-.248 1.197-.37a.342.342 0 0 0 .199.037c.394-.034.788-.074 1.185-.104.352-.028.703-.126 1.058-.016a9.068 9.068 0 0 1-.178.156 1.807 1.807 0 0 0-.449.168c-.052-.085-.137-.085-.22-.076-.638.058-1.28.125-1.919.18-.29.024-.58.061-.873.021v.003z" fill="#F4D042"/><path d="M12.03 30.01c.577.154 1.139.355 1.723.477.821.172 1.65.285 2.486.327 0 .05 0 .098-.003.147-.427.034-.852-.055-1.277-.07-.345-.107-.712-.122-1.063-.208-.238-.058-.477-.113-.715-.168-.373-.11-.742-.223-1.115-.333l-.037-.171z" fill="#D78D29"/><path d="M16.236 30.964c0-.049 0-.098.003-.146.795.002 1.586 0 2.377-.086.074-.01.15-.021.224-.034v.153c-.3.08-.608.076-.914.104-.504.043-1.008.073-1.515.055a.331.331 0 0 1-.178-.043l.003-.003z" fill="#E2A632"/><path d="M32.551 16.724c.007.415-.048.828-.085 1.24-.309.107-.63.086-.947.08.07-.605.15-1.21.113-1.822.003-.04.009-.076.012-.116.3-.009.602.019.898-.04l.01.655v.003z" fill="#D78D29"/><path d="M30.85 11.398c.226-.107.467-.082.705-.076.129 0 .205.082.242.192.073.227.143.456.202.688.033.14-.028.235-.175.275-.189.052-.378.04-.57.03-.178-.009-.126-.213-.233-.28-.012-.08-.015-.163-.037-.24-.055-.195-.143-.378-.134-.586v-.003z" fill="#FADC46"/><path d="m31.598 15.199-.082-.99c.302-.024.605-.027.904-.082-.015.26.067.51.086.766.006.074.024.147 0 .223h-.01a3.196 3.196 0 0 0-.9.083h.002z" fill="#E7B036"/><path d="M31.598 15.199c.297-.07.599-.1.901-.082.003.317.074.632.04.953-.296.058-.599.03-.898.04.009-.306-.067-.605-.043-.911z" fill="#E2A632"/><path d="M32.423 14.127c-.3.058-.602.058-.904.082-.073-.165-.089-.345-.113-.52-.025-.17.052-.277.229-.302.134-.018.272-.027.41-.036.15-.01.228.079.26.21.045.187.081.376.121.563l-.003.003z" fill="#EFC43D"/><path d="M31.629 16.223c.037.61-.043 1.216-.113 1.82-.025.08-.077.12-.16.126.068-.688.093-1.375.126-2.063.04.052.077.107.147.116z" fill="#E8B337"/><path d="M30.44 10.864c-.256-.465-.46-.954-.666-1.442h.092c.12.058.165.17.208.284.036.094.073.19.159.253.073.232.143.465.293.66.012.083.021.162.034.245h-.12z" fill="#E2A632"/><path d="M30.44 10.864h.12c.094.18.192.357.287.537-.01.208.082.395.134.587.022.076.025.159.037.238-.037.015-.073.03-.107.046-.156-.47-.312-.938-.47-1.408z" fill="#EBB839"/><path d="M1.62 12.929c.046-.214.076-.43.147-.639.046-.13.122-.213.263-.22.244-.015.488-.073.736-.045l-.104.443c-.055.122-.037.268-.128.379-.309-.016-.608.052-.914.082z" fill="#EFC13C"/><path d="M3.023 11.194c-.31-.074-.605.051-.91.04 0-.245.127-.444.243-.645.05-.086.144-.126.245-.132.171-.015.342-.027.51-.036.159-.01.22.073.168.216-.07.193-.134.388-.256.56v-.003z" fill="#DE9E30"/><path d="M2.534 12.847c.088-.11.073-.257.128-.38.046 0 .092.007.14.01-.146.599-.24 1.207-.357 1.812-.04-.016-.08-.028-.12-.043-.027-.18.031-.355.047-.532.076-.284.14-.574.162-.87v.003z" fill="#E2A632"/><path d="M26.927 5.706c-.614-.513-1.226-1.032-1.892-1.478-.29-.193-.586-.38-.88-.569.007-.036.01-.07.016-.107.461.11.913-.04 1.372-.045.076 0 .128-.046.152-.12.196.08.34.23.505.352.036.027.088.055.073.113-.018.067-.08.064-.135.07-.244.028-.489.055-.733.086-.131.018-.19.094-.067.183.36.26.663.593 1.057.807.168.247.443.385.623.617-.03.027-.058.058-.088.085l-.003.006z" fill="#F4D042"/><path d="m24.168 3.555-.016.107c-.556-.28-1.109-.568-1.677-.818V2.69c.584.195 1.124.48 1.647.8.021.013.034.043.049.064h-.003z" fill="#EBB839"/><path d="M28.451 7.399c-.253-.269-.504-.544-.706-.855.086-.068.046-.129-.015-.184a.47.47 0 0 1-.143-.238c.049-.135.165-.128.275-.125.235.006.467.003.678-.126.165.126.305.272.41.453.1.177.076.229-.123.25-.156.018-.315.021-.467.049-.226.04-.242.113-.113.3.11.161.302.265.336.476h-.132z" fill="#DE9E30"/><path d="M2.369 13.714c-.016.177-.07.352-.046.532-.116.388-.138.788-.135 1.191-.223.007-.443.058-.669.052-.165-.006-.235-.073-.232-.235.003-.128 0-.26 0-.388a6.52 6.52 0 0 1 .168-1.112c.095-.01.186-.028.281-.024.214.002.422-.107.636-.013l-.003-.003z" fill="#FADC46"/><path d="M1.33 17.842c-.08-.269-.015-.553-.08-.825l.905-.083c-.01.278.033.553.08.825l-.905.083z" fill="#E7B036"/><path d="M2.234 17.76a4.15 4.15 0 0 1-.08-.826c.01-.103.059-.177.163-.207.043 1.03.201 2.044.412 3.052-.04 0-.08 0-.119.003-.131-.333-.18-.684-.254-1.03-.027-.333-.128-.657-.122-.993z" fill="#F4D042"/><path d="M2.188 15.44c0-.403.019-.803.135-1.191.04.015.08.027.12.043l-.13 1.405c-.125-.046-.11-.156-.125-.254v-.003z" fill="#E8B337"/><path d="M2.31 16.605s.004.02 0 .033c0-.012-.002-.021 0-.034z" fill="#F4D042"/><path d="M27.587 6.119a.479.479 0 0 0 .143.238c.058.058.101.116.015.183l-.821-.834c.03-.027.058-.058.088-.085.202.156.351.37.572.498h.003z" fill="#EFC13C"/><path d="m4.385 25.642-.532-.626c-.17-.37-.4-.706-.598-1.06-.126-.227-.092-.29.17-.297.215 0 .425-.037.633-.085l.492.705c.23.446.571.816.846 1.232-.324.146-.672.097-1.011.13z" fill="#FADC46"/><path d="m3.068 20.937.376 1.023c-.082.138-.012.275 0 .413-.165-.046-.327-.013-.489.021a.967.967 0 0 1-.467-.009c-.14-.34-.315-.666-.37-1.036.168 0 .34.006.507-.012.318-.034.349-.082.315-.397h.128v-.003z" fill="#E2A632"/><path d="M3.441 22.373c-.009-.138-.08-.275 0-.413.135.129.168.312.239.47.287.648.663 1.244 1.023 1.852h-.156c-.165-.235-.327-.47-.492-.706-.186-.412-.366-.824-.617-1.203h.003z" fill="#D78D29"/><path d="M12.066 30.182c.373.11.742.223 1.115.333-.122.128-.293.104-.44.12-.461.048-.92.121-1.384.127-.052 0-.104.025-.159.037-.336-.095-.669-.192-.95-.412.046-.058.11-.077.18-.083l1.638-.128v.006z" fill="#EBB839"/><path d="M32.298 19.08c-.061.231-.08.476-.168.702-.318-.015-.63.03-.941.082 0-.015-.003-.027-.006-.042l.146-.538c.037-.131.117-.226.254-.235.238-.016.48-.043.715.027v.003z" fill="#E7B036"/><path d="m31.183 19.825.006.042c-.018.074-.037.147-.058.22l-.413 1.378c-.052.104-.1.211-.152.315-.193.394-.318.822-.58 1.18-.032-.019-.062-.037-.09-.059.303-.709.633-1.402.862-2.138.1-.327.199-.657.3-.984l.128.046h-.003z" fill="#D78D29"/><path d="M2.369 13.714c-.214-.095-.425.018-.636.012-.094 0-.186.016-.28.025.036-.278.066-.56.167-.825.303-.034.605-.098.914-.082a4.702 4.702 0 0 1-.162.87h-.003z" fill="#F4D042"/><path d="M2.357 18.752c.07.346.119.7.253 1.03-.03.26.129.489.132.742-.285.07-.575.095-.865.12a7.087 7.087 0 0 1-.397-1.815c.29-.05.58-.089.877-.077z" fill="#D78D29"/><path d="M2.356 18.752a4.217 4.217 0 0 0-.876.077c-.123-.318-.132-.654-.15-.99l.904-.083c-.006.336.095.66.122.993v.003z" fill="#E2A632"/><path d="M1.877 20.643c.29-.024.58-.048.864-.119.116.113.126.281.199.416.034.314 0 .363-.315.397-.168.018-.339.01-.507.012a2.125 2.125 0 0 1-.241-.706z" fill="#DE9E30"/><path d="M8.555 29.482c-.223-.14-.449-.278-.672-.418-.085-.055-.171-.113-.278-.12-.052-.155-.208-.21-.312-.314-.113-.113-.103-.183.05-.232.195-.061.403-.052.607-.067.123-.01.245-.013.364-.05.382.202.712.486 1.106.667.12.146.318.17.455.287-.049.04-.1.076-.165.073-.293-.006-.577.089-.87.092-.104 0-.205.009-.288.082h.003z" fill="#D78D29"/><path d="M6.24 27.67c-.315-.164-.529-.433-.746-.702.388-.006.77-.107 1.161-.086.049.046.101.092.147.14.165.181.4.291.52.514-.361.046-.722.092-1.085.135h.003z" fill="#E7B036"/><path d="M7.324 27.536c-.12-.223-.354-.333-.52-.513-.045-.049-.097-.095-.146-.14-.049-.056-.092-.117-.147-.166-.113-.104-.204-.217-.18-.385.391.355.767.727 1.173 1.06.636.52 1.277 1.036 2.002 1.433a.201.201 0 0 1-.083.123c-.394-.18-.724-.468-1.106-.666-.324-.257-.639-.526-.993-.746z" fill="#F4D042"/><path d="M27.84 26.057c0-.048 0-.094-.003-.143l1.164-1.506c.04.012.08.027.12.04-.037.118-.12.21-.184.317-.052.082-.165.153-.095.266.068.107.18.058.281.052.22-.019.443-.104.666-.012-.119.326-.35.577-.583.824-.03-.052-.076-.079-.134-.073-.416.052-.85-.006-1.229.235h-.003z" fill="#E2A632"/><path d="M30.82 23.378c-.02.095-.035.186-.053.281-.1.03-.156.107-.19.199-.094.25-.277.37-.543.39-.238.019-.47.071-.706-.012l.492-.867c.082.049.171.046.26.043.247-.01.495-.022.74-.034z" fill="#EFC43D"/><path d="m29.817 23.369-.492.867c-.067.07-.137.138-.205.208-.04-.012-.08-.027-.119-.04.293-.504.572-1.017.895-1.503.031.019.061.037.089.058-.003.16-.131.266-.168.41zM25.32 28.367c.247-.21.51-.403.782-.58.15.152.336.076.507.067.275-.015.544-.067.822-.061-.107.235-.376.317-.504.531-.397.01-.788.061-1.18.107-.146.019-.299.061-.424-.064h-.003z" fill="#DE9E30"/><path d="M27.43 27.793c-.274-.006-.546.049-.821.06-.171.01-.354.086-.507-.066l1.283-1.155c.272.018.54-.025.81-.058.137-.019.256-.003.351.104-.266.302-.532.601-.794.904l-.321.21z" fill="#D78D29"/><path d="M28.546 26.68c-.095-.11-.217-.122-.351-.103-.27.036-.538.076-.81.058.113-.223.354-.345.455-.578.38-.241.813-.183 1.229-.235.06-.006.103.021.134.073-.193.285-.394.563-.657.789v-.003z" fill="#DE9E30"/><path d="m12.066 30.182-1.638.128c-.07.006-.134.025-.18.083-.357-.125-.724-.242-.999-.526a.272.272 0 0 1 .174-.052c.342.016.675-.08 1.014-.085a.25.25 0 0 0 .224-.122c.097 0 .195.009.287-.037l1.081.44.037.171z" fill="#E2A632"/><path d="M10.66 29.608a.263.263 0 0 1-.223.122c-.339.009-.672.1-1.014.085a.298.298 0 0 0-.174.052c-.193-.033-.345-.165-.529-.22l-.165-.165c.083-.073.184-.082.288-.082.293 0 .577-.098.87-.092.061 0 .116-.033.165-.073.26.125.523.247.783.373z" fill="#DB982D"/><path d="M29.817 23.369c.04-.144.165-.25.168-.41.263-.36.388-.785.58-1.179.052-.104.101-.21.153-.315.11.013.217 0 .324-.012.192-.018.391-.076.58.028-.04.177-.079.354-.116.534-.232.306-.302.685-.485 1.015-.068.119-.101.253-.202.354-.247.012-.495.024-.74.034-.088.003-.18.006-.26-.043l-.002-.006z" fill="#FADC46"/><path d="M31.623 21.477c-.19-.103-.385-.045-.58-.027-.11.012-.218.027-.325.012l.413-1.378c.021-.073.04-.146.058-.22.311-.052.623-.097.94-.082-.13.577-.228 1.164-.506 1.695z" fill="#EFC13C"/><path d="M24.046 30.148c-.355-.11-.706-.012-1.058.016-.394.03-.79.067-1.185.103a.342.342 0 0 1-.198-.036c.027-.022.048-.055.079-.061.617-.165 1.194-.474 1.857-.474.471 0 .939-.113 1.412-.082-.266.241-.547.455-.907.54v-.006z" fill="#EFC43D"/><path d="M6.328 26.332c-.024.168.068.281.18.385.056.05.098.11.147.165-.39-.021-.773.083-1.16.086-.19-.18-.38-.364-.572-.544-.015-.052-.034-.104-.049-.159a4.73 4.73 0 0 0 .78-.067c.216-.034.237-.122.097-.284-.107-.122-.23-.239-.29-.394.045 0 .091-.006.134-.006l.733.818z" fill="#EFC13C"/><path d="M5.46 25.52c.062.155.184.272.29.394.141.162.12.25-.097.284-.257.04-.516.073-.78.067a2.36 2.36 0 0 1-.488-.623c.34-.034.687.018 1.011-.131.022 0 .043.003.064.006v.003z" fill="#F4D042"/><path d="M30.575 20.653a9.471 9.471 0 0 1-.993 2.358c-.08-.058-.156-.03-.23.016-.094.058-.189.113-.284.168-1.472.843-2.95 1.674-4.417 2.532-1.442.844-2.888 1.68-4.336 2.509-1.216.696-2.426 1.405-3.639 2.105-.116.067-.195.15-.189.293-.88 0-1.748-.11-2.606-.318a.262.262 0 0 1 .128-.128c.81-.476 1.64-.92 2.444-1.411.737-.453 1.5-.868 2.249-1.302.862-.501 1.717-1.011 2.582-1.51 1.323-.76 2.649-1.512 3.972-2.272.641-.37 1.27-.767 1.918-1.125.59-.327 1.17-.666 1.754-1.002.363-.208.718-.434 1.088-.63.183-.097.327-.286.562-.28l-.003-.003z" fill="#D78D29"/><path d="M19.004 2.104c.651.08 1.293.184 1.913.404-.34.247-.718.43-1.079.641-1.044.608-2.09 1.22-3.131 1.827-.452.263-.908.52-1.357.785-.116.068-.253.123-.272.288-.714.17-1.432.326-2.114.617-1.384.59-2.618 1.387-3.645 2.499-.269.293-.482.635-.797.886-.064-.049-.128-.034-.193 0-.287.159-.583.306-.864.48-1.271.79-2.579 1.524-3.877 2.27-.236.134-.456.311-.73.372.128-.712.33-1.402.629-2.062a.653.653 0 0 0 .269-.1c.513-.294 1.03-.584 1.54-.88 1.646-.957 3.29-1.92 4.94-2.873 1.94-1.12 3.886-2.233 5.83-3.351.864-.498 1.726-1 2.584-1.503.131-.077.293-.135.351-.3h.003z" fill="#DC9A2E"/><path d="M19.005 2.104c-.062.168-.22.223-.352.3-.858.504-1.723 1.005-2.585 1.503-1.943 1.118-3.889 2.23-5.829 3.351-1.65.954-3.294 1.916-4.94 2.872-.51.297-1.027.59-1.54.88a.653.653 0 0 1-.269.101c.168-.477.345-.95.642-1.366.15-.006.275-.082.4-.155 1.408-.816 2.817-1.635 4.225-2.45 1.369-.792 2.738-1.58 4.103-2.372 1.482-.855 2.961-1.714 4.44-2.572.104-.061.223-.113.26-.25.485.012.974.024 1.445.158z" fill="#D78D29"/><path d="M30.575 20.653c-.235-.006-.376.183-.562.28-.37.193-.725.42-1.088.63-.584.336-1.164.675-1.754 1.002-.65.36-1.277.755-1.918 1.125-1.323.76-2.65 1.512-3.972 2.273-.865.498-1.72 1.008-2.582 1.509-.748.434-1.51.85-2.249 1.301-.803.492-1.634.935-2.444 1.412-.055.034-.104.07-.128.128-.336-.06-.672-.119-.99-.253.08-.15.241-.174.37-.248 1.76-1.02 3.52-2.035 5.276-3.052.107-.061.223-.113.26-.25.107-.028.21-.058.317-.083a10.446 10.446 0 0 0 4.962-2.621c.352-.33.633-.721.98-1.054.19.009.343-.095.496-.184 1.65-.956 3.297-1.918 4.946-2.875.122-.07.239-.165.395-.162-.062.385-.15.764-.318 1.119l.003.003zM16.484 30.631c-.006-.143.076-.226.19-.293 1.212-.703 2.422-1.412 3.638-2.105a470.757 470.757 0 0 0 4.335-2.509c1.464-.858 2.946-1.69 4.418-2.532.095-.055.19-.11.284-.169.077-.045.15-.073.23-.015-.22.486-.49.944-.828 1.357a.841.841 0 0 0-.37.122l-1.176.681c-.795.462-1.58.938-2.383 1.387-1.235.688-2.45 1.406-3.676 2.115-.868.5-1.735 1.005-2.597 1.515-.205.122-.43.214-.583.406-.495.077-.99.04-1.485.037l.003.003z" fill="#DB982D"/><path d="M17.972 30.594c.152-.195.382-.287.583-.406.862-.51 1.73-1.014 2.597-1.515 1.222-.71 2.441-1.427 3.676-2.115.803-.446 1.588-.925 2.383-1.387.39-.226.782-.455 1.176-.681a.83.83 0 0 1 .37-.122c-.422.66-.917 1.262-1.467 1.818-.223-.016-.357.159-.531.244-.804.403-1.562.89-2.347 1.326-.574.32-1.118.694-1.695 1.005-.67.36-1.32.758-1.98 1.137-.122.07-.232.15-.281.287-.639.21-1.305.287-1.968.373-.168.021-.336.058-.51.04l-.006-.004zM30.896 19.534c-.156-.006-.272.089-.395.162-1.65.957-3.296 1.916-4.946 2.875-.153.089-.305.19-.495.184.468-.697.969-1.375 1.31-2.148.315-.018.548-.22.795-.37.706-.424 1.44-.803 2.139-1.24.458-.288.968-.48 1.405-.804.14-.104.29-.183.47-.186-.06.516-.128 1.03-.28 1.527h-.003z" fill="#E2A632"/><path d="M21.568 2.727c.48.114.925.312 1.362.538-.046.03-.088.067-.134.095-.483.272-.95.571-1.445.825-.345.177-.657.421-1.002.596-.508.256-.966.592-1.48.837-.161.076-.347.177-.405.385a20.065 20.065 0 0 0-2.185-.098c.034-.208.217-.275.367-.36.727-.42 1.466-.82 2.187-1.247a71.248 71.248 0 0 1 2.738-1.57h-.003z" fill="#E8B337"/><path d="M8.54 27.96c-.443-.286-.87-.598-1.228-.992.052-.086.138-.128.223-.177.972-.569 1.943-1.137 2.912-1.708.162-.095.32-.183.504-.226.486.229.929.544 1.402.794 0 .116-.048.19-.15.247-.824.471-1.64.95-2.468 1.415-.394.22-.76.498-1.195.648z" fill="#FADC46"/><path d="M15.745 1.979c.327-.07.66-.037.993-.043a.362.362 0 0 1-.18.217c-1.296.752-2.591 1.506-3.89 2.255-1.653.956-3.309 1.91-4.965 2.866-.987.571-1.973 1.145-2.96 1.717-.077.043-.15.11-.245.043a5.4 5.4 0 0 1 .55-.899c.11.055.202-.006.29-.055 1.339-.773 2.68-1.543 4.018-2.319 1.155-.669 2.298-1.356 3.462-2.007.925-.516 1.83-1.066 2.746-1.592.077-.046.16-.085.184-.183h-.003zM3.545 21.606a7.386 7.386 0 0 1-.523-1.534.67.67 0 0 0 .29-.098c.84-.491 1.678-.986 2.524-1.466.257-.147.483-.373.81-.382.092.535.257 1.048.397 1.57-.027.01-.055.016-.076.028-.88.48-1.739.999-2.603 1.506-.26.15-.504.34-.82.376z" fill="#E7B036"/><path d="M24.843 4.332c.412.232.794.51 1.14.834-.016.128-.12.177-.214.232-.954.556-1.928 1.081-2.87 1.662-.204.125-.406.257-.647.302-.45-.223-.898-.449-1.35-.672.012-.116.107-.153.189-.201.388-.236.78-.465 1.176-.685.865-.48 1.717-.98 2.576-1.476v.004z" fill="#FADC46"/><path d="M4.498 9.037c.095.067.171 0 .245-.043.986-.571 1.973-1.146 2.96-1.717 1.653-.957 3.309-1.91 4.965-2.866 1.298-.752 2.59-1.503 3.89-2.255a.355.355 0 0 0 .18-.217c.274 0 .546.006.821.01-.033.137-.152.189-.26.25-1.478.858-2.96 1.717-4.439 2.572-1.368.792-2.737 1.58-4.103 2.371-1.408.816-2.817 1.635-4.225 2.45-.125.07-.248.15-.4.156.06-.268.201-.494.366-.711z" fill="#DE9E30"/><path d="M30.984 13.464c.174.452.131.94.235 1.402-.036.018-.076.034-.11.055l-3.443 1.989c-.12.067-.235.144-.382.144 0-.508 0-1.018.003-1.525.135-.085.263-.174.4-.254.825-.482 1.65-.968 2.478-1.442.26-.146.501-.345.82-.372v.003z" fill="#FADC46"/><path d="M31.177 18.004a.829.829 0 0 0-.47.186c-.438.324-.948.516-1.406.804-.7.437-1.433.812-2.139 1.24-.247.15-.48.354-.794.37.235-.523.403-1.07.58-1.61a.51.51 0 0 0 .275-.067c.956-.557 1.91-1.122 2.875-1.663.388-.216.749-.485 1.164-.66.034.471-.043.935-.085 1.403v-.003z" fill="#EBB839"/><path d="M2.71 18.633c-.115-.434-.143-.877-.164-1.323.082-.06.162-.128.25-.18.608-.348 1.216-.694 1.824-1.039.407-.229.82-.449 1.213-.696.23-.144.462-.27.712-.36-.055.506-.046 1.017-.055 1.524-.036.015-.076.03-.113.049-1.057.556-2.077 1.176-3.11 1.778-.174.1-.34.241-.56.244l.004.003z" fill="#FADC46"/><path d="M6.27 25.95a6.37 6.37 0 0 1-.901-1.081.453.453 0 0 1 .205-.196c.583-.333 1.158-.681 1.747-.999.495-.269.935-.63 1.458-.843.342.312.601.7.934 1.02a.763.763 0 0 1-.24.19c-.957.553-1.913 1.103-2.87 1.65-.125.073-.256.131-.336.262l.003-.002z" fill="#E8B337"/><path d="M18.797 26.51c-.034.137-.153.189-.26.25-1.76 1.017-3.52 2.035-5.276 3.052-.129.074-.29.098-.37.248-.379-.058-.733-.202-1.079-.358.062-.107.165-.165.266-.223l4.345-2.484c.134-.076.254-.165.309-.317.693.003 1.377-.08 2.065-.168z" fill="#E2A632"/><path d="M29.404 9.254c.242.4.495.797.654 1.24a.588.588 0 0 0-.266.1c-.473.279-.956.545-1.42.835-.584.364-1.22.632-1.772 1.045l-.596-1.277c.177-.153.394-.248.596-.364.623-.36 1.246-.72 1.87-1.078.308-.175.59-.404.938-.501h-.004z" fill="#DC9A2E"/><path d="M2.858 13.176c.275-.06.495-.238.73-.372 1.298-.746 2.606-1.479 3.877-2.27.278-.175.577-.321.865-.48.064-.037.128-.052.192 0l-.898 1.476a.537.537 0 0 0-.312.088c-.907.526-1.815 1.054-2.725 1.58-.642.37-1.286.733-1.931 1.1.006-.382.107-.749.205-1.115l-.003-.007z" fill="#E2A632"/><path d="M18.464 6c.058-.208.244-.309.406-.385.514-.245.972-.584 1.479-.837.345-.175.657-.419 1.002-.596.495-.254.963-.553 1.445-.825.05-.028.089-.061.135-.095.339.18.718.287 1.032.523-.18.22-.443.317-.678.452-1.045.608-2.096 1.207-3.144 1.809-.113.064-.229.134-.235.287-.48-.113-.96-.223-1.442-.336V6z" fill="#EFC13C"/><path d="M27.654 6.77c.3.284.547.608.77.953a.9.9 0 0 1-.232.198c-.67.388-1.342.776-2.008 1.17-.385.227-.788.416-1.155.67-.314-.294-.58-.63-.867-.947.238-.138.476-.27.712-.41.922-.55 1.875-1.05 2.78-1.634z" fill="#E2A632"/><path d="M4.547 23.625a6.211 6.211 0 0 1-.608-1.12.601.601 0 0 0 .266-.102c.822-.47 1.647-.938 2.462-1.417.242-.14.501-.257.694-.47l.614 1.163c-.128.064-.263.12-.388.19-.574.32-1.149.641-1.72.971-.446.257-.883.523-1.326.785h.006z" fill="#D78D29"/><path d="M15.744 1.979c-.024.098-.104.14-.183.183-.916.529-1.824 1.076-2.747 1.592-1.164.65-2.306 1.338-3.461 2.007-1.338.776-2.68 1.546-4.018 2.32-.088.051-.177.11-.29.054.165-.269.345-.525.574-.742.15-.01.275-.089.4-.159l5.925-3.428c.803-.464 1.607-.929 2.407-1.396.125-.074.284-.122.318-.3a4.249 4.249 0 0 1 1.075-.131z" fill="#EFC13C"/><path d="M2.653 14.292c.644-.367 1.29-.73 1.93-1.1.911-.523 1.819-1.051 2.726-1.58a.594.594 0 0 1 .312-.088c-.233.406-.346.864-.56 1.277a.554.554 0 0 0-.33.094c-.201.129-.406.257-.614.376-.904.523-1.805 1.048-2.713 1.558-.272.153-.516.376-.849.404-.018-.321.034-.636.095-.947l.003.006z" fill="#EBB839"/><path d="M16.731 26.678c-.055.152-.174.24-.308.317l-4.345 2.484c-.1.058-.204.116-.266.223a4.065 4.065 0 0 1-.907-.376c.104-.183.3-.235.464-.326 1.232-.712 2.442-1.458 3.697-2.133.116-.064.22-.14.263-.275.47-.003.935.055 1.402.086z" fill="#E7B036"/><path d="M2.558 15.239c.333-.028.574-.25.85-.404.91-.51 1.811-1.035 2.712-1.558.208-.119.413-.247.615-.375.1-.065.207-.101.33-.095l-.343 1.204c-.198.009-.366.11-.531.204-.853.498-1.699 1.002-2.554 1.494-.367.211-.712.465-1.116.608-.009-.357-.04-.718.037-1.075v-.003z" fill="#EFC43D"/><path d="M14.666 2.11c-.03.178-.192.226-.318.3-.8.467-1.604.932-2.407 1.396-1.974 1.143-3.948 2.288-5.924 3.428-.126.07-.248.15-.4.159.229-.379.528-.694.849-.993a.487.487 0 0 0 .232-.076l3.236-1.858c.507-.29 1.01-.584 1.518-.874.602-.345 1.2-.69 1.803-1.039.079-.045.15-.1.17-.195.4-.15.822-.193 1.238-.25l.003.002z" fill="#F4D042"/><path d="M29.405 9.254c-.349.097-.63.326-.938.5-.627.355-1.25.716-1.87 1.08-.202.115-.416.21-.596.363-.244-.297-.403-.648-.632-.954a.506.506 0 0 0 .256-.07l3.208-1.87c.239.288.434.602.575.95h-.003z" fill="#D78D29"/><path d="M19.906 6.336c.009-.153.122-.223.235-.287 1.048-.602 2.099-1.201 3.144-1.81.235-.137.498-.231.678-.451.306.162.614.317.88.544-.858.491-1.71.996-2.576 1.475-.397.22-.788.45-1.176.685-.082.048-.177.085-.19.201-.332-.119-.665-.235-.995-.354v-.003z" fill="#F4D042"/><path d="M31.265 16.601c-.415.175-.776.443-1.164.66-.965.541-1.919 1.106-2.875 1.662a.462.462 0 0 1-.275.068c.08-.358.159-.715.235-1.07.101 0 .187-.036.272-.085.214-.129.428-.248.642-.373.828-.48 1.653-.96 2.48-1.433.22-.125.422-.29.68-.336-.007.302.075.605.002.907h.003z" fill="#EFC43D"/><path d="M2.524 16.314c.404-.143.749-.397 1.116-.608.855-.489 1.701-.996 2.554-1.494.165-.095.333-.195.531-.204-.122.333-.067.693-.18 1.03-.25.09-.486.216-.712.36-.394.247-.806.464-1.213.696-.608.345-1.216.69-1.824 1.039-.088.052-.168.12-.25.18-.058-.333-.034-.666-.022-.999zM8.54 27.96c.434-.146.8-.427 1.195-.647.828-.461 1.647-.944 2.469-1.415.1-.058.152-.134.15-.247.348.14.696.278 1.044.419-.082.159-.25.204-.388.29-.755.473-1.53.904-2.303 1.347-.453.26-.908.507-1.336.807-.296-.156-.583-.324-.83-.55v-.003z" fill="#F4D042"/><path d="M20.45 30.182c.052-.137.162-.217.28-.287.66-.38 1.311-.776 1.98-1.137.578-.311 1.122-.684 1.696-1.005.785-.437 1.543-.923 2.347-1.326.174-.088.308-.263.531-.244-.96 1.084-2.099 1.937-3.354 2.636-1.073.6-2.197 1.079-3.401 1.35-.027.007-.055.007-.082.013h.003z" fill="#E7B036"/><path d="M9.371 28.514c.428-.3.883-.547 1.335-.807.774-.443 1.55-.874 2.304-1.347.138-.086.306-.131.388-.29l.944.302c-.012.107-.085.168-.17.217-.798.468-1.602.929-2.393 1.409-.538.326-1.118.583-1.629.956a3.716 3.716 0 0 1-.779-.443v.003z" fill="#EFC43D"/><path d="M7.364 20.518c-.192.214-.452.33-.693.47-.82.477-1.641.945-2.463 1.418a.603.603 0 0 1-.266.101c-.162-.287-.311-.577-.394-.898.315-.037.56-.226.819-.376.868-.504 1.723-1.026 2.603-1.506.024-.012.052-.018.076-.028.126.266.23.541.321.82h-.003z" fill="#DE9E30"/><path d="M13.429 2.36c-.025.096-.095.15-.171.196-.602.346-1.201.69-1.803 1.04-.507.29-1.011.583-1.518.873-1.079.62-2.157 1.237-3.236 1.858a.43.43 0 0 1-.232.076c.422-.513.923-.941 1.439-1.35 1.39-1.103 2.927-1.937 4.626-2.457.293-.088.595-.156.892-.235h.003z" fill="#FADC46"/><path d="M30.984 13.464c-.318.027-.559.223-.819.372-.83.474-1.652.96-2.477 1.442-.138.08-.266.168-.4.254-.037-.318-.07-.635-.108-.953.117-.074.23-.15.349-.22.996-.58 1.995-1.161 2.99-1.745a.476.476 0 0 1 .257-.06c.116.293.193.592.211.907l-.003.003z" fill="#F4D042"/><path d="M10.15 28.957c.51-.376 1.088-.633 1.629-.957.791-.48 1.595-.94 2.392-1.408.086-.049.159-.11.171-.217.342.015.654.156.987.217-.04.138-.144.214-.263.275-1.252.672-2.465 1.42-3.697 2.133-.165.094-.36.146-.464.326a3.676 3.676 0 0 1-.755-.37z" fill="#EBB839"/><path d="M10.95 24.86a1.782 1.782 0 0 0-.503.226c-.969.571-1.94 1.14-2.912 1.708-.082.049-.168.091-.223.177-.25-.144-.437-.358-.62-.575.058-.079.143-.125.223-.177.956-.602 1.968-1.112 2.918-1.723a1.05 1.05 0 0 1 .434-.18c.216.196.516.287.684.544zM31.26 15.694c-.26.046-.462.21-.68.336-.83.474-1.655.956-2.48 1.433-.214.125-.43.244-.642.373a.485.485 0 0 1-.271.085c0-.293.051-.58.094-.867.144 0 .263-.077.382-.144 1.149-.663 2.298-1.326 3.443-1.989.037-.021.074-.037.11-.055.019.275.07.547.043.825v.003z" fill="#F4D042"/><path d="M21.568 2.727a73.715 73.715 0 0 0-2.738 1.57c-.72.429-1.46.829-2.187 1.247-.15.086-.333.15-.367.36l-1.2.148c.018-.165.155-.22.271-.288.45-.265.905-.522 1.357-.785 1.045-.608 2.087-1.219 3.131-1.827.361-.21.74-.394 1.079-.641.217.073.45.1.65.216h.004z" fill="#E2A632"/><path d="M2.71 18.633c.22-.003.386-.143.56-.244 1.032-.602 2.053-1.222 3.11-1.778.037-.019.076-.034.113-.05l.046.826a.445.445 0 0 0-.193.07c-.727.418-1.45.84-2.184 1.246-.43.239-.831.544-1.302.706a3.196 3.196 0 0 1-.146-.776H2.71z" fill="#F4D042"/><path d="M26.56 5.664c.232.152.416.357.593.568-.116.131-.272.208-.419.293-.944.562-1.916 1.079-2.847 1.662a.685.685 0 0 1-.303.12 4.853 4.853 0 0 1-.58-.453c.186-.156.403-.26.61-.379.908-.525 1.819-1.054 2.726-1.58.098-.054.186-.115.22-.231z" fill="#EFC43D"/><path d="M26.56 5.664c-.03.116-.122.177-.22.232-.91.525-1.818 1.05-2.725 1.58-.208.119-.428.222-.611.378a6.351 6.351 0 0 1-.752-.492c.242-.049.446-.177.648-.302.94-.58 1.913-1.106 2.869-1.662.095-.055.198-.104.214-.232.213.14.415.296.577.498z" fill="#F4D042"/><path d="M8.782 22.828c-.523.214-.963.578-1.458.843-.59.321-1.167.666-1.747 1a.453.453 0 0 0-.205.195c-.174-.205-.345-.41-.455-.66a.55.55 0 0 1 .201-.171c.813-.474 1.62-.95 2.435-1.418.248-.143.48-.324.761-.406.184.183.324.4.47.61l-.002.007z" fill="#E2A632"/><path d="M26.597 12.474c.553-.413 1.191-.682 1.772-1.045.467-.29.947-.556 1.42-.834a.602.602 0 0 1 .266-.101c.086.254.248.473.297.742a.584.584 0 0 0-.33.095c-.517.3-1.036.59-1.55.892-.54.321-1.105.602-1.63.954-.114-.224-.178-.465-.251-.703h.006z" fill="#E7B036"/><path d="M23.584 8.306a.67.67 0 0 0 .303-.119c.932-.583 1.903-1.1 2.847-1.662.147-.088.303-.162.419-.293.208.143.336.357.498.54-.904.584-1.858 1.085-2.78 1.635-.236.14-.474.275-.712.41-.23-.129-.404-.318-.578-.51h.003z" fill="#EBB839"/><path d="M30.773 12.556a.505.505 0 0 0-.256.061c-.996.58-1.995 1.161-2.991 1.745-.12.07-.233.147-.349.22-.073-.22-.1-.45-.137-.678.067-.11.174-.175.28-.236.93-.534 1.858-1.066 2.79-1.598.144-.082.285-.17.459-.17.052.226.195.421.204.66v-.004zM2.858 19.41c.473-.166.87-.468 1.301-.707.733-.406 1.457-.83 2.185-1.246a.488.488 0 0 1 .192-.07c.037.247.07.494.107.742-.324.01-.55.235-.81.382-.846.477-1.683.974-2.523 1.466a.712.712 0 0 1-.29.098c-.098-.21-.15-.43-.166-.66l.004-.006z" fill="#EFC43D"/><path d="M30.569 11.896c-.175 0-.315.089-.459.171-.932.532-1.86 1.067-2.79 1.598-.106.061-.213.126-.28.236a3.47 3.47 0 0 1-.193-.724c.523-.352 1.088-.636 1.632-.954.513-.302 1.035-.593 1.549-.892a.577.577 0 0 1 .33-.095c.094.211.192.425.213.66h-.003z" fill="#EBB839"/><path d="m28.83 8.303-3.208 1.87a.505.505 0 0 1-.256.07 3.111 3.111 0 0 1-.34-.482c.367-.254.773-.443 1.155-.67.666-.394 1.338-.782 2.008-1.17a.852.852 0 0 0 .232-.198c.174.168.308.36.41.58zM8.311 22.217c-.28.082-.51.263-.76.406-.816.465-1.626.944-2.436 1.418a.523.523 0 0 0-.201.171 2.002 2.002 0 0 1-.367-.584c.443-.262.88-.528 1.326-.785.571-.327 1.146-.65 1.72-.971.125-.07.26-.129.388-.19.122.171.254.34.333.535h-.003z" fill="#DB982D"/><path d="M10.266 24.313a1.091 1.091 0 0 0-.434.18c-.953.611-1.961 1.121-2.917 1.723-.083.052-.165.098-.223.177a1.627 1.627 0 0 1-.422-.446c.08-.128.208-.189.336-.262.96-.547 1.916-1.097 2.869-1.65a.809.809 0 0 0 .241-.19c.217.117.385.29.55.468z" fill="#EFC43D"/><path d="M10.66 29.608c-.26-.126-.522-.248-.782-.373-.137-.116-.333-.144-.455-.287.043-.03.07-.07.083-.122l1.442.745c-.092.046-.19.034-.287.037z" fill="#E8B337"/><path d="M5.46 25.52c-.02 0-.042-.003-.063-.006-.275-.416-.618-.786-.847-1.232h.156l.89 1.229c-.047 0-.092.006-.135.006v.003z" fill="#DE9E30"/><path d="M2.94 20.94c-.073-.135-.082-.303-.199-.416 0-.253-.162-.482-.131-.742.04 0 .08 0 .12-.003.14.379.244.767.338 1.158H2.94v.003z" fill="#E8B337"/><path d="M10.266 24.313c-.168-.174-.333-.351-.55-.468-.333-.32-.592-.708-.934-1.02-.147-.21-.285-.428-.471-.611-.08-.199-.21-.364-.333-.535l-.614-1.164a7.22 7.22 0 0 0-.32-.819c-.141-.522-.31-1.035-.398-1.57-.037-.248-.07-.495-.107-.742l-.046-.825c.01-.51 0-1.018.055-1.525.11-.333.055-.697.18-1.03.113-.4.227-.8.343-1.203.21-.416.327-.874.559-1.277l.898-1.476c.315-.25.529-.596.797-.886 1.027-1.11 2.261-1.91 3.645-2.5.682-.29 1.4-.448 2.114-.616.4-.05.801-.098 1.201-.147.73-.015 1.458.033 2.185.098.48.113.96.223 1.442.336.333.119.666.235.996.354.449.223.898.45 1.35.672.242.177.486.349.752.492.183.165.376.318.58.452.175.19.349.38.578.51.284.321.553.657.867.948.095.174.217.327.34.482.229.306.39.657.632.954.199.424.397.852.596 1.277.073.238.137.476.25.703.046.247.095.491.193.724.037.229.064.458.137.678.037.318.07.635.107.953 0 .507 0 1.017-.003 1.525-.043.287-.091.574-.095.867l-.235 1.07c-.18.54-.345 1.087-.58 1.61-.342.773-.843 1.451-1.311 2.148-.348.33-.63.724-.98 1.054a10.433 10.433 0 0 1-4.962 2.621c-.107.024-.211.055-.318.083-.685.088-1.372.17-2.066.168-.467-.034-.934-.092-1.402-.086-.33-.061-.644-.202-.987-.217l-.944-.302-1.045-.419c-.473-.25-.916-.565-1.402-.794-.168-.26-.468-.352-.684-.544l-.01-.003zm16.783-8.02a10.136 10.136 0 0 0-10.15-10.147c-5.624 0-10.161 4.55-10.161 10.183 0 5.527 4.604 10.101 10.155 10.095 5.597-.006 10.159-4.558 10.153-10.131h.003z" fill="#8D6020"/><path d="M27.049 16.296c.006 5.573-4.558 10.125-10.153 10.131-5.551.006-10.155-4.568-10.155-10.095C6.74 10.7 11.278 6.15 16.903 6.15a10.136 10.136 0 0 1 10.149 10.147h-.003zM8.601 21.264c-.033.08.01.131.083.174.08.046.159.113.165.202.015.387.379.534.562.806.08.12.177.275.315.342.269.125.415.358.559.587.113.177.247.308.449.373.357.116.547.47.886.61.006 0 .01.01.012.016.086.168.23.217.41.266.24.067.467.22.663.36.207.15.412.232.647.266.125.018.22.046.284.165.065.12.178.137.306.11.143-.03.29-.04.403.082.101.11.205.153.34.046.048-.04.122-.033.18-.012.21.076.412.162.641.208.239.049.474.11.715.091.205-.015.394.09.593.046a3.878 3.878 0 0 1 1.512-.046c.107.019.19 0 .235-.113.043-.113.144-.143.239-.1.204.091.366.033.534-.086a.687.687 0 0 1 .27-.104c.35-.067.687-.195 1.044-.238.07-.01.14-.015.193-.067.146-.153.354-.199.531-.3.113-.064.193-.198.33-.201.208-.006.336-.129.477-.254.22-.195.406-.446.733-.492a.295.295 0 0 0 .235-.186c.065-.193.196-.324.352-.446.113-.089.207-.199.293-.318.159-.21.474-.269.556-.556.003-.012.037-.015.052-.028.202-.18.443-.326.45-.647 0-.113.06-.202.161-.272.232-.16.407-.394.523-.636.103-.21.24-.437.189-.702-.015-.068.043-.107.098-.144.238-.15.43-.62.363-.895-.046-.193-.018-.358.147-.48a.278.278 0 0 0 .104-.33c-.11-.333.195-.608.116-.932 0-.006.006-.012.01-.018a.176.176 0 0 0 .014-.177c-.06-.138-.024-.263.013-.4.085-.315.186-.62.042-.963-.107-.257-.216-.544-.052-.834.031-.055-.009-.12-.024-.18-.061-.22-.171-.428-.085-.678.036-.107.002-.309-.101-.33-.248-.052-.178-.187-.147-.333.01-.05-.01-.11-.021-.162a2.41 2.41 0 0 0-.395-.834.93.93 0 0 1-.152-.398c-.061-.357-.12-.724-.501-.91-.037-.018-.08-.07-.083-.11-.018-.144-.03-.272-.226-.266-.055 0-.07-.073-.067-.134 0-.04.024-.104-.012-.116-.18-.05-.162-.196-.18-.327a.185.185 0 0 0-.101-.147c-.51-.241-.786-.749-1.213-1.085-.03-.024-.04-.07-.058-.107-.022-.051-.046-.119-.101-.125-.275-.018-.312-.437-.636-.373-.015.004-.055-.042-.064-.073-.067-.186-.22-.238-.391-.247a.372.372 0 0 1-.315-.168c-.036-.052-.085-.098-.146-.11-.34-.065-.556-.346-.85-.486-.213-.104-.449-.248-.666-.232-.223.015-.342-.07-.492-.175a.595.595 0 0 0-.226-.094 8.541 8.541 0 0 0-1.041-.144.739.739 0 0 1-.242-.049c-.339-.146-.72-.125-1.048-.07-.269.046-.504.107-.764.012a.162.162 0 0 0-.1 0c-.294.07-.602.11-.874.23-.272.119-.566-.043-.82.119-.225-.129-.347.033-.46.177-.101.125-.208.17-.358.113-.147-.055-.272-.01-.412.052-.318.134-.483.516-.874.531-.022 0-.046.03-.064.05a.692.692 0 0 1-.324.17c-.184.052-.407.058-.468.309-.006.027-.046.067-.07.067-.226.012-.324.18-.43.342-.065.098-.172.129-.276.171-.195.086-.41.15-.534.346-.14.217-.306.403-.535.531a.478.478 0 0 0-.226.263c-.14.428-.623.648-.678 1.127-.003.034-.052.065-.083.089-.269.205-.385.513-.458.81-.07.287-.257.51-.342.785-.043.137-.174.241-.098.41.027.06-.012.103-.064.134-.043.024-.083.055-.08.11.019.235-.223.418-.131.672.01.021-.034.058-.046.088-.082.211-.208.413-.14.657.009.04.024.101.003.12-.168.174-.01.375-.052.543-.089.349-.034.666.07.996.043.138-.034.306 0 .45.125.568.01 1.17.235 1.723.006.012.01.03.003.04-.073.177.043.299.15.393.098.086.11.165.08.27-.034.122-.022.232.097.308.153.098.205.244.214.421.021.343.131.645.44.844.07.046.128.107.095.217H8.6z" fill="#DE9E30"/><path d="M8.598 21.26c.034-.11-.021-.17-.094-.216-.309-.199-.419-.501-.44-.843-.01-.178-.062-.324-.214-.422-.12-.076-.132-.183-.098-.309.027-.107.015-.183-.08-.269-.106-.094-.223-.216-.15-.394.007-.012 0-.027-.002-.04-.226-.552-.107-1.154-.235-1.723-.031-.143.045-.311 0-.449-.104-.33-.16-.644-.07-.996.042-.168-.117-.37.051-.543.019-.022.006-.08-.003-.12-.067-.244.058-.446.14-.657.013-.03.053-.067.046-.088-.091-.25.147-.437.132-.672-.003-.055.037-.086.08-.11.051-.03.091-.074.063-.135-.076-.168.055-.272.098-.41.086-.274.272-.497.342-.784.074-.297.19-.605.459-.81.033-.024.08-.055.082-.089.055-.48.538-.7.678-1.127a.488.488 0 0 1 .227-.263c.229-.128.397-.311.534-.531.126-.196.34-.26.535-.346.1-.045.208-.076.275-.17.107-.16.201-.33.43-.343.025 0 .065-.04.07-.067.059-.25.282-.257.468-.309a.654.654 0 0 0 .324-.17c.019-.02.043-.05.064-.05.391-.012.553-.397.874-.531.14-.058.266-.107.413-.052.152.058.26.012.357-.113.116-.144.238-.306.461-.177.254-.162.547 0 .82-.12.271-.119.58-.158.873-.229.034-.009.07-.009.1 0 .26.092.499.03.765-.012.327-.055.709-.076 1.048.07.08.034.159.043.241.05.351.02.697.076 1.042.143.08.015.162.049.226.095.15.103.269.192.492.174.217-.016.452.131.666.232.293.14.507.421.85.486.06.012.11.055.146.11.076.11.177.158.315.168.17.009.327.06.39.247.01.03.05.077.065.073.324-.064.36.355.635.373.052.003.077.074.101.125.015.037.028.086.058.107.428.336.703.844 1.213 1.085a.189.189 0 0 1 .1.147c.02.131 0 .278.181.327.037.009.015.076.012.116-.003.058.013.134.068.134.195-.006.21.125.226.266.006.04.046.092.082.11.382.186.44.553.501.91.025.147.07.275.153.398.18.256.32.528.394.834.012.052.03.11.022.162-.031.146-.101.28.146.333.107.021.138.223.101.33-.082.25.024.458.086.678.015.06.055.122.024.18-.165.29-.055.577.052.834.144.342.043.648-.043.963-.037.137-.073.262-.012.4a.176.176 0 0 1-.015.177c-.003.006-.013.012-.01.018.08.324-.226.6-.116.932.04.122.016.245-.104.33-.164.122-.192.287-.146.48.067.275-.125.745-.364.895-.055.037-.113.073-.097.144.054.265-.086.491-.19.702-.119.242-.29.474-.522.636-.101.07-.162.156-.162.272-.006.32-.248.47-.45.647-.015.013-.048.016-.051.028-.083.29-.398.345-.556.556-.089.116-.18.23-.294.318-.152.122-.287.25-.351.446a.291.291 0 0 1-.235.186c-.327.046-.514.296-.733.492-.141.125-.27.248-.477.254-.138.003-.217.137-.33.201-.177.101-.382.15-.532.3-.049.052-.122.058-.192.067-.358.043-.694.171-1.045.238a.706.706 0 0 0-.269.104c-.168.12-.33.18-.535.086-.091-.043-.192-.012-.238.1-.043.113-.128.132-.235.113a3.822 3.822 0 0 0-1.513.046c-.198.046-.39-.06-.592-.046-.242.019-.477-.045-.715-.091-.23-.046-.431-.131-.642-.208-.058-.021-.131-.024-.18.012-.135.107-.238.061-.34-.046-.112-.122-.259-.113-.402-.082-.126.027-.242.012-.306-.11-.064-.12-.159-.15-.284-.165a1.39 1.39 0 0 1-.648-.266c-.195-.14-.421-.293-.663-.36-.177-.05-.324-.098-.41-.266 0-.006-.008-.012-.011-.015-.34-.14-.529-.498-.886-.611-.2-.065-.337-.196-.45-.373-.143-.23-.293-.462-.559-.587-.14-.064-.235-.22-.314-.342-.18-.272-.547-.416-.563-.806-.003-.09-.085-.156-.165-.202-.073-.043-.116-.098-.082-.174h.018zm8.127 2.07c1.238-.004 1.644-.08 2.704-.477.083-.031.171-.062.257-.074a1.12 1.12 0 0 0 .504-.22c.085-.058.18-.098.269-.146.262-.147.553-.276.76-.486.251-.254.544-.465.761-.755.327-.437.792-.752 1.048-1.259.232-.458.477-.928.587-1.411.116-.517.318-1.02.312-1.58-.007-.534.058-1.07-.031-1.6-.095-.569-.193-1.137-.422-1.675-.094-.223-.284-.379-.345-.626a1.886 1.886 0 0 0-.556-.948c-.318-.293-.55-.66-.868-.95-.424-.388-.785-.87-1.405-.986-.052-.01-.098-.05-.147-.074-.232-.128-.452-.308-.702-.379-.337-.094-.673-.201-1.012-.284-.782-.186-1.567-.305-2.361-.067-.028.01-.058.018-.08.012-.36-.125-.696.064-1.017.135-.767.168-1.427.617-2.108.999-.37.208-.618.565-.944.828-.37.296-.64.69-.932 1.06-.26.327-.385.73-.575 1.094-.146.284-.302.601-.342.94-.037.285-.095.566-.14.844-.065.394-.05.779-.065 1.17-.012.275-.06.556-.012.822.064.36.159.721.254 1.078.192.728.623 1.342.971 1.992.19.352.495.593.78.865.4.385.781.776 1.255 1.088.54.36 1.161.522 1.73.806.122.061.256.107.39.126.523.073 1.045.186 1.485.134l-.003.003z" fill="#E2A632"/><path d="M16.725 23.332c-.44.052-.959-.064-1.485-.134a1.274 1.274 0 0 1-.39-.126c-.569-.284-1.19-.446-1.73-.806-.47-.312-.852-.703-1.256-1.088-.284-.272-.59-.513-.779-.864-.351-.651-.779-1.268-.971-1.992a14.86 14.86 0 0 1-.254-1.079c-.049-.263 0-.547.012-.822.016-.388 0-.776.065-1.17.045-.281.107-.562.14-.843.043-.34.196-.654.342-.941.19-.364.312-.767.575-1.094.293-.37.562-.764.931-1.06.327-.263.575-.623.945-.828.68-.382 1.34-.831 2.108-1 .324-.07.66-.256 1.017-.134.025.01.055-.003.08-.012.794-.238 1.576-.12 2.361.067.342.083.675.19 1.012.284.25.07.47.248.702.38.05.027.095.063.147.073.617.116.978.598 1.405.986.318.29.55.657.868.95.275.251.468.584.556.948.061.247.25.403.345.626.232.538.327 1.106.422 1.674.088.532.024 1.07.03 1.601.007.56-.195 1.06-.311 1.58-.107.483-.355.953-.587 1.411-.26.51-.72.822-1.048 1.26-.217.29-.51.497-.76.754-.205.207-.498.336-.761.486-.089.049-.183.088-.27.146a1.133 1.133 0 0 1-.503.22 1.234 1.234 0 0 0-.257.073c-1.06.398-1.466.474-2.704.477l.003-.003zm.333-3.162c2.127-.064 3.725-1.723 3.74-3.893.015-2.169-1.732-3.889-3.935-3.883-2.175.006-3.896 1.852-3.856 3.877.043 2.163 1.644 3.97 4.051 3.896v.003z" fill="#E8B337"/><path d="M17.061 20.17c-2.404.07-4.008-1.732-4.051-3.896-.04-2.025 1.68-3.87 3.856-3.877 2.203-.006 3.953 1.711 3.935 3.884-.015 2.166-1.613 3.828-3.74 3.892v-.003zm-1.402-3.844c-.003.587.638 1.262 1.194 1.268.789.01 1.32-.79 1.32-1.265 0-.583-.62-1.31-1.13-1.286-.883.04-1.326.44-1.384 1.283z" fill="#EFC13C"/><path d="M15.659 16.326c.061-.843.501-1.243 1.384-1.283.51-.024 1.134.703 1.13 1.287 0 .473-.534 1.274-1.32 1.264-.559-.006-1.197-.681-1.194-1.268z" fill="#F4D042"/><path d="M9.229 18.251c-.244-.69-.414-1.4-.622-2.103-.322-1.103-.633-2.206-.948-3.313-.01-.035-.028-.067.004-.12l1.637.859c.572.3 1.145.604 1.718.909.042.024.088.056.141.024.032.05.071.089.128.113.922.481 1.845.966 2.764 1.454.12.063.174.035.234-.078.417-.803.841-1.602 1.262-2.4.032-.057.06-.117.05-.185.116-.02.123-.13.165-.208.729-1.39 1.453-2.78 2.178-4.168.021-.04.043-.075.081-.142.195.364.375.7.552 1.04l1.729 3.309c.035.067.042.159.145.173-.01.092.039.166.078.24.41.782.827 1.56 1.233 2.344.071.135.138.127.251.067.64-.339 1.287-.671 1.927-1.01.322-.17.644-.35.965-.524l.863-.435c.07-.035.145-.063.216-.095 0 1.04-.018 2.075.014 3.114a1.135 1.135 0 0 1-1.153 1.146c-5.204-.014-10.411-.007-15.616-.007l.004-.004zm9.839-2.34c0-.417-.081-.736-.276-1.015-.343-.491-.894-.597-1.287-.261-.586.509-.7 1.488-.247 2.12.403.567.965.609 1.439.107.272-.29.35-.65.367-.955l.004.004z" fill="#590404" stroke="#935E02" stroke-width=".5" stroke-miterlimit="10"/><path d="M9.23 18.251c5.203 0 10.41-.007 15.615.007.69 0 1.17-.569 1.153-1.145-.032-1.036-.011-2.075-.015-3.115.768-.406 1.538-.816 2.305-1.223.025-.014.053-.014.082-.021-.014.3-.135.58-.22.87-.586 2.071-1.18 4.143-1.774 6.215-.014.05-.032.095-.046.145H9.72c-.163-.577-.33-1.153-.492-1.73v-.003z" fill="#590404" stroke="#935E02" stroke-width=".5" stroke-miterlimit="10"/><path d="M25.297 19.98h1.033c0 .64 0 1.283.007 1.923 0 .128-.043.17-.163.152-.035-.003-.07 0-.11 0-5.363 0-10.722 0-16.085.004-.205 0-.297-.032-.276-.265.025-.258.01-.52.01-.778h14.895c.318-.007.555-.194.65-.502.057-.177.015-.357.029-.537l.01.003zM15.6 13.408c.01.067-.018.127-.05.184-.42.799-.845 1.598-1.262 2.4-.06.113-.113.142-.233.078-.92-.488-1.842-.969-2.765-1.453a.39.39 0 0 1-.127-.113c.318-1.732.64-3.465.969-5.26.205.24.371.438.537.64.976 1.173 1.952 2.35 2.931 3.524zM24.905 14.528c-.322.174-.64.354-.966.524-.64.34-1.286.671-1.926 1.01-.117.061-.18.068-.251-.066-.407-.785-.82-1.563-1.234-2.344-.039-.074-.092-.149-.078-.24.827-.998 1.658-1.998 2.489-2.995.311-.375.626-.75.972-1.163.34 1.792.668 3.535.994 5.278v-.004z" fill="#590404" stroke="#935E02" stroke-width=".5" stroke-miterlimit="10"/><path d="M25.297 19.98c-.014.177.029.357-.028.537a.675.675 0 0 1-.65.503H9.723v-1.043H25.3l-.004.003z" fill="#590404" stroke="#935E02" stroke-width=".5" stroke-miterlimit="10"/><path d="M28.373 12.754s.007-.01.01-.018l-.013.014v.004h.003z" fill="#F6C144" stroke="#000" stroke-width=".5" stroke-miterlimit="10"/><path d="M19.068 15.91c-.018.305-.096.666-.368.955-.473.503-1.036.457-1.439-.106-.456-.636-.339-1.612.248-2.12.389-.337.94-.23 1.287.26.194.28.276.598.276 1.015l-.004-.003z" fill="#F2A23A" stroke="#000" stroke-width=".5" stroke-miterlimit="10"/></svg>