<svg width="38" height="38" fill="none" xmlns="http://www.w3.org/2000/svg"><path d="M2.754 19.244c.006-1.228.159-2.438.424-3.635.336-1.522.92-2.952 1.69-4.296.51-.886 1.097-1.73 1.775-2.502 1.13-1.283 2.414-2.38 3.886-3.254.91-.54 1.867-.987 2.87-1.341a14.917 14.917 0 0 1 2.786-.712c1.326-.205 2.664-.29 4.008-.144.52.055 1.039.113 1.546.226 1.02.226 2.017.52 2.991.908.645.26 1.277.531 1.88.874a15.83 15.83 0 0 1 2.566 1.79 15.841 15.841 0 0 1 5.31 9.4c.174 1.027.26 2.06.235 3.099-.019.813-.132 1.616-.26 2.417-.293 1.827-.96 3.522-1.867 5.123a15.582 15.582 0 0 1-2.181 2.936 15.538 15.538 0 0 1-3.56 2.85 15.95 15.95 0 0 1-3.641 1.568 16.95 16.95 0 0 1-2.784.56 15.016 15.016 0 0 1-3.354 0 29.49 29.49 0 0 1-1.284-.172 9.496 9.496 0 0 1-1.078-.25c-1.354-.382-2.658-.883-3.88-1.589a16.404 16.404 0 0 1-2.512-1.76 15.855 15.855 0 0 1-5.331-9.395c-.14-.889-.241-1.79-.235-2.7zm21.774 14.69a5.353 5.353 0 0 0 1.235-.54c.07-.022.146-.037.214-.07a19.75 19.75 0 0 0 1.766-1.049c.076-.052.14-.11.165-.201.363-.135.626-.413.91-.657.23-.18.458-.36.684-.547.062-.052.123-.11.14-.196a.454.454 0 0 0 .169-.113c.419-.406.834-.819 1.182-1.286.364-.486.773-.944 1.042-1.497.248-.312.477-.639.58-1.03.034-.033.08-.06.102-.104.253-.525.58-1.017.72-1.591.022-.028.05-.052.062-.08.22-.54.418-1.09.543-1.662.092-.422.272-.825.263-1.268.104-.324.14-.657.165-.993.095-.449.089-.904.086-1.36a.687.687 0 0 0 .04-.302c-.016-.437-.034-.874-.052-1.31a14.835 14.835 0 0 0-.523-3.016c-.122-.434-.238-.874-.446-1.28-.116-.51-.354-.972-.593-1.433a4.779 4.779 0 0 0-.617-1.122c-.137-.229-.202-.51-.455-.66a.728.728 0 0 0-.33-.494.344.344 0 0 0-.082-.226c-.44-.52-.844-1.067-1.333-1.54-.265-.257-.488-.556-.81-.755-.33-.278-.601-.626-.998-.825-.38-.373-.831-.645-1.28-.92-.29-.18-.566-.394-.896-.497a7.086 7.086 0 0 0-1.494-.7c-.217-.138-.464-.193-.702-.275-.205-.116-.437-.153-.663-.208-.245-.076-.486-.174-.743-.205-.305-.079-.605-.186-.913-.238-.981-.168-1.971-.263-2.967-.217-.238 0-.477-.003-.718-.003-.327 0-.657-.009-.975.08l-.345.027c-.525.046-1.033.186-1.552.272-.015.012-.03.024-.046.034h-.003c-.39.07-.773.177-1.146.308-.183.064-.39.083-.543.23a.997.997 0 0 0-.398.094c-.751.306-1.478.663-2.184 1.063-.235.132-.513.211-.678.45a3.957 3.957 0 0 0-1.112.788 1.504 1.504 0 0 0-.309.204 19.39 19.39 0 0 0-1.378 1.271c-.376.391-.748.786-1.045 1.247-.278.26-.467.583-.66.907-.226.312-.464.614-.577.993a.194.194 0 0 0-.14.138c-.059.198-.175.366-.276.543a.538.538 0 0 0-.076.273.46.46 0 0 0-.165.207c-.235.49-.44.987-.623 1.497-.083.226-.196.443-.162.694-.016.012-.028.027-.043.04-.037.103-.08.204-.104.311-.22.92-.43 1.842-.51 2.787l-.043 1.402c.015.44.01.88.049 1.317a16.105 16.105 0 0 0 1.378 5.2.98.98 0 0 0 .22.345c0 .086.024.162.064.235.3.553.605 1.1.969 1.617.244.464.614.843.916 1.264a.373.373 0 0 0 .199.14c.07.166.17.313.3.438.357.357.711.718 1.072 1.072.155.153.326.287.525.385.244.278.513.523.865.663.305.324.678.553 1.078.743.061.045.116.094.18.134.942.547 1.907 1.042 2.958 1.353.3.092.58.254.907.251a4.886 4.886 0 0 0 1.531.33c.086.116.223.098.34.113.904.11 1.808.168 2.718.131.526.043 1.042-.06 1.561-.094.129-.01.263-.012.383-.074.372-.055.751-.08 1.108-.21a8.292 8.292 0 0 0 1.116-.285c.412-.119.83-.22 1.207-.443l-.004-.015z" fill="#E38A33"/><path d="M13.374 4.411c.152-.143.357-.165.543-.229a7.383 7.383 0 0 1 1.146-.311c.019.085.04.165.156.143.55-.1 1.103-.205 1.653-.302.1-.019.137-.077.137-.171.321-.089.648-.08.975-.08.238 0 .477 0 .718.003.107.27.348.217.55.199.455-.046.901.043 1.35.082.58.05 1.152.174 1.727.275.107.019.207.03.256-.098.257.031.498.129.743.205-.095.14-.232.129-.367.092a1.6 1.6 0 0 0-.59-.037c-.372.04-.748.07-1.12.113-.435.046-.875.052-1.306.138-.094.018-.216.006-.244.143-.217.003-.43.006-.648.013-.116 0-.232.006-.308.116-.69-.01-1.372.094-2.06.131-.06-.104-.152-.122-.265-.104-.666.11-1.32.257-1.968.443-.403.116-.791.278-1.191.397a.236.236 0 0 0-.18-.027c-.337.113-.691.113-1.036.134-.355.022-.706.11-1.064.052.089-.122.226-.174.352-.244a14.531 14.531 0 0 1 1.772-.819c.125-.049.238-.107.278-.25l-.01-.007z" fill="#EBB839"/><path d="M23.322 34.377c-.364.12-.737.22-1.116.284-.055-.058-.125-.1-.198-.094-.309.027-.623.024-.917.15-.15.011-.3.027-.449.039-.498.043-.993.083-1.49.125-1.009.006-2.011-.1-3.01-.201-.461-.126-.923-.236-1.402-.263-.025-.061-.07-.095-.135-.113-.061-.019-.162-.01-.15-.104.013-.08.11-.067.175-.073.598-.055 1.194-.107 1.793-.16.134-.011.278.007.379-.115.428.015.85.104 1.277.07a.3.3 0 0 0 .177.043c.507.018 1.011-.013 1.515-.055.306-.028.615-.025.914-.104.532-.028 1.045-.171 1.567-.254.294.037.584 0 .874-.021.642-.055 1.28-.12 1.919-.18.082-.007.168-.007.22.076l-.782.376c-.367.06-.685.26-1.042.351-.098.025-.116.125-.122.217l.003.006z" fill="#FADC46"/><path d="M10.972 5.722c.358.061.712-.027 1.064-.052.345-.021.7-.021 1.035-.134.058-.022.123-.003.18.027-.757.37-1.536.697-2.254 1.149-.202.128-.431.18-.663.205-.404.045-.807.076-1.21.11-.07.006-.135.009-.193.055-.323.25-.65.504-.94.794-.05.049-.11.1-.074.177.043.089.128.058.202.049.232-.03.461-.07.696-.055.068.003.15-.018.184.058.033.076-.04.125-.086.171l-.944.89c-.046-.08-.12-.074-.199-.068-.134.012-.272.028-.409.021-.327-.015-.611.055-.819.33-.07.092-.162.123-.272.086.294-.461.666-.856 1.045-1.247.434-.449.901-.864 1.378-1.27.095-.08.196-.153.309-.205a.408.408 0 0 0 .363-.083c.303-.226.611-.44.92-.657.238-.097.44-.275.693-.345l-.006-.006zM33.578 13.779c.21.406.324.846.446 1.28.278.987.458 1.992.522 3.015h-.192c.024-.073.006-.146 0-.223-.021-.256-.1-.507-.086-.767-.04-.186-.076-.375-.122-.562-.03-.134-.11-.22-.26-.21-.137.009-.271.018-.409.036-.174.021-.253.132-.23.303.028.174.044.354.114.519l.083.99c-.025.305.051.605.042.91-.003.04-.009.077-.012.116-.073-.009-.11-.064-.147-.116V18.863a18.644 18.644 0 0 0-.57-3.627c.036-.015.072-.03.106-.046.107.07.055.272.232.281.193.01.382.022.572-.03.146-.04.207-.138.174-.275a10.496 10.496 0 0 0-.202-.688c-.037-.11-.113-.19-.241-.192-.239-.006-.48-.03-.706.076-.095-.18-.193-.357-.287-.537-.013-.083-.022-.162-.034-.245.156-.012.312-.034.468-.04.217-.009.443-.042.586.19.028.046.095.049.15.049h.003z" fill="#F4D042"/><path d="M3.588 14.775c-.034-.25.08-.468.162-.694.186-.507.39-1.008.623-1.497a.478.478 0 0 1 .165-.208c.156-.006.186-.14.248-.244.11-.177.18-.391.44-.416.28-.027.559-.048.843-.04-.028.138-.122.245-.184.367-.045.092-.107.19.028.266-.01.034-.015.067-.034.098-.314.516-.54 1.075-.754 1.637-.175.459-.321.932-.48 1.397-.046 0-.092-.006-.14-.01l.103-.442c.144-.26.202-.544.26-.832.122-.168.186-.366.257-.559.055-.146-.01-.226-.168-.216-.171.009-.343.024-.51.036-.101.01-.196.049-.245.132-.113.201-.241.4-.244.644-.098.125-.12.284-.184.425-.04.085-.082.153-.186.156z" fill="#D78D29"/><path d="M24.69 4.61a6.732 6.732 0 0 1 1.494.7c.006.14.098.213.205.287.379.26.819.424 1.149.757-.025.074-.076.117-.153.12-.458.006-.91.155-1.372.045-.015-.021-.027-.052-.049-.064-.522-.32-1.063-.605-1.646-.8l-.083-.046c.131-.217.358-.171.553-.196.217-.027.44.019.657-.03.061-.015.153-.003.159-.098.003-.076-.064-.12-.125-.15-.175-.08-.36-.14-.529-.229-.116-.06-.293-.088-.26-.29V4.61z" fill="#FADC46"/><path d="M19.695 4.57c.03-.137.15-.125.245-.143.43-.086.87-.089 1.304-.138.373-.04.749-.07 1.122-.113.198-.021.394-.015.59.037.137.036.271.052.366-.092.226.055.455.092.663.208a.26.26 0 0 0 .098.217c.13.113.073.177-.065.195-.305.04-.617.058-.92.107-.216.037-.457-.043-.644.14-.073-.008-.15-.015-.223-.033a14.291 14.291 0 0 0-2.539-.391l.003.006z" fill="#EFC43D"/><path d="M29.359 7.549c.32.196.543.498.81.755.491.473.895 1.02 1.331 1.54.058.067.083.14.083.226.012.06.021.122.037.18.128.492.128.495-.385.55a.672.672 0 0 1-.62-.254c-.059-.067-.107-.143-.187-.19-.034-.213-.226-.317-.336-.476-.128-.186-.113-.26.113-.3.153-.027.312-.03.468-.048.198-.022.223-.073.122-.25a1.524 1.524 0 0 0-.41-.453 7.115 7.115 0 0 0-.867-.926c-.11-.097-.178-.204-.16-.354z" fill="#D78D29"/><path d="m2.888 19.318.043-1.402c.067-.028.131-.058.199-.086 0 .128.006.26 0 .388-.003.162.067.23.232.235.226.01.446-.046.669-.052.015.098 0 .211.125.254 0 .302-.003.608-.006.91v.034c0 .027 0 .058.003.085-.104.031-.15.104-.162.208l-.904.083a1.005 1.005 0 0 0-.205-.66l.006.003zM27.538 6.351c-.33-.333-.773-.495-1.149-.757-.107-.074-.199-.147-.205-.288.333.104.605.318.895.498.447.278.902.547 1.28.92-.06.138.019.22.114.296.217.18.43.361.647.538.043.037.095.07.08.132-.018.07-.089.082-.15.091-.183.022-.367.04-.553.055-.104.01-.208.012-.26.125-.394-.213-.7-.546-1.057-.806-.122-.089-.06-.168.068-.183.244-.034.488-.058.733-.086.055-.006.116-.006.134-.07.016-.058-.036-.086-.073-.113-.165-.123-.309-.272-.504-.352z" fill="#EFC13C"/><path d="M28.238 7.965c.052-.114.155-.12.26-.126.183-.015.369-.033.552-.055.061-.006.132-.021.15-.091.015-.061-.037-.098-.08-.132-.216-.18-.43-.36-.647-.537-.095-.08-.174-.162-.113-.297.397.199.669.544.999.825-.019.15.049.257.159.355.317.28.605.592.867.925-.21.129-.443.129-.678.125-.11 0-.226-.009-.275.126-.223-.129-.373-.342-.571-.498-.18-.232-.455-.37-.623-.617v-.003z" fill="#E7B036"/><path d="M5.57 28.028c-.363-.513-.669-1.063-.968-1.616a.454.454 0 0 1-.064-.235c.046-.306-.135-.556-.208-.831a.966.966 0 0 0 .468.009c.161-.034.323-.064.488-.021.248.378.431.791.618 1.203a2.947 2.947 0 0 1-.633.086c-.263.003-.296.07-.171.296.199.355.428.69.599 1.06l-.128.05z" fill="#EFC13C"/><path d="M22.457 4.992c.183-.18.428-.104.645-.14.305-.053.614-.068.92-.108.137-.018.195-.085.064-.195a.253.253 0 0 1-.098-.217c.238.085.486.137.702.275-.033.201.144.229.26.29.168.092.352.153.529.23.064.027.128.07.125.149-.003.095-.095.085-.159.098-.217.049-.44.003-.657.03-.195.025-.425-.018-.553.196-.547-.202-1.084-.422-1.662-.535a.201.201 0 0 1-.116-.076v.003z" fill="#F4D042"/><path d="M16.805 33.855c-.101.122-.245.104-.379.116-.599.052-1.195.104-1.793.159-.065.006-.162-.006-.175.073-.015.092.089.086.15.104.064.018.11.052.134.113-.058.018-.116.034-.17.052-.327.006-.609-.156-.908-.25.067-.163-.07-.193-.165-.248-.144-.083-.33-.076-.452-.208.052-.012.104-.036.159-.036.464-.007.922-.08 1.384-.129.15-.015.318.01.44-.119.238.055.476.11.715.168.351.086.715.1 1.063.208l-.003-.003z" fill="#EFC43D"/><path d="M5.913 12.31c-.132-.077-.07-.175-.028-.267.061-.122.156-.226.184-.366.156-.132.217-.33.324-.495.073-.116.247-.226.165-.37-.083-.143-.266-.037-.404-.04-.394-.006-.727.101-.895.501a.244.244 0 0 1-.226.153c.113-.379.351-.681.577-.993.11.12.171.022.217-.06a.77.77 0 0 1 .526-.398c.3-.055.605-.116.913-.037-.009.104-.192.199-.021.315-.073.174-.19.318-.306.464-.4.492-.711 1.045-1.032 1.59l.006.002z" fill="#E8B337"/><path d="M34.473 21.05c-.024.336-.06.672-.165.993-.055 0-.11 0-.165-.003-.235-.073-.476-.046-.715-.027-.137.009-.216.103-.253.235l-.147.537-.128-.045c.134-.532.19-1.076.302-1.61.083-.006.135-.046.16-.126.317.006.638.028.946-.08.055.04.11.083.162.123l.003.003z" fill="#E2A632"/><path d="M3.13 17.827c-.068.027-.132.058-.2.085.08-.944.294-1.866.511-2.786.025-.107.07-.208.104-.312.015-.012.028-.027.043-.04.104 0 .146-.07.186-.155.064-.14.086-.3.183-.425.306.012.602-.113.91-.04-.054.288-.112.572-.259.832-.247-.028-.489.03-.736.045-.138.01-.217.089-.263.22-.07.208-.1.425-.146.639-.101.266-.132.544-.169.825a6.519 6.519 0 0 0-.168 1.112h.004z" fill="#E7B036"/><path d="M4.33 25.346c.074.275.25.525.208.83a.98.98 0 0 1-.22-.344 16.085 16.085 0 0 1-1.378-5.2c-.04-.437-.033-.877-.049-1.317.144.195.22.415.205.66.064.272 0 .556.08.825.018.333.027.669.15.99.051.623.186 1.225.396 1.814.04.25.12.486.242.706.055.37.229.697.37 1.036H4.33z" fill="#F4D042"/><path d="M9.448 31.991c-.352-.14-.62-.385-.865-.663-.043-.214-.195-.351-.348-.489-.067-.058-.14-.11-.15-.208.36-.045.721-.091 1.085-.134.351.22.666.489.993.745-.12.04-.242.04-.364.05-.204.015-.412.005-.608.067-.156.048-.162.116-.049.232.104.104.26.156.312.314 0 .031 0 .058-.003.09l-.003-.004z" fill="#DE9E30"/><path d="M7.27 9.944c-.31-.08-.615-.018-.914.037a.749.749 0 0 0-.526.397c-.046.083-.107.18-.217.061.19-.323.382-.644.66-.907.11.037.205.01.272-.086.208-.275.495-.345.819-.33.134.007.272-.009.41-.021.079-.006.149-.012.198.067-.223.27-.41.572-.7.782H7.27z" fill="#EFC13C"/><path d="M32.368 11.221c.247.352.468.718.617 1.122-.009.03-.027.064-.03.094-.046.321-.046.312-.364.361-.171.027-.357 0-.51.113-.086-.064-.12-.159-.159-.254-.046-.113-.089-.226-.208-.284l-.085-.33c.064-.058.143-.073.226-.082.143-.018.287-.034.427-.064.2-.046.224-.104.138-.29-.058-.126-.128-.248-.049-.392l-.003.006z" fill="#E7B036"/><path d="M5.03 11.43a.244.244 0 0 0 .226-.154c.168-.4.501-.51.895-.5.138 0 .32-.104.403.04.083.14-.091.253-.165.369-.103.165-.168.363-.323.495a6.487 6.487 0 0 0-.844.04c-.26.027-.333.238-.44.415-.064.104-.091.238-.247.244 0-.097.027-.186.076-.272.101-.177.22-.342.275-.543a.2.2 0 0 1 .14-.138l.004.003z" fill="#DE9E30"/><path d="M32.622 26.748c-.107.394-.333.718-.58 1.03-.108-.043-.169.018-.224.091-.049.068-.098.135-.183.156-.223-.091-.443-.006-.666.013-.1.009-.214.058-.281-.052-.07-.117.046-.184.095-.266.064-.104.15-.196.183-.318.067-.07.137-.137.204-.208.236.08.471.03.706.012.266-.02.45-.137.544-.39.034-.092.089-.169.19-.2l.009.13.003.002z" fill="#EBB839"/><path d="M31.626 12.05c.027.11.058.22.085.33h-.091c-.043-.062-.092-.12-.129-.184-.36-.639-.76-1.25-1.194-1.84h.131c.076.05.128.123.186.19a.686.686 0 0 0 .62.254c.514-.055.514-.058.386-.55-.016-.058-.025-.122-.037-.18.177.119.293.28.33.495 0 .14.055.265.113.39.11.23.055.321-.205.349-.122.012-.244.03-.366.043-.156.015-.208.082-.129.232.086.165.177.324.297.467l.003.003z" fill="#DB982D"/><path d="M28.818 31.417c-.284.244-.547.522-.91.657v-.086c-.004-.125-.077-.168-.19-.162-.156.006-.315.01-.47.021-.211.016-.422.043-.633.058-.058.003-.131 0-.15-.076-.015-.064.043-.095.086-.128.199-.138.4-.263.617-.373.125.125.281.082.425.064.39-.049.785-.098 1.18-.107l.045.132z" fill="#E2A632"/><path d="M32.078 12.917c.153-.116.34-.088.51-.113.318-.049.318-.04.364-.36.006-.034.021-.065.03-.095.236.461.477.922.593 1.433-.055 0-.122 0-.15-.05-.143-.231-.37-.198-.586-.189-.156.007-.312.025-.468.04-.15-.199-.22-.43-.293-.66v-.006z" fill="#EFC43D"/><path d="M31.626 12.05a2.576 2.576 0 0 1-.297-.468c-.079-.15-.027-.217.129-.232.122-.012.244-.03.367-.043.256-.027.311-.12.204-.348-.058-.126-.113-.25-.113-.391.254.15.318.43.455.66-.079.14-.009.262.05.39.085.187.06.245-.138.29-.14.031-.284.047-.428.065a.4.4 0 0 0-.226.082l-.003-.006z" fill="#E2A632"/><path d="M22.582 3.92c-.048.13-.15.119-.256.097-.575-.1-1.146-.226-1.726-.275-.45-.04-.893-.128-1.35-.082-.2.021-.44.073-.55-.199.998-.046 1.985.049 2.966.217.308.052.61.156.913.238l.003.003z" fill="#DE9E30"/><path d="M31.632 28.028c.089-.021.134-.088.183-.155.055-.077.12-.138.223-.092-.271.553-.678 1.011-1.041 1.497-.349.467-.764.88-1.183 1.286a.42.42 0 0 1-.168.113l-.046-.131c.266-.302.532-.602.795-.904.262-.226.464-.505.657-.789.232-.247.464-.498.583-.825h-.003zM13.044 33.766c.122.132.308.125.452.208.095.055.232.086.165.247-1.048-.311-2.016-.806-2.957-1.353-.065-.037-.123-.089-.18-.135.015-.042.027-.085.042-.125.183.055.336.187.528.22.276.284.64.4 1 .526.28.22.614.317.95.412z" fill="#F4D042"/><path d="M10.972 5.722c-.253.07-.455.244-.693.345-.055-.015-.113-.03-.168-.049.165-.241.443-.317.678-.449.706-.4 1.433-.754 2.184-1.063.129-.052.257-.1.397-.095-.04.144-.152.202-.277.25-.608.233-1.201.505-1.773.82-.125.07-.262.122-.35.244l.002-.003z" fill="#DC9A2E"/><path d="M34.143 22.04c.055 0 .11 0 .165.003.012.443-.17.846-.263 1.268-.122.571-.323 1.121-.543 1.662-.013.03-.04.055-.062.08l-.091-.083c.04-.177.08-.354.116-.535.278-.531.376-1.118.507-1.695.092-.226.107-.47.168-.703l.003.003z" fill="#D78D29"/><path d="M16.145 34.68c1.002.1 2.001.204 3.01.201v.162c-.911.037-1.816-.021-2.72-.131-.116-.015-.25.003-.34-.113l.047-.12h.003z" fill="#DC9A2E"/><path d="M27.91 31.988v.086c-.024.091-.088.15-.165.201-.57.376-1.158.733-1.765 1.048-.065.034-.141.046-.214.07l-.05-.128c.059-.052.117-.104.178-.156.36-.085.642-.3.907-.54.257-.04.44-.211.648-.343.147-.094.266-.244.464-.238h-.003z" fill="#DB982D"/><path d="M8.085 30.631c.006.101.083.15.15.208.153.138.305.275.348.489a2.044 2.044 0 0 1-.525-.385c-.36-.354-.718-.715-1.073-1.072a1.427 1.427 0 0 1-.3-.437c.028-.015.056-.034.086-.05l.569.545c.217.269.43.537.745.702z" fill="#D78D29"/><path d="M19.157 35.043v-.162c.498-.042.993-.082 1.491-.125.15-.012.3-.028.45-.04 0 .052.003.104.006.156-.12.061-.254.064-.382.074-.52.036-1.036.137-1.562.094l-.003.003z" fill="#E7B036"/><path d="M17.01 3.537c0 .095-.037.153-.138.172l-1.653.302c-.116.021-.137-.058-.156-.144h.003c.016-.012.03-.024.046-.033.52-.086 1.027-.226 1.552-.272l.345-.028v.003z" fill="#FADC46"/><path d="M6.772 29.385c-.028.015-.055.034-.086.049a.39.39 0 0 1-.199-.14c-.305-.422-.672-.801-.916-1.266.043-.015.085-.033.128-.048.177.207.355.415.532.626.128.235.29.443.489.623.015.052.033.104.048.159l.004-.003zM33.352 24.97l.092.082c-.14.575-.468 1.07-.721 1.592-.019.04-.067.068-.101.104 0-.043-.006-.085-.01-.128.02-.095.034-.187.053-.281.1-.101.134-.235.201-.355.184-.327.254-.708.486-1.014z" fill="#E2A632"/><path d="M34.354 18.078h.193c.018.436.036.873.051 1.31a.678.678 0 0 1-.04.303c-.054 0-.11 0-.161-.003l-.01-.654c.034-.321-.036-.636-.04-.953h.01l-.003-.003z" fill="#EFC13C"/><path d="m16.145 34.68-.046.119a4.885 4.885 0 0 1-1.53-.33c.057-.019.112-.034.17-.052.48.024.941.137 1.403.263h.003zM10.11 6.018c.056.016.114.03.169.05-.306.216-.617.43-.92.656a.408.408 0 0 1-.363.083c.32-.333.7-.584 1.112-.789h.003zM25.714 33.265c.015.043.034.086.049.128-.388.233-.8.413-1.235.541l-.045-.125.782-.376c.14-.082.293-.125.449-.168zM10.566 32.608c-.015.043-.028.086-.043.125-.4-.186-.77-.418-1.078-.742 0-.03 0-.058.003-.089.107.006.19.065.278.12.223.14.449.28.672.418l.165.165.003.003zM34.397 19.684c.055 0 .11 0 .162.003 0 .456.006.911-.086 1.36-.055-.04-.11-.082-.162-.122.037-.413.092-.825.086-1.24z" fill="#E7B036"/><path d="M24.486 33.809c.015.043.03.085.046.125-.376.223-.795.321-1.207.443.006-.092.024-.192.122-.217.357-.091.675-.29 1.042-.351h-.003z" fill="#EFC43D"/><path d="m29.597 30.546.046.131c-.018.086-.08.144-.14.196-.227.183-.456.363-.685.547l-.046-.132c.129-.213.397-.296.504-.531l.321-.211z" fill="#EBB839"/><path d="M21.1 34.872a2.62 2.62 0 0 0-.006-.156c.293-.122.608-.122.917-.15.073-.006.143.037.198.095-.357.132-.736.16-1.109.211z" fill="#F4D042"/><path d="m3.588 14.775-.043.04c.015-.013.028-.028.043-.04z" fill="#D78D29"/><path d="M15.11 3.837s-.031.025-.047.034a.44.44 0 0 1 .046-.034z" fill="#EBB839"/><path d="M30.297 10.36c.43.593.83 1.204 1.194 1.84.037.063.086.121.129.182.207.49.412.978.666 1.443.155.47.311.938.47 1.408.312 1.189.498 2.398.569 3.627V19.067c-.031.688-.059 1.378-.126 2.063-.113.534-.168 1.078-.302 1.61-.101.327-.199.657-.3.984-.226.736-.559 1.432-.861 2.138-.324.486-.602 1-.895 1.503-.389.501-.777 1.006-1.165 1.507l-.103.1c-.773.783-1.552 1.55-2.463 2.182a14.592 14.592 0 0 1-6.431 2.502 4.695 4.695 0 0 1-.223.034c-.791.085-1.583.091-2.377.085a16.25 16.25 0 0 1-2.487-.33c-.587-.122-1.149-.324-1.723-.476l-1.082-.44-1.442-.746c-.724-.397-1.366-.913-2.001-1.433-.407-.333-.785-.705-1.173-1.06l-.734-.819-.889-1.228c-.36-.605-.736-1.204-1.023-1.851-.07-.16-.107-.343-.239-.47l-.375-1.024c-.098-.391-.202-.78-.34-1.158-.21-1.008-.37-2.023-.412-3.052 0-.028 0-.058-.003-.086v-.034c0-.302.003-.608.006-.91l.128-1.405c.117-.605.211-1.213.358-1.812.159-.465.305-.938.48-1.397.213-.562.436-1.12.754-1.637.019-.028.022-.064.034-.098.32-.544.63-1.097 1.032-1.589.117-.143.233-.29.306-.464.458-.486.88-1 1.363-1.463 1.756-1.696 3.816-2.86 6.162-3.532.63-.18 1.271-.29 1.91-.434.687-.037 1.368-.144 2.059-.132a17.74 17.74 0 0 1 2.053.147c1.222.162 2.383.529 3.529.962.571.251 1.124.538 1.677.82.293.189.59.375.88.568.67.443 1.277.965 1.891 1.478l.82.834c.2.315.451.587.705.856h-.006zm2.117 4.497c-.021-.235-.116-.449-.214-.66-.049-.266-.214-.489-.296-.742-.16-.443-.413-.837-.654-1.24a3.588 3.588 0 0 0-.574-.95c-.101-.22-.236-.413-.41-.581a5.135 5.135 0 0 0-.77-.954c-.165-.183-.293-.397-.498-.54-.177-.211-.36-.416-.593-.569a2.373 2.373 0 0 0-.577-.498 5.874 5.874 0 0 0-1.14-.834c-.265-.226-.574-.382-.88-.543-.311-.239-.69-.343-1.032-.523-.437-.223-.883-.422-1.363-.538-.201-.116-.434-.14-.65-.217-.62-.22-1.265-.323-1.913-.403-.474-.134-.96-.147-1.445-.159-.275 0-.547-.006-.822-.009-.33.006-.663-.03-.993.043-.364 0-.724.037-1.075.131-.42.058-.84.098-1.238.25-.296.077-.599.144-.892.236-1.702.52-3.236 1.353-4.626 2.456-.516.41-1.017.838-1.439 1.35-.32.3-.62.618-.85.994-.231.217-.408.476-.573.742-.208.284-.4.578-.55.899-.165.213-.309.44-.367.711-.296.416-.474.89-.642 1.366-.299.66-.498 1.35-.629 2.062-.098.367-.199.734-.205 1.116-.06.311-.113.626-.094.947-.074.357-.046.715-.037 1.075-.01.333-.037.666.021 1 .019.445.05.888.165 1.322.01.266.074.522.147.776.015.23.067.452.165.66.11.532.296 1.042.522 1.534.086.32.233.614.395.898.168.391.357.773.607 1.121.086.217.217.407.367.584.11.247.284.455.455.66.263.39.553.76.902 1.081.107.18.256.321.421.446.184.217.37.431.62.575.358.394.783.706 1.229.993.25.226.537.394.83.55.24.186.505.32.78.443.238.146.486.28.755.37.287.161.59.287.907.375.348.156.7.3 1.078.358.318.134.654.195.99.253.856.205 1.724.315 2.606.318.495.006.993.043 1.485-.037.171.019.343-.018.51-.04.664-.085 1.33-.161 1.968-.372a.757.757 0 0 0 .083-.012c1.203-.272 2.325-.752 3.4-1.35 1.259-.7 2.398-1.556 3.355-2.637a10.887 10.887 0 0 0 1.466-1.818c.342-.413.608-.871.828-1.357.44-.74.77-1.527.993-2.359.171-.354.257-.733.318-1.118.153-.498.223-1.014.281-1.527.043-.468.122-.932.086-1.403.07-.302-.01-.605-.003-.907.027-.278-.025-.55-.043-.825-.104-.464-.058-.953-.235-1.402a2.891 2.891 0 0 0-.211-.908c-.01-.238-.15-.437-.205-.66l.003-.003z" fill="#8D6020"/><path d="M16.68 4.827c-.636.143-1.28.253-1.91.434-2.343.672-4.403 1.836-6.163 3.531-.48.465-.904.978-1.362 1.464-.171-.116.012-.208.021-.315.29-.21.477-.513.7-.782.315-.296.632-.59.944-.889.049-.046.122-.092.085-.171-.033-.076-.119-.052-.183-.058-.235-.015-.464.024-.696.055-.074.009-.16.04-.202-.049-.037-.076.027-.128.073-.177.29-.29.617-.544.941-.795.058-.045.122-.048.193-.055.403-.033.806-.064 1.21-.11.232-.024.461-.079.663-.204.718-.452 1.494-.782 2.254-1.149.4-.12.789-.278 1.192-.397a17.424 17.424 0 0 1 1.967-.443c.114-.019.205 0 .266.104l.006.006z" fill="#FADC46"/><path d="M24.32 5.805c-1.145-.434-2.306-.801-3.528-.963a17.74 17.74 0 0 0-2.053-.147c.076-.11.192-.113.308-.116.217-.006.431-.006.648-.012.859.058 1.705.177 2.539.391.073.019.15.022.223.034.03.036.067.067.116.076.575.113 1.115.333 1.662.535l.083.046V5.8l.003.004z" fill="#DB982D"/><path d="M20.685 33.656a14.592 14.592 0 0 0 6.431-2.502c.91-.633 1.69-1.4 2.463-2.182l.104-.1c0 .049 0 .094.003.143-.101.232-.343.355-.456.578l-1.283 1.154c-.272.178-.534.37-.782.581a5.1 5.1 0 0 0-.617.373c-.046.03-.101.06-.086.128.019.08.092.08.15.076.21-.015.422-.04.632-.058.156-.012.315-.015.47-.021.114-.003.187.04.19.162-.198-.01-.317.144-.464.238-.208.132-.391.303-.648.342-.473-.03-.94.08-1.411.083-.663 0-1.24.312-1.858.473-.03.01-.052.04-.08.062l-1.197.37c-.522.082-1.036.225-1.567.253v-.153h.006z" fill="#E8B337"/><path d="M22.252 33.558c.4-.122.798-.247 1.198-.37a.34.34 0 0 0 .198.037c.395-.033.789-.073 1.186-.104.351-.027.703-.125 1.057-.015-.058.052-.116.104-.177.156a1.813 1.813 0 0 0-.45.168c-.051-.086-.137-.086-.22-.076-.638.058-1.28.125-1.918.18-.29.024-.58.061-.874.021v.003z" fill="#F4D042"/><path d="M13.875 32.972c.577.153 1.14.354 1.723.476.822.172 1.65.285 2.487.327 0 .05 0 .098-.003.147-.428.034-.853-.055-1.277-.07-.346-.107-.712-.122-1.063-.208a59.576 59.576 0 0 0-.715-.168c-.373-.11-.743-.223-1.116-.333a15.735 15.735 0 0 0-.036-.171z" fill="#D78D29"/><path d="M18.082 33.925c0-.049 0-.098.003-.147.794.003 1.586 0 2.377-.085.073-.01.15-.022.223-.034v.153c-.3.08-.608.076-.913.104-.505.043-1.009.073-1.516.055a.331.331 0 0 1-.177-.043l.003-.003z" fill="#E2A632"/><path d="M34.397 19.684c.006.416-.049.828-.086 1.24-.308.108-.629.086-.947.08.07-.605.15-1.21.113-1.82.003-.04.01-.077.013-.117.299-.009.601.019.898-.04l.009.654v.003z" fill="#D78D29"/><path d="M32.695 14.36c.226-.108.468-.083.706-.077.128 0 .205.082.241.192.074.226.144.456.202.688.034.14-.028.235-.174.275-.19.052-.379.04-.572.03-.177-.009-.125-.214-.232-.28-.012-.08-.015-.163-.036-.24-.055-.195-.144-.378-.135-.586v-.003z" fill="#FADC46"/><path d="m33.444 18.16-.083-.99c.303-.024.605-.028.905-.083-.016.26.067.51.085.767.006.074.025.147 0 .223h-.009a3.188 3.188 0 0 0-.901.083h.003z" fill="#E7B036"/><path d="M33.444 18.16c.296-.07.598-.1.9-.083.004.318.074.633.04.954-.296.058-.598.03-.898.04.01-.306-.067-.606-.042-.911z" fill="#E2A632"/><path d="M34.269 17.087c-.3.059-.602.059-.905.083-.073-.165-.088-.345-.113-.52-.024-.17.052-.277.23-.302.134-.018.271-.027.409-.037.15-.009.229.08.26.211.045.187.082.376.122.563l-.003.002z" fill="#EFC43D"/><path d="M33.474 19.183c.037.611-.042 1.216-.113 1.821-.024.08-.076.12-.159.126.068-.688.092-1.375.126-2.063.04.052.076.107.146.116z" fill="#E8B337"/><path d="M32.286 13.825c-.257-.465-.461-.954-.666-1.443h.091c.12.059.166.171.208.285.037.094.074.189.16.253.072.232.143.465.292.66.013.083.022.162.034.245h-.12z" fill="#E2A632"/><path d="M32.286 13.825h.119c.095.18.192.357.287.537-.009.208.083.394.135.587.021.076.024.159.036.238-.036.015-.073.03-.107.046-.155-.47-.311-.938-.47-1.409z" fill="#EBB839"/><path d="M3.466 15.89c.045-.214.076-.43.146-.639.046-.131.122-.213.263-.22.244-.015.489-.073.736-.045-.033.146-.07.296-.104.443-.055.122-.036.268-.128.378-.308-.015-.608.052-.913.083z" fill="#EFC13C"/><path d="M4.868 14.155c-.309-.074-.605.051-.91.04 0-.245.128-.444.244-.646.049-.085.144-.125.244-.13.171-.016.343-.028.51-.037.16-.01.22.073.169.216-.07.193-.135.388-.257.56v-.003z" fill="#DE9E30"/><path d="M4.38 15.807c.088-.11.072-.256.127-.379.046 0 .092.007.141.01-.147.598-.241 1.207-.357 1.812-.04-.016-.08-.028-.12-.043-.027-.18.03-.355.046-.532.077-.284.14-.574.162-.87v.002z" fill="#E2A632"/><path d="M28.772 8.667c-.614-.513-1.225-1.032-1.891-1.478-.29-.193-.587-.38-.88-.569l.015-.107c.462.11.914-.04 1.372-.046.076 0 .128-.045.153-.119.195.08.339.23.504.352.037.027.088.055.073.113-.018.067-.08.064-.134.07a59.76 59.76 0 0 0-.733.086c-.132.018-.19.094-.068.183.36.26.663.593 1.058.806.168.248.442.385.623.618-.03.027-.058.058-.089.085l-.003.006z" fill="#F4D042"/><path d="m26.013 6.516-.015.107c-.556-.28-1.11-.568-1.677-.819v-.152c.583.195 1.124.48 1.646.8.022.012.034.043.05.064h-.004z" fill="#EBB839"/><path d="M30.297 10.36c-.254-.269-.504-.544-.706-.856.085-.067.046-.128-.015-.183a.471.471 0 0 1-.144-.238c.049-.135.165-.129.275-.125.235.006.468.003.678-.126.165.126.306.272.41.452.1.178.076.23-.122.251-.156.018-.315.021-.468.049-.226.04-.241.113-.113.3.11.161.303.265.336.476h-.131z" fill="#DE9E30"/><path d="M4.214 16.675c-.015.177-.07.351-.046.532-.116.388-.137.788-.134 1.191-.223.006-.443.058-.67.052-.164-.006-.235-.073-.232-.235.003-.128 0-.26 0-.388.025-.376.08-.746.168-1.112.095-.01.187-.028.282-.025.213.003.421-.107.635-.012l-.003-.003z" fill="#FADC46"/><path d="M3.175 20.803c-.079-.27-.015-.553-.079-.825L4 19.895c-.009.278.034.553.08.825l-.905.083z" fill="#E7B036"/><path d="M4.08 20.72a4.148 4.148 0 0 1-.08-.825c.01-.104.058-.177.162-.207.043 1.03.202 2.044.413 3.052-.04 0-.08 0-.12.003-.13-.333-.18-.685-.253-1.03-.028-.333-.128-.657-.122-.993z" fill="#F4D042"/><path d="M4.034 18.401c0-.403.018-.803.134-1.191.04.015.08.027.12.043l-.129 1.405c-.125-.046-.11-.156-.125-.254v-.003z" fill="#E8B337"/><path d="M4.156 19.565s.003.022 0 .034c0-.012-.003-.021 0-.034z" fill="#F4D042"/><path d="M29.432 9.08a.48.48 0 0 0 .144.238c.058.058.1.116.015.183l-.822-.834c.03-.027.058-.058.089-.085.201.156.351.37.571.498h.003z" fill="#EFC13C"/><path d="M6.23 28.603c-.177-.208-.354-.416-.531-.627-.171-.37-.4-.705-.599-1.06-.125-.226-.092-.29.171-.296.214 0 .425-.037.633-.086l.491.706c.23.446.572.816.847 1.231-.324.147-.672.098-1.012.132z" fill="#FADC46"/><path d="m4.914 23.898.376 1.023c-.083.138-.013.275 0 .413-.165-.046-.327-.012-.49.021a.967.967 0 0 1-.467-.01c-.14-.338-.314-.665-.37-1.035.169 0 .34.006.508-.012.318-.034.348-.082.314-.397h.129v-.003z" fill="#E2A632"/><path d="M5.287 25.334c-.01-.138-.08-.275 0-.413.134.128.168.312.238.47.287.648.663 1.244 1.024 1.852h-.156c-.165-.235-.327-.47-.492-.706-.187-.412-.367-.825-.617-1.203h.003z" fill="#D78D29"/><path d="M13.911 33.143c.373.11.743.223 1.116.333-.123.128-.294.104-.44.119-.462.049-.92.122-1.384.128-.052 0-.104.025-.16.037-.335-.095-.668-.192-.95-.413.046-.058.11-.076.18-.082l1.638-.128v.006z" fill="#EBB839"/><path d="M34.144 22.04c-.062.232-.08.477-.169.703-.317-.015-.629.03-.94.082 0-.015-.004-.027-.007-.043l.147-.537c.037-.132.116-.226.254-.236.238-.015.48-.042.715.028v.003z" fill="#E7B036"/><path d="m33.028 22.786.006.042a5.708 5.708 0 0 1-.058.22l-.412 1.378c-.052.104-.101.211-.153.315-.192.394-.318.822-.58 1.18-.031-.02-.062-.037-.09-.059.303-.709.633-1.402.862-2.138.101-.327.2-.657.3-.984l.128.046h-.003z" fill="#D78D29"/><path d="M4.214 16.675c-.214-.095-.425.018-.635.012-.095 0-.187.016-.281.025.036-.278.067-.56.168-.825.302-.034.605-.098.913-.083a4.702 4.702 0 0 1-.162.871h-.003z" fill="#F4D042"/><path d="M4.202 21.713c.07.345.12.7.254 1.03-.03.26.128.489.131.742-.284.07-.574.095-.865.12a7.086 7.086 0 0 1-.397-1.816c.29-.048.58-.088.877-.076z" fill="#D78D29"/><path d="M4.202 21.713a4.217 4.217 0 0 0-.877.077c-.122-.318-.131-.654-.15-.99l.905-.083c-.006.336.094.66.122.993v.003z" fill="#E2A632"/><path d="M3.722 23.604c.29-.024.58-.049.865-.119.116.113.125.281.198.416.034.314 0 .363-.314.397-.168.018-.34.009-.507.012a2.125 2.125 0 0 1-.242-.706z" fill="#DE9E30"/><path d="M10.4 32.443c-.222-.14-.448-.278-.671-.418-.086-.055-.171-.113-.278-.12-.052-.155-.208-.21-.312-.314-.113-.113-.104-.184.049-.232.195-.062.403-.052.608-.068.122-.009.244-.012.363-.049.382.202.712.486 1.106.666.12.147.318.172.456.288-.05.04-.101.076-.165.073-.294-.006-.578.089-.871.092-.104 0-.205.009-.287.082h.003z" fill="#D78D29"/><path d="M8.085 30.631c-.315-.165-.528-.433-.745-.702.388-.006.77-.107 1.16-.086.05.046.101.092.147.14.165.181.4.291.52.514-.36.046-.721.092-1.085.134h.003z" fill="#E7B036"/><path d="M9.17 30.497c-.12-.223-.355-.333-.52-.513-.046-.05-.098-.095-.146-.14-.05-.056-.092-.117-.147-.166-.113-.104-.205-.217-.18-.385.39.355.766.727 1.173 1.06.635.52 1.277 1.036 2.001 1.433a.201.201 0 0 1-.083.123c-.394-.18-.724-.468-1.106-.666-.323-.257-.638-.526-.992-.746z" fill="#F4D042"/><path d="M29.686 29.018c0-.049 0-.095-.003-.143l1.164-1.507c.04.013.08.028.119.04-.037.12-.12.21-.184.318-.051.082-.165.153-.094.266.067.107.18.058.28.052.22-.019.444-.104.667-.013-.12.327-.351.578-.584.825-.03-.052-.076-.08-.134-.073-.416.052-.85-.006-1.228.235h-.003z" fill="#E2A632"/><path d="m32.664 26.339-.051.28c-.101.032-.156.108-.19.2-.095.25-.278.37-.544.39-.238.019-.47.07-.705-.012.165-.29.326-.577.492-.867.082.049.17.046.26.042.247-.009.494-.021.738-.033z" fill="#EFC43D"/><path d="m31.662 26.33-.491.867c-.068.07-.138.138-.205.208-.04-.012-.08-.027-.12-.04.294-.504.572-1.017.896-1.503.03.019.061.037.088.058-.003.16-.13.266-.168.41zM27.165 31.328c.248-.21.51-.403.782-.58.15.152.337.076.508.067.275-.016.543-.067.822-.061-.108.235-.376.317-.505.531-.397.01-.788.061-1.179.107-.147.018-.3.061-.425-.064h-.003z" fill="#DE9E30"/><path d="M29.276 30.754c-.275-.006-.547.049-.822.06-.17.01-.354.086-.507-.066l1.284-1.155c.271.018.54-.025.81-.058.137-.019.256-.003.35.104-.265.302-.531.601-.794.904l-.32.21z" fill="#D78D29"/><path d="M30.392 29.642c-.095-.11-.218-.123-.352-.104-.269.036-.538.076-.81.058.113-.223.355-.346.456-.578.379-.241.812-.183 1.228-.235.061-.006.104.021.134.073-.192.284-.394.563-.656.789v-.003z" fill="#DE9E30"/><path d="m13.911 33.143-1.637.128c-.07.006-.135.025-.18.083-.358-.126-.724-.242-1-.526a.273.273 0 0 1 .175-.052c.342.015.675-.08 1.014-.085a.25.25 0 0 0 .223-.123c.098 0 .195.01.287-.036l1.082.44.036.17z" fill="#E2A632"/><path d="M12.506 32.569a.263.263 0 0 1-.223.122c-.34.009-.672.1-1.014.085a.299.299 0 0 0-.175.052c-.192-.033-.345-.165-.528-.22l-.165-.165c.082-.073.183-.082.287-.082.293 0 .577-.098.87-.092.062 0 .117-.033.166-.073.26.125.522.247.782.373z" fill="#DB982D"/><path d="M31.662 26.33c.04-.144.165-.25.168-.41.263-.36.388-.785.58-1.18.053-.103.102-.21.154-.314.11.012.217 0 .324-.012.192-.018.39-.076.58.027-.04.178-.08.355-.116.535-.232.306-.303.684-.486 1.015-.067.119-.1.253-.202.354-.247.012-.495.024-.739.034-.088.003-.18.006-.26-.043l-.003-.006z" fill="#FADC46"/><path d="M33.468 24.439c-.19-.104-.385-.046-.58-.028-.11.012-.217.027-.324.012l.412-1.378c.022-.073.04-.146.058-.22.312-.052.623-.098.941-.082-.131.577-.229 1.164-.507 1.696z" fill="#EFC13C"/><path d="M25.891 33.11c-.354-.11-.706-.013-1.057.014-.394.031-.791.068-1.186.104a.341.341 0 0 1-.198-.036c.027-.022.049-.055.08-.061.616-.165 1.194-.474 1.857-.474.47 0 .938-.113 1.412-.082-.266.24-.547.455-.908.54v-.006z" fill="#EFC43D"/><path d="M8.174 29.293c-.025.168.067.281.18.385.055.05.098.11.147.165-.391-.021-.773.083-1.161.086-.19-.18-.38-.364-.572-.544l-.049-.159a4.73 4.73 0 0 0 .78-.067c.216-.034.238-.122.097-.284-.107-.122-.229-.239-.29-.395.046 0 .092-.006.135-.006l.733.82z" fill="#EFC13C"/><path d="M7.306 28.48c.061.156.183.273.29.395.14.162.12.25-.098.284-.256.04-.516.073-.779.067a2.36 2.36 0 0 1-.489-.623c.34-.034.688.018 1.012-.132a.45.45 0 0 1 .064.006v.003z" fill="#F4D042"/><path d="M32.42 23.613a9.472 9.472 0 0 1-.993 2.36c-.08-.059-.156-.031-.229.015-.095.058-.19.113-.284.168-1.473.843-2.951 1.674-4.418 2.532-1.442.844-2.887 1.68-4.335 2.509-1.216.696-2.426 1.405-3.64 2.105-.115.067-.195.15-.189.293-.88 0-1.747-.11-2.606-.318a.262.262 0 0 1 .129-.128c.81-.477 1.64-.92 2.444-1.412.736-.452 1.5-.867 2.248-1.301.862-.501 1.718-1.011 2.582-1.51 1.323-.76 2.65-1.512 3.972-2.272.642-.37 1.271-.767 1.919-1.125.59-.327 1.17-.666 1.753-1.002.364-.208.718-.434 1.088-.63.183-.097.327-.287.562-.28l-.003-.004z" fill="#D78D29"/><path d="M20.85 5.065c.65.08 1.292.183 1.912.403-.339.248-.718.431-1.078.642-1.045.608-2.09 1.22-3.132 1.827-.452.263-.907.52-1.356.785-.116.067-.254.122-.272.287-.715.172-1.433.327-2.114.618-1.384.59-2.619 1.387-3.645 2.499-.27.293-.483.635-.798.886-.064-.05-.128-.034-.192 0-.287.159-.584.305-.865.48-1.27.79-2.578 1.524-3.877 2.27-.235.134-.455.311-.73.372a8.7 8.7 0 0 1 .63-2.062.654.654 0 0 0 .268-.1c.513-.294 1.03-.584 1.54-.88 1.647-.957 3.29-1.92 4.94-2.873 1.94-1.12 3.887-2.233 5.83-3.351.864-.498 1.726-1 2.584-1.503.132-.077.294-.135.352-.3h.003z" fill="#DC9A2E"/><path d="M20.85 5.065c-.061.168-.22.223-.351.3-.859.504-1.723 1.005-2.585 1.503-1.943 1.118-3.89 2.23-5.83 3.351-1.65.954-3.293 1.916-4.94 2.872-.51.297-1.026.59-1.54.88a.654.654 0 0 1-.269.101c.168-.477.346-.95.642-1.366.15-.006.275-.082.4-.155 1.409-.816 2.817-1.635 4.226-2.45 1.369-.792 2.737-1.58 4.103-2.372 1.482-.855 2.96-1.714 4.44-2.572.103-.061.222-.113.259-.25.486.011.974.024 1.445.158z" fill="#D78D29"/><path d="M32.42 23.613c-.235-.006-.376.184-.562.282-.37.192-.724.418-1.088.629-.583.336-1.164.675-1.753 1.002-.651.36-1.277.755-1.919 1.125-1.323.76-2.649 1.512-3.972 2.273-.864.498-1.72 1.008-2.582 1.509-.748.434-1.509.85-2.248 1.301-.804.492-1.635.935-2.444 1.412-.055.033-.104.07-.129.128-.336-.06-.672-.119-.99-.253.08-.15.242-.175.37-.248 1.76-1.02 3.52-2.035 5.277-3.052.106-.061.223-.113.26-.25.106-.028.21-.059.317-.083a10.447 10.447 0 0 0 4.962-2.621c.351-.33.632-.721.98-1.055.19.01.343-.094.495-.183 1.65-.956 3.297-1.919 4.947-2.875.122-.07.238-.165.394-.162-.061.385-.15.764-.318 1.118l.003.003zM18.33 33.592c-.007-.144.076-.226.189-.293 1.213-.703 2.423-1.412 3.639-2.105a471.127 471.127 0 0 0 4.335-2.509c1.463-.858 2.945-1.69 4.418-2.533.095-.055.19-.11.284-.168.076-.045.15-.073.229-.015-.22.486-.489.944-.828 1.357a.84.84 0 0 0-.37.122l-1.176.681c-.794.461-1.58.938-2.383 1.387-1.234.688-2.45 1.406-3.676 2.115-.867.5-1.735 1.005-2.596 1.515-.205.122-.431.214-.584.406-.495.077-.99.04-1.485.037l.003.003z" fill="#DB982D"/><path d="M19.817 33.555c.153-.195.382-.287.584-.406.861-.51 1.729-1.014 2.597-1.515 1.222-.71 2.44-1.427 3.675-2.115.804-.446 1.589-.925 2.383-1.387.391-.226.782-.455 1.177-.681a.83.83 0 0 1 .37-.122c-.423.66-.917 1.262-1.467 1.818-.223-.016-.358.159-.532.244-.803.403-1.561.89-2.346 1.326-.575.32-1.119.694-1.696 1.005-.67.36-1.32.758-1.98 1.137-.122.07-.232.15-.28.287-.64.21-1.305.287-1.968.373-.169.021-.337.058-.51.04l-.007-.004zM32.741 22.495c-.156-.006-.272.089-.394.162-1.65.957-3.297 1.916-4.947 2.875-.152.089-.305.19-.494.184.467-.697.968-1.375 1.31-2.148.315-.019.547-.22.795-.37.705-.425 1.439-.803 2.138-1.24.459-.288.969-.48 1.406-.804.14-.104.29-.183.47-.186-.06.516-.128 1.03-.28 1.527h-.004z" fill="#E2A632"/><path d="M23.413 5.688c.48.113.926.312 1.363.538-.046.03-.089.067-.135.095-.482.272-.95.571-1.445.825-.345.177-.657.421-1.002.595-.507.257-.965.593-1.479.838-.162.076-.348.177-.406.385a20.066 20.066 0 0 0-2.184-.098c.033-.208.216-.275.366-.36.727-.42 1.467-.82 2.188-1.247a71.275 71.275 0 0 1 2.737-1.57h-.003z" fill="#E8B337"/><path d="M10.386 30.922c-.443-.288-.87-.6-1.228-.993.052-.086.137-.129.223-.177.971-.569 1.943-1.137 2.911-1.708.162-.095.321-.184.505-.226.485.229.928.543 1.402.794 0 .116-.049.19-.15.247-.825.47-1.64.95-2.468 1.415-.395.22-.761.498-1.195.648z" fill="#FADC46"/><path d="M17.59 4.94c.327-.07.66-.037.993-.043a.362.362 0 0 1-.18.217c-1.296.752-2.591 1.506-3.89 2.255-1.652.956-3.308 1.91-4.964 2.866-.987.57-1.974 1.145-2.96 1.717-.077.042-.15.11-.245.042.15-.32.342-.614.55-.898.11.055.201-.006.29-.055 1.338-.773 2.68-1.543 4.018-2.319 1.155-.669 2.297-1.356 3.461-2.007.926-.516 1.83-1.066 2.747-1.592.076-.046.159-.085.183-.183h-.003zM5.39 24.567a7.386 7.386 0 0 1-.522-1.534.668.668 0 0 0 .29-.098c.84-.492 1.677-.987 2.524-1.466.256-.147.483-.373.81-.382.091.535.256 1.048.397 1.57-.028.01-.055.015-.077.028-.88.48-1.738.999-2.603 1.506-.26.15-.504.34-.819.376z" fill="#E7B036"/><path d="M26.688 7.292c.413.233.795.51 1.14.835-.015.128-.12.177-.214.232-.953.556-1.928 1.081-2.869 1.662-.204.125-.406.256-.648.302-.449-.223-.898-.449-1.35-.672.012-.116.107-.153.19-.202.387-.235.779-.464 1.176-.684.864-.48 1.717-.98 2.575-1.476v.003z" fill="#FADC46"/><path d="M6.344 11.998c.094.067.17 0 .244-.043l2.96-1.717c1.653-.957 3.31-1.91 4.965-2.866l3.89-2.255a.355.355 0 0 0 .18-.217c.275 0 .547.006.822.01-.034.137-.153.189-.26.25-1.479.858-2.96 1.717-4.44 2.572-1.368.792-2.737 1.58-4.102 2.371-1.409.816-2.817 1.635-4.226 2.45-.125.07-.247.15-.4.156.061-.268.202-.495.367-.711z" fill="#DE9E30"/><path d="M32.83 16.424c.174.453.13.942.235 1.403-.037.018-.077.033-.11.055-1.149.663-2.298 1.326-3.443 1.989-.12.067-.236.143-.382.143 0-.507 0-1.017.003-1.524.134-.086.262-.174.4-.254.825-.483 1.65-.968 2.478-1.442.26-.146.5-.345.819-.373v.003z" fill="#FADC46"/><path d="M33.022 20.965a.829.829 0 0 0-.47.186c-.437.324-.947.516-1.406.804-.7.437-1.433.812-2.139 1.24-.247.15-.48.354-.794.37.235-.523.403-1.07.58-1.61a.512.512 0 0 0 .276-.068c.956-.556 1.91-1.12 2.875-1.662.388-.217.748-.486 1.164-.66.033.47-.043.935-.086 1.403v-.003z" fill="#EBB839"/><path d="M4.556 21.594c-.116-.434-.143-.877-.165-1.323.083-.061.162-.128.25-.18.609-.349 1.217-.694 1.825-1.039.406-.23.819-.45 1.213-.697.229-.143.461-.268.712-.36-.055.507-.046 1.017-.055 1.524-.037.016-.077.031-.113.05-1.057.555-2.078 1.176-3.11 1.777-.175.101-.34.242-.56.245l.003.003z" fill="#FADC46"/><path d="M8.116 28.911a6.365 6.365 0 0 1-.902-1.081.453.453 0 0 1 .205-.196c.584-.333 1.158-.681 1.748-.999.495-.269.935-.63 1.457-.843.342.312.602.7.935 1.02a.763.763 0 0 1-.241.19 679.9 679.9 0 0 1-2.87 1.65c-.125.073-.256.131-.335.262l.003-.003z" fill="#E8B337"/><path d="M20.642 29.47c-.033.138-.152.19-.26.251-1.76 1.017-3.52 2.035-5.276 3.052-.128.073-.29.098-.37.248-.378-.058-.733-.202-1.078-.358.061-.107.165-.165.266-.223l4.344-2.484c.135-.076.254-.165.309-.317.693.003 1.378-.08 2.065-.168z" fill="#E2A632"/><path d="M31.25 12.214c.241.4.495.798.654 1.24a.59.59 0 0 0-.266.102c-.474.278-.956.544-1.42.834-.584.363-1.22.632-1.773 1.045-.198-.425-.397-.853-.596-1.277.178-.153.395-.248.596-.364.623-.36 1.247-.721 1.87-1.079.308-.174.59-.403.938-.5h-.003z" fill="#DC9A2E"/><path d="M4.703 16.137c.275-.06.495-.238.73-.372 1.299-.746 2.606-1.48 3.877-2.27.278-.175.578-.321.865-.48.064-.037.128-.052.192 0L9.47 14.49a.537.537 0 0 0-.311.088c-.908.526-1.815 1.054-2.726 1.58-.641.37-1.286.733-1.93 1.1.006-.382.106-.749.204-1.116l-.003-.006z" fill="#E2A632"/><path d="M20.31 8.96c.057-.207.244-.308.406-.384.513-.245.971-.584 1.478-.838.346-.174.657-.418 1.003-.595.495-.254.962-.553 1.445-.825.049-.028.088-.061.134-.095.34.18.718.287 1.033.523-.18.22-.443.317-.678.452-1.045.608-2.096 1.207-3.144 1.808-.113.065-.23.135-.236.288-.48-.113-.959-.223-1.442-.336v.003z" fill="#EFC13C"/><path d="M29.5 9.73c.299.285.546.608.77.954a.902.902 0 0 1-.233.198c-.67.388-1.341.776-2.007 1.17-.385.226-.789.416-1.155.67-.315-.294-.58-.63-.868-.948.238-.137.477-.268.712-.409.923-.55 1.876-1.051 2.78-1.635z" fill="#E2A632"/><path d="M6.392 26.586a6.211 6.211 0 0 1-.608-1.121.601.601 0 0 0 .266-.1c.822-.471 1.647-.939 2.463-1.418.241-.141.5-.257.693-.47l.614 1.163c-.128.064-.262.12-.388.19-.574.32-1.148.641-1.72.971-.446.257-.883.523-1.326.785h.006z" fill="#D78D29"/><path d="M17.59 4.94c-.025.098-.104.14-.183.183-.917.529-1.824 1.076-2.747 1.592-1.164.65-2.307 1.338-3.462 2.007-1.338.776-2.68 1.546-4.017 2.32-.089.051-.178.11-.29.054.164-.269.345-.525.574-.742.15-.01.275-.089.4-.16 1.977-1.142 3.95-2.284 5.924-3.427.804-.465 1.607-.929 2.408-1.396.125-.074.284-.123.317-.3a4.25 4.25 0 0 1 1.076-.131z" fill="#EFC13C"/><path d="M4.498 17.253c.645-.367 1.29-.73 1.931-1.1.91-.523 1.818-1.051 2.725-1.58a.595.595 0 0 1 .312-.089c-.232.407-.345.865-.559 1.277a.555.555 0 0 0-.33.095c-.202.129-.406.257-.614.376-.904.523-1.806 1.048-2.713 1.558-.272.153-.517.376-.85.404-.018-.321.034-.636.095-.948l.003.007z" fill="#EBB839"/><path d="M18.577 29.639c-.055.152-.174.24-.309.317l-4.344 2.484c-.101.058-.205.116-.266.223a4.065 4.065 0 0 1-.907-.376c.103-.183.299-.235.464-.327 1.231-.711 2.441-1.457 3.697-2.132.116-.064.22-.14.262-.275.471-.003.935.055 1.403.085z" fill="#E7B036"/><path d="M4.403 18.2c.334-.028.575-.25.85-.404.91-.51 1.812-1.035 2.713-1.558.208-.119.412-.247.614-.376.1-.064.208-.1.33-.094-.113.4-.226.8-.342 1.203-.199.01-.367.11-.532.205-.852.498-1.699 1.002-2.554 1.494-.367.211-.712.465-1.115.608-.01-.357-.04-.718.036-1.075V18.2z" fill="#EFC43D"/><path d="M16.512 5.071c-.031.177-.193.226-.318.3-.8.467-1.604.931-2.408 1.396-1.973 1.143-3.947 2.288-5.924 3.428-.125.07-.247.15-.4.159.23-.38.528-.694.85-.993a.487.487 0 0 0 .231-.077c1.079-.62 2.158-1.237 3.236-1.857.507-.29 1.011-.584 1.518-.874.602-.345 1.201-.69 1.803-1.039.08-.046.15-.1.171-.195.4-.15.822-.193 1.238-.25l.003.002z" fill="#F4D042"/><path d="M31.25 12.214c-.348.098-.63.327-.938.502-.626.354-1.25.714-1.87 1.078-.201.116-.415.21-.596.364-.244-.297-.403-.648-.632-.954a.506.506 0 0 0 .257-.07l3.208-1.87c.238.287.434.602.574.95h-.003z" fill="#D78D29"/><path d="M21.751 9.297c.01-.153.122-.223.235-.288 1.048-.601 2.1-1.2 3.144-1.808.236-.138.498-.232.679-.452.305.162.614.317.88.543-.859.492-1.711.996-2.576 1.476-.397.22-.788.45-1.176.684-.083.05-.178.086-.19.202-.333-.119-.666-.235-.996-.354v-.003z" fill="#F4D042"/><path d="M33.11 19.562c-.415.174-.775.443-1.163.66-.966.541-1.92 1.106-2.875 1.662a.461.461 0 0 1-.275.067c.08-.357.159-.715.235-1.069.1 0 .186-.037.272-.085.214-.129.428-.248.641-.373.828-.48 1.653-.96 2.481-1.433.22-.125.422-.29.678-.336-.006.302.077.605.004.907h.003z" fill="#EFC43D"/><path d="M4.37 19.275c.403-.143.748-.397 1.115-.608.856-.489 1.702-.996 2.554-1.494.165-.095.333-.195.532-.205-.122.333-.067.694-.18 1.03-.25.092-.486.217-.712.36-.394.248-.807.465-1.213.697-.608.345-1.216.69-1.824 1.039-.089.052-.168.12-.25.18-.059-.333-.034-.666-.022-.999zM10.386 30.922c.434-.147.8-.428 1.194-.648.828-.461 1.647-.944 2.469-1.415.1-.058.153-.134.15-.247l1.045.419c-.083.158-.25.204-.388.29-.755.473-1.531.904-2.304 1.347-.452.26-.907.507-1.335.807-.297-.156-.584-.324-.831-.55v-.003z" fill="#F4D042"/><path d="M22.295 33.143c.052-.138.162-.217.281-.287.66-.38 1.31-.776 1.98-1.137.577-.312 1.121-.684 1.696-1.005.785-.437 1.543-.923 2.346-1.326.174-.089.309-.263.532-.245-.96 1.085-2.1 1.938-3.355 2.637-1.072.599-2.197 1.079-3.4 1.35-.028.007-.055.007-.083.013h.003z" fill="#E7B036"/><path d="M11.217 31.475c.428-.3.883-.547 1.335-.807.773-.443 1.549-.874 2.304-1.347.137-.086.305-.132.388-.29l.944.302c-.012.107-.086.168-.171.217-.798.467-1.601.929-2.393 1.408-.537.327-1.118.584-1.628.957a3.715 3.715 0 0 1-.78-.443v.003z" fill="#EFC43D"/><path d="M9.21 23.48c-.193.213-.453.33-.694.47-.819.476-1.64.944-2.463 1.417a.603.603 0 0 1-.265.101c-.162-.287-.312-.577-.394-.898.314-.037.559-.226.818-.376.868-.504 1.724-1.027 2.603-1.506.025-.012.052-.019.077-.028.125.266.229.541.32.82H9.21z" fill="#DE9E30"/><path d="M15.274 5.322c-.024.094-.094.15-.17.195-.603.346-1.201.69-1.803 1.04-.508.29-1.012.583-1.519.873-1.078.62-2.157 1.237-3.235 1.857a.43.43 0 0 1-.233.077c.422-.513.923-.941 1.44-1.35 1.39-1.103 2.926-1.938 4.625-2.457.293-.089.596-.156.892-.235h.003z" fill="#FADC46"/><path d="M32.83 16.424c-.318.028-.56.224-.82.373-.83.474-1.652.96-2.477 1.442-.137.08-.266.168-.4.254-.037-.318-.07-.636-.107-.953.116-.074.229-.15.348-.22.996-.58 1.995-1.161 2.991-1.745a.477.477 0 0 1 .257-.061c.116.293.192.593.21.907l-.002.003z" fill="#F4D042"/><path d="M11.996 31.918c.51-.376 1.088-.633 1.628-.957.792-.48 1.595-.94 2.393-1.408.085-.049.158-.11.17-.217.343.015.654.156.987.217-.04.137-.143.214-.262.275-1.253.672-2.466 1.42-3.697 2.133-.165.094-.36.146-.464.326a3.68 3.68 0 0 1-.755-.37z" fill="#EBB839"/><path d="M12.796 27.82a1.784 1.784 0 0 0-.504.227c-.968.571-1.94 1.14-2.911 1.708-.083.049-.168.091-.223.177-.251-.144-.437-.358-.62-.575.057-.079.143-.125.222-.177.957-.602 1.968-1.112 2.918-1.723a1.05 1.05 0 0 1 .434-.18c.217.195.516.287.684.544zM33.105 18.655c-.26.046-.462.21-.679.336-.83.474-1.656.956-2.48 1.433-.214.125-.431.244-.642.373a.486.486 0 0 1-.272.085c0-.293.052-.58.095-.867.143 0 .262-.077.382-.144 1.148-.663 2.297-1.326 3.443-1.99.037-.02.073-.036.11-.054.018.275.07.547.043.825v.003z" fill="#F4D042"/><path d="M23.413 5.688a73.687 73.687 0 0 0-2.737 1.57c-.721.428-1.46.829-2.188 1.247-.15.086-.333.15-.366.36-.4.05-.8.099-1.201.147.018-.165.156-.22.272-.287.449-.266.904-.522 1.356-.785 1.045-.608 2.087-1.219 3.132-1.827.36-.21.74-.394 1.078-.642.217.074.45.101.651.217h.003z" fill="#E2A632"/><path d="M4.556 21.594c.22-.003.385-.144.56-.244 1.032-.602 2.052-1.223 3.11-1.779.036-.018.076-.033.113-.048l.045.825a.445.445 0 0 0-.192.07c-.727.418-1.451.84-2.185 1.246-.43.239-.83.544-1.301.706a3.196 3.196 0 0 1-.147-.776h-.003z" fill="#F4D042"/><path d="M28.405 8.624c.233.153.416.358.593.569-.116.131-.272.207-.418.293-.944.562-1.916 1.079-2.848 1.662a.684.684 0 0 1-.302.12 4.856 4.856 0 0 1-.58-.453c.185-.156.402-.26.61-.379.908-.525 1.818-1.054 2.726-1.58.097-.054.186-.115.22-.232z" fill="#EFC43D"/><path d="M28.406 8.624c-.031.117-.123.178-.22.233a792 792 0 0 0-2.726 1.58c-.207.118-.427.222-.61.378a6.359 6.359 0 0 1-.752-.492c.241-.049.446-.177.647-.302.941-.58 1.913-1.106 2.87-1.662.094-.055.198-.104.213-.233.214.141.416.297.578.498z" fill="#F4D042"/><path d="M10.627 25.789c-.522.214-.962.577-1.457.843-.59.32-1.167.666-1.748 1a.453.453 0 0 0-.205.195c-.174-.205-.345-.41-.455-.66a.549.549 0 0 1 .202-.171c.813-.474 1.62-.95 2.435-1.418.247-.144.48-.324.76-.406.184.183.324.4.471.61l-.003.007z" fill="#E2A632"/><path d="M28.442 15.435c.553-.413 1.192-.682 1.772-1.045.468-.29.947-.556 1.42-.834a.601.601 0 0 1 .267-.101c.085.253.247.473.296.742a.583.583 0 0 0-.33.095c-.516.3-1.036.59-1.549.892-.54.32-1.106.602-1.631.953-.114-.223-.178-.464-.251-.702h.006z" fill="#E7B036"/><path d="M25.43 11.267a.67.67 0 0 0 .302-.119c.932-.583 1.904-1.1 2.848-1.662.146-.089.302-.162.418-.293.208.143.336.357.498.54-.904.584-1.857 1.085-2.78 1.635-.235.14-.474.275-.712.41-.229-.129-.403-.318-.577-.51h.003z" fill="#EBB839"/><path d="M32.619 15.517a.506.506 0 0 0-.257.061c-.996.58-1.995 1.161-2.991 1.745-.12.07-.232.146-.348.22-.074-.22-.101-.45-.138-.678.067-.11.174-.175.281-.236.93-.535 1.858-1.066 2.79-1.598.143-.082.284-.17.458-.17.052.225.196.42.205.66v-.004zM4.703 22.37c.474-.165.87-.467 1.302-.706.733-.406 1.457-.83 2.184-1.246a.488.488 0 0 1 .193-.07l.106.742c-.323.01-.55.235-.81.382-.845.476-1.683.974-2.523 1.466a.712.712 0 0 1-.29.098c-.098-.21-.15-.43-.165-.66l.003-.006z" fill="#EFC43D"/><path d="M32.414 14.857c-.174 0-.315.089-.458.171-.932.532-1.861 1.067-2.79 1.598-.107.061-.214.125-.28.235a3.471 3.471 0 0 1-.193-.724c.522-.351 1.087-.635 1.631-.953.513-.302 1.036-.593 1.55-.892a.577.577 0 0 1 .33-.095c.094.211.192.425.213.66h-.003z" fill="#EBB839"/><path d="m30.676 11.264-3.208 1.87a.506.506 0 0 1-.257.07 3.119 3.119 0 0 1-.34-.482c.367-.254.774-.443 1.156-.67.666-.394 1.338-.782 2.007-1.17a.85.85 0 0 0 .232-.198c.174.168.309.36.41.58zM10.157 25.178c-.281.082-.51.263-.761.406-.816.465-1.626.944-2.435 1.418a.523.523 0 0 0-.202.17 2.002 2.002 0 0 1-.366-.583c.443-.262.88-.528 1.326-.785.57-.327 1.145-.65 1.72-.971.125-.07.26-.129.388-.19.122.171.253.34.333.535h-.003z" fill="#DB982D"/><path d="M12.112 27.274a1.093 1.093 0 0 0-.434.18c-.953.611-1.962 1.121-2.918 1.723-.082.052-.165.098-.223.177a1.63 1.63 0 0 1-.422-.446c.08-.128.208-.19.337-.263a437.27 437.27 0 0 0 2.868-1.65.81.81 0 0 0 .242-.189c.217.116.385.29.55.468z" fill="#EFC43D"/><path d="M12.506 32.569c-.26-.126-.523-.248-.782-.373-.138-.116-.333-.144-.455-.287.042-.031.07-.07.082-.123l1.442.746c-.091.046-.19.033-.287.037z" fill="#E8B337"/><path d="M7.306 28.48a.45.45 0 0 1-.064-.006c-.275-.415-.617-.785-.846-1.23h.156l.889 1.227c-.046 0-.092.006-.135.006v.003z" fill="#DE9E30"/><path d="M4.785 23.9c-.073-.134-.082-.302-.198-.415 0-.253-.162-.482-.131-.742.04 0 .079 0 .119-.003.14.379.244.767.339 1.158h-.129v.003z" fill="#E8B337"/><path d="M12.112 27.274c-.168-.174-.333-.352-.55-.468-.333-.32-.593-.709-.935-1.02-.147-.211-.284-.428-.47-.611-.08-.199-.211-.364-.334-.535l-.614-1.164a7.213 7.213 0 0 0-.32-.819c-.141-.522-.309-1.035-.398-1.57-.036-.248-.07-.495-.107-.743l-.045-.825c.009-.51 0-1.017.055-1.524.11-.333.055-.697.18-1.03.113-.4.226-.8.342-1.203.21-.416.327-.874.56-1.277l.897-1.476c.315-.25.529-.596.798-.886 1.026-1.11 2.26-1.91 3.645-2.5.681-.29 1.4-.449 2.114-.617l1.2-.146c.73-.016 1.458.033 2.185.098.48.113.96.223 1.442.336.333.119.666.235.996.354.45.223.898.45 1.35.672.242.177.486.348.752.492.184.165.376.318.58.452.175.19.35.38.578.51.284.321.553.657.868.948.095.174.217.327.34.482.228.306.39.657.631.954.2.424.398.852.596 1.277.074.238.138.476.25.702.047.248.096.492.193.724.037.23.064.459.138.679.036.318.07.635.107.953 0 .507 0 1.017-.003 1.524-.043.288-.092.575-.095.868-.08.358-.159.715-.235 1.07-.18.54-.346 1.087-.58 1.61-.343.773-.844 1.45-1.311 2.147-.349.33-.63.725-.981 1.055a10.434 10.434 0 0 1-4.962 2.621c-.107.024-.21.055-.318.082-.684.09-1.372.172-2.065.169-.467-.034-.935-.092-1.402-.086-.33-.061-.645-.202-.987-.217l-.944-.302c-.349-.141-.697-.278-1.045-.419-.474-.25-.917-.565-1.403-.794-.168-.26-.467-.352-.684-.544l-.01-.003zm16.782-8.02a10.136 10.136 0 0 0-10.15-10.147c-5.624 0-10.161 4.55-10.161 10.183 0 5.527 4.604 10.101 10.156 10.095 5.597-.006 10.158-4.559 10.152-10.131h.003z" fill="#8D6020"/><path d="M28.894 19.257c.007 5.572-4.558 10.125-10.152 10.13-5.552.007-10.156-4.567-10.156-10.094 0-5.633 4.537-10.183 10.162-10.183a10.136 10.136 0 0 1 10.15 10.147h-.004zm-18.447 4.967c-.034.08.009.132.082.175.08.046.16.113.165.201.016.388.38.535.563.807.079.12.177.275.314.342.269.125.416.358.56.587.112.177.247.308.448.373.358.116.547.47.886.61.007 0 .01.01.013.016.085.168.229.217.409.266.241.067.467.22.663.36.208.15.412.232.648.266.125.018.22.046.284.165.064.12.177.137.305.11.144-.03.29-.04.404.082.1.11.204.153.339.046.049-.04.122-.033.18-.012.21.076.412.162.642.208.238.049.473.11.715.091.204-.015.394.089.592.046a3.88 3.88 0 0 1 1.513-.046c.107.019.19 0 .235-.113.043-.113.143-.143.238-.1.205.091.367.033.535-.086a.686.686 0 0 1 .269-.104c.351-.067.687-.195 1.045-.238.07-.01.14-.015.192-.067.147-.153.355-.199.532-.3.113-.064.192-.198.33-.201.208-.007.336-.129.476-.254.22-.196.407-.446.734-.492a.295.295 0 0 0 .235-.186c.064-.193.195-.324.351-.446.113-.089.208-.199.293-.318.16-.21.474-.269.557-.556.003-.012.036-.015.052-.028.201-.18.443-.327.449-.647 0-.113.06-.202.162-.272.232-.16.406-.394.522-.636.104-.21.241-.437.19-.703-.016-.067.042-.106.097-.143.238-.15.431-.62.364-.895-.046-.193-.018-.358.146-.48a.278.278 0 0 0 .104-.33c-.11-.333.196-.608.116-.932 0-.006.006-.012.01-.018a.176.176 0 0 0 .015-.177c-.061-.138-.025-.263.012-.4.086-.315.186-.62.043-.963-.107-.257-.217-.544-.052-.834.03-.055-.01-.12-.024-.18-.062-.22-.172-.428-.086-.679.037-.107.003-.308-.1-.33-.248-.052-.178-.186-.148-.333.01-.048-.009-.11-.02-.162a2.41 2.41 0 0 0-.395-.834.93.93 0 0 1-.153-.397c-.06-.357-.119-.724-.5-.91-.038-.019-.08-.07-.083-.11-.019-.144-.03-.272-.226-.266-.055 0-.07-.073-.068-.134 0-.04.025-.104-.012-.117-.18-.048-.162-.195-.18-.326a.184.184 0 0 0-.101-.147c-.51-.242-.785-.749-1.213-1.085-.03-.024-.04-.07-.058-.107-.021-.052-.046-.119-.1-.125-.276-.018-.312-.437-.636-.373-.016.003-.055-.042-.064-.073-.068-.186-.22-.238-.392-.248a.372.372 0 0 1-.314-.167c-.037-.052-.086-.098-.147-.11-.339-.065-.556-.346-.85-.486-.213-.104-.448-.248-.665-.232-.223.015-.342-.07-.492-.175a.594.594 0 0 0-.226-.094 8.545 8.545 0 0 0-1.042-.144.74.74 0 0 1-.242-.049c-.339-.146-.72-.125-1.047-.07-.27.046-.505.107-.764.012a.162.162 0 0 0-.101 0c-.293.07-.602.11-.874.23-.272.118-.565-.043-.819.118-.226-.128-.348.034-.461.178-.1.125-.208.17-.357.113-.147-.055-.272-.01-.413.052-.318.134-.483.516-.874.531-.021 0-.045.03-.064.05a.692.692 0 0 1-.324.17c-.183.052-.406.058-.467.309-.006.027-.046.067-.07.067-.227.012-.324.18-.431.342-.064.098-.171.128-.275.171-.196.086-.41.15-.535.345-.14.217-.305.404-.535.532a.478.478 0 0 0-.226.263c-.14.428-.623.648-.678 1.127-.003.034-.052.064-.082.089-.27.205-.385.513-.459.81-.07.287-.256.51-.342.785-.043.137-.174.241-.098.41.028.06-.012.103-.064.134-.043.024-.082.055-.08.11.02.235-.222.418-.13.672.009.021-.034.058-.046.088-.083.211-.208.413-.141.657.01.04.024.101.003.12-.168.174-.01.375-.052.543-.088.349-.033.666.07.996.043.138-.033.306 0 .45.126.568.01 1.17.236 1.723.006.012.009.03.003.04-.074.176.042.299.15.393.097.086.11.165.079.27-.034.121-.022.231.098.308.152.098.204.244.213.421.022.343.132.645.44.844.07.046.129.107.095.216h-.018z" fill="#DE9E30"/><path d="M10.444 24.222c.033-.11-.022-.172-.095-.217-.309-.199-.419-.501-.44-.844-.01-.177-.061-.324-.214-.421-.119-.077-.131-.184-.098-.309.028-.107.016-.183-.079-.269-.107-.094-.223-.217-.15-.394.006-.012 0-.027-.003-.04-.226-.553-.107-1.154-.235-1.723-.03-.143.046-.311 0-.449-.104-.33-.159-.645-.07-.996.042-.168-.116-.37.052-.544.018-.021.006-.08-.003-.119-.068-.244.058-.446.14-.657.012-.03.052-.067.046-.088-.092-.25.147-.437.131-.672-.003-.055.037-.086.08-.11.052-.031.091-.074.064-.135-.076-.168.055-.272.098-.41.085-.274.272-.497.342-.784.073-.297.19-.605.458-.81.034-.024.08-.055.083-.089.055-.48.537-.7.678-1.127a.488.488 0 0 1 .226-.263c.23-.128.397-.312.535-.532.125-.195.339-.26.534-.345.101-.046.208-.076.275-.17.107-.16.202-.33.431-.343.025 0 .064-.04.07-.067.058-.25.281-.257.468-.309a.654.654 0 0 0 .324-.17c.018-.02.042-.05.064-.05.39-.012.553-.397.874-.531.14-.058.266-.107.412-.052.153.058.26.012.358-.113.116-.144.238-.306.46-.178.255-.161.548 0 .82-.119.272-.119.58-.159.873-.229.034-.009.07-.009.101 0 .26.092.498.03.764-.012.327-.055.709-.076 1.048.07a.74.74 0 0 0 .242.05c.35.02.696.075 1.041.143.08.015.162.049.226.094.15.104.27.193.492.175.217-.016.453.13.666.232.294.14.508.421.85.486.06.012.11.054.146.11.077.11.178.158.315.168.171.009.327.06.391.247.01.03.049.076.064.073.324-.064.36.355.636.373.052.003.076.073.1.125.016.037.028.086.059.107.427.336.702.844 1.213 1.085a.19.19 0 0 1 .1.147c.019.13 0 .278.18.326.037.01.016.077.013.117-.003.058.012.134.067.134.196-.006.21.125.226.266.006.04.046.091.083.11.382.186.44.553.5.91.025.147.071.275.154.397.18.257.32.529.394.834.012.052.03.11.021.162-.03.147-.1.282.147.334.107.02.137.223.1.33-.082.25.025.458.086.678.015.06.055.122.024.18-.165.29-.055.577.052.834.144.342.043.648-.042.962-.037.138-.074.263-.013.4a.176.176 0 0 1-.015.178c-.003.006-.012.012-.009.018.08.324-.226.599-.116.932.04.122.015.245-.104.33-.165.122-.193.287-.147.48.068.275-.125.745-.363.895-.055.037-.113.073-.098.143.055.266-.085.492-.19.703-.119.242-.29.474-.522.636-.1.07-.162.155-.162.272-.006.32-.247.47-.449.647-.015.012-.049.016-.052.028-.082.29-.397.345-.556.556a1.71 1.71 0 0 1-.293.318c-.153.122-.287.25-.352.446a.29.29 0 0 1-.235.186c-.327.046-.513.296-.733.492-.14.125-.269.247-.477.253-.137.004-.217.138-.33.202-.177.101-.382.15-.531.3-.05.052-.122.058-.193.067-.357.043-.693.17-1.045.238a.706.706 0 0 0-.268.104c-.168.12-.33.18-.535.086-.092-.043-.193-.013-.238.1-.043.113-.129.132-.236.113a3.822 3.822 0 0 0-1.512.046c-.199.046-.391-.06-.593-.046-.241.019-.476-.045-.715-.091-.229-.046-.43-.132-.641-.208-.058-.021-.132-.024-.18.012-.135.107-.239.061-.34-.046-.113-.122-.26-.113-.403-.082-.125.027-.241.012-.306-.11-.064-.12-.158-.15-.284-.165a1.388 1.388 0 0 1-.647-.266c-.196-.14-.422-.293-.663-.36-.178-.05-.324-.098-.41-.266 0-.006-.009-.012-.012-.015-.34-.141-.529-.498-.886-.611-.199-.065-.336-.196-.45-.373-.143-.23-.293-.462-.558-.587-.14-.064-.236-.22-.315-.342-.18-.272-.547-.416-.562-.807-.003-.088-.086-.155-.165-.201-.073-.043-.116-.098-.083-.174h.019zm8.127 2.068c1.237-.003 1.643-.08 2.704-.477.082-.03.17-.06.256-.073.193-.024.352-.113.504-.22.086-.058.18-.098.27-.147.262-.146.552-.275.76-.485.25-.254.544-.465.76-.755.328-.437.792-.752 1.049-1.259.232-.458.476-.929.586-1.411.116-.517.318-1.02.312-1.58-.006-.535.058-1.07-.03-1.6-.095-.57-.193-1.137-.422-1.675-.095-.223-.284-.379-.346-.626a1.886 1.886 0 0 0-.556-.948c-.317-.293-.55-.66-.867-.95-.425-.388-.785-.87-1.406-.987-.052-.009-.097-.048-.146-.073-.232-.128-.452-.308-.703-.379-.336-.095-.672-.201-1.011-.284-.782-.186-1.568-.305-2.362-.067-.027.009-.058.018-.08.012-.36-.125-.696.064-1.017.135-.767.168-1.427.617-2.108.999-.37.207-.617.565-.944.828-.37.296-.639.69-.932 1.06-.26.327-.385.73-.574 1.094-.147.284-.303.601-.343.94-.036.285-.094.566-.14.844-.064.394-.049.779-.064 1.17-.012.275-.061.556-.012.822.064.36.159.72.253 1.078.193.727.623 1.342.972 1.992.19.352.495.593.779.865.4.385.782.776 1.256 1.088.54.36 1.16.522 1.729.806.122.061.256.107.39.125.523.074 1.046.187 1.486.135l-.003.003z" fill="#E2A632"/><path d="M18.57 26.293c-.44.052-.959-.064-1.484-.134a1.276 1.276 0 0 1-.391-.126c-.568-.284-1.189-.446-1.73-.806-.47-.312-.852-.703-1.255-1.088-.284-.272-.59-.513-.78-.865-.35-.65-.778-1.268-.97-1.992a14.907 14.907 0 0 1-.254-1.078c-.05-.263 0-.547.012-.822.015-.388 0-.776.064-1.17.046-.281.107-.562.14-.843.043-.34.196-.654.343-.941.19-.364.311-.767.574-1.094.293-.37.562-.764.932-1.06.327-.263.574-.624.944-.828.681-.382 1.341-.831 2.108-1 .324-.07.66-.256 1.018-.134.024.01.055-.003.079-.012.794-.238 1.576-.12 2.362.067.342.083.675.19 1.011.284.25.07.47.248.703.38.049.027.094.063.146.072.617.117.978.6 1.406.987.318.29.55.657.868.95.274.251.467.584.555.948.062.247.251.403.346.626.232.538.327 1.106.421 1.674.089.532.025 1.07.03 1.601.007.56-.195 1.06-.31 1.58-.108.482-.355.953-.587 1.411-.26.51-.721.822-1.048 1.26-.217.29-.51.497-.761.754-.205.208-.498.336-.76.486-.09.048-.184.088-.27.146a1.133 1.133 0 0 1-.504.22 1.235 1.235 0 0 0-.256.073c-1.06.398-1.467.474-2.704.477l.003-.003zm.334-3.162c2.126-.064 3.724-1.723 3.74-3.893.015-2.169-1.733-3.889-3.936-3.883-2.175.006-3.895 1.852-3.855 3.877.042 2.163 1.643 3.97 4.05 3.896v.003z" fill="#E8B337"/><path d="M18.907 23.13c-2.405.071-4.009-1.732-4.052-3.895-.04-2.025 1.68-3.87 3.856-3.877 2.203-.006 3.954 1.711 3.935 3.883-.015 2.167-1.613 3.829-3.74 3.893v-.003zm-1.403-3.843c-.003.587.639 1.262 1.195 1.268.788.01 1.32-.791 1.32-1.265 0-.583-.62-1.31-1.13-1.286-.884.04-1.327.44-1.385 1.283z" fill="#EFC13C"/><path d="M17.504 19.287c.061-.843.502-1.243 1.384-1.283.51-.024 1.134.703 1.13 1.286 0 .474-.534 1.274-1.319 1.265-.56-.006-1.198-.681-1.195-1.268z" fill="#F4D042"/><path d="M18.577 35.896c9.366 0 16.958-7.481 16.958-16.71 0-9.228-7.592-16.709-16.958-16.709S1.619 9.958 1.619 19.187c0 9.228 7.592 16.709 16.958 16.709z" stroke="#fff" stroke-width="3" stroke-miterlimit="10"/></svg>