<svg width="38" height="38" fill="none" xmlns="http://www.w3.org/2000/svg"><path d="M3.586 18.968a17.13 17.13 0 0 1 .425-3.636c.336-1.522.92-2.952 1.69-4.296.51-.886 1.096-1.73 1.774-2.502 1.13-1.283 2.414-2.38 3.887-3.254.91-.54 1.866-.987 2.868-1.341a14.919 14.919 0 0 1 2.787-.712c1.326-.205 2.664-.29 4.008-.144.52.055 1.04.113 1.546.226 1.02.226 2.017.52 2.991.908.645.26 1.277.531 1.88.874.91.516 1.771 1.102 2.566 1.79a15.84 15.84 0 0 1 5.31 9.4c.174 1.027.26 2.06.235 3.099-.018.813-.131 1.616-.26 2.417-.293 1.827-.959 3.522-1.866 5.123a15.586 15.586 0 0 1-2.182 2.936 15.54 15.54 0 0 1-3.56 2.85c-1.148.67-2.36 1.202-3.641 1.568-.914.263-1.84.452-2.783.56a15.028 15.028 0 0 1-3.355 0 29.49 29.49 0 0 1-1.283-.172 9.496 9.496 0 0 1-1.079-.25c-1.353-.382-2.658-.883-3.88-1.589a16.413 16.413 0 0 1-2.511-1.76 15.855 15.855 0 0 1-5.332-9.395c-.14-.889-.241-1.79-.235-2.7zm21.775 14.69a5.35 5.35 0 0 0 1.234-.542c.07-.021.147-.036.214-.07a19.71 19.71 0 0 0 1.766-1.048c.076-.052.14-.11.165-.202.363-.134.626-.412.91-.656.23-.18.459-.361.685-.547.06-.052.122-.11.14-.196a.452.452 0 0 0 .168-.113c.419-.406.834-.819 1.183-1.286.363-.486.773-.944 1.041-1.497.248-.312.477-.639.581-1.03.034-.034.08-.061.1-.104.254-.525.581-1.017.722-1.591.021-.028.049-.052.06-.08.22-.54.42-1.09.545-1.662.091-.422.272-.825.263-1.268.103-.324.14-.657.165-.993.094-.449.088-.904.085-1.36a.685.685 0 0 0 .04-.302c-.015-.437-.034-.874-.052-1.31a14.843 14.843 0 0 0-.523-3.016c-.122-.434-.238-.874-.446-1.28-.116-.51-.354-.972-.592-1.433a4.772 4.772 0 0 0-.618-1.121c-.137-.23-.201-.51-.455-.66a.728.728 0 0 0-.33-.495.344.344 0 0 0-.082-.226c-.44-.52-.843-1.067-1.332-1.54-.266-.257-.49-.556-.81-.755-.33-.278-.602-.626-1-.825-.378-.373-.83-.645-1.28-.92-.29-.18-.564-.394-.894-.498a7.085 7.085 0 0 0-1.494-.7c-.217-.137-.465-.192-.703-.274-.205-.116-.437-.153-.663-.208-.244-.076-.486-.174-.742-.205-.306-.08-.605-.186-.914-.238-.98-.168-1.97-.263-2.967-.217-.238 0-.476-.003-.718-.003-.327 0-.657-.01-.974.08l-.345.027c-.526.046-1.033.186-1.553.272-.015.012-.03.024-.045.034h-.004c-.39.07-.772.177-1.145.308-.184.064-.391.083-.544.23a.997.997 0 0 0-.397.094c-.752.306-1.479.663-2.185 1.063-.235.132-.513.211-.678.45a3.957 3.957 0 0 0-1.112.788 1.504 1.504 0 0 0-.309.204c-.476.407-.944.822-1.378 1.271-.375.391-.748.785-1.045 1.247-.278.26-.467.583-.66.907-.226.312-.464.614-.577.993a.194.194 0 0 0-.14.138c-.058.198-.175.366-.275.543a.538.538 0 0 0-.077.272.461.461 0 0 0-.165.208c-.235.489-.44.987-.623 1.497-.083.226-.196.443-.162.694-.015.012-.027.027-.043.04-.036.103-.08.204-.104.311-.22.92-.43 1.843-.51 2.787-.015.467-.027.934-.043 1.402.016.44.01.88.05 1.317a16.104 16.104 0 0 0 1.377 5.2.98.98 0 0 0 .22.345c0 .085.025.162.064.235.3.553.605 1.1.969 1.617.244.464.614.843.916 1.264a.373.373 0 0 0 .199.14c.07.166.171.313.3.438.357.357.711.718 1.072 1.072.156.153.327.287.525.385.245.278.514.523.865.663.306.324.678.553 1.079.742.06.046.116.095.18.135.94.547 1.906 1.042 2.957 1.353.3.092.58.254.908.251a4.886 4.886 0 0 0 1.53.33c.086.116.223.098.34.113.904.11 1.808.168 2.719.131.525.043 1.041-.06 1.56-.094.13-.01.264-.013.383-.074.372-.055.751-.08 1.109-.21a8.29 8.29 0 0 0 1.115-.285c.412-.119.831-.22 1.207-.443l-.003-.015z" fill="#E38A33"/><path d="M14.206 4.134c.153-.143.357-.165.544-.229a7.384 7.384 0 0 1 1.146-.311c.018.085.04.164.155.143.55-.1 1.103-.205 1.653-.302.101-.019.138-.077.138-.171.32-.09.647-.08.974-.08.239 0 .477 0 .718.003.107.269.349.217.55.199.456-.046.902.043 1.35.082.581.05 1.152.174 1.727.275.107.019.208.03.257-.098.256.031.498.129.742.205-.095.14-.232.128-.367.092a1.6 1.6 0 0 0-.59-.037c-.372.04-.748.07-1.12.113-.434.046-.874.052-1.305.138-.095.018-.217.006-.245.143-.216.003-.43.006-.647.012-.116 0-.232.007-.309.117-.69-.01-1.372.094-2.06.131-.06-.104-.152-.122-.265-.104-.666.11-1.32.257-1.967.443-.404.116-.792.278-1.192.397a.236.236 0 0 0-.18-.027c-.336.113-.69.113-1.036.134-.354.022-.706.11-1.063.052.088-.122.226-.174.351-.244a14.531 14.531 0 0 1 1.772-.82c.125-.048.238-.106.278-.25l-.009-.006z" fill="#EBB839"/><path d="M24.154 34.1c-.364.12-.736.22-1.115.284-.055-.058-.126-.1-.199-.094-.308.027-.623.024-.916.15l-.45.039c-.497.043-.992.083-1.49.125-1.009.006-2.01-.1-3.01-.201-.461-.126-.923-.236-1.402-.263-.025-.061-.07-.095-.135-.113-.06-.019-.162-.01-.15-.104.013-.08.11-.067.175-.073.599-.055 1.194-.107 1.793-.16.135-.011.278.007.38-.115.427.015.848.103 1.276.07a.3.3 0 0 0 .177.043c.508.018 1.012-.013 1.516-.055.305-.028.614-.025.913-.104.532-.028 1.045-.171 1.568-.254.293.037.583 0 .873-.021.642-.055 1.28-.12 1.92-.18.082-.006.167-.006.22.076l-.783.376c-.367.06-.684.26-1.042.351-.098.024-.116.125-.122.217l.003.006z" fill="#FADC46"/><path d="M11.805 5.445c.357.061.711-.028 1.063-.052.345-.021.7-.021 1.035-.134.059-.022.123-.003.18.027-.757.37-1.536.697-2.254 1.149-.202.128-.43.18-.663.205-.403.045-.807.076-1.21.11-.07.006-.134.009-.192.055-.324.25-.651.504-.941.794-.05.049-.11.1-.074.177.043.089.129.058.202.049.232-.03.461-.07.697-.055.067.003.15-.018.183.058s-.04.125-.086.171l-.944.89c-.046-.08-.119-.074-.198-.068-.135.012-.272.028-.41.021-.327-.015-.61.055-.819.33-.07.092-.161.123-.271.086.293-.461.666-.856 1.044-1.247.434-.449.902-.864 1.378-1.27a1.39 1.39 0 0 1 .309-.205.408.408 0 0 0 .364-.083c.302-.226.61-.44.92-.657.237-.097.44-.275.693-.345l-.006-.006zM34.41 13.502c.211.406.324.846.446 1.28.278.987.459 1.992.523 3.015h-.193c.025-.073.006-.146 0-.223-.021-.256-.1-.507-.085-.767-.04-.186-.077-.375-.123-.562-.03-.134-.11-.22-.26-.21-.137.009-.271.018-.409.036-.174.021-.253.131-.229.302.028.175.043.355.113.52l.083.99c-.025.305.052.605.042.91-.002.04-.009.077-.012.116-.073-.009-.11-.064-.146-.116V18.585a18.643 18.643 0 0 0-.572-3.626c.037-.015.074-.03.107-.046.107.07.055.272.233.281.192.01.381.022.57-.03.147-.04.209-.138.175-.275a10.434 10.434 0 0 0-.202-.688c-.036-.11-.113-.19-.241-.192-.238-.006-.48-.03-.706.076-.095-.18-.192-.357-.287-.538-.012-.082-.021-.162-.034-.244.156-.012.312-.034.468-.04.217-.009.443-.043.586.19.028.046.095.049.15.049h.003z" fill="#F4D042"/><path d="M4.42 14.498c-.033-.25.08-.468.162-.694.186-.507.391-1.008.623-1.497a.477.477 0 0 1 .165-.208c.156-.006.187-.14.248-.244.11-.177.18-.391.44-.416.28-.027.559-.049.843-.04-.027.138-.122.245-.183.367-.046.092-.107.19.027.266-.009.034-.015.067-.033.098-.315.516-.541 1.075-.755 1.637-.174.459-.32.932-.48 1.397-.046 0-.091-.006-.14-.01.033-.146.07-.296.104-.443.143-.26.201-.543.26-.83.122-.168.186-.367.256-.56.055-.146-.01-.226-.168-.216-.171.009-.342.024-.51.036-.101.01-.196.049-.245.132-.113.201-.241.4-.244.644-.098.125-.12.284-.183.425-.04.085-.083.153-.187.156z" fill="#D78D29"/><path d="M25.523 4.333a6.73 6.73 0 0 1 1.494.7c.006.14.097.213.204.287.38.26.82.424 1.15.757-.025.074-.077.116-.154.12-.458.006-.91.155-1.371.045-.016-.021-.028-.052-.05-.064-.522-.32-1.063-.605-1.646-.8l-.083-.046c.132-.217.358-.171.553-.196.217-.027.44.019.657-.03.061-.015.153-.003.16-.098.002-.076-.065-.12-.126-.15-.174-.08-.36-.14-.529-.229-.116-.06-.293-.088-.26-.29v-.006z" fill="#FADC46"/><path d="M20.527 4.293c.031-.137.15-.125.245-.143.43-.086.87-.09 1.305-.138.372-.04.748-.07 1.12-.113a1.6 1.6 0 0 1 .59.037c.138.036.272.052.367-.092.226.055.455.092.663.208a.26.26 0 0 0 .098.217c.131.113.073.177-.064.195-.306.04-.617.058-.92.107-.217.037-.458-.043-.645.14-.073-.008-.15-.015-.223-.033a14.29 14.29 0 0 0-2.539-.391l.003.006z" fill="#EFC43D"/><path d="M30.191 7.272c.32.196.544.498.81.755.491.473.895 1.02 1.332 1.54.058.067.082.14.082.226.012.06.022.122.037.18.128.492.128.495-.385.55a.671.671 0 0 1-.62-.254c-.058-.067-.107-.143-.187-.19-.033-.213-.226-.317-.336-.476-.128-.186-.113-.26.113-.3.153-.027.312-.03.468-.048.198-.022.223-.073.122-.25a1.526 1.526 0 0 0-.41-.453 7.115 7.115 0 0 0-.867-.926c-.11-.097-.177-.204-.159-.354z" fill="#D78D29"/><path d="M3.72 19.04c.016-.467.028-.934.043-1.401.067-.028.132-.059.199-.086 0 .128.006.26 0 .388-.003.162.067.23.232.235.226.01.446-.046.67-.052.014.098 0 .211.124.254 0 .302-.003.608-.006.91v.034c0 .027 0 .058.003.085-.104.031-.15.104-.162.208l-.904.083a1.005 1.005 0 0 0-.205-.66l.006.003zM28.37 6.074c-.33-.333-.773-.495-1.149-.757-.107-.074-.198-.147-.204-.288.333.104.605.318.895.498.446.278.901.547 1.28.92-.061.138.018.22.113.296.217.18.43.36.648.538.043.037.094.07.08.132-.02.07-.09.082-.15.091-.184.022-.367.04-.554.055-.104.01-.207.012-.26.125-.393-.213-.699-.546-1.056-.806-.123-.089-.062-.168.067-.183.244-.034.489-.059.733-.086.055-.006.116-.006.135-.07.015-.058-.037-.086-.074-.113-.165-.123-.308-.272-.504-.352z" fill="#EFC13C"/><path d="M29.07 7.688c.052-.114.156-.12.26-.126.183-.015.37-.033.553-.055.06-.006.13-.021.15-.091.014-.062-.037-.098-.08-.132-.217-.18-.431-.36-.648-.538-.095-.079-.174-.161-.113-.296.397.199.67.544 1 .825-.02.15.048.257.158.354.318.282.605.593.868.926-.211.129-.443.129-.679.125-.11 0-.226-.009-.275.126-.223-.129-.372-.342-.57-.498-.181-.232-.456-.37-.624-.617v-.003z" fill="#E7B036"/><path d="M6.403 27.751c-.364-.513-.67-1.063-.969-1.616a.454.454 0 0 1-.064-.235c.046-.306-.134-.556-.208-.831a.968.968 0 0 0 .468.009c.162-.034.324-.064.489-.021.247.379.43.79.617 1.203a2.94 2.94 0 0 1-.633.086c-.262.003-.296.07-.17.296.198.355.427.69.598 1.06l-.128.05z" fill="#EFC13C"/><path d="M23.29 4.715c.183-.18.427-.104.644-.14.305-.053.614-.068.92-.108.137-.018.195-.085.064-.195a.252.252 0 0 1-.098-.217c.238.085.486.137.703.275-.034.201.143.229.26.29.167.092.35.153.528.23.064.027.128.07.125.149-.003.095-.095.085-.159.098-.217.049-.44.003-.657.03-.195.025-.424-.018-.553.196-.546-.202-1.084-.422-1.662-.535a.201.201 0 0 1-.116-.076v.003z" fill="#F4D042"/><path d="M17.637 33.578c-.1.122-.244.104-.379.116-.599.052-1.194.104-1.793.159-.064.006-.162-.006-.174.073-.016.092.088.085.15.104.063.018.11.052.134.113-.058.018-.116.033-.171.052-.327.006-.608-.156-.908-.25.067-.163-.07-.193-.165-.248-.143-.083-.33-.077-.452-.208.052-.012.104-.037.159-.037.464-.006.923-.079 1.384-.128.15-.015.318.01.44-.119.238.055.477.11.715.168.351.086.715.1 1.063.208l-.003-.003z" fill="#EFC43D"/><path d="M6.745 12.032c-.131-.076-.07-.174-.027-.266.06-.122.155-.226.183-.366.156-.132.217-.33.324-.495.073-.116.247-.226.165-.37-.083-.144-.266-.037-.403-.04-.395-.006-.728.101-.896.501a.244.244 0 0 1-.226.153c.113-.379.352-.681.578-.993.11.12.17.021.217-.061a.77.77 0 0 1 .525-.397c.3-.055.605-.116.914-.037-.01.104-.193.199-.022.315-.073.174-.19.318-.305.464-.4.492-.712 1.045-1.033 1.589l.006.003z" fill="#E8B337"/><path d="M35.306 20.773c-.025.336-.061.672-.165.993-.055 0-.11 0-.165-.003-.236-.073-.477-.046-.715-.028-.138.01-.217.104-.254.236-.049.18-.098.357-.146.538l-.129-.046c.135-.532.19-1.076.303-1.61.082-.007.134-.046.159-.126.317.006.638.028.947-.08.055.04.11.083.162.123l.003.003z" fill="#E2A632"/><path d="M3.962 17.55c-.067.027-.132.058-.199.085.08-.944.293-1.866.51-2.786.025-.107.07-.208.104-.312.016-.012.028-.027.043-.04.104 0 .147-.07.186-.155.065-.14.086-.3.184-.425.305.012.602-.113.91-.04-.055.288-.113.572-.26.832-.247-.028-.488.03-.736.045-.137.01-.217.089-.263.22-.07.208-.1.425-.146.639-.101.266-.132.544-.168.825a6.518 6.518 0 0 0-.168 1.112h.003z" fill="#E7B036"/><path d="M5.163 25.069c.073.275.25.525.207.83a.98.98 0 0 1-.22-.344 16.083 16.083 0 0 1-1.377-5.2c-.04-.437-.034-.877-.05-1.317.144.195.22.415.205.66.064.272 0 .556.08.825.018.333.027.669.15.99.051.623.186 1.225.397 1.814.04.25.119.486.241.706.055.37.23.697.37 1.036h-.003z" fill="#F4D042"/><path d="M10.28 31.714c-.351-.14-.62-.385-.865-.663-.042-.214-.195-.351-.348-.489-.067-.058-.14-.11-.15-.208.361-.045.722-.091 1.085-.134.351.22.666.489.993.745-.12.04-.241.04-.363.05-.205.015-.413.005-.608.067-.156.048-.162.116-.05.232.104.104.26.156.312.314 0 .031 0 .058-.003.089l-.003-.003z" fill="#DE9E30"/><path d="M8.101 9.667c-.308-.08-.614-.018-.913.037a.749.749 0 0 0-.526.397c-.045.083-.106.18-.216.061.189-.324.381-.644.66-.907.11.036.204.009.271-.086.208-.275.495-.345.82-.33.134.006.271-.009.409-.021.08-.006.15-.012.198.067-.223.269-.41.571-.7.782h-.002z" fill="#EFC13C"/><path d="M33.2 10.944c.248.352.468.718.617 1.122-.009.03-.027.064-.03.094-.046.321-.046.312-.364.36-.17.028-.357 0-.51.114-.085-.064-.119-.159-.159-.254-.046-.113-.088-.226-.207-.284l-.086-.33c.064-.058.144-.073.226-.082.144-.018.287-.034.428-.064.198-.046.223-.104.137-.29-.058-.126-.128-.248-.049-.392l-.003.006z" fill="#E7B036"/><path d="M5.862 11.152A.244.244 0 0 0 6.088 11c.168-.4.501-.51.895-.5.138 0 .321-.105.404.039.082.14-.092.254-.165.37-.104.165-.168.363-.324.495a6.487 6.487 0 0 0-.843.04c-.26.027-.333.238-.44.415-.064.104-.092.238-.248.244 0-.097.028-.186.077-.272.1-.177.22-.342.275-.543a.2.2 0 0 1 .14-.138l.003.003z" fill="#DE9E30"/><path d="M33.454 26.471c-.107.394-.333.718-.58 1.03-.107-.043-.169.018-.224.091-.048.068-.097.135-.183.156-.223-.091-.443-.006-.666.012-.1.01-.214.058-.28-.052-.071-.116.045-.183.094-.265.064-.104.15-.196.183-.318.067-.07.138-.137.205-.208.235.08.47.03.706.012.265-.02.449-.137.543-.39.034-.092.089-.169.19-.2l.009.13.003.002z" fill="#EBB839"/><path d="M32.458 11.772c.027.11.058.22.086.33h-.092c-.043-.06-.092-.119-.128-.183-.361-.639-.761-1.25-1.195-1.84h.131c.077.05.129.123.187.19a.686.686 0 0 0 .62.254c.513-.055.513-.058.385-.55-.015-.058-.025-.122-.037-.18.177.119.294.28.33.495 0 .14.055.265.113.39.11.23.055.321-.204.349-.123.012-.245.03-.367.043-.156.015-.208.082-.129.232.086.165.178.324.297.467l.003.003z" fill="#DB982D"/><path d="M29.65 31.14c-.284.244-.547.522-.91.657v-.086c-.003-.125-.077-.168-.19-.162-.155.006-.314.01-.47.021-.211.016-.422.043-.633.058-.058.003-.131 0-.15-.076-.015-.064.043-.095.086-.128.199-.138.4-.263.617-.373.126.125.282.083.425.064.391-.049.785-.098 1.18-.107l.045.132z" fill="#E2A632"/><path d="M32.91 12.64c.153-.116.34-.088.51-.113.318-.049.318-.04.364-.36.006-.034.022-.065.03-.095.236.461.477.923.593 1.433-.054 0-.122 0-.15-.05-.143-.231-.369-.198-.586-.189-.156.007-.312.025-.467.04-.15-.198-.22-.43-.294-.66v-.006z" fill="#EFC43D"/><path d="M32.458 11.772a2.571 2.571 0 0 1-.296-.467c-.08-.15-.028-.217.128-.232.122-.013.245-.03.367-.043.256-.028.311-.12.205-.348-.059-.126-.114-.25-.114-.391.254.15.318.43.456.66-.08.14-.01.262.048.39.086.187.062.245-.137.29-.14.031-.284.047-.428.065a.4.4 0 0 0-.226.082l-.003-.006z" fill="#E2A632"/><path d="M23.415 3.642c-.05.132-.15.12-.257.098-.574-.1-1.146-.226-1.726-.275-.45-.04-.892-.128-1.35-.082-.2.021-.44.073-.55-.199.999-.046 1.985.049 2.966.217.309.052.611.156.914.238l.003.003z" fill="#DE9E30"/><path d="M32.464 27.751c.089-.021.135-.088.184-.155.055-.077.119-.138.223-.092-.272.553-.679 1.011-1.042 1.497-.348.467-.764.88-1.183 1.286a.42.42 0 0 1-.168.113l-.045-.131c.265-.303.531-.602.794-.904.263-.227.464-.505.657-.789.232-.247.464-.498.583-.825h-.003zM13.876 33.49c.122.13.309.124.452.207.095.055.232.085.165.247-1.048-.311-2.016-.806-2.957-1.353-.064-.037-.122-.089-.18-.135.015-.042.027-.085.042-.125.184.055.336.186.529.22.275.284.638.4.999.526.28.22.614.317.95.412z" fill="#F4D042"/><path d="M11.805 5.445c-.254.07-.456.244-.694.345-.055-.015-.113-.03-.168-.049.165-.241.443-.317.678-.449.706-.4 1.433-.754 2.185-1.063.128-.052.256-.1.397-.095-.04.144-.153.202-.278.25-.608.233-1.2.505-1.772.82-.126.07-.263.122-.352.244l.004-.003z" fill="#DC9A2E"/><path d="M34.975 21.763c.056 0 .11 0 .166.003.012.443-.172.846-.263 1.268-.123.571-.324 1.121-.544 1.662-.012.03-.04.055-.061.08l-.092-.083c.04-.177.08-.354.116-.535.278-.531.376-1.118.507-1.695.092-.226.107-.47.168-.703l.003.003z" fill="#D78D29"/><path d="M16.977 34.403c1.002.1 2.001.204 3.01.201v.162c-.91.037-1.815-.021-2.72-.131-.116-.015-.25.003-.339-.113l.046-.12h.003z" fill="#DC9A2E"/><path d="M28.743 31.71v.087c-.025.091-.089.15-.165.201-.572.376-1.158.733-1.766 1.048-.064.034-.14.046-.214.07-.015-.042-.034-.085-.049-.128.058-.052.116-.104.177-.156.36-.085.642-.3.908-.54.256-.04.44-.211.647-.343.147-.095.266-.244.465-.238h-.003z" fill="#DB982D"/><path d="M8.917 30.354c.006.101.083.15.15.208.153.138.306.275.348.489a2.044 2.044 0 0 1-.525-.385c-.36-.354-.718-.715-1.073-1.072a1.427 1.427 0 0 1-.299-.437c.028-.015.055-.034.086-.05l.568.545c.217.268.43.537.745.702z" fill="#D78D29"/><path d="M19.99 34.766v-.162c.498-.042.993-.082 1.49-.125.15-.012.3-.027.45-.04 0 .052.003.104.006.156-.12.061-.254.064-.382.073-.52.037-1.036.138-1.561.095l-.003.003z" fill="#E7B036"/><path d="M17.842 3.26c0 .095-.037.153-.138.172l-1.653.302c-.116.021-.137-.058-.155-.144h.003a.427.427 0 0 1 .045-.033c.52-.086 1.027-.226 1.553-.272l.345-.028v.003z" fill="#FADC46"/><path d="M7.604 29.108c-.028.015-.055.034-.086.049a.39.39 0 0 1-.198-.14c-.306-.422-.673-.801-.917-1.266.043-.015.086-.033.128-.049.178.208.355.416.532.627.128.235.29.443.489.623l.049.159.003-.003zM34.184 24.693l.092.082c-.14.575-.467 1.07-.72 1.592-.02.04-.068.067-.102.104 0-.043-.006-.085-.009-.128l.052-.281c.1-.101.134-.236.202-.355.183-.326.253-.709.485-1.014z" fill="#E2A632"/><path d="M35.186 17.8h.193c.018.437.036.874.052 1.311a.679.679 0 0 1-.04.303c-.055 0-.11 0-.162-.004l-.01-.653c.035-.321-.036-.636-.039-.954h.01l-.004-.003z" fill="#EFC13C"/><path d="m16.977 34.403-.046.119a4.886 4.886 0 0 1-1.53-.33c.058-.019.113-.034.17-.052.48.024.942.137 1.403.263h.003zM10.943 5.741c.055.016.113.03.168.05-.305.216-.617.43-.92.656a.408.408 0 0 1-.363.083c.32-.333.7-.584 1.112-.789h.003zM26.546 32.988c.015.043.034.086.05.128-.389.233-.801.413-1.235.541a5.75 5.75 0 0 0-.046-.125l.782-.376c.14-.082.293-.125.45-.168zM11.398 32.331c-.015.043-.027.086-.043.125-.4-.186-.77-.418-1.078-.742 0-.03 0-.058.003-.089.107.006.19.064.278.12.223.14.45.28.672.418l.165.165.003.003zM35.23 19.407c.054 0 .11 0 .161.003 0 .456.006.911-.085 1.36-.055-.04-.11-.082-.162-.122.036-.413.091-.825.085-1.24z" fill="#E7B036"/><path d="M25.318 33.532c.015.043.03.085.046.125-.376.223-.795.32-1.207.443.006-.092.024-.192.122-.217.358-.091.675-.29 1.042-.351h-.003z" fill="#EFC43D"/><path d="m30.43 30.269.045.131c-.018.086-.08.144-.14.196-.226.183-.456.363-.685.547l-.045-.132c.128-.214.397-.296.504-.531l.32-.211z" fill="#EBB839"/><path d="M21.933 34.595c0-.052-.003-.104-.006-.156.293-.122.608-.122.916-.15.073-.006.144.037.199.095-.358.132-.737.16-1.11.211z" fill="#F4D042"/><path d="M4.42 14.498s-.027.027-.043.04c.016-.013.028-.028.043-.04z" fill="#D78D29"/><path d="m15.942 3.56-.046.034c.015-.013.03-.025.046-.034z" fill="#EBB839"/><path d="M31.129 10.083c.43.592.831 1.204 1.195 1.84.036.063.085.121.128.182.208.49.412.978.666 1.442.156.471.312.938.47 1.409.312 1.188.498 2.398.569 3.627V18.79c-.03.688-.058 1.378-.125 2.063-.114.534-.169 1.078-.303 1.61-.1.327-.199.657-.3.983-.226.737-.559 1.433-.861 2.14-.324.485-.602.998-.895 1.502l-1.164 1.507-.104.1c-.773.782-1.552 1.55-2.463 2.182a14.59 14.59 0 0 1-6.43 2.502c-.074.012-.148.025-.224.034-.791.085-1.583.091-2.377.085a16.261 16.261 0 0 1-2.487-.33c-.586-.122-1.149-.324-1.723-.476l-1.082-.44-1.442-.746c-.724-.397-1.365-.913-2-1.433-.407-.333-.786-.706-1.174-1.06-.245-.272-.489-.547-.733-.819l-.89-1.228c-.36-.605-.736-1.204-1.023-1.851-.07-.16-.107-.342-.238-.47l-.376-1.024a11.69 11.69 0 0 0-.34-1.158c-.21-1.009-.369-2.023-.412-3.053 0-.027 0-.058-.003-.085v-.034c0-.302.003-.608.006-.91l.129-1.405c.116-.605.21-1.213.357-1.812.159-.465.306-.938.48-1.397.214-.562.437-1.12.755-1.637.018-.028.02-.064.033-.098.32-.544.63-1.097 1.033-1.589a1.97 1.97 0 0 0 .305-.464c.459-.486.88-1 1.363-1.464 1.757-1.695 3.816-2.86 6.162-3.531.63-.18 1.271-.29 1.91-.434.687-.037 1.369-.144 2.06-.132a17.74 17.74 0 0 1 2.052.147c1.222.162 2.383.529 3.53.962.57.251 1.123.538 1.676.82.294.189.59.375.88.568.67.443 1.277.965 1.891 1.478l.82.834c.201.315.451.587.705.856h-.006zm2.117 4.497c-.021-.235-.116-.449-.214-.66-.048-.266-.213-.489-.296-.742-.159-.443-.412-.837-.654-1.24a3.583 3.583 0 0 0-.574-.95c-.101-.22-.235-.413-.41-.581a5.132 5.132 0 0 0-.77-.954c-.165-.183-.293-.397-.497-.54-.178-.211-.361-.416-.593-.569a2.373 2.373 0 0 0-.578-.498 5.871 5.871 0 0 0-1.14-.834c-.265-.226-.574-.382-.88-.544-.31-.238-.69-.342-1.032-.522-.437-.223-.883-.422-1.363-.538-.201-.116-.433-.14-.65-.217-.62-.22-1.265-.323-1.913-.403-.473-.134-.96-.147-1.445-.159-.275 0-.547-.006-.822-.009-.33.006-.663-.03-.993.043-.363 0-.724.036-1.075.131-.419.058-.84.098-1.238.25-.296.077-.598.144-.892.236-1.702.52-3.235 1.353-4.625 2.456-.517.41-1.018.838-1.44 1.35-.32.3-.62.618-.849.994-.232.217-.41.476-.574.742-.208.284-.4.578-.55.898-.165.214-.309.44-.367.712-.296.416-.473.89-.641 1.366-.3.66-.498 1.35-.63 2.062-.097.367-.198.734-.204 1.116-.062.311-.113.626-.095.947-.073.357-.046.715-.037 1.075-.009.333-.036.666.022 1 .018.445.048.888.165 1.322.009.266.073.523.146.776.015.23.067.452.165.66.11.532.297 1.042.523 1.534.085.32.232.614.394.898.168.391.357.773.608 1.121.085.217.217.407.366.584.11.247.285.455.456.66.262.39.553.76.9 1.081.108.18.258.321.423.446.183.217.37.431.62.575.357.394.782.705 1.228.993.25.226.538.394.831.55.238.186.504.32.78.443.237.146.485.28.754.37.287.161.59.286.907.375.348.156.7.3 1.079.358.317.134.654.195.99.253.855.205 1.723.315 2.606.318.495.006.993.043 1.485-.037.17.019.342-.018.51-.04.663-.085 1.329-.161 1.967-.372a.758.758 0 0 0 .083-.012c1.204-.272 2.325-.752 3.4-1.35 1.26-.7 2.399-1.556 3.355-2.638a10.892 10.892 0 0 0 1.466-1.817c.343-.413.608-.871.829-1.357.44-.74.77-1.527.992-2.359.171-.354.257-.733.318-1.118.153-.498.223-1.014.281-1.527.043-.468.123-.932.086-1.403.07-.302-.01-.605-.003-.907.027-.278-.025-.55-.043-.825-.104-.465-.058-.953-.235-1.402a2.89 2.89 0 0 0-.211-.908c-.01-.238-.15-.437-.205-.66l.003-.003z" fill="#8D6020"/><path d="M17.512 4.55c-.636.143-1.28.253-1.91.434C13.26 5.656 11.2 6.82 9.44 8.515c-.48.465-.905.978-1.363 1.464-.171-.116.012-.208.021-.315.29-.21.477-.513.7-.782.315-.296.633-.59.944-.889.05-.046.122-.092.086-.171-.034-.076-.12-.052-.184-.058-.235-.015-.464.024-.696.055-.073.009-.159.04-.202-.049-.036-.076.028-.128.074-.177.29-.29.617-.544.94-.795.059-.045.123-.048.193-.055.403-.033.807-.064 1.21-.11.232-.024.461-.079.663-.204.718-.452 1.494-.782 2.255-1.149.4-.12.788-.278 1.191-.397a17.426 17.426 0 0 1 1.968-.443c.113-.019.205 0 .266.104l.006.006z" fill="#FADC46"/><path d="M25.153 5.527c-1.146-.433-2.307-.8-3.529-.962a17.74 17.74 0 0 0-2.053-.147c.076-.11.192-.113.309-.116.216-.006.43-.006.647-.012.859.058 1.705.177 2.54.391.073.018.149.022.222.034a.2.2 0 0 0 .116.076c.575.113 1.115.333 1.662.535l.083.046v.152l.003.003z" fill="#DB982D"/><path d="M21.517 33.38a14.59 14.59 0 0 0 6.431-2.503c.91-.633 1.69-1.4 2.463-2.182l.104-.1c0 .049 0 .094.003.143-.101.232-.342.355-.455.578l-1.284 1.155c-.271.177-.534.37-.782.58a5.087 5.087 0 0 0-.617.373c-.046.03-.1.06-.085.128.018.08.091.08.15.076.21-.015.42-.04.632-.058.155-.012.314-.015.47-.021.113-.003.187.04.19.162-.199-.01-.318.144-.465.238-.207.132-.39.303-.647.342-.474-.03-.942.08-1.412.083-.663 0-1.24.312-1.858.473-.03.01-.052.04-.079.062l-1.198.37c-.522.082-1.035.225-1.567.253v-.153h.006z" fill="#E8B337"/><path d="M23.084 33.281c.4-.122.798-.247 1.198-.37a.342.342 0 0 0 .199.037c.394-.033.788-.073 1.185-.104.351-.027.703-.125 1.057-.015-.058.052-.116.104-.177.156a1.812 1.812 0 0 0-.45.168c-.051-.085-.137-.085-.219-.076-.639.058-1.28.125-1.919.18-.29.024-.58.061-.873.021v.003z" fill="#F4D042"/><path d="M14.707 32.695c.577.152 1.14.354 1.723.476.822.171 1.65.285 2.487.327 0 .05 0 .098-.003.147-.428.033-.852-.055-1.277-.07-.345-.107-.712-.123-1.063-.208a59.576 59.576 0 0 0-.715-.168c-.373-.11-.743-.223-1.115-.333l-.037-.171z" fill="#D78D29"/><path d="M18.914 33.648c0-.049 0-.098.003-.147.795.003 1.586 0 2.377-.085.074-.01.15-.022.223-.034v.153c-.3.08-.608.076-.913.104-.504.043-1.008.073-1.516.055a.331.331 0 0 1-.177-.043l.003-.003z" fill="#E2A632"/><path d="M35.23 19.407c.005.416-.05.828-.086 1.24-.309.108-.63.086-.947.08.07-.605.15-1.21.113-1.82.003-.04.009-.077.012-.117.3-.009.602.019.898-.04l.01.654v.003z" fill="#D78D29"/><path d="M33.528 14.082c.226-.107.467-.082.705-.076.129 0 .205.082.242.192.073.226.143.455.201.688.034.14-.027.235-.174.275-.19.052-.379.04-.571.03-.177-.009-.125-.214-.232-.28-.013-.08-.016-.163-.037-.24-.055-.195-.144-.378-.134-.586v-.003z" fill="#FADC46"/><path d="m34.276 17.883-.082-.99c.302-.024.604-.027.904-.082-.015.26.067.51.086.766.006.074.024.147 0 .223h-.01a3.188 3.188 0 0 0-.901.083h.003z" fill="#E7B036"/><path d="M34.276 17.883c.296-.07.599-.1.901-.083.003.318.074.633.04.954-.297.058-.599.03-.898.04.009-.306-.068-.606-.043-.911z" fill="#E2A632"/><path d="M35.1 16.81c-.299.059-.6.059-.903.083-.074-.165-.089-.345-.114-.52-.024-.17.053-.277.23-.302.134-.018.272-.027.41-.037.149-.009.228.08.259.211.046.187.082.376.122.562l-.003.004z" fill="#EFC43D"/><path d="M34.307 18.906c.036.611-.043 1.216-.114 1.821-.024.08-.076.12-.158.126.067-.688.091-1.375.125-2.063.04.052.076.107.147.116z" fill="#E8B337"/><path d="M33.118 13.547c-.256-.464-.461-.953-.666-1.442h.092c.119.059.165.171.208.284.036.095.073.19.158.254.074.232.144.464.294.66l.033.244h-.119z" fill="#E2A632"/><path d="M33.118 13.547h.12c.094.18.192.358.287.538-.01.208.082.394.134.587.021.076.024.159.037.238-.037.015-.074.03-.107.046l-.47-1.409z" fill="#EBB839"/><path d="M4.298 15.613c.046-.214.076-.43.146-.639.046-.131.123-.214.263-.22.245-.015.49-.073.737-.045l-.104.443c-.055.122-.037.268-.129.378-.308-.015-.608.052-.913.083z" fill="#EFC13C"/><path d="M5.7 13.877c-.308-.073-.605.052-.91.04 0-.244.128-.443.244-.644.05-.086.144-.126.245-.132.17-.015.342-.027.51-.037.159-.009.22.074.168.217-.07.193-.135.388-.257.56v-.004z" fill="#DE9E30"/><path d="M5.211 15.53c.089-.11.074-.256.129-.378.046 0 .091.006.14.009-.146.598-.241 1.206-.357 1.811l-.12-.042c-.027-.18.031-.355.046-.532.077-.284.141-.574.162-.87v.002z" fill="#E2A632"/><path d="M29.604 8.39c-.614-.513-1.225-1.032-1.89-1.479-.291-.192-.587-.378-.88-.568.005-.036.008-.07.015-.107.46.11.913-.04 1.371-.046.077 0 .129-.045.153-.119.196.08.34.23.504.352.037.027.089.055.074.113-.019.067-.08.064-.135.07-.244.027-.489.055-.733.085-.131.019-.19.095-.067.184.36.26.663.593 1.057.806.168.248.443.385.623.618-.03.027-.058.058-.089.085l-.003.006z" fill="#F4D042"/><path d="m26.845 6.24-.015.106c-.556-.28-1.109-.568-1.677-.819v-.152c.583.195 1.124.48 1.647.8.021.012.033.043.049.064h-.004z" fill="#EBB839"/><path d="M31.129 10.083c-.254-.269-.504-.544-.706-.856.086-.067.046-.128-.015-.183a.47.47 0 0 1-.144-.238c.05-.135.165-.129.275-.125.236.006.468.003.679-.126.165.126.305.272.409.452.1.178.076.23-.122.25-.156.02-.315.022-.468.05-.226.04-.241.113-.113.3.11.161.303.265.336.476h-.131z" fill="#DE9E30"/><path d="M5.046 16.398c-.015.177-.07.351-.046.532-.116.388-.137.788-.134 1.191-.223.006-.443.058-.67.052-.164-.006-.234-.073-.231-.235.003-.128 0-.26 0-.388.024-.376.08-.746.168-1.112.094-.01.186-.028.28-.025.215.003.422-.107.636-.012l-.003-.003z" fill="#FADC46"/><path d="M4.008 20.526c-.08-.27-.016-.553-.08-.825l.905-.083c-.01.278.033.553.079.825l-.904.083z" fill="#E7B036"/><path d="M4.912 20.443a4.148 4.148 0 0 1-.08-.825c.01-.104.059-.177.162-.207.043 1.03.202 2.043.413 3.052-.04 0-.08 0-.12.003-.13-.333-.18-.685-.253-1.03-.027-.333-.128-.657-.122-.993z" fill="#F4D042"/><path d="M4.866 18.124c0-.403.019-.803.135-1.191.04.015.08.027.119.043L4.99 18.38c-.125-.046-.11-.156-.125-.254v-.003z" fill="#E8B337"/><path d="M4.988 19.288s.003.022 0 .034c0-.012-.003-.021 0-.034z" fill="#F4D042"/><path d="M30.264 8.803a.479.479 0 0 0 .144.238c.058.058.1.116.015.183l-.822-.834c.03-.027.058-.058.089-.085.202.156.351.37.571.498h.003z" fill="#EFC13C"/><path d="M7.063 28.326c-.177-.208-.355-.416-.532-.627-.17-.37-.4-.705-.599-1.06-.125-.226-.091-.29.171-.296.214 0 .425-.037.633-.086l.492.706c.229.446.571.816.846 1.231-.324.147-.672.098-1.011.132z" fill="#FADC46"/><path d="m5.746 23.62.376 1.024c-.083.138-.012.275 0 .413-.165-.046-.327-.013-.489.021a.968.968 0 0 1-.467-.01c-.141-.338-.315-.665-.37-1.035.168 0 .339.006.507-.012.318-.034.348-.083.315-.397h.128v-.003z" fill="#E2A632"/><path d="M6.119 25.057c-.01-.138-.08-.275 0-.413.134.129.168.312.238.47.287.648.663 1.244 1.024 1.852h-.156c-.165-.235-.327-.47-.492-.706-.186-.412-.367-.825-.617-1.203h.003z" fill="#D78D29"/><path d="M14.744 32.866c.372.11.742.223 1.115.333-.122.128-.293.104-.44.119-.462.049-.92.122-1.384.128-.052 0-.104.025-.159.037-.336-.095-.67-.192-.95-.412.046-.059.11-.077.18-.083l1.638-.128v.006z" fill="#EBB839"/><path d="M34.976 21.763c-.061.232-.08.477-.168.703-.318-.015-.63.03-.941.082 0-.015-.003-.027-.006-.042l.146-.538c.037-.132.116-.226.254-.235.238-.016.48-.043.715.027v.003z" fill="#E7B036"/><path d="m33.86 22.509.007.042a5.808 5.808 0 0 1-.058.22l-.413 1.378c-.052.104-.1.211-.153.315-.192.394-.317.822-.58 1.18a.884.884 0 0 1-.089-.059c.303-.709.633-1.402.862-2.139.1-.326.198-.656.3-.983l.128.046h-.003z" fill="#D78D29"/><path d="M5.046 16.398c-.213-.095-.424.018-.635.012-.095 0-.186.015-.281.025.037-.278.067-.56.168-.825.302-.034.605-.098.913-.083a4.702 4.702 0 0 1-.161.871h-.004z" fill="#F4D042"/><path d="M5.034 21.436c.07.345.12.7.254 1.03-.03.26.128.489.131.742-.284.07-.574.095-.864.12a7.086 7.086 0 0 1-.398-1.816c.29-.048.581-.088.877-.076z" fill="#D78D29"/><path d="M5.034 21.436a4.217 4.217 0 0 0-.877.076c-.122-.317-.131-.653-.15-.99l.905-.082c-.006.336.095.66.122.993v.003z" fill="#E2A632"/><path d="M4.554 23.327c.29-.024.58-.049.865-.119.116.113.125.281.199.416.033.314 0 .363-.315.397-.168.018-.34.009-.507.012a2.125 2.125 0 0 1-.242-.706z" fill="#DE9E30"/><path d="M11.233 32.166c-.223-.14-.45-.278-.672-.418-.086-.055-.171-.113-.278-.12-.052-.155-.208-.21-.312-.314-.113-.113-.104-.184.05-.232.195-.062.402-.052.607-.068.122-.009.245-.012.364-.049.382.202.711.486 1.106.666.119.147.317.172.455.288-.049.04-.1.076-.165.073-.293-.006-.578.089-.87.092-.105 0-.206.009-.288.082h.003z" fill="#D78D29"/><path d="M8.917 30.354c-.314-.165-.528-.433-.745-.702.388-.006.77-.107 1.16-.086.05.046.102.092.148.14.165.18.4.29.519.514-.36.046-.721.092-1.085.134h.003z" fill="#E7B036"/><path d="M10.002 30.22c-.12-.223-.355-.333-.52-.513-.045-.05-.097-.095-.146-.14-.05-.056-.092-.117-.147-.166-.113-.104-.205-.217-.18-.385.39.355.767.727 1.173 1.06.636.52 1.277 1.036 2.001 1.433a.202.202 0 0 1-.082.122c-.394-.18-.724-.467-1.106-.666-.324-.256-.639-.525-.993-.745z" fill="#F4D042"/><path d="M30.518 28.741c0-.049 0-.095-.003-.143l1.164-1.507c.04.013.08.028.12.04-.038.12-.12.21-.184.318-.052.082-.165.153-.095.266.067.107.18.058.281.052.22-.019.443-.104.666-.013-.119.327-.351.578-.583.825-.03-.052-.077-.08-.135-.073-.415.052-.85-.006-1.228.235h-.003z" fill="#E2A632"/><path d="M33.497 26.062c-.019.095-.034.186-.052.28-.1.031-.156.108-.19.2-.094.25-.278.37-.543.39-.239.019-.47.07-.706-.012l.492-.867c.082.049.17.045.26.042.247-.009.494-.021.739-.033z" fill="#EFC43D"/><path d="m32.495 26.053-.492.867c-.067.07-.138.138-.205.208-.04-.012-.08-.027-.119-.04.293-.504.571-1.017.895-1.503.03.018.061.037.089.058-.003.16-.132.266-.168.41zM27.998 31.051c.247-.21.51-.403.782-.58.15.152.336.076.507.067.275-.016.544-.067.822-.061-.107.235-.376.317-.504.531-.398.01-.789.061-1.18.107-.146.019-.3.061-.424-.064h-.003z" fill="#DE9E30"/><path d="M30.109 30.477c-.275-.006-.547.049-.822.06-.171.01-.355.086-.508-.066l1.284-1.155c.272.018.54-.025.81-.058.137-.019.256-.003.35.103-.265.303-.53.602-.794.905l-.32.21z" fill="#D78D29"/><path d="M31.224 29.364c-.095-.11-.217-.122-.352-.103-.268.036-.537.076-.81.058.114-.223.355-.346.456-.578.379-.241.813-.183 1.228-.235.061-.006.104.021.135.073-.193.284-.395.563-.657.788v-.003z" fill="#DE9E30"/><path d="m14.744 32.866-1.638.128c-.07.006-.134.025-.18.083-.358-.126-.724-.242-1-.526a.273.273 0 0 1 .175-.052c.342.015.675-.08 1.014-.085a.25.25 0 0 0 .223-.123c.098 0 .196.01.288-.036l1.081.44c.012.058.024.116.037.17z" fill="#E2A632"/><path d="M13.338 32.291a.263.263 0 0 1-.223.123c-.339.009-.672.1-1.014.085a.299.299 0 0 0-.174.052c-.193-.034-.345-.165-.529-.22l-.165-.165c.083-.073.183-.082.287-.082.294 0 .578-.098.871-.092.061 0 .116-.034.165-.073.26.125.523.247.782.372z" fill="#DB982D"/><path d="M32.495 26.053c.04-.144.165-.25.168-.41.262-.36.388-.785.58-1.18.052-.103.101-.21.153-.314.11.012.217 0 .324-.012.192-.018.39-.076.58.027-.04.178-.08.355-.116.535-.232.306-.302.684-.486 1.014-.067.12-.1.254-.201.355-.248.012-.495.024-.74.034-.088.003-.18.006-.26-.043l-.002-.006z" fill="#FADC46"/><path d="M34.3 24.161c-.19-.104-.385-.045-.58-.027-.11.012-.217.027-.324.012l.413-1.378c.02-.073.04-.146.058-.22.311-.052.623-.098.94-.082-.13.577-.229 1.164-.507 1.695z" fill="#EFC13C"/><path d="M26.723 32.832c-.354-.11-.705-.012-1.057.015-.394.031-.791.068-1.185.104a.342.342 0 0 1-.199-.036c.028-.022.05-.055.08-.061.617-.165 1.194-.474 1.857-.474.47 0 .938-.113 1.412-.083-.266.242-.547.456-.908.541v-.006z" fill="#EFC43D"/><path d="M9.006 29.016c-.024.168.067.281.18.385.055.049.098.11.147.165-.391-.021-.773.083-1.161.086-.19-.18-.379-.364-.571-.544-.016-.052-.034-.104-.05-.159.264.003.523-.027.78-.067.217-.034.238-.122.098-.284-.107-.123-.23-.239-.29-.395.045 0 .091-.006.134-.006l.733.82z" fill="#EFC13C"/><path d="M8.138 28.203c.061.156.184.272.29.395.141.162.12.25-.097.284-.257.04-.517.073-.78.067a2.36 2.36 0 0 1-.488-.623c.339-.034.687.018 1.011-.132.021 0 .043.003.064.006v.003z" fill="#F4D042"/><path d="M33.252 23.337a9.476 9.476 0 0 1-.992 2.358c-.08-.058-.156-.03-.23.015-.094.058-.19.113-.284.168-1.472.844-2.951 1.675-4.418 2.533-1.442.843-2.887 1.68-4.335 2.509-1.216.696-2.426 1.405-3.639 2.105-.116.067-.195.15-.19.293-.88 0-1.747-.11-2.605-.318a.262.262 0 0 1 .128-.128c.81-.477 1.64-.92 2.444-1.412.736-.452 1.5-.867 2.249-1.301.861-.501 1.717-1.011 2.582-1.51 1.322-.76 2.648-1.512 3.971-2.273.642-.37 1.271-.766 1.919-1.124.59-.327 1.17-.666 1.754-1.002.363-.208.718-.434 1.087-.63.184-.097.327-.287.563-.28l-.004-.003z" fill="#D78D29"/><path d="M21.682 4.788c.65.08 1.293.183 1.913.403-.34.248-.718.431-1.079.642-1.045.608-2.09 1.219-3.131 1.827-.453.263-.908.52-1.357.785-.116.067-.253.122-.272.287-.715.172-1.433.327-2.114.618-1.384.59-2.618 1.387-3.645 2.499-.269.293-.483.635-.797.886-.065-.05-.129-.034-.193 0-.287.159-.583.305-.864.48-1.272.79-2.58 1.524-3.878 2.27-.235.134-.455.311-.73.372a8.7 8.7 0 0 1 .63-2.062.654.654 0 0 0 .268-.1c.514-.294 1.03-.584 1.54-.88 1.647-.957 3.29-1.92 4.94-2.873 1.94-1.121 3.887-2.233 5.83-3.351.865-.498 1.726-1 2.585-1.503.131-.077.293-.135.351-.3h.003z" fill="#DC9A2E"/><path d="M21.682 4.788c-.06.168-.22.223-.351.3-.859.504-1.723 1.005-2.585 1.503-1.943 1.118-3.89 2.23-5.83 3.351-1.65.954-3.293 1.916-4.94 2.872-.51.297-1.026.59-1.54.88a.653.653 0 0 1-.268.1c.168-.476.345-.95.641-1.365.15-.006.275-.082.4-.156 1.409-.815 2.818-1.634 4.226-2.45l4.103-2.37c1.482-.856 2.96-1.715 4.44-2.573.103-.061.223-.113.26-.25.485.011.974.024 1.444.158z" fill="#D78D29"/><path d="M33.252 23.337c-.235-.007-.375.183-.562.28-.37.193-.724.42-1.087.63-.584.336-1.164.675-1.754 1.002-.65.36-1.277.755-1.919 1.124-1.323.761-2.649 1.513-3.972 2.274-.864.498-1.72 1.008-2.581 1.509-.749.434-1.51.85-2.249 1.301-.803.492-1.634.935-2.444 1.412-.055.034-.104.07-.128.128-.337-.06-.673-.119-.99-.253.08-.15.241-.175.37-.248 1.76-1.02 3.519-2.035 5.276-3.052.107-.061.223-.113.26-.25.106-.028.21-.059.317-.083a10.445 10.445 0 0 0 4.962-2.622c.351-.33.632-.72.98-1.053.19.009.343-.095.496-.184 1.65-.956 3.296-1.918 4.946-2.875.122-.07.238-.165.394-.162-.06.385-.15.764-.318 1.119l.003.003zM19.162 33.315c-.007-.144.076-.226.189-.293 1.213-.703 2.423-1.412 3.639-2.105a470.766 470.766 0 0 0 4.335-2.509c1.464-.858 2.945-1.69 4.418-2.533.095-.055.19-.11.284-.168.076-.046.15-.073.23-.015a6.04 6.04 0 0 1-.829 1.357.842.842 0 0 0-.37.122l-1.176.681c-.794.462-1.58.938-2.383 1.387-1.234.688-2.45 1.406-3.675 2.114a270.09 270.09 0 0 0-2.597 1.516c-.205.122-.43.214-.584.406-.495.077-.99.04-1.485.037l.003.003z" fill="#DB982D"/><path d="M20.65 33.278c.152-.195.381-.287.583-.406.861-.51 1.73-1.014 2.597-1.515 1.222-.71 2.441-1.427 3.675-2.115.804-.446 1.59-.925 2.384-1.387.39-.226.782-.455 1.176-.681a.828.828 0 0 1 .37-.122 11.04 11.04 0 0 1-1.467 1.817c-.223-.015-.358.16-.532.245-.803.403-1.56.889-2.346 1.326-.575.32-1.118.694-1.696 1.005-.669.36-1.32.758-1.98 1.137-.122.07-.232.15-.28.287-.64.21-1.305.287-1.968.373-.168.021-.336.058-.51.04l-.007-.004zM33.573 22.218c-.156-.006-.272.089-.394.162-1.65.957-3.296 1.916-4.946 2.875-.153.089-.306.19-.495.184.467-.697.968-1.375 1.31-2.148.315-.019.547-.22.795-.37.706-.425 1.439-.804 2.139-1.24.458-.288.968-.48 1.405-.804.14-.104.29-.183.47-.186-.06.516-.128 1.03-.28 1.527h-.004z" fill="#E2A632"/><path d="M24.245 5.411c.48.113.926.312 1.363.538-.046.03-.088.067-.134.095-.483.272-.95.571-1.445.825-.346.177-.657.421-1.003.595-.507.257-.965.593-1.478.838-.162.076-.349.177-.407.385a20.065 20.065 0 0 0-2.184-.098c.033-.208.217-.275.366-.36.728-.42 1.467-.82 2.188-1.247a71.185 71.185 0 0 1 2.738-1.57h-.004z" fill="#E8B337"/><path d="M11.218 30.645c-.443-.287-.87-.6-1.228-.993.052-.086.137-.129.223-.178.972-.568 1.943-1.136 2.912-1.707.162-.095.32-.184.504-.226.486.229.929.543 1.402.794 0 .116-.049.19-.15.247-.825.47-1.64.95-2.468 1.415-.394.22-.761.498-1.195.648z" fill="#FADC46"/><path d="M18.422 4.663c.327-.07.66-.037.993-.043a.362.362 0 0 1-.18.217c-1.295.752-2.59 1.506-3.89 2.255-1.652.956-3.308 1.91-4.964 2.866-.987.57-1.974 1.145-2.96 1.717-.077.042-.15.11-.245.042.15-.32.342-.614.55-.898.11.055.202-.006.29-.055 1.338-.773 2.68-1.543 4.018-2.319 1.155-.669 2.297-1.356 3.461-2.007.926-.516 1.83-1.066 2.747-1.592.076-.046.159-.085.183-.183h-.003zM6.223 24.29a7.385 7.385 0 0 1-.523-1.534.67.67 0 0 0 .29-.098c.84-.492 1.678-.987 2.524-1.466.257-.147.483-.373.81-.382.091.535.256 1.048.397 1.57-.028.01-.055.015-.076.028-.88.48-1.739.999-2.604 1.506-.26.15-.504.34-.818.376z" fill="#E7B036"/><path d="M27.52 7.015c.413.233.795.51 1.14.834-.015.129-.119.178-.214.233-.953.556-1.928 1.081-2.869 1.662-.204.125-.406.256-.647.302-.45-.223-.898-.449-1.35-.672.012-.116.106-.153.189-.202.388-.235.779-.464 1.176-.684.865-.48 1.717-.98 2.576-1.476v.003z" fill="#FADC46"/><path d="M7.176 11.72c.095.068.171 0 .244-.042l2.96-1.717c1.654-.957 3.31-1.91 4.966-2.866 1.298-.752 2.59-1.503 3.889-2.255a.355.355 0 0 0 .18-.217c.275 0 .547.006.822.01-.034.137-.153.189-.26.25-1.478.858-2.96 1.717-4.439 2.572-1.369.792-2.737 1.58-4.103 2.371-1.409.816-2.817 1.635-4.225 2.45-.126.07-.248.15-.4.156.06-.269.201-.495.366-.712z" fill="#DE9E30"/><path d="M33.662 16.148c.174.452.131.94.235 1.402-.037.018-.076.034-.11.055l-3.443 1.989c-.12.067-.235.143-.382.143 0-.507 0-1.017.003-1.524.134-.086.263-.174.4-.254.825-.482 1.65-.968 2.478-1.442.26-.146.501-.345.819-.373v.004z" fill="#FADC46"/><path d="M33.854 20.688a.828.828 0 0 0-.47.186c-.437.324-.947.516-1.406.803-.7.437-1.433.813-2.138 1.241-.248.15-.48.354-.795.37.236-.523.404-1.07.58-1.61a.51.51 0 0 0 .276-.068c.956-.556 1.91-1.121 2.875-1.662.388-.217.748-.486 1.164-.66.034.47-.043.935-.086 1.403v-.003z" fill="#EBB839"/><path d="M5.389 21.317c-.116-.434-.144-.877-.165-1.323.082-.061.162-.128.25-.18.608-.349 1.216-.694 1.824-1.039.406-.23.819-.45 1.213-.697.23-.143.461-.268.712-.36-.055.507-.046 1.017-.055 1.524-.037.016-.076.031-.113.05-1.057.555-2.078 1.176-3.11 1.777-.174.101-.34.242-.56.245l.004.003z" fill="#FADC46"/><path d="M8.948 28.634a6.37 6.37 0 0 1-.901-1.081.453.453 0 0 1 .204-.196c.584-.333 1.158-.681 1.748-.999.495-.269.935-.63 1.457-.843.343.311.602.7.935 1.02a.764.764 0 0 1-.241.19c-.957.553-1.913 1.103-2.869 1.65-.125.073-.257.131-.336.262l.003-.003z" fill="#E8B337"/><path d="M21.474 29.193c-.033.138-.152.19-.26.251l-5.276 3.052c-.128.073-.29.098-.37.248-.378-.058-.732-.202-1.078-.358.061-.107.165-.165.266-.223l4.345-2.484c.134-.076.253-.165.308-.317.694.003 1.378-.08 2.066-.169z" fill="#E2A632"/><path d="M32.082 11.937c.242.4.495.798.654 1.24a.587.587 0 0 0-.266.102c-.473.278-.956.543-1.42.834-.584.363-1.22.632-1.773 1.045l-.595-1.277c.177-.153.394-.248.595-.364.624-.36 1.247-.721 1.87-1.079.309-.174.59-.403.938-.5h-.003z" fill="#DC9A2E"/><path d="M5.535 15.86c.275-.06.495-.238.73-.372 1.3-.746 2.607-1.48 3.878-2.27.278-.175.577-.321.864-.48.065-.037.129-.052.193 0l-.898 1.476a.537.537 0 0 0-.312.088c-.907.526-1.815 1.054-2.725 1.58-.642.37-1.287.733-1.931 1.1.006-.382.107-.749.204-1.116l-.003-.006z" fill="#E2A632"/><path d="M21.142 8.684c.058-.208.244-.309.406-.385.513-.245.972-.584 1.479-.838.345-.174.657-.418 1.002-.595.495-.254.962-.553 1.445-.825.049-.028.088-.061.134-.095.34.18.718.287 1.033.522-.18.22-.443.318-.678.453-1.045.608-2.096 1.206-3.144 1.808-.113.065-.23.135-.235.288-.48-.113-.96-.223-1.442-.337v.004z" fill="#EFC13C"/><path d="M30.331 9.453c.3.285.547.609.77.954a.9.9 0 0 1-.232.198c-.669.388-1.341.776-2.007 1.17-.385.226-.788.416-1.155.67-.315-.294-.58-.63-.868-.948.239-.137.477-.268.712-.409.923-.55 1.876-1.051 2.78-1.635z" fill="#E2A632"/><path d="M7.225 26.31a6.21 6.21 0 0 1-.608-1.122.602.602 0 0 0 .266-.1c.821-.471 1.646-.939 2.462-1.419.241-.14.501-.256.694-.47l.614 1.164c-.129.064-.263.12-.388.19-.575.32-1.15.641-1.72.971-.447.257-.883.523-1.326.785h.006z" fill="#D78D29"/><path d="M18.422 4.663c-.024.098-.104.14-.183.183-.917.529-1.824 1.076-2.747 1.592-1.164.65-2.307 1.338-3.461 2.007-1.339.776-2.68 1.546-4.018 2.32-.089.051-.177.11-.29.054.165-.269.345-.525.574-.742.15-.01.275-.089.4-.16 1.977-1.142 3.95-2.284 5.924-3.427.804-.465 1.607-.929 2.408-1.396.125-.074.284-.123.318-.3a4.249 4.249 0 0 1 1.075-.131z" fill="#EFC13C"/><path d="M5.33 16.976c.645-.367 1.29-.73 1.931-1.1.91-.523 1.818-1.051 2.726-1.58a.595.595 0 0 1 .311-.089c-.232.407-.345.865-.559 1.277a.555.555 0 0 0-.33.095 15.65 15.65 0 0 1-.614.376c-.904.522-1.805 1.048-2.713 1.558-.272.153-.516.376-.85.403-.018-.32.034-.635.095-.947l.004.006z" fill="#EBB839"/><path d="M19.41 29.361c-.056.153-.175.242-.31.318l-4.344 2.484c-.1.058-.205.116-.266.223a4.063 4.063 0 0 1-.907-.376c.104-.183.3-.235.464-.327 1.231-.712 2.441-1.457 3.697-2.132.116-.064.22-.14.263-.275.47-.003.935.055 1.402.085z" fill="#E7B036"/><path d="M5.236 17.923c.333-.028.574-.25.85-.404.91-.51 1.81-1.035 2.712-1.558.208-.119.413-.247.614-.376a.55.55 0 0 1 .33-.094c-.113.4-.226.8-.342 1.203-.199.01-.367.11-.532.205-.852.498-1.698 1.002-2.554 1.494-.366.21-.712.465-1.115.608-.01-.357-.04-.718.037-1.075v-.003z" fill="#EFC43D"/><path d="M17.344 4.794c-.03.177-.193.226-.318.3-.8.467-1.604.931-2.407 1.396-1.974 1.143-3.948 2.288-5.925 3.428-.125.07-.247.15-.4.159.23-.38.529-.694.85-.993a.487.487 0 0 0 .232-.077c1.078-.62 2.157-1.237 3.235-1.857.507-.29 1.011-.584 1.519-.874.602-.345 1.2-.69 1.802-1.039.08-.046.15-.1.171-.195.4-.15.822-.193 1.238-.25l.003.002z" fill="#F4D042"/><path d="M32.082 11.937c-.348.098-.629.327-.938.501-.626.355-1.25.715-1.87 1.079-.201.116-.415.21-.595.364-.245-.297-.403-.648-.633-.954a.507.507 0 0 0 .257-.07l3.208-1.87c.238.287.434.602.574.95h-.003z" fill="#D78D29"/><path d="M22.584 9.02c.009-.153.122-.223.235-.288 1.048-.601 2.099-1.2 3.144-1.808.235-.138.498-.232.678-.452.305.161.614.317.88.543-.859.492-1.711.996-2.576 1.476-.397.22-.788.45-1.176.684-.083.05-.177.086-.19.202-.332-.12-.666-.235-.995-.354V9.02z" fill="#F4D042"/><path d="M33.943 19.285c-.416.174-.776.443-1.164.66-.966.54-1.919 1.106-2.875 1.662a.462.462 0 0 1-.275.067c.08-.357.159-.715.235-1.069.101 0 .186-.037.272-.085.214-.129.428-.248.642-.373.828-.48 1.653-.96 2.48-1.433.22-.125.422-.29.679-.336-.006.302.076.605.003.907h.003z" fill="#EFC43D"/><path d="M5.202 18.998c.403-.143.749-.397 1.115-.608.856-.489 1.702-.996 2.555-1.494.165-.095.333-.195.531-.205-.122.333-.067.694-.18 1.03-.25.092-.486.217-.712.36-.394.248-.807.465-1.213.697-.608.345-1.216.69-1.824 1.039-.088.052-.168.119-.25.18-.058-.333-.034-.666-.022-.999zM11.218 30.645c.434-.147.8-.428 1.195-.648.828-.461 1.646-.944 2.468-1.415.101-.058.153-.134.15-.247l1.045.418c-.083.16-.25.205-.388.29-.755.474-1.53.905-2.304 1.348-.452.26-.907.507-1.335.807-.296-.156-.583-.324-.831-.55v-.003z" fill="#F4D042"/><path d="M23.127 32.866c.052-.138.162-.217.281-.287.66-.38 1.311-.776 1.98-1.137.578-.312 1.121-.684 1.696-1.005.785-.437 1.543-.923 2.346-1.326.174-.089.309-.263.532-.245-.96 1.085-2.099 1.938-3.355 2.637-1.072.599-2.197 1.079-3.4 1.35-.028.007-.055.007-.083.013h.003z" fill="#E7B036"/><path d="M12.05 31.198c.427-.3.882-.547 1.334-.807.773-.443 1.55-.874 2.304-1.347.137-.086.305-.132.388-.29l.944.302c-.012.107-.086.168-.171.217-.798.467-1.601.929-2.392 1.408-.538.327-1.119.584-1.629.957a3.708 3.708 0 0 1-.779-.443v.003z" fill="#EFC43D"/><path d="M10.042 23.202c-.193.214-.452.33-.694.47-.819.477-1.64.945-2.462 1.418a.601.601 0 0 1-.266.101c-.162-.287-.312-.577-.394-.898.315-.037.559-.226.819-.376.867-.504 1.723-1.027 2.603-1.506.024-.013.052-.019.076-.028.125.266.23.541.32.819h-.002z" fill="#DE9E30"/><path d="M16.107 5.045c-.025.094-.095.15-.171.195-.602.345-1.201.69-1.803 1.039-.507.29-1.011.584-1.519.874-1.078.62-2.157 1.237-3.235 1.857a.43.43 0 0 1-.232.077c.421-.513.922-.941 1.439-1.35 1.39-1.104 2.927-1.938 4.625-2.457.294-.089.596-.156.893-.235h.003z" fill="#FADC46"/><path d="M33.662 16.148c-.318.027-.56.223-.819.372-.83.474-1.653.96-2.478 1.442-.137.08-.265.168-.4.254-.037-.318-.07-.636-.107-.953.116-.074.23-.15.348-.22.997-.58 1.996-1.161 2.991-1.745a.477.477 0 0 1 .257-.061c.116.293.193.593.211.907l-.003.004z" fill="#F4D042"/><path d="M12.828 31.64c.51-.375 1.088-.632 1.629-.956.79-.48 1.594-.94 2.392-1.408.085-.049.159-.11.17-.217.343.015.655.156.988.217-.04.137-.144.214-.263.275-1.253.672-2.466 1.42-3.697 2.132-.165.095-.36.147-.464.327a3.68 3.68 0 0 1-.755-.37z" fill="#EBB839"/><path d="M13.629 27.544a1.785 1.785 0 0 0-.505.226c-.968.571-1.94 1.14-2.911 1.708-.083.048-.168.091-.223.177-.25-.144-.437-.358-.62-.575.058-.08.143-.125.223-.177.956-.602 1.967-1.112 2.917-1.723a1.05 1.05 0 0 1 .434-.18c.217.195.517.287.685.544zM33.937 18.378c-.26.046-.461.21-.678.336-.831.473-1.656.956-2.481 1.433-.214.125-.431.244-.642.373a.486.486 0 0 1-.272.085c0-.293.052-.58.095-.868.144 0 .263-.076.382-.143 1.149-.663 2.297-1.326 3.443-1.99.037-.02.074-.036.11-.054.019.275.07.547.043.825v.003z" fill="#F4D042"/><path d="M24.246 5.411a73.539 73.539 0 0 0-2.738 1.57c-.721.428-1.46.829-2.188 1.247-.15.086-.332.15-.366.36l-1.2.147c.017-.165.155-.22.271-.287.45-.266.904-.522 1.357-.785 1.044-.608 2.086-1.219 3.131-1.827.36-.21.74-.394 1.079-.642.217.074.449.101.65.217h.004z" fill="#E2A632"/><path d="M5.388 21.317c.22-.003.385-.144.56-.244C6.98 20.47 8 19.85 9.058 19.294c.036-.018.076-.033.113-.049l.046.825a.445.445 0 0 0-.193.07c-.727.42-1.451.84-2.184 1.247-.431.239-.831.544-1.302.706a3.196 3.196 0 0 1-.147-.776h-.003z" fill="#F4D042"/><path d="M29.238 8.347c.232.153.415.358.592.569-.116.131-.271.207-.418.293-.944.562-1.916 1.079-2.848 1.662a.685.685 0 0 1-.302.12 4.856 4.856 0 0 1-.58-.453c.186-.156.403-.26.61-.379.908-.525 1.818-1.054 2.726-1.58.098-.054.186-.115.22-.232z" fill="#EFC43D"/><path d="M29.238 8.347c-.03.117-.122.178-.22.233-.91.525-1.818 1.05-2.725 1.58-.208.118-.428.222-.611.378a6.355 6.355 0 0 1-.752-.492c.241-.049.446-.177.648-.302.94-.58 1.912-1.106 2.869-1.662.094-.055.198-.104.213-.233.214.141.416.297.578.498z" fill="#F4D042"/><path d="M11.46 25.512c-.523.214-.963.577-1.458.843-.59.32-1.167.666-1.748 1a.452.452 0 0 0-.204.195c-.174-.205-.346-.41-.456-.66a.549.549 0 0 1 .202-.171c.813-.474 1.62-.95 2.435-1.418.248-.144.48-.324.76-.406.184.183.325.4.471.61l-.003.007z" fill="#E2A632"/><path d="M29.274 15.158c.553-.413 1.192-.682 1.773-1.045.467-.29.947-.556 1.42-.834a.6.6 0 0 1 .266-.101c.086.253.247.473.296.742a.584.584 0 0 0-.33.095c-.516.3-1.035.59-1.549.892-.54.32-1.106.602-1.631.953-.113-.223-.177-.464-.25-.702h.005z" fill="#E7B036"/><path d="M26.262 10.99a.672.672 0 0 0 .303-.119c.931-.584 1.903-1.1 2.847-1.662.147-.089.303-.162.419-.293.207.143.336.357.498.54-.905.584-1.858 1.085-2.78 1.635-.236.14-.474.275-.712.41-.23-.129-.404-.318-.578-.51h.003z" fill="#EBB839"/><path d="M33.451 15.24a.506.506 0 0 0-.257.061c-.996.58-1.995 1.161-2.99 1.745-.12.07-.233.146-.349.22-.073-.22-.1-.45-.137-.678.067-.11.174-.175.28-.236.93-.534 1.858-1.066 2.79-1.598.144-.082.284-.17.458-.17.052.225.196.42.205.66v-.004zM5.535 22.093c.474-.165.871-.468 1.302-.706.733-.406 1.457-.83 2.184-1.246a.489.489 0 0 1 .193-.07c.036.247.07.494.107.742-.324.009-.55.235-.81.382-.846.476-1.683.974-2.524 1.466a.711.711 0 0 1-.29.098c-.098-.21-.15-.43-.165-.66l.003-.006z" fill="#EFC43D"/><path d="M33.246 14.58c-.174 0-.315.089-.458.171-.932.532-1.86 1.067-2.79 1.598-.107.061-.213.125-.28.235a3.464 3.464 0 0 1-.193-.724c.522-.351 1.088-.635 1.631-.953.514-.302 1.036-.593 1.55-.892a.577.577 0 0 1 .33-.095c.094.211.192.425.213.66h-.003z" fill="#EBB839"/><path d="m31.508 10.987-3.208 1.87a.507.507 0 0 1-.257.07 3.125 3.125 0 0 1-.339-.482c.367-.254.773-.444 1.155-.67.666-.394 1.338-.782 2.007-1.17a.853.853 0 0 0 .233-.198c.174.168.308.36.409.58zM10.989 24.9c-.281.083-.51.264-.76.407-.817.465-1.626.944-2.436 1.418a.521.521 0 0 0-.202.17 2.003 2.003 0 0 1-.366-.583c.443-.262.88-.528 1.326-.785.571-.327 1.146-.65 1.72-.972.125-.07.26-.128.388-.189.122.171.253.34.333.535h-.003z" fill="#DB982D"/><path d="M12.944 26.997a1.093 1.093 0 0 0-.434.18c-.953.611-1.961 1.121-2.918 1.723-.082.052-.165.098-.223.177a1.627 1.627 0 0 1-.421-.446c.08-.128.208-.19.336-.262.96-.547 1.915-1.097 2.869-1.65a.811.811 0 0 0 .241-.19c.217.116.385.29.55.468z" fill="#EFC43D"/><path d="M13.338 32.291c-.26-.125-.522-.247-.782-.372-.137-.116-.333-.144-.455-.288.043-.03.07-.07.082-.122l1.442.746c-.091.046-.189.033-.287.036z" fill="#E8B337"/><path d="M8.138 28.203c-.02 0-.042-.003-.064-.006-.275-.415-.617-.785-.846-1.23h.156l.889 1.227c-.046 0-.092.006-.135.006v.003z" fill="#DE9E30"/><path d="M5.618 23.624c-.074-.135-.083-.303-.199-.416 0-.253-.162-.483-.131-.742.04 0 .08 0 .119-.003.14.378.244.767.34 1.158h-.13v.003z" fill="#E8B337"/><path d="M12.944 26.997c-.168-.174-.333-.352-.55-.468-.333-.32-.592-.709-.935-1.02-.146-.211-.284-.428-.47-.611-.08-.199-.211-.364-.333-.535l-.614-1.164a7.209 7.209 0 0 0-.321-.819c-.14-.522-.309-1.035-.397-1.57-.037-.248-.07-.495-.107-.743l-.046-.825c.01-.51 0-1.017.055-1.524.11-.333.055-.697.18-1.03.113-.4.226-.8.342-1.203.211-.416.327-.874.56-1.278l.898-1.475c.314-.25.528-.596.797-.886 1.027-1.11 2.261-1.91 3.645-2.5.681-.29 1.4-.449 2.114-.617l1.201-.146c.73-.016 1.457.033 2.184.097.48.113.96.223 1.443.337.333.119.666.235.996.354.449.223.898.45 1.35.672.241.177.486.348.752.492.183.165.375.318.58.452.174.19.348.379.578.51.284.321.552.657.867.947.095.175.217.327.34.483.229.306.39.657.632.954l.596 1.277c.073.238.137.476.25.702.046.248.095.492.193.724.036.23.064.459.137.679.037.317.07.635.107.953 0 .507 0 1.017-.003 1.524-.043.288-.092.575-.095.868-.08.358-.159.715-.235 1.07-.18.54-.345 1.087-.58 1.61-.343.773-.844 1.45-1.311 2.147-.349.33-.63.725-.981 1.055a10.433 10.433 0 0 1-4.962 2.62c-.107.025-.21.056-.317.083-.685.089-1.372.171-2.066.168-.467-.033-.935-.091-1.402-.085-.33-.061-.645-.202-.987-.217-.315-.1-.63-.202-.944-.303-.348-.14-.697-.277-1.045-.418-.473-.25-.916-.565-1.402-.794-.168-.26-.468-.352-.685-.544l-.009-.003zm16.783-8.02A10.136 10.136 0 0 0 19.577 8.83c-5.625 0-10.162 4.55-10.162 10.183 0 5.527 4.605 10.101 10.156 10.095 5.597-.006 10.159-4.559 10.153-10.131h.003z" fill="#8D6020"/><path d="M29.727 18.98c.006 5.572-4.559 10.125-10.153 10.13-5.551.007-10.156-4.567-10.156-10.094 0-5.633 4.538-10.183 10.162-10.183A10.136 10.136 0 0 1 29.73 18.98h-.003zm-18.448 4.968c-.034.079.01.13.083.174.079.046.159.113.165.201.015.388.378.535.562.807.08.12.177.275.314.342.27.125.416.358.56.587.113.177.247.308.449.372.357.117.547.471.886.611.006 0 .009.01.012.016.085.168.23.217.41.266.24.067.467.22.662.36.208.15.413.232.648.266.125.018.22.046.284.165.064.12.177.137.306.11.143-.03.29-.04.403.082.1.11.205.153.34.046.048-.04.121-.033.18-.012.21.076.412.162.641.208.238.049.473.11.715.091.205-.015.394.089.593.046a3.88 3.88 0 0 1 1.512-.046c.107.019.19 0 .235-.113.043-.113.144-.143.238-.1.205.091.367.033.535-.086a.685.685 0 0 1 .27-.104c.35-.067.686-.195 1.044-.238.07-.01.14-.015.192-.067.147-.153.355-.199.532-.3.113-.064.192-.198.33-.202.208-.006.336-.128.477-.253.22-.196.406-.446.733-.492a.295.295 0 0 0 .235-.186c.064-.193.196-.324.352-.446.113-.089.207-.199.293-.318.159-.211.473-.269.556-.556.003-.012.037-.015.052-.028.201-.18.443-.327.449-.647 0-.114.061-.202.162-.272.232-.16.406-.395.522-.636.104-.21.242-.437.19-.703-.016-.067.043-.107.098-.143.238-.15.43-.62.363-.895-.046-.193-.018-.358.147-.48a.278.278 0 0 0 .104-.33c-.11-.333.195-.608.116-.932 0-.006.006-.012.009-.018a.176.176 0 0 0 .015-.177c-.061-.138-.024-.263.012-.4.086-.315.187-.62.043-.963-.107-.257-.217-.544-.052-.834.03-.055-.009-.12-.024-.18-.061-.22-.171-.428-.086-.679.037-.106.003-.308-.1-.33-.248-.052-.178-.186-.147-.333.009-.049-.01-.11-.022-.162a2.408 2.408 0 0 0-.394-.834.93.93 0 0 1-.153-.397c-.06-.357-.119-.724-.5-.91-.037-.019-.08-.07-.083-.11-.018-.144-.03-.272-.226-.266-.055 0-.07-.073-.067-.134 0-.04.024-.104-.013-.117-.18-.048-.162-.195-.18-.326a.185.185 0 0 0-.1-.147c-.51-.241-.786-.749-1.214-1.085-.03-.024-.04-.07-.058-.107-.021-.052-.046-.119-.1-.125-.276-.018-.312-.437-.636-.373-.015.003-.055-.042-.064-.073-.067-.186-.22-.238-.391-.247a.371.371 0 0 1-.315-.168c-.037-.053-.085-.098-.147-.11-.339-.065-.556-.346-.849-.486-.214-.104-.45-.248-.666-.232-.223.015-.342-.07-.492-.175a.593.593 0 0 0-.226-.094 8.541 8.541 0 0 0-1.042-.144.74.74 0 0 1-.241-.049c-.34-.146-.721-.125-1.048-.07-.269.046-.504.107-.764.012a.163.163 0 0 0-.1 0c-.294.07-.603.11-.875.23-.271.118-.565-.044-.818.118-.226-.128-.349.034-.462.178-.1.125-.207.17-.357.113-.147-.055-.272-.01-.413.052-.317.134-.482.516-.873.531-.022 0-.046.03-.065.05a.692.692 0 0 1-.324.17c-.183.052-.406.058-.467.309-.006.027-.046.067-.07.067-.226.012-.324.18-.431.342-.064.098-.171.129-.275.171-.196.086-.41.15-.535.345-.14.217-.305.404-.534.532a.478.478 0 0 0-.226.263c-.14.428-.624.648-.679 1.127-.003.034-.052.064-.082.089-.269.205-.385.513-.458.81-.07.287-.257.51-.343.785-.042.137-.174.241-.097.41.027.06-.013.103-.064.134-.043.024-.083.055-.08.11.018.235-.223.418-.131.672.009.021-.034.058-.046.088-.083.211-.208.413-.14.657.008.04.024.101.002.12-.168.174-.009.375-.052.543-.088.348-.033.666.07.996.043.138-.033.306 0 .45.126.568.01 1.17.236 1.723.006.012.01.03.003.04-.073.176.043.299.15.393.098.086.11.165.08.27-.034.121-.022.231.097.308.153.098.205.244.214.421.021.343.131.645.44.844.07.045.128.106.094.216h-.018z" fill="#DE9E30"/><path d="M11.276 23.945c.034-.11-.021-.172-.095-.217-.308-.199-.418-.502-.44-.844-.009-.177-.06-.323-.213-.421-.12-.077-.132-.184-.098-.309.027-.107.015-.183-.08-.269-.107-.095-.223-.217-.15-.394.007-.012 0-.027-.002-.04-.227-.553-.107-1.154-.236-1.723-.03-.143.046-.311 0-.449-.104-.33-.159-.645-.07-.996.043-.168-.116-.37.052-.544.018-.021.006-.08-.003-.119-.067-.244.058-.446.14-.657.013-.03.052-.067.046-.088-.091-.25.147-.437.132-.672-.003-.055.036-.086.079-.11.052-.031.092-.074.064-.135-.076-.168.055-.272.098-.41.085-.274.272-.497.342-.784.073-.297.19-.605.458-.81.034-.025.08-.055.083-.089.055-.48.538-.7.678-1.127a.488.488 0 0 1 .226-.263c.23-.128.397-.312.535-.531.125-.196.34-.26.535-.346.1-.046.207-.076.275-.17.107-.16.201-.33.43-.343.025 0 .065-.04.07-.067.059-.25.282-.257.468-.309a.654.654 0 0 0 .324-.17c.018-.02.043-.05.064-.05.391-.012.553-.397.874-.531.14-.058.266-.107.412-.052.153.058.26.012.358-.113.116-.144.238-.306.461-.178.254-.162.547 0 .819-.119.272-.119.58-.159.874-.229.033-.01.07-.01.1 0 .26.092.499.03.764-.012.327-.055.71-.077 1.048.07.08.034.16.043.242.049.351.021.696.076 1.042.144.079.015.162.048.226.094.15.104.269.193.492.174.216-.015.452.132.666.233.293.14.507.421.849.485.061.013.11.055.147.11.076.11.177.16.314.168.171.01.327.062.391.248.01.03.05.076.065.073.323-.064.36.355.635.373.052.003.076.073.1.125.016.037.028.086.059.107.428.336.703.844 1.213 1.085a.19.19 0 0 1 .1.147c.019.13 0 .277.18.326.038.01.016.077.013.117-.003.058.012.134.067.134.196-.006.211.125.227.266.006.04.045.091.082.11.382.186.44.553.501.91.024.147.07.275.153.397.18.257.32.529.394.834.012.052.03.11.021.162-.03.147-.1.281.147.333.107.022.137.223.1.33-.082.25.025.459.086.679.016.06.055.122.025.18-.165.29-.055.577.052.834.143.342.043.648-.043.962-.037.138-.073.263-.012.4a.176.176 0 0 1-.016.178c-.003.006-.012.012-.009.018.08.324-.226.599-.116.932.04.122.015.244-.104.33-.165.122-.192.287-.146.48.067.275-.126.745-.364.895-.055.037-.113.073-.098.143.055.266-.085.492-.19.703-.118.241-.29.474-.522.636-.1.07-.162.155-.162.271-.006.321-.247.471-.449.648-.015.012-.049.015-.052.028-.082.29-.397.345-.556.556a1.71 1.71 0 0 1-.293.318c-.153.122-.287.25-.351.446a.29.29 0 0 1-.235.186c-.328.046-.514.296-.734.492-.14.125-.269.247-.476.253-.138.003-.217.138-.33.202-.178.1-.382.15-.532.3-.049.052-.122.058-.192.067-.358.043-.694.17-1.045.238a.704.704 0 0 0-.27.104c-.167.12-.33.18-.534.085-.092-.042-.192-.012-.238.101-.043.113-.128.132-.235.113a3.821 3.821 0 0 0-1.513.046c-.198.046-.39-.06-.592-.046-.242.019-.477-.046-.715-.091-.23-.046-.431-.132-.642-.208-.058-.021-.131-.024-.18.012-.135.107-.239.061-.34-.046-.113-.122-.26-.113-.403-.082-.125.027-.241.012-.305-.11-.064-.12-.16-.15-.284-.165a1.39 1.39 0 0 1-.648-.266c-.196-.14-.422-.293-.663-.36-.177-.05-.324-.098-.41-.266 0-.006-.009-.012-.012-.015-.339-.141-.528-.499-.886-.612-.198-.064-.336-.195-.449-.372-.144-.23-.293-.462-.559-.587-.14-.064-.235-.22-.315-.342-.18-.272-.547-.416-.562-.807-.003-.088-.085-.155-.165-.201-.073-.043-.116-.098-.082-.174h.018zm8.127 2.068c1.237-.003 1.644-.08 2.704-.477.082-.03.171-.06.256-.073.193-.024.352-.113.505-.22.085-.058.18-.098.269-.147.262-.146.552-.275.76-.486.25-.253.544-.464.761-.754.327-.437.791-.752 1.048-1.259.232-.458.477-.929.587-1.411.116-.517.317-1.02.311-1.58-.006-.535.058-1.07-.03-1.6-.095-.57-.193-1.137-.422-1.675-.095-.223-.284-.379-.345-.627a1.885 1.885 0 0 0-.556-.947c-.318-.293-.55-.66-.868-.95-.425-.388-.785-.87-1.405-.987-.052-.009-.098-.049-.147-.073-.232-.128-.452-.309-.703-.379-.336-.095-.672-.202-1.011-.284-.782-.186-1.567-.306-2.362-.067-.027.009-.058.018-.08.012-.36-.125-.696.064-1.017.134-.766.168-1.426.618-2.108 1-.37.207-.617.565-.944.828-.37.296-.638.69-.932 1.06-.26.327-.385.73-.574 1.093-.147.285-.303.602-.342.942-.037.284-.095.565-.14.843-.065.394-.05.779-.065 1.17-.012.275-.061.556-.012.822.064.36.159.72.253 1.078.193.727.624 1.341.972 1.992.19.352.495.593.78.865.4.385.781.776 1.255 1.088.54.36 1.16.522 1.73.806.121.061.256.107.39.125.523.074 1.045.187 1.485.135l-.003.003z" fill="#E2A632"/><path d="M19.403 26.016c-.44.052-.96-.064-1.485-.134a1.272 1.272 0 0 1-.39-.126c-.57-.284-1.19-.446-1.73-.806-.47-.312-.853-.703-1.256-1.088-.284-.272-.59-.513-.779-.865-.351-.65-.779-1.268-.972-1.992a14.895 14.895 0 0 1-.253-1.078c-.049-.263 0-.547.012-.822.015-.388 0-.776.064-1.17.046-.281.107-.562.14-.843.044-.34.196-.654.343-.941.19-.364.312-.767.574-1.094.294-.37.563-.764.932-1.06.327-.263.575-.624.944-.828.682-.382 1.342-.831 2.108-1 .324-.07.66-.256 1.018-.134.024.01.055-.003.08-.012.794-.238 1.576-.12 2.361.067.342.083.675.19 1.011.284.25.07.47.248.703.38.049.027.095.063.147.072.617.117.977.6 1.405.987.318.29.55.657.868.95.275.251.467.584.556.948.06.247.25.403.345.626.232.538.327 1.106.422 1.674.088.532.024 1.07.03 1.601.006.56-.195 1.06-.311 1.58-.107.482-.355.953-.587 1.411-.26.51-.721.822-1.048 1.259-.217.29-.51.498-.76.755-.205.207-.499.336-.761.485-.09.05-.184.089-.27.147a1.133 1.133 0 0 1-.504.22 1.236 1.236 0 0 0-.256.073c-1.06.398-1.467.474-2.704.477l.003-.003zm.333-3.162c2.127-.064 3.724-1.723 3.74-3.893.015-2.169-1.733-3.889-3.935-3.883-2.176.006-3.896 1.852-3.856 3.877.043 2.163 1.643 3.969 4.051 3.896v.003z" fill="#E8B337"/><path d="M19.739 22.854c-2.405.07-4.009-1.732-4.051-3.896-.04-2.025 1.68-3.87 3.855-3.877 2.203-.006 3.954 1.711 3.936 3.883-.016 2.167-1.614 3.829-3.74 3.893v-.003zm-1.402-3.844c-.003.587.638 1.262 1.194 1.268.788.01 1.32-.791 1.32-1.265 0-.583-.62-1.31-1.13-1.286-.883.04-1.326.44-1.384 1.283z" fill="#EFC13C"/><path d="M18.337 19.01c.06-.843.5-1.243 1.384-1.283.51-.024 1.133.703 1.13 1.286 0 .474-.534 1.274-1.32 1.265-.559-.006-1.197-.681-1.194-1.268z" fill="#F4D042"/><path d="M19.415 35.71c9.366 0 16.959-7.48 16.959-16.709 0-9.228-7.593-16.71-16.959-16.71-9.365 0-16.958 7.482-16.958 16.71 0 9.228 7.593 16.71 16.958 16.71z" stroke="#fff" stroke-width="3" stroke-miterlimit="10"/><path d="M31.455 15.688c-.657.893-.723 2.008-1.131 2.997-.186.448.305.713.48 1.042.498.936-.049 1.772-.656 1.908-1.079.239-1.152.863-1.069 1.62.133 1.22-.401 1.619-1.536 1.47-1.099-.147-2.247.288-3.315-.263.212-.491.653-.395 1.048-.401.813-.01 1.623 0 2.436-.02.259-.007.64.102.68-.306.05-.507-.368-.431-.68-.434-1.42-.01-2.844-.037-4.26 0-1.066.026-2.018-.193-2.772-.98-.298-.311-.547-.447-.892-.059-.833.942-1.935 1.072-3.113 1.035a79.638 79.638 0 0 0-3.776 0c-.319.007-.86-.209-.88.332-.023.654.578.415.92.415 3.043.02 6.089.003 9.132.017.461 0 .999-.186 1.317.365-.325.458-.813.282-1.234.285-3.123.013-6.249-.033-9.368.03-1.112.023-1.563-.322-1.49-1.45.043-.71.19-1.487-.995-1.66-.505-.073-1.222-.912-.787-1.526.926-1.304.203-2.42-.06-3.63-.126-.588-.979-1.354-.06-1.789.784-.368.93.674 1.328 1.112.295.322.468.82.989.8.614-.02.7-.584.9-1.013.032-.073.042-.159.085-.225.319-.471.206-1.34 1.01-1.348.683-.003.746.757 1.064 1.195.12.163.21.345.316.518.66 1.038 1.327 1.052 2.017.043.22-.322.332-.777.88-.667-.067.969-.511 1.769-1.44 2.01-1.79.462-1.985-1.333-2.811-2.259-.531.67-.524 1.533-1.118 2.074-.717.657-1.484.143-2.333-.05.159.531.242.923.394 1.284.628 1.477.372 3.704 1.782 4.344 1.407.64 3.339.14 5.044.12.823-.01 1.434-.442 2.015-.99.365-.344.401-.563.083-.968a27.934 27.934 0 0 1-1.6-2.287c-.421-.667-.288-1.324.242-1.884.492-.518 3.017-.664 3.674-.203.57.402.88.962.684 1.68-.073.265-.24.51-.395.743-.316.468-.657.922-.983 1.387-.806 1.148-.726 1.526.544 2.2.346.182.764.315 1.152.322 1.211.023 2.426-.027 3.637-.05.654.07 1.586.461 1.862-.222.7-1.716 1.144-3.535 1.762-5.535-.777.248-1.265.59-1.832.474-.285-.146-.442-.348-.279-.68 1.059.262 1.457-.518 1.921-1.202.349-.51.648-1.154 1.464-.693v.976l.003-.004zm-11.173 4.457c.272-.332.694-.59.674-1.072-.023-.451-.339-.986-.737-.976-.461.01-.81.568-.79 1.032.017.409.359.777.853 1.016zm-.524-2.97c.023-.352-.17-.485-.445-.455-.51.06-.81.349-.803.883 0 .285.086.717.375.637.485-.13.647-.673.873-1.065zm2.187.295c-.03-.424-.326-.753-.893-.773-.242-.01-.53.12-.425.422.173.49.435 1.002.956 1.144.226.063.365-.351.362-.796v.003z" fill="#16140F"/><path d="M28.07 16.614c-.166.332-.01.531.279.68-.106.452-.209.903-.312 1.358-.783-.2-1.208.235-1.496.866-.452.982-.704 1.968.1 2.91a.18.18 0 0 0-.08.15c-1.212.023-2.426.072-3.637.05-.389-.008-.807-.14-1.152-.323-1.27-.673-1.35-1.055-.544-2.2.325-.461.667-.916.982-1.387.156-.232.325-.481.395-.743.196-.717-.113-1.278-.684-1.68-.657-.46-3.182-.315-3.673.203-.531.558-.664 1.218-.242 1.885a26.607 26.607 0 0 0 1.6 2.286c.321.409.284.624-.084.97-.577.55-1.191.982-2.014.988-1.702.017-3.634.518-5.044-.12-1.41-.64-1.155-2.87-1.782-4.343-.153-.359-.236-.75-.395-1.284.85.192 1.613.707 2.333.05.59-.541.59-1.404 1.118-2.075.827.926 1.022 2.722 2.81 2.26.93-.239 1.375-1.038 1.441-2.01.106-.266.216-.532.325-.794 1.162-.335 1.036-1.715 1.995-2.386.8 1.387 1.576 2.781 2.395 4.148.923 1.537 2.25 1.533 3.186.024.262-.422.528-.84.796-1.265.352.355.256.98.873.99.077.324.25.587.515.792h-.004zm-4.065 4.915c1.049.113 1.454-.687 1.467-1.394.013-.717-.388-1.487-1.41-1.463-.777.016-1.716.793-1.547 1.47.183.713.458 1.52 1.49 1.387zm-7.589-2.85c-1.075-.027-1.496.723-1.47 1.46.03.79.491 1.49 1.566 1.413 1.01-.073 1.364-.783 1.331-1.523-.033-.76-.498-1.464-1.427-1.35zm-2.17 2.399c-.01-.704-.166-1.364-.597-1.938-.256-.342-.558-.624-1.02-.502-.454.123-.59.531-.653.94-.106.706.066 1.373.402 1.99.249.462.58 1.042 1.151.906.62-.146.733-.796.717-1.4v.003z" fill="#590404"/><path d="M23.388 24.432c-.318-.55-.856-.365-1.317-.365-3.043-.013-6.09 0-9.132-.017-.339 0-.943.24-.92-.414.02-.541.561-.329.88-.332a79.5 79.5 0 0 1 3.776 0c1.175.036 2.28-.093 3.113-1.035.345-.389.59-.253.892.06.757.786 1.71 1.005 2.771.978 1.42-.036 2.84-.006 4.261 0 .312 0 .73-.073.68.435-.04.408-.421.299-.68.305-.813.02-1.623.01-2.436.02-.395.003-.836-.093-1.048.402-.282-.01-.561-.017-.843-.03l.003-.007z" fill="#590404"/><path d="M27.556 15.821c-.617-.01-.524-.633-.873-.989-.272.429-.538.843-.796 1.265-.936 1.51-2.264 1.51-3.186-.023-.82-1.368-1.596-2.758-2.396-4.148-.959.67-.833 2.05-1.994 2.386.036-1.245.826-2.144 1.53-3.023.44-.551.866 0 1.118.424.756 1.291 1.483 2.599 2.236 3.89.73 1.25 1.45 1.244 2.204 0 .126-.21.242-.422.381-.621.3-.435.445-1.284 1.165-.893.558.302.933.973.61 1.736v-.004z" fill="#16140F"/><path d="M28.034 18.649c.106-.452.209-.903.312-1.358.57.12 1.058-.225 1.832-.474-.618 2.004-1.062 3.823-1.762 5.535-.28.68-1.212.289-1.862.222 0-.063.027-.113.08-.15.53.25.826-.132 1.111-.447.75-.82.853-2.18.286-3.328h.003z" fill="#590404"/><path d="M20.282 20.148c-.494-.235-.836-.607-.853-1.015-.02-.465.326-1.022.79-1.032.398-.007.713.524.737.976.023.474-.402.74-.674 1.071zM19.754 17.182c-.229.395-.388.935-.872 1.065-.292.08-.372-.352-.375-.637-.007-.538.292-.826.803-.883.279-.03.468.1.444.455zM21.945 17.474c.006.441-.133.856-.362.796-.524-.142-.783-.654-.956-1.145-.106-.302.183-.431.425-.421.567.02.866.348.893.773v-.003z" fill="#F5D336"/><path d="M24.005 21.529c-1.032.136-1.31-.67-1.49-1.387-.172-.677.77-1.454 1.547-1.47 1.022-.024 1.423.743 1.41 1.463-.013.71-.418 1.506-1.467 1.394zM16.416 18.675c.936-.11 1.394.59 1.427 1.35.033.737-.318 1.45-1.33 1.524-1.076.076-1.537-.62-1.567-1.414-.026-.737.395-1.487 1.47-1.46zM28.034 18.648c.567 1.149.461 2.51-.285 3.329-.286.315-.581.697-1.112.448-.803-.943-.551-1.928-.1-2.91.292-.634.717-1.066 1.497-.867zm-.402.585c-.905 1.138-.969 1.473-.53 2.445.57-.68.82-1.4.53-2.445zM14.246 21.07c.016.605-.1 1.252-.717 1.401-.57.133-.9-.441-1.152-.906-.331-.617-.504-1.287-.401-1.99.06-.41.196-.817.654-.94.46-.126.763.16 1.018.501.432.574.584 1.235.598 1.938v-.003zm-1.51-1.967c-.146 1.161-.1 1.938.657 2.661.421-.989.096-1.695-.657-2.661z" fill="#16140F"/><path d="M27.632 19.236c.292 1.045.04 1.765-.53 2.445-.442-.972-.379-1.307.53-2.445zM12.736 19.106c.753.97 1.082 1.673.657 2.662-.756-.724-.803-1.5-.657-2.662z" fill="#F5D336"/></svg>