<svg width="33" height="32" fill="none" xmlns="http://www.w3.org/2000/svg"><path d="M.908 15.997a17.13 17.13 0 0 1 .425-3.636c.336-1.521.92-2.951 1.69-4.295.51-.886 1.096-1.73 1.775-2.503C5.928 4.28 7.21 3.183 8.684 2.31A16.14 16.14 0 0 1 11.553.968a14.917 14.917 0 0 1 2.786-.712c1.326-.204 2.664-.29 4.009-.143.519.055 1.038.113 1.546.226 1.02.226 2.016.52 2.99.907.645.26 1.278.532 1.88.874.91.517 1.772 1.103 2.566 1.79a15.842 15.842 0 0 1 5.31 9.402c.174 1.026.26 2.059.235 3.098-.018.812-.131 1.616-.26 2.416-.293 1.827-.959 3.523-1.866 5.124a15.575 15.575 0 0 1-2.182 2.936 15.539 15.539 0 0 1-3.559 2.85 15.95 15.95 0 0 1-3.642 1.568 16.94 16.94 0 0 1-2.783.559 15.016 15.016 0 0 1-3.355 0c-.43-.049-.858-.104-1.283-.171a9.496 9.496 0 0 1-1.079-.25c-1.353-.383-2.658-.884-3.88-1.59a16.412 16.412 0 0 1-2.511-1.76 15.855 15.855 0 0 1-5.332-9.394c-.14-.89-.24-1.79-.235-2.7zm21.775 14.69a5.357 5.357 0 0 0 1.234-.541c.07-.021.147-.037.214-.07a19.733 19.733 0 0 0 1.766-1.048c.077-.052.14-.11.165-.202.364-.134.626-.412.91-.657.23-.18.459-.36.685-.547.061-.052.122-.11.14-.195a.454.454 0 0 0 .168-.113c.42-.407.835-.819 1.183-1.287.364-.485.773-.944 1.042-1.497.247-.311.476-.638.58-1.03.034-.033.08-.06.101-.103.254-.526.58-1.017.721-1.592.021-.027.049-.052.061-.08.22-.54.419-1.09.544-1.661.092-.422.272-.825.263-1.268.104-.324.14-.657.165-.993.094-.45.088-.905.085-1.36a.685.685 0 0 0 .04-.302c-.015-.437-.034-.874-.052-1.311a14.835 14.835 0 0 0-.522-3.015c-.123-.434-.239-.874-.446-1.28-.117-.51-.355-.972-.593-1.434a4.777 4.777 0 0 0-.617-1.12c-.138-.23-.202-.511-.456-.66a.728.728 0 0 0-.33-.496.344.344 0 0 0-.082-.226c-.44-.52-.843-1.066-1.332-1.54-.266-.256-.489-.556-.81-.754-.33-.278-.602-.627-.999-.825-.379-.373-.83-.645-1.28-.92-.29-.18-.565-.394-.895-.498a7.086 7.086 0 0 0-1.494-.7c-.217-.137-.464-.192-.703-.274-.205-.117-.437-.153-.663-.208-.244-.077-.486-.174-.742-.205-.306-.08-.605-.186-.914-.238-.98-.168-1.97-.263-2.966-.217-.239 0-.477-.003-.718-.003-.327 0-.657-.01-.975.08-.116.008-.232.018-.345.027-.526.046-1.033.186-1.552.272a.427.427 0 0 1-.046.033h-.003c-.391.07-.773.177-1.146.309-.183.064-.391.082-.544.229a.998.998 0 0 0-.397.095c-.752.305-1.479.663-2.184 1.063-.236.131-.514.21-.679.449a3.958 3.958 0 0 0-1.112.788 1.504 1.504 0 0 0-.308.205c-.477.406-.944.822-1.378 1.27-.376.392-.749.786-1.045 1.247-.278.26-.468.584-.66.908-.226.312-.465.614-.578.993a.194.194 0 0 0-.14.137c-.058.199-.174.367-.275.544a.537.537 0 0 0-.077.272.46.46 0 0 0-.165.208c-.235.489-.44.987-.623 1.497-.082.226-.195.443-.162.694-.015.012-.027.027-.042.04-.037.103-.08.204-.104.31-.22.92-.431 1.843-.51 2.787-.016.468-.028.935-.043 1.403.015.44.009.88.049 1.316a16.105 16.105 0 0 0 1.377 5.2.98.98 0 0 0 .22.346c0 .085.025.162.065.235.299.553.605 1.1.968 1.616.245.465.614.843.917 1.265a.373.373 0 0 0 .198.14c.07.165.171.312.3.437.357.358.712.718 1.072 1.073.156.153.327.287.526.385.244.278.513.522.864.663.306.324.678.553 1.079.742.06.046.116.095.18.135.941.547 1.906 1.042 2.957 1.353.3.092.581.254.908.25a4.885 4.885 0 0 0 1.53.33c.086.117.224.098.34.114.904.11 1.808.168 2.719.131.525.043 1.042-.061 1.561-.095.128-.009.263-.012.382-.073.373-.055.752-.08 1.109-.21a8.273 8.273 0 0 0 1.115-.285c.413-.12.831-.22 1.207-.443l-.003-.015z" fill="#E38A33"/><path d="M11.528 1.164c.153-.144.358-.165.544-.23a7.378 7.378 0 0 1 1.146-.31c.018.085.04.164.156.143.55-.101 1.103-.205 1.652-.303.101-.018.138-.076.138-.17.32-.09.648-.08.975-.08.238 0 .476 0 .718.003.107.269.348.217.55.198.455-.045.9.043 1.35.083.58.049 1.152.174 1.726.275.107.018.208.03.257-.098.257.03.498.128.742.205-.095.14-.232.128-.366.091a1.6 1.6 0 0 0-.59-.036c-.373.04-.749.07-1.121.113-.434.046-.874.052-1.305.137-.095.019-.217.006-.244.144-.217.003-.431.006-.648.012-.116 0-.232.006-.309.116-.69-.009-1.371.095-2.059.132-.061-.104-.153-.123-.266-.104-.666.11-1.32.256-1.967.443-.403.116-.792.278-1.192.397a.236.236 0 0 0-.18-.028c-.336.113-.69.113-1.036.135-.354.021-.706.11-1.063.052.089-.122.226-.174.351-.245a14.538 14.538 0 0 1 1.772-.818c.126-.05.239-.107.278-.25l-.009-.007z" fill="#EBB839"/><path d="M21.476 31.13c-.363.119-.736.22-1.115.284-.055-.058-.125-.1-.198-.095-.31.028-.624.025-.917.15-.15.012-.3.027-.45.04-.497.042-.992.082-1.49.125-1.008.006-2.01-.1-3.01-.202-.46-.125-.922-.235-1.402-.262-.024-.062-.07-.095-.134-.114-.062-.018-.162-.009-.15-.103.012-.08.11-.068.174-.074.599-.055 1.195-.107 1.793-.159.135-.012.278.007.38-.116.427.016.849.104 1.276.07a.3.3 0 0 0 .178.043c.507.019 1.01-.012 1.515-.055.306-.027.614-.024.914-.104.531-.027 1.044-.17 1.567-.253.293.037.584 0 .874-.021.641-.055 1.28-.12 1.918-.18.083-.007.168-.007.22.076-.26.125-.519.25-.782.375-.366.061-.684.26-1.042.352-.097.024-.116.125-.122.217l.003.006z" fill="#FADC46"/><path d="M9.127 2.475c.357.06.712-.028 1.063-.052.345-.022.7-.022 1.036-.135.058-.021.122-.003.18.028-.758.37-1.537.696-2.255 1.149-.201.128-.43.18-.663.204-.403.046-.806.077-1.21.11-.07.006-.134.01-.192.055-.324.25-.65.504-.941.795-.049.048-.11.1-.073.177.042.088.128.058.201.049.232-.03.462-.07.697-.055.067.003.15-.019.183.058.034.076-.04.125-.085.17l-.944.89c-.046-.08-.12-.073-.2-.067-.134.012-.271.027-.408.021-.327-.015-.612.055-.82.33-.07.092-.161.122-.271.086.293-.462.666-.856 1.045-1.247.434-.45.901-.865 1.378-1.271a1.39 1.39 0 0 1 .308-.205.408.408 0 0 0 .364-.082c.302-.226.61-.44.92-.657.238-.098.44-.275.693-.345l-.006-.006zM31.733 10.531c.21.407.323.847.445 1.28.279.987.459 1.992.523 3.016h-.193c.025-.073.007-.147 0-.223-.02-.257-.1-.507-.085-.767-.04-.186-.076-.376-.122-.562-.03-.135-.11-.22-.26-.21-.137.008-.272.017-.41.036-.174.021-.253.131-.229.302.028.174.043.355.113.52l.083.99c-.024.305.052.604.043.91-.003.04-.01.076-.012.116-.074-.01-.11-.064-.147-.116V15.615a18.644 18.644 0 0 0-.571-3.626c.036-.016.073-.03.106-.046.108.07.056.272.233.28.192.01.382.022.571-.03.147-.04.208-.137.174-.275a10.437 10.437 0 0 0-.201-.687c-.037-.11-.114-.19-.242-.193-.238-.006-.48-.03-.706.077-.094-.18-.192-.358-.287-.538l-.033-.244c.155-.013.311-.034.467-.04.217-.01.443-.043.587.19.027.045.094.048.15.048h.003z" fill="#F4D042"/><path d="M1.742 11.527c-.033-.25.08-.467.162-.693.187-.507.391-1.008.624-1.497a.478.478 0 0 1 .165-.208c.155-.006.186-.14.247-.244.11-.178.18-.392.44-.416.281-.027.56-.049.843-.04-.027.138-.122.245-.183.367-.046.092-.107.19.027.266-.009.033-.015.067-.033.097-.315.517-.54 1.076-.755 1.638-.174.458-.32.932-.48 1.396-.045 0-.091-.006-.14-.009l.104-.443c.143-.26.202-.544.26-.83.122-.169.186-.367.256-.56.055-.147-.009-.226-.168-.217-.17.01-.342.024-.51.037-.1.009-.196.049-.244.131-.114.202-.242.4-.245.645-.098.125-.12.284-.183.425-.04.085-.083.152-.187.155z" fill="#D78D29"/><path d="M22.845 1.362a6.732 6.732 0 0 1 1.494.7c.006.14.098.214.205.287.378.26.818.425 1.148.758-.024.073-.076.116-.152.12-.459.005-.91.155-1.372.045-.015-.021-.028-.052-.05-.064-.521-.32-1.062-.605-1.646-.8l-.082-.046c.131-.217.357-.172.553-.196.217-.027.44.018.656-.03.062-.016.153-.004.16-.098.003-.077-.065-.12-.126-.15-.174-.08-.36-.14-.528-.23-.117-.06-.294-.088-.26-.29v-.006z" fill="#FADC46"/><path d="M17.85 1.323c.03-.138.15-.125.244-.144.43-.085.87-.088 1.305-.137.372-.04.748-.07 1.121-.113a1.6 1.6 0 0 1 .59.036c.137.037.272.052.366-.091.226.055.456.091.663.207a.26.26 0 0 0 .098.217c.131.113.073.178-.064.196-.306.04-.617.058-.92.107-.217.036-.458-.043-.644.14-.074-.009-.15-.015-.223-.033a14.29 14.29 0 0 0-2.54-.391l.004.006z" fill="#EFC43D"/><path d="M27.513 4.302c.321.195.544.498.81.754.492.474.895 1.02 1.332 1.54a.33.33 0 0 1 .082.226c.013.061.022.122.037.18.128.492.128.495-.385.55a.671.671 0 0 1-.62-.253c-.058-.067-.107-.144-.186-.19-.034-.213-.226-.317-.336-.476-.129-.187-.113-.26.113-.3.152-.027.311-.03.467-.049.199-.02.223-.073.122-.25a1.524 1.524 0 0 0-.41-.452 7.102 7.102 0 0 0-.867-.926c-.11-.098-.177-.205-.159-.354z" fill="#D78D29"/><path d="M1.043 16.07c.015-.467.027-.934.043-1.402.067-.027.13-.058.198-.085 0 .128.006.26 0 .388-.003.162.067.229.232.235.226.009.446-.046.67-.052.015.098 0 .21.125.254 0 .302-.003.607-.006.91v.034c0 .027 0 .058.003.085-.104.03-.15.104-.162.208l-.905.082a1.005 1.005 0 0 0-.204-.66l.006.003zM25.692 3.104c-.33-.333-.773-.495-1.148-.758-.107-.073-.199-.146-.205-.287.333.104.605.318.895.498.446.278.901.547 1.28.92-.06.137.018.22.113.296.217.18.431.36.648.538.043.036.095.07.08.131-.019.07-.09.083-.15.092-.184.021-.367.04-.553.055-.104.009-.208.012-.26.125-.394-.214-.7-.547-1.057-.806-.122-.09-.061-.169.067-.184.244-.033.489-.058.733-.085.055-.006.116-.006.135-.07.015-.059-.037-.086-.073-.114-.165-.122-.31-.272-.505-.351z" fill="#EFC13C"/><path d="M26.392 4.717c.052-.113.156-.119.26-.125.183-.015.37-.034.553-.055.06-.006.131-.021.15-.092.015-.06-.037-.098-.08-.131-.217-.18-.43-.36-.648-.538-.094-.08-.174-.162-.113-.296.398.198.67.544 1 .825-.019.15.048.256.158.354.318.281.605.593.868.926-.21.128-.443.128-.678.125-.11 0-.226-.009-.275.125-.223-.128-.373-.342-.572-.498-.18-.232-.455-.37-.623-.617v-.003z" fill="#E7B036"/><path d="M3.725 24.781c-.364-.513-.669-1.063-.968-1.616a.454.454 0 0 1-.065-.235c.046-.306-.134-.556-.207-.831a.967.967 0 0 0 .467.009c.162-.034.324-.064.489-.022.247.38.43.792.617 1.204a2.953 2.953 0 0 1-.632.086c-.263.003-.297.07-.171.296.198.354.427.69.598 1.06-.042.015-.085.034-.128.049z" fill="#EFC13C"/><path d="M20.612 1.744c.183-.18.427-.103.644-.14.306-.052.614-.067.92-.107.137-.018.195-.086.064-.196a.252.252 0 0 1-.098-.217c.239.086.486.138.703.275-.034.202.144.23.26.29.168.092.351.153.528.23.064.027.129.07.126.15-.004.094-.095.085-.16.097-.216.05-.44.003-.656.03-.196.025-.425-.017-.553.196-.547-.201-1.085-.421-1.662-.534a.2.2 0 0 1-.116-.077v.003z" fill="#F4D042"/><path d="M14.96 30.607c-.102.123-.245.104-.38.117-.598.051-1.194.103-1.793.158-.064.006-.162-.006-.174.074-.015.091.088.085.15.104.064.018.11.052.134.113-.058.018-.116.033-.171.052-.327.006-.608-.156-.907-.251.067-.162-.07-.192-.165-.247-.144-.083-.33-.077-.453-.208.052-.012.104-.037.16-.037.464-.006.922-.08 1.383-.128.15-.015.318.009.44-.12.239.056.477.11.715.169.352.085.715.1 1.063.207l-.003-.003z" fill="#EFC43D"/><path d="M4.067 9.062c-.131-.077-.07-.174-.027-.266.061-.122.156-.226.183-.367.156-.131.217-.33.324-.495.073-.116.248-.226.165-.37-.082-.143-.266-.036-.403-.039-.394-.006-.727.1-.895.501a.244.244 0 0 1-.227.153c.114-.38.352-.682.578-.993.11.119.171.021.217-.061a.77.77 0 0 1 .525-.397c.3-.055.605-.117.914-.037-.01.104-.193.198-.022.315-.073.174-.189.317-.305.464-.4.492-.712 1.045-1.033 1.589l.006.003z" fill="#E8B337"/><path d="M32.628 17.803c-.025.336-.061.672-.165.993-.055 0-.11 0-.165-.003-.235-.074-.477-.046-.715-.028-.137.01-.217.104-.254.235l-.146.538-.129-.046c.135-.531.19-1.075.303-1.61.082-.006.134-.046.159-.125.318.006.638.027.947-.08.055.04.11.083.162.123l.003.003z" fill="#E2A632"/><path d="M1.284 14.58c-.067.027-.131.058-.199.085.08-.944.294-1.867.51-2.786.025-.107.071-.208.105-.312.015-.012.027-.027.042-.04.104 0 .147-.07.187-.155.064-.141.085-.3.183-.425.306.012.602-.113.91-.04-.055.287-.113.572-.26.831-.247-.027-.488.03-.736.046-.137.01-.216.089-.262.22-.07.208-.101.425-.147.639-.1.265-.131.543-.168.824a6.52 6.52 0 0 0-.168 1.112h.003z" fill="#E7B036"/><path d="M2.485 22.099c.073.274.25.525.208.83a.98.98 0 0 1-.22-.345 16.085 16.085 0 0 1-1.378-5.2c-.04-.437-.034-.877-.05-1.317.145.196.22.416.206.66.064.272 0 .556.079.825.018.333.028.67.15.99.052.623.186 1.225.397 1.815.04.25.12.486.241.706.055.37.23.696.37 1.036h-.003z" fill="#F4D042"/><path d="M7.602 28.744c-.351-.14-.62-.385-.864-.663-.043-.214-.196-.352-.349-.49-.067-.057-.14-.11-.15-.207.361-.046.722-.092 1.085-.134.352.22.666.488.993.745-.119.04-.241.04-.363.049-.205.015-.413.006-.608.067-.156.05-.162.116-.05.232.105.104.26.156.313.315 0 .03 0 .058-.004.089l-.003-.003z" fill="#DE9E30"/><path d="M5.424 6.697c-.309-.08-.614-.018-.914.037a.749.749 0 0 0-.525.397c-.046.082-.107.18-.217.06.19-.323.382-.644.66-.906.11.036.204.009.272-.086.207-.275.495-.345.818-.33.135.006.272-.01.41-.021.08-.006.15-.013.198.067-.223.269-.409.571-.7.782h-.002z" fill="#EFC13C"/><path d="M30.523 7.974c.247.351.467.718.617 1.121-.01.03-.028.064-.03.095-.047.32-.047.312-.364.36-.171.028-.358 0-.51.114-.086-.065-.12-.16-.16-.254-.045-.113-.088-.226-.207-.284l-.086-.33c.064-.058.144-.073.226-.083.144-.018.288-.033.428-.064.199-.046.223-.104.137-.29-.058-.125-.128-.247-.048-.391l-.003.006z" fill="#E7B036"/><path d="M3.184 8.182a.244.244 0 0 0 .226-.153c.169-.4.502-.51.896-.501.137 0 .32-.104.403.04.082.14-.092.253-.165.37-.104.164-.168.363-.324.494a6.494 6.494 0 0 0-.843.04c-.26.028-.333.238-.44.416-.064.103-.092.238-.248.244 0-.098.028-.186.077-.272.1-.177.22-.342.275-.544a.2.2 0 0 1 .14-.137l.003.003z" fill="#DE9E30"/><path d="M30.776 23.5c-.107.395-.333.719-.58 1.03-.107-.042-.168.019-.223.092-.05.067-.098.134-.183.156-.224-.092-.444-.006-.667.012-.1.01-.213.058-.28-.052-.07-.116.045-.183.094-.266.064-.104.15-.195.183-.317.068-.07.138-.138.205-.208.235.08.47.03.706.012.266-.021.449-.137.544-.391.033-.092.088-.168.19-.199l.008.129.003.003z" fill="#EBB839"/><path d="m29.78 8.802.086.33h-.092c-.043-.061-.092-.12-.128-.183-.36-.639-.761-1.25-1.195-1.84h.131c.077.05.129.123.187.19a.686.686 0 0 0 .62.253c.513-.055.513-.058.385-.55-.015-.058-.024-.122-.037-.18.178.12.294.281.33.495 0 .14.055.266.113.391.11.23.055.321-.204.349-.122.012-.245.03-.367.042-.156.016-.208.083-.128.232.085.165.177.324.296.468l.003.003z" fill="#DB982D"/><path d="M26.973 28.17c-.285.244-.547.522-.911.656v-.085c-.003-.126-.076-.168-.19-.162-.155.006-.314.009-.47.021-.21.015-.422.043-.632.058-.058.003-.132 0-.15-.076-.015-.064.043-.095.085-.129.2-.137.4-.262.618-.372.125.125.28.082.424.064.391-.049.785-.098 1.18-.107l.046.131z" fill="#E2A632"/><path d="M30.233 9.67c.152-.116.339-.089.51-.113.318-.05.318-.04.364-.36.006-.034.02-.065.03-.096.235.462.477.923.593 1.433-.055 0-.122 0-.15-.049-.144-.232-.37-.198-.587-.189-.155.006-.311.024-.467.04-.15-.199-.22-.431-.293-.66V9.67z" fill="#EFC43D"/><path d="M29.78 8.802a2.57 2.57 0 0 1-.296-.467c-.08-.15-.027-.217.128-.233.123-.012.245-.03.367-.042.257-.028.312-.12.205-.349-.058-.125-.113-.25-.113-.39.253.149.317.43.455.66-.08.14-.01.262.049.39.085.187.06.245-.138.29-.14.031-.284.046-.427.065a.4.4 0 0 0-.227.082l-.003-.006z" fill="#E2A632"/><path d="M20.737.672c-.049.131-.15.12-.257.098-.574-.101-1.145-.226-1.726-.275-.449-.04-.892-.129-1.35-.083-.199.022-.44.074-.55-.198.999-.046 1.986.049 2.966.217.309.052.611.155.914.238l.003.003z" fill="#DE9E30"/><path d="M29.787 24.781c.088-.021.134-.089.183-.156.055-.076.12-.137.223-.091-.272.553-.678 1.01-1.042 1.497-.348.467-.764.88-1.182 1.286a.42.42 0 0 1-.168.113c-.016-.043-.03-.089-.046-.131.266-.303.532-.602.794-.905.263-.226.465-.504.657-.788.232-.248.465-.498.584-.825h-.003zM11.198 30.519c.122.131.309.125.452.208.095.055.233.085.165.247-1.047-.312-2.016-.807-2.957-1.354-.064-.036-.122-.088-.18-.134.015-.043.027-.085.043-.125.183.055.336.186.528.22.275.284.639.4 1 .525.28.22.613.318.95.413z" fill="#F4D042"/><path d="M9.127 2.475c-.254.07-.456.244-.694.345-.055-.015-.113-.03-.168-.049.165-.241.443-.318.678-.45.706-.4 1.433-.754 2.185-1.062.128-.052.256-.101.397-.095-.04.144-.153.202-.278.25-.608.233-1.2.505-1.772.82-.125.07-.263.121-.351.244l.003-.003z" fill="#DC9A2E"/><path d="M32.298 18.793c.055 0 .11 0 .165.003.012.443-.171.846-.263 1.268-.122.571-.324 1.121-.544 1.662-.012.03-.04.055-.06.08l-.093-.083c.04-.177.08-.355.116-.535.279-.532.376-1.118.508-1.696.091-.226.107-.47.168-.702l.003.003z" fill="#D78D29"/><path d="M14.3 31.432c1.002.101 2 .205 3.009.202v.162c-.91.037-1.815-.022-2.72-.131-.116-.016-.25.003-.338-.114l.045-.119h.003z" fill="#DC9A2E"/><path d="M26.065 28.74v.086c-.024.092-.089.15-.165.202a19.71 19.71 0 0 1-1.766 1.048c-.064.033-.14.046-.214.07-.015-.043-.033-.085-.049-.128.058-.052.116-.104.178-.156.36-.086.641-.3.907-.54.257-.04.44-.212.648-.343.146-.095.265-.244.464-.238h-.003z" fill="#DB982D"/><path d="M6.24 27.384c.006.1.082.15.15.208.152.137.305.275.348.489a2.044 2.044 0 0 1-.526-.385c-.36-.355-.718-.715-1.072-1.073a1.427 1.427 0 0 1-.3-.437c.028-.015.055-.033.086-.049.19.18.379.364.568.544.217.27.431.538.746.703z" fill="#D78D29"/><path d="M17.312 31.796v-.162c.498-.043.993-.083 1.491-.125.15-.013.3-.028.45-.04 0 .052.002.104.005.156-.119.06-.253.064-.382.073-.52.037-1.035.138-1.56.095l-.004.003z" fill="#E7B036"/><path d="M15.164.29c0 .095-.037.153-.137.171l-1.653.303c-.117.021-.138-.058-.156-.144h.003a.438.438 0 0 1 .046-.034c.519-.085 1.026-.226 1.552-.271l.345-.028V.29z" fill="#FADC46"/><path d="M4.926 26.137c-.027.016-.055.034-.085.05a.39.39 0 0 1-.2-.141c-.305-.422-.671-.8-.916-1.265.043-.015.086-.034.129-.049l.531.626c.129.236.29.444.49.624.014.052.033.104.048.159l.003-.003zM31.507 21.723l.091.082c-.14.575-.467 1.07-.72 1.592-.019.04-.068.067-.102.104 0-.043-.006-.086-.009-.129.019-.094.034-.186.052-.28.101-.101.135-.236.202-.355.183-.327.253-.709.486-1.014z" fill="#E2A632"/><path d="M32.509 14.83h.192c.018.437.037.874.052 1.31a.681.681 0 0 1-.04.303c-.055 0-.11 0-.162-.003l-.009-.654c.034-.32-.037-.635-.04-.953h.01l-.003-.003z" fill="#EFC13C"/><path d="m14.3 31.432-.046.12a4.886 4.886 0 0 1-1.531-.33c.058-.019.113-.034.171-.052.48.024.941.137 1.402.262h.003zM8.265 2.771c.055.015.113.03.168.049-.305.217-.617.43-.92.657a.408.408 0 0 1-.363.082c.32-.333.7-.583 1.112-.788h.003zM23.869 30.018c.015.043.033.085.048.128-.388.232-.8.412-1.234.54a5.278 5.278 0 0 0-.046-.125l.782-.375a1.81 1.81 0 0 1 .45-.168zM8.72 29.36c-.015.044-.027.086-.042.126-.4-.186-.77-.419-1.079-.742 0-.03 0-.058.003-.089.107.006.19.064.278.12.223.14.45.28.672.418l.165.165.003.003zM32.551 16.437c.055 0 .11 0 .162.003 0 .455.006.91-.085 1.36-.055-.04-.11-.083-.162-.123.036-.412.091-.824.085-1.24z" fill="#E7B036"/><path d="M22.64 30.561c.015.043.03.086.046.126-.376.223-.794.32-1.207.443.006-.092.025-.193.123-.217.357-.092.675-.29 1.041-.352h-.003z" fill="#EFC43D"/><path d="M27.752 27.299c.015.042.03.088.046.13-.019.086-.08.145-.141.196-.226.184-.455.364-.684.547-.016-.042-.031-.088-.046-.131.128-.214.397-.296.504-.532l.32-.21z" fill="#EBB839"/><path d="M19.255 31.625c0-.052-.003-.104-.006-.156.293-.122.608-.122.916-.15.074-.006.144.037.199.095-.358.131-.736.159-1.11.21z" fill="#F4D042"/><path d="M1.743 11.527s-.028.028-.044.04c.016-.012.028-.027.044-.04z" fill="#D78D29"/><path d="M13.264.59s-.03.024-.046.033c.015-.012.03-.024.046-.033z" fill="#EBB839"/><path d="M28.451 7.112c.431.593.831 1.204 1.195 1.84.037.064.085.122.128.183.208.489.413.978.666 1.442l.47 1.409c.312 1.188.499 2.398.569 3.626V15.82c-.03.687-.058 1.378-.125 2.062-.113.535-.168 1.079-.303 1.61-.1.327-.198.657-.3.984-.225.736-.558 1.433-.86 2.139-.325.486-.603.999-.896 1.503l-1.164 1.506-.104.101c-.773.782-1.552 1.55-2.462 2.181a14.592 14.592 0 0 1-6.432 2.503 4.945 4.945 0 0 1-.223.033c-.791.086-1.582.092-2.377.086a16.252 16.252 0 0 1-2.487-.33c-.586-.122-1.148-.324-1.723-.477l-1.081-.44-1.442-.745c-.725-.397-1.366-.914-2.002-1.433-.406-.333-.785-.706-1.173-1.06l-.733-.819-.89-1.228c-.36-.605-.736-1.204-1.023-1.852-.07-.159-.107-.342-.238-.47l-.376-1.024c-.098-.39-.201-.779-.339-1.158-.21-1.008-.37-2.022-.412-3.052 0-.027 0-.058-.003-.085v-.034c0-.303.003-.608.006-.91l.128-1.406c.116-.605.21-1.213.357-1.812.16-.464.306-.938.48-1.396.214-.562.437-1.121.755-1.638.018-.027.021-.064.033-.097.321-.544.63-1.097 1.033-1.589.116-.144.232-.29.306-.464.458-.486.88-1 1.362-1.464 1.757-1.696 3.816-2.86 6.163-3.532.629-.18 1.27-.29 1.91-.434.687-.036 1.368-.143 2.058-.13a17.74 17.74 0 0 1 2.053.146c1.223.162 2.384.528 3.53.962.57.25 1.124.538 1.677.819.293.19.59.376.88.568.669.443 1.277.966 1.89 1.479l.82.834c.201.315.452.587.705.855h-.006zm2.117 4.498c-.02-.235-.116-.45-.213-.66-.05-.266-.214-.489-.297-.743-.159-.443-.412-.837-.654-1.24a3.585 3.585 0 0 0-.574-.95c-.1-.22-.235-.413-.41-.58a5.134 5.134 0 0 0-.77-.954c-.164-.183-.292-.397-.497-.54-.177-.211-.36-.416-.593-.569a2.376 2.376 0 0 0-.577-.498 5.867 5.867 0 0 0-1.14-.834c-.266-.226-.574-.382-.88-.544-.312-.238-.69-.342-1.033-.522-.436-.223-.883-.422-1.362-.538-.202-.116-.434-.14-.651-.217-.62-.22-1.265-.324-1.913-.403-.473-.135-.959-.147-1.445-.16-.275 0-.547-.005-.822-.008-.33.006-.663-.03-.992.042-.364 0-.725.037-1.076.132-.418.058-.84.098-1.237.25-.297.077-.6.144-.893.236-1.701.519-3.235 1.353-4.625 2.456-.516.41-1.018.837-1.44 1.35-.32.3-.62.618-.849.993-.232.217-.409.477-.574.743-.208.284-.4.577-.55.898-.165.214-.308.44-.366.712-.297.415-.474.889-.642 1.366-.3.66-.498 1.35-.63 2.062-.097.367-.198.733-.204 1.115-.061.312-.113.626-.095.947-.073.358-.046.715-.037 1.076-.009.333-.036.666.022.999.018.446.049.889.165 1.323.009.265.073.522.146.776.016.229.068.452.165.66.11.531.297 1.041.523 1.533.085.321.232.614.394.899.168.39.358.773.608 1.12.086.218.217.407.367.584.11.248.284.456.455.66.263.392.553.761.901 1.082.107.18.257.32.422.446.183.217.37.43.62.574.358.394.782.706 1.228.993.25.227.538.395.831.55.239.187.504.321.78.443a3.6 3.6 0 0 0 .754.37c.287.162.59.287.907.376.349.156.7.3 1.079.357.318.135.654.196.99.254.855.205 1.723.314 2.606.318.495.006.993.042 1.485-.037.17.018.342-.018.51-.04.663-.085 1.33-.162 1.968-.373.027-.003.055-.006.082-.012 1.204-.272 2.325-.751 3.4-1.35 1.26-.7 2.399-1.555 3.355-2.637a10.892 10.892 0 0 0 1.467-1.818c.342-.412.608-.87.828-1.356.44-.74.77-1.528.993-2.359.17-.354.256-.733.317-1.118.153-.498.224-1.015.282-1.528.042-.467.122-.932.085-1.402.07-.303-.01-.605-.003-.908.027-.277-.024-.55-.043-.824-.104-.465-.058-.954-.235-1.403a2.888 2.888 0 0 0-.21-.907c-.01-.239-.15-.437-.206-.66l.003-.003z" fill="#8D6020"/><path d="M14.834 1.58c-.636.143-1.28.253-1.91.433-2.343.672-4.402 1.836-6.162 3.532-.48.464-.904.978-1.363 1.464-.17-.117.013-.208.022-.315.29-.21.476-.513.7-.782.314-.297.632-.59.943-.89.05-.045.123-.091.086-.17-.034-.077-.12-.052-.183-.059-.236-.015-.465.025-.697.055-.073.01-.159.04-.202-.048-.036-.077.028-.129.074-.178.29-.29.617-.543.94-.794.059-.046.123-.049.193-.055.404-.034.807-.064 1.21-.11.232-.024.462-.08.663-.205.718-.452 1.494-.782 2.255-1.148.4-.12.788-.278 1.191-.398a17.426 17.426 0 0 1 1.968-.443c.113-.018.205 0 .266.104l.006.006z" fill="#FADC46"/><path d="M22.475 2.557c-1.146-.434-2.306-.8-3.529-.962a17.74 17.74 0 0 0-2.053-.147c.077-.11.193-.113.309-.116.217-.006.43-.006.648-.012.858.058 1.704.177 2.538.39.074.02.15.022.223.034.031.037.068.068.117.077.574.113 1.115.333 1.662.534l.082.046v.153l.003.003z" fill="#DB982D"/><path d="M18.84 30.409a14.59 14.59 0 0 0 6.43-2.502c.911-.633 1.69-1.4 2.463-2.182l.104-.1c0 .048 0 .094.003.143-.1.232-.342.354-.455.577L26.102 27.5c-.272.177-.535.37-.782.58a5.094 5.094 0 0 0-.618.373c-.045.031-.1.062-.085.129.018.08.091.08.15.076.21-.015.421-.04.632-.058.156-.012.315-.015.47-.021.114-.003.187.04.19.162-.199-.01-.318.143-.465.238-.207.131-.39.302-.647.342-.474-.03-.941.08-1.412.083-.663 0-1.24.311-1.857.473-.03.01-.052.04-.08.061l-1.197.37c-.523.082-1.036.226-1.568.254v-.153h.006z" fill="#E8B337"/><path d="M20.407 30.311c.4-.122.797-.247 1.197-.37a.342.342 0 0 0 .199.037c.394-.034.788-.073 1.185-.104.352-.027.703-.125 1.058-.015-.058.052-.117.104-.178.156a1.811 1.811 0 0 0-.449.168c-.052-.086-.137-.086-.22-.077-.638.058-1.28.126-1.919.18-.29.025-.58.062-.873.022v.003z" fill="#F4D042"/><path d="M12.03 29.724c.577.153 1.139.355 1.723.477.821.171 1.65.284 2.486.327 0 .049 0 .098-.003.146-.427.034-.852-.054-1.277-.07-.345-.107-.712-.122-1.063-.207-.238-.058-.477-.113-.715-.168-.373-.11-.742-.224-1.115-.334l-.037-.17z" fill="#D78D29"/><path d="M16.236 30.678c0-.05 0-.098.003-.147.795.003 1.586 0 2.377-.085.074-.01.15-.022.224-.034v.153c-.3.08-.608.076-.914.104-.504.042-1.008.073-1.515.055a.331.331 0 0 1-.178-.043l.003-.003z" fill="#E2A632"/><path d="M32.551 16.437c.007.416-.048.828-.085 1.24-.309.108-.63.086-.947.08.07-.605.15-1.21.113-1.821.003-.04.009-.076.012-.116.3-.01.602.018.898-.04l.01.654v.003z" fill="#D78D29"/><path d="M30.85 11.112c.226-.107.467-.083.705-.077.129 0 .205.083.242.193.073.226.143.455.202.687.033.14-.028.236-.175.275-.189.052-.378.04-.57.03-.178-.008-.126-.213-.233-.28-.012-.08-.015-.162-.037-.239-.055-.195-.143-.378-.134-.586v-.003z" fill="#FADC46"/><path d="m31.598 14.912-.082-.99c.302-.024.605-.027.904-.082-.015.26.067.51.086.767.006.073.024.147 0 .223h-.01a3.192 3.192 0 0 0-.9.082h.002z" fill="#E7B036"/><path d="M31.598 14.912c.297-.07.599-.1.901-.082.003.318.074.633.04.953-.296.058-.599.03-.898.04.009-.306-.067-.605-.043-.91z" fill="#E2A632"/><path d="M32.423 13.84c-.3.058-.602.058-.904.083-.073-.165-.089-.346-.113-.52-.025-.17.052-.278.229-.302.134-.019.272-.028.41-.037.15-.009.228.08.26.21.045.187.081.377.121.563l-.003.003z" fill="#EFC43D"/><path d="M31.629 15.936c.037.611-.043 1.216-.113 1.821-.025.08-.077.12-.16.125.068-.687.093-1.375.126-2.062.04.052.077.107.147.116z" fill="#E8B337"/><path d="M30.44 10.577c-.256-.464-.46-.953-.666-1.442h.092c.12.058.165.171.208.284.036.095.073.19.159.254.073.232.143.464.293.66.012.082.021.162.034.244h-.12z" fill="#E2A632"/><path d="M30.44 10.577h.12c.094.18.192.358.287.538-.01.208.082.394.134.586.022.077.025.16.037.239-.037.015-.073.03-.107.046-.156-.471-.312-.938-.47-1.409z" fill="#EBB839"/><path d="M1.62 12.643c.046-.214.076-.431.147-.639.046-.131.122-.214.263-.22.244-.015.488-.073.736-.046l-.104.443c-.055.122-.037.27-.128.379-.309-.015-.608.052-.914.082z" fill="#EFC13C"/><path d="M3.023 10.907c-.31-.073-.605.052-.91.04 0-.245.127-.443.243-.645.05-.085.144-.125.245-.131.171-.015.342-.028.51-.037.159-.01.22.073.168.217-.07.192-.134.388-.256.56v-.004z" fill="#DE9E30"/><path d="M2.534 12.56c.088-.11.073-.257.128-.379.046 0 .092.006.14.01-.146.598-.24 1.206-.357 1.811-.04-.015-.08-.027-.12-.043-.027-.18.031-.354.047-.531.076-.284.14-.575.162-.871v.003z" fill="#E2A632"/><path d="M26.927 5.42c-.614-.513-1.226-1.033-1.892-1.479-.29-.192-.586-.379-.88-.568.007-.037.01-.07.016-.107.461.11.913-.04 1.372-.046.076 0 .128-.046.152-.12.196.08.34.23.505.352.036.028.088.055.073.113-.018.068-.08.065-.135.07-.244.028-.489.056-.733.086-.131.018-.19.095-.067.183.36.26.663.593 1.057.807.168.248.443.385.623.617l-.088.086-.003.006z" fill="#F4D042"/><path d="m24.168 3.269-.016.107c-.556-.281-1.109-.568-1.677-.819v-.153c.584.196 1.124.48 1.647.8.021.013.034.044.049.065h-.003z" fill="#EBB839"/><path d="M28.451 7.113c-.253-.27-.504-.544-.706-.856.086-.067.046-.128-.015-.183a.47.47 0 0 1-.143-.239c.049-.134.165-.128.275-.125.235.006.467.003.678-.125.165.125.305.272.41.452.1.177.076.23-.123.25-.156.019-.315.022-.467.05-.226.04-.242.113-.113.299.11.162.302.266.336.477h-.132z" fill="#DE9E30"/><path d="M2.369 13.428c-.016.177-.07.351-.046.531-.116.388-.138.789-.135 1.192-.223.006-.443.058-.669.052-.165-.006-.235-.073-.232-.235.003-.129 0-.26 0-.389a6.52 6.52 0 0 1 .168-1.112c.095-.009.186-.027.281-.024.214.003.422-.107.636-.012l-.003-.003z" fill="#FADC46"/><path d="M1.33 17.555c-.08-.269-.015-.553-.08-.825l.905-.082c-.01.278.033.553.08.825l-.905.082z" fill="#E7B036"/><path d="M2.234 17.473a4.15 4.15 0 0 1-.08-.825c.01-.104.059-.177.163-.208.043 1.03.201 2.044.412 3.052-.04 0-.08 0-.119.003-.131-.333-.18-.684-.254-1.03-.027-.332-.128-.656-.122-.992z" fill="#F4D042"/><path d="M2.188 15.154c0-.403.019-.804.135-1.192.04.016.08.028.12.043l-.13 1.405c-.125-.045-.11-.155-.125-.253v-.003z" fill="#E8B337"/><path d="M2.31 16.318s.004.021 0 .034c0-.013-.002-.022 0-.034z" fill="#F4D042"/><path d="M27.587 5.832a.479.479 0 0 0 .143.239c.058.058.101.116.015.183l-.821-.834.088-.086c.202.156.351.37.572.498h.003z" fill="#EFC13C"/><path d="M4.385 25.355c-.177-.207-.354-.415-.532-.626-.17-.37-.4-.706-.598-1.06-.126-.226-.092-.29.17-.297.215 0 .425-.036.633-.085.165.235.327.47.492.706.23.446.571.816.846 1.231-.324.147-.672.098-1.011.131z" fill="#FADC46"/><path d="m3.068 20.65.376 1.024c-.082.137-.012.275 0 .412-.165-.045-.327-.012-.489.022a.967.967 0 0 1-.467-.01c-.14-.339-.315-.665-.37-1.035.168 0 .34.006.507-.012.318-.034.349-.083.315-.398h.128v-.003z" fill="#E2A632"/><path d="M3.441 22.086c-.009-.137-.08-.275 0-.412.135.128.168.311.239.47.287.648.663 1.244 1.023 1.852h-.156c-.165-.235-.327-.47-.492-.706-.186-.412-.366-.825-.617-1.204h.003z" fill="#D78D29"/><path d="M12.066 29.895c.373.11.742.224 1.115.334-.122.128-.293.103-.44.119-.461.049-.92.122-1.384.128-.052 0-.104.024-.159.037-.336-.095-.669-.193-.95-.413.046-.058.11-.076.18-.082l1.638-.129v.006z" fill="#EBB839"/><path d="M32.298 18.793c-.061.232-.08.476-.168.702-.318-.015-.63.031-.941.083 0-.015-.003-.028-.006-.043.049-.18.098-.357.146-.538.037-.131.117-.226.254-.235.238-.015.48-.043.715.028v.003z" fill="#E7B036"/><path d="m31.183 19.538.006.043c-.018.073-.037.147-.058.22l-.413 1.378c-.052.104-.1.21-.152.315-.193.394-.318.821-.58 1.179a.873.873 0 0 1-.09-.058c.303-.709.633-1.402.862-2.139.1-.327.199-.657.3-.984l.128.046h-.003z" fill="#D78D29"/><path d="M2.369 13.428c-.214-.095-.425.018-.636.012-.094 0-.186.015-.28.024.036-.278.066-.559.167-.825.303-.033.605-.097.914-.082a4.702 4.702 0 0 1-.162.87h-.003z" fill="#F4D042"/><path d="M2.357 18.466c.07.345.119.7.253 1.03-.03.259.129.488.132.742-.285.07-.575.095-.865.119a7.086 7.086 0 0 1-.397-1.815c.29-.049.58-.089.877-.076z" fill="#D78D29"/><path d="M2.356 18.466a4.217 4.217 0 0 0-.876.076c-.123-.318-.132-.654-.15-.99l.904-.082c-.006.336.095.66.122.993v.003z" fill="#E2A632"/><path d="M1.877 20.357c.29-.024.58-.049.864-.12.116.114.126.282.199.416.034.315 0 .364-.315.398-.168.018-.339.009-.507.012a2.125 2.125 0 0 1-.241-.706z" fill="#DE9E30"/><path d="M8.555 29.196c-.223-.14-.449-.278-.672-.419-.085-.055-.171-.113-.278-.119-.052-.156-.208-.21-.312-.315-.113-.113-.103-.183.05-.232.195-.06.403-.052.607-.067.123-.01.245-.012.364-.049.382.202.712.486 1.106.666.12.147.318.171.455.287-.049.04-.1.077-.165.074-.293-.006-.577.088-.87.091-.104 0-.205.01-.288.083h.003z" fill="#D78D29"/><path d="M6.24 27.384c-.315-.165-.529-.434-.746-.703.388-.006.77-.107 1.161-.085.049.046.101.091.147.14.165.18.4.29.52.514-.361.046-.722.091-1.085.134h.003z" fill="#E7B036"/><path d="M7.324 27.25c-.12-.223-.354-.333-.52-.514-.045-.049-.097-.094-.146-.14-.049-.055-.092-.116-.147-.165-.113-.104-.204-.217-.18-.385.391.354.767.727 1.173 1.06.636.52 1.277 1.036 2.002 1.433a.202.202 0 0 1-.083.122c-.394-.18-.724-.467-1.106-.666-.324-.257-.639-.525-.993-.745z" fill="#F4D042"/><path d="M27.84 25.77c0-.048 0-.094-.003-.143.388-.5.776-1.005 1.164-1.506.04.012.08.028.12.04-.037.119-.12.21-.184.318-.052.082-.165.152-.095.265.068.107.18.058.281.052.22-.018.443-.104.666-.012-.119.327-.35.578-.583.825-.03-.052-.076-.08-.134-.073-.416.052-.85-.006-1.229.235h-.003z" fill="#E2A632"/><path d="M30.82 23.091c-.02.095-.035.187-.053.281-.1.031-.156.108-.19.2-.094.25-.277.369-.543.39-.238.018-.47.07-.706-.012l.492-.868c.082.05.171.046.26.043.247-.01.495-.021.74-.034z" fill="#EFC43D"/><path d="m29.817 23.082-.492.868c-.067.07-.137.137-.205.208-.04-.013-.08-.028-.119-.04.293-.504.572-1.017.895-1.503.031.018.061.037.089.058-.003.159-.131.266-.168.41zM25.32 28.08c.247-.21.51-.403.782-.58.15.153.336.077.507.067.275-.015.544-.067.822-.06-.107.234-.376.317-.504.53-.397.01-.788.062-1.18.108-.146.018-.299.06-.424-.064h-.003z" fill="#DE9E30"/><path d="M27.43 27.506c-.274-.006-.546.05-.821.061-.171.01-.354.086-.507-.067l1.283-1.155c.272.019.54-.024.81-.058.137-.018.256-.003.351.104-.266.303-.532.602-.794.905l-.321.21z" fill="#D78D29"/><path d="M28.546 26.394c-.095-.11-.217-.122-.351-.104-.27.037-.538.077-.81.058.113-.223.354-.345.455-.577.38-.242.813-.183 1.229-.235.06-.007.103.021.134.073-.193.284-.394.562-.657.788v-.003z" fill="#DE9E30"/><path d="m12.066 29.895-1.638.129c-.07.006-.134.024-.18.082-.357-.125-.724-.241-.999-.525a.273.273 0 0 1 .174-.052c.342.015.675-.08 1.014-.086a.25.25 0 0 0 .224-.122c.097 0 .195.01.287-.037l1.081.44.037.171z" fill="#E2A632"/><path d="M10.66 29.321a.263.263 0 0 1-.223.122c-.339.01-.672.101-1.014.086a.298.298 0 0 0-.174.052c-.193-.034-.345-.165-.529-.22l-.165-.165c.083-.074.184-.083.288-.083.293 0 .577-.097.87-.091.061 0 .116-.034.165-.074.26.126.523.248.783.373z" fill="#DB982D"/><path d="M29.817 23.082c.04-.143.165-.25.168-.41.263-.36.388-.784.58-1.178.052-.104.101-.211.153-.315.11.012.217 0 .324-.012.192-.019.391-.077.58.027-.04.177-.079.355-.116.535-.232.305-.302.684-.485 1.014-.068.12-.101.254-.202.355-.247.012-.495.024-.74.033-.088.003-.18.006-.26-.043l-.002-.006z" fill="#FADC46"/><path d="M31.623 21.191c-.19-.104-.385-.046-.58-.027-.11.012-.218.027-.325.012l.413-1.378c.021-.073.04-.147.058-.22.311-.052.623-.098.94-.083-.13.578-.228 1.165-.506 1.696z" fill="#EFC13C"/><path d="M24.046 29.862c-.355-.11-.706-.012-1.058.015-.394.03-.79.067-1.185.104a.342.342 0 0 1-.198-.037c.027-.021.048-.055.079-.06.617-.166 1.194-.474 1.857-.474.471 0 .939-.113 1.412-.083-.266.242-.547.455-.907.541v-.006z" fill="#EFC43D"/><path d="M6.328 26.046c-.024.168.068.28.18.385.056.049.098.11.147.165-.39-.022-.773.082-1.16.085-.19-.18-.38-.363-.572-.544-.015-.051-.034-.103-.049-.158a4.73 4.73 0 0 0 .78-.068c.216-.033.237-.122.097-.284-.107-.122-.23-.238-.29-.394.045 0 .091-.006.134-.006l.733.819z" fill="#EFC13C"/><path d="M5.46 25.233c.062.156.184.272.29.394.141.162.12.25-.097.284-.257.04-.516.074-.78.068a2.36 2.36 0 0 1-.488-.624c.34-.033.687.019 1.011-.131.022 0 .043.003.064.006v.003z" fill="#F4D042"/><path d="M30.575 20.366a9.471 9.471 0 0 1-.993 2.359c-.08-.058-.156-.03-.23.015-.094.058-.189.113-.284.168-1.472.843-2.95 1.674-4.417 2.533-1.442.843-2.888 1.68-4.336 2.508-1.216.697-2.426 1.406-3.639 2.105-.116.068-.195.15-.189.294-.88 0-1.748-.11-2.606-.318a.262.262 0 0 1 .128-.128c.81-.477 1.64-.92 2.444-1.412.737-.452 1.5-.868 2.249-1.301.862-.502 1.717-1.012 2.582-1.51 1.323-.76 2.649-1.512 3.972-2.273.641-.37 1.27-.767 1.918-1.124.59-.327 1.17-.666 1.754-1.002.363-.208.718-.434 1.088-.63.183-.098.327-.287.562-.28l-.003-.004z" fill="#D78D29"/><path d="M19.004 1.818c.651.08 1.293.183 1.913.403-.34.248-.718.43-1.079.642-1.044.608-2.09 1.219-3.131 1.827-.452.262-.908.52-1.357.785-.116.067-.253.122-.272.287-.714.171-1.432.327-2.114.617-1.384.59-2.618 1.387-3.645 2.5-.269.293-.482.635-.797.885-.064-.048-.128-.033-.193 0-.287.16-.583.306-.864.48-1.271.791-2.579 1.525-3.877 2.27-.236.135-.456.312-.73.373.128-.712.33-1.402.629-2.062a.653.653 0 0 0 .269-.101c.513-.293 1.03-.584 1.54-.88 1.646-.956 3.29-1.919 4.94-2.872 1.94-1.121 3.886-2.233 5.83-3.352.864-.498 1.726-.999 2.584-1.503.131-.076.293-.134.351-.3h.003z" fill="#DC9A2E"/><path d="M19.005 1.818c-.062.168-.22.223-.352.3-.858.503-1.723 1.004-2.585 1.502-1.943 1.119-3.889 2.23-5.829 3.352-1.65.953-3.294 1.916-4.94 2.872-.51.296-1.027.59-1.54.88a.653.653 0 0 1-.269.1c.168-.476.345-.95.642-1.365.15-.006.275-.083.4-.156l4.225-2.45c1.369-.792 2.738-1.58 4.103-2.371 1.482-.856 2.961-1.714 4.44-2.573.104-.06.223-.113.26-.25.485.012.974.024 1.445.159z" fill="#D78D29"/><path d="M30.575 20.366c-.235-.006-.376.183-.562.281-.37.193-.725.419-1.088.63-.584.336-1.164.675-1.754 1.002-.65.36-1.277.754-1.918 1.124-1.323.76-2.65 1.512-3.972 2.273-.865.498-1.72 1.008-2.582 1.51-.748.433-1.51.849-2.249 1.301-.803.492-1.634.935-2.444 1.412-.055.033-.104.07-.128.128-.336-.061-.672-.12-.99-.254.08-.15.241-.174.37-.247 1.76-1.02 3.52-2.035 5.276-3.052.107-.061.223-.113.26-.25.107-.028.21-.059.317-.083a10.446 10.446 0 0 0 4.962-2.622c.352-.33.633-.72.98-1.054.19.01.343-.095.496-.183 1.65-.956 3.297-1.919 4.946-2.875.122-.07.239-.165.395-.162-.062.385-.15.764-.318 1.118l.003.003zM16.484 30.345c-.006-.144.076-.226.19-.294 1.212-.702 2.422-1.411 3.638-2.105a470.757 470.757 0 0 0 4.335-2.508c1.464-.859 2.946-1.69 4.418-2.533.095-.055.19-.11.284-.168.077-.046.15-.073.23-.015-.22.485-.49.944-.828 1.356a.841.841 0 0 0-.37.123l-1.176.68c-.795.462-1.58.939-2.383 1.388-1.235.687-2.45 1.405-3.676 2.114-.868.501-1.735 1.005-2.597 1.515-.205.123-.43.214-.583.407-.495.076-.99.04-1.485.037l.003.003z" fill="#DB982D"/><path d="M17.972 30.308c.152-.196.382-.287.583-.406.862-.51 1.73-1.015 2.597-1.516 1.222-.709 2.441-1.427 3.676-2.114.803-.446 1.588-.926 2.383-1.387.39-.226.782-.455 1.176-.681a.829.829 0 0 1 .37-.123c-.422.66-.917 1.262-1.467 1.818-.223-.015-.357.16-.531.245-.804.403-1.562.889-2.347 1.326-.574.32-1.118.693-1.695 1.005-.67.36-1.32.758-1.98 1.136-.122.07-.232.15-.281.288-.639.21-1.305.287-1.968.372-.168.022-.336.058-.51.04l-.006-.003zM30.896 19.248c-.156-.006-.272.089-.395.162-1.65.956-3.296 1.916-4.946 2.875-.153.088-.305.19-.495.183.468-.696.969-1.375 1.31-2.148.315-.018.548-.22.795-.37.706-.424 1.44-.803 2.139-1.24.458-.287.968-.48 1.405-.803.14-.104.29-.184.47-.187-.06.517-.128 1.03-.28 1.528h-.003z" fill="#E2A632"/><path d="M21.568 2.441c.48.113.925.312 1.362.538-.046.03-.088.067-.134.094-.483.272-.95.572-1.445.825-.345.178-.657.422-1.002.596-.508.257-.966.593-1.48.837-.161.077-.347.177-.405.385a20.065 20.065 0 0 0-2.185-.098c.034-.207.217-.275.367-.36.727-.419 1.466-.819 2.187-1.247a71.248 71.248 0 0 1 2.738-1.57h-.003z" fill="#E8B337"/><path d="M8.54 27.674c-.443-.287-.87-.598-1.228-.993.052-.085.138-.128.223-.177.972-.568 1.943-1.136 2.912-1.708.162-.094.32-.183.504-.226.486.23.929.544 1.402.795 0 .116-.048.189-.15.247-.824.47-1.64.95-2.468 1.415-.394.22-.76.498-1.195.647z" fill="#FADC46"/><path d="M15.745 1.692c.327-.07.66-.036.993-.042a.362.362 0 0 1-.18.217c-1.296.751-2.591 1.506-3.89 2.254-1.653.957-3.309 1.91-4.965 2.866-.987.572-1.973 1.146-2.96 1.717-.077.043-.15.11-.245.043a5.4 5.4 0 0 1 .55-.898c.11.055.202-.006.29-.055 1.339-.773 2.68-1.543 4.018-2.32 1.155-.668 2.298-1.356 3.462-2.006.925-.517 1.83-1.067 2.746-1.592.077-.046.16-.086.184-.184h-.003zM3.545 21.32a7.386 7.386 0 0 1-.523-1.534.67.67 0 0 0 .29-.098c.84-.492 1.678-.987 2.524-1.467.257-.146.483-.372.81-.381.092.534.257 1.047.397 1.57-.027.009-.055.015-.076.027-.88.48-1.739 1-2.603 1.507-.26.15-.504.339-.82.375z" fill="#E7B036"/><path d="M24.843 4.045c.412.232.794.51 1.14.834-.016.128-.12.177-.214.232-.954.556-1.928 1.082-2.87 1.662-.204.126-.406.257-.647.303-.45-.223-.898-.45-1.35-.672.012-.116.107-.153.189-.202.388-.235.78-.464 1.176-.684.865-.48 1.717-.981 2.576-1.476v.003z" fill="#FADC46"/><path d="M4.498 8.75c.095.067.171 0 .245-.043l2.96-1.717c1.653-.956 3.309-1.91 4.965-2.866 1.298-.751 2.59-1.503 3.89-2.254a.355.355 0 0 0 .18-.217c.274 0 .546.006.821.009-.033.137-.152.19-.26.25-1.478.859-2.96 1.718-4.439 2.573l-4.103 2.37-4.225 2.451c-.125.07-.248.15-.4.156.06-.269.201-.495.366-.712z" fill="#DE9E30"/><path d="M30.984 13.177c.174.452.131.941.235 1.402-.036.019-.076.034-.11.055a3600.34 3600.34 0 0 0-3.443 1.99c-.12.067-.235.143-.382.143 0-.507 0-1.017.003-1.524.135-.086.263-.175.4-.254.825-.483 1.65-.969 2.478-1.442.26-.147.501-.345.82-.373v.003z" fill="#FADC46"/><path d="M31.177 17.717a.829.829 0 0 0-.47.187c-.438.323-.948.516-1.406.803-.7.437-1.433.813-2.139 1.24-.247.15-.48.355-.794.37.235-.522.403-1.069.58-1.61a.51.51 0 0 0 .275-.067c.956-.556 1.91-1.121 2.875-1.662.388-.217.749-.486 1.164-.66.034.47-.043.935-.085 1.402v-.003z" fill="#EBB839"/><path d="M2.71 18.347c-.115-.434-.143-.877-.164-1.323.082-.061.162-.129.25-.18.608-.349 1.216-.694 1.824-1.04.407-.229.82-.448 1.213-.696.23-.144.462-.269.712-.36-.055.507-.046 1.017-.055 1.524-.036.015-.076.03-.113.049-1.057.556-2.077 1.176-3.11 1.778-.174.101-.34.241-.56.245l.004.003z" fill="#FADC46"/><path d="M6.27 25.664a6.37 6.37 0 0 1-.901-1.082.453.453 0 0 1 .205-.195c.583-.333 1.158-.681 1.747-1 .495-.268.935-.629 1.458-.842.342.311.601.7.934 1.02a.763.763 0 0 1-.24.19c-.957.552-1.913 1.102-2.87 1.65-.125.073-.256.13-.336.262l.003-.003z" fill="#E8B337"/><path d="M18.797 26.223c-.034.138-.153.19-.26.25-1.76 1.018-3.52 2.035-5.276 3.053-.129.073-.29.098-.37.247-.379-.058-.733-.201-1.079-.357.062-.107.165-.165.266-.223l4.345-2.484c.134-.076.254-.165.309-.318.693.003 1.377-.08 2.065-.168z" fill="#E2A632"/><path d="M29.404 8.967c.242.4.495.797.654 1.24a.588.588 0 0 0-.266.101c-.473.278-.956.544-1.42.834-.584.364-1.22.633-1.772 1.045-.199-.424-.398-.852-.596-1.277.177-.153.394-.247.596-.363.623-.36 1.246-.721 1.87-1.079.308-.174.59-.403.938-.501h-.004z" fill="#DC9A2E"/><path d="M2.858 12.89c.275-.061.495-.238.73-.373 1.298-.745 2.606-1.478 3.877-2.27.278-.174.577-.32.865-.48.064-.036.128-.051.192 0l-.898 1.476a.537.537 0 0 0-.312.089c-.907.525-1.815 1.054-2.725 1.58-.642.369-1.286.733-1.931 1.1.006-.383.107-.75.205-1.116l-.003-.006z" fill="#E2A632"/><path d="M18.464 5.713c.058-.208.244-.308.406-.385.514-.244.972-.583 1.479-.837.345-.174.657-.418 1.002-.596.495-.253.963-.553 1.445-.825.05-.027.089-.06.135-.094.339.18.718.287 1.032.522-.18.22-.443.318-.678.452-1.045.608-2.096 1.207-3.144 1.809-.113.064-.229.134-.235.287-.48-.113-.96-.223-1.442-.336v.003z" fill="#EFC13C"/><path d="M27.654 6.483c.3.284.547.608.77.953a.9.9 0 0 1-.232.199c-.67.388-1.342.776-2.008 1.17-.385.226-.788.416-1.155.67-.314-.294-.58-.63-.867-.948.238-.137.476-.269.712-.41.922-.55 1.875-1.05 2.78-1.634z" fill="#E2A632"/><path d="M4.547 23.339a6.214 6.214 0 0 1-.608-1.121.602.602 0 0 0 .266-.101c.822-.47 1.647-.938 2.462-1.418.242-.14.501-.256.694-.47l.614 1.164c-.128.064-.263.119-.388.19-.574.32-1.149.64-1.72.97-.446.257-.883.523-1.326.786h.006z" fill="#D78D29"/><path d="M15.744 1.692c-.024.098-.104.141-.183.184-.916.528-1.824 1.075-2.747 1.592-1.164.65-2.306 1.338-3.461 2.007-1.338.776-2.68 1.546-4.018 2.319-.088.052-.177.11-.29.055.165-.27.345-.526.574-.743.15-.009.275-.088.4-.159C7.997 5.805 9.97 4.662 11.945 3.52c.803-.464 1.607-.928 2.407-1.396.125-.073.284-.122.318-.3a4.249 4.249 0 0 1 1.075-.13z" fill="#EFC13C"/><path d="M2.653 14.005c.644-.367 1.29-.73 1.93-1.1.911-.522 1.819-1.05 2.726-1.58a.594.594 0 0 1 .312-.088c-.233.406-.346.865-.56 1.277a.555.555 0 0 0-.33.095c-.201.128-.406.257-.614.376-.904.522-1.805 1.048-2.713 1.558-.272.153-.516.376-.849.403-.018-.32.034-.635.095-.947l.003.006z" fill="#EBB839"/><path d="M16.731 26.391c-.055.153-.174.241-.308.318l-4.345 2.484c-.1.058-.204.116-.266.223a4.065 4.065 0 0 1-.907-.376c.104-.183.3-.235.464-.327 1.232-.712 2.442-1.457 3.697-2.133.116-.064.22-.14.263-.274.47-.004.935.054 1.402.085z" fill="#E7B036"/><path d="M2.558 14.952c.333-.027.574-.25.85-.403.91-.51 1.811-1.036 2.712-1.558.208-.12.413-.248.615-.376a.55.55 0 0 1 .33-.095l-.343 1.204c-.198.01-.366.11-.531.205-.853.498-1.699 1.002-2.554 1.494-.367.21-.712.464-1.116.608-.009-.358-.04-.718.037-1.076v-.003z" fill="#EFC43D"/><path d="M14.666 1.824c-.03.177-.192.226-.318.3-.8.467-1.604.931-2.407 1.396-1.974 1.142-3.948 2.288-5.924 3.428-.126.07-.248.15-.4.158.229-.378.528-.693.849-.993a.487.487 0 0 0 .232-.076c1.079-.62 2.157-1.237 3.236-1.858.507-.29 1.01-.583 1.518-.873.602-.346 1.2-.69 1.803-1.04.079-.045.15-.1.17-.195.4-.15.822-.192 1.238-.25l.003.003z" fill="#F4D042"/><path d="M29.405 8.967c-.349.098-.63.327-.938.501-.627.354-1.25.715-1.87 1.079-.202.116-.416.21-.596.363-.244-.296-.403-.648-.632-.953a.506.506 0 0 0 .256-.07l3.208-1.87c.239.287.434.602.575.95h-.003z" fill="#D78D29"/><path d="M19.906 6.05c.009-.153.122-.224.235-.288 1.048-.602 2.099-1.2 3.144-1.809.235-.137.498-.232.678-.452.306.162.614.318.88.544-.858.492-1.71.996-2.576 1.476-.397.22-.788.449-1.176.684-.082.049-.177.086-.19.202-.332-.12-.665-.235-.995-.355V6.05z" fill="#F4D042"/><path d="M31.265 16.315c-.415.174-.776.443-1.164.66-.965.54-1.919 1.106-2.875 1.662a.462.462 0 0 1-.275.067c.08-.357.159-.715.235-1.07.101 0 .187-.036.272-.085.214-.128.428-.247.642-.372.828-.48 1.653-.96 2.48-1.434.22-.125.422-.29.68-.335-.007.302.075.604.002.907h.003z" fill="#EFC43D"/><path d="M2.524 16.028c.404-.144.749-.397 1.116-.608.855-.49 1.701-.996 2.554-1.494.165-.095.333-.196.531-.205-.122.333-.067.694-.18 1.03-.25.091-.486.217-.712.36-.394.248-.806.464-1.213.697-.608.345-1.216.69-1.824 1.038-.088.052-.168.12-.25.18-.058-.332-.034-.665-.022-.998zM8.54 27.674c.434-.146.8-.427 1.195-.647.828-.462 1.647-.945 2.469-1.415.1-.058.152-.134.15-.247l1.044.418c-.082.159-.25.205-.388.29-.755.474-1.53.905-2.303 1.348-.453.26-.908.507-1.336.806-.296-.155-.583-.323-.83-.55v-.003z" fill="#F4D042"/><path d="M20.45 29.895c.052-.137.162-.216.28-.287.66-.379 1.311-.776 1.98-1.136.578-.312 1.122-.685 1.696-1.006.785-.436 1.543-.922 2.347-1.326.174-.088.308-.262.531-.244-.96 1.085-2.099 1.937-3.354 2.637-1.073.599-2.197 1.078-3.401 1.35-.027.006-.055.006-.082.012h.003z" fill="#E7B036"/><path d="M9.371 28.227c.428-.3.883-.547 1.335-.806.774-.443 1.55-.874 2.304-1.348.138-.085.306-.131.388-.29l.944.303c-.012.107-.085.168-.17.216-.798.468-1.602.93-2.393 1.409-.538.327-1.118.584-1.629.956a3.711 3.711 0 0 1-.779-.443v.003z" fill="#EFC43D"/><path d="M7.364 20.232c-.192.214-.452.33-.693.47-.82.477-1.641.944-2.463 1.418a.603.603 0 0 1-.266.1c-.162-.287-.311-.577-.394-.898.315-.036.56-.226.819-.375.868-.505 1.723-1.027 2.603-1.507.024-.012.052-.018.076-.027.126.266.23.54.321.819h-.003z" fill="#DE9E30"/><path d="M13.429 2.074c-.025.095-.095.15-.171.196-.602.345-1.201.69-1.803 1.039-.507.29-1.011.583-1.518.874L6.7 6.04a.43.43 0 0 1-.232.077c.422-.514.923-.942 1.439-1.35 1.39-1.104 2.927-1.938 4.626-2.457.293-.089.595-.156.892-.236h.003z" fill="#FADC46"/><path d="M30.984 13.177c-.318.028-.559.223-.819.373-.83.473-1.652.96-2.477 1.442-.138.08-.266.168-.4.253-.037-.317-.07-.635-.108-.953.117-.073.23-.15.349-.22.996-.58 1.995-1.16 2.99-1.744a.476.476 0 0 1 .257-.061c.116.293.193.592.211.907l-.003.003z" fill="#F4D042"/><path d="M10.15 28.67c.51-.376 1.088-.632 1.629-.956.791-.48 1.595-.941 2.392-1.409.086-.048.159-.11.171-.216.342.015.654.155.987.216-.04.138-.144.214-.263.276-1.252.672-2.465 1.42-3.697 2.132-.165.095-.36.147-.464.327a3.676 3.676 0 0 1-.755-.37z" fill="#EBB839"/><path d="M10.95 24.573a1.782 1.782 0 0 0-.503.226c-.969.572-1.94 1.14-2.912 1.708-.082.05-.168.092-.223.177-.25-.143-.437-.357-.62-.574.058-.08.143-.125.223-.177.956-.602 1.968-1.112 2.918-1.723a1.05 1.05 0 0 1 .434-.18c.216.195.516.287.684.543zM31.26 15.408c-.26.045-.462.21-.68.336-.83.473-1.655.956-2.48 1.433-.214.125-.43.244-.642.372a.485.485 0 0 1-.271.086c0-.294.051-.58.094-.868.144 0 .263-.076.382-.143 1.149-.663 2.298-1.326 3.443-1.99.037-.02.074-.036.11-.055.019.275.07.547.043.825v.004z" fill="#F4D042"/><path d="M21.568 2.441a73.715 73.715 0 0 0-2.738 1.57c-.72.428-1.46.828-2.187 1.247-.15.085-.333.15-.367.36l-1.2.147c.018-.165.155-.22.271-.287.45-.266.905-.523 1.357-.785 1.045-.608 2.087-1.22 3.131-1.827.361-.211.74-.394 1.079-.642.217.073.45.1.65.217h.004z" fill="#E2A632"/><path d="M2.71 18.347c.22-.003.386-.144.56-.245 1.032-.602 2.053-1.222 3.11-1.778.037-.018.076-.034.113-.049l.046.825a.445.445 0 0 0-.193.07c-.727.419-1.45.84-2.184 1.247-.43.238-.831.544-1.302.706a3.195 3.195 0 0 1-.146-.776H2.71z" fill="#F4D042"/><path d="M26.56 5.377c.232.153.416.358.593.568-.116.132-.272.208-.419.294-.944.562-1.916 1.078-2.847 1.662a.685.685 0 0 1-.303.119 4.853 4.853 0 0 1-.58-.452c.186-.156.403-.26.61-.38L26.34 5.61c.098-.055.186-.116.22-.232z" fill="#EFC43D"/><path d="M26.56 5.377c-.03.116-.122.177-.22.232-.91.526-1.818 1.051-2.725 1.58-.208.119-.428.223-.611.379a6.351 6.351 0 0 1-.752-.492c.242-.05.446-.177.648-.303.94-.58 1.913-1.106 2.869-1.662.095-.055.198-.104.214-.232.213.14.415.296.577.498z" fill="#F4D042"/><path d="M8.782 22.541c-.523.214-.963.578-1.458.844-.59.32-1.167.666-1.747.999a.453.453 0 0 0-.205.195c-.174-.204-.345-.41-.455-.66a.549.549 0 0 1 .201-.17c.813-.474 1.62-.95 2.435-1.418.248-.144.48-.324.761-.407.184.184.324.4.47.611l-.002.006z" fill="#E2A632"/><path d="M26.597 12.187c.553-.412 1.191-.681 1.772-1.045.467-.29.947-.556 1.42-.834a.602.602 0 0 1 .266-.1c.086.253.248.473.297.742a.584.584 0 0 0-.33.095c-.517.299-1.036.59-1.55.892-.54.32-1.105.602-1.63.953-.114-.223-.178-.464-.251-.703h.006z" fill="#E7B036"/><path d="M23.584 8.02a.67.67 0 0 0 .303-.12c.932-.583 1.903-1.1 2.847-1.661.147-.089.303-.162.419-.294.208.144.336.358.498.541-.904.584-1.858 1.085-2.78 1.635-.236.14-.474.275-.712.41-.23-.13-.404-.319-.578-.511h.003z" fill="#EBB839"/><path d="M30.773 12.27a.506.506 0 0 0-.256.06c-.996.581-1.995 1.162-2.991 1.745-.12.07-.233.147-.349.22-.073-.22-.1-.449-.137-.678.067-.11.174-.174.28-.235.93-.535 1.858-1.066 2.79-1.598.144-.083.285-.171.459-.171.052.226.195.421.204.66v-.003zM2.858 19.123c.473-.165.87-.468 1.301-.706.733-.406 1.457-.831 2.185-1.247a.488.488 0 0 1 .192-.07c.037.248.07.495.107.742-.324.01-.55.236-.81.382-.846.477-1.683.975-2.523 1.467a.71.71 0 0 1-.29.098c-.098-.211-.15-.431-.166-.66l.004-.006z" fill="#EFC43D"/><path d="M30.569 11.61c-.175 0-.315.088-.459.17l-2.79 1.599c-.106.06-.213.125-.28.235a3.47 3.47 0 0 1-.193-.724c.523-.351 1.088-.636 1.632-.953.513-.303 1.035-.593 1.549-.892a.577.577 0 0 1 .33-.095c.094.21.192.425.213.66h-.003z" fill="#EBB839"/><path d="m28.83 8.017-3.208 1.87a.506.506 0 0 1-.256.07 3.114 3.114 0 0 1-.34-.483c.367-.253.773-.443 1.155-.669.666-.394 1.338-.782 2.008-1.17a.852.852 0 0 0 .232-.199c.174.168.308.36.41.58zM8.311 21.93c-.28.083-.51.263-.76.407-.816.464-1.626.944-2.436 1.418a.521.521 0 0 0-.201.17 2.003 2.003 0 0 1-.367-.583c.443-.263.88-.529 1.326-.785.571-.327 1.146-.651 1.72-.972.125-.07.26-.128.388-.19.122.172.254.34.333.535h-.003z" fill="#DB982D"/><path d="M10.266 24.026a1.091 1.091 0 0 0-.434.18c-.953.612-1.961 1.122-2.917 1.724-.083.052-.165.098-.223.177a1.627 1.627 0 0 1-.422-.446c.08-.128.208-.19.336-.263.96-.547 1.916-1.097 2.869-1.65a.809.809 0 0 0 .241-.19c.217.117.385.291.55.468z" fill="#EFC43D"/><path d="M10.66 29.321c-.26-.125-.522-.247-.782-.373-.137-.116-.333-.143-.455-.287.043-.03.07-.07.083-.122l1.442.745c-.092.046-.19.034-.287.037z" fill="#E8B337"/><path d="M5.46 25.233c-.02 0-.042-.003-.063-.006-.275-.416-.618-.785-.847-1.231h.156l.89 1.228c-.047 0-.092.006-.135.006v.003z" fill="#DE9E30"/><path d="M2.94 20.653c-.073-.134-.082-.302-.199-.415 0-.254-.162-.483-.131-.743.04 0 .08 0 .12-.003.14.38.244.767.338 1.158H2.94v.003z" fill="#E8B337"/><path d="M10.266 24.026c-.168-.174-.333-.351-.55-.467-.333-.32-.592-.709-.934-1.02-.147-.211-.285-.428-.471-.612-.08-.198-.21-.363-.333-.534l-.614-1.164a7.22 7.22 0 0 0-.32-.82c-.141-.522-.31-1.035-.398-1.57-.037-.247-.07-.494-.107-.742l-.046-.825c.01-.51 0-1.017.055-1.524.11-.333.055-.697.18-1.03l.343-1.204c.21-.415.327-.874.559-1.277l.898-1.476c.315-.25.529-.595.797-.886 1.027-1.109 2.261-1.91 3.645-2.499.682-.29 1.4-.449 2.114-.617l1.201-.147c.73-.015 1.458.034 2.185.098.48.113.96.223 1.442.336.333.12.666.235.996.355.449.223.898.449 1.35.672.242.177.486.348.752.492.183.165.376.317.58.452.175.19.349.379.578.51.284.32.553.657.867.947.095.174.217.327.34.483.229.305.39.657.632.953.199.425.397.853.596 1.277.073.239.137.477.25.703.046.247.095.492.193.724.037.23.064.458.137.678.037.318.07.636.107.954 0 .507 0 1.017-.003 1.524-.043.287-.091.575-.095.868l-.235 1.07c-.18.54-.345 1.087-.58 1.61-.342.772-.843 1.45-1.311 2.147-.348.33-.63.724-.98 1.054a10.433 10.433 0 0 1-4.962 2.622c-.107.024-.211.055-.318.082-.685.089-1.372.171-2.066.168-.467-.033-.934-.091-1.402-.085-.33-.062-.644-.202-.987-.217l-.944-.303-1.045-.418c-.473-.25-.916-.566-1.402-.795-.168-.26-.468-.351-.684-.544l-.01-.003zm16.783-8.02A10.136 10.136 0 0 0 16.899 5.86c-5.624 0-10.161 4.55-10.161 10.183 0 5.527 4.604 10.1 10.155 10.095 5.597-.007 10.159-4.559 10.153-10.132h.003z" fill="#8D6020"/><path d="M27.049 16.01c.006 5.572-4.558 10.124-10.153 10.13-5.551.007-10.155-4.567-10.155-10.094 0-5.634 4.537-10.183 10.162-10.183a10.136 10.136 0 0 1 10.149 10.146h-.003zM8.601 20.976c-.033.08.01.131.083.174.08.046.159.113.165.202.015.388.379.535.562.807.08.119.177.274.315.342.269.125.415.357.559.586.113.178.247.309.449.373.357.116.547.47.886.611.006 0 .01.01.012.015.086.169.23.217.41.266.24.067.467.22.663.36.207.15.412.233.647.267.125.018.22.045.284.165.065.119.178.137.306.11.143-.031.29-.04.403.082.101.11.205.153.34.046.048-.04.122-.034.18-.012.21.076.412.162.641.207.239.05.474.11.715.092.205-.015.394.089.593.046a3.878 3.878 0 0 1 1.512-.046c.107.018.19 0 .235-.113.043-.113.144-.144.239-.1.204.09.366.033.534-.086a.687.687 0 0 1 .27-.104c.35-.067.687-.196 1.044-.239.07-.009.14-.015.193-.067.146-.152.354-.198.531-.3.113-.063.193-.198.33-.2.208-.007.336-.13.477-.254.22-.196.406-.447.733-.492a.295.295 0 0 0 .235-.187c.065-.192.196-.324.352-.446.113-.088.207-.198.293-.317.159-.211.474-.27.556-.557.003-.012.037-.015.052-.027.202-.18.443-.327.45-.648 0-.113.06-.201.161-.272.232-.159.407-.394.523-.635.103-.211.24-.437.189-.703-.015-.067.043-.107.098-.143.238-.15.43-.62.363-.896-.046-.192-.018-.357.147-.48a.278.278 0 0 0 .104-.33c-.11-.332.195-.607.116-.931 0-.006.006-.012.01-.018a.176.176 0 0 0 .014-.178c-.06-.137-.024-.262.013-.4.085-.315.186-.62.042-.962-.107-.257-.216-.544-.052-.834.031-.055-.009-.12-.024-.18-.061-.22-.171-.428-.085-.679.036-.107.002-.308-.101-.33-.248-.052-.178-.186-.147-.333.01-.049-.01-.11-.021-.162a2.41 2.41 0 0 0-.395-.834.93.93 0 0 1-.152-.397c-.061-.358-.12-.724-.501-.91-.037-.019-.08-.07-.083-.11-.018-.144-.03-.273-.226-.266-.055 0-.07-.074-.067-.135 0-.04.024-.104-.012-.116-.18-.049-.162-.195-.18-.327a.185.185 0 0 0-.101-.146c-.51-.242-.786-.749-1.213-1.085-.03-.025-.04-.07-.058-.107-.022-.052-.046-.12-.101-.125-.275-.019-.312-.437-.636-.373-.015.003-.055-.043-.064-.073-.067-.187-.22-.239-.391-.248a.372.372 0 0 1-.315-.168c-.036-.052-.085-.098-.146-.11-.34-.064-.556-.345-.85-.486-.213-.104-.449-.247-.666-.232-.223.015-.342-.07-.492-.174a.595.595 0 0 0-.226-.095 8.541 8.541 0 0 0-1.041-.143.739.739 0 0 1-.242-.05c-.339-.146-.72-.124-1.048-.07-.269.046-.504.107-.764.013a.162.162 0 0 0-.1 0c-.294.07-.602.11-.874.229-.272.119-.566-.043-.82.119-.225-.128-.347.034-.46.177-.101.126-.208.171-.358.113-.147-.055-.272-.009-.412.052-.318.135-.483.517-.874.532-.022 0-.046.03-.064.049a.692.692 0 0 1-.324.17c-.184.053-.407.059-.468.31-.006.027-.046.067-.07.067-.226.012-.324.18-.43.342-.065.098-.172.128-.276.17-.195.086-.41.15-.534.346-.14.217-.306.403-.535.532a.478.478 0 0 0-.226.263c-.14.427-.623.647-.678 1.127-.003.034-.052.064-.083.088-.269.205-.385.514-.458.81-.07.287-.257.51-.342.785-.043.138-.174.242-.098.41.027.06-.012.104-.064.134-.043.025-.083.055-.08.11.019.235-.223.419-.131.672.01.022-.034.058-.046.089-.082.21-.208.412-.14.657.009.04.024.1.003.119-.168.174-.01.376-.052.544-.089.348-.034.666.07.996.043.137-.034.305 0 .449.125.568.01 1.17.235 1.723.006.012.01.03.003.04-.073.177.043.3.15.394.098.085.11.165.08.269-.034.122-.022.232.097.308.153.098.205.245.214.422.021.342.131.645.44.843.07.046.128.107.095.217H8.6z" fill="#DE9E30"/><path d="M8.598 20.974c.034-.11-.021-.17-.094-.217-.309-.198-.419-.5-.44-.843-.01-.177-.062-.324-.214-.422-.12-.076-.132-.183-.098-.308.027-.107.015-.184-.08-.27-.106-.094-.223-.216-.15-.393.007-.012 0-.028-.002-.04-.226-.553-.107-1.155-.235-1.723-.031-.144.045-.312 0-.45-.104-.33-.16-.644-.07-.995.042-.168-.117-.37.051-.544.019-.021.006-.08-.003-.12-.067-.244.058-.445.14-.656.013-.03.053-.067.046-.089-.091-.25.147-.437.132-.672-.003-.055.037-.085.08-.11.051-.03.091-.073.063-.134-.076-.168.055-.272.098-.41.086-.275.272-.498.342-.785.074-.296.19-.605.459-.81.033-.024.08-.055.082-.088.055-.48.538-.7.678-1.127a.488.488 0 0 1 .227-.263c.229-.129.397-.312.534-.532.126-.195.34-.26.535-.345.1-.046.208-.076.275-.171.107-.16.201-.33.43-.342.025 0 .065-.04.07-.068.059-.25.282-.256.468-.308a.654.654 0 0 0 .324-.171c.019-.019.043-.05.064-.05.391-.011.553-.396.874-.53.14-.059.266-.108.413-.053.152.058.26.013.357-.113.116-.143.238-.305.461-.177.254-.162.547 0 .82-.12.271-.118.58-.158.873-.228.034-.01.07-.01.1 0 .26.091.499.03.765-.012.327-.055.709-.077 1.048.07.08.033.159.043.241.049.351.021.697.076 1.042.143.08.016.162.05.226.095.15.104.269.192.492.174.217-.015.452.132.666.232.293.14.507.422.85.486.06.012.11.055.146.11.076.11.177.159.315.168.17.01.327.061.39.248.01.03.05.076.065.073.324-.064.36.354.635.373.052.003.077.073.101.125.015.037.028.086.058.107.428.336.703.843 1.213 1.085a.189.189 0 0 1 .1.146c.02.132 0 .278.181.327.037.01.015.077.012.116-.003.058.013.135.068.135.195-.007.21.125.226.265.006.04.046.092.082.11.382.187.44.553.501.91.025.147.07.276.153.398.18.257.32.529.394.834.012.052.03.11.022.162-.031.147-.101.281.146.333.107.022.138.223.101.33-.082.25.024.458.086.678.015.061.055.123.024.18-.165.29-.055.578.052.835.144.342.043.647-.043.962-.037.138-.073.263-.012.4a.176.176 0 0 1-.015.178c-.003.006-.013.012-.01.018.08.324-.226.599-.116.932.04.122.016.244-.104.33-.164.122-.192.287-.146.48.067.274-.125.745-.364.894-.055.037-.113.074-.097.144.054.266-.086.492-.19.703-.119.241-.29.473-.522.635-.101.07-.162.156-.162.272-.006.321-.248.47-.45.648-.015.012-.048.015-.051.027-.083.29-.398.346-.556.557-.089.116-.18.229-.294.317-.152.122-.287.25-.351.446a.291.291 0 0 1-.235.187c-.327.046-.514.296-.733.492-.141.125-.27.247-.477.253-.138.003-.217.138-.33.202-.177.1-.382.15-.532.3-.049.051-.122.057-.192.066-.358.043-.694.172-1.045.239a.704.704 0 0 0-.269.104c-.168.119-.33.18-.535.085-.091-.043-.192-.012-.238.101-.043.113-.128.131-.235.113a3.822 3.822 0 0 0-1.513.046c-.198.046-.39-.061-.592-.046-.242.018-.477-.046-.715-.092-.23-.045-.431-.131-.642-.207-.058-.022-.131-.025-.18.012-.135.107-.238.061-.34-.046-.112-.122-.259-.113-.402-.082-.126.027-.242.012-.306-.11-.064-.12-.159-.15-.284-.165a1.39 1.39 0 0 1-.648-.266c-.195-.14-.421-.294-.663-.36-.177-.05-.324-.098-.41-.267 0-.006-.008-.012-.011-.015-.34-.14-.529-.498-.886-.61-.2-.065-.337-.196-.45-.374-.143-.229-.293-.461-.559-.586-.14-.064-.235-.22-.314-.342-.18-.272-.547-.416-.563-.807-.003-.089-.085-.156-.165-.202-.073-.042-.116-.097-.082-.174h.018zm8.127 2.069c1.238-.003 1.644-.08 2.704-.477.083-.03.171-.061.257-.073a1.12 1.12 0 0 0 .504-.22c.085-.058.18-.098.269-.147.262-.147.553-.275.76-.486.251-.253.544-.464.761-.754.327-.437.792-.752 1.048-1.26.232-.457.477-.928.587-1.41.116-.517.318-1.021.312-1.58-.007-.535.058-1.07-.031-1.601-.095-.569-.193-1.137-.422-1.675-.094-.223-.284-.378-.345-.626a1.886 1.886 0 0 0-.556-.947c-.318-.293-.55-.66-.868-.95-.424-.388-.785-.87-1.405-.987-.052-.01-.098-.049-.147-.073-.232-.129-.452-.309-.702-.38-.337-.094-.673-.2-1.012-.283-.782-.187-1.567-.306-2.361-.068-.028.01-.058.019-.08.013-.36-.126-.696.064-1.017.134-.767.168-1.427.617-2.108 1-.37.207-.618.564-.944.827-.37.296-.64.69-.932 1.06-.26.327-.385.73-.575 1.094-.146.284-.302.602-.342.941-.037.284-.095.565-.14.843-.065.394-.05.78-.065 1.17-.012.276-.06.557-.012.822.064.36.159.722.254 1.079.192.727.623 1.341.971 1.992.19.351.495.593.78.865.4.384.781.776 1.255 1.087.54.36 1.161.523 1.73.807.122.06.256.107.39.125.523.073 1.045.186 1.485.134l-.003.004z" fill="#E2A632"/><path d="M16.725 23.046c-.44.052-.959-.064-1.485-.135a1.271 1.271 0 0 1-.39-.125c-.569-.284-1.19-.446-1.73-.807-.47-.311-.852-.702-1.256-1.087-.284-.272-.59-.514-.779-.865-.351-.65-.779-1.268-.971-1.992a14.848 14.848 0 0 1-.254-1.079c-.049-.262 0-.546.012-.821.016-.388 0-.776.065-1.17.045-.282.107-.563.14-.844.043-.339.196-.654.342-.94.19-.364.312-.768.575-1.095.293-.37.562-.763.931-1.06.327-.262.575-.623.945-.828.68-.382 1.34-.83 2.108-.999.324-.07.66-.256 1.017-.134.025.009.055-.003.08-.012.794-.239 1.576-.12 2.361.067.342.082.675.19 1.012.284.25.07.47.247.702.379.05.027.095.064.147.073.617.116.978.599 1.405.987.318.29.55.657.868.95.275.25.468.584.556.947.061.248.25.404.345.627.232.537.327 1.106.422 1.674.088.531.024 1.07.03 1.6.007.56-.195 1.061-.311 1.58-.107.483-.355.954-.587 1.412-.26.51-.72.822-1.048 1.259-.217.29-.51.498-.76.754-.205.208-.498.336-.761.486-.089.049-.183.089-.27.147a1.134 1.134 0 0 1-.503.22 1.234 1.234 0 0 0-.257.073c-1.06.397-1.466.474-2.704.477l.003-.003zm.333-3.163c2.127-.064 3.725-1.723 3.74-3.892.015-2.17-1.732-3.89-3.935-3.883-2.175.006-3.896 1.851-3.856 3.877.043 2.163 1.644 3.969 4.051 3.895v.003z" fill="#E8B337"/><path d="M17.061 19.884c-2.404.07-4.008-1.733-4.051-3.896-.04-2.026 1.68-3.871 3.856-3.877 2.203-.006 3.953 1.71 3.935 3.883-.015 2.166-1.613 3.828-3.74 3.893v-.003zM15.66 16.04c-.003.587.638 1.262 1.194 1.268.789.01 1.32-.791 1.32-1.265 0-.583-.62-1.31-1.13-1.286-.883.04-1.326.44-1.384 1.283z" fill="#EFC13C"/><path d="M15.659 16.04c.061-.843.501-1.244 1.384-1.283.51-.025 1.134.702 1.13 1.286 0 .474-.534 1.274-1.32 1.265-.559-.006-1.197-.681-1.194-1.268z" fill="#F4D042"/><path d="M16.96 18.712H24.026c.015 0 .029 0 .04.002a8.123 8.123 0 0 0 .456-.92l.066-.157a5.688 5.688 0 0 0 .216-.58v-.002c.039-.112.075-.219.102-.327v-.002c.01-.035.023-.07.034-.097l.007-.02a.275.275 0 0 0 .017-.06.223.223 0 0 1 .02-.119.337.337 0 0 1 .02-.034.211.211 0 0 1 .045-.148l-.001-.006c0-.027.005-.067.031-.109m-8.119 2.58 8.616-4.327-.121-.029c-.021.087-.035.175-.047.256l-.005.033c-.015.093-.03.18-.054.263a2.145 2.145 0 0 0-.058.308v.004a.825.825 0 0 1-.036.168c-.01.034-.02.072-.028.108l-.024.111-.023.11v.002a4.164 4.164 0 0 1-.027.117v.001c-.01.04-.02.083-.028.124v.002l-.005.028c-.012.065-.019.106-.04.141m-8.12 2.58V11.752v6.96zm8.12-2.58.105.067-.106-.066zm-.03.256.088-.015-.01.056-.077-.04zm0 0-.033-.017-.005.008.002.015.037-.006zm-.657-3.4-.053.114a1.79 1.79 0 0 1-.475-.353 4.087 4.087 0 0 1-.607.519h-.001a2.428 2.428 0 0 1-.306.174l-.051.024c-.118.058-.245.12-.376.165h-.002c-.122.04-.247.078-.376.106h-.003l-.07.014a2.425 2.425 0 0 1-.36.054l3.838-.59-.03.001c-.17.01-.343.02-.516-.018m-.613-.21c.028.013.055.027.081.041.055.03.11.059.172.074.05.012.1.026.15.04.069.02.138.04.21.055m-.613-.21-.052.114c.025.011.046.022.07.035l.05.026a.723.723 0 0 0 .155.061c.048.012.095.026.145.04l.03.008c.06.017.123.034.189.048l.026-.122m-.613-.21c-.17-.078-.31-.205-.445-.334a.226.226 0 0 1-.035.046l1.093.498m-1.818-.033c.212-.148.408-.315.588-.502l-.588.502zm0 0zm2.394.178v.004l.125-.008h-.125v.004zm0-.005.02-.002h.009a.692.692 0 0 1 .03-.002h.005-.003a.085.085 0 0 1-.034-.016.095.095 0 0 1-.03-.035.055.055 0 0 1-.003-.008c0-.001 0-.001 0 0a1.525 1.525 0 0 1 .005.062z" fill="#590404" stroke="#000" stroke-width=".25"/><mask id="a" fill="#fff"><path d="M16.834 18.82h7.191c.035 0 .07.004.107.007-.012.095-.01.194-.01.289v1.551c0 .122 0 .243-.056.354a.672.672 0 0 1-.297.309.89.89 0 0 1-.423.082c-.947 0-1.894-.007-2.84 0a16.4 16.4 0 0 0-.698.013c-.032-.03-.073-.017-.11-.017-.894 0-1.788.007-2.68 0-1.122-.01-2.242 0-3.363-.006H10.59c-.035 0-.07.003-.107.006-.092-.016-.187-.003-.278-.01-.05 0-.104 0-.149-.035h6.645c.087 0 .13-.046.13-.138v-2.408l.003.004z"/></mask><path d="M16.834 18.82h7.191c.035 0 .07.004.107.007-.012.095-.01.194-.01.289v1.551c0 .122 0 .243-.056.354a.672.672 0 0 1-.297.309.89.89 0 0 1-.423.082c-.947 0-1.894-.007-2.84 0a16.4 16.4 0 0 0-.698.013c-.032-.03-.073-.017-.11-.017-.894 0-1.788.007-2.68 0-1.122-.01-2.242 0-3.363-.006H10.59c-.035 0-.07.003-.107.006-.092-.016-.187-.003-.278-.01-.05 0-.104 0-.149-.035h6.645c.087 0 .13-.046.13-.138v-2.408l.003.004z" fill="#590404"/><path d="m16.834 18.82-.18.174.074.077h.106v-.25zm7.298.007.248.033.035-.26-.261-.022-.022.25zm-.066 2.194-.223-.113-.001.003.224.11zm-3.56.39v.25h.001l-.002-.25zm-.698.014-.171.183.076.071.105-.004-.01-.25zm-2.79-.017-.003.25.002-.25zm-3.363-.006.002-.25h-.002v.25zm-3.172.006-.045.247.033.005.033-.003-.021-.248zm-.278-.01.018-.249H10.205v.25zm-.149-.035v-.25h-.701l.543.443.158-.193zm6.775-2.546.18-.173-.43-.447v.62h.25zm.003.254H24.025v-.5H16.834v.5zm7.191 0c.022 0 .044.002.086.005l.043-.498c-.034-.003-.08-.007-.129-.007v.5zm-.14-.277c-.016.117-.012.239-.012.322h.5c0-.107-.003-.182.007-.256l-.495-.066zm-.012.322V20.667h.5V19.116h-.5zm0 1.551c0 .132-.004.191-.03.241l.446.227c.088-.174.084-.357.084-.468h-.5zm-.031.244a.422.422 0 0 1-.188.197l.23.444a.921.921 0 0 0 .406-.42l-.448-.221zm-.188.197a.649.649 0 0 1-.308.054v.5c.16 0 .352-.013.539-.11l-.23-.444zm-.308.054c-.944 0-1.894-.007-2.842 0l.003.5c.946-.007 1.89 0 2.84 0v-.5zm-2.84 0c-.237 0-.47.003-.709.013l.021.5c.23-.01.456-.013.687-.013v-.5zm-.528.08a.324.324 0 0 0-.218-.086l-.054.002h-.009v.5l.049-.002h.003a.183.183 0 0 1-.112-.048l.341-.366zm-.28-.084c-.897 0-1.787.007-2.68 0l-.003.5c.895.007 1.791 0 2.682 0v-.5zm-2.679 0c-1.116-.01-2.252 0-3.362-.006l-.003.5c1.13.006 2.236-.003 3.36.006l.005-.5zm-3.364-.006H10.59v.5H13.655v-.5zm-3.065 0c-.048 0-.095.005-.129.007l.043.498c.042-.003.064-.005.086-.005v-.5zm-.063.01a.98.98 0 0 0-.185-.012c-.056 0-.087.002-.12 0l-.035.498c.059.004.122.002.159.002a.51.51 0 0 1 .092.005l.089-.493zm-.322-.013H10.178l-.006-.001.016.005a.109.109 0 0 1 .026.016l-.316.387c.124.101.27.093.307.093v-.5zm-.149.464H10.164v-.5H10.056v.5zm.108 0H16.7v-.5H10.164v.5zm6.537 0a.375.375 0 0 0 .28-.114.393.393 0 0 0 .1-.274h-.5c0 .01-.003-.027.035-.068a.15.15 0 0 1 .078-.044h.007v.5zm.38-.388V18.817h-.5V21.225h.5zm-.43-2.234.003.003.36-.347-.003-.003-.36.347z" fill="#000" mask="url(#a)"/><path d="M25.678 13.077a.325.325 0 0 1 .148-.07v.001l-.148.07zm0 0a.243.243 0 0 0-.048-.002c-.016 0-.037.002-.058.004l-.032.002" fill="#590404" stroke="#000" stroke-width=".25"/><mask id="b" fill="#fff"><path d="M25.09 16.526c-.01-.045.018-.077.037-.113.015.049.012.087-.038.113z"/></mask><path d="M25.09 16.526c-.01-.045.018-.077.037-.113.015.049.012.087-.038.113z" fill="#772A0C"/><path d="m25.09 16.526-.246.05.067.325.293-.153-.115-.222zm.037-.113.238-.076-.183-.568-.277.528.221.116zm.207.063a.163.163 0 0 1-.008.093c-.002.004-.003.004.001-.003l.008-.014a.526.526 0 0 0 .013-.023l-.443-.232v.001l-.002.003-.007.013c-.006.01-.017.028-.027.05a.344.344 0 0 0-.025.213l.49-.101zm-.445.014c.002.007-.011-.026.002-.076a.185.185 0 0 1 .04-.074.152.152 0 0 1 .043-.035l.23.443a.326.326 0 0 0 .16-.411l-.476.153z" fill="#000" mask="url(#b)"/><mask id="c" fill="#fff"><path d="M25.136 16.36c-.006-.036.016-.058.035-.081 0 .032.012.068-.035.08z"/></mask><path d="M25.136 16.36c-.006-.036.016-.058.035-.081 0 .032.012.068-.035.08z" fill="#772A0C"/><path d="m25.136 16.36-.246.043.048.271.265-.073-.067-.241zm.035-.081h.25v-.696l-.443.537.192.159zm.212.038a.182.182 0 0 1-.03.133l.003-.003.007-.009-.385-.318-.019.022a.317.317 0 0 0-.07.26l.494-.085zm-.462-.038v.027l.001.01c0 .006-.001-.012.003-.035a.213.213 0 0 1 .145-.162l.133.482a.286.286 0 0 0 .213-.228c.008-.039.006-.072.005-.083v-.011h-.5z" fill="#000" mask="url(#c)"/><mask id="d" fill="#fff"><path d="M16.831 11.612v7.205H9.703c-.05 0-.098 0-.148.004-.07-.033-.082-.109-.114-.164a8.72 8.72 0 0 1-.366-.732c-.088-.193-.183-.387-.24-.593-.057-.2-.132-.394-.186-.594l-.199-.715c-.073-.262-.13-.528-.186-.79a3.1 3.1 0 0 1-.054-.299c-.013-.105-.044-.206-.066-.311-.02-.095-.025-.19-.044-.286-.023-.114-.038-.233-.057-.35-.022-.155-.032-.309-.067-.46-.018-.075-.009-.157-.015-.24.015-.127.015-.127.135-.091.029.01.06.01.089.01.243.003.483.003.72-.076.198-.065.382-.154.558-.265.133-.086.234-.204.348-.305.243.295.54.528.861.721.168.099.344.18.534.236.035.01.066.036.104.036 0 .017.006.033.019.033.088.01.167.063.259.046.148 0 .293.053.445.053.199 0 .4.013.597-.017.17-.023.344-.036.502-.111.022-.01.047-.007.072-.01.006 0 .016.003.025 0 .127-.03.24-.092.36-.138.006 0 .006-.02.01-.03l.006-.006c.041.013.066-.023.091-.04.07-.042.152-.058.206-.127h.016a.312.312 0 0 0 .129-.085c.133-.08.25-.184.363-.292.139-.138.28-.273.4-.43.096-.125.178-.26.26-.397.094-.164.164-.341.24-.515.01-.02.01-.043.015-.065.05-.007.042-.043.035-.076l.01-.059c.047-.02.034-.062.031-.098 0-.027.003-.05.007-.076.063-.085.11-.03.151.023.025.036.066.036.095.063.158.15.356.232.552.308.199.075.41.111.625.095v.01z"/></mask><path d="M16.831 11.612v7.205H9.703c-.05 0-.098 0-.148.004-.07-.033-.082-.109-.114-.164a8.72 8.72 0 0 1-.366-.732c-.088-.193-.183-.387-.24-.593-.057-.2-.132-.394-.186-.594l-.199-.715c-.073-.262-.13-.528-.186-.79a3.1 3.1 0 0 1-.054-.299c-.013-.105-.044-.206-.066-.311-.02-.095-.025-.19-.044-.286-.023-.114-.038-.233-.057-.35-.022-.155-.032-.309-.067-.46-.018-.075-.009-.157-.015-.24.015-.127.015-.127.135-.091.029.01.06.01.089.01.243.003.483.003.72-.076.198-.065.382-.154.558-.265.133-.086.234-.204.348-.305.243.295.54.528.861.721.168.099.344.18.534.236.035.01.066.036.104.036 0 .017.006.033.019.033.088.01.167.063.259.046.148 0 .293.053.445.053.199 0 .4.013.597-.017.17-.023.344-.036.502-.111.022-.01.047-.007.072-.01.006 0 .016.003.025 0 .127-.03.24-.092.36-.138.006 0 .006-.02.01-.03l.006-.006c.041.013.066-.023.091-.04.07-.042.152-.058.206-.127h.016a.312.312 0 0 0 .129-.085c.133-.08.25-.184.363-.292.139-.138.28-.273.4-.43.096-.125.178-.26.26-.397.094-.164.164-.341.24-.515.01-.02.01-.043.015-.065.05-.007.042-.043.035-.076l.01-.059c.047-.02.034-.062.031-.098 0-.027.003-.05.007-.076.063-.085.11-.03.151.023.025.036.066.036.095.063.158.15.356.232.552.308.199.075.41.111.625.095v.01z" fill="#590404"/><path d="M16.831 18.817v.25h.25v-.25h-.25zm-7.276.004-.107.226.059.027.064-.004-.016-.25zm-.114-.164.218-.123-.001-.002-.217.125zm-.366-.732.228-.103-.228.103zm-.24-.593.241-.067v-.002l-.24.069zm-.186-.594.241-.065v-.002l-.241.067zm-.199-.715-.24.067.24-.067zm-.186-.79.244-.053v-.002l-.244.055zm-.054-.299-.248.03v.001l.248-.03zm-.066-.311-.245.049v.002l.245-.051zm-.044-.286-.246.047v.002l.246-.049zm-.057-.35-.248.035v.004l.248-.04zm-.067-.46.244-.056-.001-.005-.243.061zm-.015-.24-.248-.03-.003.025.001.025.25-.02zm.135-.091.082-.236-.01-.004-.072.24zm.089.01.003-.25h-.003v.25zm.72-.076-.079-.237.079.237zm.558-.265.134.211.002-.001-.136-.21zm.348-.305.193-.16-.166-.2-.194.173.167.187zm.861.721-.128.214.002.002.126-.216zm.534.236-.07.24h.002l.068-.24zm.104.036h.25v-.25h-.25v.25zm.019.033.028-.248-.014-.002h-.014v.25zm.259.046v-.25h-.022l-.022.004.044.246zm1.042.036-.034-.248-.004.001.037.247zm.502-.111-.102-.229-.006.003.108.226zm.072-.01v-.25h-.016l-.016.002.032.248zm.025 0-.057-.244-.012.003-.012.005.081.236zm.36-.138v-.25h-.046l-.043.017.09.233zm.01-.03-.18-.173-.04.042-.018.055.238.077zm.006-.006.076-.238-.148-.047-.108.112.18.173zm.091-.04-.13-.212-.006.003.136.21zm.206-.127v-.25h-.122l-.075.096.197.154zm.016 0v.25h.04l.037-.012-.077-.238zm.129-.085-.128-.216-.029.018-.023.024.18.174zm.363-.292.172.18.004-.003-.176-.177zm.4-.43.2.152-.2-.152zm.26-.397.214.128.002-.003-.216-.125zm.24-.515-.226-.108-.003.008.229.1zm.015-.065-.032-.248-.165.021-.044.16.241.067zm.035-.076-.247-.04-.007.044.009.043.245-.047zm.01-.059-.096-.23-.13.053-.021.138.247.04zm.031-.098h-.25v.01l.001.011.25-.021zm.007-.076-.201-.149-.04.054-.008.065.248.03zm.151.023.205-.143-.008-.01-.197.153zm.095.063.172-.181-.003-.003-.17.183zm.552.308-.09.233h.002l.088-.233zm.625.095h.25v-.27l-.269.02.02.25zm-.25.01V11.799h.5V11.611h-.5zm0 .187V18.818h.5V11.798h-.5zm.25 6.768H16.698v.5H16.832v-.5zm-.132 0H9.703v.5H16.7v-.5zm-6.996 0c-.05 0-.104 0-.164.004l.032.5c.041-.003.08-.004.132-.004v-.5zm-.041.028a.117.117 0 0 1 .035.026l.008.01a.521.521 0 0 1-.013-.03c-.007-.014-.018-.04-.033-.067l-.435.246.002.005a.594.594 0 0 1 .007.016c.006.013.016.038.03.063a.404.404 0 0 0 .185.183l.214-.452zm-.004-.063a8.473 8.473 0 0 1-.355-.71l-.455.207c.114.25.235.506.376.752l.434-.249zm-.356-.71c-.092-.204-.176-.374-.226-.556l-.482.132c.064.231.17.447.254.631l.454-.207zm-.226-.559c-.03-.106-.066-.21-.098-.307a5.035 5.035 0 0 1-.088-.283l-.483.13c.03.108.064.213.097.31.033.101.064.194.09.287l.482-.137zm-.186-.592-.1-.357-.1-.358-.48.134c.032.12.065.239.099.358l.099.357.482-.134zm-.2-.715c-.07-.254-.125-.512-.182-.776l-.489.106c.057.26.115.533.19.804l.482-.134zm-.182-.778a2.85 2.85 0 0 1-.05-.275l-.496.062c.014.112.035.22.058.322l.488-.11zm-.05-.274c-.014-.117-.054-.26-.07-.333l-.489.103c.03.138.052.197.063.29l.496-.06zm-.069-.33a2.006 2.006 0 0 1-.02-.127c-.006-.046-.013-.102-.024-.158l-.49.097c.007.039.012.078.019.127.006.046.013.102.025.159l.49-.098zm-.044-.284c-.021-.11-.035-.216-.055-.343l-.494.079c.017.109.035.239.058.358l.491-.094zm-.055-.34c-.018-.125-.032-.316-.07-.479l-.487.112c.032.139.036.256.062.439l.495-.071zm-.071-.484a.295.295 0 0 1-.005-.061c0-.027 0-.086-.004-.136l-.499.038c.003.032.002.055.003.108 0 .044.003.107.02.173l.485-.122zm-.01-.148.005-.037.001-.01a.217.217 0 0 1-.232.152l.041.012.144-.479c-.023-.007-.062-.019-.097-.025a.296.296 0 0 0-.222.042.3.3 0 0 0-.12.184c-.009.034-.013.074-.016.1l.496.061zm-.194.114c.075.026.15.024.17.024v-.5H8.16h.003l.014.004-.163.472zm.166.024c.24.003.52.005.802-.088l-.157-.475c-.192.064-.392.066-.638.063l-.007.5zm.802-.088c.22-.073.421-.17.614-.292l-.267-.423c-.161.102-.326.181-.504.24l.157.475zm.616-.293c.085-.055.156-.118.217-.175.067-.064.106-.105.161-.154l-.333-.373c-.059.053-.127.122-.172.164a1.01 1.01 0 0 1-.144.117l.27.42zm.019-.356c.265.322.586.572.926.777l.257-.43a3.049 3.049 0 0 1-.797-.665l-.386.318zm.928.778c.18.106.377.197.59.26l.14-.48a2.127 2.127 0 0 1-.477-.211l-.253.43zm.592.26c-.01-.002-.014-.004-.01-.002l.008.003.016.008c.024.011.082.037.158.037v-.5c.02 0 .035.004.044.006l.007.003-.009-.004-.017-.008a.438.438 0 0 0-.061-.023l-.136.48zm-.078-.204a.3.3 0 0 0 .032.137c.027.052.101.146.237.146v-.5c.123 0 .188.086.208.126a.2.2 0 0 1 .023.091h-.5zm.241.282c.016.001.02.005.086.024.051.015.14.038.245.02l-.088-.493c.013-.002.016.003-.017-.007a2.282 2.282 0 0 1-.065-.02.64.64 0 0 0-.105-.021l-.056.497zm.287.047c.048 0 .1.009.177.023.07.012.166.03.268.03v-.5c-.05 0-.103-.009-.18-.023-.07-.012-.165-.03-.265-.03v.5zm.445.053c.177 0 .413.014.634-.02l-.075-.494c-.17.026-.338.014-.56.014v.5zm.63-.019c.148-.02.373-.037.576-.134l-.215-.45c-.113.053-.235.063-.428.088l.067.496zm.57-.13a.174.174 0 0 1-.037.011l-.013.002H13.197a.484.484 0 0 0 .04-.004l-.065-.496c.004 0 .005 0 0 0h-.022a.349.349 0 0 0-.12.03l.203.456zm-.029.01a.21.21 0 0 1-.02 0h-.008a.282.282 0 0 0 .135-.012l-.163-.473a.219.219 0 0 1 .091-.012h.003-.012a.293.293 0 0 0-.026-.002v.5zm.082-.006c.084-.02.16-.049.223-.076.07-.03.114-.05.17-.071l-.18-.467c-.064.024-.137.058-.185.078a.886.886 0 0 1-.142.05l.114.486zm.303-.13a.254.254 0 0 0 .23-.148c.015-.032.02-.062.022-.067l.002-.015v.006c-.002.003-.003.01-.006.02l-.476-.153c-.007.021-.01.04-.01.044l-.001.004a.247.247 0 0 1 .017-.051.246.246 0 0 1 .222-.14v.5zm.01-.28.18.173.002-.002.002-.002.002-.003-.36-.346h-.001l-.002.002-.002.002v.001l-.001.001.18.174zm-.07.231a.303.303 0 0 0 .263-.037c.022-.014.04-.03.046-.034.01-.008.004-.002-.005.003l-.273-.419c-.021.014-.04.03-.043.033l.004-.003a.197.197 0 0 1 .16-.02l-.152.477zm.298-.064c.025-.016.024-.01.09-.044a.517.517 0 0 0 .182-.144l-.395-.307c.007-.008.011-.007-.011.004l-.05.023a.77.77 0 0 0-.077.042l.261.426zm.075-.091H13.918v-.5H13.901v.5zm.093-.012a.56.56 0 0 0 .232-.15l-.36-.347a.126.126 0 0 1-.02.017.029.029 0 0 1-.007.004l.155.476zm.18-.109c.158-.094.292-.216.407-.325l-.345-.362a1.84 1.84 0 0 1-.318.258l.256.43zm.411-.329c.133-.131.29-.28.424-.456l-.398-.303c-.107.14-.233.26-.378.404l.352.355zm.424-.456c.104-.137.192-.282.274-.42l-.429-.256a4.004 4.004 0 0 1-.243.374l.398.302zm.276-.423c.104-.18.182-.378.253-.54l-.458-.2c-.081.186-.142.342-.228.49l.433.25zm.249-.531a.367.367 0 0 0 .032-.107v-.006.005l-.483-.133a.463.463 0 0 0-.008.039l-.002.012-.001.006v-.006a.162.162 0 0 1 .011-.027l.45.217zm-.177.073a.304.304 0 0 0 .15-.061.28.28 0 0 0 .1-.16.317.317 0 0 0 .005-.107l-.007-.042-.491.094.001.008c0-.004-.003-.029.004-.063a.22.22 0 0 1 .078-.123c.041-.032.08-.04.095-.041l.065.495zm.249-.283.005-.03.005-.03-.494-.079-.005.03-.005.03.494.079zm-.141.132a.301.301 0 0 0 .187-.24.367.367 0 0 0-.002-.105v-.006l-.499.043.002.022.001.008c0 .003-.001-.01.002-.03a.199.199 0 0 1 .117-.154l.192.462zm.185-.33c0-.007 0-.013.005-.045l-.497-.06c-.002.021-.008.061-.008.106h.5zm-.043.074s-.004.006-.012.013a.169.169 0 0 1-.046.028.2.2 0 0 1-.188-.018c-.008-.005-.012-.01-.012-.01l.012.015.394-.308c-.01-.012-.029-.037-.052-.06a.359.359 0 0 0-.12-.081.3.3 0 0 0-.23.003.362.362 0 0 0-.147.12l.401.298zm-.254.018c.053.074.12.106.147.118l.008.004a.093.093 0 0 1 .006.003c.003 0 .002 0 0 0a.147.147 0 0 1-.03-.023l.338-.367a.35.35 0 0 0-.078-.054l-.024-.012a.446.446 0 0 1-.007-.003l-.005-.002c-.004-.002.004.001.015.009a.164.164 0 0 1 .04.04l-.41.287zm.127.1c.198.189.442.286.635.36l.18-.466c-.198-.077-.352-.144-.47-.256l-.345.361zm.636.36c.23.088.478.13.733.111l-.038-.498a1.199 1.199 0 0 1-.517-.08l-.178.468zm.464-.138v.01h.5v-.01h-.5z" fill="#000" mask="url(#d)"/><path d="m9.725 12.48-.118.111-.048.046a1.204 1.204 0 0 1-.16.132c-.169.107-.343.19-.53.252l-.002.001c-.213.074-.431.072-.678.069h-.001a.451.451 0 0 1-.048-.003l-.004-.002a.708.708 0 0 0-.08-.023.187.187 0 0 0-.087 0 .267.267 0 0 0-.101-.042c-.345-.084-.63-.28-.875-.555a2.155 2.155 0 0 1-.31-.471 1.728 1.728 0 0 1-.13-.416 10.208 10.208 0 0 0-.024-.104v-.001a1.558 1.558 0 0 1-.026-.408l3.222 1.415zm0 0a.422.422 0 0 1 .07-.076c.014-.014.022-.021.029-.03.2-.269.322-.571.389-.906V10.827m-.488 1.654.488-1.654m.01-.402-.117.04a1.873 1.873 0 0 0-.936-1.051 1.49 1.49 0 0 0-.515-.174c-.331-.035-.645-.024-.946.103-.312.13-.57.326-.789.59v.001c-.121.144-.21.313-.279.5v.002a1.875 1.875 0 0 0-.137.605l.02-.65a1.78 1.78 0 0 1 .3-.537c.23-.279.505-.489.837-.627.328-.137.666-.147 1.007-.111.192.02.378.095.558.187a1.997 1.997 0 0 1 .998 1.121zm0 0 .01.028c.03.082.058.165.067.254m-.076-.283-.118.041.01.027c.028.084.051.151.059.222m.125-.008h-.125a.22.22 0 0 0 0 .008m.125-.008c0 .027.01.053.037.063l-.037-.063zm-.125.008c.001.032.01.075.037.113m-.037-.113.037.113M16.989 11.485h-.033V7.616c.127.004.255.032.39.074h.002c.206.061.392.156.568.283l.002.001a1.825 1.825 0 0 1 .676.95c.081.246.125.489.11.738v.001c-.004.084-.02.159-.04.246l-.027.133a1.997 1.997 0 0 1-.263.615l-.001.002c-.05.078-.109.146-.175.222l-.041.048a.208.208 0 0 0-.029.042.263.263 0 0 0-.067.042l-.003.002a1.583 1.583 0 0 1-.24.183l-.002.001c-.065.041-.13.074-.2.11a6.443 6.443 0 0 0-.102.054h-.002a.419.419 0 0 1-.13.04.784.784 0 0 0-.16.048.435.435 0 0 1-.173.032h-.06zM15.657 11.212c.157.15.356.236.552.308.199.075.41.111.625.095V7.627h-.014a.817.817 0 0 0-.11-.005m-1.053 3.59 1.052-3.59m-1.052 3.59a.164.164 0 0 0-.043-.026c-.019-.01-.038-.018-.052-.037l.095.063zm1.052-3.59a1.568 1.568 0 0 0-.436.09v.001c-.22.07-.421.183-.606.338a2.013 2.013 0 0 0-.556.752c-.086.193-.12.409-.141.639-.02.246.026.488.1.737.072.245.201.46.362.662l.011.013a.572.572 0 0 1 .077.109.23.23 0 0 1 .1.061c.015.015.027.03.037.044l.005.002.004.002a.504.504 0 0 1 .027.014c.014.007.031.018.048.034l.002.001c.138.132.315.21.51.282.148.056.301.088.456.09V7.621z" fill="#590404" stroke="#000" stroke-width=".25"/><mask id="e" fill="#fff"><path d="M13.605 13.393s-.003.026-.01.03c-.12.045-.233.107-.36.137h-.024c.126-.066.255-.128.391-.164l.003-.003z"/></mask><path d="M13.605 13.393s-.003.026-.01.03c-.12.045-.233.107-.36.137h-.024c.126-.066.255-.128.391-.164l.003-.003z" fill="#FEF67F"/><path d="m13.605 13.393.248.03.09-.741-.518.537.18.174zm-.01.03.09.233.013-.006.013-.006-.115-.222zm-.36.137v.25h.03l.028-.007-.057-.243zm-.024 0-.116-.222.116.472v-.25zm.391-.164.064.241.068-.018.048-.05-.18-.173zm.003-.003-.248-.03v-.005l.002-.007a.222.222 0 0 1 .031-.07.244.244 0 0 1 .09-.08l.231.443a.257.257 0 0 0 .12-.134.321.321 0 0 0 .016-.049l.005-.026a.437.437 0 0 0 .001-.01v-.002l-.248-.03zm-.099-.204c-.064.024-.137.057-.185.078a.887.887 0 0 1-.142.05l.114.486c.084-.02.16-.049.223-.076.07-.03.114-.05.17-.071l-.18-.467zm-.27.12H13.21v.5H13.236v-.5zm.09.473a1.71 1.71 0 0 1 .34-.145l-.128-.483a2.197 2.197 0 0 0-.443.184l.23.444zm.456-.213.003-.003-.36-.347-.003.004.36.346z" fill="#000" mask="url(#e)"/><mask id="f" fill="#fff"><path d="M11.594 13.642c-.091.016-.173-.036-.259-.046-.012 0-.019-.02-.019-.033.095.02.193.033.278.079z"/></mask><path d="M11.594 13.642c-.091.016-.173-.036-.259-.046-.012 0-.019-.02-.019-.033.095.02.193.033.278.079z" fill="#FEF67F"/><path d="m11.594 13.642.044.246.706-.126-.631-.34-.119.22zm-.259-.046.029-.248-.014-.002h-.015v.25zm-.019-.033.051-.245-.3-.062v.307h.25zm.234-.167c.013-.002.016.002-.018-.007l-.028-.009-.036-.01a.643.643 0 0 0-.104-.022l-.057.496.023.006.027.008.036.011c.051.015.14.038.245.019l-.088-.492zm-.215-.05c.143 0 .202.11.211.13.016.031.02.061.02.087h-.5c0 .04.008.085.03.13a.266.266 0 0 0 .24.153v-.5zm-.07.462c.121.025.167.03.21.054l.238-.44c-.127-.068-.277-.09-.346-.104l-.102.49z" fill="#000" mask="url(#f)"/><mask id="g" fill="#fff"><path d="M15.4 11.198c0 .036.016.078-.03.097-.016-.042.009-.068.03-.097z"/></mask><path d="M15.4 11.198c0 .036.016.078-.03.097-.016-.042.009-.068.03-.097z" fill="#FEA63B"/><path d="M15.4 11.198h.25v-.75l-.45.6.2.15zm-.03.097-.235.087.09.244.24-.1-.096-.23zm-.22-.097c0 .022.003.047.003.047v-.02a.2.2 0 0 1 .12-.16l.192.461a.3.3 0 0 0 .186-.245c.004-.035.001-.064 0-.075v-.008h-.5zm.454.01a.18.18 0 0 1-.006.138c-.006.013-.012.02-.01.02 0 0 0-.002.003-.005l.01-.013-.4-.3a.459.459 0 0 1-.007.01l-.013.016a.316.316 0 0 0-.046.308l.469-.174z" fill="#000" mask="url(#g)"/><mask id="h" fill="#fff"><path d="M15.356 11.356c.007.032.019.068-.034.074-.003-.032-.006-.064.034-.074z"/></mask><path d="M15.356 11.356c.007.032.019.068-.034.074-.003-.032-.006-.064.034-.074z" fill="#FEA63B"/><path d="m15.356 11.356.246-.047-.05-.257-.254.06.058.244zm-.034.074-.249.024.025.255.254-.03-.03-.249zm-.211-.027.003.015c0 .003 0 .002 0 0a.184.184 0 0 1 .002-.064.222.222 0 0 1 .082-.132.196.196 0 0 1 .094-.04l.06.496a.306.306 0 0 0 .151-.06.278.278 0 0 0 .104-.167.317.317 0 0 0-.003-.133l-.002-.01-.491.095zm.46.003v-.003c0 .005 0 .025-.008.051a.214.214 0 0 1-.148.145l-.117-.486a.287.287 0 0 0-.215.202c-.02.068-.01.137-.01.139l.498-.048z" fill="#000" mask="url(#h)"/><mask id="i" fill="#fff"><path d="M9.558 18.827c.05 0 .098-.003.148-.003h7.128v2.407c0 .092-.043.138-.13.138H10.06c-.016 0-.035 0-.05-.003-.013-.036-.045-.033-.076-.033a.57.57 0 0 1-.332-.331.487.487 0 0 1-.044-.18v-1.995z"/></mask><path d="M9.558 18.827c.05 0 .098-.003.148-.003h7.128v2.407c0 .092-.043.138-.13.138H10.06c-.016 0-.035 0-.05-.003-.013-.036-.045-.033-.076-.033a.57.57 0 0 1-.332-.331.487.487 0 0 1-.044-.18v-1.995z" fill="#590404"/><path d="M9.558 18.827v-.25h-.25v.25h.25zm7.276-.003h.25v-.25h-.25v.25zm-6.825 2.542-.236.082.047.134.138.029.051-.245zm-.075-.033-.088.234.042.016h.046v-.25zm-.332-.331-.232.092.002.005.23-.097zm-.044-1.925c.03 0 .059 0 .082-.002l.066-.001v-.5l-.082.002-.066.001v.5zm.148-.003h6.996v-.5H9.706v.5zm6.996 0H16.835v-.5H16.701v.5zm-.118-.25V21.231h.5V18.824h-.5zm0 2.407c0 .011-.003-.027.036-.068a.15.15 0 0 1 .078-.043h.007v.5a.375.375 0 0 0 .279-.114.393.393 0 0 0 .1-.275h-.5zm.12-.112H10.168v.5H16.705v-.5zm-6.537 0H10.06v.5H10.168v-.5zm-.107 0h-.014.003c.002 0 .006 0 .011.002l-.102.49c.046.01.092.008.102.008v-.5zm.185.164a.297.297 0 0 0-.28-.2h-.031v.5H9.948s-.015 0-.036-.006a.207.207 0 0 1-.139-.129l.472-.165zm-.224-.184a.321.321 0 0 1-.189-.194l-.46.194a.82.82 0 0 0 .474.468l.175-.468zm-.187-.19a.623.623 0 0 1-.021-.06.105.105 0 0 1-.005-.028h-.5c0 .12.04.219.062.273l.464-.184zm-.026-.088V18.827h-.5V20.821h.5z" fill="#000" mask="url(#i)"/><mask id="j" fill="#fff"><path d="M9.933 21.33c.028 0 .06-.004.075.032-.031.003-.06.003-.075-.032z"/></mask><path d="M9.933 21.33c.028 0 .06-.004.075.032-.031.003-.06.003-.075-.032z" fill="#FEA63B"/><path d="M9.933 21.33v-.25h-.382l.153.35.23-.1zm.075.032.026.249.34-.036-.137-.313-.23.1zm-.075.218h.012c.002 0 .002 0 0 0s-.016-.001-.036-.006a.202.202 0 0 1-.13-.112l.458-.2a.304.304 0 0 0-.196-.17.343.343 0 0 0-.078-.012h-.03v.5zm.049-.467h.007a.205.205 0 0 1 .174.116l-.459.2a.3.3 0 0 0 .185.17c.068.021.13.013.145.012l-.052-.498z" fill="#000" mask="url(#j)"/></svg>