<svg width="35" height="35" viewBox="0 0 35 35" fill="none" xmlns="http://www.w3.org/2000/svg">
<path d="M17.9041 34.4299C8.47648 34.4299 0.870329 26.8024 0.910805 17.317C0.947909 7.91242 8.64176 0.396202 18.0019 0.429923C27.3148 0.463643 34.9142 8.08102 34.9108 17.4384C34.9074 26.8294 27.2979 34.4299 17.9041 34.4299ZM5.80505 25.258C5.83541 25.3154 5.85902 25.3761 5.89612 25.43C6.65505 26.5731 7.55902 27.5915 8.61477 28.4615C11.7652 31.0512 15.3878 32.1875 19.4489 31.7627C23.0985 31.3816 26.1612 29.7833 28.637 27.0688C29.7804 25.8144 30.6608 24.3914 31.2983 22.8201C32.1449 20.7362 32.4586 18.5714 32.2967 16.3323C32.1955 14.8891 31.8785 13.4965 31.3489 12.1544C30.3707 9.66924 28.8056 7.62242 26.7043 5.98025C26.34 5.69701 25.9757 5.40701 25.5473 5.21818C25.4731 5.16086 25.4056 5.09342 25.3247 5.04621C24.8592 4.78656 24.3904 4.52355 23.9013 4.30099C21.3614 3.15451 18.7068 2.75324 15.9511 3.13765C12.5106 3.61985 9.60644 5.15074 7.2487 7.7101C6.20981 8.83635 5.38342 10.1042 4.75267 11.5002C3.74414 13.7359 3.33938 16.0828 3.51815 18.5241C3.6362 20.1225 4.01061 21.6669 4.65485 23.1438C4.97866 23.8823 5.32946 24.6039 5.80842 25.2547L5.80505 25.258Z" fill="#383331"/>
<path d="M5.80882 25.2583C5.32648 24.6075 4.97569 23.8859 4.65525 23.1474C4.011 21.6738 3.6366 20.1294 3.51854 18.5277C3.33977 16.0864 3.74453 13.7395 4.75307 11.5038C5.38382 10.1044 6.21021 8.83993 7.2491 7.71368C9.60684 5.15432 12.5076 3.62343 15.9515 3.14123C18.7106 2.75682 21.3618 3.15809 23.9017 4.30458C24.3908 4.52713 24.8562 4.79014 25.3251 5.04979C25.406 5.09363 25.4735 5.16444 25.5477 5.22176C25.9019 5.86919 26.2695 6.5065 26.5562 7.19102C26.7384 7.62938 26.9374 8.06774 27.0285 8.53982C26.934 8.44878 26.8396 8.36111 26.7451 8.27006C25.7872 7.32927 24.7112 6.54696 23.507 5.95012C21.1223 4.76991 18.6027 4.35178 15.9683 4.74294C12.4166 5.27234 9.56973 7.0123 7.4616 9.91223C5.6233 12.4446 4.86438 15.2973 5.10723 18.4131C5.25565 20.3081 5.82231 22.0717 6.77013 23.7172C6.97588 24.0747 7.17489 24.4389 7.4616 24.739C7.47509 24.7525 7.49195 24.7659 7.50545 24.7794L7.51219 24.7963L7.50207 24.7794C7.50207 24.7794 7.47509 24.7491 7.4616 24.7356C7.44136 24.5737 7.34692 24.4389 7.27945 24.2972C6.02469 21.6772 5.69751 18.9357 6.29116 16.0999C6.89156 13.2337 8.33521 10.853 10.5884 8.98156C13.2666 6.75266 16.3697 5.79838 19.8338 6.06139C21.689 6.20302 23.4295 6.74928 25.0418 7.67996C25.8513 8.14867 26.6304 8.66459 27.2916 9.33562C27.3017 9.3862 27.3084 9.43341 27.3219 9.48399C27.7064 11.0385 27.811 12.6132 27.6693 14.2082C27.5614 15.439 27.2916 16.6394 26.8666 17.8027C26.2291 19.5528 25.2914 21.1275 24.0467 22.5067C22.7886 23.8993 21.3213 25.029 19.6179 25.8551C17.0646 27.096 14.3763 27.5276 11.5666 27.2107C9.59672 26.9881 7.75505 26.3643 6.04156 25.3628C5.96735 25.319 5.88303 25.292 5.80207 25.2583H5.80882Z" fill="#4C4644"/>
<path d="M27.0284 8.53309C26.9374 8.06101 26.7417 7.62602 26.5562 7.18428C26.2695 6.50314 25.9018 5.86245 25.5477 5.21503C25.9761 5.40386 26.3403 5.69385 26.7046 5.9771C28.806 7.6159 30.3711 9.66271 31.3493 12.1513C31.8788 13.4933 32.1959 14.886 32.2971 16.3292C32.459 18.5716 32.1453 20.7364 31.2987 22.8169C30.6612 24.3883 29.7808 25.8079 28.6374 27.0657C26.1649 29.7835 23.0989 31.3785 19.4493 31.7595C15.3882 32.1844 11.7689 31.048 8.61514 28.4583C7.55939 27.5917 6.65542 26.57 5.89649 25.4269C5.85939 25.3729 5.83578 25.3122 5.80542 25.2549C5.88637 25.2886 5.9707 25.3156 6.0449 25.3594C7.75502 26.3643 9.60006 26.9847 11.5699 27.2073C14.3796 27.5276 17.0679 27.0926 19.6213 25.8517C21.3213 25.0256 22.7886 23.8993 24.0501 22.5033C25.2947 21.1242 26.2324 19.5494 26.8699 17.7994C27.2949 16.6327 27.5647 15.4356 27.6727 14.2048C27.8143 12.6132 27.7098 11.0351 27.3253 9.48062C27.3118 9.43341 27.305 9.38283 27.2949 9.33225C27.6018 9.54469 27.8312 9.83468 28.0977 10.091C28.2326 10.2191 28.3203 10.3978 28.4957 10.4821C28.5126 10.5327 28.5395 10.5765 28.5901 10.6035C28.5935 10.6069 28.6003 10.6102 28.6036 10.6136C28.6003 10.6102 28.5969 10.6035 28.5935 10.6001C28.5665 10.5563 28.5395 10.5091 28.5126 10.4653C28.4653 10.3843 28.4215 10.3 28.3709 10.2225C27.9796 9.61213 27.5074 9.06924 27.0284 8.52634V8.53309Z" fill="#5E5756"/>
<path d="M27.0284 8.5331C27.5074 9.07599 27.9796 9.62226 28.3709 10.2292C28.4215 10.3101 28.4653 10.3911 28.5125 10.472C28.5058 10.4788 28.499 10.4821 28.4957 10.4889C28.3203 10.4012 28.2292 10.2258 28.0977 10.0977C27.8312 9.84144 27.6052 9.54807 27.2949 9.33901C26.6338 8.66798 25.8546 8.15206 25.0451 7.68335C23.4328 6.7493 21.6889 6.20304 19.8371 6.06479C16.3697 5.80514 13.2665 6.75605 10.5917 8.98495C8.3419 10.8564 6.89488 13.2371 6.29448 16.1033C5.70083 18.9391 6.02464 21.6772 7.28278 24.3006C7.35024 24.4423 7.44468 24.5771 7.46492 24.739C7.17821 24.4389 6.97921 24.0713 6.77345 23.7173C5.82563 22.0751 5.25897 20.3082 5.11055 18.4131C4.8677 15.294 5.62325 12.4413 7.46492 9.91225C9.56968 7.01232 12.4199 5.27236 15.9717 4.74296C18.606 4.3518 21.1256 4.76656 23.5104 5.95014C24.7145 6.54698 25.7905 7.32592 26.7484 8.27008C26.8429 8.36113 26.9373 8.4488 27.0318 8.53984V8.5331H27.0284Z" fill="#5E5756"/>
<path d="M8.04517 23.9533L8.05529 23.9668L8.04517 23.95V23.9533Z" fill="#B69942"/>
<path d="M8.00118 23.9027C8.00118 23.9027 8.03153 23.9364 8.04502 23.9499C8.04502 23.9499 8.01129 23.9196 7.9978 23.9061V23.9027H8.00118Z" fill="#B69942"/>
<path d="M28.8034 13.7765C28.0444 14.2688 27.7206 15.0342 27.4609 15.857C27.154 16.8214 26.8504 17.7824 26.4861 18.7266C25.9599 20.0821 25.5855 21.4545 25.7575 22.9281C25.8317 23.5924 25.653 23.9094 24.8839 23.9026C20.246 23.8723 15.6115 23.879 10.9736 23.8993C10.326 23.8993 10.0393 23.7104 10.1 23.0326C10.3766 20.0282 8.73729 17.5025 7.99859 14.7544C7.90415 14.4003 7.5601 14.3329 7.37121 14.0968C6.94284 13.564 6.90574 13.0211 7.38808 12.5221C7.81308 12.0803 8.34602 11.9792 8.86209 12.3602C9.40177 12.7581 9.55018 13.2842 9.21288 13.8979C8.76764 14.7139 9.16228 15.7862 10.1674 16.5078C11.068 17.1552 11.692 16.6831 12.252 15.9919C12.9198 15.1624 13.3043 14.1879 13.7024 13.2133C13.8407 12.8761 13.7867 12.6603 13.5843 12.3771C13.1661 11.787 13.2065 11.1935 13.8036 10.7383C14.3061 10.3539 14.8391 10.4078 15.2776 10.8563C15.8004 11.3925 15.7936 11.9792 15.254 12.4951C15.0077 12.7311 14.8357 12.9031 15.0043 13.2707C15.4968 14.3295 15.969 15.4018 16.8258 16.2279C17.6555 17.0271 18.2661 17.017 19.0149 16.1841C19.7839 15.3276 20.1381 14.2486 20.5631 13.2066C20.7284 12.7986 20.4045 12.6704 20.2123 12.4445C19.7738 11.9252 19.7637 11.3621 20.2325 10.8698C20.6575 10.4213 21.1905 10.3438 21.7065 10.7214C22.3069 11.1632 22.452 11.7769 21.9696 12.3332C21.6087 12.7514 21.6998 13.0818 21.8684 13.4696C22.2867 14.434 22.7016 15.4052 23.4369 16.1807C24.2565 17.044 25.0593 17.1114 25.8385 16.2313C26.449 15.5434 27.5958 14.9331 26.5738 13.6618C26.2331 13.2369 26.5333 12.6772 27.0055 12.3602C27.7813 11.8376 28.3042 12.313 28.8101 12.8424V13.7765H28.8034ZM21.1601 13.8372C20.7351 14.6296 20.3776 15.4524 19.8851 16.1875C18.7282 17.9072 17.3317 17.9443 15.9893 16.3594C15.3315 15.5839 14.8829 14.6633 14.3905 13.6888C12.0732 17.7824 11.9619 17.86 9.53669 17.1451C9.85375 18.0454 10.1978 18.9323 10.4778 19.8393C10.6295 20.3317 10.8825 20.5104 11.3952 20.507C15.7599 20.4901 20.1178 20.4969 24.4825 20.4969C24.7928 20.4969 25.147 20.5441 25.2651 20.1529C25.5619 19.1413 26.1049 18.1972 26.1758 17.0608C23.9159 18.0454 23.4065 17.7082 21.1668 13.8372H21.1601ZM17.9085 23.1743C20.0099 23.1743 22.1147 23.1338 24.2161 23.1945C25.0323 23.2181 25.0863 22.8438 25.0593 22.22C25.0357 21.6602 25.1335 21.1915 24.2565 21.2016C20.0504 21.2455 15.8442 21.2455 11.6381 21.2016C10.8252 21.1915 10.8016 21.5557 10.7847 22.1762C10.7678 22.8708 10.8724 23.2215 11.7123 23.1945C13.7732 23.1304 15.8409 23.1743 17.9051 23.1743H17.9085Z" fill="#16120B"/>
<path d="M21.1634 13.8304C23.3997 17.7015 23.9124 18.0387 26.1723 17.0541C26.1015 18.1904 25.5584 19.138 25.2616 20.1462C25.1469 20.5374 24.7894 20.4902 24.479 20.4902C20.1144 20.4902 15.7564 20.4834 11.3917 20.5003C10.879 20.5003 10.6261 20.3249 10.4743 19.8326C10.1943 18.9255 9.85027 18.0387 9.5332 17.1384C11.9584 17.8532 12.0697 17.7757 14.387 13.6821C14.8794 14.66 15.328 15.5738 15.9858 16.3527C17.3282 17.9375 18.7247 17.9005 19.8816 16.1807C20.3774 15.4456 20.735 14.6195 21.1566 13.8304H21.1634Z" fill="#F5D336"/>
<path d="M17.9086 23.1675C15.8443 23.1675 13.7767 23.1237 11.7158 23.1878C10.8792 23.2147 10.7747 22.8674 10.7882 22.1694C10.8017 21.5456 10.8253 21.1848 11.6415 21.1949C15.8477 21.2387 20.0538 21.2387 24.26 21.1949C25.137 21.1848 25.0392 21.6501 25.0628 22.2133C25.0898 22.8371 25.0358 23.2114 24.2195 23.1878C22.1181 23.1271 20.0134 23.1675 17.912 23.1675H17.9086Z" fill="#FBAC3A"/>
</svg>
