<svg width="36" height="36" viewBox="0 0 36 36" fill="none" xmlns="http://www.w3.org/2000/svg">
<path d="M17.8555 35.3171C8.4279 35.3171 0.821745 27.6896 0.862221 18.2041C0.899325 8.79956 8.59317 1.28335 17.9533 1.31707C27.2662 1.35079 34.8656 8.96816 34.8622 18.3255C34.8588 27.7166 27.2493 35.3171 17.8555 35.3171ZM5.75647 26.1452C5.78682 26.2025 5.81044 26.2632 5.84754 26.3172C6.60647 27.4603 7.51044 28.4786 8.56619 29.3486C11.7166 31.9383 15.3392 33.0747 19.4003 32.6498C23.0499 32.2688 26.1126 30.6704 28.5884 27.956C29.7319 26.7016 30.6122 25.2786 31.2497 23.7072C32.0963 21.6233 32.41 19.4585 32.2481 17.2195C32.1469 15.7763 31.8299 14.3836 31.3003 13.0416C30.3221 10.5564 28.7571 8.50957 26.6557 6.8674C26.2914 6.58415 25.9271 6.29416 25.4987 6.10533C25.4245 6.048 25.3571 5.98056 25.2761 5.93335C24.8106 5.67371 24.3418 5.41069 23.8527 5.18814C21.3128 4.04165 18.6583 3.64038 15.9025 4.02479C12.462 4.50699 9.55786 6.03789 7.20012 8.59724C6.16123 9.7235 5.33484 10.9914 4.70409 12.3874C3.69555 14.623 3.29079 16.97 3.46956 19.4113C3.58762 21.0096 3.96202 22.554 4.60627 24.0309C4.93008 24.7694 5.28087 25.491 5.75984 26.1418L5.75647 26.1452Z" fill="#383331"/>
<path d="M5.76024 26.1454C5.27789 25.4946 4.9271 24.773 4.60666 24.0345C3.96242 22.561 3.58801 21.0166 3.46996 19.4149C3.29119 16.9735 3.69595 14.6266 4.70448 12.391C5.33524 10.9916 6.16163 9.72708 7.20051 8.60083C9.55825 6.04147 12.459 4.51057 15.9029 4.02838C18.662 3.64397 21.3132 4.04524 23.8531 5.19172C24.3422 5.41427 24.8077 5.67729 25.2765 5.93694C25.3575 5.98077 25.4249 6.05158 25.4991 6.10891C25.8533 6.75633 26.2209 7.39364 26.5077 8.07816C26.6898 8.51652 26.8888 8.95489 26.9799 9.42697C26.8854 9.33592 26.791 9.24825 26.6965 9.15721C25.7386 8.21642 24.6626 7.43411 23.4585 6.83726C21.0737 5.65706 18.5541 5.23893 15.9198 5.63008C12.368 6.15949 9.52115 7.89945 7.41301 10.7994C5.57472 13.3318 4.81579 16.1845 5.05865 19.3002C5.20706 21.1953 5.77373 22.9589 6.72155 24.6044C6.9273 24.9618 7.12631 25.326 7.41301 25.6261C7.42651 25.6396 7.44337 25.6531 7.45686 25.6666L7.46361 25.6834L7.45349 25.6666C7.45349 25.6666 7.42651 25.6362 7.41301 25.6227C7.39278 25.4609 7.29833 25.326 7.23087 25.1844C5.97611 22.5643 5.64893 19.8229 6.24258 16.987C6.84297 14.1208 8.28663 11.7402 10.5398 9.8687C13.218 7.6398 16.3211 6.68552 19.7852 6.94854C21.6404 7.09016 23.3809 7.63643 24.9932 8.56711C25.8027 9.03581 26.5819 9.55173 27.243 10.2228C27.2531 10.2733 27.2598 10.3206 27.2733 10.3711C27.6579 11.9256 27.7624 13.5004 27.6208 15.0953C27.5128 16.3261 27.243 17.5265 26.818 18.6899C26.1805 20.44 25.2428 22.0147 23.9981 23.3938C22.74 24.7865 21.2727 25.9161 19.5694 26.7423C17.016 27.9832 14.3277 28.4148 11.518 28.0978C9.54813 27.8752 7.70647 27.2514 5.99297 26.2499C5.91877 26.2061 5.83444 26.1791 5.75349 26.1454H5.76024Z" fill="#4C4644"/>
<path d="M26.9799 9.42023C26.8888 8.94815 26.6931 8.51316 26.5076 8.07143C26.2209 7.39028 25.8533 6.7496 25.4991 6.10217C25.9275 6.29101 26.2918 6.581 26.656 6.86425C28.7574 8.50305 30.3225 10.5499 31.3007 13.0384C31.8302 14.3805 32.1473 15.7731 32.2485 17.2163C32.4104 19.4587 32.0967 21.6235 31.2501 23.7041C30.6126 25.2754 29.7322 26.695 28.5888 27.9528C26.1164 30.6707 23.0503 32.2656 19.4007 32.6467C15.3396 33.0715 11.7203 31.9352 8.56656 29.3455C7.5108 28.4788 6.60684 27.4571 5.84791 26.314C5.8108 26.2601 5.78719 26.1994 5.75684 26.142C5.83779 26.1758 5.92211 26.2027 5.99632 26.2466C7.70644 27.2514 9.55148 27.8719 11.5213 28.0944C14.331 28.4148 17.0193 27.9798 19.5727 26.7389C21.2727 25.9127 22.74 24.7865 24.0015 23.3905C25.2461 22.0113 26.1838 20.4366 26.8213 18.6865C27.2463 17.5198 27.5162 16.3227 27.6241 15.092C27.7658 13.5004 27.6612 11.9223 27.2767 10.3678C27.2632 10.3206 27.2564 10.27 27.2463 10.2194C27.5533 10.4318 27.7826 10.7218 28.0491 10.9781C28.184 11.1062 28.2717 11.285 28.4471 11.3693C28.464 11.4198 28.491 11.4637 28.5416 11.4906C28.5449 11.494 28.5517 11.4974 28.555 11.5008C28.5517 11.4974 28.5483 11.4906 28.5449 11.4873C28.5179 11.4434 28.491 11.3962 28.464 11.3524C28.4168 11.2715 28.3729 11.1872 28.3223 11.1096C27.931 10.4993 27.4588 9.95638 26.9799 9.41349V9.42023Z" fill="#5E5756"/>
<path d="M26.9798 9.42025C27.4588 9.96314 27.931 10.5094 28.3223 11.1164C28.3729 11.1973 28.4167 11.2782 28.464 11.3592C28.4572 11.3659 28.4505 11.3693 28.4471 11.376C28.2717 11.2883 28.1806 11.113 28.0491 10.9849C27.7826 10.7286 27.5566 10.4352 27.2463 10.2262C26.5852 9.55513 25.806 9.03921 24.9965 8.5705C23.3842 7.63645 21.6403 7.09018 19.7886 6.95193C16.3211 6.69229 13.2179 7.64319 10.5431 9.8721C8.29332 11.7436 6.8463 14.1242 6.2459 16.9904C5.65225 19.8263 5.97606 22.5643 7.23419 25.1878C7.30165 25.3294 7.3961 25.4643 7.41634 25.6261C7.12963 25.326 6.93062 24.9585 6.72487 24.6044C5.77705 22.9622 5.21038 21.1953 5.06197 19.3002C4.81911 16.1811 5.57467 13.3284 7.41634 10.7994C9.5211 7.89947 12.3713 6.15951 15.9231 5.6301C18.5574 5.23895 21.0771 5.65371 23.4618 6.83728C24.6659 7.43413 25.7419 8.21306 26.6999 9.15723C26.7943 9.24827 26.8888 9.33594 26.9832 9.42699V9.42025H26.9798Z" fill="#5E5756"/>
<path d="M7.99658 24.8405L8.0067 24.854L7.99658 24.8371V24.8405Z" fill="#B69942"/>
<path d="M7.95259 24.7899C7.95259 24.7899 7.98295 24.8236 7.99644 24.8371C7.99644 24.8371 7.96271 24.8067 7.94922 24.7932V24.7899H7.95259Z" fill="#B69942"/>
<path d="M28.7548 14.6636C27.9958 15.1559 27.672 15.9214 27.4123 16.7441C27.1054 17.7085 26.8018 18.6696 26.4375 19.6137C25.9113 20.9693 25.5369 22.3417 25.7089 23.8153C25.7831 24.4795 25.6044 24.7965 24.8353 24.7898C20.1974 24.7594 15.5629 24.7662 10.925 24.7864C10.2774 24.7864 9.99068 24.5976 10.0514 23.9198C10.328 20.9153 8.6887 18.3897 7.95001 15.6415C7.85557 15.2874 7.51152 15.22 7.32263 14.984C6.89426 14.4512 6.85715 13.9083 7.33949 13.4092C7.76449 12.9675 8.29743 12.8663 8.8135 13.2474C9.35318 13.6453 9.5016 14.1713 9.1643 14.785C8.71906 15.601 9.1137 16.6733 10.1189 17.3949C11.0195 18.0424 11.6435 17.5703 12.2034 16.879C12.8712 16.0495 13.2558 15.075 13.6538 14.1005C13.7921 13.7633 13.7381 13.5475 13.5357 13.2642C13.1175 12.6741 13.1579 12.0807 13.755 11.6254C14.2575 11.241 14.7905 11.295 15.229 11.7435C15.7518 12.2796 15.745 12.8663 15.2054 13.3823C14.9591 13.6183 14.7871 13.7903 14.9558 14.1578C15.4482 15.2166 15.9204 16.2889 16.7772 17.1151C17.607 17.9142 18.2175 17.9041 18.9663 17.0712C19.7353 16.2147 20.0895 15.1357 20.5145 14.0937C20.6798 13.6857 20.356 13.5576 20.1637 13.3317C19.7252 12.8124 19.7151 12.2493 20.1839 11.7569C20.6089 11.3085 21.1419 11.2309 21.6579 11.6086C22.2583 12.0503 22.4034 12.664 21.921 13.2204C21.5601 13.6385 21.6512 13.969 21.8199 14.3568C22.2381 15.3212 22.653 16.2923 23.3883 17.0679C24.2079 17.9311 25.0107 17.9985 25.7899 17.1184C26.4004 16.4305 27.5472 15.8202 26.5252 14.549C26.1845 14.1241 26.4847 13.5643 26.957 13.2474C27.7327 12.7247 28.2556 13.2002 28.7615 13.7296V14.6636H28.7548ZM21.1115 14.7243C20.6865 15.5167 20.329 16.3395 19.8365 17.0746C18.6796 18.7943 17.2831 18.8314 15.9407 17.2466C15.2829 16.471 14.8343 15.5505 14.3419 14.5759C12.0246 18.6696 11.9133 18.7471 9.48811 18.0323C9.80517 18.9326 10.1492 19.8194 10.4292 20.7265C10.581 21.2188 10.8339 21.3975 11.3466 21.3942C15.7113 21.3773 20.0693 21.384 24.4339 21.384C24.7443 21.384 25.0984 21.4312 25.2165 21.0401C25.5133 20.0285 26.0564 19.0843 26.1272 17.948C23.8673 18.9326 23.3579 18.5954 21.1183 14.7243H21.1115ZM17.8599 24.0614C19.9613 24.0614 22.0661 24.021 24.1675 24.0816C24.9837 24.1053 25.0377 23.731 25.0107 23.1071C24.9871 22.5474 25.0849 22.0787 24.2079 22.0888C20.0018 22.1326 15.7956 22.1326 11.5895 22.0888C10.7766 22.0787 10.753 22.4428 10.7361 23.0633C10.7193 23.7579 10.8238 24.1086 11.6637 24.0816C13.7246 24.0176 15.7923 24.0614 17.8566 24.0614H17.8599Z" fill="#16120B"/>
<path d="M21.1148 14.7176C23.3511 18.5887 23.8638 18.9259 26.1237 17.9412C26.0529 19.0776 25.5098 20.0251 25.213 21.0334C25.0983 21.4245 24.7408 21.3773 24.4305 21.3773C20.0658 21.3773 15.7078 21.3706 11.3432 21.3874C10.8305 21.3874 10.5775 21.2121 10.4257 20.7198C10.1457 19.8127 9.80168 18.9259 9.48462 18.0255C11.9098 18.7404 12.0211 18.6628 14.3384 14.5692C14.8308 15.5471 15.2795 16.4609 15.9372 17.2398C17.2797 18.8247 18.6761 18.7876 19.833 17.0679C20.3289 16.3328 20.6864 15.5066 21.108 14.7176H21.1148Z" fill="#F5D336"/>
<path d="M17.86 24.0547C15.7957 24.0547 13.7281 24.0108 11.6672 24.0749C10.8307 24.1019 10.7261 23.7546 10.7396 23.0566C10.7531 22.4327 10.7767 22.0719 11.593 22.0821C15.7991 22.1259 20.0053 22.1259 24.2114 22.0821C25.0884 22.0719 24.9906 22.5373 25.0142 23.1004C25.0412 23.7242 24.9872 24.0985 24.1709 24.0749C22.0695 24.0142 19.9648 24.0547 17.8634 24.0547H17.86Z" fill="#FBAC3A"/>
<path d="M17.8463 34.1423C26.6507 34.1423 33.7881 27.005 33.7881 18.2006C33.7881 9.39621 26.6507 2.25885 17.8463 2.25885C9.04192 2.25885 1.90454 9.39621 1.90454 18.2006C1.90454 27.005 9.04192 34.1423 17.8463 34.1423Z" stroke="#14E8C5" stroke-width="3" stroke-miterlimit="10"/>
</svg>
