<svg width="35" height="35" viewBox="0 0 35 35" fill="none" xmlns="http://www.w3.org/2000/svg">
<path d="M17.1287 34.38C7.70109 34.38 0.0949385 26.7525 0.135415 17.267C0.172518 7.86249 7.86637 0.346276 17.2265 0.379996C26.5394 0.413716 34.1388 8.03109 34.1354 17.3884C34.132 26.7795 26.5225 34.38 17.1287 34.38ZM5.02966 25.2081C5.06002 25.2654 5.08363 25.3261 5.12073 25.3801C5.87966 26.5232 6.78363 27.5416 7.83938 28.4115C10.9898 31.0012 14.6124 32.1376 18.6735 31.7127C22.3231 31.3317 25.3858 29.7334 27.8616 27.0189C29.0051 25.7645 29.8854 24.3415 30.5229 22.7702C31.3695 20.6863 31.6832 18.5214 31.5213 16.2824C31.4201 14.8392 31.1031 13.4465 30.5735 12.1045C29.5953 9.61931 28.0303 7.5725 25.9289 5.93033C25.5646 5.64708 25.2003 5.35709 24.7719 5.16825C24.6977 5.11093 24.6303 5.04349 24.5493 4.99628C24.0838 4.73664 23.615 4.47362 23.1259 4.25107C20.586 3.10458 17.9314 2.70331 15.1757 3.08772C11.7352 3.56992 8.83105 5.10081 6.47331 7.66017C5.43442 8.78642 4.60803 10.0543 3.97728 11.4503C2.96875 13.686 2.56399 16.0329 2.74276 18.4742C2.86081 20.0725 3.23522 21.6169 3.87946 23.0939C4.20327 23.8323 4.55407 24.554 5.03303 25.2048L5.02966 25.2081Z" fill="#14e8c5"/>
<path d="M5.03343 25.2083C4.55109 24.5575 4.20029 23.8359 3.87986 23.0975C3.23561 21.6239 2.86121 20.0795 2.74315 18.4778C2.56438 16.0365 2.96914 13.6895 3.97768 11.4539C4.60843 10.0545 5.43482 8.79 6.47371 7.66375C8.83145 5.1044 11.7322 3.5735 15.1761 3.0913C17.9352 2.70689 20.5864 3.10816 23.1263 4.25465C23.6154 4.4772 24.0808 4.74022 24.5497 4.99986C24.6307 5.0437 24.6981 5.11451 24.7723 5.17184C25.1265 5.81926 25.4941 6.45657 25.7808 7.14109C25.963 7.57945 26.162 8.01781 26.2531 8.4899C26.1586 8.39885 26.0642 8.31118 25.9697 8.22013C25.0118 7.27934 23.9358 6.49704 22.7316 5.90019C20.3469 4.71999 17.8273 4.30186 15.193 4.69301C11.6412 5.22242 8.79434 6.96237 6.68621 9.8623C4.84791 12.3947 4.08898 15.2474 4.33184 18.3631C4.48025 20.2582 5.04692 22.0218 5.99474 23.6673C6.20049 24.0248 6.3995 24.3889 6.68621 24.689C6.6997 24.7025 6.71656 24.716 6.73006 24.7295L6.7368 24.7464L6.72668 24.7295C6.72668 24.7295 6.6997 24.6992 6.68621 24.6857C6.66597 24.5238 6.57152 24.3889 6.50406 24.2473C5.2493 21.6273 4.92212 18.8858 5.51577 16.0499C6.11617 13.1837 7.55982 10.8031 9.81299 8.93163C12.4912 6.70273 15.5943 5.74845 19.0584 6.01147C20.9136 6.15309 22.6541 6.69936 24.2664 7.63003C25.0759 8.09874 25.8551 8.61466 26.5162 9.28569C26.5263 9.33627 26.533 9.38348 26.5465 9.43406C26.931 10.9886 27.0356 12.5633 26.8939 14.1582C26.786 15.389 26.5162 16.5895 26.0912 17.7528C25.4537 19.5029 24.516 21.0776 23.2713 22.4568C22.0132 23.8494 20.5459 24.979 18.8426 25.8052C16.2892 27.0461 13.6009 27.4777 10.7912 27.1607C8.82133 26.9382 6.97966 26.3144 5.26617 25.3129C5.19196 25.269 5.10764 25.2421 5.02668 25.2083H5.03343Z" fill="#4C4644"/>
<path d="M26.253 8.48316C26.162 8.01108 25.9663 7.57609 25.7808 7.13436C25.4941 6.45321 25.1265 5.81253 24.7723 5.1651C25.2007 5.35393 25.5649 5.64393 25.9292 5.92718C28.0306 7.56597 29.5957 9.61278 30.5739 12.1013C31.1034 13.4434 31.4205 14.836 31.5217 16.2793C31.6836 18.5216 31.3699 20.6865 30.5233 22.767C29.8858 24.3384 29.0054 25.758 27.862 27.0157C25.3896 29.7336 22.3235 31.3285 18.6739 31.7096C14.6128 32.1345 10.9935 30.9981 7.83975 28.4084C6.784 27.5418 5.88003 26.5201 5.1211 25.3769C5.084 25.323 5.06039 25.2623 5.03003 25.205C5.11098 25.2387 5.19531 25.2657 5.26951 25.3095C6.97963 26.3144 8.82467 26.9348 10.7945 27.1574C13.6042 27.4777 16.2925 27.0427 18.8459 25.8018C20.5459 24.9757 22.0132 23.8494 23.2747 22.4534C24.5193 21.0743 25.457 19.4995 26.0945 17.7494C26.5195 16.5827 26.7894 15.3857 26.8973 14.1549C27.039 12.5633 26.9344 10.9852 26.5499 9.4307C26.5364 9.38349 26.5296 9.33291 26.5195 9.28233C26.8265 9.49476 27.0558 9.78476 27.3223 10.041C27.4572 10.1692 27.5449 10.3479 27.7203 10.4322C27.7372 10.4828 27.7642 10.5266 27.8147 10.5536C27.8181 10.5569 27.8249 10.5603 27.8282 10.5637C27.8249 10.5603 27.8215 10.5536 27.8181 10.5502C27.7911 10.5064 27.7642 10.4592 27.7372 10.4153C27.6899 10.3344 27.6461 10.2501 27.5955 10.1725C27.2042 9.5622 26.732 9.01931 26.253 8.47642V8.48316Z" fill="#5E5756"/>
<path d="M26.253 8.48317C26.732 9.02607 27.2042 9.57233 27.5955 10.1793C27.6461 10.2602 27.6899 10.3412 27.7371 10.4221C27.7304 10.4288 27.7237 10.4322 27.7203 10.4389C27.5449 10.3513 27.4538 10.1759 27.3223 10.0478C27.0558 9.79151 26.8298 9.49815 26.5195 9.28908C25.8584 8.61805 25.0792 8.10213 24.2697 7.63343C22.6574 6.69938 20.9135 6.15311 19.0618 6.01486C15.5943 5.75521 12.4911 6.70612 9.81632 8.93502C7.56651 10.8065 6.11949 13.1871 5.51909 16.0533C4.92544 18.8892 5.24925 21.6273 6.50739 24.2507C6.57485 24.3923 6.66929 24.5272 6.68953 24.6891C6.40282 24.389 6.20381 24.0214 5.99806 23.6673C5.05024 22.0252 4.48358 20.2582 4.33516 18.3632C4.09231 15.2441 4.84786 12.3913 6.68953 9.86233C8.79429 6.96239 11.6445 5.22244 15.1963 4.69303C17.8306 4.30188 20.3502 4.71664 22.735 5.90021C23.9391 6.49706 25.0151 7.27599 25.9731 8.22016C26.0675 8.3112 26.1619 8.39887 26.2564 8.48992V8.48317H26.253Z" fill="#5E5756"/>
<path d="M7.26978 23.9034L7.27989 23.9169L7.26978 23.9V23.9034Z" fill="#B69942"/>
<path d="M7.22579 23.8528C7.22579 23.8528 7.25614 23.8865 7.26963 23.9C7.26963 23.9 7.2359 23.8696 7.22241 23.8562V23.8528H7.22579Z" fill="#B69942"/>
</svg>