<svg width="35" height="35" viewBox="0 0 35 35" fill="none" xmlns="http://www.w3.org/2000/svg">
<path d="M17.7429 34.493C8.31535 34.493 0.709196 26.8655 0.749673 17.3801C0.786776 7.97553 8.48062 0.459313 17.8407 0.493033C27.1536 0.526753 34.753 8.14413 34.7497 17.5015C34.7463 26.8925 27.1368 34.493 17.7429 34.493ZM5.64392 25.3212C5.67428 25.3785 5.69789 25.4392 5.73499 25.4931C6.49392 26.6362 7.39789 27.6546 8.45364 28.5246C11.604 31.1143 15.2267 32.2506 19.2878 31.8258C22.9374 31.4447 26.0001 29.8464 28.4759 27.1319C29.6193 25.8775 30.4997 24.4546 31.1372 22.8832C31.9838 20.7993 32.2975 18.6345 32.1356 16.3954C32.0344 14.9522 31.7173 13.5596 31.1878 12.2175C30.2096 9.73235 28.6445 7.68553 26.5431 6.04337C26.1788 5.76012 25.8146 5.47012 25.3862 5.28129C25.312 5.22397 25.2445 5.15653 25.1636 5.10932C24.6981 4.84967 24.2292 4.58666 23.7401 4.3641C21.2003 3.21762 18.5457 2.81635 15.79 3.20076C12.3495 3.68296 9.44531 5.21385 7.08757 7.77321C6.04868 8.89946 5.22229 10.1673 4.59154 11.5634C3.58301 13.799 3.17824 16.1459 3.35701 18.5873C3.47507 20.1856 3.84947 21.73 4.49372 23.2069C4.81753 23.9454 5.16832 24.667 5.64729 25.3178L5.64392 25.3212Z" fill="#383331"/>
<path d="M5.64769 25.3214C5.16535 24.6706 4.81455 23.949 4.49412 23.2105C3.84987 21.7369 3.47547 20.1925 3.35741 18.5908C3.17864 16.1495 3.5834 13.8026 4.59193 11.5669C5.22269 10.1675 6.04908 8.90304 7.08797 7.77679C9.4457 5.21743 12.3465 3.68654 15.7903 3.20434C18.5495 2.81993 21.2007 3.2212 23.7405 4.36769C24.2296 4.59024 24.6951 4.85326 25.164 5.1129C25.2449 5.15674 25.3124 5.22755 25.3866 5.28487C25.7407 5.9323 26.1084 6.56961 26.3951 7.25413C26.5772 7.69249 26.7763 8.13085 26.8673 8.60293C26.7729 8.51189 26.6784 8.42422 26.584 8.33317C25.6261 7.39238 24.5501 6.61007 23.3459 6.01323C20.9612 4.83302 18.4415 4.41489 15.8072 4.80605C12.2554 5.33545 9.4086 7.07541 7.30046 9.97534C5.46217 12.5077 4.70324 15.3604 4.9461 18.4762C5.09451 20.3713 5.66118 22.1348 6.609 23.7804C6.81475 24.1378 7.01376 24.502 7.30046 24.8021C7.31396 24.8156 7.33082 24.8291 7.34431 24.8425L7.35106 24.8594L7.34094 24.8425C7.34094 24.8425 7.31396 24.8122 7.30046 24.7987C7.28023 24.6369 7.18578 24.502 7.11832 24.3603C5.86356 21.7403 5.53638 18.9988 6.13003 16.163C6.73043 13.2968 8.17408 10.9161 10.4273 9.04467C13.1054 6.81577 16.2086 5.86149 19.6727 6.1245C21.5278 6.26613 23.2683 6.81239 24.8806 7.74307C25.6901 8.21178 26.4693 8.7277 27.1304 9.39873C27.1405 9.44931 27.1473 9.49652 27.1608 9.5471C27.5453 11.1016 27.6499 12.6763 27.5082 14.2713C27.4003 15.5021 27.1304 16.7025 26.7054 17.8659C26.0679 19.6159 25.1302 21.1907 23.8856 22.5698C22.6274 23.9624 21.1602 25.0921 19.4568 25.9182C16.9034 27.1591 14.2151 27.5907 11.4054 27.2738C9.43558 27.0512 7.59392 26.4274 5.88043 25.4259C5.80622 25.3821 5.72189 25.3551 5.64094 25.3214H5.64769Z" fill="#4C4644"/>
<path d="M26.8673 8.5962C26.7762 8.12412 26.5806 7.68913 26.3951 7.24739C26.1084 6.56625 25.7407 5.92556 25.3865 5.27814C25.8149 5.46697 26.1792 5.75696 26.5435 6.04021C28.6449 7.67901 30.21 9.72582 31.1881 12.2144C31.7177 13.5564 32.0348 14.9491 32.136 16.3923C32.2979 18.6347 31.9842 20.7995 31.1375 22.88C30.5 24.4514 29.6197 25.871 28.4762 27.1288C26.0038 29.8466 22.9377 31.4416 19.2881 31.8226C15.227 32.2475 11.6078 31.1111 8.45401 28.5214C7.39826 27.6548 6.49429 26.6331 5.73536 25.49C5.69826 25.436 5.67464 25.3753 5.64429 25.318C5.72524 25.3517 5.80956 25.3787 5.88377 25.4225C7.59389 26.4274 9.43893 27.0478 11.4088 27.2704C14.2185 27.5907 16.9068 27.1558 19.4602 25.9149C21.1602 25.0887 22.6274 23.9625 23.8889 22.5664C25.1336 21.1873 26.0713 19.6126 26.7088 17.8625C27.1338 16.6958 27.4036 15.4987 27.5115 14.2679C27.6532 12.6763 27.5487 11.0982 27.1641 9.54373C27.1506 9.49652 27.1439 9.44594 27.1338 9.39536C27.4407 9.6078 27.6701 9.89779 27.9365 10.1541C28.0715 10.2822 28.1592 10.4609 28.3346 10.5452C28.3514 10.5958 28.3784 10.6396 28.429 10.6666C28.4324 10.67 28.4391 10.6734 28.4425 10.6767C28.4391 10.6734 28.4358 10.6666 28.4324 10.6632C28.4054 10.6194 28.3784 10.5722 28.3514 10.5284C28.3042 10.4474 28.2604 10.3631 28.2098 10.2856C27.8185 9.67524 27.3463 9.13235 26.8673 8.58945V8.5962Z" fill="#5E5756"/>
<path d="M26.8673 8.59621C27.3462 9.1391 27.8185 9.68537 28.2097 10.2923C28.2603 10.3733 28.3042 10.4542 28.3514 10.5351C28.3447 10.5419 28.3379 10.5452 28.3345 10.552C28.1591 10.4643 28.0681 10.289 27.9365 10.1608C27.6701 9.90455 27.4441 9.61119 27.1337 9.40212C26.4726 8.73109 25.6935 8.21517 24.8839 7.74646C23.2716 6.81242 21.5278 6.26615 19.676 6.1279C16.2085 5.86825 13.1054 6.81916 10.4306 9.04806C8.18077 10.9195 6.73375 13.3002 6.13335 16.1664C5.5397 19.0022 5.86351 21.7403 7.12164 24.3637C7.1891 24.5054 7.28355 24.6402 7.30379 24.8021C7.01708 24.502 6.81807 24.1344 6.61232 23.7804C5.6645 22.1382 5.09783 20.3713 4.94942 18.4762C4.70656 15.3571 5.46212 12.5044 7.30379 9.97536C9.40855 7.07543 12.2587 5.33547 15.8105 4.80607C18.4449 4.41491 20.9645 4.82967 23.3492 6.01325C24.5534 6.61009 25.6294 7.38903 26.5873 8.33319C26.6818 8.42424 26.7762 8.51191 26.8707 8.60295V8.59621H26.8673Z" fill="#5E5756"/>
<path d="M7.88403 24.0164L7.89415 24.0299L7.88403 24.0131V24.0164Z" fill="#B69942"/>
<path d="M7.84004 23.9658C7.84004 23.9658 7.8704 23.9995 7.88389 24.013C7.88389 24.013 7.85016 23.9827 7.83667 23.9692V23.9658H7.84004Z" fill="#B69942"/>
<path d="M10.8736 18.8315C10.6521 18.2058 10.4981 17.5607 10.3088 16.9222C10.0168 15.9209 9.73436 14.9197 9.44876 13.9153C9.43913 13.8832 9.42309 13.8543 9.45197 13.8062C9.94615 14.0661 10.4435 14.3261 10.9377 14.586C11.4576 14.8588 11.9775 15.1347 12.4973 15.4107C12.5358 15.4332 12.5775 15.4621 12.6257 15.4332C12.6546 15.4781 12.6899 15.5134 12.7412 15.5359C13.5787 15.9723 14.4163 16.4119 15.2506 16.8548C15.3597 16.9125 15.4079 16.8869 15.4624 16.7842C15.8411 16.0557 16.2262 15.3305 16.608 14.6053C16.6369 14.5539 16.6626 14.4994 16.653 14.4384C16.7589 14.4191 16.7653 14.3197 16.8038 14.2491C17.4649 12.9879 18.1227 11.7268 18.7805 10.4656C18.7998 10.4303 18.8191 10.3983 18.8544 10.3373C19.0308 10.6678 19.1945 10.9727 19.355 11.2807C19.878 12.2819 20.4011 13.2831 20.9242 14.2844C20.9562 14.3453 20.9627 14.4288 21.0557 14.4416C21.0461 14.525 21.091 14.5924 21.1263 14.6598C21.4986 15.369 21.8772 16.075 22.2463 16.7874C22.3104 16.9093 22.3714 16.9029 22.4741 16.8483C23.0549 16.5403 23.6422 16.2386 24.223 15.9306C24.515 15.7765 24.8071 15.6129 25.0991 15.4556C25.359 15.3241 25.6221 15.1925 25.8821 15.0609C25.9462 15.0288 26.0136 15.0032 26.0778 14.9743C26.0778 15.9177 26.0618 16.858 26.0907 17.8014C26.1067 18.3277 25.6703 18.8443 25.0445 18.8411C20.3209 18.8283 15.594 18.8347 10.8703 18.8347L10.8736 18.8315ZM19.8042 16.7072C19.8042 16.3285 19.7304 16.0397 19.5539 15.7862C19.2426 15.3401 18.742 15.2438 18.3858 15.5487C17.8531 16.0108 17.7505 16.8997 18.1612 17.4741C18.527 17.9875 19.0373 18.0261 19.4673 17.5704C19.7144 17.3072 19.785 16.9799 19.801 16.7039L19.8042 16.7072Z" fill="#F8CD69"/>
<path d="M10.8738 18.8316C15.5974 18.8316 20.3243 18.8251 25.0479 18.838C25.6737 18.838 26.1101 18.3213 26.0941 17.7983C26.0652 16.858 26.0845 15.9146 26.0812 14.9711C26.7776 14.6021 27.4772 14.2298 28.1735 13.8608C28.196 13.848 28.2217 13.848 28.2473 13.8416C28.2345 14.1143 28.1254 14.3678 28.0484 14.631C27.5157 16.5114 26.9766 18.3919 26.4374 20.2724C26.4246 20.3173 26.4086 20.359 26.3957 20.404C26.0845 20.404 25.77 20.404 25.4587 20.404C20.7447 20.404 16.0339 20.404 11.3198 20.404C11.1722 19.8809 11.0214 19.3578 10.8738 18.8348V18.8316Z" fill="#F6C144"/>
<path d="M25.4586 20.4007C25.7699 20.4007 26.0844 20.4007 26.3957 20.4007C26.3957 20.9816 26.3957 21.5656 26.4021 22.1464C26.4021 22.262 26.3636 22.3005 26.2545 22.2844C26.2224 22.2812 26.1903 22.2844 26.155 22.2844C21.2869 22.2844 16.4221 22.2844 11.554 22.2876C11.3679 22.2876 11.2845 22.2587 11.3037 22.047C11.3262 21.8127 11.3134 21.5752 11.3134 21.341C15.761 21.341 20.2087 21.341 24.6564 21.341C24.7142 21.341 24.7751 21.341 24.8329 21.341C25.1217 21.3346 25.3367 21.1645 25.4234 20.8853C25.4747 20.7248 25.4362 20.5612 25.449 20.3975L25.4586 20.4007Z" fill="#F2A23A"/>
<path d="M16.6564 14.4352C16.6661 14.4962 16.6404 14.5508 16.6115 14.6021C16.2297 15.3273 15.8446 16.0526 15.4659 16.781C15.4114 16.8837 15.3632 16.9094 15.2541 16.8516C14.4198 16.4088 13.5822 15.9723 12.7447 15.5327C12.6965 15.507 12.6612 15.4717 12.6292 15.43C12.918 13.8576 13.21 12.2852 13.5084 10.655C13.6945 10.8732 13.8454 11.0529 13.9962 11.2359C14.8819 12.3012 15.7676 13.3698 16.6564 14.4352Z" fill="#F6C144"/>
<path d="M25.1021 15.4524C24.8101 15.6097 24.5213 15.7733 24.2261 15.9274C23.6452 16.2354 23.058 16.5371 22.4771 16.8452C22.3712 16.8997 22.3135 16.9061 22.2493 16.7842C21.8803 16.0718 21.5048 15.3658 21.1294 14.6566C21.0941 14.5892 21.0459 14.5218 21.0588 14.4384C21.8097 13.5335 22.5638 12.6253 23.3179 11.7204C23.6003 11.3802 23.8859 11.0401 24.2004 10.6646C24.5084 12.2916 24.8069 13.8736 25.1021 15.4557V15.4524Z" fill="#F6C144"/>
<path d="M25.4584 20.4007C25.4456 20.5612 25.4841 20.7248 25.4327 20.8885C25.3461 21.1677 25.1279 21.3378 24.8423 21.3442C24.7845 21.3442 24.7236 21.3442 24.6658 21.3442C20.2181 21.3442 15.7704 21.3442 11.3228 21.3442C11.3228 21.0297 11.3228 20.7152 11.3228 20.3975C16.0368 20.3975 20.7476 20.3975 25.4616 20.3975L25.4584 20.4007Z" fill="#F4B461"/>
<path d="M28.2502 13.8412C28.2502 13.8412 28.2565 13.8318 28.2597 13.8255C28.2565 13.8286 28.2502 13.8349 28.2471 13.8381V13.8412H28.2502Z" fill="#F6C144"/>
<path d="M19.8041 16.7072C19.7881 16.9832 19.7175 17.3105 19.4704 17.5736C19.0404 18.0293 18.5302 17.9876 18.1643 17.4773C17.7504 16.8997 17.8563 16.014 18.389 15.5519C18.7419 15.2471 19.2426 15.3434 19.557 15.7894C19.7335 16.0429 19.8073 16.3317 19.8073 16.7104L19.8041 16.7072Z" fill="#F2A23A"/>
</svg>
