<svg width="35" height="35" viewBox="0 0 35 35" fill="none" xmlns="http://www.w3.org/2000/svg">
<path d="M5.32593 13.3411L5.33605 13.3546L5.32593 13.3378V13.3411Z" fill="#B69942"/>
<path d="M5.28194 13.2905C5.28194 13.2905 5.31229 13.3242 5.32579 13.3377C5.32579 13.3377 5.29206 13.3074 5.27856 13.2939V13.2905H5.28194Z" fill="#B69942"/>
<path d="M17.1389 34.2229C7.71134 34.2229 0.105192 26.5954 0.145669 17.1099C0.182772 7.70539 7.87662 0.189171 17.2367 0.222891C26.5496 0.256611 34.149 7.87399 34.1457 17.2313C34.1423 26.6224 26.5328 34.2229 17.1389 34.2229ZM5.03991 25.051C5.07027 25.1083 5.09388 25.169 5.13099 25.223C5.88991 26.3661 6.79388 27.3845 7.84964 28.2544C11 30.8441 14.6227 31.9805 18.6838 31.5556C22.3334 31.1746 25.3961 29.5763 27.8719 26.8618C29.0153 25.6074 29.8957 24.1844 30.5332 22.6131C31.3798 20.5292 31.6935 18.3643 31.5316 16.1253C31.4304 14.6821 31.1133 13.2894 30.5838 11.9474C29.6056 9.46221 28.0405 7.41539 25.9391 5.77322C25.5748 5.48997 25.2105 5.19998 24.7822 5.01115C24.708 4.95382 24.6405 4.88638 24.5596 4.83918C24.0941 4.57953 23.6252 4.31651 23.1361 4.09396C20.5963 2.94748 17.9417 2.54621 15.1859 2.93062C11.7455 3.41281 8.8413 4.94371 6.48357 7.50307C5.44468 8.62932 4.61829 9.8972 3.98753 11.2932C2.979 13.5289 2.57424 15.8758 2.75301 18.3171C2.87107 19.9154 3.24547 21.4598 3.88972 22.9368C4.21353 23.6752 4.56432 24.3968 5.04329 25.0476L5.03991 25.051Z" fill="#383331"/>
<path d="M5.04368 25.0512C4.56134 24.4004 4.21055 23.6788 3.89011 22.9403C3.24587 21.4668 2.87146 19.9224 2.75341 18.3207C2.57464 15.8794 2.9794 13.5324 3.98793 11.2968C4.61868 9.8974 5.44507 8.6329 6.48396 7.50665C8.8417 4.94729 11.7425 3.4164 15.1863 2.9342C17.9455 2.54979 20.5967 2.95106 23.1365 4.09754C23.6256 4.3201 24.0911 4.58311 24.56 4.84276C24.6409 4.88659 24.7084 4.95741 24.7826 5.01473C25.1367 5.66216 25.5044 6.29947 25.7911 6.98399C25.9732 7.42235 26.1723 7.86071 26.2633 8.33279C26.1689 8.24175 26.0744 8.15407 25.98 8.06303C25.0221 7.12224 23.9461 6.33993 22.7419 5.74309C20.3572 4.56288 17.8375 4.14475 15.2032 4.53591C11.6514 5.06531 8.8046 6.80527 6.69646 9.7052C4.85817 12.2376 4.09924 15.0903 4.3421 18.206C4.49051 20.1011 5.05718 21.8647 6.00499 23.5102C6.21075 23.8676 6.40975 24.2318 6.69646 24.5319C6.70995 24.5454 6.72682 24.5589 6.74031 24.5724L6.74706 24.5893L6.73694 24.5724C6.73694 24.5724 6.70995 24.5421 6.69646 24.5286C6.67622 24.3667 6.58178 24.2318 6.51432 24.0902C5.25956 21.4701 4.93237 18.7287 5.52602 15.8928C6.12642 13.0266 7.57007 10.646 9.82325 8.77452C12.5014 6.54562 15.6046 5.59135 19.0687 5.85436C20.9238 5.99599 22.6643 6.54225 24.2766 7.47293C25.0861 7.94164 25.8653 8.45756 26.5264 9.12859C26.5365 9.17917 26.5433 9.22637 26.5568 9.27695C26.9413 10.8315 27.0459 12.4062 26.9042 14.0011C26.7963 15.2319 26.5264 16.4324 26.1014 17.5957C25.4639 19.3458 24.5262 20.9205 23.2816 22.2997C22.0234 23.6923 20.5562 24.8219 18.8528 25.6481C16.2994 26.889 13.6111 27.3206 10.8014 27.0036C8.83158 26.7811 6.98991 26.1572 5.27642 25.1558C5.20222 25.1119 5.11789 25.0849 5.03694 25.0512H5.04368Z" fill="#4C4644"/>
<path d="M26.2633 8.32606C26.1722 7.85397 25.9766 7.41898 25.7911 6.97725C25.5044 6.2961 25.1367 5.65542 24.7825 5.008C25.2109 5.19683 25.5752 5.48682 25.9395 5.77007C28.0409 7.40887 29.606 9.45568 30.5841 11.9442C31.1137 13.2863 31.4308 14.6789 31.5319 16.1221C31.6939 18.3645 31.3802 20.5294 30.5335 22.6099C29.896 24.1813 29.0157 25.6009 27.8722 26.8586C25.3998 29.5765 22.3337 31.1714 18.6841 31.5525C14.623 31.9773 11.0038 30.841 7.85001 28.2513C6.79425 27.3847 5.89028 26.3629 5.13135 25.2198C5.09425 25.1659 5.07064 25.1052 5.04028 25.0479C5.12124 25.0816 5.20556 25.1086 5.27977 25.1524C6.98989 26.1573 8.83493 26.7777 10.8048 27.0003C13.6145 27.3206 16.3028 26.8856 18.8562 25.6447C20.5562 24.8186 22.0234 23.6923 23.2849 22.2963C24.5296 20.9171 25.4673 19.3424 26.1048 17.5923C26.5298 16.4256 26.7996 15.2286 26.9075 13.9978C27.0492 12.4062 26.9446 10.8281 26.5601 9.27359C26.5466 9.22638 26.5399 9.1758 26.5298 9.12522C26.8367 9.33766 27.0661 9.62765 27.3325 9.88393C27.4675 10.0121 27.5552 10.1908 27.7306 10.2751C27.7474 10.3257 27.7744 10.3695 27.825 10.3965C27.8284 10.3998 27.8351 10.4032 27.8385 10.4066C27.8351 10.4032 27.8318 10.3965 27.8284 10.3931C27.8014 10.3493 27.7744 10.3021 27.7474 10.2582C27.7002 10.1773 27.6564 10.093 27.6058 10.0154C27.2145 9.4051 26.7423 8.86221 26.2633 8.31931V8.32606Z" fill="#5E5756"/>
<path d="M26.2633 8.32607C26.7422 8.86896 27.2145 9.41523 27.6057 10.0222C27.6563 10.1031 27.7002 10.184 27.7474 10.265C27.7407 10.2717 27.7339 10.2751 27.7305 10.2818C27.5551 10.1942 27.4641 10.0188 27.3325 9.89068C27.0661 9.63441 26.8401 9.34104 26.5297 9.13198C25.8686 8.46095 25.0895 7.94503 24.2799 7.47632C22.6676 6.54227 20.9238 5.99601 19.072 5.85775C15.6045 5.59811 12.5014 6.54902 9.82657 8.77792C7.57677 10.6494 6.12974 13.03 5.52935 15.8962C4.9357 18.7321 5.25951 21.4702 6.51764 24.0936C6.5851 24.2352 6.67955 24.3701 6.69978 24.532C6.41308 24.2318 6.21407 23.8643 6.00831 23.5102C5.0605 21.8681 4.49383 20.1011 4.34542 18.2061C4.10256 15.087 4.85812 12.2342 6.69978 9.70522C8.80455 6.80529 11.6547 5.06533 15.2065 4.53593C17.8409 4.14477 20.3605 4.55953 22.7452 5.74311C23.9494 6.33995 25.0254 7.11889 25.9833 8.06305C26.0778 8.1541 26.1722 8.24177 26.2666 8.33281V8.32607H26.2633Z" fill="#5E5756"/>
<path d="M7.28003 23.7463L7.29015 23.7598L7.28003 23.7429V23.7463Z" fill="#B69942"/>
<path d="M7.23604 23.6957C7.23604 23.6957 7.2664 23.7294 7.27989 23.7429C7.27989 23.7429 7.24616 23.7125 7.23267 23.6991V23.6957H7.23604Z" fill="#B69942"/>
<path d="M26.4905 13.1637C25.9293 13.9261 25.8726 14.8783 25.5241 15.7229C25.3653 16.1055 25.7848 16.3322 25.935 16.6128C26.3601 17.412 25.8925 18.1261 25.3739 18.2423C24.4528 18.4464 24.3904 18.9792 24.4613 19.6253C24.5747 20.6683 24.1184 21.0083 23.1491 20.8808C22.2111 20.7561 21.2305 21.1274 20.3179 20.6569C20.4993 20.2375 20.8762 20.3197 21.2135 20.314C21.9078 20.3055 22.5993 20.314 23.2937 20.297C23.5147 20.2913 23.8406 20.3849 23.8746 20.0363C23.9172 19.6027 23.5601 19.6678 23.2937 19.665C22.0807 19.6565 20.8649 19.6338 19.6548 19.665C18.745 19.6877 17.9317 19.5006 17.2884 18.829C17.0333 18.5626 16.8207 18.4464 16.526 18.778C15.8147 19.5828 14.8738 19.6934 13.8677 19.6622C12.7936 19.631 11.7195 19.6423 10.6425 19.6622C10.3705 19.6678 9.90854 19.4836 9.89153 19.9456C9.87169 20.5039 10.3847 20.2998 10.6766 20.2998C13.2754 20.3168 15.877 20.3027 18.4758 20.314C18.8697 20.314 19.3289 20.1553 19.6009 20.6257C19.3232 21.0168 18.9066 20.8666 18.5467 20.8695C15.8798 20.8808 13.2102 20.8411 10.5462 20.895C9.59679 20.9148 9.21136 20.6201 9.27371 19.6565C9.31055 19.05 9.43525 18.3869 8.4235 18.2395C7.99273 18.1771 7.38058 17.4601 7.75184 16.9358C8.54253 15.8221 7.92471 14.8698 7.70082 13.8354C7.59313 13.3338 6.86478 12.6791 7.64981 12.3079C8.31864 11.9933 8.44334 12.8832 8.78342 13.2573C9.03565 13.5322 9.18302 13.9573 9.62797 13.9403C10.1523 13.9233 10.2259 13.4415 10.396 13.0759C10.4243 13.0135 10.4328 12.9399 10.4697 12.8832C10.7417 12.4807 10.6454 11.7382 11.3312 11.7326C11.915 11.7297 11.9689 12.3787 12.2409 12.7528C12.343 12.8917 12.4195 13.0475 12.5102 13.1949C13.0741 14.082 13.6438 14.0933 14.2333 13.2318C14.4203 12.9569 14.5167 12.5686 14.9843 12.6621C14.9276 13.4897 14.5478 14.1727 13.7543 14.3795C12.2268 14.7735 12.0596 13.2403 11.3539 12.4496C10.9004 13.022 10.9061 13.7589 10.3988 14.2208C9.78667 14.782 9.13201 14.3427 8.4065 14.1783C8.54253 14.6318 8.61338 14.9662 8.74375 15.2751C9.27938 16.5362 9.06116 18.4379 10.2656 18.9848C11.4673 19.5318 13.1167 19.1039 14.5734 19.0869C15.2762 19.0784 15.7977 18.7099 16.2936 18.2423C16.6054 17.9476 16.6365 17.7605 16.3645 17.4148C15.8713 16.7913 15.4264 16.131 14.9985 15.4621C14.6385 14.8925 14.7519 14.3314 15.2053 13.8524C15.6248 13.4103 17.7815 13.2856 18.3426 13.6795C18.8301 14.0225 19.0936 14.5014 18.9264 15.1136C18.8641 15.3403 18.7224 15.55 18.5892 15.7484C18.3199 16.148 18.028 16.5362 17.7503 16.933C17.0616 17.9136 17.1297 18.2367 18.2151 18.812C18.5098 18.9678 18.8669 19.0812 19.1985 19.0869C20.2329 19.1067 21.2702 19.0642 22.3046 19.0444C22.8629 19.1039 23.6593 19.4383 23.8945 18.8545C24.4925 17.3893 24.8722 15.8362 25.3994 14.1273C24.7362 14.3399 24.3196 14.6318 23.835 14.5326C23.5912 14.4079 23.458 14.235 23.5969 13.9516C24.501 14.1755 24.8411 13.5095 25.2378 12.9257C25.5354 12.4892 25.7905 11.9394 26.4876 12.3334V13.1666L26.4905 13.1637ZM16.9483 16.9698C17.1807 16.6864 17.5406 16.4654 17.5236 16.0545C17.5037 15.669 17.2345 15.2127 16.8944 15.2212C16.5005 15.2297 16.2029 15.7059 16.2199 16.1026C16.2341 16.4512 16.526 16.7658 16.9483 16.9698ZM16.5005 14.4334C16.5203 14.133 16.356 14.0196 16.1207 14.0451C15.6843 14.0961 15.4292 14.3427 15.4349 14.799C15.4349 15.0427 15.5086 15.4111 15.7551 15.3431C16.1689 15.2326 16.3078 14.7678 16.5005 14.4334ZM18.3681 14.6856C18.3426 14.3229 18.0904 14.0423 17.6058 14.0253C17.3989 14.0168 17.1523 14.1273 17.243 14.3852C17.3904 14.8046 17.6143 15.2411 18.0592 15.3629C18.2519 15.4168 18.371 15.0625 18.3681 14.6828V14.6856Z" fill="#16140F"/>
<path d="M23.5997 13.9546C23.458 14.238 23.5912 14.4081 23.8377 14.5356C23.7471 14.921 23.6592 15.3065 23.5714 15.6947C22.9025 15.5247 22.5398 15.8959 22.2932 16.4344C21.9078 17.2733 21.6924 18.115 22.3782 18.9198C22.3357 18.951 22.3102 18.9935 22.3102 19.0474C21.2758 19.0672 20.2385 19.1097 19.2041 19.0899C18.8725 19.0842 18.5154 18.9709 18.2207 18.815C17.1353 18.2397 17.0672 17.9138 17.7559 16.936C18.0337 16.5421 18.3256 16.1538 18.5948 15.7514C18.728 15.553 18.8725 15.3405 18.932 15.1166C19.0992 14.5044 18.8357 14.0255 18.3482 13.6826C17.7871 13.2886 15.6304 13.4133 15.211 13.8554C14.7575 14.3315 14.6441 14.8955 15.0041 15.4652C15.4292 16.1368 15.877 16.7943 16.3701 17.4178C16.645 17.7664 16.6138 17.9506 16.2992 18.2453C15.8061 18.7158 15.2818 19.0842 14.579 19.0899C13.1251 19.1041 11.4757 19.532 10.2712 18.9879C9.06677 18.4409 9.28499 16.5364 8.74936 15.2781C8.61899 14.972 8.54814 14.6376 8.41211 14.1813C9.13762 14.3457 9.78945 14.785 10.4044 14.2239C10.9089 13.7619 10.9089 13.0251 11.3595 12.4526C12.0652 13.2433 12.2324 14.7765 13.7599 14.3826C14.5535 14.1785 14.9332 13.4955 14.9899 12.6651C15.0806 12.4384 15.1741 12.2117 15.2676 11.9878C16.2595 11.7016 16.1519 10.5226 16.9709 9.95013C17.6539 11.1348 18.3171 12.3251 19.0171 13.4927C19.8049 14.8048 20.9385 14.802 21.7377 13.5125C21.9616 13.1526 22.1883 12.7955 22.4179 12.4327C22.7183 12.736 22.6361 13.2688 23.1633 13.2773C23.2284 13.555 23.3758 13.7789 23.6025 13.9546H23.5997ZM20.128 18.1518C21.0236 18.2482 21.3693 17.5652 21.3806 16.9615C21.392 16.3494 21.0491 15.6919 20.1762 15.7117C19.513 15.7259 18.711 16.3891 18.8555 16.9672C19.0114 17.5765 19.2466 18.2652 20.128 18.1518ZM13.6466 15.7174C12.7283 15.6947 12.3684 16.3352 12.3911 16.9644C12.4166 17.6389 12.8105 18.2368 13.7288 18.1717C14.5903 18.1093 14.8935 17.5028 14.8652 16.8708C14.8369 16.2218 14.4401 15.621 13.6466 15.7174ZM11.7931 17.7664C11.7846 17.1656 11.6514 16.6016 11.283 16.1113C11.0648 15.8194 10.8069 15.5785 10.4129 15.6834C10.0247 15.7882 9.90848 16.1368 9.85463 16.4854C9.76394 17.0891 9.91131 17.6587 10.1976 18.1858C10.4101 18.5798 10.6935 19.0757 11.181 18.9595C11.7109 18.8348 11.8073 18.2794 11.7931 17.7636V17.7664Z" fill="#F3C65F"/>
<path d="M19.6011 20.6314C19.329 20.161 18.8699 20.3197 18.476 20.3197C15.8771 20.3084 13.2755 20.3197 10.6767 20.3055C10.3876 20.3055 9.87183 20.5096 9.89167 19.9513C9.90867 19.4893 10.3706 19.6707 10.6427 19.6679C11.7168 19.648 12.7909 19.6367 13.8678 19.6679C14.8711 19.699 15.8148 19.5885 16.5261 18.7837C16.8209 18.4521 17.0306 18.5683 17.2885 18.8347C17.9347 19.5063 18.748 19.6934 19.6549 19.6707C20.8679 19.6395 22.0808 19.665 23.2938 19.6707C23.5602 19.6707 23.9173 19.6084 23.8748 20.042C23.8408 20.3905 23.5149 20.297 23.2938 20.3027C22.5995 20.3197 21.908 20.3112 21.2136 20.3197C20.8764 20.3225 20.4995 20.2403 20.3181 20.6626C20.0772 20.6541 19.8391 20.6484 19.5982 20.6371L19.6011 20.6314Z" fill="#EDCF73"/>
<path d="M23.16 13.2774C22.6329 13.2689 22.7122 12.7361 22.4147 12.4329C22.1823 12.7984 21.9556 13.1527 21.7345 13.5126C20.9353 14.8021 19.8017 14.8021 19.0138 13.4928C18.3138 12.3252 17.6507 11.1377 16.9677 9.95024C16.1486 10.5227 16.2563 11.7017 15.2644 11.9879C15.2956 10.9252 15.9701 10.1571 16.5709 9.40611C16.9478 8.93566 17.3106 9.40611 17.526 9.76886C18.1721 10.8713 18.7928 11.9879 19.4361 13.0904C20.0596 14.1588 20.6746 14.1531 21.3179 13.0904C21.4256 12.9118 21.5248 12.7304 21.6438 12.5604C21.8989 12.1891 22.0236 11.4636 22.6386 11.798C23.1147 12.0559 23.4349 12.6284 23.16 13.2802V13.2774Z" fill="#16140F"/>
<path d="M23.5682 15.6919C23.6589 15.3065 23.7467 14.9211 23.8346 14.5328C24.322 14.6349 24.7386 14.3401 25.399 14.1276C24.8718 15.8393 24.4921 17.3924 23.8941 18.8547C23.656 19.4357 22.8597 19.1013 22.3042 19.0446C22.3042 18.9908 22.3269 18.9483 22.3722 18.9171C22.8257 19.1296 23.0779 18.8037 23.3216 18.5345C23.9621 17.8345 24.05 16.6725 23.5653 15.6919H23.5682Z" fill="#CA9254"/>
<path d="M16.948 16.9729C16.5258 16.7717 16.2339 16.4543 16.2197 16.1057C16.2027 15.7089 16.4974 15.2328 16.8942 15.2243C17.2343 15.2186 17.5035 15.6721 17.5233 16.0575C17.5432 16.4628 17.1804 16.6895 16.948 16.9729Z" fill="#CA646C"/>
<path d="M16.4971 14.4392C16.3015 14.7764 16.1655 15.2384 15.7517 15.3489C15.5023 15.4169 15.4343 15.0485 15.4315 14.8048C15.4258 14.3456 15.6809 14.0991 16.1173 14.0509C16.3554 14.0254 16.5169 14.1359 16.4971 14.4392Z" fill="#CA646C"/>
<path d="M18.3678 14.6886C18.3735 15.0655 18.2545 15.4198 18.0589 15.3688C17.6111 15.2469 17.3901 14.8105 17.2427 14.391C17.152 14.1331 17.3986 14.0226 17.6055 14.0311C18.0901 14.0481 18.3452 14.3287 18.3678 14.6914V14.6886Z" fill="#CA646C"/>
<path d="M20.1278 18.1517C19.2464 18.2679 19.0083 17.5792 18.8553 16.967C18.7079 16.3889 19.5128 15.7257 20.176 15.7116C21.0488 15.6917 21.3918 16.3464 21.3804 16.9614C21.3691 17.5679 21.0233 18.248 20.1278 18.1517Z" fill="#16140F"/>
<path d="M13.6469 15.7146C14.4461 15.6211 14.8372 16.219 14.8655 16.868C14.8938 17.4972 14.5934 18.1065 13.729 18.1689C12.8108 18.234 12.4169 17.6389 12.3914 16.9616C12.3687 16.3324 12.7286 15.6919 13.6469 15.7146Z" fill="#16140F"/>
<path d="M23.568 15.6918C24.0526 16.6724 23.962 17.8343 23.3243 18.5343C23.0806 18.8036 22.8283 19.1295 22.3749 18.9169C21.6891 18.1121 21.9045 17.2704 22.2899 16.4315C22.5393 15.8902 22.902 15.5218 23.568 15.6918ZM23.2251 16.1906C22.4514 17.1627 22.3976 17.4489 22.7717 18.2793C23.2591 17.6983 23.4717 17.0833 23.2251 16.1906Z" fill="#16140F"/>
<path d="M11.7929 17.7605C11.807 18.2763 11.7079 18.8289 11.1807 18.9565C10.6933 19.0698 10.4127 18.5795 10.1973 18.1828C9.91391 17.6556 9.76654 17.0832 9.8544 16.4824C9.90541 16.1338 10.0216 15.7852 10.4127 15.6803C10.8066 15.5726 11.0645 15.8164 11.2828 16.1083C11.6512 16.5986 11.7815 17.1625 11.7929 17.7633V17.7605ZM10.5034 16.0799C10.3787 17.0718 10.4184 17.735 11.0645 18.3528C11.4245 17.5083 11.1467 16.9046 10.5034 16.0799Z" fill="#16140F"/>
<path d="M23.2258 16.1935C23.4752 17.0863 23.2598 17.7012 22.7723 18.2822C22.3954 17.4519 22.4492 17.1656 23.2258 16.1935Z" fill="#CA646C"/>
<path d="M10.5037 16.0829C11.147 16.9104 11.4276 17.5112 11.0648 18.3558C10.4186 17.738 10.379 17.0748 10.5037 16.0829Z" fill="#CA646C"/>
</svg>
