<svg width="36" height="36" viewBox="0 0 36 36" fill="none" xmlns="http://www.w3.org/2000/svg">
<path d="M17.9356 34.977C8.50797 34.977 0.901823 27.3496 0.942299 17.8641C0.979403 8.45954 8.67325 0.943322 18.0334 0.977042C27.3463 1.01076 34.9457 8.62814 34.9423 17.9855C34.9389 27.3765 27.3294 34.977 17.9356 34.977ZM5.83655 25.8052C5.8669 25.8625 5.89051 25.9232 5.92762 25.9771C6.68655 27.1203 7.59051 28.1386 8.64627 29.0086C11.7967 31.5983 15.4193 32.7347 19.4804 32.3098C23.13 31.9287 26.1927 30.3304 28.6685 27.6159C29.8119 26.3616 30.6923 24.9386 31.3298 23.3672C32.1764 21.2833 32.4901 19.1185 32.3282 16.8795C32.227 15.4362 31.91 14.0436 31.3804 12.7015C30.4022 10.2164 28.8371 8.16954 26.7358 6.52737C26.3715 6.24412 26.0072 5.95413 25.5788 5.7653C25.5046 5.70797 25.4371 5.64053 25.3562 5.59333C24.8907 5.33368 24.4219 5.07066 23.9328 4.84811C21.3929 3.70163 18.7383 3.30036 15.9826 3.68477C12.5421 4.16697 9.63793 5.69786 7.2802 8.25722C6.24131 9.38347 5.41492 10.6513 4.78416 12.0474C3.77563 14.283 3.37087 16.6299 3.54964 19.0713C3.6677 20.6696 4.0421 22.214 4.68635 23.6909C5.01016 24.4294 5.36095 25.151 5.83992 25.8018L5.83655 25.8052Z" fill="#383331"/>
<path d="M5.84031 25.8054C5.35797 25.1546 5.00718 24.433 4.68674 23.6945C4.0425 22.2209 3.66809 20.6765 3.55004 19.0748C3.37127 16.6335 3.77603 14.2866 4.78456 12.0509C5.41531 10.6516 6.2417 9.38705 7.28059 8.2608C9.63833 5.70144 12.5391 4.17055 15.983 3.68835C18.7421 3.30394 21.3933 3.70521 23.9332 4.85169C24.4223 5.07425 24.8877 5.33726 25.3566 5.59691C25.4375 5.64074 25.505 5.71156 25.5792 5.76888C25.9334 6.41631 26.301 7.05362 26.5877 7.73814C26.7699 8.1765 26.9689 8.61486 27.06 9.08694C26.9655 8.9959 26.8711 8.90823 26.7766 8.81718C25.8187 7.87639 24.7427 7.09408 23.5385 6.49724C21.1538 5.31703 18.6342 4.8989 15.9998 5.29006C12.4481 5.81946 9.60123 7.55942 7.49309 10.4594C5.6548 12.9917 4.89587 15.8445 5.13873 18.9602C5.28714 20.8553 5.85381 22.6188 6.80162 24.2644C7.00738 24.6218 7.20639 24.986 7.49309 25.2861C7.50658 25.2996 7.52345 25.3131 7.53694 25.3265L7.54369 25.3434L7.53357 25.3265C7.53357 25.3265 7.50658 25.2962 7.49309 25.2827C7.47285 25.1209 7.37841 24.986 7.31095 24.8444C6.05619 22.2243 5.729 19.4829 6.32266 16.647C6.92305 13.7808 8.3667 11.4001 10.6199 9.52868C13.2981 7.29978 16.4012 6.3455 19.8653 6.60851C21.7205 6.75014 23.4609 7.2964 25.0733 8.22708C25.8828 8.69579 26.6619 9.21171 27.3231 9.88274C27.3332 9.93332 27.3399 9.98053 27.3534 10.0311C27.7379 11.5856 27.8425 13.1603 27.7008 14.7553C27.5929 15.9861 27.3231 17.1865 26.8981 18.3499C26.2606 20.0999 25.3229 21.6747 24.0782 23.0538C22.8201 24.4465 21.3528 25.5761 19.6494 26.4022C17.0961 27.6431 14.4078 28.0747 11.5981 27.7578C9.62821 27.5352 7.78654 26.9114 6.07305 25.9099C5.99885 25.8661 5.91452 25.8391 5.83357 25.8054H5.84031Z" fill="#4C4644"/>
<path d="M27.0599 9.08021C26.9689 8.60812 26.7732 8.17314 26.5877 7.7314C26.301 7.05025 25.9333 6.40957 25.5792 5.76215C26.0075 5.95098 26.3718 6.24097 26.7361 6.52422C28.8375 8.16302 30.4026 10.2098 31.3808 12.6984C31.9103 14.0404 32.2274 15.4331 32.3286 16.8763C32.4905 19.1187 32.1768 21.2835 31.3302 23.364C30.6927 24.9354 29.8123 26.355 28.6689 27.6128C26.1964 30.3306 23.1304 31.9256 19.4808 32.3066C15.4197 32.7315 11.8004 31.5951 8.64664 29.0054C7.59088 28.1388 6.68691 27.1171 5.92799 25.974C5.89088 25.92 5.86727 25.8593 5.83691 25.802C5.91787 25.8357 6.00219 25.8627 6.0764 25.9065C7.78652 26.9114 9.63156 27.5319 11.6014 27.7544C14.4111 28.0748 17.0994 27.6398 19.6528 26.3989C21.3528 25.5727 22.82 24.4465 24.0816 23.0505C25.3262 21.6713 26.2639 20.0966 26.9014 18.3465C27.3264 17.1798 27.5962 15.9827 27.7042 14.7519C27.8458 13.1603 27.7413 11.5822 27.3568 10.0277C27.3433 9.98053 27.3365 9.92995 27.3264 9.87937C27.6333 10.0918 27.8627 10.3818 28.1292 10.6381C28.2641 10.7662 28.3518 10.9449 28.5272 11.0292C28.5441 11.0798 28.571 11.1236 28.6216 11.1506C28.625 11.154 28.6318 11.1574 28.6351 11.1607C28.6318 11.1574 28.6284 11.1506 28.625 11.1472C28.598 11.1034 28.571 11.0562 28.5441 11.0124C28.4968 10.9314 28.453 10.8471 28.4024 10.7696C28.0111 10.1593 27.5389 9.61636 27.0599 9.07346V9.08021Z" fill="#5E5756"/>
<path d="M27.0599 9.08022C27.5389 9.62311 28.0111 10.1694 28.4024 10.7763C28.453 10.8573 28.4968 10.9382 28.544 11.0191C28.5373 11.0259 28.5305 11.0292 28.5272 11.036C28.3518 10.9483 28.2607 10.773 28.1292 10.6448C27.8627 10.3886 27.6367 10.0952 27.3264 9.88613C26.6653 9.2151 25.8861 8.69918 25.0766 8.23047C23.4643 7.29642 21.7204 6.75016 19.8686 6.61191C16.4012 6.35226 13.298 7.30317 10.6232 9.53207C8.3734 11.4035 6.92637 13.7842 6.32598 16.6504C5.73233 19.4862 6.05614 22.2243 7.31427 24.8477C7.38173 24.9894 7.47618 25.1243 7.49641 25.2861C7.20971 24.986 7.0107 24.6185 6.80495 24.2644C5.85713 22.6222 5.29046 20.8553 5.14205 18.9602C4.89919 15.8411 5.65475 12.9884 7.49641 10.4594C9.60118 7.55944 12.4514 5.81948 16.0032 5.29008C18.6375 4.89892 21.1571 5.31368 23.5419 6.49726C24.746 7.0941 25.822 7.87304 26.7799 8.8172C26.8744 8.90825 26.9688 8.99592 27.0633 9.08696V9.08022H27.0599Z" fill="#5E5756"/>
<path d="M8.07666 24.5004L8.08678 24.5139L8.07666 24.4971V24.5004Z" fill="#B69942"/>
<path d="M8.03267 24.4498C8.03267 24.4498 8.06303 24.4835 8.07652 24.497C8.07652 24.497 8.04279 24.4667 8.0293 24.4532V24.4498H8.03267Z" fill="#B69942"/>
<path d="M17.8419 34.0026C26.687 34.0026 33.8574 26.8126 33.8574 17.9433C33.8574 9.07401 26.687 1.88403 17.8419 1.88403C8.9968 1.88403 1.82642 9.07401 1.82642 17.9433C1.82642 26.8126 8.9968 34.0026 17.8419 34.0026Z" stroke="#14E8C5" stroke-width="3" stroke-miterlimit="10"/>
<path d="M28.1047 15.3739C27.5436 16.1363 27.4869 17.0885 27.1383 17.9331C26.9796 18.3157 27.399 18.5424 27.5492 18.823C27.9744 19.6222 27.5067 20.3363 26.9881 20.4525C26.067 20.6566 26.0047 21.1894 26.0756 21.8355C26.1889 22.8785 25.7326 23.2185 24.7634 23.091C23.8253 22.9663 22.8448 23.3376 21.9322 22.8671C22.1136 22.4477 22.4905 22.5299 22.8277 22.5242C23.5221 22.5157 24.2136 22.5242 24.9079 22.5072C25.129 22.5015 25.4549 22.5951 25.4889 22.2465C25.5314 21.8129 25.1743 21.878 24.9079 21.8752C23.695 21.8667 22.4792 21.844 21.269 21.8752C20.3593 21.8979 19.5459 21.7108 18.9026 21.0392C18.6476 20.7728 18.435 20.6566 18.1403 20.9882C17.4289 21.793 16.488 21.9036 15.4819 21.8724C14.4078 21.8412 13.3337 21.8525 12.2568 21.8724C11.9847 21.8781 11.5228 21.6938 11.5058 22.1558C11.486 22.7141 11.9989 22.51 12.2908 22.51C14.8896 22.527 17.4913 22.5129 20.0901 22.5242C20.484 22.5242 20.9431 22.3655 21.2152 22.836C20.9374 23.2271 20.5208 23.0768 20.1609 23.0797C17.4941 23.091 14.8244 23.0513 12.1605 23.1052C11.211 23.125 10.8256 22.8303 10.888 21.8667C10.9248 21.2602 11.0495 20.5971 10.0378 20.4497C9.60699 20.3873 8.99484 19.6703 9.36609 19.146C10.1568 18.0323 9.53897 17.08 9.31508 16.0456C9.20739 15.544 8.47904 14.8893 9.26407 14.5181C9.9329 14.2035 10.0576 15.0934 10.3977 15.4675C10.6499 15.7424 10.7973 16.1675 11.2422 16.1505C11.7665 16.1335 11.8402 15.6517 12.0102 15.2861C12.0386 15.2237 12.0471 15.1501 12.0839 15.0934C12.356 14.6909 12.2596 13.9484 12.9455 13.9428C13.5293 13.9399 13.5831 14.5889 13.8552 14.963C13.9572 15.1019 14.0337 15.2577 14.1244 15.4051C14.6884 16.2922 15.258 16.3035 15.8475 15.442C16.0346 15.1671 16.1309 14.7788 16.5985 14.8723C16.5419 15.6999 16.1621 16.3829 15.3686 16.5897C13.841 16.9837 13.6738 15.4505 12.9682 14.6598C12.5147 15.2322 12.5204 15.9691 12.0131 16.431C11.4009 16.9922 10.7463 16.5529 10.0208 16.3885C10.1568 16.842 10.2276 17.1764 10.358 17.4853C10.8936 18.7464 10.6754 20.6481 11.8799 21.195C13.0815 21.742 14.7309 21.3141 16.1876 21.2971C16.8905 21.2886 17.4119 20.9201 17.9079 20.4525C18.2196 20.1578 18.2508 19.9707 17.9787 19.625C17.4856 19.0015 17.0407 18.3412 16.6127 17.6723C16.2528 17.1027 16.3662 16.5416 16.8196 16.0626C17.239 15.6205 19.3957 15.4958 19.9569 15.8897C20.4443 16.2327 20.7079 16.7116 20.5407 17.3238C20.4783 17.5505 20.3366 17.7602 20.2034 17.9586C19.9342 18.3582 19.6423 18.7464 19.3646 19.1432C18.6759 20.1238 18.7439 20.4469 19.8293 21.0222C20.1241 21.178 20.4812 21.2914 20.8128 21.2971C21.8472 21.3169 22.8844 21.2744 23.9189 21.2546C24.4772 21.3141 25.2735 21.6485 25.5087 21.0647C26.1067 19.5995 26.4865 18.0464 27.0136 16.3375C26.3505 16.5501 25.9338 16.842 25.4492 16.7428C25.2055 16.6181 25.0723 16.4452 25.2112 16.1618C26.1152 16.3857 26.4553 15.7197 26.8521 15.1359C27.1497 14.6994 27.4047 14.1496 28.1019 14.5436V15.3768L28.1047 15.3739ZM18.5625 19.1801C18.7949 18.8966 19.1548 18.6756 19.1378 18.2647C19.118 17.8792 18.8488 17.423 18.5087 17.4315C18.1148 17.44 17.8172 17.9161 17.8342 18.3128C17.8484 18.6614 18.1403 18.976 18.5625 19.1801ZM18.1148 16.6436C18.1346 16.3432 17.9702 16.2298 17.735 16.2553C17.2986 16.3063 17.0435 16.5529 17.0492 17.0092C17.0492 17.2529 17.1228 17.6213 17.3694 17.5533C17.7832 17.4428 17.922 16.978 18.1148 16.6436ZM19.9824 16.8958C19.9569 16.5331 19.7046 16.2525 19.22 16.2355C19.0131 16.227 18.7666 16.3375 18.8573 16.5954C19.0046 17.0148 19.2285 17.4513 19.6735 17.5732C19.8662 17.627 19.9852 17.2727 19.9824 16.893V16.8958Z" fill="#16140F"/>
<path d="M25.214 16.1648C25.0722 16.4482 25.2054 16.6183 25.452 16.7458C25.3613 17.1312 25.2735 17.5167 25.1856 17.9049C24.5168 17.7349 24.154 18.1061 23.9075 18.6446C23.522 19.4835 23.3066 20.3252 23.9925 21.1301C23.95 21.1612 23.9245 21.2037 23.9245 21.2576C22.89 21.2774 21.8528 21.3199 20.8184 21.3001C20.4868 21.2944 20.1297 21.1811 19.835 21.0252C18.7495 20.4499 18.6815 20.124 19.3702 19.1462C19.6479 18.7523 19.9398 18.364 20.209 17.9616C20.3422 17.7632 20.4868 17.5507 20.5463 17.3268C20.7135 16.7146 20.4499 16.2357 19.9625 15.8928C19.4013 15.4988 17.2446 15.6235 16.8252 16.0656C16.3718 16.5418 16.2584 17.1057 16.6183 17.6754C17.0434 18.347 17.4912 19.0045 17.9843 19.628C18.2592 19.9766 18.2281 20.1608 17.9135 20.4556C17.4204 20.926 16.8961 21.2944 16.1932 21.3001C14.7394 21.3143 13.09 21.7422 11.8855 21.1981C10.681 20.6511 10.8992 18.7466 10.3636 17.4883C10.2333 17.1822 10.1624 16.8478 10.0264 16.3916C10.7519 16.5559 11.4037 16.9952 12.0187 16.4341C12.5232 15.9721 12.5232 15.2353 12.9738 14.6628C13.6794 15.4535 13.8466 16.9867 15.3742 16.5928C16.1677 16.3887 16.5475 15.7057 16.6042 14.8753C16.6948 14.6486 16.7884 14.4219 16.8819 14.198C17.8738 13.9118 17.7661 12.7328 18.5851 12.1603C19.2681 13.345 19.9313 14.5353 20.6313 15.7029C21.4192 17.015 22.5528 17.0122 23.352 15.7227C23.5759 15.3628 23.8026 15.0057 24.0322 14.643C24.3326 14.9462 24.2504 15.479 24.7775 15.4875C24.8427 15.7652 24.9901 15.9891 25.2168 16.1648H25.214ZM21.7423 20.362C22.6378 20.4584 22.9836 19.7754 22.9949 19.1717C23.0062 18.5596 22.6633 17.9021 21.7904 17.9219C21.1273 17.9361 20.3252 18.5993 20.4698 19.1774C20.6257 19.7867 20.8609 20.4754 21.7423 20.362ZM15.2608 17.9276C14.3426 17.9049 13.9827 18.5454 14.0053 19.1746C14.0309 19.8491 14.4248 20.4471 15.343 20.3819C16.2046 20.3195 16.5078 19.713 16.4795 19.081C16.4511 18.4321 16.0544 17.8312 15.2608 17.9276ZM13.4074 19.9766C13.3989 19.3758 13.2657 18.8118 12.8972 18.3215C12.679 18.0296 12.4211 17.7887 12.0272 17.8936C11.6389 17.9984 11.5227 18.347 11.4689 18.6956C11.3782 19.2993 11.5256 19.8689 11.8118 20.396C12.0244 20.79 12.3078 21.2859 12.7952 21.1697C13.3252 21.045 13.4215 20.4896 13.4074 19.9738V19.9766Z" fill="#F3C65F"/>
<path d="M21.2153 22.8416C20.9433 22.3712 20.4841 22.5299 20.0902 22.5299C17.4914 22.5186 14.8898 22.5299 12.291 22.5157C12.0019 22.5157 11.4861 22.7198 11.5059 22.1615C11.5229 21.6995 11.9849 21.8809 12.2569 21.8781C13.331 21.8582 14.4051 21.8469 15.4821 21.8781C16.4853 21.9092 17.4291 21.7987 18.1404 20.9939C18.4351 20.6623 18.6449 20.7785 18.9028 21.0449C19.5489 21.7165 20.3623 21.9036 21.2692 21.8809C22.4821 21.8497 23.6951 21.8752 24.9081 21.8809C25.1745 21.8809 25.5316 21.8186 25.489 22.2522C25.455 22.6008 25.1291 22.5072 24.9081 22.5129C24.2137 22.5299 23.5222 22.5214 22.8279 22.5299C22.4906 22.5327 22.1137 22.4505 21.9323 22.8728C21.6914 22.8643 21.4534 22.8586 21.2125 22.8473L21.2153 22.8416Z" fill="#EDCF73"/>
<path d="M24.7743 15.4876C24.2471 15.4791 24.3265 14.9463 24.0289 14.6431C23.7965 15.0087 23.5698 15.3629 23.3488 15.7228C22.5496 17.0123 21.4159 17.0123 20.6281 15.703C19.9281 14.5354 19.2649 13.3479 18.5819 12.1604C17.7629 12.7329 17.8706 13.9119 16.8787 14.1981C16.9098 13.1354 17.5843 12.3673 18.1852 11.6163C18.5621 11.1459 18.9248 11.6163 19.1402 11.9791C19.7864 13.0815 20.407 14.1981 21.0504 15.3006C21.6738 16.369 22.2888 16.3633 22.9322 15.3006C23.0398 15.122 23.139 14.9406 23.2581 14.7706C23.5131 14.3993 23.6378 13.6738 24.2528 14.0082C24.7289 14.2661 25.0492 14.8386 24.7743 15.4904V15.4876Z" fill="#16140F"/>
<path d="M25.1824 17.9022C25.2731 17.5167 25.361 17.1313 25.4488 16.743C25.9363 16.8451 26.3529 16.5503 27.0132 16.3378C26.4861 18.0495 26.1063 19.6026 25.5083 21.0649C25.2703 21.6459 24.4739 21.3115 23.9185 21.2548C23.9185 21.201 23.9411 21.1585 23.9865 21.1273C24.4399 21.3398 24.6921 21.0139 24.9359 20.7447C25.5764 20.0447 25.6642 18.8827 25.1796 17.9022H25.1824Z" fill="#CA9254"/>
<path d="M18.5623 19.1831C18.14 18.9819 17.8481 18.6645 17.834 18.3159C17.8169 17.9191 18.1117 17.443 18.5085 17.4345C18.8485 17.4288 19.1178 17.8823 19.1376 18.2677C19.1574 18.673 18.7947 18.8997 18.5623 19.1831Z" fill="#CA646C"/>
<path d="M18.1113 16.6494C17.9158 16.9866 17.7798 17.4486 17.366 17.5591C17.1166 17.6271 17.0486 17.2587 17.0457 17.015C17.0401 16.5558 17.2951 16.3093 17.7316 16.2611C17.9696 16.2356 18.1312 16.3461 18.1113 16.6494Z" fill="#CA646C"/>
<path d="M19.9821 16.8988C19.9878 17.2757 19.8687 17.63 19.6732 17.579C19.2254 17.4571 19.0043 17.0207 18.857 16.6012C18.7663 16.3433 19.0128 16.2328 19.2197 16.2413C19.7044 16.2583 19.9594 16.5389 19.9821 16.9016V16.8988Z" fill="#CA646C"/>
<path d="M21.742 20.3619C20.8606 20.4781 20.6226 19.7894 20.4696 19.1772C20.3222 18.5991 21.127 17.9359 21.7902 17.9218C22.6631 17.9019 23.006 18.5566 22.9947 19.1716C22.9833 19.7781 22.6376 20.4582 21.742 20.3619Z" fill="#16140F"/>
<path d="M15.2611 17.9248C16.0603 17.8313 16.4514 18.4293 16.4798 19.0782C16.5081 19.7074 16.2077 20.3167 15.3433 20.3791C14.4251 20.4442 14.0311 19.8491 14.0056 19.1718C13.983 18.5426 14.3429 17.9021 15.2611 17.9248Z" fill="#16140F"/>
<path d="M25.1823 17.902C25.6669 18.8826 25.5762 20.0445 24.9386 20.7445C24.6948 21.0138 24.4426 21.3397 23.9892 21.1271C23.3033 20.3223 23.5187 19.4806 23.9041 18.6417C24.1535 18.1004 24.5163 17.732 25.1823 17.902ZM24.8394 18.4008C24.0657 19.3729 24.0118 19.6591 24.3859 20.4895C24.8734 19.9085 25.0859 19.2935 24.8394 18.4008Z" fill="#16140F"/>
<path d="M13.4071 19.9707C13.4213 20.4865 13.3221 21.0391 12.795 21.1667C12.3075 21.28 12.027 20.7897 11.8116 20.393C11.5282 19.8659 11.3808 19.2934 11.4687 18.6926C11.5197 18.344 11.6359 17.9954 12.027 17.8905C12.4209 17.7828 12.6788 18.0266 12.897 18.3185C13.2654 18.8088 13.3958 19.3727 13.4071 19.9735V19.9707ZM12.1177 18.2901C11.993 19.282 12.0326 19.9452 12.6788 20.563C13.0387 19.7185 12.761 19.1148 12.1177 18.2901Z" fill="#16140F"/>
<path d="M24.84 18.4037C25.0894 19.2965 24.874 19.9115 24.3866 20.4924C24.0096 19.6621 24.0635 19.3758 24.84 18.4037Z" fill="#CA646C"/>
<path d="M12.1179 18.2931C12.7612 19.1206 13.0418 19.7214 12.6791 20.566C12.0329 19.9482 11.9932 19.285 12.1179 18.2931Z" fill="#CA646C"/>
</svg>
