<svg width="36" height="36" viewBox="0 0 36 36" fill="none" xmlns="http://www.w3.org/2000/svg">
<path d="M17.8555 35.4675C8.4279 35.4675 0.821745 27.84 0.862221 18.3546C0.899325 8.95002 8.59317 1.4338 17.9533 1.46752C27.2662 1.50124 34.8656 9.11862 34.8622 18.476C34.8588 27.867 27.2493 35.4675 17.8555 35.4675ZM5.75647 26.2956C5.78682 26.353 5.81044 26.4137 5.84754 26.4676C6.60647 27.6107 7.51044 28.6291 8.56619 29.4991C11.7166 32.0888 15.3392 33.2251 19.4003 32.8003C23.0499 32.4192 26.1126 30.8209 28.5884 28.1064C29.7319 26.852 30.6122 25.429 31.2497 23.8577C32.0963 21.7738 32.41 19.6089 32.2481 17.3699C32.1469 15.9267 31.8299 14.5341 31.3003 13.192C30.3221 10.7068 28.7571 8.66002 26.6557 7.01785C26.2914 6.7346 25.9271 6.44461 25.4987 6.25578C25.4245 6.19845 25.3571 6.13101 25.2761 6.08381C24.8106 5.82416 24.3418 5.56114 23.8527 5.33859C21.3128 4.19211 18.6583 3.79084 15.9025 4.17525C12.462 4.65744 9.55786 6.18834 7.20012 8.74769C6.16123 9.87395 5.33484 11.1418 4.70409 12.5378C3.69555 14.7735 3.29079 17.1204 3.46956 19.5617C3.58762 21.1601 3.96202 22.7045 4.60627 24.1814C4.93008 24.9199 5.28087 25.6415 5.75984 26.2923L5.75647 26.2956Z" fill="#383331"/>
<path d="M5.76024 26.2959C5.27789 25.6451 4.9271 24.9234 4.60666 24.185C3.96242 22.7114 3.58801 21.167 3.46996 19.5653C3.29119 17.124 3.69595 14.7771 4.70448 12.5414C5.33524 11.142 6.16163 9.87753 7.20051 8.75128C9.55825 6.19192 12.459 4.66103 15.9029 4.17883C18.662 3.79442 21.3132 4.19569 23.8531 5.34217C24.3422 5.56473 24.8077 5.82774 25.2765 6.08739C25.3575 6.13122 25.4249 6.20204 25.4991 6.25936C25.8533 6.90679 26.2209 7.5441 26.5077 8.22861C26.6898 8.66698 26.8888 9.10534 26.9799 9.57742C26.8854 9.48638 26.791 9.3987 26.6965 9.30766C25.7386 8.36687 24.6626 7.58456 23.4585 6.98772C21.0737 5.80751 18.5541 5.38938 15.9198 5.78053C12.368 6.30994 9.52115 8.0499 7.41301 10.9498C5.57472 13.4822 4.81579 16.3349 5.05865 19.4507C5.20706 21.3457 5.77373 23.1093 6.72155 24.7548C6.9273 25.1123 7.12631 25.4765 7.41301 25.7766C7.42651 25.7901 7.44337 25.8035 7.45686 25.817L7.46361 25.8339L7.45349 25.817C7.45349 25.817 7.42651 25.7867 7.41301 25.7732C7.39278 25.6113 7.29833 25.4765 7.23087 25.3348C5.97611 22.7148 5.64893 19.9733 6.24258 17.1375C6.84297 14.2713 8.28663 11.8906 10.5398 10.0192C13.218 7.79025 16.3211 6.83597 19.7852 7.09899C21.6404 7.24062 23.3809 7.78688 24.9932 8.71756C25.8027 9.18627 26.5819 9.70218 27.243 10.3732C27.2531 10.4238 27.2598 10.471 27.2733 10.5216C27.6579 12.0761 27.7624 13.6508 27.6208 15.2458C27.5128 16.4766 27.243 17.677 26.818 18.8403C26.1805 20.5904 25.2428 22.1651 23.9981 23.5443C22.74 24.9369 21.2727 26.0666 19.5694 26.8927C17.016 28.1336 14.3277 28.5652 11.518 28.2482C9.54813 28.0257 7.70647 27.4019 5.99297 26.4004C5.91877 26.3566 5.83444 26.3296 5.75349 26.2959H5.76024Z" fill="#4C4644"/>
<path d="M26.9799 9.57068C26.8888 9.0986 26.6931 8.66361 26.5076 8.22188C26.2209 7.54073 25.8533 6.90005 25.4991 6.25262C25.9275 6.44146 26.2918 6.73145 26.656 7.0147C28.7574 8.6535 30.3225 10.7003 31.3007 13.1889C31.8302 14.5309 32.1473 15.9236 32.2485 17.3668C32.4104 19.6092 32.0967 21.774 31.2501 23.8545C30.6126 25.4259 29.7322 26.8455 28.5888 28.1033C26.1164 30.8211 23.0503 32.4161 19.4007 32.7971C15.3396 33.222 11.7203 32.0856 8.56656 29.4959C7.5108 28.6293 6.60684 27.6076 5.84791 26.4645C5.8108 26.4105 5.78719 26.3498 5.75684 26.2925C5.83779 26.3262 5.92211 26.3532 5.99632 26.397C7.70644 27.4019 9.55148 28.0223 11.5213 28.2449C14.331 28.5652 17.0193 28.1302 19.5727 26.8893C21.2727 26.0632 22.74 24.9369 24.0015 23.5409C25.2461 22.1618 26.1838 20.587 26.8213 18.837C27.2463 17.6703 27.5162 16.4732 27.6241 15.2424C27.7658 13.6508 27.6612 12.0727 27.2767 10.5182C27.2632 10.471 27.2564 10.4204 27.2463 10.3699C27.5533 10.5823 27.7826 10.8723 28.0491 11.1286C28.184 11.2567 28.2717 11.4354 28.4471 11.5197C28.464 11.5703 28.491 11.6141 28.5416 11.6411C28.5449 11.6445 28.5517 11.6478 28.555 11.6512C28.5517 11.6478 28.5483 11.6411 28.5449 11.6377C28.5179 11.5939 28.491 11.5467 28.464 11.5028C28.4168 11.4219 28.3729 11.3376 28.3223 11.2601C27.931 10.6497 27.4588 10.1068 26.9799 9.56394V9.57068Z" fill="#5E5756"/>
<path d="M26.9798 9.5707C27.4588 10.1136 27.931 10.6599 28.3223 11.2668C28.3729 11.3477 28.4167 11.4287 28.464 11.5096C28.4572 11.5163 28.4505 11.5197 28.4471 11.5265C28.2717 11.4388 28.1806 11.2634 28.0491 11.1353C27.7826 10.879 27.5566 10.5857 27.2463 10.3766C26.5852 9.70558 25.806 9.18966 24.9965 8.72095C23.3842 7.7869 21.6403 7.24064 19.7886 7.10238C16.3211 6.84274 13.2179 7.79365 10.5431 10.0225C8.29332 11.894 6.8463 14.2747 6.2459 17.1409C5.65225 19.9767 5.97606 22.7148 7.23419 25.3382C7.30165 25.4799 7.3961 25.6147 7.41634 25.7766C7.12963 25.4765 6.93062 25.1089 6.72487 24.7549C5.77705 23.1127 5.21038 21.3458 5.06197 19.4507C4.81911 16.3316 5.57467 13.4789 7.41634 10.9499C9.5211 8.04992 12.3713 6.30996 15.9231 5.78056C18.5574 5.3894 21.0771 5.80416 23.4618 6.98774C24.6659 7.58458 25.7419 8.36352 26.6999 9.30768C26.7943 9.39872 26.8888 9.4864 26.9832 9.57744V9.5707H26.9798Z" fill="#5E5756"/>
<path d="M7.99658 24.9909L8.0067 25.0044L7.99658 24.9875V24.9909Z" fill="#B69942"/>
<path d="M7.95259 24.9403C7.95259 24.9403 7.98295 24.974 7.99644 24.9875C7.99644 24.9875 7.96271 24.9572 7.94922 24.9437V24.9403H7.95259Z" fill="#B69942"/>
<path d="M17.8419 33.9873C26.687 33.9873 33.8574 26.9049 33.8574 18.1682C33.8574 9.43157 26.687 2.34912 17.8419 2.34912C8.9968 2.34912 1.82642 9.43157 1.82642 18.1682C1.82642 26.9049 8.9968 33.9873 17.8419 33.9873Z" stroke="#14E8C5" stroke-width="3" stroke-miterlimit="10"/>
<path d="M10.9859 19.8059C10.7644 19.1802 10.6104 18.5352 10.4211 17.8966C10.1291 16.8954 9.84666 15.8942 9.56106 14.8897C9.55144 14.8577 9.53539 14.8288 9.56427 14.7806C10.0585 15.0406 10.5559 15.3005 11.05 15.5604C11.5699 15.8332 12.0898 16.1092 12.6096 16.3851C12.6481 16.4076 12.6898 16.4365 12.738 16.4076C12.7669 16.4525 12.8022 16.4878 12.8535 16.5103C13.6911 16.9467 14.5286 17.3864 15.3629 17.8292C15.472 17.887 15.5202 17.8613 15.5747 17.7586C15.9534 17.0302 16.3385 16.3049 16.7204 15.5797C16.7492 15.5283 16.7749 15.4738 16.7653 15.4128C16.8712 15.3936 16.8776 15.2941 16.9161 15.2235C17.5772 13.9623 18.235 12.7012 18.8928 11.4401C18.9121 11.4048 18.9314 11.3727 18.9667 11.3117C19.1431 11.6422 19.3068 11.9471 19.4673 12.2552C19.9903 13.2564 20.5134 14.2576 21.0365 15.2588C21.0686 15.3198 21.075 15.4032 21.168 15.416C21.1584 15.4995 21.2033 15.5668 21.2386 15.6342C21.6109 16.3434 21.9895 17.0494 22.3586 17.7618C22.4228 17.8837 22.4837 17.8773 22.5864 17.8228C23.1672 17.5147 23.7545 17.2131 24.3353 16.905C24.6273 16.751 24.9194 16.5873 25.2114 16.4301C25.4713 16.2985 25.7344 16.1669 25.9944 16.0354C26.0586 16.0033 26.1259 15.9776 26.1901 15.9487C26.1901 16.8922 26.1741 17.8324 26.203 18.7758C26.219 19.3021 25.7826 19.8188 25.1568 19.8156C20.4332 19.8027 15.7063 19.8091 10.9827 19.8091L10.9859 19.8059ZM19.9165 17.6816C19.9165 17.3029 19.8427 17.0141 19.6662 16.7606C19.3549 16.3145 18.8543 16.2183 18.4981 16.5231C17.9654 16.9852 17.8628 17.8741 18.2735 18.4485C18.6393 18.962 19.1496 19.0005 19.5796 18.5448C19.8267 18.2817 19.8973 17.9543 19.9133 17.6784L19.9165 17.6816Z" fill="#F8CD69"/>
<path d="M10.9861 19.806C15.7097 19.806 20.4366 19.7996 25.1603 19.8124C25.786 19.8124 26.2224 19.2957 26.2064 18.7727C26.1775 17.8324 26.1968 16.889 26.1936 15.9455C26.8899 15.5765 27.5895 15.2043 28.2858 14.8352C28.3083 14.8224 28.334 14.8224 28.3596 14.816C28.3468 15.0887 28.2377 15.3423 28.1607 15.6054C27.628 17.4859 27.0889 19.3663 26.5498 21.2468C26.5369 21.2917 26.5209 21.3335 26.508 21.3784C26.1968 21.3784 25.8823 21.3784 25.571 21.3784C20.857 21.3784 16.1462 21.3784 11.4321 21.3784C11.2845 20.8553 11.1337 20.3323 10.9861 19.8092V19.806Z" fill="#F6C144"/>
<path d="M25.571 21.3752C25.8822 21.3752 26.1967 21.3752 26.508 21.3752C26.508 21.956 26.508 22.54 26.5144 23.1209C26.5144 23.2364 26.4759 23.2749 26.3668 23.2588C26.3347 23.2556 26.3026 23.2588 26.2673 23.2588C21.3992 23.2588 16.5344 23.2588 11.6663 23.2621C11.4802 23.2621 11.3968 23.2332 11.416 23.0214C11.4385 22.7871 11.4257 22.5497 11.4257 22.3154C15.8733 22.3154 20.321 22.3154 24.7687 22.3154C24.8265 22.3154 24.8874 22.3154 24.9452 22.3154C25.234 22.309 25.449 22.1389 25.5357 21.8597C25.587 21.6993 25.5485 21.5356 25.5613 21.3719L25.571 21.3752Z" fill="#F2A23A"/>
<path d="M16.7688 15.4097C16.7784 15.4706 16.7527 15.5252 16.7238 15.5765C16.342 16.3018 15.9569 17.027 15.5782 17.7554C15.5237 17.8581 15.4755 17.8838 15.3664 17.826C14.5321 17.3832 13.6945 16.9468 12.857 16.5071C12.8088 16.4815 12.7735 16.4462 12.7415 16.4045C13.0303 14.832 13.3223 13.2596 13.6207 11.6295C13.8068 11.8477 13.9577 12.0274 14.1085 12.2103C14.9942 13.2757 15.8799 14.3443 16.7688 15.4097Z" fill="#F6C144"/>
<path d="M25.2144 16.4269C24.9224 16.5841 24.6336 16.7478 24.3384 16.9018C23.7575 17.2099 23.1703 17.5115 22.5894 17.8196C22.4835 17.8741 22.4258 17.8806 22.3616 17.7586C21.9926 17.0462 21.6171 16.3402 21.2417 15.631C21.2064 15.5636 21.1582 15.4963 21.1711 15.4128C21.922 14.5079 22.6761 13.5997 23.4302 12.6948C23.7126 12.3546 23.9982 12.0145 24.3127 11.639C24.6207 13.266 24.9192 14.848 25.2144 16.4301V16.4269Z" fill="#F6C144"/>
<path d="M25.5707 21.3752C25.5579 21.5356 25.5964 21.6993 25.545 21.8629C25.4584 22.1421 25.2402 22.3122 24.9546 22.3186C24.8968 22.3186 24.8359 22.3186 24.7781 22.3186C20.3304 22.3186 15.8827 22.3186 11.4351 22.3186C11.4351 22.0041 11.4351 21.6896 11.4351 21.3719C16.1491 21.3719 20.8599 21.3719 25.5739 21.3719L25.5707 21.3752Z" fill="#F4B461"/>
<path d="M28.3625 14.8157C28.3625 14.8157 28.3688 14.8062 28.372 14.7999C28.3688 14.8031 28.3625 14.8094 28.3594 14.8125V14.8157H28.3625Z" fill="#F6C144"/>
<path d="M19.9164 17.6816C19.9004 17.9576 19.8298 18.2849 19.5827 18.548C19.1527 19.0037 18.6425 18.962 18.2766 18.4518C17.8627 17.8741 17.9686 16.9885 18.5013 16.5264C18.8543 16.2215 19.3549 16.3178 19.6693 16.7638C19.8458 17.0173 19.9196 17.3062 19.9196 17.6848L19.9164 17.6816Z" fill="#F2A23A"/>
</svg>
