<svg width="36" height="37" viewBox="0 0 36 37" fill="none" xmlns="http://www.w3.org/2000/svg">
<path d="M17.9356 35.1379C8.50797 35.1379 0.901823 27.5104 0.942299 18.0249C0.979403 8.62037 8.67325 1.10415 18.0334 1.13787C27.3463 1.17159 34.9457 8.78897 34.9423 18.1463C34.9389 27.5374 27.3294 35.1379 17.9356 35.1379ZM5.83655 25.966C5.8669 26.0233 5.89051 26.084 5.92762 26.138C6.68655 27.2811 7.59051 28.2994 8.64627 29.1694C11.7967 31.7591 15.4193 32.8955 19.4804 32.4706C23.13 32.0896 26.1927 30.4912 28.6685 27.7768C29.8119 26.5224 30.6923 25.0994 31.3298 23.528C32.1764 21.4441 32.4901 19.2793 32.3282 17.0403C32.227 15.5971 31.91 14.2044 31.3804 12.8624C30.4022 10.3772 28.8371 8.33037 26.7358 6.6882C26.3715 6.40495 26.0072 6.11496 25.5788 5.92613C25.5046 5.8688 25.4371 5.80136 25.3562 5.75415C24.8907 5.49451 24.4219 5.23149 23.9328 5.00894C21.3929 3.86246 18.7383 3.46119 15.9826 3.8456C12.5421 4.32779 9.63793 5.85869 7.2802 8.41804C6.24131 9.5443 5.41492 10.8122 4.78416 12.2082C3.77563 14.4438 3.37087 16.7908 3.54964 19.2321C3.6677 20.8304 4.0421 22.3748 4.68635 23.8517C5.01016 24.5902 5.36095 25.3118 5.83992 25.9626L5.83655 25.966Z" fill="#383331"/>
<path d="M5.84031 25.9662C5.35797 25.3154 5.00718 24.5938 4.68674 23.8553C4.0425 22.3818 3.66809 20.8374 3.55004 19.2357C3.37127 16.7943 3.77603 14.4474 4.78456 12.2118C5.41531 10.8124 6.2417 9.54788 7.28059 8.42163C9.63833 5.86227 12.5391 4.33138 15.983 3.84918C18.7421 3.46477 21.3933 3.86604 23.9332 5.01252C24.4223 5.23507 24.8877 5.49809 25.3566 5.75774C25.4375 5.80157 25.505 5.87238 25.5792 5.92971C25.9334 6.57714 26.301 7.21445 26.5877 7.89896C26.7699 8.33733 26.9689 8.77569 27.06 9.24777C26.9655 9.15672 26.8711 9.06905 26.7766 8.97801C25.8187 8.03722 24.7427 7.25491 23.5385 6.65806C21.1538 5.47786 18.6342 5.05973 15.9998 5.45088C12.4481 5.98029 9.60123 7.72025 7.49309 10.6202C5.6548 13.1526 4.89587 16.0053 5.13873 19.121C5.28714 21.0161 5.85381 22.7797 6.80162 24.4252C7.00738 24.7826 7.20639 25.1468 7.49309 25.4469C7.50658 25.4604 7.52345 25.4739 7.53694 25.4874L7.54369 25.5042L7.53357 25.4874C7.53357 25.4874 7.50658 25.457 7.49309 25.4435C7.47285 25.2817 7.37841 25.1468 7.31095 25.0052C6.05619 22.3851 5.729 19.6437 6.32266 16.8078C6.92305 13.9416 8.3667 11.561 10.6199 9.6895C13.2981 7.4606 16.4012 6.50632 19.8653 6.76934C21.7205 6.91097 23.4609 7.45723 25.0733 8.38791C25.8828 8.85662 26.6619 9.37253 27.3231 10.0436C27.3332 10.0941 27.3399 10.1414 27.3534 10.1919C27.7379 11.7464 27.8425 13.3212 27.7008 14.9161C27.5929 16.1469 27.3231 17.3473 26.8981 18.5107C26.2606 20.2608 25.3229 21.8355 24.0782 23.2146C22.8201 24.6073 21.3528 25.7369 19.6494 26.5631C17.0961 27.804 14.4078 28.2356 11.5981 27.9186C9.62821 27.696 7.78654 27.0722 6.07305 26.0707C5.99885 26.0269 5.91452 25.9999 5.83357 25.9662H5.84031Z" fill="#4C4644"/>
<path d="M27.0599 9.24103C26.9689 8.76895 26.7732 8.33396 26.5877 7.89223C26.301 7.21108 25.9333 6.5704 25.5792 5.92297C26.0075 6.11181 26.3718 6.4018 26.7361 6.68505C28.8375 8.32385 30.4026 10.3707 31.3808 12.8592C31.9103 14.2013 32.2274 15.5939 32.3286 17.0371C32.4905 19.2795 32.1768 21.4443 31.3302 23.5249C30.6927 25.0962 29.8123 26.5158 28.6689 27.7736C26.1964 30.4915 23.1304 32.0864 19.4808 32.4675C15.4197 32.8923 11.8004 31.756 8.64664 29.1663C7.59088 28.2996 6.68691 27.2779 5.92799 26.1348C5.89088 26.0809 5.86727 26.0202 5.83691 25.9628C5.91787 25.9966 6.00219 26.0235 6.0764 26.0674C7.78652 27.0722 9.63156 27.6927 11.6014 27.9152C14.4111 28.2356 17.0994 27.8006 19.6528 26.5597C21.3528 25.7335 22.82 24.6073 24.0816 23.2113C25.3262 21.8321 26.2639 20.2574 26.9014 18.5073C27.3264 17.3406 27.5962 16.1435 27.7042 14.9128C27.8458 13.3212 27.7413 11.7431 27.3568 10.1886C27.3433 10.1414 27.3365 10.0908 27.3264 10.0402C27.6333 10.2526 27.8627 10.5426 28.1292 10.7989C28.2641 10.927 28.3518 11.1058 28.5272 11.1901C28.5441 11.2406 28.571 11.2845 28.6216 11.3114C28.625 11.3148 28.6318 11.3182 28.6351 11.3216C28.6318 11.3182 28.6284 11.3114 28.625 11.3081C28.598 11.2642 28.571 11.217 28.5441 11.1732C28.4968 11.0923 28.453 11.008 28.4024 10.9304C28.0111 10.3201 27.5389 9.77718 27.0599 9.23429V9.24103Z" fill="#5E5756"/>
<path d="M27.0599 9.24105C27.5389 9.78394 28.0111 10.3302 28.4024 10.9372C28.453 11.0181 28.4968 11.099 28.544 11.18C28.5373 11.1867 28.5305 11.1901 28.5272 11.1968C28.3518 11.1091 28.2607 10.9338 28.1292 10.8057C27.8627 10.5494 27.6367 10.256 27.3264 10.047C26.6653 9.37593 25.8861 8.86001 25.0766 8.3913C23.4643 7.45725 21.7204 6.91099 19.8686 6.77273C16.4012 6.51309 13.298 7.464 10.6232 9.6929C8.3734 11.5644 6.92637 13.945 6.32598 16.8112C5.73233 19.6471 6.05614 22.3851 7.31427 25.0086C7.38173 25.1502 7.47618 25.2851 7.49641 25.4469C7.20971 25.1468 7.0107 24.7793 6.80495 24.4252C5.85713 22.783 5.29046 21.0161 5.14205 19.121C4.89919 16.0019 5.65475 13.1492 7.49641 10.6202C9.60118 7.72027 12.4514 5.98031 16.0032 5.4509C18.6375 5.05975 21.1571 5.47451 23.5419 6.65809C24.746 7.25493 25.822 8.03387 26.7799 8.97803C26.8744 9.06907 26.9688 9.15675 27.0633 9.24779V9.24105H27.0599Z" fill="#5E5756"/>
<path d="M8.07666 24.6613L8.08678 24.6748L8.07666 24.6579V24.6613Z" fill="#B69942"/>
<path d="M8.03267 24.6107C8.03267 24.6107 8.06303 24.6444 8.07652 24.6579C8.07652 24.6579 8.04279 24.6275 8.0293 24.614V24.6107H8.03267Z" fill="#B69942"/>
<path d="M18.0233 34.5568C26.8684 34.5568 34.0388 27.3668 34.0388 18.4975C34.0388 9.62821 26.8684 2.43823 18.0233 2.43823C9.1782 2.43823 2.00781 9.62821 2.00781 18.4975C2.00781 27.3668 9.1782 34.5568 18.0233 34.5568Z" stroke="#14E8C5" stroke-width="3" stroke-miterlimit="10"/>
<path d="M20.4708 15.9713C20.5006 16.0159 20.5036 16.0725 20.5155 16.1202C20.5572 16.278 20.6227 16.427 20.6853 16.5759C20.7329 16.6921 20.7895 16.8082 20.864 16.9095C20.9623 17.0406 21.0576 17.1776 21.1678 17.2997C21.3257 17.4784 21.5014 17.6333 21.692 17.7733C21.8022 17.8537 21.9214 17.9222 22.0435 17.9848C22.1716 18.0503 22.3056 18.1039 22.4367 18.1605C22.4933 18.1843 22.5528 18.2052 22.6184 18.2171C22.6869 18.232 22.7554 18.2499 22.8239 18.2707C22.8686 18.2856 22.9133 18.2916 22.9579 18.2886C23.2141 18.3511 23.4762 18.3362 23.7353 18.3243C23.8664 18.3184 23.9974 18.2886 24.1255 18.2648C24.2417 18.2409 24.3549 18.2082 24.4681 18.1724C24.6021 18.1277 24.7302 18.0652 24.8583 18.0056C24.9536 17.9609 25.0459 17.9133 25.1323 17.8567C25.3497 17.7107 25.5493 17.5439 25.731 17.3563C25.7429 17.3444 25.7578 17.3265 25.7518 17.3027C25.9127 17.4486 26.0676 17.6065 26.2701 17.6958C26.3505 17.7316 26.422 17.7792 26.5084 17.8001C26.6216 17.8269 26.7318 17.8626 26.8479 17.8865C27.0207 17.9222 27.1935 17.9103 27.3632 17.9014C27.5032 17.8924 27.5002 17.8775 27.5092 18.0146C27.5092 18.0146 27.5092 18.0205 27.5092 18.0235C27.5271 18.1903 27.4794 18.3511 27.4585 18.512C27.4407 18.6639 27.4228 18.8158 27.3871 18.9647C27.3454 19.1315 27.3364 19.3043 27.2858 19.4711C27.262 19.5515 27.2471 19.6438 27.2352 19.7332C27.2262 19.8225 27.1935 19.9089 27.1726 19.9983C27.1577 20.0638 27.1428 20.1323 27.1279 20.1978C27.113 20.2693 27.0922 20.3468 27.0773 20.4183C27.0654 20.4808 27.0564 20.5523 27.0177 20.6119C26.9998 20.6387 27.0088 20.6655 27.0058 20.6953C26.9879 20.7161 26.9671 20.737 26.973 20.7697C26.9611 20.7846 26.9641 20.8025 26.9641 20.8204C26.9462 20.8531 26.9194 20.8799 26.9284 20.9246C26.9254 20.9931 26.8867 21.0527 26.8688 21.1182C26.842 21.2225 26.8062 21.3237 26.7705 21.425C26.7318 21.5382 26.6901 21.6514 26.6484 21.7616C26.6037 21.8748 26.5501 21.988 26.5024 22.1011C26.425 22.2828 26.3356 22.4586 26.2433 22.6343C26.1748 22.7624 26.1063 22.8905 26.0259 23.0126C25.9931 23.0126 25.9603 23.0066 25.9246 23.0066C23.6639 23.0066 21.4001 23.0066 19.1394 23.0066C19.1394 20.8829 19.1394 18.7562 19.1394 16.6325C19.1394 16.5759 19.1394 16.5193 19.1394 16.4627C19.2794 16.4508 19.4194 16.4806 19.5564 16.418C19.6428 16.3793 19.747 16.3823 19.8394 16.3346C19.9377 16.284 20.036 16.2393 20.1313 16.1827C20.2206 16.1321 20.2981 16.0695 20.3755 16.004C20.4053 15.9802 20.4381 15.9683 20.4738 15.9861L20.4708 15.9713Z" fill="#FEBF2E"/>
<path d="M19.1391 22.9917C21.3999 22.9917 23.6636 22.9917 25.9243 22.9917C25.9571 22.9917 25.9898 22.9947 26.0256 22.9977C26.0137 23.0841 26.0166 23.1734 26.0166 23.2598C26.0166 23.7304 26.0166 24.201 26.0166 24.6687C26.0166 24.7789 26.0166 24.8891 25.963 24.9904C25.9005 25.1125 25.8081 25.2078 25.683 25.2704C25.5579 25.3329 25.4239 25.3448 25.2839 25.3448C24.3903 25.3448 23.4968 25.3389 22.6032 25.3448C22.3828 25.3448 22.1654 25.3478 21.9449 25.3567C21.9152 25.3299 21.8764 25.3418 21.8407 25.3418C20.9978 25.3418 20.1548 25.3478 19.3119 25.3418C18.2545 25.3329 17.1971 25.3418 16.1397 25.3359C15.1747 25.3359 14.2126 25.3359 13.2475 25.3359C13.2148 25.3359 13.182 25.3389 13.1462 25.3418C13.0599 25.3269 12.9705 25.3389 12.8841 25.3329C12.8365 25.3329 12.7858 25.3329 12.7441 25.3001C12.7769 25.3001 12.8126 25.3001 12.8454 25.3001C14.9006 25.3001 16.9588 25.3001 19.014 25.3001C19.0954 25.3001 19.1362 25.2584 19.1362 25.175C19.1362 24.4453 19.1362 23.7185 19.1362 22.9888L19.1391 22.9917Z" fill="#FEA63B"/>
<path d="M27.5065 18.0146C27.5065 18.0146 27.5065 18.0086 27.5065 18.0056C27.4975 17.8686 27.5005 17.8835 27.3605 17.8924C27.1908 17.9014 27.018 17.9133 26.8452 17.8775C26.7291 17.8537 26.6189 17.821 26.5057 17.7912C26.4223 17.7703 26.3478 17.7227 26.2674 17.6869C26.0619 17.5976 25.91 17.4397 25.7491 17.2937C25.6925 17.2252 25.6359 17.1597 25.5794 17.0912C25.5734 17.0376 25.5436 17.0018 25.5019 16.9691C25.4632 16.8738 25.4096 16.7844 25.3768 16.6861C25.3262 16.5402 25.2755 16.3942 25.2666 16.2364C25.2666 16.0964 25.2666 15.9564 25.2666 15.8194C25.2815 15.6287 25.3411 15.45 25.4155 15.2713C25.5287 15.0002 25.7015 14.7739 25.9219 14.5862C26.05 14.479 26.19 14.3896 26.3389 14.3122C26.3717 14.3182 26.3955 14.3033 26.4134 14.2765C26.4282 14.2765 26.4431 14.2705 26.461 14.2675C26.4968 14.2765 26.5146 14.2496 26.5384 14.2318C26.6099 14.2169 26.6814 14.196 26.7529 14.1841C27.0061 14.1365 27.2593 14.1365 27.5124 14.1841C27.7061 14.2199 27.8877 14.2913 28.0575 14.3896C28.3703 14.5684 28.6086 14.8186 28.7813 15.1313C28.8081 15.176 28.829 15.2266 28.8528 15.2713C28.8498 15.307 28.8558 15.3368 28.8915 15.3517C28.8915 15.3666 28.8945 15.3815 28.8975 15.3964C28.8856 15.4292 28.9124 15.447 28.9273 15.4679C28.9362 15.5632 28.969 15.6555 28.9839 15.7538C29.0107 15.9355 29.0136 16.1142 28.9839 16.2959C28.969 16.3853 28.9451 16.4717 28.9273 16.558C28.9064 16.6593 28.8588 16.7546 28.8141 16.847C28.7247 17.0227 28.6205 17.1895 28.4715 17.3265C28.3047 17.4814 28.1379 17.6333 27.9235 17.7197C27.8311 17.7554 27.7448 17.8031 27.6495 17.8239C27.5929 17.8358 27.5333 17.8537 27.5392 17.9341C27.5392 17.9609 27.5333 17.9907 27.5065 18.0086V18.0146Z" fill="#FEA63B"/>
<path d="M26.9285 20.909C26.9196 20.8676 26.9463 20.838 26.964 20.8055C26.9788 20.8498 26.9758 20.8853 26.9285 20.909Z" fill="#772A0C"/>
<path d="M26.973 20.7573C26.967 20.7248 26.9877 20.7041 27.0055 20.6834C27.0055 20.713 27.0173 20.7455 26.973 20.7573Z" fill="#772A0C"/>
<path d="M19.1364 16.4449C19.1364 16.5015 19.1364 16.5581 19.1364 16.6147C19.1364 18.7384 19.1364 20.8651 19.1364 22.9888C19.0947 22.9888 19.053 22.9888 19.0113 22.9888C16.8101 22.9888 14.6119 22.9888 12.4108 22.9888C12.3631 22.9888 12.3184 22.9888 12.2708 22.9918C12.2053 22.962 12.1933 22.8935 12.1636 22.8429C12.0355 22.6284 11.9253 22.405 11.818 22.1786C11.7346 22.0029 11.6453 21.8272 11.5917 21.6395C11.5381 21.4578 11.4666 21.2821 11.4159 21.1004C11.3534 20.883 11.2908 20.6685 11.2283 20.4511C11.1598 20.2128 11.1062 19.9715 11.0525 19.7332C11.0317 19.6439 11.0138 19.5545 11.0019 19.4622C10.99 19.3669 10.9602 19.2745 10.9394 19.1792C10.9215 19.0928 10.9155 19.0065 10.8977 18.9201C10.8768 18.8158 10.8619 18.7086 10.844 18.6014C10.8232 18.4614 10.8143 18.3214 10.7815 18.1844C10.7636 18.1159 10.7726 18.0414 10.7666 17.9669C10.7815 17.8508 10.7815 17.8508 10.8947 17.8835C10.9215 17.8925 10.9513 17.8925 10.9781 17.8925C11.2074 17.8955 11.4338 17.8955 11.6572 17.824C11.8448 17.7644 12.0176 17.684 12.1844 17.5827C12.3095 17.5053 12.4048 17.398 12.512 17.3057C12.7414 17.5738 13.0214 17.7852 13.3252 17.961C13.4831 18.0503 13.6499 18.1248 13.8286 18.1754C13.8613 18.1844 13.8911 18.2082 13.9269 18.2082C13.9269 18.2231 13.9328 18.238 13.9447 18.238C14.0281 18.2469 14.1026 18.2946 14.189 18.2797C14.329 18.2797 14.466 18.3273 14.609 18.3273C14.7966 18.3273 14.9872 18.3393 15.1719 18.3125C15.3327 18.2916 15.4966 18.2797 15.6455 18.2112C15.6663 18.2022 15.6902 18.2052 15.714 18.2022C15.72 18.2022 15.7289 18.2052 15.7378 18.2022C15.857 18.1754 15.9642 18.1188 16.0774 18.0771C16.0833 18.0771 16.0833 18.0593 16.0863 18.0503C16.0863 18.0503 16.0893 18.0474 16.0923 18.0444C16.131 18.0563 16.1548 18.0235 16.1787 18.0086C16.2442 17.9699 16.3216 17.955 16.3723 17.8925C16.3782 17.8925 16.3812 17.8925 16.3872 17.8925C16.4348 17.8776 16.4735 17.8508 16.5093 17.815C16.6344 17.7435 16.7446 17.6482 16.8518 17.5499C16.9829 17.4248 17.1169 17.3027 17.2301 17.1597C17.3195 17.0466 17.3969 16.9244 17.4743 16.7993C17.5637 16.6504 17.6292 16.4896 17.7007 16.3317C17.7096 16.3138 17.7096 16.293 17.7156 16.2721C17.7633 16.2662 17.7543 16.2334 17.7484 16.2036C17.7513 16.1858 17.7543 16.1679 17.7573 16.15C17.802 16.1321 17.7901 16.0934 17.7871 16.0607C17.7871 16.0368 17.7901 16.016 17.793 15.9922C17.8526 15.9147 17.8973 15.9653 17.936 16.013C17.9598 16.0458 17.9986 16.0458 18.0254 16.0696C18.1743 16.2066 18.362 16.2811 18.5466 16.3496C18.7343 16.4181 18.9338 16.4508 19.1364 16.436V16.4449Z" fill="#FEF67F"/>
<path d="M12.515 17.3146C12.4048 17.4069 12.3095 17.5142 12.1873 17.5916C12.0205 17.6929 11.8478 17.7733 11.6601 17.8329C11.4367 17.9073 11.2104 17.9043 10.981 17.9014C10.9542 17.9014 10.9244 17.9014 10.8976 17.8924C10.7874 17.8567 10.7844 17.8567 10.7695 17.9758C10.7427 17.9669 10.7457 17.9431 10.7457 17.9252C10.7397 17.8686 10.701 17.8448 10.6534 17.8358C10.2989 17.7524 10.01 17.5588 9.76575 17.2967C9.64065 17.1627 9.54236 17.0078 9.45598 16.844C9.37258 16.6861 9.3428 16.5163 9.3011 16.3466C9.26535 16.2066 9.27131 16.0636 9.27429 15.9236C9.28025 15.7211 9.33684 15.5274 9.4113 15.3368C9.47981 15.1581 9.56917 14.9913 9.69427 14.8483C9.9117 14.5952 10.1708 14.4045 10.4836 14.2794C10.7934 14.1543 11.1121 14.1454 11.4338 14.1782C11.6154 14.196 11.7912 14.2645 11.961 14.3479C12.1903 14.4611 12.3899 14.6041 12.5567 14.7947C12.7056 14.9645 12.8247 15.1521 12.9022 15.3666C12.932 15.45 12.9647 15.5334 12.9737 15.6228C12.9737 15.6466 12.9826 15.6704 13.0094 15.6794C13.0094 15.6972 13.0094 15.7181 13.0094 15.7359C13.0094 15.9325 13.0094 16.1291 13.0094 16.3257C12.9439 16.6474 12.8218 16.9423 12.6192 17.2044C12.5865 17.2461 12.5388 17.2729 12.515 17.3205V17.3146Z" fill="#FEBF2E"/>
<path d="M20.4706 15.9713C20.4319 15.9534 20.4021 15.9654 20.3723 15.9892C20.2949 16.0547 20.2175 16.1173 20.1281 16.1679C20.0328 16.2245 19.9345 16.2692 19.8362 16.3198C19.7468 16.3675 19.6426 16.3645 19.5532 16.4032C19.4162 16.4628 19.2762 16.433 19.1362 16.4479C19.1362 16.4062 19.1362 16.3645 19.1362 16.3228C19.1362 15.1165 19.1362 13.9131 19.1362 12.7068C19.3149 12.6919 19.4847 12.7247 19.6575 12.7753C19.866 12.8349 20.0536 12.9272 20.2294 13.0493C20.42 13.1774 20.5719 13.3442 20.7 13.5289C20.7923 13.6629 20.8578 13.8148 20.9115 13.9697C20.9919 14.202 21.0366 14.4373 21.0217 14.6816C21.0157 14.8037 20.98 14.9199 20.9561 15.042C20.9353 15.1373 20.9025 15.2267 20.8668 15.316C20.8191 15.4292 20.7596 15.5394 20.691 15.6407C20.6285 15.736 20.5511 15.8164 20.4766 15.8998C20.4528 15.9266 20.4587 15.9475 20.4647 15.9743L20.4706 15.9713Z" fill="#FEA63B"/>
<path d="M19.1392 12.7068C19.1392 13.9131 19.1392 15.1164 19.1392 16.3228C19.1392 16.3645 19.1392 16.4062 19.1392 16.4479C18.9367 16.4628 18.7371 16.43 18.5495 16.3615C18.3648 16.296 18.1772 16.2185 18.0282 16.0815C18.0014 16.0577 17.9627 16.0547 17.9389 16.0249C17.9031 15.9773 17.8555 15.9266 17.7959 16.0041C17.8287 15.9207 17.7751 15.876 17.7244 15.8164C17.5666 15.6258 17.4355 15.4173 17.361 15.176C17.2895 14.9437 17.2419 14.7084 17.2627 14.4641C17.2836 14.2527 17.3164 14.0412 17.4057 13.8476C17.5368 13.5646 17.7155 13.3204 17.9627 13.1238C18.1474 12.9749 18.3499 12.8647 18.5733 12.7961C18.755 12.7396 18.9427 12.6919 19.1392 12.7127V12.7068Z" fill="#FEBF2E"/>
<path d="M16.0925 18.0622C16.0925 18.0622 16.0896 18.086 16.0836 18.089C15.9704 18.1307 15.8632 18.1873 15.744 18.2141C15.7381 18.2141 15.7292 18.2141 15.7202 18.2141C15.8394 18.1545 15.9615 18.0979 16.0896 18.0652L16.0925 18.0622Z" fill="#FEF67F"/>
<path d="M14.195 18.2886C14.1086 18.3035 14.0312 18.2558 13.9507 18.2469C13.9388 18.2469 13.9329 18.229 13.9329 18.2171C14.0222 18.235 14.1146 18.2469 14.195 18.2886Z" fill="#FEF67F"/>
<path d="M17.7869 16.0695C17.7869 16.102 17.8017 16.1405 17.7573 16.1582C17.7425 16.1198 17.7662 16.0961 17.7869 16.0695Z" fill="#FEA63B"/>
<path d="M17.7453 16.2125C17.7512 16.2421 17.763 16.2746 17.7128 16.2805C17.7098 16.251 17.7068 16.2214 17.7453 16.2125Z" fill="#FEA63B"/>
<path d="M12.2737 22.9977C12.3213 22.9977 12.366 22.9948 12.4137 22.9948C14.6148 22.9948 16.813 22.9948 19.0142 22.9948C19.0559 22.9948 19.0976 22.9948 19.1393 22.9948C19.1393 23.7245 19.1393 24.4513 19.1393 25.181C19.1393 25.2644 19.0986 25.3061 19.0172 25.3061C16.962 25.3061 14.9038 25.3061 12.8485 25.3061C12.8158 25.3061 12.78 25.3061 12.7473 25.3061C12.7324 25.3061 12.7145 25.3061 12.6996 25.3031C12.6877 25.2704 12.6579 25.2734 12.6281 25.2734C12.4792 25.2197 12.3779 25.1155 12.3154 24.9725C12.2945 24.9219 12.2737 24.8683 12.2737 24.8087C12.2737 24.2041 12.2737 23.6024 12.2737 22.9977Z" fill="#FEBF2E"/>
<path d="M12.6277 25.2703C12.6543 25.2703 12.6839 25.2674 12.6986 25.2999C12.6691 25.3029 12.6425 25.3029 12.6277 25.2703Z" fill="#FEA63B"/>
</svg>
