<svg width="35" height="35" viewBox="0 0 35 35" fill="none" xmlns="http://www.w3.org/2000/svg">
<path d="M17.823 34.1634C8.39543 34.1634 0.789274 26.536 0.829751 17.0505C0.866854 7.64594 8.5607 0.129723 17.9208 0.163443C27.2337 0.197163 34.8331 7.81454 34.8298 17.1719C34.8264 26.5629 27.2169 34.1634 17.823 34.1634ZM5.724 24.9916C5.75435 25.0489 5.77796 25.1096 5.81507 25.1635C6.574 26.3067 7.47796 27.325 8.53372 28.195C11.6841 30.7847 15.3067 31.9211 19.3678 31.4962C23.0174 31.1151 26.0801 29.5168 28.5559 26.8023C29.6994 25.548 30.5797 24.125 31.2172 22.5536C32.0639 20.4697 32.3776 18.3049 32.2157 16.0659C32.1145 14.6226 31.7974 13.23 31.2678 11.8879C30.2897 9.40276 28.7246 7.35595 26.6232 5.71378C26.2589 5.43053 25.8946 5.14053 25.4663 4.9517C25.3921 4.89438 25.3246 4.82694 25.2436 4.77973C24.7782 4.52008 24.3093 4.25707 23.8202 4.03451C21.2803 2.88803 18.6258 2.48676 15.87 2.87117C12.4296 3.35337 9.52539 4.88426 7.16765 7.44362C6.12876 8.56987 5.30237 9.83775 4.67162 11.2338C3.66308 13.4694 3.25832 15.8163 3.43709 18.2577C3.55515 19.856 3.92955 21.4004 4.5738 22.8773C4.89761 23.6158 5.2484 24.3374 5.72737 24.9882L5.724 24.9916Z" fill="#383331"/>
<path d="M5.72777 24.9918C5.24542 24.341 4.89463 23.6194 4.57419 22.8809C3.92995 21.4073 3.55554 19.8629 3.43749 18.2612C3.25872 15.8199 3.66348 13.473 4.67201 11.2373C5.30277 9.83796 6.12915 8.57345 7.16804 7.4472C9.52578 4.88784 12.4266 3.35695 15.8704 2.87475C18.6296 2.49034 21.2807 2.89161 23.8206 4.0381C24.3097 4.26065 24.7752 4.52367 25.244 4.78331C25.325 4.82715 25.3924 4.89796 25.4667 4.95528C25.8208 5.60271 26.1885 6.24002 26.4752 6.92454C26.6573 7.3629 26.8563 7.80126 26.9474 8.27334C26.853 8.1823 26.7585 8.09463 26.6641 8.00358C25.7061 7.06279 24.6301 6.28048 23.426 5.68364C21.0413 4.50343 18.5216 4.0853 15.8873 4.47646C12.3355 5.00586 9.48868 6.74582 7.38054 9.64575C5.54225 12.1781 4.78332 15.0309 5.02618 18.1466C5.17459 20.0417 5.74126 21.8052 6.68908 23.4508C6.89483 23.8082 7.09384 24.1724 7.38054 24.4725C7.39404 24.486 7.4109 24.4995 7.42439 24.513L7.43114 24.5298L7.42102 24.513C7.42102 24.513 7.39404 24.4826 7.38054 24.4691C7.36031 24.3073 7.26586 24.1724 7.1984 24.0308C5.94364 21.4107 5.61646 18.6693 6.21011 15.8334C6.8105 12.9672 8.25415 10.5865 10.5073 8.71508C13.1855 6.48618 16.2887 5.5319 19.7528 5.79491C21.6079 5.93654 23.3484 6.4828 24.9607 7.41348C25.7702 7.88219 26.5494 8.39811 27.2105 9.06914C27.2206 9.11972 27.2274 9.16693 27.2409 9.21751C27.6254 10.772 27.7299 12.3467 27.5883 13.9417C27.4803 15.1725 27.2105 16.3729 26.7855 17.5363C26.148 19.2863 25.2103 20.8611 23.9657 22.2402C22.7075 23.6329 21.2403 24.7625 19.5369 25.5886C16.9835 26.8295 14.2952 27.2611 11.4855 26.9442C9.51566 26.7216 7.674 26.0978 5.9605 25.0963C5.8863 25.0525 5.80197 25.0255 5.72102 24.9918H5.72777Z" fill="#4C4644"/>
<path d="M26.9474 8.26661C26.8563 7.79453 26.6607 7.35954 26.4752 6.9178C26.1885 6.23666 25.8208 5.59597 25.4666 4.94855C25.895 5.13738 26.2593 5.42737 26.6236 5.71062C28.725 7.34942 30.29 9.39623 31.2682 11.8848C31.7978 13.2268 32.1148 14.6195 32.216 16.0627C32.3779 18.3051 32.0642 20.4699 31.2176 22.5505C30.5801 24.1218 29.6998 25.5414 28.5563 26.7992C26.0839 29.517 23.0178 31.112 19.3682 31.493C15.3071 31.9179 11.6879 30.7815 8.53409 28.1918C7.47833 27.3252 6.57437 26.3035 5.81544 25.1604C5.77833 25.1064 5.75472 25.0457 5.72437 24.9884C5.80532 25.0221 5.88964 25.0491 5.96385 25.0929C7.67397 26.0978 9.51901 26.7183 11.4888 26.9408C14.2986 27.2612 16.9869 26.8262 19.5402 25.5853C21.2402 24.7591 22.7075 23.6329 23.969 22.2369C25.2136 20.8577 26.1513 19.283 26.7888 17.5329C27.2138 16.3662 27.4837 15.1691 27.5916 13.9383C27.7333 12.3467 27.6287 10.7686 27.2442 9.21414C27.2307 9.16693 27.224 9.11635 27.2138 9.06577C27.5208 9.27821 27.7502 9.5682 28.0166 9.82448C28.1515 9.95261 28.2392 10.1313 28.4146 10.2156C28.4315 10.2662 28.4585 10.31 28.5091 10.337C28.5125 10.3404 28.5192 10.3438 28.5226 10.3471C28.5192 10.3438 28.5158 10.337 28.5125 10.3337C28.4855 10.2898 28.4585 10.2426 28.4315 10.1988C28.3843 10.1178 28.3404 10.0335 28.2898 9.95599C27.8986 9.34565 27.4263 8.80276 26.9474 8.25986V8.26661Z" fill="#5E5756"/>
<path d="M26.9474 8.26662C27.4263 8.80951 27.8985 9.35578 28.2898 9.96274C28.3404 10.0437 28.3843 10.1246 28.4315 10.2055C28.4247 10.2123 28.418 10.2156 28.4146 10.2224C28.2392 10.1347 28.1481 9.95937 28.0166 9.83123C27.7501 9.57496 27.5241 9.2816 27.2138 9.07253C26.5527 8.4015 25.7735 7.88558 24.964 7.41687C23.3517 6.48283 21.6079 5.93656 19.7561 5.79831C16.2886 5.53866 13.1855 6.48957 10.5107 8.71847C8.26085 10.5899 6.81383 12.9706 6.21343 15.8368C5.61978 18.6726 5.94359 21.4107 7.20172 24.0341C7.26918 24.1758 7.36363 24.3107 7.38387 24.4725C7.09716 24.1724 6.89815 23.8049 6.6924 23.4508C5.74458 21.8086 5.17791 20.0417 5.0295 18.1466C4.78664 15.0275 5.5422 12.1748 7.38387 9.64577C9.48863 6.74584 12.3388 5.00588 15.8906 4.47648C18.5249 4.08532 21.0446 4.50008 23.4293 5.68366C24.6335 6.2805 25.7095 7.05944 26.6674 8.0036C26.7618 8.09465 26.8563 8.18232 26.9507 8.27336V8.26662H26.9474Z" fill="#5E5756"/>
<path d="M7.96411 23.6868L7.97423 23.7003L7.96411 23.6835V23.6868Z" fill="#B69942"/>
<path d="M7.92012 23.6362C7.92012 23.6362 7.95048 23.67 7.96397 23.6834C7.96397 23.6834 7.93024 23.6531 7.91675 23.6396V23.6362H7.92012Z" fill="#B69942"/>
<path d="M20.3585 14.9968C20.3883 15.0414 20.3913 15.098 20.4032 15.1457C20.4449 15.3036 20.5104 15.4525 20.573 15.6014C20.6206 15.7176 20.6772 15.8337 20.7517 15.935C20.85 16.0661 20.9453 16.2031 21.0555 16.3252C21.2134 16.5039 21.3891 16.6588 21.5797 16.7988C21.6899 16.8792 21.8091 16.9477 21.9312 17.0103C22.0593 17.0758 22.1933 17.1294 22.3244 17.186C22.381 17.2098 22.4405 17.2307 22.5061 17.2426C22.5746 17.2575 22.6431 17.2754 22.7116 17.2962C22.7563 17.3111 22.8009 17.3171 22.8456 17.3141C23.1018 17.3766 23.3639 17.3617 23.623 17.3498C23.7541 17.3439 23.8851 17.3141 24.0132 17.2903C24.1294 17.2664 24.2426 17.2337 24.3558 17.1979C24.4898 17.1532 24.6179 17.0907 24.746 17.0311C24.8413 16.9864 24.9336 16.9388 25.02 16.8822C25.2374 16.7362 25.437 16.5694 25.6187 16.3818C25.6306 16.3699 25.6455 16.352 25.6395 16.3282C25.8004 16.4741 25.9553 16.632 26.1578 16.7214C26.2382 16.7571 26.3097 16.8048 26.3961 16.8256C26.5093 16.8524 26.6195 16.8882 26.7356 16.912C26.9084 16.9477 27.0812 16.9358 27.2509 16.9269C27.3909 16.9179 27.3879 16.903 27.3969 17.0401C27.3969 17.0401 27.3969 17.046 27.3969 17.049C27.4147 17.2158 27.3671 17.3766 27.3462 17.5375C27.3284 17.6894 27.3105 17.8413 27.2748 17.9902C27.2331 18.157 27.2241 18.3298 27.1735 18.4966C27.1497 18.577 27.1348 18.6693 27.1229 18.7587C27.1139 18.8481 27.0812 18.9344 27.0603 19.0238C27.0454 19.0893 27.0305 19.1578 27.0156 19.2234C27.0007 19.2948 26.9799 19.3723 26.965 19.4438C26.9531 19.5063 26.9441 19.5778 26.9054 19.6374C26.8875 19.6642 26.8965 19.691 26.8935 19.7208C26.8756 19.7416 26.8548 19.7625 26.8607 19.7952C26.8488 19.8101 26.8518 19.828 26.8518 19.8459C26.8339 19.8786 26.8071 19.9054 26.8161 19.9501C26.8131 20.0186 26.7744 20.0782 26.7565 20.1437C26.7297 20.248 26.6939 20.3493 26.6582 20.4505C26.6195 20.5637 26.5778 20.6769 26.5361 20.7871C26.4914 20.9003 26.4378 21.0135 26.3901 21.1267C26.3127 21.3084 26.2233 21.4841 26.131 21.6598C26.0625 21.7879 25.994 21.916 25.9136 22.0381C25.8808 22.0381 25.848 22.0321 25.8123 22.0321C23.5515 22.0321 21.2878 22.0321 19.0271 22.0321C19.0271 19.9084 19.0271 17.7817 19.0271 15.658C19.0271 15.6014 19.0271 15.5448 19.0271 15.4882C19.1671 15.4763 19.3071 15.5061 19.4441 15.4436C19.5305 15.4048 19.6347 15.4078 19.7271 15.3601C19.8254 15.3095 19.9236 15.2648 20.019 15.2082C20.1083 15.1576 20.1858 15.0951 20.2632 15.0295C20.293 15.0057 20.3258 14.9938 20.3615 15.0117L20.3585 14.9968Z" fill="#FEBF2E"/>
<path d="M19.0268 22.0173C21.2876 22.0173 23.5513 22.0173 25.812 22.0173C25.8448 22.0173 25.8775 22.0202 25.9133 22.0232C25.9014 22.1096 25.9043 22.199 25.9043 22.2853C25.9043 22.7559 25.9043 23.2266 25.9043 23.6942C25.9043 23.8044 25.9043 23.9146 25.8507 24.0159C25.7882 24.138 25.6958 24.2333 25.5707 24.2959C25.4456 24.3584 25.3116 24.3703 25.1716 24.3703C24.278 24.3703 23.3845 24.3644 22.4909 24.3703C22.2705 24.3703 22.0531 24.3733 21.8326 24.3822C21.8029 24.3554 21.7641 24.3674 21.7284 24.3674C20.8855 24.3674 20.0425 24.3733 19.1996 24.3674C18.1422 24.3584 17.0848 24.3674 16.0274 24.3614C15.0623 24.3614 14.1003 24.3614 13.1352 24.3614C13.1025 24.3614 13.0697 24.3644 13.0339 24.3674C12.9476 24.3525 12.8582 24.3644 12.7718 24.3584C12.7242 24.3584 12.6735 24.3584 12.6318 24.3257C12.6646 24.3257 12.7003 24.3257 12.7331 24.3257C14.7883 24.3257 16.8465 24.3257 18.9017 24.3257C18.9831 24.3257 19.0238 24.284 19.0238 24.2006C19.0238 23.4708 19.0238 22.744 19.0238 22.0143L19.0268 22.0173Z" fill="#FEA63B"/>
<path d="M27.3942 17.0401C27.3942 17.0401 27.3942 17.0341 27.3942 17.0311C27.3852 16.8941 27.3882 16.909 27.2482 16.918C27.0785 16.9269 26.9057 16.9388 26.7329 16.9031C26.6168 16.8792 26.5066 16.8465 26.3934 16.8167C26.31 16.7958 26.2355 16.7482 26.1551 16.7124C25.9496 16.6231 25.7977 16.4652 25.6368 16.3193C25.5802 16.2508 25.5236 16.1852 25.467 16.1167C25.4611 16.0631 25.4313 16.0274 25.3896 15.9946C25.3509 15.8993 25.2973 15.8099 25.2645 15.7116C25.2139 15.5657 25.1632 15.4197 25.1543 15.2619C25.1543 15.1219 25.1543 14.9819 25.1543 14.8449C25.1692 14.6542 25.2288 14.4755 25.3032 14.2968C25.4164 14.0258 25.5892 13.7994 25.8096 13.6117C25.9377 13.5045 26.0777 13.4152 26.2266 13.3377C26.2593 13.3437 26.2832 13.3288 26.301 13.302C26.3159 13.302 26.3308 13.296 26.3487 13.293C26.3844 13.302 26.4023 13.2752 26.4261 13.2573C26.4976 13.2424 26.5691 13.2215 26.6406 13.2096C26.8938 13.162 27.147 13.162 27.4001 13.2096C27.5937 13.2454 27.7754 13.3169 27.9452 13.4152C28.258 13.5939 28.4963 13.8441 28.669 14.1568C28.6958 14.2015 28.7167 14.2521 28.7405 14.2968C28.7375 14.3326 28.7435 14.3623 28.7792 14.3772C28.7792 14.3921 28.7822 14.407 28.7852 14.4219C28.7733 14.4547 28.8001 14.4725 28.815 14.4934C28.8239 14.5887 28.8567 14.681 28.8716 14.7793C28.8984 14.961 28.9013 15.1397 28.8716 15.3214C28.8567 15.4108 28.8328 15.4972 28.815 15.5836C28.7941 15.6848 28.7465 15.7801 28.7018 15.8725C28.6124 16.0482 28.5082 16.215 28.3592 16.352C28.1924 16.5069 28.0256 16.6588 27.8112 16.7452C27.7188 16.7809 27.6325 16.8286 27.5372 16.8494C27.4806 16.8614 27.421 16.8792 27.4269 16.9597C27.4269 16.9865 27.421 17.0162 27.3942 17.0341V17.0401Z" fill="#FEA63B"/>
<path d="M26.8162 19.9345C26.8073 19.8931 26.834 19.8635 26.8517 19.831C26.8665 19.8753 26.8635 19.9108 26.8162 19.9345Z" fill="#772A0C"/>
<path d="M26.8606 19.7828C26.8547 19.7503 26.8754 19.7296 26.8932 19.7089C26.8932 19.7385 26.905 19.771 26.8606 19.7828Z" fill="#772A0C"/>
<path d="M19.0241 15.4704C19.0241 15.527 19.0241 15.5836 19.0241 15.6402C19.0241 17.7639 19.0241 19.8906 19.0241 22.0143C18.9824 22.0143 18.9407 22.0143 18.899 22.0143C16.6978 22.0143 14.4996 22.0143 12.2985 22.0143C12.2508 22.0143 12.2061 22.0143 12.1585 22.0173C12.0929 21.9875 12.081 21.919 12.0512 21.8684C11.9232 21.6539 11.813 21.4305 11.7057 21.2042C11.6223 21.0284 11.533 20.8527 11.4794 20.665C11.4257 20.4833 11.3543 20.3076 11.3036 20.1259C11.2411 19.9085 11.1785 19.694 11.116 19.4766C11.0475 19.2383 10.9939 18.997 10.9402 18.7587C10.9194 18.6694 10.9015 18.58 10.8896 18.4877C10.8777 18.3924 10.8479 18.3 10.8271 18.2047C10.8092 18.1184 10.8032 18.032 10.7854 17.9456C10.7645 17.8413 10.7496 17.7341 10.7317 17.6269C10.7109 17.4869 10.702 17.3469 10.6692 17.2099C10.6513 17.1414 10.6603 17.0669 10.6543 16.9925C10.6692 16.8763 10.6692 16.8763 10.7824 16.9091C10.8092 16.918 10.839 16.918 10.8658 16.918C11.0951 16.921 11.3215 16.921 11.5449 16.8495C11.7325 16.7899 11.9053 16.7095 12.0721 16.6082C12.1972 16.5308 12.2925 16.4235 12.3997 16.3312C12.6291 16.5993 12.9091 16.8108 13.2129 16.9865C13.3708 17.0759 13.5376 17.1503 13.7163 17.201C13.749 17.2099 13.7788 17.2337 13.8146 17.2337C13.8146 17.2486 13.8205 17.2635 13.8324 17.2635C13.9158 17.2724 13.9903 17.3201 14.0767 17.3052C14.2167 17.3052 14.3537 17.3529 14.4967 17.3529C14.6843 17.3529 14.8749 17.3648 15.0596 17.338C15.2204 17.3171 15.3843 17.3052 15.5332 17.2367C15.554 17.2278 15.5779 17.2307 15.6017 17.2278C15.6077 17.2278 15.6166 17.2307 15.6255 17.2278C15.7447 17.201 15.8519 17.1444 15.9651 17.1027C15.971 17.1027 15.971 17.0848 15.974 17.0759C15.974 17.0759 15.977 17.0729 15.98 17.0699C16.0187 17.0818 16.0425 17.049 16.0664 17.0342C16.1319 16.9954 16.2093 16.9805 16.26 16.918C16.2659 16.918 16.2689 16.918 16.2749 16.918C16.3225 16.9031 16.3612 16.8763 16.397 16.8405C16.5221 16.7691 16.6323 16.6737 16.7395 16.5755C16.8706 16.4504 17.0046 16.3282 17.1178 16.1853C17.2071 16.0721 17.2846 15.95 17.362 15.8249C17.4514 15.6759 17.5169 15.5151 17.5884 15.3572C17.5973 15.3393 17.5973 15.3185 17.6033 15.2976C17.651 15.2917 17.642 15.2589 17.6361 15.2291C17.639 15.2113 17.642 15.1934 17.645 15.1755C17.6897 15.1577 17.6778 15.1189 17.6748 15.0862C17.6748 15.0623 17.6778 15.0415 17.6807 15.0177C17.7403 14.9402 17.785 14.9909 17.8237 15.0385C17.8475 15.0713 17.8863 15.0713 17.9131 15.0951C18.062 15.2321 18.2496 15.3066 18.4343 15.3751C18.622 15.4436 18.8215 15.4764 19.0241 15.4615V15.4704Z" fill="#FEF67F"/>
<path d="M12.4027 16.3401C12.2925 16.4324 12.1971 16.5397 12.075 16.6171C11.9082 16.7184 11.7355 16.7988 11.5478 16.8584C11.3244 16.9328 11.0981 16.9299 10.8687 16.9269C10.8419 16.9269 10.8121 16.9269 10.7853 16.9179C10.6751 16.8822 10.6721 16.8822 10.6572 17.0013C10.6304 16.9924 10.6334 16.9686 10.6334 16.9507C10.6274 16.8941 10.5887 16.8703 10.5411 16.8614C10.1866 16.778 9.89769 16.5843 9.65345 16.3222C9.52835 16.1882 9.43006 16.0333 9.34368 15.8695C9.26028 15.7116 9.23049 15.5418 9.18879 15.3721C9.15305 15.2321 9.15901 15.0891 9.16198 14.9491C9.16794 14.7466 9.22453 14.553 9.299 14.3623C9.36751 14.1836 9.45686 14.0168 9.58196 13.8738C9.7994 13.6207 10.0585 13.43 10.3713 13.3049C10.6811 13.1798 10.9998 13.1709 11.3214 13.2037C11.5031 13.2215 11.6789 13.29 11.8487 13.3734C12.078 13.4866 12.2776 13.6296 12.4444 13.8202C12.5933 13.99 12.7124 14.1777 12.7899 14.3921C12.8197 14.4755 12.8524 14.5589 12.8614 14.6483C12.8614 14.6721 12.8703 14.6959 12.8971 14.7049C12.8971 14.7227 12.8971 14.7436 12.8971 14.7615C12.8971 14.958 12.8971 15.1546 12.8971 15.3512C12.8316 15.6729 12.7095 15.9678 12.5069 16.2299C12.4742 16.2716 12.4265 16.2984 12.4027 16.3461V16.3401Z" fill="#FEBF2E"/>
<path d="M20.3583 14.9968C20.3196 14.979 20.2898 14.9909 20.26 15.0147C20.1826 15.0802 20.1051 15.1428 20.0158 15.1934C19.9205 15.25 19.8222 15.2947 19.7239 15.3453C19.6345 15.393 19.5303 15.39 19.4409 15.4287C19.3039 15.4883 19.1639 15.4585 19.0239 15.4734C19.0239 15.4317 19.0239 15.39 19.0239 15.3483C19.0239 14.142 19.0239 12.9386 19.0239 11.7323C19.2026 11.7174 19.3724 11.7502 19.5452 11.8008C19.7537 11.8604 19.9413 11.9527 20.1171 12.0748C20.3077 12.2029 20.4596 12.3697 20.5877 12.5544C20.68 12.6884 20.7455 12.8403 20.7992 12.9952C20.8796 13.2276 20.9243 13.4629 20.9094 13.7071C20.9034 13.8292 20.8677 13.9454 20.8438 14.0675C20.823 14.1628 20.7902 14.2522 20.7545 14.3415C20.7068 14.4547 20.6472 14.5649 20.5787 14.6662C20.5162 14.7615 20.4387 14.8419 20.3643 14.9253C20.3405 14.9521 20.3464 14.973 20.3524 14.9998L20.3583 14.9968Z" fill="#FEA63B"/>
<path d="M19.0269 11.7323C19.0269 12.9386 19.0269 14.142 19.0269 15.3483C19.0269 15.39 19.0269 15.4317 19.0269 15.4734C18.8244 15.4883 18.6248 15.4555 18.4372 15.387C18.2525 15.3215 18.0649 15.244 17.9159 15.107C17.8891 15.0832 17.8504 15.0802 17.8266 15.0504C17.7908 15.0028 17.7432 14.9521 17.6836 15.0296C17.7164 14.9462 17.6628 14.9015 17.6121 14.8419C17.4543 14.6513 17.3232 14.4428 17.2487 14.2015C17.1772 13.9692 17.1296 13.7339 17.1504 13.4897C17.1713 13.2782 17.2041 13.0667 17.2934 12.8731C17.4245 12.5901 17.6032 12.3459 17.8504 12.1493C18.0351 12.0004 18.2376 11.8902 18.461 11.8217C18.6427 11.7651 18.8304 11.7174 19.0269 11.7383V11.7323Z" fill="#FEBF2E"/>
<path d="M15.9802 17.0877C15.9802 17.0877 15.9773 17.1115 15.9713 17.1145C15.8581 17.1562 15.7509 17.2128 15.6317 17.2396C15.6258 17.2396 15.6168 17.2396 15.6079 17.2396C15.7271 17.18 15.8492 17.1234 15.9773 17.0907L15.9802 17.0877Z" fill="#FEF67F"/>
<path d="M14.0827 17.3141C13.9963 17.329 13.9188 17.2813 13.8384 17.2724C13.8265 17.2724 13.8206 17.2545 13.8206 17.2426C13.9099 17.2605 14.0022 17.2724 14.0827 17.3141Z" fill="#FEF67F"/>
<path d="M17.6746 15.095C17.6746 15.1276 17.6893 15.166 17.645 15.1837C17.6302 15.1453 17.6539 15.1216 17.6746 15.095Z" fill="#FEA63B"/>
<path d="M17.633 15.238C17.6389 15.2676 17.6507 15.3001 17.6005 15.306C17.5975 15.2765 17.5945 15.2469 17.633 15.238Z" fill="#FEA63B"/>
<path d="M12.1614 22.0232C12.209 22.0232 12.2537 22.0203 12.3014 22.0203C14.5025 22.0203 16.7007 22.0203 18.9019 22.0203C18.9436 22.0203 18.9853 22.0203 19.027 22.0203C19.027 22.75 19.027 23.4768 19.027 24.2065C19.027 24.2899 18.9863 24.3316 18.9049 24.3316C16.8496 24.3316 14.7915 24.3316 12.7362 24.3316C12.7035 24.3316 12.6677 24.3316 12.635 24.3316C12.6201 24.3316 12.6022 24.3316 12.5873 24.3287C12.5754 24.2959 12.5456 24.2989 12.5158 24.2989C12.3669 24.2453 12.2656 24.141 12.2031 23.998C12.1822 23.9474 12.1614 23.8938 12.1614 23.8342C12.1614 23.2296 12.1614 22.6279 12.1614 22.0232Z" fill="#FEBF2E"/>
<path d="M12.5154 24.2958C12.542 24.2958 12.5716 24.2929 12.5863 24.3254C12.5568 24.3284 12.5302 24.3284 12.5154 24.2958Z" fill="#FEA63B"/>
</svg>
