<svg width="33" height="34" viewBox="0 0 33 34" fill="none" xmlns="http://www.w3.org/2000/svg">
<path d="M16.4289 33.4344C7.58093 33.4344 0.442388 26.1327 0.480376 17.0523C0.515198 8.0494 7.73605 0.854181 16.5207 0.886461C25.2611 0.918741 32.3933 8.2108 32.3901 17.1685C32.387 26.1585 25.2453 33.4344 16.4289 33.4344ZM5.07373 24.6542C5.10223 24.7091 5.12438 24.7672 5.15921 24.8189C5.87148 25.9132 6.71987 26.888 7.71072 27.7208C10.6674 30.2 14.0673 31.2878 17.8788 30.8811C21.304 30.5163 24.1784 28.9862 26.502 26.3877C27.5752 25.1869 28.4014 23.8247 28.9997 22.3204C29.7943 20.3255 30.0887 18.2531 29.9368 16.1097C29.8418 14.7281 29.5442 13.395 29.0472 12.1102C28.1292 9.73119 26.6603 7.77179 24.6881 6.19975C24.3462 5.9286 24.0043 5.65099 23.6023 5.47022C23.5326 5.41535 23.4693 5.35079 23.3934 5.3056C22.9565 5.05704 22.5165 4.80526 22.0575 4.59221C19.6737 3.49469 17.1823 3.11055 14.596 3.47855C11.367 3.94015 8.64142 5.40567 6.42863 7.85572C5.45361 8.93387 4.67803 10.1476 4.08605 11.484C3.13952 13.6242 2.75964 15.8709 2.92742 18.2079C3.03822 19.738 3.38961 21.2164 3.99425 22.6303C4.29815 23.3372 4.62738 24.028 5.0769 24.651L5.07373 24.6542Z" fill="#14e8c5"/>
<path d="M5.07712 24.6545C4.62443 24.0314 4.2952 23.3407 3.99447 22.6337C3.38983 21.2231 3.03844 19.7447 2.92764 18.2114C2.75986 15.8743 3.13974 13.6276 4.08627 11.4874C4.67825 10.1478 5.45383 8.93731 6.42885 7.85916C8.64164 5.4091 11.3641 3.94359 14.5962 3.48198C17.1857 3.11399 19.6739 3.49812 22.0577 4.59564C22.5167 4.80869 22.9536 5.06048 23.3936 5.30903C23.4696 5.351 23.5329 5.41878 23.6025 5.47366C23.9349 6.09344 24.28 6.70353 24.549 7.35881C24.72 7.77845 24.9068 8.1981 24.9922 8.65002C24.9036 8.56286 24.815 8.47893 24.7263 8.39178C23.8273 7.49116 22.8174 6.74227 21.6873 6.17091C19.4492 5.04111 17.0844 4.64084 14.6121 5.01528C11.2786 5.52208 8.60682 7.18773 6.62829 9.96381C4.90301 12.388 4.19074 15.1189 4.41866 18.1016C4.55795 19.9157 5.08978 21.604 5.97933 23.1793C6.17244 23.5214 6.35921 23.87 6.62829 24.1573C6.64095 24.1703 6.65678 24.1832 6.66944 24.1961L6.67577 24.2122L6.66628 24.1961C6.66628 24.1961 6.64095 24.167 6.62829 24.1541C6.60929 23.9992 6.52066 23.8701 6.45734 23.7345C5.27972 21.2263 4.97265 18.6019 5.52981 15.8872C6.09329 13.1434 7.44819 10.8644 9.56285 9.07288C12.0764 6.93917 14.9888 6.02565 18.2399 6.27743C19.981 6.41301 21.6145 6.93595 23.1277 7.82688C23.8874 8.27557 24.6187 8.76945 25.2392 9.41182C25.2486 9.46024 25.255 9.50544 25.2676 9.55386C25.6285 11.042 25.7267 12.5494 25.5937 14.0763C25.4924 15.2545 25.2391 16.4037 24.8403 17.5173C24.242 19.1927 23.3619 20.7002 22.1938 22.0204C21.013 23.3536 19.6359 24.4349 18.0373 25.2258C15.6409 26.4137 13.1179 26.8269 10.4809 26.5235C8.63215 26.3104 6.9037 25.7132 5.29555 24.7545C5.22591 24.7126 5.14676 24.6867 5.07079 24.6545H5.07712Z" fill="#FFFCF7"/>
<path d="M24.9922 8.6434C24.9068 8.19148 24.7232 7.77506 24.5491 7.3522C24.28 6.70014 23.9349 6.08682 23.6025 5.46704C24.0046 5.64781 24.3465 5.92542 24.6883 6.19657C26.6605 7.76538 28.1294 9.72478 29.0474 12.107C29.5445 13.3918 29.842 14.725 29.937 16.1065C30.0889 18.2532 29.7945 20.3255 29 22.3172C28.4017 23.8215 27.5754 25.1805 26.5023 26.3845C24.1818 28.9863 21.3043 30.5131 17.879 30.8779C14.0676 31.2846 10.6708 30.1968 7.71096 27.7177C6.72011 26.8881 5.87172 25.91 5.15945 24.8157C5.12462 24.764 5.10247 24.7059 5.07397 24.6511C5.14995 24.6833 5.22909 24.7092 5.29874 24.7511C6.90372 25.7131 8.63533 26.307 10.4841 26.5201C13.1211 26.8267 15.6441 26.4103 18.0405 25.2224C19.636 24.4316 21.013 23.3534 22.197 22.017C23.3651 20.6968 24.2452 19.1893 24.8435 17.5139C25.2423 16.3971 25.4956 15.2511 25.5969 14.0729C25.7298 12.5493 25.6317 11.0386 25.2708 9.55047C25.2582 9.50527 25.2518 9.45685 25.2423 9.40843C25.5304 9.6118 25.7457 9.88941 25.9958 10.1347C26.1224 10.2574 26.2047 10.4285 26.3693 10.5092C26.3851 10.5576 26.4105 10.5996 26.4579 10.6254C26.4611 10.6286 26.4674 10.6318 26.4706 10.6351C26.4674 10.6318 26.4643 10.6254 26.4611 10.6222C26.4358 10.5802 26.4105 10.535 26.3851 10.493C26.3408 10.4156 26.2997 10.3349 26.2522 10.2606C25.885 9.67636 25.4418 9.15665 24.9922 8.63694V8.6434Z" fill="#EEE5D8"/>
<path d="M24.9922 8.64339C25.4417 9.1631 25.8849 9.68603 26.2521 10.2671C26.2996 10.3445 26.3408 10.422 26.3851 10.4995C26.3788 10.5059 26.3724 10.5092 26.3693 10.5156C26.2046 10.4317 26.1192 10.2638 25.9957 10.1412C25.7456 9.89585 25.5335 9.61502 25.2423 9.41488C24.6218 8.77251 23.8906 8.27862 23.1308 7.82993C21.6176 6.93577 19.981 6.41284 18.243 6.28049C14.9887 6.03193 12.0763 6.94223 9.56599 9.07594C7.4545 10.8675 6.09643 13.1465 5.53295 15.8903C4.97579 18.605 5.2797 21.2261 6.46048 23.7375C6.5238 23.8731 6.61244 24.0022 6.63143 24.1572C6.36235 23.8699 6.17558 23.518 5.98247 23.1791C5.09292 21.607 4.56109 19.9156 4.42181 18.1014C4.19388 15.1155 4.90298 12.3846 6.63143 9.96364C8.6068 7.18756 11.2818 5.52191 14.6152 5.01511C17.0876 4.64066 19.4523 5.03771 21.6904 6.17074C22.8206 6.74209 23.8304 7.48776 24.7295 8.3916C24.8181 8.47876 24.9067 8.56269 24.9954 8.64984V8.64339H24.9922Z" fill="#C4B5A1"/>
<path d="M7.17554 23.4051L7.18537 23.4184L7.17554 23.4017V23.4051Z" fill="#B69942"/>
<path d="M7.13452 23.3568C7.13452 23.3568 7.1631 23.3892 7.17581 23.4021C7.17581 23.4021 7.14405 23.373 7.13135 23.3601V23.3568H7.13452Z" fill="#B69942"/>
<path d="M28.5091 8.58545C28.5375 8.6304 28.5658 8.67856 28.591 8.72352H28.5878C28.5375 8.70104 28.5091 8.65288 28.4902 8.6015C28.4965 8.59508 28.5028 8.59187 28.5091 8.58545Z" fill="#B69942"/>
<path d="M28.5914 8.72437C28.5914 8.72437 28.598 8.73444 28.6013 8.7378C28.5947 8.73444 28.5914 8.73108 28.5881 8.72773H28.5914V8.72437Z" fill="#B69942"/>
</svg>
