<svg width="33" height="34" viewBox="0 0 33 34" fill="none" xmlns="http://www.w3.org/2000/svg">
<path d="M16.6731 33.1721C7.82507 33.1721 0.686528 25.8704 0.724516 16.79C0.759338 7.78713 7.98019 0.591913 16.7649 0.624193C25.5052 0.656473 32.6374 7.94853 32.6343 16.9062C32.6311 25.8962 25.4894 33.1721 16.6731 33.1721ZM5.31788 24.392C5.34637 24.4469 5.36853 24.505 5.40335 24.5566C6.11562 25.6509 6.96401 26.6258 7.95486 27.4586C10.9116 29.9377 14.3115 31.0255 18.1229 30.6188C21.5482 30.254 24.4226 28.724 26.7462 26.1254C27.8193 24.9246 28.6456 23.5624 29.2439 22.0581C30.0384 20.0632 30.3328 17.9908 30.1809 15.8475C30.0859 14.4659 29.7884 13.1327 29.2913 11.848C28.3733 9.46892 26.9044 7.50952 24.9322 5.93749C24.5904 5.66633 24.2485 5.38872 23.8464 5.20796C23.7768 5.15308 23.7135 5.08852 23.6375 5.04333C23.2006 4.79477 22.7606 4.54299 22.3016 4.32994C19.9179 3.23242 17.4265 2.84829 14.8402 3.21628C11.6112 3.67788 8.88556 5.1434 6.67277 7.59345C5.69775 8.6716 4.92217 9.88533 4.33019 11.2217C3.38366 13.3619 3.00378 15.6086 3.17156 17.9457C3.28236 19.4757 3.63375 20.9542 4.23839 22.368C4.54229 23.075 4.87152 23.7657 5.32104 24.3888L5.31788 24.392Z" fill="#C1B08F"/>
<path d="M5.32126 24.3922C4.86857 23.7692 4.53934 23.0784 4.23861 22.3715C3.63397 20.9608 3.28258 19.4824 3.17178 17.9491C3.004 15.612 3.38388 13.3653 4.33041 11.2252C4.92239 9.88554 5.69797 8.67504 6.67299 7.59689C8.88578 5.14683 11.6082 3.68132 14.8404 3.21971C17.4299 2.85172 19.9181 3.23585 22.3018 4.33338C22.7608 4.54642 23.1977 4.79821 23.6377 5.04676C23.7137 5.08873 23.777 5.15652 23.8467 5.21139C24.179 5.83117 24.5241 6.44126 24.7932 7.09655C24.9641 7.51619 25.1509 7.93583 25.2364 8.38775C25.1477 8.30059 25.0591 8.21666 24.9705 8.12951C24.0714 7.22889 23.0616 6.48 21.9314 5.90864C19.6933 4.77884 17.3286 4.37857 14.8562 4.75302C11.5228 5.25981 8.85096 6.92546 6.87243 9.70155C5.14715 12.1258 4.43488 14.8567 4.6628 17.8393C4.80209 19.6535 5.33392 21.3417 6.22347 22.917C6.41658 23.2592 6.60335 23.6078 6.87243 23.8951C6.88509 23.908 6.90092 23.9209 6.91358 23.9338L6.91991 23.9499L6.91042 23.9338C6.91042 23.9338 6.88509 23.9048 6.87243 23.8918C6.85344 23.7369 6.7648 23.6078 6.70148 23.4722C5.52386 20.964 5.21679 18.3397 5.77395 15.6249C6.33743 12.8811 7.69233 10.6022 9.80699 8.81062C12.3205 6.67691 15.2329 5.76338 18.484 6.01517C20.2251 6.15074 21.8586 6.67368 23.3718 7.56461C24.1316 8.0133 24.8628 8.50718 25.4833 9.14956C25.4928 9.19798 25.4991 9.24317 25.5118 9.29159C25.8727 10.7797 25.9708 12.2872 25.8378 13.814C25.7365 14.9922 25.4833 16.1414 25.0844 17.2551C24.4861 18.9304 23.6061 20.4379 22.4379 21.7581C21.2571 23.0913 19.8801 24.1727 18.2814 24.9635C15.885 26.1514 13.362 26.5646 10.725 26.2612C8.87629 26.0482 7.14784 25.451 5.53969 24.4923C5.47005 24.4503 5.3909 24.4245 5.31493 24.3922H5.32126Z" fill="#FFFCF7"/>
<path d="M25.2364 8.38113C25.1509 7.92921 24.9673 7.5128 24.7932 7.08993C24.5241 6.43787 24.1791 5.82455 23.8467 5.20477C24.2487 5.38554 24.5906 5.66315 24.9325 5.9343C26.9047 7.50311 28.3735 9.46251 29.2916 11.8448C29.7886 13.1295 30.0862 14.4627 30.1811 15.8443C30.3331 17.9909 30.0387 20.0633 29.2441 22.0549C28.6458 23.5592 27.8196 24.9182 26.7464 26.1222C24.426 28.724 21.5484 30.2508 18.1232 30.6156C14.3117 31.0223 10.915 29.9345 7.9551 27.4554C6.96425 26.6258 6.11586 25.6477 5.40359 24.5534C5.36877 24.5018 5.34661 24.4437 5.31812 24.3888C5.39409 24.4211 5.47323 24.4469 5.54288 24.4889C7.14786 25.4508 8.87947 26.0448 10.7282 26.2578C13.3652 26.5645 15.8882 26.1481 18.2846 24.9602C19.8801 24.1693 21.2572 23.0911 22.4411 21.7547C23.6092 20.4345 24.4893 18.927 25.0876 17.2517C25.4865 16.1348 25.7397 14.9889 25.841 13.8106C25.974 12.287 25.8758 10.7763 25.515 9.2882C25.5023 9.243 25.496 9.19458 25.4865 9.14616C25.7745 9.34953 25.9898 9.62714 26.2399 9.87247C26.3665 9.99513 26.4488 10.1662 26.6134 10.2469C26.6293 10.2953 26.6546 10.3373 26.7021 10.3631C26.7052 10.3664 26.7116 10.3696 26.7147 10.3728C26.7116 10.3696 26.7084 10.3631 26.7052 10.3599C26.6799 10.3179 26.6546 10.2727 26.6293 10.2308C26.585 10.1533 26.5438 10.0726 26.4963 9.99836C26.1291 9.41409 25.6859 8.89438 25.2364 8.37467V8.38113Z" fill="#EEE5D8"/>
<path d="M25.2363 8.38112C25.6859 8.90083 26.1291 9.42376 26.4963 10.0048C26.5438 10.0823 26.5849 10.1597 26.6292 10.2372C26.6229 10.2437 26.6166 10.2469 26.6134 10.2534C26.4488 10.1694 26.3633 10.0016 26.2399 9.87891C25.9898 9.63358 25.7777 9.35275 25.4864 9.15261C24.866 8.51024 24.1347 8.01636 23.3749 7.56766C21.8618 6.67351 20.2251 6.15057 18.4872 6.01822C15.2329 5.76967 12.3205 6.67996 9.81013 8.81367C7.69864 10.6052 6.34058 12.8842 5.77709 15.628C5.21993 18.3427 5.52384 20.9639 6.70463 23.4753C6.76794 23.6108 6.85658 23.74 6.87557 23.8949C6.60649 23.6076 6.41972 23.2558 6.22661 22.9168C5.33706 21.3448 4.80523 19.6533 4.66595 17.8392C4.43802 14.8533 5.14713 12.1224 6.87557 9.70137C8.85094 6.92529 11.5259 5.25964 14.8593 4.75285C17.3317 4.3784 19.6965 4.77544 21.9346 5.90847C23.0647 6.47983 24.0745 7.2255 24.9736 8.12934C25.0622 8.21649 25.1509 8.30042 25.2395 8.38758V8.38112H25.2363Z" fill="#C4B5A1"/>
<path d="M7.41968 23.1428L7.42951 23.1562L7.41968 23.1395V23.1428Z" fill="#B69942"/>
<path d="M7.37866 23.0945C7.37866 23.0945 7.40724 23.1269 7.41995 23.1399C7.41995 23.1399 7.38819 23.1107 7.37549 23.0978V23.0945H7.37866Z" fill="#B69942"/>
<path d="M28.7533 8.32318C28.7816 8.36813 28.8099 8.4163 28.8351 8.46125H28.832C28.7816 8.43877 28.7533 8.39061 28.7344 8.33924C28.7407 8.33281 28.747 8.3296 28.7533 8.32318Z" fill="#B69942"/>
<path d="M28.8356 8.4621C28.8356 8.4621 28.8422 8.47218 28.8455 8.47554C28.8389 8.47218 28.8356 8.46882 28.8323 8.46546H28.8356V8.4621Z" fill="#B69942"/>
<path d="M28.1312 13.8495C27.3723 14.3418 27.0485 15.1073 26.7888 15.9301C26.4818 16.8945 26.1783 17.8555 25.814 18.7996C25.2878 20.1552 24.9134 21.5276 25.0854 23.0012C25.1596 23.6655 24.9808 23.9824 24.2118 23.9757C19.5739 23.9453 14.9394 23.9521 10.3015 23.9723C9.65386 23.9723 9.36715 23.7835 9.42786 23.1057C9.70445 20.1012 8.06517 17.5756 7.32648 14.8274C7.23203 14.4734 6.88798 14.4059 6.69909 14.1699C6.27072 13.6371 6.23362 13.0942 6.71596 12.5951C7.14096 12.1534 7.6739 12.0522 8.18997 12.4333C8.72965 12.8312 8.87806 13.3572 8.54076 13.9709C8.09552 14.7869 8.49017 15.8592 9.49532 16.5809C10.3959 17.2283 11.0199 16.7562 11.5798 16.0649C12.2477 15.2354 12.6322 14.2609 13.0302 13.2864C13.1685 12.9492 13.1146 12.7334 12.9122 12.4501C12.4939 11.86 12.5344 11.2666 13.1314 10.8113C13.634 10.4269 14.167 10.4809 14.6054 10.9294C15.1283 11.4655 15.1215 12.0522 14.5818 12.5682C14.3356 12.8042 14.1636 12.9762 14.3322 13.3437C14.8247 14.4025 15.2969 15.4748 16.1537 16.301C16.9834 17.1001 17.5939 17.09 18.3427 16.2571C19.1118 15.4007 19.466 14.3216 19.891 13.2797C20.0562 12.8716 19.7324 12.7435 19.5402 12.5176C19.1017 11.9983 19.0916 11.4352 19.5604 10.9429C19.9854 10.4944 20.5183 10.4168 21.0344 10.7945C21.6348 11.2362 21.7798 11.8499 21.2975 12.4063C20.9366 12.8244 21.0277 13.1549 21.1963 13.5427C21.6146 14.5071 22.0295 15.4782 22.7648 16.2538C23.5844 17.117 24.3872 17.1844 25.1664 16.3044C25.7769 15.6165 26.9237 15.0061 25.9017 13.7349C25.561 13.31 25.8612 12.7503 26.3334 12.4333C27.1092 11.9106 27.632 12.3861 28.138 12.9155V13.8495H28.1312ZM20.488 13.9102C20.063 14.7026 19.7054 15.5254 19.213 16.2605C18.056 17.9802 16.6596 18.0173 15.3171 16.4325C14.6594 15.6569 14.2108 14.7364 13.7183 13.7619C11.4011 17.8555 11.2898 17.933 8.86457 17.2182C9.18163 18.1185 9.52568 19.0053 9.80564 19.9124C9.95743 20.4047 10.2104 20.5834 10.7231 20.5801C15.0878 20.5632 19.4457 20.5699 23.8104 20.5699C24.1207 20.5699 24.4749 20.6172 24.5929 20.226C24.8898 19.2144 25.4328 18.2702 25.5037 17.1339C23.2437 18.1185 22.7344 17.7813 20.4947 13.9102H20.488ZM17.2364 23.2473C19.3378 23.2473 21.4425 23.2069 23.5439 23.2676C24.3602 23.2912 24.4142 22.9169 24.3872 22.293C24.3636 21.7333 24.4614 21.2646 23.5844 21.2747C19.3783 21.3185 15.1721 21.3185 10.966 21.2747C10.1531 21.2646 10.1295 21.6288 10.1126 22.2492C10.0957 22.9438 10.2003 23.2945 11.0402 23.2676C13.1011 23.2035 15.1687 23.2473 17.233 23.2473H17.2364Z" fill="#16120B"/>
<path d="M20.4912 13.9035C22.7276 17.7746 23.2403 18.1118 25.5002 17.1271C25.4293 18.2635 24.8863 19.211 24.5895 20.2193C24.4748 20.6104 24.1172 20.5632 23.8069 20.5632C19.4422 20.5632 15.0843 20.5565 10.7196 20.5733C10.2069 20.5733 9.95394 20.398 9.80216 19.9057C9.5222 18.9986 9.17815 18.1118 8.86108 17.2114C11.2863 17.9263 11.3976 17.8488 13.7149 13.7551C14.2073 14.733 14.6559 15.6468 15.3137 16.4258C16.6561 18.0106 18.0526 17.9735 19.2095 16.2538C19.7053 15.5187 20.0629 14.6925 20.4845 13.9035H20.4912Z" fill="#F5D336"/>
<path d="M17.2365 23.2406C15.1722 23.2406 13.1045 23.1968 11.0436 23.2608C10.2071 23.2878 10.1026 22.9405 10.1161 22.2425C10.1295 21.6187 10.1532 21.2579 10.9694 21.268C15.1756 21.3118 19.3817 21.3118 23.5879 21.268C24.4649 21.2579 24.367 21.7232 24.3907 22.2863C24.4176 22.9101 24.3637 23.2844 23.5474 23.2608C21.446 23.2001 19.3413 23.2406 17.2399 23.2406H17.2365Z" fill="#FBAC3A"/>
</svg>
