<svg width="36" height="36" viewBox="0 0 36 36" fill="none" xmlns="http://www.w3.org/2000/svg">
<path d="M18.4458 34.3508C9.59778 34.3508 2.45923 27.0491 2.49722 17.9687C2.53204 8.96578 9.75289 1.77056 18.5376 1.80284C27.2779 1.83512 34.4101 9.12718 34.407 18.0849C34.4038 27.0749 27.2621 34.3508 18.4458 34.3508ZM7.09058 25.5706C7.11907 25.6255 7.14123 25.6836 7.17605 25.7353C7.88832 26.8295 8.73672 27.8044 9.72757 28.6372C12.6843 31.1163 16.0842 32.2042 19.8956 31.7974C23.3209 31.4327 26.1953 29.9026 28.5189 27.3041C29.592 26.1033 30.4183 24.741 31.0166 23.2368C31.8111 21.2419 32.1056 19.1695 31.9536 17.0261C31.8586 15.6445 31.5611 14.3114 31.0641 13.0266C30.146 10.6476 28.6772 8.68817 26.705 7.11614C26.3631 6.84498 26.0212 6.56737 25.6191 6.38661C25.5495 6.33173 25.4862 6.26717 25.4102 6.22198C24.9733 5.97342 24.5333 5.72164 24.0743 5.50859C21.6906 4.41107 19.1992 4.02694 16.6129 4.39493C13.3839 4.85653 10.6583 6.32205 8.44548 8.7721C7.47046 9.85025 6.69487 11.064 6.1029 12.4004C5.15637 14.5405 4.77649 16.7872 4.94427 19.1243C5.05507 20.6544 5.40645 22.1328 6.01109 23.5467C6.315 24.2536 6.64422 24.9444 7.09375 25.5674L7.09058 25.5706Z" fill="#C1B08F"/>
<path d="M7.09397 25.5708C6.64128 24.9478 6.31205 24.257 6.01131 23.5501C5.40667 22.1395 5.05529 20.661 4.94449 19.1277C4.77671 16.7907 5.15659 14.544 6.10312 12.4038C6.69509 11.0642 7.47068 9.85369 8.4457 8.77554C10.6585 6.32548 13.3809 4.85997 16.6131 4.39836C19.2026 4.03037 21.6908 4.4145 24.0745 5.51203C24.5335 5.72507 24.9704 5.97686 25.4104 6.22541C25.4864 6.26738 25.5497 6.33517 25.6194 6.39004C25.9517 7.00982 26.2968 7.61991 26.5659 8.2752C26.7368 8.69484 26.9236 9.11448 27.0091 9.5664C26.9204 9.47924 26.8318 9.39531 26.7432 9.30816C25.8441 8.40754 24.8343 7.65865 23.7041 7.08729C21.466 5.95749 19.1013 5.55722 16.6289 5.93167C13.2955 6.43846 10.6237 8.10411 8.64513 10.8802C6.91985 13.3044 6.20758 16.0353 6.43551 19.018C6.5748 20.8321 7.10663 22.5204 7.99618 24.0956C8.18928 24.4378 8.37605 24.7864 8.64513 25.0737C8.6578 25.0866 8.67362 25.0995 8.68629 25.1125L8.69262 25.1286L8.68312 25.1125C8.68312 25.1125 8.6578 25.0834 8.64513 25.0705C8.62614 24.9156 8.5375 24.7864 8.47419 24.6509C7.29657 22.1427 6.9895 19.5183 7.54665 16.8036C8.11014 14.0598 9.46504 11.7808 11.5797 9.98927C14.0932 7.85556 17.0056 6.94203 20.2567 7.19382C21.9979 7.32939 23.6313 7.85233 25.1445 8.74326C25.9043 9.19195 26.6355 9.68583 27.256 10.3282C27.2655 10.3766 27.2718 10.4218 27.2845 10.4702C27.6454 11.9583 27.7435 13.4658 27.6105 14.9927C27.5092 16.1709 27.256 17.3201 26.8571 18.4337C26.2588 20.1091 25.3788 21.6165 24.2106 22.9368C23.0299 24.27 21.6528 25.3513 20.0541 26.1422C17.6577 27.3301 15.1347 27.7433 12.4977 27.4398C10.649 27.2268 8.92055 26.6296 7.3124 25.6709C7.24275 25.6289 7.16361 25.6031 7.08763 25.5708H7.09397Z" fill="#FFFCF7"/>
<path d="M27.0091 9.55978C26.9236 9.10786 26.74 8.69145 26.5659 8.26858C26.2968 7.61652 25.9518 7.0032 25.6194 6.38342C26.0214 6.56419 26.3633 6.8418 26.7052 7.11295C28.6774 8.68176 30.1463 10.6412 31.0643 13.0234C31.5613 14.3082 31.8589 15.6413 31.9538 17.0229C32.1058 19.1695 31.8114 21.2419 31.0168 23.2336C30.4185 24.7378 29.5923 26.0968 28.5191 27.3009C26.1987 29.9027 23.3211 31.4295 19.8959 31.7943C16.0844 32.201 12.6877 31.1132 9.72781 28.634C8.73696 27.8045 7.88856 26.8264 7.17629 25.7321C7.14147 25.6804 7.11931 25.6223 7.09082 25.5674C7.1668 25.5997 7.24594 25.6255 7.31558 25.6675C8.92057 26.6295 10.6522 27.2234 12.5009 27.4365C15.1379 27.7431 17.6609 27.3267 20.0573 26.1388C21.6528 25.3479 23.0299 24.2698 24.2138 22.9334C25.3819 21.6131 26.262 20.1057 26.8603 18.4303C27.2592 17.3134 27.5124 16.1675 27.6137 14.9893C27.7467 13.4657 27.6486 11.955 27.2877 10.4668C27.275 10.4217 27.2687 10.3732 27.2592 10.3248C27.5473 10.5282 27.7625 10.8058 28.0126 11.0511C28.1392 11.1738 28.2215 11.3449 28.3862 11.4256C28.402 11.474 28.4273 11.5159 28.4748 11.5418C28.478 11.545 28.4843 11.5482 28.4875 11.5515C28.4843 11.5482 28.4811 11.5418 28.478 11.5385C28.4526 11.4966 28.4273 11.4514 28.402 11.4094C28.3577 11.332 28.3165 11.2513 28.269 11.177C27.9018 10.5927 27.4586 10.073 27.0091 9.55332V9.55978Z" fill="#EEE5D8"/>
<path d="M27.009 9.55977C27.4586 10.0795 27.9018 10.6024 28.269 11.1835C28.3165 11.2609 28.3576 11.3384 28.4019 11.4159C28.3956 11.4223 28.3893 11.4256 28.3861 11.432C28.2215 11.3481 28.136 11.1802 28.0126 11.0576C27.7625 10.8122 27.5504 10.5314 27.2591 10.3313C26.6387 9.68889 25.9074 9.19501 25.1476 8.74631C23.6345 7.85216 21.9978 7.32922 20.2599 7.19687C17.0056 6.94832 14.0932 7.85861 11.5828 9.99232C9.47134 11.7839 8.11328 14.0628 7.54979 16.8066C6.99264 19.5214 7.29654 22.1425 8.47733 24.6539C8.54064 24.7895 8.62928 24.9186 8.64828 25.0736C8.3792 24.7863 8.19242 24.4344 7.99932 24.0955C7.10977 22.5234 6.57794 20.832 6.43865 19.0178C6.21072 16.0319 6.91983 13.301 8.64828 10.88C10.6236 8.10394 13.2986 6.43829 16.632 5.93149C19.1044 5.55705 21.4692 5.95409 23.7073 7.08712C24.8374 7.65848 25.8473 8.40415 26.7463 9.30799C26.8349 9.39514 26.9236 9.47907 27.0122 9.56623V9.55977H27.009Z" fill="#C4B5A1"/>
<path d="M9.19238 24.3215L9.20221 24.3348L9.19238 24.3181V24.3215Z" fill="#B69942"/>
<path d="M9.15137 24.2732C9.15137 24.2732 9.17995 24.3055 9.19265 24.3185C9.19265 24.3185 9.1609 24.2894 9.14819 24.2764V24.2732H9.15137Z" fill="#B69942"/>
<path d="M30.526 9.50183C30.5543 9.54678 30.5827 9.59495 30.6078 9.6399H30.6047C30.5543 9.61742 30.526 9.56926 30.5071 9.51789C30.5134 9.51146 30.5197 9.50825 30.526 9.50183Z" fill="#B69942"/>
<path d="M30.6083 9.64075C30.6083 9.64075 30.6149 9.65083 30.6182 9.65419C30.6116 9.65083 30.6083 9.64747 30.605 9.64411H30.6083V9.64075Z" fill="#B69942"/>
<path d="M10.979 19.1649C10.7576 18.5391 10.6036 17.8941 10.4142 17.2555C10.1222 16.2543 9.83983 15.2531 9.55423 14.2487C9.5446 14.2166 9.52856 14.1877 9.55744 14.1396C10.0516 14.3995 10.549 14.6594 11.0432 14.9194C11.5631 15.1921 12.0829 15.4681 12.6028 15.7441C12.6413 15.7666 12.683 15.7954 12.7311 15.7666C12.76 15.8115 12.7953 15.8468 12.8467 15.8692C13.6842 16.3057 14.5218 16.7453 15.3561 17.1881C15.4652 17.2459 15.5133 17.2202 15.5679 17.1175C15.9466 16.3891 16.3316 15.6639 16.7135 14.9386C16.7424 14.8873 16.7681 14.8327 16.7584 14.7718C16.8643 14.7525 16.8708 14.653 16.9093 14.5824C17.5703 13.3213 18.2282 12.0602 18.886 10.799C18.9053 10.7637 18.9245 10.7316 18.9598 10.6707C19.1363 11.0012 19.3 11.306 19.4604 11.6141C19.9835 12.6153 20.5066 13.6165 21.0296 14.6177C21.0617 14.6787 21.0681 14.7621 21.1612 14.775C21.1516 14.8584 21.1965 14.9258 21.2318 14.9932C21.604 15.7024 21.9827 16.4084 22.3517 17.1208C22.4159 17.2427 22.4769 17.2363 22.5796 17.1817C23.1604 16.8737 23.7477 16.572 24.3285 16.2639C24.6205 16.1099 24.9125 15.9463 25.2045 15.789C25.4645 15.6574 25.7276 15.5259 25.9875 15.3943C26.0517 15.3622 26.1191 15.3365 26.1833 15.3077C26.1833 16.2511 26.1672 17.1913 26.1961 18.1348C26.2122 18.6611 25.7757 19.1777 25.15 19.1745C20.4263 19.1617 15.6995 19.1681 10.9758 19.1681L10.979 19.1649ZM19.9097 17.0405C19.9097 16.6619 19.8359 16.3731 19.6594 16.1195C19.3481 15.6735 18.8475 15.5772 18.4913 15.8821C17.9586 16.3442 17.8559 17.2331 18.2667 17.8075C18.6325 18.3209 19.1427 18.3594 19.5727 17.9037C19.8198 17.6406 19.8904 17.3133 19.9065 17.0373L19.9097 17.0405Z" fill="#F8CD69"/>
<path d="M10.9792 19.1649C15.7029 19.1649 20.4298 19.1585 25.1534 19.1713C25.7792 19.1713 26.2156 18.6547 26.1996 18.1316C26.1707 17.1914 26.1899 16.2479 26.1867 15.3045C26.8831 14.9355 27.5826 14.5632 28.279 14.1942C28.3014 14.1813 28.3271 14.1813 28.3528 14.1749C28.34 14.4477 28.2309 14.7012 28.1538 14.9643C27.6211 16.8448 27.082 18.7253 26.5429 20.6058C26.5301 20.6507 26.514 20.6924 26.5012 20.7373C26.1899 20.7373 25.8754 20.7373 25.5642 20.7373C20.8501 20.7373 16.1393 20.7373 11.4253 20.7373C11.2777 20.2143 11.1269 19.6912 10.9792 19.1681V19.1649Z" fill="#F6C144"/>
<path d="M25.5641 20.7341C25.8754 20.7341 26.1899 20.7341 26.5011 20.7341C26.5011 21.3149 26.5011 21.899 26.5076 22.4798C26.5076 22.5953 26.4691 22.6338 26.36 22.6178C26.3279 22.6146 26.2958 22.6178 26.2605 22.6178C21.3924 22.6178 16.5276 22.6178 11.6595 22.621C11.4734 22.621 11.3899 22.5921 11.4092 22.3803C11.4317 22.1461 11.4188 21.9086 11.4188 21.6743C15.8665 21.6743 20.3142 21.6743 24.7619 21.6743C24.8196 21.6743 24.8806 21.6743 24.9384 21.6743C25.2272 21.6679 25.4422 21.4978 25.5288 21.2187C25.5802 21.0582 25.5417 20.8946 25.5545 20.7309L25.5641 20.7341Z" fill="#F2A23A"/>
<path d="M16.7619 14.7686C16.7715 14.8296 16.7459 14.8841 16.717 14.9354C16.3351 15.6607 15.95 16.3859 15.5714 17.1144C15.5168 17.217 15.4687 17.2427 15.3596 17.185C14.5252 16.7421 13.6877 16.3057 12.8501 15.8661C12.802 15.8404 12.7667 15.8051 12.7346 15.7634C13.0234 14.191 13.3154 12.6185 13.6139 10.9884C13.8 11.2066 13.9508 11.3863 14.1017 11.5692C14.9873 12.6346 15.873 13.7032 16.7619 14.7686Z" fill="#F6C144"/>
<path d="M25.2076 15.7858C24.9156 15.9431 24.6267 16.1067 24.3315 16.2608C23.7507 16.5688 23.1634 16.8705 22.5826 17.1786C22.4767 17.2331 22.419 17.2395 22.3548 17.1176C21.9857 16.4052 21.6103 15.6992 21.2348 14.99C21.1995 14.9226 21.1514 14.8552 21.1642 14.7718C21.9151 13.8669 22.6693 12.9587 23.4234 12.0538C23.7058 11.7136 23.9914 11.3735 24.3058 10.998C24.6139 12.625 24.9123 14.207 25.2076 15.7891V15.7858Z" fill="#F6C144"/>
<path d="M25.5639 20.7341C25.551 20.8946 25.5896 21.0582 25.5382 21.2219C25.4516 21.5011 25.2334 21.6711 24.9478 21.6776C24.89 21.6776 24.829 21.6776 24.7713 21.6776C20.3236 21.6776 15.8759 21.6776 11.4282 21.6776C11.4282 21.3631 11.4282 21.0486 11.4282 20.7309C16.1422 20.7309 20.8531 20.7309 25.5671 20.7309L25.5639 20.7341Z" fill="#F4B461"/>
<path d="M28.3557 14.1746C28.3557 14.1746 28.362 14.1652 28.3651 14.1589C28.362 14.162 28.3557 14.1683 28.3525 14.1715V14.1746H28.3557Z" fill="#F6C144"/>
<path d="M19.9096 17.0406C19.8936 17.3165 19.823 17.6438 19.5759 17.907C19.1459 18.3627 18.6356 18.3209 18.2698 17.8107C17.8558 17.2331 17.9617 16.3474 18.4944 15.8853C18.8474 15.5805 19.348 15.6767 19.6625 16.1228C19.839 16.3763 19.9128 16.6651 19.9128 17.0438L19.9096 17.0406Z" fill="#F2A23A"/>
<path d="M18.3915 34.136C27.2366 34.136 34.407 26.9461 34.407 18.0768C34.407 9.2075 27.2366 2.01752 18.3915 2.01752C9.54636 2.01752 2.37598 9.2075 2.37598 18.0768C2.37598 26.9461 9.54636 34.136 18.3915 34.136Z" stroke="#14E8C5" stroke-width="3" stroke-miterlimit="10"/>
</svg>
