<svg width="36" height="36" viewBox="0 0 36 36" fill="none" xmlns="http://www.w3.org/2000/svg">
<path d="M18.0971 34.3827C9.24914 34.3827 2.1106 27.0809 2.14859 18.0005C2.18341 8.99764 9.40426 1.80242 18.1889 1.8347C26.9293 1.86698 34.0615 9.15904 34.0583 18.1168C34.0552 27.1067 26.9135 34.3827 18.0971 34.3827ZM6.74195 25.6025C6.77044 25.6574 6.7926 25.7155 6.82742 25.7671C7.53969 26.8614 8.38809 27.8363 9.37893 28.6691C12.3357 31.1482 15.7356 32.236 19.547 31.8293C22.9722 31.4645 25.8466 29.9345 28.1702 27.3359C29.2434 26.1351 30.0696 24.7729 30.6679 23.2686C31.4625 21.2737 31.7569 19.2014 31.605 17.058C31.51 15.6764 31.2124 14.3432 30.7154 13.0585C29.7974 10.6794 28.3285 8.72003 26.3563 7.148C26.0144 6.87684 25.6725 6.59924 25.2705 6.41847C25.2009 6.36359 25.1375 6.29903 25.0616 6.25384C24.6247 6.00528 24.1847 5.7535 23.7257 5.54045C21.3419 4.44293 18.8506 4.0588 16.2642 4.42679C13.0353 4.88839 10.3096 6.35391 8.09685 8.80396C7.12183 9.88211 6.34624 11.0958 5.75426 12.4322C4.80774 14.5724 4.42786 16.8191 4.59564 19.1562C4.70643 20.6862 5.05782 22.1647 5.66246 23.5785C5.96636 24.2855 6.29559 24.9763 6.74511 25.5993L6.74195 25.6025Z" fill="#C1B08F"/>
<path d="M6.74533 25.6027C6.29264 24.9797 5.96342 24.2889 5.66268 23.5819C5.05804 22.1713 4.70665 20.6929 4.59586 19.1596C4.42808 16.8225 4.80795 14.5758 5.75448 12.4356C6.34646 11.096 7.12205 9.88552 8.09707 8.80737C10.3099 6.35731 13.0323 4.8918 16.2644 4.43019C18.8539 4.0622 21.3421 4.44633 23.7259 5.54386C24.1849 5.7569 24.6218 6.00869 25.0618 6.25724C25.1378 6.29921 25.2011 6.367 25.2707 6.42187C25.6031 7.04165 25.9482 7.65174 26.2173 8.30703C26.3882 8.72667 26.575 9.14631 26.6604 9.59823C26.5718 9.51107 26.4832 9.42714 26.3945 9.33999C25.4955 8.43937 24.4856 7.69048 23.3555 7.11912C21.1174 5.98932 18.7526 5.58905 16.2803 5.9635C12.9468 6.47029 10.275 8.13594 8.2965 10.912C6.57122 13.3363 5.85895 16.0671 6.08688 19.0498C6.22617 20.864 6.758 22.5522 7.64754 24.1275C7.84065 24.4696 8.02742 24.8183 8.2965 25.1056C8.30916 25.1185 8.32499 25.1314 8.33765 25.1443L8.34399 25.1604L8.33449 25.1443C8.33449 25.1443 8.30916 25.1152 8.2965 25.1023C8.27751 24.9474 8.18887 24.8183 8.12556 24.6827C6.94793 22.1745 6.64087 19.5502 7.19802 16.8354C7.76151 14.0916 9.11641 11.8126 11.2311 10.0211C13.7446 7.88739 16.657 6.97386 19.9081 7.22565C21.6492 7.36122 23.2827 7.88416 24.7959 8.77509C25.5556 9.22378 26.2869 9.71766 26.9074 10.36C26.9169 10.4085 26.9232 10.4536 26.9359 10.5021C27.2967 11.9902 27.3949 13.4977 27.2619 15.0245C27.1606 16.2027 26.9074 17.3519 26.5085 18.4656C25.9102 20.1409 25.0301 21.6484 23.862 22.9686C22.6812 24.3018 21.3042 25.3832 19.7055 26.174C17.3091 27.3619 14.7861 27.7751 12.1491 27.4717C10.3004 27.2586 8.57191 26.6615 6.96376 25.7027C6.89412 25.6608 6.81498 25.6349 6.739 25.6027H6.74533Z" fill="#FFFCF7"/>
<path d="M26.6605 9.59167C26.575 9.13975 26.3914 8.72334 26.2173 8.30047C25.9482 7.64841 25.6031 7.03509 25.2707 6.41531C25.6728 6.59608 26.0147 6.87369 26.3566 7.14484C28.3288 8.71365 29.7976 10.673 30.7157 13.0553C31.2127 14.3401 31.5102 15.6732 31.6052 17.0548C31.7572 19.2014 31.4628 21.2738 30.6682 23.2655C30.0699 24.7697 29.2436 26.1287 28.1705 27.3328C25.8501 29.9345 22.9725 31.4614 19.5472 31.8262C15.7358 32.2329 12.3391 31.145 9.37917 28.6659C8.38833 27.8363 7.53993 26.8583 6.82766 25.764C6.79284 25.7123 6.77068 25.6542 6.74219 25.5993C6.81816 25.6316 6.8973 25.6574 6.96695 25.6994C8.57193 26.6614 10.3035 27.2553 12.1523 27.4683C14.7893 27.775 17.3123 27.3586 19.7087 26.1707C21.3042 25.3798 22.6812 24.3017 23.8652 22.9653C25.0333 21.645 25.9134 20.1376 26.5117 18.4622C26.9105 17.3453 27.1638 16.1994 27.2651 15.0212C27.3981 13.4976 27.2999 11.9868 26.939 10.4987C26.9264 10.4535 26.92 10.4051 26.9105 10.3567C27.1986 10.5601 27.4139 10.8377 27.664 11.083C27.7906 11.2057 27.8729 11.3768 28.0375 11.4575C28.0533 11.5059 28.0787 11.5478 28.1262 11.5737C28.1293 11.5769 28.1357 11.5801 28.1388 11.5833C28.1357 11.5801 28.1325 11.5737 28.1293 11.5704C28.104 11.5285 28.0787 11.4833 28.0533 11.4413C28.009 11.3638 27.9679 11.2831 27.9204 11.2089C27.5532 10.6246 27.11 10.1049 26.6605 9.58521V9.59167Z" fill="#EEE5D8"/>
<path d="M26.6604 9.59166C27.1099 10.1114 27.5531 10.6343 27.9203 11.2153C27.9678 11.2928 28.009 11.3703 28.0533 11.4478C28.047 11.4542 28.0406 11.4574 28.0375 11.4639C27.8729 11.38 27.7874 11.2121 27.6639 11.0895C27.4138 10.8441 27.2017 10.5633 26.9105 10.3632C26.29 9.72078 25.5588 9.2269 24.799 8.7782C23.2858 7.88405 21.6492 7.36111 19.9113 7.22876C16.657 6.98021 13.7446 7.8905 11.2342 10.0242C9.12271 11.8158 7.76465 14.0947 7.20116 16.8385C6.64401 19.5533 6.94791 22.1744 8.1287 24.6858C8.19201 24.8214 8.28065 24.9505 8.29964 25.1054C8.03056 24.8181 7.84379 24.4663 7.65068 24.1274C6.76114 22.5553 6.22931 20.8638 6.09002 19.0497C5.86209 16.0638 6.5712 13.3329 8.29964 10.9119C10.275 8.13583 12.95 6.47018 16.2834 5.96339C18.7558 5.58894 21.1205 5.98598 23.3586 7.11901C24.4888 7.69037 25.4986 8.43604 26.3977 9.33988C26.4863 9.42703 26.5749 9.51096 26.6636 9.59812V9.59166H26.6604Z" fill="#C4B5A1"/>
<path d="M8.84375 24.3533L8.85358 24.3667L8.84375 24.35V24.3533Z" fill="#B69942"/>
<path d="M8.80274 24.305C8.80274 24.305 8.83132 24.3374 8.84402 24.3504C8.84402 24.3504 8.81226 24.3212 8.79956 24.3083V24.305H8.80274Z" fill="#B69942"/>
<path d="M30.1773 9.53369C30.2057 9.57864 30.234 9.62681 30.2592 9.67176H30.2561C30.2057 9.64928 30.1773 9.60112 30.1584 9.54975C30.1647 9.54332 30.171 9.54011 30.1773 9.53369Z" fill="#B69942"/>
<path d="M30.2596 9.67261C30.2596 9.67261 30.2662 9.68269 30.2695 9.68605C30.2629 9.68269 30.2596 9.67933 30.2563 9.67597H30.2596V9.67261Z" fill="#B69942"/>
<path d="M27.5439 15.6873C26.9828 16.4497 26.9261 17.4019 26.5775 18.2464C26.4188 18.629 26.8383 18.8557 26.9885 19.1363C27.4136 19.9355 26.9459 20.6497 26.4273 20.7659C25.5063 20.9699 25.4439 21.5027 25.5148 22.1489C25.6281 23.1918 25.1718 23.5319 24.2026 23.4044C23.2645 23.2797 22.284 23.6509 21.3714 23.1805C21.5528 22.761 21.9297 22.8432 22.267 22.8376C22.9613 22.8291 23.6528 22.8376 24.3471 22.8206C24.5682 22.8149 24.8941 22.9084 24.9281 22.5598C24.9706 22.1262 24.6135 22.1914 24.3471 22.1886C23.1342 22.1801 21.9184 22.1574 20.7082 22.1886C19.7985 22.2112 18.9851 22.0242 18.3418 21.3525C18.0868 21.0861 17.8742 20.9699 17.5795 21.3015C16.8681 22.1064 15.9272 22.2169 14.9211 22.1857C13.847 22.1546 12.7729 22.1659 11.696 22.1857C11.4239 22.1914 10.962 22.0072 10.945 22.4691C10.9252 23.0274 11.4381 22.8234 11.73 22.8234C14.3288 22.8404 16.9305 22.8262 19.5293 22.8376C19.9232 22.8376 20.3823 22.6789 20.6544 23.1493C20.3767 23.5404 19.9601 23.3902 19.6001 23.393C16.9333 23.4044 14.2636 23.3647 11.5997 23.4185C10.6503 23.4384 10.2648 23.1436 10.3272 22.1801C10.364 21.5736 10.4887 20.9104 9.47697 20.7631C9.0462 20.7007 8.43404 19.9837 8.8053 19.4594C9.596 18.3456 8.97818 17.3934 8.75429 16.359C8.6466 15.8573 7.91825 15.2027 8.70328 14.8314C9.37211 14.5168 9.49681 15.4067 9.83689 15.7808C10.0891 16.0557 10.2365 16.4808 10.6814 16.4638C11.2057 16.4468 11.2794 15.965 11.4495 15.5994C11.4778 15.5371 11.4863 15.4634 11.5231 15.4067C11.7952 15.0043 11.6989 14.2618 12.3847 14.2561C12.9685 14.2533 13.0223 14.9023 13.2944 15.2764C13.3964 15.4152 13.473 15.5711 13.5636 15.7185C14.1276 16.6055 14.6973 16.6169 15.2867 15.7553C15.4738 15.4804 15.5701 15.0922 16.0378 15.1857C15.9811 16.0132 15.6013 16.6962 14.8078 16.9031C13.2802 17.297 13.113 15.7638 12.4074 14.9731C11.9539 15.5456 11.9596 16.2824 11.4523 16.7444C10.8401 17.3055 10.1855 16.8663 9.45996 16.7019C9.596 17.1553 9.66685 17.4897 9.79721 17.7987C10.3328 19.0598 10.1146 20.9614 11.3191 21.5084C12.5207 22.0554 14.1701 21.6274 15.6268 21.6104C16.3297 21.6019 16.8511 21.2335 17.3471 20.7659C17.6588 20.4711 17.69 20.2841 17.4179 19.9383C16.9248 19.3149 16.4799 18.6545 16.0519 17.9857C15.692 17.4161 15.8054 16.8549 16.2588 16.376C16.6782 15.9339 18.8349 15.8092 19.3961 16.2031C19.8835 16.546 20.1471 17.025 19.9799 17.6371C19.9175 17.8638 19.7758 18.0736 19.6426 18.2719C19.3734 18.6715 19.0815 19.0598 18.8038 19.4566C18.1151 20.4371 18.1831 20.7602 19.2686 21.3355C19.5633 21.4914 19.9204 21.6048 20.252 21.6104C21.2864 21.6303 22.3236 21.5878 23.3581 21.5679C23.9164 21.6274 24.7127 21.9618 24.948 21.378C25.5459 19.9128 25.9257 18.3598 26.4528 16.6509C25.7897 16.8634 25.3731 17.1553 24.8884 17.0561C24.6447 16.9314 24.5115 16.7586 24.6504 16.4752C25.5544 16.699 25.8945 16.0331 26.2913 15.4492C26.5889 15.0128 26.8439 14.463 27.5411 14.8569V15.6901L27.5439 15.6873ZM18.0017 19.4934C18.2341 19.21 18.5941 18.9889 18.577 18.578C18.5572 18.1926 18.288 17.7363 17.9479 17.7448C17.554 17.7533 17.2564 18.2294 17.2734 18.6262C17.2876 18.9748 17.5795 19.2894 18.0017 19.4934ZM17.554 16.9569C17.5738 16.6565 17.4094 16.5432 17.1742 16.5687C16.7378 16.6197 16.4827 16.8663 16.4884 17.3225C16.4884 17.5663 16.562 17.9347 16.8086 17.8667C17.2224 17.7561 17.3612 17.2914 17.554 16.9569ZM19.4216 17.2092C19.3961 16.8464 19.1439 16.5658 18.6592 16.5488C18.4524 16.5403 18.2058 16.6509 18.2965 16.9088C18.4438 17.3282 18.6677 17.7646 19.1127 17.8865C19.3054 17.9404 19.4244 17.5861 19.4216 17.2063V17.2092Z" fill="#16140F"/>
<path d="M24.6532 16.4782C24.5115 16.7616 24.6447 16.9316 24.8912 17.0591C24.8005 17.4446 24.7127 17.83 24.6248 18.2182C23.956 18.0482 23.5932 18.4195 23.3467 18.9579C22.9612 19.7968 22.7459 20.6385 23.4317 21.4434C23.3892 21.4746 23.3637 21.5171 23.3637 21.5709C22.3293 21.5907 21.292 21.6333 20.2576 21.6134C19.926 21.6077 19.5689 21.4944 19.2742 21.3385C18.1887 20.7632 18.1207 20.4373 18.8094 19.4596C19.0871 19.0656 19.379 18.6774 19.6483 18.2749C19.7815 18.0765 19.926 17.864 19.9855 17.6401C20.1527 17.028 19.8891 16.549 19.4017 16.2061C18.8406 15.8122 16.6839 15.9369 16.2644 16.379C15.811 16.8551 15.6976 17.419 16.0575 17.9887C16.4826 18.6604 16.9304 19.3179 17.4235 19.9413C17.6984 20.2899 17.6673 20.4741 17.3527 20.7689C16.8596 21.2393 16.3353 21.6077 15.6324 21.6134C14.1786 21.6276 12.5292 22.0555 11.3247 21.5114C10.1202 20.9644 10.3385 19.06 9.80283 17.8016C9.67246 17.4956 9.60161 17.1612 9.46558 16.7049C10.1911 16.8692 10.8429 17.3085 11.4579 16.7474C11.9624 16.2854 11.9624 15.5486 12.413 14.9761C13.1186 15.7668 13.2859 17.3 14.8134 16.9061C15.6069 16.702 15.9867 16.019 16.0434 15.1887C16.1341 14.9619 16.2276 14.7352 16.3211 14.5113C17.313 14.2251 17.2053 13.0461 18.0244 12.4737C18.7074 13.6583 19.3705 14.8486 20.0705 16.0162C20.8584 17.3284 21.992 17.3255 22.7912 16.036C23.0151 15.6761 23.2418 15.319 23.4714 14.9563C23.7718 15.2595 23.6896 15.7923 24.2167 15.8008C24.2819 16.0786 24.4293 16.3024 24.656 16.4782H24.6532ZM21.1815 20.6754C22.077 20.7717 22.4228 20.0887 22.4341 19.4851C22.4454 18.8729 22.1025 18.2154 21.2296 18.2353C20.5665 18.2494 19.7645 18.9126 19.909 19.4907C20.0649 20.1 20.3001 20.7887 21.1815 20.6754ZM14.7 18.2409C13.7818 18.2182 13.4219 18.8587 13.4446 19.4879C13.4701 20.1624 13.864 20.7604 14.7822 20.6952C15.6438 20.6328 15.947 20.0264 15.9187 19.3944C15.8903 18.7454 15.4936 18.1446 14.7 18.2409ZM12.8466 20.2899C12.8381 19.6891 12.7049 19.1251 12.3365 18.6348C12.1182 18.3429 11.8603 18.1021 11.4664 18.2069C11.0781 18.3118 10.9619 18.6604 10.9081 19.0089C10.8174 19.6126 10.9648 20.1822 11.251 20.7094C11.4636 21.1033 11.747 21.5992 12.2344 21.4831C12.7644 21.3584 12.8607 20.8029 12.8466 20.2871V20.2899Z" fill="#F3C65F"/>
<path d="M20.6545 23.155C20.3825 22.6845 19.9234 22.8433 19.5294 22.8433C16.9306 22.8319 14.329 22.8433 11.7302 22.8291C11.4411 22.8291 10.9253 23.0331 10.9451 22.4748C10.9621 22.0129 11.4241 22.1943 11.6962 22.1914C12.7703 22.1716 13.8444 22.1603 14.9213 22.1914C15.9245 22.2226 16.8683 22.1121 17.5796 21.3072C17.8743 20.9756 18.0841 21.0918 18.342 21.3582C18.9881 22.0299 19.8015 22.2169 20.7084 22.1943C21.9213 22.1631 23.1343 22.1886 24.3473 22.1943C24.6137 22.1943 24.9708 22.1319 24.9283 22.5655C24.8942 22.9141 24.5683 22.8206 24.3473 22.8262C23.6529 22.8433 22.9614 22.8348 22.2671 22.8433C21.9298 22.8461 21.5529 22.7639 21.3715 23.1862C21.1306 23.1777 20.8926 23.172 20.6517 23.1607L20.6545 23.155Z" fill="#EDCF73"/>
<path d="M24.2135 15.801C23.6864 15.7925 23.7657 15.2597 23.4681 14.9564C23.2357 15.322 23.009 15.6763 22.788 16.0362C21.9888 17.3257 20.8552 17.3257 20.0673 16.0163C19.3673 14.8487 18.7041 13.6613 18.0211 12.4738C17.2021 13.0463 17.3098 14.2252 16.3179 14.5115C16.349 13.4487 17.0235 12.6807 17.6244 11.9297C18.0013 11.4592 18.364 11.9297 18.5794 12.2924C19.2256 13.3949 19.8462 14.5115 20.4896 15.6139C21.1131 16.6823 21.728 16.6767 22.3714 15.6139C22.4791 15.4354 22.5782 15.254 22.6973 15.0839C22.9523 14.7127 23.077 13.9872 23.692 14.3216C24.1681 14.5795 24.4884 15.152 24.2135 15.8038V15.801Z" fill="#16140F"/>
<path d="M24.6216 18.2155C24.7123 17.8301 24.8002 17.4447 24.888 17.0564C25.3755 17.1584 25.7921 16.8637 26.4524 16.6511C25.9253 18.3629 25.5455 19.9159 24.9476 21.3783C24.7095 21.9593 23.9131 21.6249 23.3577 21.5682C23.3577 21.5143 23.3803 21.4718 23.4257 21.4406C23.8791 21.6532 24.1314 21.3273 24.3751 21.058C25.0156 20.358 25.1034 19.1961 24.6188 18.2155H24.6216Z" fill="#CA9254"/>
<path d="M18.0015 19.4965C17.5792 19.2953 17.2873 18.9779 17.2732 18.6293C17.2562 18.2325 17.5509 17.7564 17.9477 17.7479C18.2877 17.7422 18.557 18.1957 18.5768 18.5811C18.5967 18.9864 18.2339 19.2131 18.0015 19.4965Z" fill="#CA646C"/>
<path d="M17.5506 16.9627C17.355 17.3 17.219 17.7619 16.8052 17.8725C16.5558 17.9405 16.4878 17.572 16.485 17.3283C16.4793 16.8692 16.7344 16.6226 17.1708 16.5745C17.4089 16.549 17.5704 16.6595 17.5506 16.9627Z" fill="#CA646C"/>
<path d="M19.4213 17.2121C19.427 17.5891 19.3079 17.9433 19.1124 17.8923C18.6646 17.7705 18.4436 17.334 18.2962 16.9146C18.2055 16.6567 18.4521 16.5462 18.6589 16.5547C19.1436 16.5717 19.3986 16.8522 19.4213 17.215V17.2121Z" fill="#CA646C"/>
<path d="M21.1812 20.6752C20.2999 20.7914 20.0618 20.1027 19.9088 19.4906C19.7614 18.9125 20.5663 18.2493 21.2294 18.2351C22.1023 18.2153 22.4452 18.8699 22.4339 19.4849C22.4225 20.0914 22.0768 20.7716 21.1812 20.6752Z" fill="#16140F"/>
<path d="M14.7003 18.2381C15.4995 18.1446 15.8906 18.7426 15.919 19.3916C15.9473 20.0208 15.6469 20.6301 14.7825 20.6924C13.8643 20.7576 13.4704 20.1625 13.4449 19.4851C13.4222 18.856 13.7821 18.2155 14.7003 18.2381Z" fill="#16140F"/>
<path d="M24.6215 18.2154C25.1061 19.1959 25.0154 20.3579 24.3778 21.0579C24.134 21.3271 23.8818 21.653 23.4284 21.4405C22.7425 20.6356 22.9579 19.7939 23.3433 18.955C23.5927 18.4137 23.9555 18.0453 24.6215 18.2154ZM24.2786 18.7142C23.5049 19.6862 23.451 19.9725 23.8251 20.8028C24.3126 20.2219 24.5251 19.6069 24.2786 18.7142Z" fill="#16140F"/>
<path d="M12.8463 20.2841C12.8605 20.7999 12.7613 21.3525 12.2342 21.48C11.7467 21.5934 11.4662 21.1031 11.2508 20.7063C10.9674 20.1792 10.82 19.6067 10.9079 19.0059C10.9589 18.6573 11.0751 18.3087 11.4662 18.2039C11.8601 18.0962 12.118 18.3399 12.3362 18.6318C12.7046 19.1221 12.835 19.6861 12.8463 20.2869V20.2841ZM11.5569 18.6035C11.4322 19.5954 11.4718 20.2586 12.118 20.8764C12.4779 20.0318 12.2002 19.4282 11.5569 18.6035Z" fill="#16140F"/>
<path d="M24.2792 18.7171C24.5286 19.6098 24.3132 20.2248 23.8258 20.8058C23.4488 19.9754 23.5027 19.6892 24.2792 18.7171Z" fill="#CA646C"/>
<path d="M11.5571 18.6064C12.2004 19.434 12.481 20.0348 12.1183 20.8793C11.4721 20.2615 11.4324 19.5983 11.5571 18.6064Z" fill="#CA646C"/>
<path d="M17.9252 34.0582C26.7703 34.0582 33.9407 26.8683 33.9407 17.999C33.9407 9.12968 26.7703 1.9397 17.9252 1.9397C9.08005 1.9397 1.90967 9.12968 1.90967 17.999C1.90967 26.8683 9.08005 34.0582 17.9252 34.0582Z" stroke="#14E8C5" stroke-width="3" stroke-miterlimit="10"/>
</svg>
