<svg width="33" height="33" viewBox="0 0 33 33" fill="none" xmlns="http://www.w3.org/2000/svg">
<path d="M16.3759 32.5807C7.52795 32.5807 0.389409 25.279 0.427397 16.1986C0.462219 7.1957 7.68307 0.000481967 16.4677 0.032762C25.2081 0.065042 32.3403 7.3571 32.3372 16.3148C32.334 25.3048 25.1923 32.5807 16.3759 32.5807ZM5.02076 23.8005C5.04925 23.8554 5.07141 23.9135 5.10623 23.9652C5.8185 25.0595 6.66689 26.0343 7.65774 26.8672C10.6145 29.3463 14.0144 30.4341 17.8258 30.0274C21.251 29.6626 24.1255 28.1325 26.449 25.534C27.5222 24.3332 28.3484 22.971 28.9467 21.4667C29.7413 19.4718 30.0357 17.3994 29.8838 15.256C29.7888 13.8744 29.4912 12.5413 28.9942 11.2565C28.0762 8.87749 26.6073 6.91809 24.6351 5.34606C24.2932 5.0749 23.9513 4.79729 23.5493 4.61653C23.4797 4.56165 23.4163 4.49709 23.3404 4.4519C22.9035 4.20334 22.4635 3.95156 22.0045 3.73851C19.6207 2.64099 17.1294 2.25686 14.543 2.62485C11.3141 3.08645 8.58844 4.55197 6.37565 7.00202C5.40063 8.08017 4.62505 9.2939 4.03307 10.6303C3.08654 12.7705 2.70667 15.0172 2.87444 17.3542C2.98524 18.8843 3.33663 20.3627 3.94127 21.7766C4.24517 22.4835 4.5744 23.1743 5.02392 23.7973L5.02076 23.8005Z" fill="#C1B08F"/>
<path d="M5.02414 23.8007C4.57145 23.1777 4.24223 22.4869 3.94149 21.78C3.33685 20.3694 2.98546 18.8909 2.87466 17.3576C2.70688 15.0206 3.08676 12.7739 4.03329 10.6337C4.62527 9.29408 5.40085 8.08358 6.37587 7.00543C8.58866 4.55537 11.3111 3.08986 14.5433 2.62825C17.1328 2.26026 19.621 2.64439 22.0047 3.74191C22.4637 3.95496 22.9006 4.20675 23.3406 4.4553C23.4166 4.49727 23.4799 4.56506 23.5495 4.61993C23.8819 5.23971 24.227 5.8498 24.4961 6.50508C24.667 6.92473 24.8538 7.34437 24.9393 7.79629C24.8506 7.70913 24.762 7.6252 24.6733 7.53805C23.7743 6.63743 22.7644 5.88854 21.6343 5.31718C19.3962 4.18738 17.0315 3.78711 14.5591 4.16156C11.2257 4.66835 8.55384 6.334 6.57531 9.11008C4.85003 11.5343 4.13776 14.2652 4.36569 17.2479C4.50497 19.062 5.0368 20.7503 5.92635 22.3255C6.11946 22.6677 6.30623 23.0163 6.57531 23.3036C6.58797 23.3165 6.6038 23.3294 6.61646 23.3423L6.62279 23.3585L6.6133 23.3423C6.6133 23.3423 6.58797 23.3133 6.57531 23.3004C6.55632 23.1454 6.46768 23.0163 6.40436 22.8807C5.22674 20.3726 4.91967 17.7482 5.47683 15.0335C6.04031 12.2897 7.39521 10.0107 9.50987 8.21916C12.0234 6.08545 14.9358 5.17192 18.1869 5.4237C19.928 5.55928 21.5615 6.08222 23.0747 6.97315C23.8344 7.42184 24.5657 7.91572 25.1862 8.5581C25.1957 8.60652 25.202 8.65171 25.2147 8.70013C25.5755 10.1882 25.6737 11.6957 25.5407 13.2226C25.4394 14.4008 25.1862 15.55 24.7873 16.6636C24.189 18.3389 23.3089 19.8464 22.1408 21.1667C20.96 22.4998 19.583 23.5812 17.9843 24.3721C15.5879 25.56 13.0649 25.9732 10.4279 25.6697C8.57917 25.4567 6.85072 24.8595 5.24257 23.9008C5.17293 23.8588 5.09379 23.833 5.01781 23.8007H5.02414Z" fill="#FFFCF7"/>
<path d="M24.9393 7.78973C24.8538 7.33781 24.6702 6.9214 24.4961 6.49853C24.227 5.84647 23.8819 5.23315 23.5495 4.61337C23.9516 4.79414 24.2935 5.07175 24.6354 5.3429C26.6076 6.91171 28.0764 8.87111 28.9945 11.2534C29.4915 12.5381 29.789 13.8713 29.884 15.2529C30.036 17.3995 29.7416 19.4719 28.947 21.4635C28.3487 22.9678 27.5224 24.3268 26.4493 25.5308C24.1289 28.1326 21.2513 29.6594 17.8261 30.0242C14.0146 30.4309 10.6179 29.3431 7.65798 26.864C6.66713 26.0344 5.81874 25.0563 5.10647 23.962C5.07165 23.9104 5.04949 23.8523 5.021 23.7974C5.09697 23.8297 5.17611 23.8555 5.24576 23.8975C6.85074 24.8594 8.58235 25.4534 10.4311 25.6664C13.0681 25.9731 15.5911 25.5567 17.9875 24.3688C19.583 23.5779 20.96 22.4997 22.144 21.1633C23.3121 19.8431 24.1922 18.3356 24.7905 16.6603C25.1894 15.5434 25.4426 14.3975 25.5439 13.2192C25.6769 11.6956 25.5787 10.1849 25.2178 8.6968C25.2052 8.6516 25.1989 8.60318 25.1894 8.55476C25.4774 8.75813 25.6927 9.03574 25.9428 9.28107C26.0694 9.40373 26.1517 9.57481 26.3163 9.65551C26.3322 9.70393 26.3575 9.7459 26.405 9.77172C26.4081 9.77495 26.4145 9.77818 26.4176 9.78141C26.4145 9.77818 26.4113 9.77172 26.4081 9.76849C26.3828 9.72653 26.3575 9.68134 26.3322 9.63937C26.2878 9.5619 26.2467 9.4812 26.1992 9.40696C25.832 8.82269 25.3888 8.30298 24.9393 7.78327V7.78973Z" fill="#EEE5D8"/>
<path d="M24.9392 7.78972C25.3887 8.30943 25.8319 8.83236 26.1992 9.4134C26.2466 9.49088 26.2878 9.56835 26.3321 9.64582C26.3258 9.65228 26.3194 9.65551 26.3163 9.66196C26.1517 9.57803 26.0662 9.41018 25.9427 9.28751C25.6926 9.04218 25.4806 8.76135 25.1893 8.56121C24.5688 7.91884 23.8376 7.42496 23.0778 6.97626C21.5646 6.08211 19.928 5.55917 18.1901 5.42682C14.9358 5.17827 12.0234 6.08856 9.51301 8.22227C7.40152 10.0138 6.04346 12.2928 5.47997 15.0366C4.92282 17.7513 5.22672 20.3725 6.40751 22.8839C6.47082 23.0194 6.55946 23.1486 6.57845 23.3035C6.30937 23.0162 6.1226 22.6644 5.92949 22.3254C5.03994 20.7534 4.50812 19.0619 4.36883 17.2478C4.1409 14.2619 4.85001 11.531 6.57845 9.10997C8.55382 6.33389 11.2288 4.66824 14.5622 4.16144C17.0346 3.787 19.3993 4.18404 21.6375 5.31707C22.7676 5.88843 23.7774 6.63409 24.6765 7.53794C24.7651 7.62509 24.8538 7.70902 24.9424 7.79618V7.78972H24.9392Z" fill="#C4B5A1"/>
<path d="M7.12256 22.5514L7.13239 22.5647L7.12256 22.548V22.5514Z" fill="#B69942"/>
<path d="M7.08154 22.5031C7.08154 22.5031 7.11012 22.5355 7.12283 22.5484C7.12283 22.5484 7.09107 22.5193 7.07837 22.5063V22.5031H7.08154Z" fill="#B69942"/>
<path d="M28.4561 7.73175C28.4845 7.7767 28.5128 7.82486 28.538 7.86982H28.5349C28.4845 7.84734 28.4561 7.79918 28.4373 7.7478C28.4436 7.74138 28.4499 7.73817 28.4561 7.73175Z" fill="#B69942"/>
<path d="M28.5385 7.87067C28.5385 7.87067 28.545 7.88075 28.5483 7.88411C28.5417 7.88075 28.5385 7.87739 28.5352 7.87403H28.5385V7.87067Z" fill="#B69942"/>
<path d="M18.9435 13.2481C18.9733 13.2928 18.9762 13.3493 18.9882 13.397C19.0299 13.5549 19.0954 13.7038 19.1579 13.8527C19.2056 13.9689 19.2622 14.0851 19.3367 14.1863C19.4349 14.3174 19.5303 14.4544 19.6405 14.5765C19.7983 14.7552 19.9741 14.9101 20.1647 15.0501C20.2749 15.1305 20.394 15.199 20.5162 15.2616C20.6442 15.3271 20.7783 15.3807 20.9093 15.4373C20.9659 15.4612 21.0255 15.482 21.091 15.4939C21.1595 15.5088 21.228 15.5267 21.2966 15.5475C21.3412 15.5624 21.3859 15.5684 21.4306 15.5654C21.6867 15.628 21.9489 15.6131 22.208 15.6011C22.339 15.5952 22.4701 15.5654 22.5982 15.5416C22.7143 15.5177 22.8275 15.485 22.9407 15.4492C23.0748 15.4046 23.2028 15.342 23.3309 15.2824C23.4262 15.2378 23.5186 15.1901 23.6049 15.1335C23.8224 14.9876 24.0219 14.8208 24.2036 14.6331C24.2155 14.6212 24.2304 14.6033 24.2245 14.5795C24.3853 14.7254 24.5402 14.8833 24.7428 14.9727C24.8232 15.0084 24.8947 15.0561 24.981 15.0769C25.0942 15.1037 25.2044 15.1395 25.3206 15.1633C25.4934 15.199 25.6661 15.1871 25.8359 15.1782C25.9759 15.1693 25.9729 15.1544 25.9818 15.2914C25.9818 15.2914 25.9818 15.2973 25.9818 15.3003C25.9997 15.4671 25.9521 15.628 25.9312 15.7888C25.9133 15.9407 25.8955 16.0926 25.8597 16.2415C25.818 16.4083 25.8091 16.5811 25.7584 16.7479C25.7346 16.8283 25.7197 16.9207 25.7078 17.01C25.6989 17.0994 25.6661 17.1857 25.6453 17.2751C25.6304 17.3406 25.6155 17.4091 25.6006 17.4747C25.5857 17.5462 25.5648 17.6236 25.5499 17.6951C25.538 17.7576 25.5291 17.8291 25.4904 17.8887C25.4725 17.9155 25.4814 17.9423 25.4785 17.9721C25.4606 17.9929 25.4397 18.0138 25.4457 18.0466C25.4338 18.0614 25.4368 18.0793 25.4368 18.0972C25.4189 18.13 25.3921 18.1568 25.401 18.2014C25.398 18.2699 25.3593 18.3295 25.3414 18.395C25.3146 18.4993 25.2789 18.6006 25.2432 18.7018C25.2044 18.815 25.1627 18.9282 25.121 19.0384C25.0764 19.1516 25.0227 19.2648 24.9751 19.378C24.8976 19.5597 24.8083 19.7354 24.7159 19.9111C24.6474 20.0392 24.5789 20.1673 24.4985 20.2894C24.4657 20.2894 24.433 20.2835 24.3972 20.2835C22.1365 20.2835 19.8728 20.2835 17.6121 20.2835C17.6121 18.1597 17.6121 16.033 17.6121 13.9093C17.6121 13.8527 17.6121 13.7961 17.6121 13.7395C17.7521 13.7276 17.892 13.7574 18.0291 13.6949C18.1154 13.6561 18.2197 13.6591 18.312 13.6115C18.4103 13.5608 18.5086 13.5161 18.6039 13.4596C18.6933 13.4089 18.7707 13.3464 18.8482 13.2808C18.878 13.257 18.9107 13.2451 18.9465 13.263L18.9435 13.2481Z" fill="#FEBF2E"/>
<path d="M17.6118 20.2685C19.8725 20.2685 22.1362 20.2685 24.397 20.2685C24.4297 20.2685 24.4625 20.2715 24.4982 20.2745C24.4863 20.3609 24.4893 20.4502 24.4893 20.5366C24.4893 21.0072 24.4893 21.4778 24.4893 21.9455C24.4893 22.0557 24.4893 22.1659 24.4357 22.2672C24.3731 22.3893 24.2808 22.4846 24.1557 22.5471C24.0306 22.6097 23.8966 22.6216 23.7566 22.6216C22.863 22.6216 21.9694 22.6157 21.0759 22.6216C20.8554 22.6216 20.638 22.6246 20.4176 22.6335C20.3878 22.6067 20.3491 22.6186 20.3133 22.6186C19.4704 22.6186 18.6275 22.6246 17.7845 22.6186C16.7271 22.6097 15.6698 22.6186 14.6124 22.6127C13.6473 22.6127 12.6852 22.6127 11.7202 22.6127C11.6874 22.6127 11.6546 22.6157 11.6189 22.6186C11.5325 22.6037 11.4432 22.6157 11.3568 22.6097C11.3091 22.6097 11.2585 22.6097 11.2168 22.5769C11.2496 22.5769 11.2853 22.5769 11.3181 22.5769C13.3733 22.5769 15.4315 22.5769 17.4867 22.5769C17.5681 22.5769 17.6088 22.5352 17.6088 22.4518C17.6088 21.7221 17.6088 20.9953 17.6088 20.2656L17.6118 20.2685Z" fill="#FEA63B"/>
<path d="M25.9791 15.2914C25.9791 15.2914 25.9791 15.2854 25.9791 15.2824C25.9702 15.1454 25.9732 15.1603 25.8332 15.1693C25.6634 15.1782 25.4907 15.1901 25.3179 15.1544C25.2017 15.1305 25.0915 15.0978 24.9783 15.068C24.8949 15.0471 24.8205 14.9995 24.7401 14.9637C24.5345 14.8744 24.3826 14.7165 24.2218 14.5706C24.1652 14.5021 24.1086 14.4365 24.052 14.368C24.0461 14.3144 24.0163 14.2787 23.9746 14.2459C23.9358 14.1506 23.8822 14.0612 23.8495 13.9629C23.7988 13.817 23.7482 13.671 23.7393 13.5132C23.7393 13.3732 23.7393 13.2332 23.7393 13.0962C23.7542 12.9055 23.8137 12.7268 23.8882 12.5481C24.0014 12.2771 24.1741 12.0507 24.3945 11.8631C24.5226 11.7558 24.6626 11.6665 24.8115 11.589C24.8443 11.595 24.8681 11.5801 24.886 11.5533C24.9009 11.5533 24.9158 11.5473 24.9337 11.5443C24.9694 11.5533 24.9873 11.5265 25.0111 11.5086C25.0826 11.4937 25.1541 11.4729 25.2256 11.4609C25.4787 11.4133 25.7319 11.4133 25.9851 11.4609C26.1787 11.4967 26.3604 11.5682 26.5302 11.6665C26.8429 11.8452 27.0812 12.0954 27.254 12.4081C27.2808 12.4528 27.3016 12.5034 27.3255 12.5481C27.3225 12.5839 27.3284 12.6136 27.3642 12.6285C27.3642 12.6434 27.3672 12.6583 27.3701 12.6732C27.3582 12.706 27.385 12.7239 27.3999 12.7447C27.4089 12.84 27.4416 12.9324 27.4565 13.0307C27.4833 13.2123 27.4863 13.3911 27.4565 13.5727C27.4416 13.6621 27.4178 13.7485 27.3999 13.8349C27.3791 13.9361 27.3314 14.0314 27.2867 14.1238C27.1974 14.2995 27.0931 14.4663 26.9442 14.6033C26.7774 14.7582 26.6106 14.9101 26.3961 14.9965C26.3038 15.0322 26.2174 15.0799 26.1221 15.1008C26.0655 15.1127 26.0059 15.1305 26.0119 15.211C26.0119 15.2378 26.0059 15.2676 25.9791 15.2854V15.2914Z" fill="#FEA63B"/>
<path d="M25.4012 18.1858C25.3923 18.1444 25.4189 18.1148 25.4367 18.0823C25.4514 18.1267 25.4485 18.1621 25.4012 18.1858Z" fill="#772A0C"/>
<path d="M25.4456 18.0341C25.4397 18.0016 25.4604 17.9809 25.4781 17.9602C25.4781 17.9897 25.49 18.0223 25.4456 18.0341Z" fill="#772A0C"/>
<path d="M17.609 13.7217C17.609 13.7782 17.609 13.8348 17.609 13.8914C17.609 16.0152 17.609 18.1419 17.609 20.2656C17.5673 20.2656 17.5256 20.2656 17.4839 20.2656C15.2828 20.2656 13.0846 20.2656 10.8834 20.2656C10.8358 20.2656 10.7911 20.2656 10.7434 20.2686C10.6779 20.2388 10.666 20.1703 10.6362 20.1196C10.5081 19.9052 10.3979 19.6818 10.2907 19.4554C10.2073 19.2797 10.1179 19.1039 10.0643 18.9163C10.0107 18.7346 9.93922 18.5589 9.88859 18.3772C9.82604 18.1597 9.76349 17.9453 9.70094 17.7278C9.63243 17.4895 9.57881 17.2483 9.5252 17.01C9.50435 16.9206 9.48648 16.8313 9.47457 16.7389C9.46265 16.6436 9.43286 16.5513 9.41201 16.456C9.39414 16.3696 9.38819 16.2832 9.37032 16.1968C9.34947 16.0926 9.33457 15.9854 9.3167 15.8781C9.29585 15.7381 9.28691 15.5982 9.25415 15.4611C9.23628 15.3926 9.24521 15.3182 9.23926 15.2437C9.25415 15.1275 9.25415 15.1275 9.36734 15.1603C9.39414 15.1692 9.42393 15.1692 9.45074 15.1692C9.68009 15.1722 9.90646 15.1722 10.1298 15.1007C10.3175 15.0412 10.4903 14.9607 10.6571 14.8595C10.7822 14.782 10.8775 14.6748 10.9847 14.5825C11.214 14.8505 11.494 15.062 11.7978 15.2377C11.9557 15.3271 12.1225 15.4016 12.3012 15.4522C12.334 15.4611 12.3638 15.485 12.3995 15.485C12.3995 15.4999 12.4055 15.5148 12.4174 15.5148C12.5008 15.5237 12.5753 15.5713 12.6616 15.5565C12.8016 15.5565 12.9386 15.6041 13.0816 15.6041C13.2693 15.6041 13.4599 15.616 13.6446 15.5892C13.8054 15.5684 13.9692 15.5565 14.1182 15.4879C14.139 15.479 14.1628 15.482 14.1867 15.479C14.1926 15.479 14.2016 15.482 14.2105 15.479C14.3296 15.4522 14.4369 15.3956 14.55 15.3539C14.556 15.3539 14.556 15.336 14.559 15.3271C14.559 15.3271 14.562 15.3241 14.5649 15.3211C14.6037 15.3331 14.6275 15.3003 14.6513 15.2854C14.7168 15.2467 14.7943 15.2318 14.8449 15.1692C14.8509 15.1692 14.8539 15.1692 14.8598 15.1692C14.9075 15.1543 14.9462 15.1275 14.9819 15.0918C15.107 15.0203 15.2172 14.925 15.3245 14.8267C15.4555 14.7016 15.5896 14.5795 15.7028 14.4365C15.7921 14.3233 15.8696 14.2012 15.947 14.0761C16.0364 13.9272 16.1019 13.7663 16.1734 13.6085C16.1823 13.5906 16.1823 13.5697 16.1883 13.5489C16.2359 13.5429 16.227 13.5102 16.221 13.4804C16.224 13.4625 16.227 13.4446 16.23 13.4268C16.2746 13.4089 16.2627 13.3702 16.2597 13.3374C16.2597 13.3136 16.2627 13.2927 16.2657 13.2689C16.3253 13.1915 16.37 13.2421 16.4087 13.2898C16.4325 13.3225 16.4712 13.3225 16.498 13.3464C16.647 13.4834 16.8346 13.5578 17.0193 13.6263C17.2069 13.6948 17.4065 13.7276 17.609 13.7127V13.7217Z" fill="#FEF67F"/>
<path d="M10.9876 14.5914C10.8774 14.6837 10.7821 14.7909 10.66 14.8684C10.4932 14.9697 10.3204 15.0501 10.1328 15.1097C9.90939 15.1841 9.68302 15.1811 9.45367 15.1782C9.42686 15.1782 9.39707 15.1782 9.37027 15.1692C9.26006 15.1335 9.25708 15.1335 9.24219 15.2526C9.21538 15.2437 9.21836 15.2199 9.21836 15.202C9.2124 15.1454 9.17368 15.1216 9.12602 15.1126C8.77157 15.0292 8.48265 14.8356 8.23841 14.5735C8.11331 14.4395 8.01502 14.2846 7.92864 14.1208C7.84524 13.9629 7.81545 13.7931 7.77375 13.6233C7.73801 13.4834 7.74397 13.3404 7.74695 13.2004C7.7529 12.9979 7.8095 12.8042 7.88396 12.6136C7.95247 12.4349 8.04182 12.2681 8.16692 12.1251C8.38436 11.872 8.64349 11.6813 8.95624 11.5562C9.26602 11.4311 9.58472 11.4222 9.90641 11.455C10.0881 11.4728 10.2638 11.5413 10.4336 11.6247C10.663 11.7379 10.8625 11.8809 11.0293 12.0715C11.1783 12.2413 11.2974 12.4289 11.3748 12.6434C11.4046 12.7268 11.4374 12.8102 11.4463 12.8996C11.4463 12.9234 11.4553 12.9472 11.4821 12.9562C11.4821 12.974 11.4821 12.9949 11.4821 13.0127C11.4821 13.2093 11.4821 13.4059 11.4821 13.6025C11.4165 13.9242 11.2944 14.2191 11.0919 14.4812C11.0591 14.5229 11.0115 14.5497 10.9876 14.5973V14.5914Z" fill="#FEBF2E"/>
<path d="M18.9433 13.2481C18.9046 13.2302 18.8748 13.2421 18.845 13.2659C18.7676 13.3315 18.6901 13.394 18.6008 13.4447C18.5054 13.5013 18.4071 13.5459 18.3089 13.5966C18.2195 13.6442 18.1152 13.6412 18.0259 13.68C17.8889 13.7395 17.7489 13.7098 17.6089 13.7246C17.6089 13.6829 17.6089 13.6412 17.6089 13.5995C17.6089 12.3932 17.6089 11.1899 17.6089 9.98356C17.7876 9.96867 17.9574 10.0014 18.1301 10.0521C18.3386 10.1116 18.5263 10.204 18.702 10.3261C18.8927 10.4542 19.0446 10.621 19.1726 10.8056C19.265 10.9397 19.3305 11.0916 19.3841 11.2465C19.4645 11.4788 19.5092 11.7141 19.4943 11.9584C19.4884 12.0805 19.4526 12.1966 19.4288 12.3188C19.4079 12.4141 19.3752 12.5034 19.3394 12.5928C19.2918 12.706 19.2322 12.8162 19.1637 12.9175C19.1012 13.0128 19.0237 13.0932 18.9492 13.1766C18.9254 13.2034 18.9314 13.2242 18.9373 13.2511L18.9433 13.2481Z" fill="#FEA63B"/>
<path d="M17.6119 9.98355C17.6119 11.1899 17.6119 12.3932 17.6119 13.5995C17.6119 13.6412 17.6119 13.6829 17.6119 13.7246C17.4094 13.7395 17.2098 13.7068 17.0221 13.6383C16.8375 13.5727 16.6498 13.4953 16.5009 13.3583C16.4741 13.3344 16.4354 13.3315 16.4115 13.3017C16.3758 13.254 16.3281 13.2034 16.2686 13.2808C16.3013 13.1974 16.2477 13.1527 16.1971 13.0932C16.0392 12.9025 15.9082 12.694 15.8337 12.4528C15.7622 12.2205 15.7145 11.9851 15.7354 11.7409C15.7562 11.5294 15.789 11.318 15.8784 11.1243C16.0094 10.8414 16.1881 10.5971 16.4354 10.4006C16.62 10.2516 16.8226 10.1414 17.046 10.0729C17.2277 10.0163 17.4153 9.96866 17.6119 9.98951V9.98355Z" fill="#FEBF2E"/>
<path d="M14.5652 15.339C14.5652 15.339 14.5622 15.3628 14.5563 15.3658C14.4431 15.4075 14.3358 15.4641 14.2167 15.4909C14.2107 15.4909 14.2018 15.4909 14.1929 15.4909C14.312 15.4313 14.4341 15.3747 14.5622 15.342L14.5652 15.339Z" fill="#FEF67F"/>
<path d="M12.6676 15.5654C12.5813 15.5803 12.5038 15.5326 12.4234 15.5237C12.4115 15.5237 12.4055 15.5058 12.4055 15.4939C12.4949 15.5118 12.5872 15.5237 12.6676 15.5654Z" fill="#FEF67F"/>
<path d="M16.2595 13.3463C16.2595 13.3789 16.2743 13.4173 16.23 13.435C16.2152 13.3966 16.2388 13.373 16.2595 13.3463Z" fill="#FEA63B"/>
<path d="M16.2179 13.4893C16.2239 13.5189 16.2357 13.5514 16.1854 13.5573C16.1825 13.5278 16.1795 13.4982 16.2179 13.4893Z" fill="#FEA63B"/>
<path d="M10.7463 20.2745C10.794 20.2745 10.8387 20.2715 10.8863 20.2715C13.0875 20.2715 15.2857 20.2715 17.4868 20.2715C17.5285 20.2715 17.5702 20.2715 17.6119 20.2715C17.6119 21.0013 17.6119 21.728 17.6119 22.4578C17.6119 22.5412 17.5712 22.5829 17.4898 22.5829C15.4346 22.5829 13.3764 22.5829 11.3212 22.5829C11.2884 22.5829 11.2527 22.5829 11.2199 22.5829C11.205 22.5829 11.1872 22.5829 11.1723 22.5799C11.1604 22.5471 11.1306 22.5501 11.1008 22.5501C10.9519 22.4965 10.8506 22.3923 10.788 22.2493C10.7672 22.1987 10.7463 22.145 10.7463 22.0855C10.7463 21.4808 10.7463 20.8791 10.7463 20.2745Z" fill="#FEBF2E"/>
<path d="M11.1003 22.5472C11.127 22.5472 11.1565 22.5442 11.1713 22.5767C11.1417 22.5797 11.1151 22.5797 11.1003 22.5472Z" fill="#FEA63B"/>
</svg>
