<svg width="37" height="36" viewBox="0 0 37 36" fill="none" xmlns="http://www.w3.org/2000/svg">
<path d="M18.4458 34.3497C9.59778 34.3497 2.45923 27.048 2.49722 17.9676C2.53204 8.96468 9.75289 1.76946 18.5376 1.80174C27.2779 1.83402 34.4101 9.12608 34.407 18.0838C34.4038 27.0738 27.2621 34.3497 18.4458 34.3497ZM7.09058 25.5695C7.11907 25.6244 7.14123 25.6825 7.17605 25.7342C7.88832 26.8285 8.73672 27.8033 9.72757 28.6361C12.6843 31.1152 16.0842 32.2031 19.8956 31.7963C23.3209 31.4316 26.1953 29.9015 28.5189 27.303C29.592 26.1022 30.4183 24.7399 31.0166 23.2357C31.8111 21.2408 32.1056 19.1684 31.9536 17.025C31.8586 15.6434 31.5611 14.3103 31.0641 13.0255C30.146 10.6465 28.6772 8.68707 26.705 7.11504C26.3631 6.84388 26.0212 6.56628 25.6191 6.38551C25.5495 6.33063 25.4862 6.26607 25.4102 6.22088C24.9733 5.97232 24.5333 5.72054 24.0743 5.50749C21.6906 4.40997 19.1992 4.02584 16.6129 4.39383C13.3839 4.85543 10.6583 6.32095 8.44548 8.771C7.47046 9.84916 6.69487 11.0629 6.1029 12.3993C5.15637 14.5394 4.77649 16.7861 4.94427 19.1232C5.05507 20.6533 5.40645 22.1317 6.01109 23.5456C6.315 24.2525 6.64422 24.9433 7.09375 25.5663L7.09058 25.5695Z" fill="#C1B08F"/>
<path d="M7.09397 25.5697C6.64128 24.9467 6.31205 24.2559 6.01131 23.549C5.40667 22.1384 5.05529 20.6599 4.94449 19.1266C4.77671 16.7896 5.15659 14.5429 6.10312 12.4027C6.69509 11.0631 7.47068 9.85259 8.4457 8.77444C10.6585 6.32438 13.3809 4.85887 16.6131 4.39727C19.2026 4.02927 21.6908 4.41341 24.0745 5.51093C24.5335 5.72398 24.9704 5.97576 25.4104 6.22432C25.4864 6.26628 25.5497 6.33407 25.6194 6.38894C25.9517 7.00872 26.2968 7.61881 26.5659 8.2741C26.7368 8.69374 26.9236 9.11338 27.0091 9.5653C26.9204 9.47814 26.8318 9.39422 26.7432 9.30706C25.8441 8.40645 24.8343 7.65755 23.7041 7.08619C21.466 5.95639 19.1013 5.55612 16.6289 5.93057C13.2955 6.43736 10.6237 8.10301 8.64513 10.8791C6.91985 13.3033 6.20758 16.0342 6.43551 19.0169C6.5748 20.831 7.10663 22.5193 7.99618 24.0945C8.18928 24.4367 8.37605 24.7853 8.64513 25.0726C8.6578 25.0855 8.67362 25.0984 8.68629 25.1114L8.69262 25.1275L8.68312 25.1114C8.68312 25.1114 8.6578 25.0823 8.64513 25.0694C8.62614 24.9145 8.5375 24.7853 8.47419 24.6498C7.29657 22.1416 6.9895 19.5172 7.54665 16.8025C8.11014 14.0587 9.46504 11.7797 11.5797 9.98817C14.0932 7.85446 17.0056 6.94093 20.2567 7.19272C21.9979 7.32829 23.6313 7.85123 25.1445 8.74216C25.9043 9.19085 26.6355 9.68474 27.256 10.3271C27.2655 10.3755 27.2718 10.4207 27.2845 10.4691C27.6454 11.9572 27.7435 13.4647 27.6105 14.9916C27.5092 16.1698 27.256 17.319 26.8571 18.4326C26.2588 20.108 25.3788 21.6154 24.2106 22.9357C23.0299 24.2689 21.6528 25.3502 20.0541 26.1411C17.6577 27.329 15.1347 27.7422 12.4977 27.4388C10.649 27.2257 8.92055 26.6285 7.3124 25.6698C7.24275 25.6278 7.16361 25.602 7.08763 25.5697H7.09397Z" fill="#FFFCF7"/>
<path d="M27.0091 9.55868C26.9236 9.10676 26.74 8.69035 26.5659 8.26748C26.2968 7.61542 25.9518 7.0021 25.6194 6.38232C26.0214 6.56309 26.3633 6.8407 26.7052 7.11185C28.6774 8.68066 30.1463 10.6401 31.0643 13.0223C31.5613 14.3071 31.8589 15.6402 31.9538 17.0218C32.1058 19.1684 31.8114 21.2408 31.0168 23.2325C30.4185 24.7367 29.5923 26.0957 28.5191 27.2998C26.1987 29.9016 23.3211 31.4284 19.8959 31.7932C16.0844 32.1999 12.6877 31.1121 9.72781 28.6329C8.73696 27.8034 7.88856 26.8253 7.17629 25.731C7.14147 25.6793 7.11931 25.6212 7.09082 25.5663C7.1668 25.5986 7.24594 25.6245 7.31558 25.6664C8.92057 26.6284 10.6522 27.2223 12.5009 27.4354C15.1379 27.742 17.6609 27.3256 20.0573 26.1377C21.6528 25.3468 23.0299 24.2687 24.2138 22.9323C25.3819 21.612 26.262 20.1046 26.8603 18.4292C27.2592 17.3123 27.5124 16.1664 27.6137 14.9882C27.7467 13.4646 27.6486 11.9539 27.2877 10.4657C27.275 10.4206 27.2687 10.3721 27.2592 10.3237C27.5473 10.5271 27.7625 10.8047 28.0126 11.05C28.1392 11.1727 28.2215 11.3438 28.3862 11.4245C28.402 11.4729 28.4273 11.5148 28.4748 11.5407C28.478 11.5439 28.4843 11.5471 28.4875 11.5504C28.4843 11.5471 28.4811 11.5407 28.478 11.5374C28.4526 11.4955 28.4273 11.4503 28.402 11.4083C28.3577 11.3309 28.3165 11.2502 28.269 11.1759C27.9018 10.5916 27.4586 10.0719 27.0091 9.55222V9.55868Z" fill="#EEE5D8"/>
<path d="M27.009 9.55867C27.4586 10.0784 27.9018 10.6013 28.269 11.1824C28.3165 11.2598 28.3576 11.3373 28.4019 11.4148C28.3956 11.4212 28.3893 11.4245 28.3861 11.4309C28.2215 11.347 28.136 11.1791 28.0126 11.0565C27.7625 10.8111 27.5504 10.5303 27.2591 10.3302C26.6387 9.68779 25.9074 9.19391 25.1476 8.74521C23.6345 7.85106 21.9978 7.32812 20.2599 7.19577C17.0056 6.94722 14.0932 7.85751 11.5828 9.99122C9.47134 11.7828 8.11328 14.0617 7.54979 16.8055C6.99264 19.5203 7.29654 22.1414 8.47733 24.6528C8.54064 24.7884 8.62928 24.9175 8.64828 25.0725C8.3792 24.7852 8.19242 24.4333 7.99932 24.0944C7.10977 22.5223 6.57794 20.8309 6.43865 19.0167C6.21072 16.0308 6.91983 13.2999 8.64828 10.8789C10.6236 8.10284 13.2986 6.43719 16.632 5.9304C19.1044 5.55595 21.4692 5.95299 23.7073 7.08602C24.8374 7.65738 25.8473 8.40305 26.7463 9.30689C26.8349 9.39404 26.9236 9.47797 27.0122 9.56513V9.55867H27.009Z" fill="#C4B5A1"/>
<path d="M9.19238 24.3204L9.20221 24.3337L9.19238 24.317V24.3204Z" fill="#B69942"/>
<path d="M9.15137 24.2721C9.15137 24.2721 9.17995 24.3045 9.19265 24.3174C9.19265 24.3174 9.1609 24.2883 9.14819 24.2753V24.2721H9.15137Z" fill="#B69942"/>
<path d="M30.526 9.50073C30.5543 9.54568 30.5827 9.59385 30.6078 9.6388H30.6047C30.5543 9.61632 30.526 9.56816 30.5071 9.51679C30.5134 9.51036 30.5197 9.50715 30.526 9.50073Z" fill="#B69942"/>
<path d="M30.6083 9.63965C30.6083 9.63965 30.6149 9.64973 30.6182 9.65309C30.6116 9.64973 30.6083 9.64637 30.605 9.64301H30.6083V9.63965Z" fill="#B69942"/>
<path d="M29.9037 15.0271C29.1448 15.5194 28.821 16.2848 28.5612 17.1076C28.2543 18.072 27.9507 19.033 27.5864 19.9772C27.0602 21.3327 26.6858 22.7052 26.8579 24.1787C26.9321 24.843 26.7533 25.16 25.9843 25.1532C21.3464 25.1229 16.7118 25.1296 12.0739 25.1499C11.4263 25.1499 11.1396 24.961 11.2003 24.2833C11.4769 21.2788 9.83763 18.7532 9.09894 16.005C9.00449 15.6509 8.66044 15.5835 8.47156 15.3474C8.04318 14.8146 8.00608 14.2717 8.48842 13.7727C8.91342 13.331 9.44636 13.2298 9.96243 13.6108C10.5021 14.0087 10.6505 14.5348 10.3132 15.1485C9.86798 15.9645 10.2626 17.0368 11.2678 17.7584C12.1684 18.4058 12.7924 17.9338 13.3523 17.2425C14.0202 16.413 14.4047 15.4385 14.8027 14.464C14.941 14.1268 14.887 13.9109 14.6846 13.6277C14.2664 13.0376 14.3069 12.4441 14.9039 11.9889C15.4065 11.6045 15.9394 11.6584 16.3779 12.1069C16.9007 12.6431 16.894 13.2298 16.3543 13.7457C16.1081 13.9818 15.936 14.1537 16.1047 14.5213C16.5972 15.5801 17.0694 16.6524 17.9261 17.4785C18.7559 18.2777 19.3664 18.2676 20.1152 17.4347C20.8843 16.5782 21.2384 15.4992 21.6634 14.4572C21.8287 14.0492 21.5049 13.9211 21.3126 13.6951C20.8741 13.1758 20.864 12.6127 21.3329 12.1204C21.7579 11.6719 22.2908 11.5944 22.8069 11.972C23.4073 12.4138 23.5523 13.0275 23.07 13.5839C22.7091 14.002 22.8001 14.3324 22.9688 14.7202C23.387 15.6846 23.8019 16.6558 24.5372 17.4313C25.3569 18.2946 26.1596 18.362 26.9388 17.4819C27.5493 16.794 28.6962 16.1837 27.6741 14.9124C27.3335 14.4876 27.6337 13.9278 28.1059 13.6108C28.8817 13.0882 29.4045 13.5636 29.9104 14.093V15.0271H29.9037ZM22.2604 15.0878C21.8354 15.8802 21.4779 16.703 20.9854 17.4381C19.8285 19.1578 18.4321 19.1949 17.0896 17.61C16.4319 16.8345 15.9833 15.9139 15.4908 14.9394C13.1735 19.033 13.0622 19.1106 10.637 18.3957C10.9541 19.296 11.2981 20.1829 11.5781 21.09C11.7299 21.5823 11.9829 21.761 12.4956 21.7576C16.8602 21.7408 21.2182 21.7475 25.5829 21.7475C25.8932 21.7475 26.2473 21.7947 26.3654 21.4036C26.6622 20.392 27.2053 19.4478 27.2761 18.3114C25.0162 19.296 24.5069 18.9588 22.2672 15.0878H22.2604ZM19.0089 24.4249C21.1102 24.4249 23.215 24.3844 25.3164 24.4451C26.1327 24.4687 26.1866 24.0944 26.1596 23.4706C26.136 22.9108 26.2339 22.4421 25.3569 22.4523C21.1507 22.4961 16.9446 22.4961 12.7384 22.4523C11.9255 22.4421 11.9019 22.8063 11.885 23.4268C11.8682 24.1214 11.9727 24.4721 12.8126 24.4451C14.8735 24.381 16.9412 24.4249 19.0055 24.4249H19.0089Z" fill="#16120B"/>
<path d="M22.2637 15.081C24.5 18.9521 25.0127 19.2893 27.2726 18.3047C27.2018 19.4411 26.6587 20.3886 26.3619 21.3968C26.2472 21.788 25.8897 21.7408 25.5794 21.7408C21.2147 21.7408 16.8568 21.734 12.4921 21.7509C11.9794 21.7509 11.7264 21.5755 11.5746 21.0832C11.2947 20.1762 10.9506 19.2893 10.6335 18.389C13.0587 19.1039 13.1701 19.0263 15.4873 14.9327C15.9798 15.9106 16.4284 16.8244 17.0861 17.6033C18.4286 19.1882 19.825 19.1511 20.982 17.4313C21.4778 16.6962 21.8353 15.8701 22.257 15.081H22.2637Z" fill="#F5D336"/>
<path d="M19.0089 24.4181C16.9447 24.4181 14.877 24.3743 12.8161 24.4384C11.9796 24.4654 11.875 24.118 11.8885 23.42C11.902 22.7962 11.9256 22.4354 12.7419 22.4455C16.948 22.4894 21.1542 22.4894 25.3603 22.4455C26.2373 22.4354 26.1395 22.9007 26.1631 23.4639C26.1901 24.0877 26.1361 24.462 25.3199 24.4384C23.2185 24.3777 21.1137 24.4181 19.0123 24.4181H19.0089Z" fill="#FBAC3A"/>
<path d="M18.5126 34.1349C27.3577 34.1349 34.5281 26.945 34.5281 18.0757C34.5281 9.2064 27.3577 2.01642 18.5126 2.01642C9.66746 2.01642 2.49707 9.2064 2.49707 18.0757C2.49707 26.945 9.66746 34.1349 18.5126 34.1349Z" stroke="#14E8C5" stroke-width="3" stroke-miterlimit="10"/>
</svg>
