<svg width="33" height="33" viewBox="0 0 33 33" fill="none" xmlns="http://www.w3.org/2000/svg">
<path d="M16.3759 32.7594C7.52795 32.7594 0.389409 25.4577 0.427397 16.3773C0.462219 7.37441 7.68307 0.179193 16.4677 0.211473C25.2081 0.243753 32.3403 7.53581 32.3372 16.4935C32.334 25.4835 25.1923 32.7594 16.3759 32.7594ZM5.02076 23.9793C5.04925 24.0341 5.07141 24.0922 5.10623 24.1439C5.8185 25.2382 6.66689 26.213 7.65774 27.0459C10.6145 29.525 14.0144 30.6128 17.8258 30.2061C21.251 29.8413 24.1255 28.3112 26.449 25.7127C27.5222 24.5119 28.3484 23.1497 28.9467 21.6454C29.7413 19.6505 30.0357 17.5781 29.8838 15.4347C29.7888 14.0532 29.4912 12.72 28.9942 11.4352C28.0762 9.0562 26.6073 7.0968 24.6351 5.52477C24.2932 5.25361 23.9513 4.97601 23.5493 4.79524C23.4797 4.74036 23.4163 4.6758 23.3404 4.63061C22.9035 4.38205 22.4635 4.13027 22.0045 3.91722C19.6207 2.8197 17.1294 2.43557 14.543 2.80356C11.3141 3.26516 8.58844 4.73068 6.37565 7.18073C5.40063 8.25888 4.62505 9.47261 4.03307 10.809C3.08654 12.9492 2.70667 15.1959 2.87444 17.5329C2.98524 19.063 3.33663 20.5414 3.94127 21.9553C4.24517 22.6622 4.5744 23.353 5.02392 23.976L5.02076 23.9793Z" fill="#C1B08F"/>
<path d="M5.02414 23.9794C4.57145 23.3564 4.24223 22.6656 3.94149 21.9587C3.33685 20.5481 2.98546 19.0696 2.87466 17.5363C2.70688 15.1993 3.08676 12.9526 4.03329 10.8124C4.62527 9.47279 5.40085 8.26229 6.37587 7.18414C8.58866 4.73408 11.3111 3.26857 14.5433 2.80696C17.1328 2.43897 19.621 2.8231 22.0047 3.92063C22.4637 4.13367 22.9006 4.38546 23.3406 4.63401C23.4166 4.67598 23.4799 4.74377 23.5495 4.79864C23.8819 5.41842 24.227 6.02851 24.4961 6.6838C24.667 7.10344 24.8538 7.52308 24.9393 7.975C24.8506 7.88784 24.762 7.80391 24.6733 7.71676C23.7743 6.81614 22.7644 6.06725 21.6343 5.49589C19.3962 4.36609 17.0315 3.96582 14.5591 4.34027C11.2257 4.84706 8.55384 6.51271 6.57531 9.28879C4.85003 11.713 4.13776 14.4439 4.36569 17.4266C4.50497 19.2407 5.0368 20.929 5.92635 22.5042C6.11946 22.8464 6.30623 23.195 6.57531 23.4823C6.58797 23.4952 6.6038 23.5081 6.61646 23.5211L6.62279 23.5372L6.6133 23.5211C6.6133 23.5211 6.58797 23.492 6.57531 23.4791C6.55632 23.3242 6.46768 23.195 6.40436 23.0595C5.22674 20.5513 4.91967 17.9269 5.47683 15.2122C6.04031 12.4684 7.39521 10.1894 9.50987 8.39787C12.0234 6.26416 14.9358 5.35063 18.1869 5.60242C19.928 5.73799 21.5615 6.26093 23.0747 7.15186C23.8344 7.60055 24.5657 8.09443 25.1862 8.73681C25.1957 8.78523 25.202 8.83042 25.2147 8.87884C25.5755 10.3669 25.6737 11.8744 25.5407 13.4013C25.4394 14.5795 25.1862 15.7287 24.7873 16.8423C24.189 18.5177 23.3089 20.0251 22.1408 21.3454C20.96 22.6786 19.583 23.7599 17.9843 24.5508C15.5879 25.7387 13.0649 26.1519 10.4279 25.8484C8.57917 25.6354 6.85072 25.0382 5.24257 24.0795C5.17293 24.0375 5.09379 24.0117 5.01781 23.9794H5.02414Z" fill="#FFFCF7"/>
<path d="M24.9393 7.96844C24.8538 7.51652 24.6702 7.10011 24.4961 6.67724C24.227 6.02518 23.8819 5.41186 23.5495 4.79208C23.9516 4.97285 24.2935 5.25046 24.6354 5.52161C26.6076 7.09042 28.0764 9.04982 28.9945 11.4321C29.4915 12.7168 29.789 14.05 29.884 15.4316C30.036 17.5782 29.7416 19.6506 28.947 21.6423C28.3487 23.1465 27.5224 24.5055 26.4493 25.7095C24.1289 28.3113 21.2513 29.8382 17.8261 30.2029C14.0146 30.6097 10.6179 29.5218 7.65798 27.0427C6.66713 26.2131 5.81874 25.235 5.10647 24.1407C5.07165 24.0891 5.04949 24.031 5.021 23.9761C5.09697 24.0084 5.17611 24.0342 5.24576 24.0762C6.85074 25.0381 8.58235 25.6321 10.4311 25.8451C13.0681 26.1518 15.5911 25.7354 17.9875 24.5475C19.583 23.7566 20.96 22.6784 22.144 21.3421C23.3121 20.0218 24.1922 18.5143 24.7905 16.839C25.1894 15.7221 25.4426 14.5762 25.5439 13.3979C25.6769 11.8743 25.5787 10.3636 25.2178 8.87551C25.2052 8.83032 25.1989 8.7819 25.1894 8.73348C25.4774 8.93684 25.6927 9.21445 25.9428 9.45978C26.0694 9.58244 26.1517 9.75352 26.3163 9.83422C26.3322 9.88264 26.3575 9.92461 26.405 9.95043C26.4081 9.95366 26.4145 9.95689 26.4176 9.96012C26.4145 9.95689 26.4113 9.95043 26.4081 9.9472C26.3828 9.90524 26.3575 9.86005 26.3322 9.81808C26.2878 9.74061 26.2467 9.65991 26.1992 9.58567C25.832 9.0014 25.3888 8.48169 24.9393 7.96198V7.96844Z" fill="#EEE5D8"/>
<path d="M24.9392 7.96843C25.3887 8.48814 25.8319 9.01108 26.1992 9.59212C26.2466 9.66959 26.2878 9.74706 26.3321 9.82453C26.3258 9.83099 26.3194 9.83422 26.3163 9.84067C26.1517 9.75674 26.0662 9.58889 25.9427 9.46622C25.6926 9.2209 25.4806 8.94006 25.1893 8.73992C24.5688 8.09755 23.8376 7.60367 23.0778 7.15497C21.5646 6.26082 19.928 5.73788 18.1901 5.60553C14.9358 5.35698 12.0234 6.26727 9.51301 8.40098C7.40152 10.1925 6.04346 12.4715 5.47997 15.2153C4.92282 17.93 5.22672 20.5512 6.40751 23.0626C6.47082 23.1981 6.55946 23.3273 6.57845 23.4822C6.30937 23.1949 6.1226 22.8431 5.92949 22.5041C5.03994 20.9321 4.50812 19.2406 4.36883 17.4265C4.1409 14.4406 4.85001 11.7097 6.57845 9.28868C8.55382 6.5126 11.2288 4.84695 14.5622 4.34016C17.0346 3.96571 19.3993 4.36275 21.6375 5.49578C22.7676 6.06714 23.7774 6.81281 24.6765 7.71665C24.7651 7.8038 24.8538 7.88773 24.9424 7.97489V7.96843H24.9392Z" fill="#C4B5A1"/>
<path d="M7.12256 22.7301L7.13239 22.7435L7.12256 22.7267V22.7301Z" fill="#B69942"/>
<path d="M7.08154 22.6818C7.08154 22.6818 7.11012 22.7142 7.12283 22.7271C7.12283 22.7271 7.09107 22.698 7.07837 22.685V22.6818H7.08154Z" fill="#B69942"/>
<path d="M28.4561 7.91046C28.4845 7.95541 28.5128 8.00358 28.538 8.04853H28.5349C28.4845 8.02605 28.4561 7.97789 28.4373 7.92652C28.4436 7.92009 28.4499 7.91688 28.4561 7.91046Z" fill="#B69942"/>
<path d="M28.5385 8.04938C28.5385 8.04938 28.545 8.05946 28.5483 8.06282C28.5417 8.05946 28.5385 8.0561 28.5352 8.05274H28.5385V8.04938Z" fill="#B69942"/>
<path d="M25.823 14.0641C25.2618 14.8264 25.2052 15.7787 24.8566 16.6232C24.6979 17.0058 25.1173 17.2325 25.2675 17.5131C25.6926 18.3123 25.225 19.0265 24.7064 19.1427C23.7853 19.3467 23.723 19.8795 23.7938 20.5257C23.9072 21.5686 23.4509 21.9087 22.4817 21.7811C21.5436 21.6564 20.563 22.0277 19.6505 21.5573C19.8318 21.1378 20.2088 21.22 20.546 21.2143C21.2403 21.2058 21.9319 21.2143 22.6262 21.1973C22.8472 21.1917 23.1732 21.2852 23.2072 20.9366C23.2497 20.503 22.8926 20.5682 22.6262 20.5653C21.4132 20.5568 20.1974 20.5342 18.9873 20.5653C18.0776 20.588 17.2642 20.401 16.6209 19.7293C16.3658 19.4629 16.1533 19.3467 15.8585 19.6783C15.1472 20.4832 14.2063 20.5937 13.2002 20.5625C12.1261 20.5313 11.052 20.5427 9.97507 20.5625C9.703 20.5682 9.24106 20.384 9.22405 20.8459C9.20421 21.4042 9.71717 21.2002 10.0091 21.2002C12.6079 21.2172 15.2095 21.203 17.8083 21.2143C18.2023 21.2143 18.6614 21.0556 18.9334 21.5261C18.6557 21.9172 18.2391 21.767 17.8792 21.7698C15.2124 21.7811 12.5427 21.7415 9.87871 21.7953C8.92931 21.8152 8.54388 21.5204 8.60623 20.5568C8.64307 19.9504 8.76777 19.2872 7.75602 19.1398C7.32525 19.0775 6.7131 18.3605 7.08436 17.8362C7.87505 16.7224 7.25723 15.7702 7.03334 14.7357C6.92565 14.2341 6.1973 13.5795 6.98233 13.2082C7.65116 12.8936 7.77586 13.7835 8.11594 14.1576C8.36817 14.4325 8.51554 14.8576 8.96049 14.8406C9.48478 14.8236 9.55847 14.3418 9.72851 13.9762C9.75685 13.9139 9.76535 13.8402 9.80219 13.7835C10.0743 13.3811 9.9779 12.6386 10.6637 12.6329C11.2475 12.63 11.3014 13.279 11.5735 13.6531C11.6755 13.792 11.752 13.9479 11.8427 14.0952C12.4067 14.9823 12.9763 14.9936 13.5658 14.1321C13.7528 13.8572 13.8492 13.4689 14.3168 13.5624C14.2601 14.39 13.8804 15.073 13.0868 15.2799C11.5593 15.6738 11.3921 14.1406 10.6864 13.3499C10.233 13.9224 10.2386 14.6592 9.73134 15.1212C9.11919 15.6823 8.46453 15.243 7.73902 15.0787C7.87505 15.5321 7.9459 15.8665 8.07627 16.1754C8.6119 17.4366 8.39368 19.3382 9.59814 19.8852C10.7998 20.4321 12.4492 20.0042 13.9059 19.9872C14.6087 19.9787 15.1302 19.6103 15.6261 19.1427C15.9379 18.8479 15.969 18.6609 15.697 18.3151C15.2039 17.6916 14.7589 17.0313 14.331 16.3625C13.9711 15.7928 14.0844 15.2317 14.5379 14.7527C14.9573 14.3106 17.114 14.1859 17.6751 14.5799C18.1626 14.9228 18.4262 15.4017 18.2589 16.0139C18.1966 16.2406 18.0549 16.4503 17.9217 16.6487C17.6525 17.0483 17.3606 17.4366 17.0828 17.8333C16.3942 18.8139 16.4622 19.137 17.5476 19.7123C17.8423 19.8682 18.1994 19.9815 18.531 19.9872C19.5654 20.007 20.6027 19.9645 21.6371 19.9447C22.1954 20.0042 22.9918 20.3386 23.227 19.7548C23.825 18.2896 24.2047 16.7366 24.7319 15.0276C24.0687 15.2402 23.6521 15.5321 23.1675 15.4329C22.9238 15.3082 22.7906 15.1353 22.9294 14.8519C23.8335 15.0758 24.1736 14.4098 24.5703 13.826C24.8679 13.3896 25.123 12.8398 25.8201 13.2337V14.0669L25.823 14.0641ZM16.2808 17.8702C16.5132 17.5868 16.8731 17.3657 16.8561 16.9548C16.8363 16.5694 16.567 16.1131 16.2269 16.1216C15.833 16.1301 15.5354 16.6062 15.5524 17.003C15.5666 17.3515 15.8585 17.6661 16.2808 17.8702ZM15.833 15.3337C15.8529 15.0333 15.6885 14.9199 15.4533 14.9455C15.0168 14.9965 14.7618 15.243 14.7674 15.6993C14.7674 15.943 14.8411 16.3115 15.0877 16.2434C15.5014 16.1329 15.6403 15.6681 15.833 15.3337ZM17.7006 15.5859C17.6751 15.2232 17.4229 14.9426 16.9383 14.9256C16.7314 14.9171 16.4848 15.0276 16.5755 15.2855C16.7229 15.705 16.9468 16.1414 17.3917 16.2633C17.5844 16.3171 17.7035 15.9629 17.7006 15.5831V15.5859Z" fill="#16140F"/>
<path d="M22.9322 14.8549C22.7905 15.1383 22.9237 15.3084 23.1703 15.4359C23.0796 15.8213 22.9917 16.2068 22.9039 16.595C22.235 16.425 21.8723 16.7962 21.6257 17.3347C21.2403 18.1736 21.0249 19.0153 21.7107 19.8201C21.6682 19.8513 21.6427 19.8938 21.6427 19.9477C20.6083 19.9675 19.571 20.01 18.5366 19.9902C18.205 19.9845 17.848 19.8712 17.5532 19.7153C16.4678 19.14 16.3998 18.8141 17.0884 17.8363C17.3662 17.4424 17.6581 17.0541 17.9273 16.6517C18.0605 16.4533 18.205 16.2408 18.2646 16.0169C18.4318 15.4047 18.1682 14.9258 17.6807 14.5829C17.1196 14.1889 14.9629 14.3136 14.5435 14.7557C14.09 15.2318 13.9767 15.7958 14.3366 16.3655C14.7617 17.0371 15.2095 17.6946 15.7026 18.3181C15.9775 18.6667 15.9463 18.8509 15.6317 19.1456C15.1386 19.6161 14.6143 19.9845 13.9115 19.9902C12.4576 20.0044 10.8082 20.4323 9.60375 19.8882C8.39929 19.3412 8.61751 17.4367 8.08188 16.1784C7.95151 15.8723 7.88066 15.5379 7.74463 15.0816C8.47014 15.246 9.12197 15.6853 9.73695 15.1242C10.2414 14.6622 10.2414 13.9254 10.692 13.3529C11.3977 14.1436 11.5649 15.6768 13.0924 15.2829C13.886 15.0788 14.2657 14.3958 14.3224 13.5654C14.4131 13.3387 14.5066 13.112 14.6002 12.8881C15.5921 12.6019 15.4844 11.4229 16.3034 10.8504C16.9864 12.0351 17.6496 13.2254 18.3496 14.393C19.1374 15.7051 20.2711 15.7023 21.0703 14.4128C21.2941 14.0529 21.5209 13.6958 21.7504 13.333C22.0508 13.6363 21.9686 14.1691 22.4958 14.1776C22.561 14.4553 22.7083 14.6792 22.935 14.8549H22.9322ZM19.4605 19.0521C20.3561 19.1485 20.7018 18.4655 20.7132 17.8618C20.7245 17.2497 20.3816 16.5922 19.5087 16.612C18.8455 16.6262 18.0435 17.2894 18.188 17.8675C18.3439 18.4768 18.5791 19.1655 19.4605 19.0521ZM12.9791 16.6177C12.0609 16.595 11.7009 17.2355 11.7236 17.8647C11.7491 18.5392 12.143 19.1371 13.0613 19.072C13.9228 19.0096 14.2261 18.4031 14.1977 17.7711C14.1694 17.1221 13.7726 16.5213 12.9791 16.6177ZM11.1256 18.6667C11.1171 18.0659 10.9839 17.5019 10.6155 17.0116C10.3973 16.7197 10.1394 16.4788 9.74546 16.5837C9.35719 16.6885 9.241 17.0371 9.18715 17.3857C9.09646 17.9894 9.24383 18.559 9.53007 19.0861C9.74262 19.4801 10.026 19.976 10.5135 19.8598C11.0434 19.7351 11.1398 19.1797 11.1256 18.6639V18.6667Z" fill="#F3C65F"/>
<path d="M18.9336 21.5318C18.6615 21.0613 18.2024 21.22 17.8085 21.22C15.2097 21.2087 12.608 21.22 10.0092 21.2059C9.72014 21.2059 9.20435 21.4099 9.22419 20.8516C9.24119 20.3897 9.70314 20.571 9.97521 20.5682C11.0493 20.5484 12.1234 20.537 13.2003 20.5682C14.2036 20.5994 15.1473 20.4888 15.8587 19.684C16.1534 19.3524 16.3631 19.4686 16.621 19.735C17.2672 20.4067 18.0805 20.5937 18.9874 20.571C20.2004 20.5399 21.4134 20.5654 22.6263 20.571C22.8927 20.571 23.2498 20.5087 23.2073 20.9423C23.1733 21.2909 22.8474 21.1974 22.6263 21.203C21.932 21.22 21.2405 21.2115 20.5461 21.22C20.2089 21.2229 19.832 21.1407 19.6506 21.5629C19.4097 21.5544 19.1716 21.5488 18.9308 21.5374L18.9336 21.5318Z" fill="#EDCF73"/>
<path d="M22.4925 14.1777C21.9654 14.1692 22.0448 13.6364 21.7472 13.3332C21.5148 13.6988 21.2881 14.053 21.067 14.413C20.2678 15.7024 19.1342 15.7024 18.3463 14.3931C17.6463 13.2255 16.9832 12.038 16.3002 10.8506C15.4811 11.423 15.5888 12.602 14.5969 12.8882C14.6281 11.8255 15.3026 11.0575 15.9034 10.3064C16.2803 9.83599 16.6431 10.3064 16.8585 10.6692C17.5046 11.7716 18.1253 12.8882 18.7686 13.9907C19.3921 15.0591 20.0071 15.0534 20.6504 13.9907C20.7581 13.8121 20.8573 13.6308 20.9763 13.4607C21.2314 13.0895 21.3561 12.3639 21.9711 12.6984C22.4472 12.9563 22.7674 13.5287 22.4925 14.1806V14.1777Z" fill="#16140F"/>
<path d="M22.9007 16.5923C22.9914 16.2069 23.0792 15.8214 23.1671 15.4332C23.6545 15.5352 24.0712 15.2404 24.7315 15.0279C24.2044 16.7396 23.8246 18.2927 23.2266 19.7551C22.9886 20.336 22.1922 20.0016 21.6367 19.9449C21.6367 19.8911 21.6594 19.8486 21.7047 19.8174C22.1582 20.03 22.4104 19.704 22.6541 19.4348C23.2946 18.7348 23.3825 17.5729 22.8979 16.5923H22.9007Z" fill="#CA9254"/>
<path d="M16.2806 17.8733C15.8583 17.672 15.5664 17.3546 15.5522 17.006C15.5352 16.6093 15.8299 16.1332 16.2267 16.1247C16.5668 16.119 16.836 16.5724 16.8559 16.9579C16.8757 17.3631 16.513 17.5899 16.2806 17.8733Z" fill="#CA646C"/>
<path d="M15.8296 15.3395C15.6341 15.6767 15.498 16.1387 15.0843 16.2492C14.8349 16.3172 14.7668 15.9488 14.764 15.7051C14.7583 15.246 15.0134 14.9994 15.4498 14.9512C15.6879 14.9257 15.8494 15.0363 15.8296 15.3395Z" fill="#CA646C"/>
<path d="M17.7003 15.5889C17.706 15.9658 17.587 16.3201 17.3914 16.2691C16.9437 16.1472 16.7226 15.7108 16.5752 15.2913C16.4845 15.0334 16.7311 14.9229 16.938 14.9314C17.4226 14.9484 17.6777 15.229 17.7003 15.5918V15.5889Z" fill="#CA646C"/>
<path d="M19.4603 19.052C18.5789 19.1682 18.3409 18.4795 18.1878 17.8674C18.0404 17.2892 18.8453 16.6261 19.5085 16.6119C20.3814 16.5921 20.7243 17.2467 20.7129 17.8617C20.7016 18.4682 20.3558 19.1483 19.4603 19.052Z" fill="#16140F"/>
<path d="M12.9794 16.6149C13.7786 16.5214 14.1697 17.1194 14.198 17.7684C14.2264 18.3975 13.9259 19.0068 13.0616 19.0692C12.1433 19.1344 11.7494 18.5392 11.7239 17.8619C11.7012 17.2327 12.0612 16.5922 12.9794 16.6149Z" fill="#16140F"/>
<path d="M22.9005 16.5921C23.3852 17.5727 23.2945 18.7347 22.6568 19.4347C22.4131 19.7039 22.1609 20.0298 21.7074 19.8173C21.0216 19.0124 21.237 18.1707 21.6224 17.3318C21.8718 16.7905 22.2346 16.4221 22.9005 16.5921ZM22.5576 17.0909C21.7839 18.063 21.7301 18.3492 22.1042 19.1796C22.5916 18.5986 22.8042 17.9836 22.5576 17.0909Z" fill="#16140F"/>
<path d="M11.1254 18.6608C11.1396 19.1766 11.0404 19.7293 10.5132 19.8568C10.0258 19.9702 9.74522 19.4799 9.52984 19.0831C9.24643 18.556 9.09906 17.9835 9.18692 17.3827C9.23793 17.0341 9.35413 16.6855 9.74522 16.5807C10.1392 16.473 10.3971 16.7167 10.6153 17.0086C10.9837 17.4989 11.1141 18.0629 11.1254 18.6637V18.6608ZM9.83591 16.9803C9.71121 17.9722 9.75089 18.6353 10.3971 19.2531C10.757 18.4086 10.4792 17.805 9.83591 16.9803Z" fill="#16140F"/>
<path d="M22.5583 17.0939C22.8077 17.9866 22.5923 18.6016 22.1048 19.1826C21.7279 18.3522 21.7818 18.0659 22.5583 17.0939Z" fill="#CA646C"/>
<path d="M9.83618 16.9832C10.4795 17.8107 10.7601 18.4115 10.3973 19.2561C9.75115 18.6383 9.71148 17.9751 9.83618 16.9832Z" fill="#CA646C"/>
</svg>
