<svg width="36" height="36" viewBox="0 0 36 36" fill="none" xmlns="http://www.w3.org/2000/svg">
<path d="M18.0971 34.2039C9.24914 34.2039 2.1106 26.9022 2.14859 17.8218C2.18341 8.81893 9.40426 1.62371 18.1889 1.65599C26.9293 1.68827 34.0615 8.98033 34.0583 17.938C34.0552 26.928 26.9135 34.2039 18.0971 34.2039ZM6.74195 25.4238C6.77044 25.4787 6.7926 25.5368 6.82742 25.5884C7.53969 26.6827 8.38809 27.6576 9.37893 28.4904C12.3357 30.9695 15.7356 32.0573 19.547 31.6506C22.9722 31.2858 25.8466 29.7558 28.1702 27.1572C29.2434 25.9564 30.0696 24.5942 30.6679 23.0899C31.4625 21.095 31.7569 19.0226 31.605 16.8793C31.51 15.4977 31.2124 14.1645 30.7154 12.8798C29.7974 10.5007 28.3285 8.54132 26.3563 6.96929C26.0144 6.69813 25.6725 6.42052 25.2705 6.23976C25.2009 6.18488 25.1375 6.12032 25.0616 6.07513C24.6247 5.82657 24.1847 5.57479 23.7257 5.36174C21.3419 4.26422 18.8506 3.88009 16.2642 4.24808C13.0353 4.70968 10.3096 6.1752 8.09685 8.62525C7.12183 9.7034 6.34624 10.9171 5.75426 12.2535C4.80774 14.3937 4.42786 16.6404 4.59564 18.9775C4.70643 20.5075 5.05782 21.986 5.66246 23.3998C5.96636 24.1068 6.29559 24.7975 6.74511 25.4206L6.74195 25.4238Z" fill="#C1B08F"/>
<path d="M6.74533 25.424C6.29264 24.801 5.96342 24.1102 5.66268 23.4033C5.05804 21.9926 4.70665 20.5142 4.59586 18.9809C4.42808 16.6438 4.80795 14.3971 5.75448 12.257C6.34646 10.9173 7.12205 9.70684 8.09707 8.62869C10.3099 6.17863 13.0323 4.71312 16.2644 4.25151C18.8539 3.88352 21.3421 4.26765 23.7259 5.36518C24.1849 5.57822 24.6218 5.83001 25.0618 6.07856C25.1378 6.12053 25.2011 6.18832 25.2707 6.24319C25.6031 6.86297 25.9482 7.47306 26.2173 8.12835C26.3882 8.54799 26.575 8.96763 26.6604 9.41955C26.5718 9.33239 26.4832 9.24846 26.3945 9.16131C25.4955 8.26069 24.4856 7.5118 23.3555 6.94044C21.1174 5.81064 18.7526 5.41037 16.2803 5.78482C12.9468 6.29161 10.275 7.95726 8.2965 10.7333C6.57122 13.1576 5.85895 15.8885 6.08688 18.8711C6.22617 20.6853 6.758 22.3735 7.64754 23.9488C7.84065 24.291 8.02742 24.6396 8.2965 24.9269C8.30916 24.9398 8.32499 24.9527 8.33765 24.9656L8.34399 24.9817L8.33449 24.9656C8.33449 24.9656 8.30916 24.9366 8.2965 24.9236C8.27751 24.7687 8.18887 24.6396 8.12556 24.504C6.94793 21.9958 6.64087 19.3715 7.19802 16.6567C7.76151 13.9129 9.11641 11.634 11.2311 9.84242C13.7446 7.70871 16.657 6.79518 19.9081 7.04697C21.6492 7.18254 23.2827 7.70548 24.7959 8.59641C25.5556 9.0451 26.2869 9.53898 26.9074 10.1814C26.9169 10.2298 26.9232 10.275 26.9359 10.3234C27.2967 11.8115 27.3949 13.319 27.2619 14.8458C27.1606 16.024 26.9074 17.1732 26.5085 18.2869C25.9102 19.9622 25.0301 21.4697 23.862 22.7899C22.6812 24.1231 21.3042 25.2045 19.7055 25.9953C17.3091 27.1832 14.7861 27.5964 12.1491 27.293C10.3004 27.08 8.57191 26.4828 6.96376 25.5241C6.89412 25.4821 6.81498 25.4563 6.739 25.424H6.74533Z" fill="#FFFCF7"/>
<path d="M26.6605 9.41293C26.575 8.96101 26.3914 8.54459 26.2173 8.12173C25.9482 7.46967 25.6031 6.85635 25.2707 6.23657C25.6728 6.41734 26.0147 6.69495 26.3566 6.9661C28.3288 8.53491 29.7976 10.4943 30.7157 12.8766C31.2127 14.1613 31.5102 15.4945 31.6052 16.8761C31.7572 19.0227 31.4628 21.0951 30.6682 23.0867C30.0699 24.591 29.2436 25.95 28.1705 27.154C25.8501 29.7558 22.9725 31.2826 19.5472 31.6474C15.7358 32.0541 12.3391 30.9663 9.37917 28.4872C8.38833 27.6576 7.53993 26.6795 6.82766 25.5852C6.79284 25.5336 6.77068 25.4755 6.74219 25.4206C6.81816 25.4529 6.8973 25.4787 6.96695 25.5207C8.57193 26.4826 10.3035 27.0766 12.1523 27.2896C14.7893 27.5963 17.3123 27.1799 19.7087 25.992C21.3042 25.2011 22.6812 24.1229 23.8652 22.7865C25.0333 21.4663 25.9134 19.9588 26.5117 18.2835C26.9105 17.1666 27.1638 16.0206 27.2651 14.8424C27.3981 13.3188 27.2999 11.8081 26.939 10.32C26.9264 10.2748 26.92 10.2264 26.9105 10.178C27.1986 10.3813 27.4139 10.6589 27.664 10.9043C27.7906 11.0269 27.8729 11.198 28.0375 11.2787C28.0533 11.3271 28.0787 11.3691 28.1262 11.3949C28.1293 11.3981 28.1357 11.4014 28.1388 11.4046C28.1357 11.4014 28.1325 11.3949 28.1293 11.3917C28.104 11.3497 28.0787 11.3045 28.0533 11.2626C28.009 11.1851 27.9679 11.1044 27.9204 11.0302C27.5532 10.4459 27.11 9.92618 26.6605 9.40647V9.41293Z" fill="#EEE5D8"/>
<path d="M26.6604 9.41292C27.1099 9.93263 27.5531 10.4556 27.9203 11.0366C27.9678 11.1141 28.009 11.1915 28.0533 11.269C28.047 11.2755 28.0406 11.2787 28.0375 11.2852C27.8729 11.2012 27.7874 11.0334 27.6639 10.9107C27.4138 10.6654 27.2017 10.3845 26.9105 10.1844C26.29 9.54204 25.5588 9.04816 24.799 8.59946C23.2858 7.70531 21.6492 7.18237 19.9113 7.05002C16.657 6.80146 13.7446 7.71176 11.2342 9.84547C9.12271 11.637 7.76465 13.916 7.20116 16.6598C6.64401 19.3745 6.94791 21.9957 8.1287 24.5071C8.19201 24.6426 8.28065 24.7718 8.29964 24.9267C8.03056 24.6394 7.84379 24.2876 7.65068 23.9486C6.76114 22.3766 6.22931 20.6851 6.09002 18.871C5.86209 15.8851 6.5712 13.1542 8.29964 10.7332C10.275 7.95709 12.95 6.29144 16.2834 5.78464C18.7558 5.4102 21.1205 5.80724 23.3586 6.94027C24.4888 7.51163 25.4986 8.25729 26.3977 9.16114C26.4863 9.24829 26.5749 9.33222 26.6636 9.41938V9.41292H26.6604Z" fill="#C4B5A1"/>
<path d="M8.84375 24.1746L8.85358 24.188L8.84375 24.1713V24.1746Z" fill="#B69942"/>
<path d="M8.80274 24.1263C8.80274 24.1263 8.83132 24.1587 8.84402 24.1717C8.84402 24.1717 8.81226 24.1425 8.79956 24.1296V24.1263H8.80274Z" fill="#B69942"/>
<path d="M30.1773 9.35498C30.2057 9.39993 30.234 9.44809 30.2592 9.49305H30.2561C30.2057 9.47057 30.1773 9.42241 30.1584 9.37103C30.1647 9.36461 30.171 9.3614 30.1773 9.35498Z" fill="#B69942"/>
<path d="M30.2596 9.4939C30.2596 9.4939 30.2662 9.50398 30.2695 9.50734C30.2629 9.50398 30.2596 9.50062 30.2563 9.49726H30.2596V9.4939Z" fill="#B69942"/>
<path d="M18.0428 33.9892C26.888 33.9892 34.0583 26.7992 34.0583 17.9299C34.0583 9.06065 26.888 1.87067 18.0428 1.87067C9.19773 1.87067 2.02734 9.06065 2.02734 17.9299C2.02734 26.7992 9.19773 33.9892 18.0428 33.9892Z" stroke="#14E8C5" stroke-width="3" stroke-miterlimit="10"/>
<path d="M20.6644 14.8713C20.6942 14.916 20.6972 14.9725 20.7091 15.0202C20.7508 15.1781 20.8163 15.327 20.8789 15.4759C20.9265 15.5921 20.9831 15.7083 21.0576 15.8095C21.1559 15.9406 21.2512 16.0776 21.3614 16.1997C21.5193 16.3784 21.695 16.5333 21.8856 16.6733C21.9958 16.7537 22.115 16.8222 22.2371 16.8848C22.3652 16.9503 22.4992 17.0039 22.6303 17.0605C22.6869 17.0844 22.7464 17.1052 22.812 17.1171C22.8805 17.132 22.949 17.1499 23.0175 17.1707C23.0622 17.1856 23.1069 17.1916 23.1515 17.1886C23.4077 17.2512 23.6698 17.2363 23.9289 17.2243C24.06 17.2184 24.1911 17.1886 24.3191 17.1648C24.4353 17.1409 24.5485 17.1082 24.6617 17.0724C24.7957 17.0278 24.9238 16.9652 25.0519 16.9056C25.1472 16.861 25.2395 16.8133 25.3259 16.7567C25.5433 16.6108 25.7429 16.444 25.9246 16.2563C25.9365 16.2444 25.9514 16.2265 25.9454 16.2027C26.1063 16.3486 26.2612 16.5065 26.4637 16.5959C26.5441 16.6316 26.6156 16.6793 26.702 16.7001C26.8152 16.7269 26.9254 16.7627 27.0415 16.7865C27.2143 16.8222 27.3871 16.8103 27.5568 16.8014C27.6968 16.7925 27.6939 16.7776 27.7028 16.9146C27.7028 16.9146 27.7028 16.9205 27.7028 16.9235C27.7207 17.0903 27.673 17.2512 27.6522 17.412C27.6343 17.5639 27.6164 17.7158 27.5807 17.8647C27.539 18.0315 27.53 18.2043 27.4794 18.3711C27.4556 18.4515 27.4407 18.5439 27.4288 18.6332C27.4198 18.7226 27.3871 18.8089 27.3662 18.8983C27.3513 18.9638 27.3364 19.0323 27.3215 19.0979C27.3066 19.1694 27.2858 19.2468 27.2709 19.3183C27.259 19.3808 27.25 19.4523 27.2113 19.5119C27.1935 19.5387 27.2024 19.5655 27.1994 19.5953C27.1815 19.6161 27.1607 19.637 27.1666 19.6698C27.1547 19.6846 27.1577 19.7025 27.1577 19.7204C27.1398 19.7532 27.113 19.78 27.122 19.8246C27.119 19.8931 27.0803 19.9527 27.0624 20.0182C27.0356 20.1225 26.9998 20.2238 26.9641 20.325C26.9254 20.4382 26.8837 20.5514 26.842 20.6616C26.7973 20.7748 26.7437 20.888 26.696 21.0012C26.6186 21.1829 26.5292 21.3586 26.4369 21.5343C26.3684 21.6624 26.2999 21.7905 26.2195 21.9126C26.1867 21.9126 26.1539 21.9067 26.1182 21.9067C23.8575 21.9067 21.5937 21.9067 19.333 21.9067C19.333 19.7829 19.333 17.6562 19.333 15.5325C19.333 15.4759 19.333 15.4193 19.333 15.3627C19.473 15.3508 19.613 15.3806 19.75 15.3181C19.8364 15.2793 19.9406 15.2823 20.033 15.2347C20.1313 15.184 20.2296 15.1393 20.3249 15.0828C20.4142 15.0321 20.4917 14.9696 20.5691 14.904C20.5989 14.8802 20.6317 14.8683 20.6674 14.8862L20.6644 14.8713Z" fill="#FEBF2E"/>
<path d="M19.3327 21.8918C21.5935 21.8918 23.8572 21.8918 26.1179 21.8918C26.1507 21.8918 26.1834 21.8948 26.2192 21.8977C26.2073 21.9841 26.2102 22.0735 26.2102 22.1598C26.2102 22.6305 26.2102 23.1011 26.2102 23.5687C26.2102 23.6789 26.2102 23.7891 26.1566 23.8904C26.0941 24.0125 26.0017 24.1078 25.8767 24.1704C25.7516 24.2329 25.6175 24.2448 25.4775 24.2448C24.584 24.2448 23.6904 24.2389 22.7968 24.2448C22.5764 24.2448 22.359 24.2478 22.1385 24.2568C22.1088 24.23 22.07 24.2419 22.0343 24.2419C21.1914 24.2419 20.3484 24.2478 19.5055 24.2419C18.4481 24.2329 17.3907 24.2419 16.3333 24.2359C15.3683 24.2359 14.4062 24.2359 13.4411 24.2359C13.4084 24.2359 13.3756 24.2389 13.3399 24.2419C13.2535 24.227 13.1641 24.2389 13.0777 24.2329C13.0301 24.2329 12.9794 24.2329 12.9377 24.2002C12.9705 24.2002 13.0063 24.2002 13.039 24.2002C15.0942 24.2002 17.1524 24.2002 19.2076 24.2002C19.289 24.2002 19.3298 24.1585 19.3298 24.0751C19.3298 23.3453 19.3298 22.6185 19.3298 21.8888L19.3327 21.8918Z" fill="#FEA63B"/>
<path d="M27.7001 16.9146C27.7001 16.9146 27.7001 16.9086 27.7001 16.9056C27.6912 16.7686 27.6941 16.7835 27.5541 16.7925C27.3844 16.8014 27.2116 16.8133 27.0388 16.7776C26.9227 16.7537 26.8125 16.721 26.6993 16.6912C26.6159 16.6703 26.5414 16.6227 26.461 16.5869C26.2555 16.4976 26.1036 16.3397 25.9427 16.1938C25.8861 16.1253 25.8295 16.0597 25.773 15.9912C25.767 15.9376 25.7372 15.9019 25.6955 15.8691C25.6568 15.7738 25.6032 15.6844 25.5704 15.5861C25.5198 15.4402 25.4691 15.2942 25.4602 15.1364C25.4602 14.9964 25.4602 14.8564 25.4602 14.7194C25.4751 14.5287 25.5347 14.35 25.6091 14.1713C25.7223 13.9003 25.8951 13.6739 26.1155 13.4863C26.2436 13.379 26.3836 13.2897 26.5325 13.2122C26.5653 13.2182 26.5891 13.2033 26.607 13.1765C26.6218 13.1765 26.6367 13.1705 26.6546 13.1675C26.6904 13.1765 26.7082 13.1497 26.7321 13.1318C26.8035 13.1169 26.875 13.0961 26.9465 13.0841C27.1997 13.0365 27.4529 13.0365 27.706 13.0841C27.8997 13.1199 28.0813 13.1914 28.2511 13.2897C28.5639 13.4684 28.8022 13.7186 28.9749 14.0313C29.0017 14.076 29.0226 14.1266 29.0464 14.1713C29.0434 14.2071 29.0494 14.2368 29.0851 14.2517C29.0851 14.2666 29.0881 14.2815 29.0911 14.2964C29.0792 14.3292 29.106 14.3471 29.1209 14.3679C29.1298 14.4632 29.1626 14.5556 29.1775 14.6538C29.2043 14.8355 29.2072 15.0143 29.1775 15.1959C29.1626 15.2853 29.1387 15.3717 29.1209 15.4581C29.1 15.5593 29.0524 15.6546 29.0077 15.747C28.9183 15.9227 28.8141 16.0895 28.6651 16.2265C28.4983 16.3814 28.3315 16.5333 28.1171 16.6197C28.0248 16.6554 27.9384 16.7031 27.8431 16.724C27.7865 16.7359 27.7269 16.7537 27.7329 16.8342C27.7329 16.861 27.7269 16.8908 27.7001 16.9086V16.9146Z" fill="#FEA63B"/>
<path d="M27.1219 19.809C27.113 19.7676 27.1396 19.738 27.1574 19.7055C27.1721 19.7499 27.1692 19.7853 27.1219 19.809Z" fill="#772A0C"/>
<path d="M27.1666 19.6574C27.1606 19.6248 27.1813 19.6041 27.1991 19.5834C27.1991 19.613 27.2109 19.6455 27.1666 19.6574Z" fill="#772A0C"/>
<path d="M19.33 15.3449C19.33 15.4015 19.33 15.4581 19.33 15.5147C19.33 17.6384 19.33 19.7651 19.33 21.8888C19.2883 21.8888 19.2466 21.8888 19.2049 21.8888C17.0037 21.8888 14.8055 21.8888 12.6044 21.8888C12.5567 21.8888 12.512 21.8888 12.4644 21.8918C12.3989 21.862 12.3869 21.7935 12.3572 21.7429C12.2291 21.5284 12.1189 21.305 12.0116 21.0787C11.9282 20.9029 11.8389 20.7272 11.7853 20.5395C11.7317 20.3578 11.6602 20.1821 11.6095 20.0004C11.547 19.783 11.4844 19.5685 11.4219 19.3511C11.3534 19.1128 11.2998 18.8715 11.2461 18.6333C11.2253 18.5439 11.2074 18.4545 11.1955 18.3622C11.1836 18.2669 11.1538 18.1746 11.133 18.0792C11.1151 17.9929 11.1091 17.9065 11.0913 17.8201C11.0704 17.7159 11.0555 17.6086 11.0376 17.5014C11.0168 17.3614 11.0079 17.2214 10.9751 17.0844C10.9572 17.0159 10.9662 16.9414 10.9602 16.867C10.9751 16.7508 10.9751 16.7508 11.0883 16.7836C11.1151 16.7925 11.1449 16.7925 11.1717 16.7925C11.401 16.7955 11.6274 16.7955 11.8508 16.724C12.0384 16.6644 12.2112 16.584 12.378 16.4827C12.5031 16.4053 12.5984 16.2981 12.7056 16.2057C12.935 16.4738 13.215 16.6853 13.5188 16.861C13.6767 16.9504 13.8435 17.0248 14.0222 17.0755C14.0549 17.0844 14.0847 17.1082 14.1205 17.1082C14.1205 17.1231 14.1264 17.138 14.1383 17.138C14.2217 17.147 14.2962 17.1946 14.3826 17.1797C14.5226 17.1797 14.6596 17.2274 14.8026 17.2274C14.9902 17.2274 15.1808 17.2393 15.3655 17.2125C15.5264 17.1916 15.6902 17.1797 15.8391 17.1112C15.86 17.1023 15.8838 17.1053 15.9076 17.1023C15.9136 17.1023 15.9225 17.1053 15.9314 17.1023C16.0506 17.0755 16.1578 17.0189 16.271 16.9772C16.277 16.9772 16.277 16.9593 16.2799 16.9504C16.2799 16.9504 16.2829 16.9474 16.2859 16.9444C16.3246 16.9563 16.3484 16.9236 16.3723 16.9087C16.4378 16.8699 16.5152 16.8551 16.5659 16.7925C16.5718 16.7925 16.5748 16.7925 16.5808 16.7925C16.6284 16.7776 16.6671 16.7508 16.7029 16.7151C16.828 16.6436 16.9382 16.5483 17.0454 16.45C17.1765 16.3249 17.3105 16.2027 17.4237 16.0598C17.5131 15.9466 17.5905 15.8245 17.6679 15.6994C17.7573 15.5504 17.8228 15.3896 17.8943 15.2317C17.9032 15.2139 17.9032 15.193 17.9092 15.1722C17.9569 15.1662 17.9479 15.1334 17.942 15.1037C17.9449 15.0858 17.9479 15.0679 17.9509 15.05C17.9956 15.0322 17.9837 14.9934 17.9807 14.9607C17.9807 14.9369 17.9837 14.916 17.9866 14.8922C18.0462 14.8147 18.0909 14.8654 18.1296 14.913C18.1534 14.9458 18.1922 14.9458 18.219 14.9696C18.3679 15.1066 18.5556 15.1811 18.7402 15.2496C18.9279 15.3181 19.1274 15.3509 19.33 15.336V15.3449Z" fill="#FEF67F"/>
<path d="M12.7086 16.2146C12.5984 16.307 12.5031 16.4142 12.3809 16.4916C12.2141 16.5929 12.0414 16.6733 11.8537 16.7329C11.6303 16.8074 11.404 16.8044 11.1746 16.8014C11.1478 16.8014 11.118 16.8014 11.0912 16.7925C10.981 16.7567 10.978 16.7567 10.9631 16.8759C10.9363 16.8669 10.9393 16.8431 10.9393 16.8252C10.9333 16.7686 10.8946 16.7448 10.847 16.7359C10.4925 16.6525 10.2036 16.4589 9.95936 16.1967C9.83426 16.0627 9.73596 15.9078 9.64959 15.744C9.56619 15.5861 9.5364 15.4164 9.4947 15.2466C9.45896 15.1066 9.46491 14.9636 9.46789 14.8236C9.47385 14.6211 9.53044 14.4275 9.60491 14.2368C9.67341 14.0581 9.76277 13.8913 9.88787 13.7484C10.1053 13.4952 10.3644 13.3046 10.6772 13.1795C10.987 13.0544 11.3057 13.0454 11.6274 13.0782C11.809 13.0961 11.9848 13.1646 12.1546 13.248C12.3839 13.3611 12.5835 13.5041 12.7503 13.6947C12.8992 13.8645 13.0183 14.0522 13.0958 14.2666C13.1256 14.35 13.1583 14.4334 13.1673 14.5228C13.1673 14.5466 13.1762 14.5704 13.203 14.5794C13.203 14.5973 13.203 14.6181 13.203 14.636C13.203 14.8326 13.203 15.0291 13.203 15.2257C13.1375 15.5474 13.0154 15.8423 12.8128 16.1044C12.7801 16.1461 12.7324 16.1729 12.7086 16.2206V16.2146Z" fill="#FEBF2E"/>
<path d="M20.6642 14.8713C20.6255 14.8535 20.5957 14.8654 20.5659 14.8892C20.4885 14.9547 20.4111 15.0173 20.3217 15.0679C20.2264 15.1245 20.1281 15.1692 20.0298 15.2198C19.9404 15.2675 19.8362 15.2645 19.7468 15.3032C19.6098 15.3628 19.4698 15.333 19.3298 15.3479C19.3298 15.3062 19.3298 15.2645 19.3298 15.2228C19.3298 14.0165 19.3298 12.8131 19.3298 11.6068C19.5085 11.5919 19.6783 11.6247 19.8511 11.6753C20.0596 11.7349 20.2472 11.8272 20.423 11.9494C20.6136 12.0774 20.7655 12.2442 20.8936 12.4289C20.9859 12.5629 21.0514 12.7149 21.1051 12.8697C21.1855 13.1021 21.2302 13.3374 21.2153 13.5816C21.2093 13.7037 21.1736 13.8199 21.1497 13.942C21.1289 14.0373 21.0961 14.1267 21.0604 14.2161C21.0127 14.3292 20.9532 14.4394 20.8846 14.5407C20.8221 14.636 20.7447 14.7164 20.6702 14.7998C20.6464 14.8267 20.6523 14.8475 20.6583 14.8743L20.6642 14.8713Z" fill="#FEA63B"/>
<path d="M19.3331 11.6068C19.3331 12.8131 19.3331 14.0165 19.3331 15.2228C19.3331 15.2645 19.3331 15.3062 19.3331 15.3479C19.1305 15.3628 18.931 15.33 18.7433 15.2615C18.5587 15.196 18.371 15.1185 18.2221 14.9815C18.1953 14.9577 18.1566 14.9547 18.1327 14.9249C18.097 14.8773 18.0493 14.8266 17.9898 14.9041C18.0225 14.8207 17.9689 14.776 17.9183 14.7164C17.7604 14.5258 17.6293 14.3173 17.5549 14.076C17.4834 13.8437 17.4357 13.6084 17.4566 13.3642C17.4774 13.1527 17.5102 12.9412 17.5996 12.7476C17.7306 12.4646 17.9093 12.2204 18.1566 12.0238C18.3412 11.8749 18.5438 11.7647 18.7672 11.6962C18.9489 11.6396 19.1365 11.5919 19.3331 11.6128V11.6068Z" fill="#FEBF2E"/>
<path d="M16.2861 16.9622C16.2861 16.9622 16.2832 16.986 16.2772 16.989C16.164 17.0307 16.0568 17.0873 15.9376 17.1141C15.9317 17.1141 15.9228 17.1141 15.9138 17.1141C16.033 17.0546 16.1551 16.998 16.2832 16.9652L16.2861 16.9622Z" fill="#FEF67F"/>
<path d="M14.3886 17.1886C14.3022 17.2035 14.2248 17.1558 14.1443 17.1469C14.1324 17.1469 14.1265 17.129 14.1265 17.1171C14.2158 17.135 14.3082 17.1469 14.3886 17.1886Z" fill="#FEF67F"/>
<path d="M17.9805 14.9695C17.9805 15.0021 17.9953 15.0405 17.9509 15.0582C17.9361 15.0198 17.9598 14.9962 17.9805 14.9695Z" fill="#FEA63B"/>
<path d="M17.9389 15.1125C17.9448 15.1421 17.9566 15.1746 17.9064 15.1806C17.9034 15.151 17.9005 15.1214 17.9389 15.1125Z" fill="#FEA63B"/>
<path d="M12.4673 21.8978C12.5149 21.8978 12.5596 21.8948 12.6073 21.8948C14.8084 21.8948 17.0066 21.8948 19.2078 21.8948C19.2495 21.8948 19.2912 21.8948 19.3329 21.8948C19.3329 22.6245 19.3329 23.3513 19.3329 24.081C19.3329 24.1644 19.2922 24.2061 19.2108 24.2061C17.1556 24.2061 15.0974 24.2061 13.0421 24.2061C13.0094 24.2061 12.9736 24.2061 12.9409 24.2061C12.926 24.2061 12.9081 24.2061 12.8932 24.2032C12.8813 24.1704 12.8515 24.1734 12.8217 24.1734C12.6728 24.1198 12.5715 24.0155 12.509 23.8725C12.4881 23.8219 12.4673 23.7683 12.4673 23.7087C12.4673 23.1041 12.4673 22.5024 12.4673 21.8978Z" fill="#FEBF2E"/>
<path d="M12.8213 24.1704C12.8479 24.1704 12.8775 24.1674 12.8922 24.1999C12.8627 24.2029 12.8361 24.2029 12.8213 24.1704Z" fill="#FEA63B"/>
</svg>
