<svg width="33" height="33" viewBox="0 0 33 33" fill="none" xmlns="http://www.w3.org/2000/svg">
<path d="M16.7246 32.7276C7.87658 32.7276 0.738042 25.4258 0.77603 16.3455C0.810852 7.34255 8.0317 0.147333 16.8164 0.179613C25.5567 0.211893 32.689 7.50395 32.6858 16.4617C32.6826 25.4516 25.5409 32.7276 16.7246 32.7276ZM5.36939 23.9474C5.39788 24.0023 5.42004 24.0604 5.45486 24.112C6.16713 25.2063 7.01553 26.1812 8.00638 27.014C10.9631 29.4931 14.363 30.5809 18.1744 30.1742C21.5997 29.8095 24.4741 28.2794 26.7977 25.6808C27.8708 24.48 28.6971 23.1178 29.2954 21.6136C30.09 19.6186 30.3844 17.5463 30.2324 15.4029C30.1374 14.0213 29.8399 12.6881 29.3429 11.4034C28.4248 9.02434 26.956 7.06494 24.9838 5.49291C24.6419 5.22175 24.3 4.94414 23.8979 4.76338C23.8283 4.7085 23.765 4.64394 23.689 4.59875C23.2521 4.35019 22.8121 4.09841 22.3531 3.88536C19.9694 2.78784 17.478 2.40371 14.8917 2.7717C11.6627 3.2333 8.93708 4.69882 6.72429 7.14887C5.74927 8.22702 4.97368 9.44075 4.38171 10.7771C3.43518 12.9173 3.0553 15.164 3.22308 17.5011C3.33388 19.0312 3.68526 20.5096 4.2899 21.9234C4.5938 22.6304 4.92303 23.3212 5.37255 23.9442L5.36939 23.9474Z" fill="#C1B08F"/>
<path d="M5.37277 23.9476C4.92009 23.3246 4.59086 22.6338 4.29012 21.9269C3.68548 20.5162 3.33409 19.0378 3.2233 17.5045C3.05552 15.1674 3.4354 12.9207 4.38193 10.7806C4.9739 9.44096 5.74949 8.23046 6.72451 7.15231C8.9373 4.70225 11.6598 3.23674 14.8919 2.77513C17.4814 2.40714 19.9696 2.79127 22.3533 3.8888C22.8123 4.10184 23.2492 4.35363 23.6892 4.60218C23.7652 4.64415 23.8285 4.71194 23.8982 4.76681C24.2306 5.38659 24.5756 5.99668 24.8447 6.65197C25.0156 7.07161 25.2024 7.49125 25.2879 7.94317C25.1992 7.85601 25.1106 7.77208 25.022 7.68493C24.1229 6.78431 23.1131 6.03542 21.9829 5.46406C19.7448 4.33426 17.3801 3.93399 14.9077 4.30844C11.5743 4.81523 8.90247 6.48088 6.92394 9.25697C5.19866 11.6812 4.48639 14.4121 4.71432 17.3948C4.85361 19.2089 5.38544 20.8971 6.27498 22.4724C6.46809 22.8146 6.65486 23.1632 6.92394 23.4505C6.93661 23.4634 6.95243 23.4763 6.9651 23.4892L6.97143 23.5054L6.96193 23.4892C6.96193 23.4892 6.93661 23.4602 6.92394 23.4473C6.90495 23.2923 6.81631 23.1632 6.753 23.0276C5.57538 20.5195 5.26831 17.8951 5.82546 15.1804C6.38895 12.4365 7.74385 10.1576 9.8585 8.36604C12.372 6.23233 15.2844 5.3188 18.5356 5.57059C20.2767 5.70616 21.9101 6.2291 23.4233 7.12003C24.1831 7.56872 24.9143 8.0626 25.5348 8.70498C25.5443 8.7534 25.5506 8.79859 25.5633 8.84701C25.9242 10.3351 26.0223 11.8426 25.8894 13.3694C25.7881 14.5477 25.5348 15.6968 25.1359 16.8105C24.5376 18.4858 23.6576 19.9933 22.4894 21.3136C21.3087 22.6467 19.9316 23.7281 18.3329 24.519C15.9366 25.7069 13.4135 26.1201 10.7765 25.8166C8.9278 25.6036 7.19935 25.0064 5.5912 24.0477C5.52156 24.0057 5.44242 23.9799 5.36644 23.9476H5.37277Z" fill="#FFFCF7"/>
<path d="M25.2879 7.93655C25.2024 7.48463 25.0188 7.06822 24.8447 6.64535C24.5756 5.99329 24.2306 5.37997 23.8982 4.76019C24.3002 4.94096 24.6421 5.21857 24.984 5.48972C26.9562 7.05853 28.4251 9.01793 29.3431 11.4002C29.8401 12.6849 30.1377 14.0181 30.2326 15.3997C30.3846 17.5463 30.0902 19.6187 29.2956 21.6104C28.6973 23.1146 27.8711 24.4736 26.7979 25.6777C24.4775 28.2794 21.5999 29.8063 18.1747 30.171C14.3632 30.5778 10.9665 29.4899 8.00662 27.0108C7.01577 26.1812 6.16737 25.2031 5.4551 24.1088C5.42028 24.0572 5.39812 23.9991 5.36963 23.9442C5.4456 23.9765 5.52475 24.0023 5.59439 24.0443C7.19938 25.0062 8.93099 25.6002 10.7797 25.8132C13.4167 26.1199 15.9397 25.7035 18.3361 24.5156C19.9316 23.7247 21.3087 22.6466 22.4926 21.3102C23.6608 19.9899 24.5408 18.4824 25.1391 16.8071C25.538 15.6902 25.7912 14.5443 25.8925 13.366C26.0255 11.8424 25.9274 10.3317 25.5665 8.84362C25.5538 8.79842 25.5475 8.75 25.538 8.70158C25.8261 8.90495 26.0413 9.18256 26.2914 9.42789C26.418 9.55055 26.5003 9.72163 26.665 9.80233C26.6808 9.85075 26.7061 9.89272 26.7536 9.91854C26.7568 9.92177 26.7631 9.925 26.7663 9.92823C26.7631 9.925 26.7599 9.91854 26.7568 9.91531C26.7314 9.87335 26.7061 9.82816 26.6808 9.78619C26.6365 9.70872 26.5953 9.62802 26.5478 9.55378C26.1806 8.96951 25.7374 8.4498 25.2879 7.93009V7.93655Z" fill="#EEE5D8"/>
<path d="M25.2879 7.93654C25.7374 8.45625 26.1806 8.97918 26.5478 9.56023C26.5953 9.6377 26.6364 9.71517 26.6807 9.79264C26.6744 9.7991 26.6681 9.80233 26.6649 9.80878C26.5003 9.72485 26.4148 9.557 26.2914 9.43433C26.0413 9.189 25.8292 8.90817 25.5379 8.70803C24.9175 8.06566 24.1862 7.57178 23.4265 7.12308C21.9133 6.22893 20.2766 5.70599 18.5387 5.57364C15.2844 5.32509 12.372 6.23538 9.86164 8.36909C7.75015 10.1606 6.39209 12.4396 5.8286 15.1834C5.27145 17.8982 5.57535 20.5193 6.75614 23.0307C6.81945 23.1663 6.90809 23.2954 6.92708 23.4503C6.658 23.163 6.47123 22.8112 6.27813 22.4722C5.38858 20.9002 4.85675 19.2087 4.71746 17.3946C4.48953 14.4087 5.19864 11.6778 6.92708 9.25679C8.90245 6.48071 11.5774 4.81506 14.9109 4.30826C17.3832 3.93382 19.748 4.33086 21.9861 5.46389C23.1162 6.03525 24.1261 6.78092 25.0251 7.68476C25.1137 7.77191 25.2024 7.85584 25.291 7.943V7.93654H25.2879Z" fill="#C4B5A1"/>
<path d="M7.47119 22.6982L7.48102 22.7116L7.47119 22.6949V22.6982Z" fill="#B69942"/>
<path d="M7.43018 22.6499C7.43018 22.6499 7.45876 22.6823 7.47146 22.6953C7.47146 22.6953 7.4397 22.6661 7.427 22.6532V22.6499H7.43018Z" fill="#B69942"/>
<path d="M28.8048 7.8786C28.8331 7.92355 28.8615 7.97172 28.8867 8.01667H28.8835C28.8331 7.99419 28.8048 7.94603 28.7859 7.89466C28.7922 7.88823 28.7985 7.88502 28.8048 7.8786Z" fill="#B69942"/>
<path d="M28.8871 8.01752C28.8871 8.01752 28.8937 8.0276 28.897 8.03096C28.8904 8.0276 28.8871 8.02424 28.8838 8.02088H28.8871V8.01752Z" fill="#B69942"/>
<path d="M9.25783 17.5417C9.03641 16.9159 8.88238 16.2709 8.69305 15.6323C8.40103 14.6311 8.11864 13.6299 7.83304 12.6255C7.82341 12.5934 7.80736 12.5645 7.83624 12.5164C8.33043 12.7763 8.82783 13.0362 9.32201 13.2961C9.84187 13.5689 10.3617 13.8449 10.8816 14.1209C10.9201 14.1433 10.9618 14.1722 11.01 14.1433C11.0388 14.1882 11.0741 14.2235 11.1255 14.246C11.963 14.6824 12.8006 15.1221 13.6349 15.5649C13.744 15.6227 13.7922 15.597 13.8467 15.4943C14.2254 14.7659 14.6105 14.0406 14.9923 13.3154C15.0212 13.2641 15.0469 13.2095 15.0373 13.1485C15.1431 13.1293 15.1496 13.0298 15.1881 12.9592C15.8491 11.6981 16.507 10.4369 17.1648 9.17578C17.1841 9.14048 17.2033 9.1084 17.2386 9.04742C17.4151 9.37795 17.5788 9.68281 17.7392 9.99087C18.2623 10.9921 18.7854 11.9933 19.3084 12.9945C19.3405 13.0555 19.3469 13.1389 19.44 13.1517C19.4304 13.2352 19.4753 13.3026 19.5106 13.37C19.8828 14.0791 20.2615 14.7851 20.6305 15.4975C20.6947 15.6195 20.7557 15.613 20.8584 15.5585C21.4392 15.2504 22.0265 14.9488 22.6073 14.6407C22.8993 14.4867 23.1913 14.323 23.4833 14.1658C23.7433 14.0342 24.0064 13.9026 24.2663 13.7711C24.3305 13.739 24.3979 13.7133 24.4621 13.6844C24.4621 14.6279 24.446 15.5681 24.4749 16.5116C24.491 17.0378 24.0546 17.5545 23.4288 17.5513C18.7051 17.5384 13.9783 17.5449 9.25462 17.5449L9.25783 17.5417ZM18.1885 15.4173C18.1885 15.0386 18.1147 14.7498 17.9382 14.4963C17.6269 14.0503 17.1263 13.954 16.7701 14.2588C16.2374 14.7209 16.1347 15.6098 16.5455 16.1842C16.9113 16.6977 17.4215 16.7362 17.8515 16.2805C18.0986 16.0174 18.1692 15.6901 18.1853 15.4141L18.1885 15.4173Z" fill="#F8CD69"/>
<path d="M9.25806 17.5417C13.9817 17.5417 18.7086 17.5353 23.4322 17.5481C24.058 17.5481 24.4944 17.0315 24.4784 16.5084C24.4495 15.5682 24.4687 14.6247 24.4655 13.6813C25.1619 13.3122 25.8614 12.94 26.5578 12.571C26.5803 12.5581 26.6059 12.5581 26.6316 12.5517C26.6188 12.8245 26.5097 13.078 26.4326 13.3411C25.9 15.2216 25.3608 17.1021 24.8217 18.9825C24.8089 19.0275 24.7928 19.0692 24.78 19.1141C24.4687 19.1141 24.1543 19.1141 23.843 19.1141C19.129 19.1141 14.4181 19.1141 9.70411 19.1141C9.55649 18.591 9.40567 18.068 9.25806 17.5449V17.5417Z" fill="#F6C144"/>
<path d="M23.8429 19.1109C24.1542 19.1109 24.4687 19.1109 24.78 19.1109C24.78 19.6917 24.78 20.2757 24.7864 20.8566C24.7864 20.9721 24.7479 21.0106 24.6388 20.9946C24.6067 20.9914 24.5746 20.9946 24.5393 20.9946C19.6712 20.9946 14.8064 20.9946 9.93831 20.9978C9.75219 20.9978 9.66876 20.9689 9.68801 20.7571C9.71047 20.5228 9.69764 20.2854 9.69764 20.0511C14.1453 20.0511 18.593 20.0511 23.0407 20.0511C23.0984 20.0511 23.1594 20.0511 23.2172 20.0511C23.506 20.0447 23.721 19.8746 23.8076 19.5954C23.859 19.435 23.8205 19.2713 23.8333 19.1077L23.8429 19.1109Z" fill="#F2A23A"/>
<path d="M15.0407 13.1454C15.0504 13.2063 15.0247 13.2609 14.9958 13.3122C14.6139 14.0375 14.2288 14.7627 13.8502 15.4911C13.7956 15.5938 13.7475 15.6195 13.6384 15.5617C12.8041 15.1189 11.9665 14.6825 11.129 14.2428C11.0808 14.2172 11.0455 14.1819 11.0134 14.1401C11.3022 12.5677 11.5943 10.9953 11.8927 9.36514C12.0788 9.58336 12.2296 9.76306 12.3805 9.94597C13.2661 11.0114 14.1518 12.08 15.0407 13.1454Z" fill="#F6C144"/>
<path d="M23.4864 14.1626C23.1944 14.3199 22.9056 14.4835 22.6103 14.6376C22.0295 14.9456 21.4422 15.2473 20.8614 15.5553C20.7555 15.6099 20.6978 15.6163 20.6336 15.4944C20.2645 14.782 19.8891 14.076 19.5136 13.3668C19.4783 13.2994 19.4302 13.232 19.443 13.1486C20.1939 12.2436 20.9481 11.3355 21.7022 10.4305C21.9846 10.0904 22.2702 9.75024 22.5847 9.37479C22.8927 11.0018 23.1912 12.5838 23.4864 14.1658V14.1626Z" fill="#F6C144"/>
<path d="M23.8427 19.1109C23.8299 19.2713 23.8684 19.435 23.817 19.5986C23.7304 19.8778 23.5122 20.0479 23.2266 20.0543C23.1688 20.0543 23.1078 20.0543 23.0501 20.0543C18.6024 20.0543 14.1547 20.0543 9.70703 20.0543C9.70703 19.7398 9.70703 19.4254 9.70703 19.1077C14.4211 19.1077 19.1319 19.1077 23.8459 19.1077L23.8427 19.1109Z" fill="#F4B461"/>
<path d="M26.6345 12.5514C26.6345 12.5514 26.6408 12.5419 26.6439 12.5356C26.6408 12.5388 26.6345 12.5451 26.6313 12.5482V12.5514H26.6345Z" fill="#F6C144"/>
<path d="M18.1884 15.4173C18.1724 15.6933 18.1018 16.0206 17.8547 16.2838C17.4247 16.7394 16.9144 16.6977 16.5486 16.1875C16.1346 15.6099 16.2405 14.7242 16.7732 14.2621C17.1262 13.9572 17.6268 14.0535 17.9413 14.4995C18.1178 14.7531 18.1916 15.0419 18.1916 15.4205L18.1884 15.4173Z" fill="#F2A23A"/>
</svg>
